<svg width="40" height="40" viewBox="0 0 40 40" fill="none" xmlns="http://www.w3.org/2000/svg">
<path d="M10.7464 13.2824C10.8681 12.1878 10.9289 11.6405 11.0382 11.1742C11.8052 7.90201 14.5357 5.45814 17.8725 5.05715C18.3481 5 18.8987 5 20 5C21.1013 5 21.652 5 22.1275 5.05715C25.4644 5.45814 28.1948 7.90201 28.9619 11.1742C29.0712 11.6405 29.132 12.1878 29.2536 13.2824L29.6733 17.0594C29.8066 18.2592 29.8733 18.8591 30.027 19.4371C30.117 19.7755 30.2291 20.1077 30.3626 20.4314C30.5906 20.9843 30.9012 21.5019 31.5223 22.5371L33.1826 25.3043C33.9884 26.6473 34.3913 27.3187 34.104 27.826C33.8168 28.3333 33.0338 28.3333 31.4677 28.3333H8.53241C6.96631 28.3333 6.18325 28.3333 5.89602 27.826C5.60879 27.3187 6.01167 26.6473 6.81743 25.3043L8.47779 22.5371C9.09889 21.5019 9.40944 20.9843 9.63748 20.4314C9.77099 20.1077 9.8831 19.7755 9.97309 19.4371C10.1268 18.8591 10.1935 18.2592 10.3268 17.0594L10.7464 13.2824Z" fill="#D9D9DB"/>
<path d="M15 28.3333C15 28.9899 15.1293 29.6401 15.3806 30.2467C15.6319 30.8534 16.0002 31.4046 16.4645 31.8689C16.9288 32.3332 17.48 32.7015 18.0866 32.9527C18.6932 33.204 19.3434 33.3333 20 33.3333C20.6566 33.3333 21.3068 33.204 21.9134 32.9527C22.52 32.7015 23.0712 32.3332 23.5355 31.8689C23.9998 31.4046 24.3681 30.8534 24.6194 30.2467C24.8707 29.6401 25 28.9899 25 28.3333L20 28.3333H15Z" fill="#D9D9DB"/>
</svg>
