<svg width="39" height="18" viewBox="0 0 39 18" fill="none" xmlns="http://www.w3.org/2000/svg">
<path d="M22.6806 0.739978C22.6806 2.01218 22.6763 3.28866 22.6806 4.56086C22.6849 5.35066 22.6977 6.14045 22.719 6.93024C22.7361 7.46388 22.7703 7.99753 22.8001 8.5269C22.8172 8.8044 22.8343 9.07762 22.8684 9.35511C22.8983 9.61553 22.9496 9.87595 22.9923 10.1364C23.0136 10.2773 23.0392 10.4224 23.0691 10.5633C23.0862 10.6316 23.1075 10.7042 23.1459 10.7639C23.163 10.7895 23.2228 10.7981 23.2612 10.8066C23.2868 10.8109 23.3167 10.7895 23.3423 10.7895C23.7308 10.7767 24.1236 10.7511 24.5121 10.7554C24.8152 10.7597 25.1183 10.7895 25.4171 10.8237C25.7202 10.8579 26.0233 10.9005 26.3265 10.956C26.5954 11.003 26.8644 11.0713 27.1333 11.1311C27.3425 11.178 27.556 11.2207 27.7652 11.2805C28.017 11.3531 28.2604 11.4427 28.508 11.5281C28.6531 11.5793 28.8026 11.6306 28.9434 11.6903C29.1227 11.7672 29.2978 11.8483 29.4728 11.9337C29.5838 11.9849 29.6905 12.0447 29.793 12.1087C30.1345 12.3136 30.459 12.5399 30.6426 12.907C30.745 13.112 30.7664 13.3425 30.7365 13.5688C30.6724 14.0554 30.4291 14.4525 30.0961 14.7983C29.84 15.063 29.5539 15.285 29.2337 15.4643C28.9904 15.6009 28.7513 15.7418 28.5037 15.857C28.2476 15.9766 27.9786 16.0662 27.7139 16.1644C27.5517 16.2242 27.3852 16.2839 27.2187 16.3309C27.0095 16.3907 26.8003 16.4462 26.5911 16.5017C26.4289 16.5444 26.2624 16.5913 26.1002 16.6297C25.9721 16.6596 25.8398 16.6852 25.7074 16.7109C25.4769 16.7535 25.2506 16.8005 25.0201 16.8389C24.7725 16.8773 24.5206 16.903 24.273 16.9328C23.9827 16.967 23.6924 17.0054 23.4021 17.0353C23.274 17.0481 23.1459 17.0567 23.0221 17.0695C22.6977 17.0908 22.3732 17.1164 22.0488 17.1378C21.9805 17.142 21.9164 17.1378 21.8481 17.142C21.7926 17.1463 21.7627 17.1207 21.7585 17.0652C21.7542 17.0353 21.7499 17.0054 21.7499 16.9755C21.7371 16.7365 21.72 16.4974 21.7072 16.2583C21.6944 16.0534 21.6902 15.8485 21.6731 15.6393C21.6347 15.1099 21.592 14.5848 21.5493 14.0554C21.5237 13.731 21.5023 13.4108 21.4767 13.0863C21.4596 12.8601 21.4383 12.6296 21.4169 12.4033C21.3871 12.0703 21.3572 11.7373 21.323 11.4043C21.3145 11.3061 21.2974 11.2122 21.2846 11.114C21.2718 11.0073 21.2675 10.9048 21.2547 10.7981C21.2419 10.6828 21.2206 10.5676 21.2035 10.4523C21.2035 10.4437 21.1992 10.4352 21.1992 10.4267C21.1736 10.1876 21.1523 9.94853 21.1224 9.71372C21.0882 9.45331 21.0498 9.19289 21.0156 8.93674C20.9772 8.66778 20.9473 8.39883 20.9046 8.13414C20.8662 7.89507 20.8235 7.65173 20.7808 7.41265C20.751 7.24189 20.7296 7.07112 20.704 6.90036C20.6613 6.64421 20.6186 6.38806 20.5759 6.13191C20.546 5.94834 20.5161 5.76476 20.4863 5.58119C20.4478 5.36773 20.4052 5.15001 20.3625 4.93655C20.3368 4.79994 20.3112 4.66332 20.2899 4.52671C20.2472 4.30045 20.2045 4.07418 20.1661 3.84365C20.1319 3.66434 20.1063 3.48504 20.0679 3.31C20.0295 3.11789 19.9825 2.92578 19.9441 2.73367C19.9142 2.59279 19.8929 2.45617 19.8672 2.31529C19.8288 2.12745 19.7904 1.93961 19.752 1.75176C19.7178 1.57246 19.6837 1.39743 19.6452 1.21812C19.6324 1.14555 19.6666 1.11139 19.7306 1.08578C20.102 0.944896 20.4735 0.804015 20.8491 0.667402C21.2504 0.517982 21.6517 0.3771 22.0573 0.22768C22.2452 0.159374 22.433 0.0867985 22.6208 0.014223C22.6977 -0.015661 22.719 -0.00285434 22.7148 0.0867977C22.7148 0.261833 22.7062 0.436868 22.7062 0.616172C22.7062 0.658863 22.7062 0.701556 22.7062 0.739978C22.6977 0.739978 22.6891 0.739978 22.6806 0.739978ZM24.6956 12.5911C24.5377 12.5826 24.5206 12.6039 24.5249 12.7149C24.5249 12.7277 24.5291 12.7448 24.5291 12.7576C24.5676 13.0394 24.606 13.3169 24.6444 13.5986C24.6615 13.7139 24.6786 13.8292 24.6956 13.9444C24.7341 14.2049 24.7725 14.4696 24.8066 14.73C24.8365 14.9477 24.8621 15.1654 24.892 15.3832C24.9048 15.4643 24.9646 15.4856 25.0286 15.4386C25.1781 15.3319 25.3232 15.2209 25.4726 15.1142C25.716 14.9392 25.955 14.7599 26.1984 14.5848C26.446 14.4012 26.6936 14.2219 26.9412 14.0384C27.0778 13.9359 27.2187 13.8335 27.3553 13.7267C27.4023 13.6926 27.4023 13.6584 27.3468 13.6371C27.1461 13.5474 26.9498 13.4535 26.7491 13.3638C26.5527 13.2785 26.3478 13.1973 26.1514 13.1162C26.0191 13.0607 25.8867 13.001 25.7501 12.9497C25.5111 12.8601 25.272 12.7747 25.0286 12.6936C24.9134 12.6466 24.781 12.6167 24.6956 12.5911Z" fill="white"/>
<path d="M3.02552 2.97229C3.02552 3.47178 3.01698 3.97127 3.02552 4.47076C3.04686 5.49109 3.06821 6.51568 3.10236 7.53601C3.11517 7.98 3.14932 8.42826 3.17921 8.87225C3.19628 9.10705 3.2219 9.33759 3.24751 9.56812C3.26459 9.73035 3.28167 9.89258 3.31582 10.0548C3.35851 10.2683 3.40974 10.4775 3.46524 10.6866C3.49512 10.7976 3.53355 10.8147 3.64881 10.7891C3.65735 10.7891 3.66589 10.7848 3.67443 10.7848C4.10134 10.772 4.52826 10.7549 4.9509 10.7507C5.15582 10.7507 5.36501 10.7635 5.56566 10.7891C5.83035 10.819 6.09076 10.8659 6.35545 10.9086C6.65429 10.9556 6.94886 11.0068 7.24343 11.0623C7.4142 11.0965 7.58497 11.1434 7.75146 11.1861C7.9393 11.2331 8.12715 11.2843 8.31499 11.3398C8.48149 11.3868 8.65225 11.4423 8.81448 11.4978C8.98952 11.5575 9.16455 11.6216 9.33532 11.6942C9.48474 11.7582 9.63416 11.835 9.77931 11.9033C10.0568 12.0357 10.313 12.1979 10.5563 12.3858C10.7228 12.5181 10.8765 12.6675 10.9747 12.8554C11.0857 13.0688 11.1198 13.3079 11.0899 13.547C11.0515 13.8373 10.9533 14.1062 10.7954 14.3538C10.6289 14.61 10.4239 14.832 10.1934 15.0284C9.83481 15.3357 9.42924 15.5791 9.00659 15.7797C8.70775 15.9206 8.39184 16.0359 8.08019 16.1554C7.90088 16.2237 7.72158 16.2835 7.538 16.339C7.35016 16.3945 7.16232 16.4414 6.97448 16.4884C6.7909 16.5354 6.60733 16.5866 6.42376 16.625C6.27434 16.6592 6.12492 16.6763 5.97123 16.7061C5.79619 16.7403 5.62543 16.7787 5.44612 16.8043C5.18997 16.8427 4.93383 16.8812 4.67768 16.9111C4.3703 16.9495 4.05865 16.9879 3.747 17.0221C3.59331 17.0391 3.44389 17.0477 3.2902 17.0562C2.9444 17.0776 2.59433 17.1032 2.24853 17.1245C2.12046 17.133 2.12046 17.1245 2.11192 16.9964C2.09057 16.6336 2.06496 16.275 2.04361 15.9121C2.02227 15.6004 2.00092 15.2888 1.97958 14.9814C1.94969 14.5972 1.91981 14.2087 1.88992 13.8245C1.86858 13.5726 1.85577 13.3164 1.83443 13.0646C1.80027 12.6718 1.76185 12.2833 1.72343 11.8905C1.70635 11.7027 1.68927 11.5191 1.66793 11.3313C1.63804 11.0794 1.60389 10.8318 1.57401 10.5799C1.54412 10.3323 1.52705 10.0804 1.49716 9.83281C1.47155 9.60227 1.43313 9.36747 1.40324 9.13694C1.36482 8.8509 1.3264 8.56914 1.28371 8.28311C1.24528 8.03977 1.19832 7.79642 1.1599 7.55308C1.13002 7.36524 1.10867 7.1774 1.08306 6.99383C1.05317 6.79318 1.01475 6.59253 0.980596 6.39188C0.933635 6.10157 0.882406 5.81554 0.835445 5.52524C0.801292 5.30751 0.767139 5.09406 0.728716 4.87633C0.668948 4.56895 0.604911 4.26157 0.545143 3.94992C0.51099 3.76208 0.481106 3.57424 0.446953 3.39067C0.412799 3.20709 0.370108 3.02352 0.331686 2.83568C0.301802 2.69053 0.276187 2.54111 0.246303 2.39596C0.20788 2.20384 0.169458 2.016 0.131036 1.82389C0.0883444 1.6147 0.0413837 1.40551 0.00296142 1.19206C-0.0141152 1.11094 0.0456528 1.08533 0.105421 1.06398C0.335955 0.978598 0.56222 0.893215 0.792754 0.807832C1.00621 0.726718 1.21967 0.649874 1.43313 0.573029C1.59535 0.513261 1.76185 0.449224 1.92408 0.385187C2.1418 0.304073 2.35526 0.227228 2.57299 0.146114C2.66264 0.111961 2.74802 0.0778086 2.83767 0.0479246C2.88037 0.030848 2.92733 0.0137714 2.97429 0.00523315C3.0554 -0.0118434 3.07675 0.0095023 3.07248 0.0906161C3.06394 0.329688 3.05967 0.56876 3.05113 0.812102C3.04686 0.995675 3.04686 1.17498 3.04686 1.35855C3.04686 1.8922 3.04686 2.42584 3.04686 2.95948C3.03406 2.97229 3.02979 2.97229 3.02552 2.97229ZM5.02348 12.5907C4.87833 12.5864 4.85698 12.612 4.86979 12.7188C4.8826 12.8084 4.89967 12.8981 4.91248 12.992C4.92956 13.0944 4.93809 13.2012 4.95517 13.3036C4.98505 13.4915 5.01494 13.675 5.04482 13.8629C5.07898 14.0977 5.10886 14.3368 5.13874 14.5758C5.17717 14.8448 5.21986 15.1137 5.25828 15.387C5.27109 15.4638 5.33086 15.4894 5.39489 15.4467C5.41624 15.4339 5.43332 15.4126 5.45466 15.3998C5.75777 15.1778 6.05661 14.9558 6.35972 14.7338C6.59025 14.563 6.82079 14.388 7.05559 14.2172C7.26478 14.0635 7.47397 13.9184 7.68316 13.7604C7.76854 13.6964 7.76 13.6622 7.67035 13.6195C7.63193 13.6025 7.5935 13.5854 7.55508 13.5683C7.32882 13.4744 7.10682 13.3805 6.88056 13.2865C6.62441 13.1755 6.36826 13.0603 6.10784 12.9578C5.85596 12.8596 5.59554 12.77 5.33939 12.6846C5.22413 12.6334 5.10459 12.612 5.02348 12.5907Z" fill="white"/>
<path d="M34.3058 1.93506C34.451 1.95214 34.6004 1.96494 34.7455 1.98202C34.8224 1.99056 34.8608 2.05033 34.8651 2.1229C34.8949 2.49432 34.9206 2.86146 34.9462 3.23288C34.9718 3.64272 34.9974 4.05255 35.023 4.46239C35.0444 4.77831 35.0657 5.09423 35.0913 5.41014C35.1255 5.82425 35.1596 6.23836 35.1895 6.6482C35.2023 6.80189 35.2109 6.95984 35.2194 7.11353C35.2408 7.4081 35.2706 7.70268 35.292 7.99725C35.3219 8.36012 35.3432 8.723 35.3731 9.08161C35.3944 9.39326 35.4158 9.7049 35.4414 10.0166C35.4627 10.3367 35.4841 10.6527 35.5097 10.9728C35.5439 11.3827 35.578 11.7882 35.6122 12.1981C35.6506 12.7018 35.6847 13.2056 35.7274 13.7094C35.7616 14.1576 35.8 14.6059 35.8384 15.0541C35.847 15.1481 35.8299 15.1694 35.736 15.1865C35.3517 15.2463 34.9675 15.2548 34.5833 15.1908C34.4979 15.1737 34.468 15.1353 34.4638 15.0541C34.4296 14.6144 34.3912 14.1747 34.3528 13.735C34.34 13.6069 34.3272 13.4788 34.3186 13.3508C34.293 13.0476 34.2717 12.7445 34.2418 12.4457C34.2076 12.1127 34.1564 11.784 34.1222 11.451C34.0881 11.1479 34.0625 10.8405 34.0283 10.5374C33.9856 10.1446 33.9387 9.75187 33.8917 9.35483C33.8704 9.17126 33.849 8.99196 33.8234 8.80838C33.785 8.54797 33.7423 8.29182 33.7081 8.0314C33.6782 7.82221 33.6569 7.61302 33.627 7.40383C33.5886 7.12207 33.5416 6.84031 33.5032 6.55854C33.4691 6.31947 33.4434 6.0804 33.405 5.84133C33.3709 5.61933 33.3239 5.39734 33.2897 5.17534C33.2599 4.99604 33.2385 4.81246 33.2086 4.62889C33.1702 4.38555 33.1233 4.14648 33.0848 3.90313C33.0507 3.70675 33.0251 3.5061 32.9909 3.30972C32.9525 3.10907 32.9098 2.90842 32.8714 2.70777C32.8372 2.52847 32.8073 2.3449 32.7775 2.16559C32.7689 2.11436 32.786 2.08021 32.8458 2.07167C32.8842 2.0674 32.9226 2.05032 32.961 2.05032C33.3111 2.01617 33.6654 1.98629 34.0155 1.9564C34.1137 1.94787 34.2119 1.9564 34.3101 1.9564C34.3058 1.94787 34.3058 1.9436 34.3058 1.93506Z" fill="white"/>
<path d="M14.7015 1.94019C14.7997 1.94872 14.9449 1.96153 15.09 1.98288C15.1754 1.99568 15.2095 2.05972 15.2181 2.13657C15.2309 2.2561 15.2437 2.37564 15.248 2.49517C15.2736 2.93917 15.2992 3.37889 15.3248 3.82288C15.3462 4.15587 15.3718 4.48887 15.3974 4.82186C15.4273 5.22316 15.4657 5.62019 15.4956 6.02149C15.5425 6.60636 15.5852 7.19124 15.6279 7.77184C15.6706 8.32683 15.709 8.87755 15.7475 9.43254C15.7688 9.75272 15.7901 10.0772 15.82 10.3974C15.8584 10.8456 15.9054 11.2896 15.9396 11.7379C15.9737 12.1733 15.9993 12.6045 16.0335 13.04C16.0634 13.4498 16.1018 13.8639 16.1317 14.2738C16.1488 14.5 16.1573 14.7263 16.1701 14.9525C16.1744 14.991 16.1872 15.0294 16.1957 15.0678C16.2128 15.1404 16.1872 15.1745 16.1103 15.1873C15.7816 15.2428 15.4572 15.2599 15.1242 15.2172C15.0516 15.2087 14.979 15.2044 14.9107 15.1831C14.8808 15.1745 14.8424 15.1361 14.8424 15.1105C14.8125 14.8287 14.7912 14.5427 14.7613 14.2609C14.7314 13.9408 14.6972 13.6248 14.6631 13.3047C14.6503 13.1723 14.6417 13.0357 14.6289 12.9034C14.6033 12.5917 14.582 12.2843 14.5478 11.9727C14.5137 11.6653 14.4667 11.3622 14.4283 11.0548C14.3941 10.7517 14.3728 10.4486 14.3344 10.1498C14.2959 9.83811 14.249 9.52646 14.2106 9.21481C14.1807 8.97574 14.1593 8.7324 14.1294 8.49333C14.0953 8.22864 14.0483 7.96822 14.0099 7.70353C14.0099 7.69073 14.0056 7.68219 14.0056 7.66938C13.9758 7.42604 13.9501 7.1827 13.916 6.93936C13.8733 6.62344 13.8263 6.31179 13.7751 5.99587C13.7452 5.79096 13.7068 5.59031 13.6769 5.38966C13.6428 5.15485 13.6129 4.92432 13.5702 4.68952C13.5104 4.34799 13.4464 4.00645 13.3866 3.66065C13.3525 3.45573 13.3268 3.24655 13.2884 3.04163C13.2543 2.85805 13.2158 2.67875 13.1774 2.49517C13.1561 2.38418 13.1305 2.27745 13.1177 2.16645C13.1134 2.14084 13.139 2.09388 13.1603 2.08534C13.2116 2.06399 13.2713 2.05545 13.3311 2.05118C13.6726 2.01703 14.0184 1.98715 14.36 1.95726C14.4624 1.94872 14.5606 1.94872 14.7015 1.94019Z" fill="white"/>
<path d="M38.8521 13.0186C38.8521 13.7571 38.8564 14.4914 38.8521 15.23C38.8521 15.5075 38.835 15.7807 38.8307 16.0582C38.8307 16.118 38.8009 16.1479 38.7454 16.1521C38.7027 16.1564 38.6557 16.1564 38.613 16.1564C38.3099 16.1692 38.0068 16.182 37.7037 16.1991C37.5884 16.2034 37.4774 16.2162 37.3622 16.2247C37.2896 16.2332 37.2597 16.2034 37.2512 16.1265C37.2298 15.8618 37.2085 15.6014 37.1786 15.3367C37.1402 14.9995 37.0932 14.6622 37.059 14.3249C37.0206 13.9663 36.9993 13.6034 36.9651 13.2406C36.9438 12.9716 36.9182 12.7027 36.8925 12.4337C36.8712 12.1989 36.8499 11.9684 36.8285 11.7336C36.8029 11.4603 36.7773 11.1914 36.7559 10.9181C36.7132 10.3674 36.6706 9.81244 36.6321 9.26172C36.6236 9.10803 36.6321 9.1123 36.7901 9.09949C37.1231 9.07388 37.4561 9.02692 37.7891 9.01411C38.0538 9.00557 38.3184 9.02265 38.5831 9.03973C38.7155 9.04827 38.7411 9.1678 38.7539 9.27453C38.771 9.41541 38.7838 9.55629 38.7923 9.70144C38.8094 9.99602 38.8265 10.2906 38.8307 10.5852C38.8478 11.3963 38.8564 12.2032 38.8692 13.0143C38.8606 13.0186 38.8564 13.0186 38.8521 13.0186Z" fill="white"/>
<path d="M13.7877 15.5497C13.792 15.7973 13.7877 15.7589 13.5444 15.8016C13.2584 15.8528 12.9681 15.8913 12.682 15.9297C12.5582 15.9468 12.4344 15.9596 12.3106 15.9724C12.2466 15.9809 12.2252 15.9382 12.2167 15.887C12.1783 15.6864 12.1441 15.4814 12.1057 15.2808C12.0758 15.1314 12.0417 14.9819 12.0118 14.8325C11.9734 14.6489 11.9392 14.4654 11.9051 14.2818C11.8666 14.094 11.8325 13.9104 11.7941 13.7225C11.7556 13.5304 11.7258 13.3383 11.6873 13.1505C11.6574 12.9968 11.6233 12.8474 11.5934 12.6937C11.5593 12.5186 11.5208 12.3436 11.4909 12.1686C11.4354 11.8655 11.3885 11.5624 11.333 11.2635C11.2946 11.0671 11.2476 10.875 11.2135 10.6786C11.1836 10.5079 11.1622 10.3328 11.1323 10.1621C11.1025 9.9785 11.0683 9.79493 11.0384 9.61135C11.0085 9.43632 10.9786 9.26555 10.953 9.09052C10.936 8.98806 10.953 8.97098 11.0555 8.94964C11.2946 8.90268 11.5336 8.86425 11.7684 8.80876C12.0417 8.74045 12.3234 8.72764 12.6009 8.7063C12.6948 8.70203 12.7888 8.70203 12.8784 8.71056C12.9809 8.7191 13.0535 8.79595 13.0705 8.91122C13.1218 9.24421 13.1773 9.5772 13.2242 9.9102C13.2626 10.1706 13.2968 10.431 13.3267 10.6957C13.3651 11.033 13.3907 11.3702 13.4291 11.7075C13.4718 12.1344 13.5231 12.5613 13.5658 12.9882C13.5999 13.334 13.6213 13.6799 13.6469 14.0214C13.6725 14.3416 13.6896 14.6575 13.7194 14.9777C13.7365 15.1741 13.7664 15.3619 13.7877 15.5497Z" fill="white"/>
<path d="M30.6089 9.11962C30.6046 8.97874 30.6004 8.97447 30.737 8.94886C30.9547 8.9019 31.1767 8.86774 31.3902 8.81224C31.6548 8.74394 31.9281 8.74394 32.197 8.70552C32.3379 8.68844 32.4745 8.69271 32.6026 8.74821C32.6453 8.76528 32.688 8.82078 32.7008 8.86774C32.8203 9.32881 32.8844 9.80269 32.9271 10.2766C32.9527 10.5711 32.9954 10.8657 33.0252 11.1603C33.0637 11.5189 33.0936 11.8732 33.1277 12.2318C33.1704 12.6545 33.2216 13.0771 33.26 13.4955C33.2942 13.8584 33.3113 14.2255 33.3412 14.5884C33.3625 14.9 33.3881 15.216 33.4137 15.5276C33.4137 15.5532 33.4265 15.5746 33.4351 15.6002C33.4564 15.6898 33.4137 15.7496 33.3198 15.7624C33.0637 15.7966 32.8075 15.8307 32.5514 15.8649C32.3635 15.8905 32.18 15.9246 31.9921 15.9588C31.9067 15.9716 31.8811 15.9503 31.864 15.8691C31.8299 15.6941 31.7829 15.5148 31.7488 15.3398C31.7274 15.2373 31.7189 15.1306 31.6975 15.0281C31.6548 14.8019 31.6036 14.5756 31.5609 14.3493C31.4969 14.0249 31.4414 13.6961 31.3774 13.3717C31.3389 13.1753 31.292 12.9747 31.2536 12.7783C31.2237 12.6374 31.2023 12.5008 31.181 12.3599C31.1468 12.1806 31.1169 12.0056 31.0828 11.8263C31.0401 11.6 31.0017 11.378 30.959 11.1517C30.9206 10.9468 30.8736 10.7376 30.8352 10.5327C30.8096 10.4089 30.7882 10.2808 30.7669 10.157C30.7156 9.84538 30.6644 9.52946 30.6174 9.21781C30.6132 9.1922 30.6132 9.15805 30.6089 9.11962Z" fill="white"/>
<path d="M19.1925 13.0901C19.1925 13.8799 19.1925 14.6654 19.1925 15.4552C19.1925 15.6601 19.1754 15.8607 19.1712 16.0657C19.1712 16.1169 19.1455 16.1425 19.0986 16.151C19.0772 16.1553 19.0602 16.1553 19.0388 16.1596C18.7314 16.1724 18.4198 16.1895 18.1124 16.2023C17.9843 16.2108 17.8563 16.2236 17.7282 16.2279C17.6172 16.2322 17.6001 16.2151 17.5916 16.1084C17.5788 15.9547 17.5702 15.7967 17.5531 15.6387C17.5318 15.3911 17.5062 15.1393 17.4806 14.8916C17.4507 14.5885 17.4123 14.2854 17.3824 13.978C17.3312 13.4657 17.2799 12.9577 17.233 12.4454C17.1945 12.0441 17.1647 11.6386 17.1305 11.2373C17.1049 10.9555 17.0835 10.6737 17.0622 10.3877C17.0366 10.0291 17.011 9.67048 16.9854 9.31614C16.9854 9.29052 16.9854 9.26491 16.9854 9.23929C16.9939 9.12403 17.011 9.11122 17.1305 9.10268C17.4763 9.0728 17.8178 9.03437 18.1636 9.01303C18.3557 9.00022 18.5479 9.0173 18.74 9.02584C18.8254 9.0301 18.9107 9.04291 18.9919 9.0728C19.0303 9.0856 19.0772 9.13683 19.0858 9.17952C19.1199 9.34602 19.1541 9.51252 19.1583 9.68328C19.184 10.8189 19.201 11.9545 19.2224 13.0901C19.2096 13.0901 19.201 13.0901 19.1925 13.0901Z" fill="white"/>
<path d="M38.6264 6.80145C38.6264 7.21128 38.6264 7.62112 38.6264 8.03096C38.6264 8.11634 38.6008 8.14196 38.5154 8.12915C38.2635 8.10353 38.0116 8.07365 37.7597 8.04804C37.6914 8.0395 37.6872 7.99681 37.6872 7.94558C37.6786 7.67662 37.6744 7.40767 37.6658 7.14298C37.653 6.59226 37.6445 6.03727 37.6317 5.48655C37.6274 5.36274 37.6359 5.35421 37.7555 5.36274C37.9988 5.37555 38.2464 5.38836 38.4898 5.40543C38.6221 5.41397 38.6477 5.43532 38.6477 5.56766C38.652 5.9775 38.6477 6.38734 38.6477 6.79718C38.6435 6.80145 38.6349 6.80145 38.6264 6.80145Z" fill="white"/>
<path d="M17.9844 6.40589C17.9844 6.09425 17.9844 5.78687 17.9844 5.47522C17.9844 5.36849 17.9929 5.35568 18.0996 5.36422C18.343 5.37703 18.5863 5.3813 18.8254 5.41118C18.9834 5.42826 19.0132 5.4368 19.0132 5.6033C19.0004 6.37174 18.9962 7.14019 18.9748 7.90437C18.9663 8.18186 18.9919 8.13917 18.7443 8.11782C18.5351 8.10075 18.3216 8.07513 18.1124 8.04952C18.057 8.04525 18.0484 8.00682 18.0441 7.95986C18.0356 7.71652 18.0185 7.46891 18.0143 7.22557C18.01 6.95235 18.0143 6.67912 18.0143 6.40589C18.0015 6.40589 17.9929 6.40589 17.9844 6.40589Z" fill="white"/>
<path d="M12.1055 5.11206C12.2293 5.11206 12.3574 5.11206 12.4812 5.11206C12.5879 5.11206 12.6093 5.12914 12.6221 5.23587C12.6477 5.47494 12.6691 5.71401 12.6904 5.95308C12.7288 6.38853 12.763 6.81972 12.7971 7.25517C12.8057 7.37044 12.8057 7.48997 12.8142 7.60524C12.8142 7.63086 12.8185 7.66074 12.827 7.68636C12.8526 7.79308 12.8356 7.81443 12.7246 7.81443C12.4769 7.81016 12.2293 7.80589 11.9817 7.80589C11.9262 7.80589 11.9049 7.78028 11.9006 7.73332C11.8835 7.62232 11.8622 7.50705 11.8494 7.39605C11.8152 7.11002 11.7853 6.81972 11.7555 6.52942C11.7341 6.3245 11.7128 6.11958 11.6914 5.91466C11.6701 5.69693 11.6445 5.47921 11.6231 5.26148C11.6231 5.24867 11.6188 5.2316 11.6188 5.21879C11.6018 5.14194 11.6146 5.1206 11.7 5.11633C11.828 5.11633 11.9646 5.11633 12.1055 5.11206C12.1055 5.11633 12.1055 5.11633 12.1055 5.11206Z" fill="white"/>
<path d="M31.7486 5.11206C31.8766 5.11206 32.0047 5.11206 32.1328 5.11206C32.2438 5.11206 32.2694 5.14194 32.2779 5.24867C32.3164 5.73962 32.3591 6.22631 32.3975 6.71726C32.4231 7.04598 32.453 7.37471 32.4786 7.70343C32.4871 7.79735 32.4658 7.8187 32.3719 7.81443C32.2139 7.80589 32.0602 7.78882 31.9023 7.78455C31.8297 7.78028 31.7528 7.79308 31.6803 7.80589C31.5778 7.82297 31.5437 7.80162 31.5308 7.69916C31.4967 7.45155 31.4668 7.19967 31.4369 6.95206C31.4113 6.74287 31.4028 6.53369 31.3686 6.32877C31.3302 6.11531 31.3131 5.90612 31.3003 5.69266C31.2918 5.53471 31.2619 5.38102 31.2405 5.22306C31.232 5.14621 31.2662 5.11633 31.3387 5.11633C31.4839 5.1206 31.6162 5.11633 31.7486 5.11206C31.7486 5.11633 31.7486 5.11633 31.7486 5.11206Z" fill="white"/>
<path d="M17.3568 5.40233C17.3866 5.40233 17.4123 5.40233 17.4421 5.40233C17.5147 5.39806 17.5489 5.43222 17.5531 5.50479C17.5788 6.03844 17.6001 6.57635 17.63 7.10999C17.6428 7.39176 17.6727 7.67352 17.6897 7.95101C17.6983 8.08336 17.6855 8.0919 17.5489 8.09616C17.3781 8.1047 17.2073 8.11751 17.0408 8.12605C16.9213 8.13459 16.8957 8.11751 16.8829 8.00224C16.8487 7.68206 16.8188 7.3576 16.7847 7.03742C16.7633 6.80261 16.7377 6.57208 16.7164 6.33728C16.695 6.13663 16.6737 5.94025 16.6481 5.7396C16.6438 5.68837 16.6182 5.64141 16.6267 5.59444C16.631 5.56029 16.6694 5.50479 16.6993 5.50052C16.9213 5.45783 17.1433 5.42368 17.3653 5.38953C17.3568 5.3938 17.3568 5.39806 17.3568 5.40233Z" fill="white"/>
<path d="M31.185 7.73314C31.1893 7.89109 31.1808 7.89536 31.0185 7.91244C30.8478 7.92952 30.677 7.9594 30.5062 7.98502C30.4379 7.99355 30.4166 7.97221 30.4038 7.9039C30.3483 7.61787 30.28 7.33184 30.2202 7.0458C30.1861 6.88358 30.1604 6.71708 30.1263 6.55485C30.0879 6.37555 30.0409 6.20051 30.0068 6.02121C29.9683 5.83763 29.9385 5.65406 29.9086 5.47049C29.9043 5.44914 29.9385 5.41072 29.9598 5.40218C30.1946 5.33814 30.4251 5.28265 30.6599 5.22288C30.7709 5.19726 30.8094 5.23142 30.8264 5.34668C30.8649 5.6071 30.9118 5.86752 30.9545 6.12367C30.9801 6.2987 31.0015 6.46947 31.0271 6.6445C31.0698 6.94334 31.1167 7.23791 31.1594 7.53676C31.168 7.60506 31.1765 7.6691 31.185 7.73314Z" fill="white"/>
<path d="M10.8254 7.99367C10.804 7.97232 10.7613 7.94244 10.7485 7.90402C10.7101 7.7546 10.6802 7.60518 10.6503 7.45576C10.6034 7.23376 10.5607 7.01176 10.518 6.78977C10.4881 6.63608 10.4582 6.47812 10.4283 6.32443C10.3942 6.1622 10.3558 5.99998 10.3216 5.83775C10.296 5.72248 10.2704 5.60295 10.2533 5.48768C10.249 5.46206 10.2832 5.41083 10.3088 5.4023C10.5351 5.33826 10.7571 5.28276 10.9833 5.22726C11.1285 5.19311 11.1712 5.22299 11.1925 5.39803C11.2224 5.60722 11.2395 5.8164 11.2694 6.02559C11.3035 6.25613 11.3505 6.48666 11.3846 6.71719C11.4188 6.95627 11.4487 7.19107 11.4828 7.43014C11.4956 7.52833 11.5212 7.62225 11.5383 7.71617C11.5597 7.82717 11.5383 7.8784 11.4358 7.89548C11.2437 7.9339 11.0474 7.95952 10.8254 7.99367Z" fill="white"/>
<path d="M37.3194 7.64322C37.3194 7.78837 37.3194 7.8951 37.3194 8.00183C37.3194 8.0616 37.2981 8.09575 37.234 8.10002C37.0419 8.10856 36.8498 8.12137 36.6577 8.13418C36.5808 8.13844 36.5424 8.1171 36.5381 8.03598C36.5211 7.84387 36.4997 7.65176 36.4784 7.46392C36.44 7.13946 36.3973 6.81928 36.3546 6.49482C36.3503 6.46921 36.3546 6.43932 36.3503 6.40944C36.329 6.21306 36.3076 6.01668 36.2863 5.8203C36.2777 5.74345 36.2735 5.66234 36.282 5.5855C36.2863 5.55561 36.3204 5.50865 36.346 5.50438C36.5936 5.46596 36.8413 5.4318 37.0889 5.39765C37.1614 5.38911 37.1871 5.42327 37.1913 5.49157C37.2169 5.90995 37.2426 6.32833 37.2682 6.75097C37.2852 7.06262 37.3023 7.37 37.3194 7.64322Z" fill="white"/>
</svg>
