<svg width="325" height="270" viewBox="0 0 325 270" fill="none" xmlns="http://www.w3.org/2000/svg">
<circle cx="162.5" cy="102.5" r="97.5" stroke="#F2F2F2" stroke-width="10"/>
<path d="M65.9941 102.5C65.9941 155.799 109.201 199.006 162.5 199.006C215.799 199.006 259.006 155.799 259.006 102.5C259.006 49.2013 215.799 5.99416 162.5 5.99416" stroke="url(#paint0_linear_575_1434)" stroke-width="10" stroke-linecap="round"/>
<circle cx="162.5" cy="102.501" r="73.5234" stroke="#F2F2F2" stroke-width="10"/>
<path d="M162.5 175.03C202.557 175.03 235.029 142.557 235.029 102.501C235.029 62.4438 202.557 29.9713 162.5 29.9713" stroke="url(#paint1_linear_575_1434)" stroke-width="10" stroke-linecap="round"/>
<circle cx="162.499" cy="102.5" r="51.9444" stroke="#F2F2F2" stroke-width="10"/>
<path d="M214.649 102.501C214.649 73.7002 191.57 50.3522 163.1 50.3522" stroke="url(#paint2_linear_575_1434)" stroke-width="10" stroke-linecap="round"/>
<path d="M37.8203 255.547V260H36.3203V248.625H40.5156C41.7604 248.625 42.7344 248.943 43.4375 249.578C44.1458 250.214 44.5 251.055 44.5 252.102C44.5 253.206 44.1536 254.057 43.4609 254.656C42.7734 255.25 41.7865 255.547 40.5 255.547H37.8203ZM37.8203 254.32H40.5156C41.3177 254.32 41.9323 254.133 42.3594 253.758C42.7865 253.378 43 252.831 43 252.117C43 251.44 42.7865 250.898 42.3594 250.492C41.9323 250.086 41.3464 249.875 40.6016 249.859H37.8203V254.32ZM45.6953 255.695C45.6953 254.867 45.8568 254.122 46.1797 253.461C46.5078 252.799 46.9609 252.289 47.5391 251.93C48.1224 251.57 48.7865 251.391 49.5312 251.391C50.6823 251.391 51.612 251.789 52.3203 252.586C53.0339 253.383 53.3906 254.443 53.3906 255.766V255.867C53.3906 256.69 53.2318 257.43 52.9141 258.086C52.6016 258.737 52.151 259.245 51.5625 259.609C50.9792 259.974 50.3073 260.156 49.5469 260.156C48.401 260.156 47.4714 259.758 46.7578 258.961C46.0495 258.164 45.6953 257.109 45.6953 255.797V255.695ZM47.1484 255.867C47.1484 256.805 47.3646 257.557 47.7969 258.125C48.2344 258.693 48.8177 258.977 49.5469 258.977C50.2812 258.977 50.8646 258.69 51.2969 258.117C51.7292 257.539 51.9453 256.732 51.9453 255.695C51.9453 254.768 51.724 254.018 51.2812 253.445C50.8438 252.867 50.2604 252.578 49.5312 252.578C48.8177 252.578 48.2422 252.862 47.8047 253.43C47.3672 253.997 47.1484 254.81 47.1484 255.867ZM60.125 257.758C60.125 257.367 59.9766 257.065 59.6797 256.852C59.388 256.633 58.875 256.445 58.1406 256.289C57.4115 256.133 56.8307 255.945 56.3984 255.727C55.9714 255.508 55.6536 255.247 55.4453 254.945C55.2422 254.643 55.1406 254.284 55.1406 253.867C55.1406 253.174 55.4323 252.589 56.0156 252.109C56.6042 251.63 57.3542 251.391 58.2656 251.391C59.224 251.391 60 251.638 60.5938 252.133C61.1927 252.628 61.4922 253.26 61.4922 254.031H60.0391C60.0391 253.635 59.8698 253.294 59.5312 253.008C59.1979 252.721 58.776 252.578 58.2656 252.578C57.7396 252.578 57.3281 252.693 57.0312 252.922C56.7344 253.151 56.5859 253.451 56.5859 253.82C56.5859 254.169 56.724 254.432 57 254.609C57.276 254.786 57.7734 254.956 58.4922 255.117C59.2161 255.279 59.8021 255.471 60.25 255.695C60.6979 255.919 61.0286 256.19 61.2422 256.508C61.4609 256.82 61.5703 257.203 61.5703 257.656C61.5703 258.411 61.2682 259.018 60.6641 259.477C60.0599 259.93 59.276 260.156 58.3125 260.156C57.6354 260.156 57.0365 260.036 56.5156 259.797C55.9948 259.557 55.5859 259.224 55.2891 258.797C54.9974 258.365 54.8516 257.898 54.8516 257.398H56.2969C56.3229 257.883 56.5156 258.268 56.875 258.555C57.2396 258.836 57.7188 258.977 58.3125 258.977C58.8594 258.977 59.2969 258.867 59.625 258.648C59.9583 258.424 60.125 258.128 60.125 257.758ZM65.0234 260H63.5781V251.547H65.0234V260ZM63.4609 249.305C63.4609 249.07 63.5312 248.872 63.6719 248.711C63.8177 248.549 64.0312 248.469 64.3125 248.469C64.5938 248.469 64.8073 248.549 64.9531 248.711C65.099 248.872 65.1719 249.07 65.1719 249.305C65.1719 249.539 65.099 249.734 64.9531 249.891C64.8073 250.047 64.5938 250.125 64.3125 250.125C64.0312 250.125 63.8177 250.047 63.6719 249.891C63.5312 249.734 63.4609 249.539 63.4609 249.305ZM69.3047 249.5V251.547H70.8828V252.664H69.3047V257.906C69.3047 258.245 69.375 258.5 69.5156 258.672C69.6562 258.839 69.8958 258.922 70.2344 258.922C70.401 258.922 70.6302 258.891 70.9219 258.828V260C70.5417 260.104 70.1719 260.156 69.8125 260.156C69.1667 260.156 68.6797 259.961 68.3516 259.57C68.0234 259.18 67.8594 258.625 67.8594 257.906V252.664H66.3203V251.547H67.8594V249.5H69.3047ZM74.1484 260H72.7031V251.547H74.1484V260ZM72.5859 249.305C72.5859 249.07 72.6562 248.872 72.7969 248.711C72.9427 248.549 73.1562 248.469 73.4375 248.469C73.7188 248.469 73.9323 248.549 74.0781 248.711C74.224 248.872 74.2969 249.07 74.2969 249.305C74.2969 249.539 74.224 249.734 74.0781 249.891C73.9323 250.047 73.7188 250.125 73.4375 250.125C73.1562 250.125 72.9427 250.047 72.7969 249.891C72.6562 249.734 72.5859 249.539 72.5859 249.305ZM79.2578 258.039L81.3516 251.547H82.8281L79.7969 260H78.6953L75.6328 251.547H77.1094L79.2578 258.039ZM87.6172 260.156C86.4714 260.156 85.5391 259.781 84.8203 259.031C84.1016 258.276 83.7422 257.268 83.7422 256.008V255.742C83.7422 254.904 83.901 254.156 84.2188 253.5C84.5417 252.839 84.9896 252.323 85.5625 251.953C86.1406 251.578 86.7656 251.391 87.4375 251.391C88.5365 251.391 89.3906 251.753 90 252.477C90.6094 253.201 90.9141 254.237 90.9141 255.586V256.188H85.1875C85.2083 257.021 85.4505 257.695 85.9141 258.211C86.3828 258.721 86.9766 258.977 87.6953 258.977C88.2057 258.977 88.638 258.872 88.9922 258.664C89.3464 258.456 89.6562 258.18 89.9219 257.836L90.8047 258.523C90.0964 259.612 89.0339 260.156 87.6172 260.156ZM87.4375 252.578C86.8542 252.578 86.3646 252.792 85.9688 253.219C85.5729 253.641 85.3281 254.234 85.2344 255H89.4688V254.891C89.4271 254.156 89.2292 253.589 88.875 253.188C88.5208 252.781 88.0417 252.578 87.4375 252.578Z" fill="#767676"/>
<circle cx="12.5" cy="254.5" r="12.5" fill="#F2F2F2"/>
<circle cx="12.5" cy="254.5" r="5.5" fill="#D183EC"/>
<path d="M161.062 260H159.555L153.828 251.234V260H152.32V248.625H153.828L159.57 257.43V248.625H161.062V260ZM167.008 260.156C165.862 260.156 164.93 259.781 164.211 259.031C163.492 258.276 163.133 257.268 163.133 256.008V255.742C163.133 254.904 163.292 254.156 163.609 253.5C163.932 252.839 164.38 252.323 164.953 251.953C165.531 251.578 166.156 251.391 166.828 251.391C167.927 251.391 168.781 251.753 169.391 252.477C170 253.201 170.305 254.237 170.305 255.586V256.188H164.578C164.599 257.021 164.841 257.695 165.305 258.211C165.773 258.721 166.367 258.977 167.086 258.977C167.596 258.977 168.029 258.872 168.383 258.664C168.737 258.456 169.047 258.18 169.312 257.836L170.195 258.523C169.487 259.612 168.424 260.156 167.008 260.156ZM166.828 252.578C166.245 252.578 165.755 252.792 165.359 253.219C164.964 253.641 164.719 254.234 164.625 255H168.859V254.891C168.818 254.156 168.62 253.589 168.266 253.188C167.911 252.781 167.432 252.578 166.828 252.578ZM177.203 259.164C176.641 259.826 175.815 260.156 174.727 260.156C173.826 260.156 173.138 259.896 172.664 259.375C172.195 258.849 171.958 258.073 171.953 257.047V251.547H173.398V257.008C173.398 258.289 173.919 258.93 174.961 258.93C176.065 258.93 176.799 258.518 177.164 257.695V251.547H178.609V260H177.234L177.203 259.164ZM182.773 249.5V251.547H184.352V252.664H182.773V257.906C182.773 258.245 182.844 258.5 182.984 258.672C183.125 258.839 183.365 258.922 183.703 258.922C183.87 258.922 184.099 258.891 184.391 258.828V260C184.01 260.104 183.641 260.156 183.281 260.156C182.635 260.156 182.148 259.961 181.82 259.57C181.492 259.18 181.328 258.625 181.328 257.906V252.664H179.789V251.547H181.328V249.5H182.773ZM190.133 252.844C189.914 252.807 189.677 252.789 189.422 252.789C188.474 252.789 187.831 253.193 187.492 254V260H186.047V251.547H187.453L187.477 252.523C187.951 251.768 188.622 251.391 189.492 251.391C189.773 251.391 189.987 251.427 190.133 251.5V252.844ZM196.375 260C196.292 259.833 196.224 259.536 196.172 259.109C195.5 259.807 194.698 260.156 193.766 260.156C192.932 260.156 192.247 259.922 191.711 259.453C191.18 258.979 190.914 258.38 190.914 257.656C190.914 256.776 191.247 256.094 191.914 255.609C192.586 255.12 193.529 254.875 194.742 254.875H196.148V254.211C196.148 253.706 195.997 253.305 195.695 253.008C195.393 252.706 194.948 252.555 194.359 252.555C193.844 252.555 193.411 252.685 193.062 252.945C192.714 253.206 192.539 253.521 192.539 253.891H191.086C191.086 253.469 191.234 253.062 191.531 252.672C191.833 252.276 192.24 251.964 192.75 251.734C193.266 251.505 193.831 251.391 194.445 251.391C195.419 251.391 196.182 251.635 196.734 252.125C197.286 252.609 197.573 253.279 197.594 254.133V258.023C197.594 258.799 197.693 259.417 197.891 259.875V260H196.375ZM193.977 258.898C194.43 258.898 194.859 258.781 195.266 258.547C195.672 258.312 195.966 258.008 196.148 257.633V255.898H195.016C193.245 255.898 192.359 256.417 192.359 257.453C192.359 257.906 192.51 258.26 192.812 258.516C193.115 258.771 193.503 258.898 193.977 258.898ZM201.43 260H199.984V248H201.43V260Z" fill="#767676"/>
<circle cx="128.5" cy="254.5" r="12.5" fill="#F2F2F2"/>
<circle cx="128.5" cy="254.5" r="5.5" fill="#3CAEF4"/>
<path d="M272.062 260H270.555L264.828 251.234V260H263.32V248.625H264.828L270.57 257.43V248.625H272.062V260ZM278.008 260.156C276.862 260.156 275.93 259.781 275.211 259.031C274.492 258.276 274.133 257.268 274.133 256.008V255.742C274.133 254.904 274.292 254.156 274.609 253.5C274.932 252.839 275.38 252.323 275.953 251.953C276.531 251.578 277.156 251.391 277.828 251.391C278.927 251.391 279.781 251.753 280.391 252.477C281 253.201 281.305 254.237 281.305 255.586V256.188H275.578C275.599 257.021 275.841 257.695 276.305 258.211C276.773 258.721 277.367 258.977 278.086 258.977C278.596 258.977 279.029 258.872 279.383 258.664C279.737 258.456 280.047 258.18 280.312 257.836L281.195 258.523C280.487 259.612 279.424 260.156 278.008 260.156ZM277.828 252.578C277.245 252.578 276.755 252.792 276.359 253.219C275.964 253.641 275.719 254.234 275.625 255H279.859V254.891C279.818 254.156 279.62 253.589 279.266 253.188C278.911 252.781 278.432 252.578 277.828 252.578ZM282.641 255.703C282.641 254.385 282.945 253.339 283.555 252.562C284.164 251.781 284.971 251.391 285.977 251.391C287.008 251.391 287.812 251.755 288.391 252.484L288.461 251.547H289.781V259.797C289.781 260.891 289.456 261.753 288.805 262.383C288.159 263.013 287.289 263.328 286.195 263.328C285.586 263.328 284.99 263.198 284.406 262.938C283.823 262.677 283.378 262.32 283.07 261.867L283.82 261C284.44 261.766 285.198 262.148 286.094 262.148C286.797 262.148 287.344 261.951 287.734 261.555C288.13 261.159 288.328 260.602 288.328 259.883V259.156C287.75 259.823 286.961 260.156 285.961 260.156C284.971 260.156 284.169 259.758 283.555 258.961C282.945 258.164 282.641 257.078 282.641 255.703ZM284.094 255.867C284.094 256.82 284.289 257.57 284.68 258.117C285.07 258.659 285.617 258.93 286.32 258.93C287.232 258.93 287.901 258.516 288.328 257.688V253.828C287.885 253.021 287.221 252.617 286.336 252.617C285.633 252.617 285.083 252.891 284.688 253.438C284.292 253.984 284.094 254.794 284.094 255.867ZM297.188 260C297.104 259.833 297.036 259.536 296.984 259.109C296.312 259.807 295.51 260.156 294.578 260.156C293.745 260.156 293.06 259.922 292.523 259.453C291.992 258.979 291.727 258.38 291.727 257.656C291.727 256.776 292.06 256.094 292.727 255.609C293.398 255.12 294.341 254.875 295.555 254.875H296.961V254.211C296.961 253.706 296.81 253.305 296.508 253.008C296.206 252.706 295.76 252.555 295.172 252.555C294.656 252.555 294.224 252.685 293.875 252.945C293.526 253.206 293.352 253.521 293.352 253.891H291.898C291.898 253.469 292.047 253.062 292.344 252.672C292.646 252.276 293.052 251.964 293.562 251.734C294.078 251.505 294.643 251.391 295.258 251.391C296.232 251.391 296.995 251.635 297.547 252.125C298.099 252.609 298.385 253.279 298.406 254.133V258.023C298.406 258.799 298.505 259.417 298.703 259.875V260H297.188ZM294.789 258.898C295.242 258.898 295.672 258.781 296.078 258.547C296.484 258.312 296.779 258.008 296.961 257.633V255.898H295.828C294.057 255.898 293.172 256.417 293.172 257.453C293.172 257.906 293.323 258.26 293.625 258.516C293.927 258.771 294.315 258.898 294.789 258.898ZM302.633 249.5V251.547H304.211V252.664H302.633V257.906C302.633 258.245 302.703 258.5 302.844 258.672C302.984 258.839 303.224 258.922 303.562 258.922C303.729 258.922 303.958 258.891 304.25 258.828V260C303.87 260.104 303.5 260.156 303.141 260.156C302.495 260.156 302.008 259.961 301.68 259.57C301.352 259.18 301.188 258.625 301.188 257.906V252.664H299.648V251.547H301.188V249.5H302.633ZM307.477 260H306.031V251.547H307.477V260ZM305.914 249.305C305.914 249.07 305.984 248.872 306.125 248.711C306.271 248.549 306.484 248.469 306.766 248.469C307.047 248.469 307.26 248.549 307.406 248.711C307.552 248.872 307.625 249.07 307.625 249.305C307.625 249.539 307.552 249.734 307.406 249.891C307.26 250.047 307.047 250.125 306.766 250.125C306.484 250.125 306.271 250.047 306.125 249.891C305.984 249.734 305.914 249.539 305.914 249.305ZM312.586 258.039L314.68 251.547H316.156L313.125 260H312.023L308.961 251.547H310.438L312.586 258.039ZM320.945 260.156C319.799 260.156 318.867 259.781 318.148 259.031C317.43 258.276 317.07 257.268 317.07 256.008V255.742C317.07 254.904 317.229 254.156 317.547 253.5C317.87 252.839 318.318 252.323 318.891 251.953C319.469 251.578 320.094 251.391 320.766 251.391C321.865 251.391 322.719 251.753 323.328 252.477C323.938 253.201 324.242 254.237 324.242 255.586V256.188H318.516C318.536 257.021 318.779 257.695 319.242 258.211C319.711 258.721 320.305 258.977 321.023 258.977C321.534 258.977 321.966 258.872 322.32 258.664C322.674 258.456 322.984 258.18 323.25 257.836L324.133 258.523C323.424 259.612 322.362 260.156 320.945 260.156ZM320.766 252.578C320.182 252.578 319.693 252.792 319.297 253.219C318.901 253.641 318.656 254.234 318.562 255H322.797V254.891C322.755 254.156 322.557 253.589 322.203 253.188C321.849 252.781 321.37 252.578 320.766 252.578Z" fill="#767676"/>
<circle cx="239.5" cy="254.5" r="12.5" fill="#F2F2F2"/>
<circle cx="239.5" cy="254.5" r="5.5" fill="#75DDE3"/>
<defs>
<linearGradient id="paint0_linear_575_1434" x1="251.347" y1="19.7807" x2="59.8668" y2="177.56" gradientUnits="userSpaceOnUse">
<stop stop-color="#D393E9"/>
<stop offset="1" stop-color="#D080EC"/>
</linearGradient>
<linearGradient id="paint1_linear_575_1434" x1="232.151" y1="40.3327" x2="128.873" y2="82.883" gradientUnits="userSpaceOnUse">
<stop stop-color="#4DB5F5"/>
<stop offset="1" stop-color="#1DA1F2"/>
</linearGradient>
<linearGradient id="paint2_linear_575_1434" x1="212.604" y1="54.0772" x2="160.986" y2="96.1213" gradientUnits="userSpaceOnUse">
<stop stop-color="#6BDAE1"/>
<stop offset="1" stop-color="#95E4EA"/>
</linearGradient>
</defs>
</svg>
