<svg width="572" height="324" viewBox="0 0 572 324" fill="none" xmlns="http://www.w3.org/2000/svg">
<path d="M94.7056 18.0001H93.3931V8.047H94.7056V18.0001ZM100.489 11.7384C100.297 11.7065 100.09 11.6906 99.8668 11.6906C99.0373 11.6906 98.4745 12.0437 98.1783 12.7501V18.0001H96.9136V10.6036H98.1441L98.1646 11.4581C98.5793 10.7973 99.1672 10.4669 99.9283 10.4669C100.174 10.4669 100.361 10.4988 100.489 10.5626V11.7384ZM104.59 18.1368C103.588 18.1368 102.772 17.8087 102.143 17.1525C101.514 16.4917 101.2 15.6098 101.2 14.507V14.2745C101.2 13.5408 101.339 12.8868 101.617 12.3126C101.899 11.7338 102.291 11.2827 102.793 10.9591C103.298 10.631 103.845 10.4669 104.433 10.4669C105.395 10.4669 106.142 10.7837 106.675 11.4171C107.209 12.0506 107.475 12.9575 107.475 14.1378V14.6642H102.464C102.483 15.3934 102.695 15.9835 103.1 16.4347C103.51 16.8813 104.03 17.1046 104.659 17.1046C105.105 17.1046 105.484 17.0135 105.794 16.8312C106.103 16.6489 106.375 16.4073 106.607 16.1066L107.379 16.7081C106.76 17.6606 105.83 18.1368 104.59 18.1368ZM104.433 11.506C103.923 11.506 103.494 11.6928 103.148 12.0665C102.802 12.4357 102.587 12.9552 102.505 13.6251H106.211V13.5294C106.174 12.8868 106.001 12.3901 105.691 12.0392C105.381 11.6837 104.962 11.506 104.433 11.506ZM110.141 10.6036L110.182 11.5333C110.747 10.8224 111.486 10.4669 112.397 10.4669C113.96 10.4669 114.749 11.3488 114.762 13.1124V18.0001H113.498V13.1056C113.493 12.5724 113.37 12.1782 113.128 11.923C112.891 11.6678 112.52 11.5402 112.014 11.5402C111.604 11.5402 111.244 11.6495 110.934 11.8683C110.624 12.087 110.383 12.3741 110.21 12.7296V18.0001H108.945V10.6036H110.141ZM119.739 18.1368C118.736 18.1368 117.92 17.8087 117.292 17.1525C116.663 16.4917 116.348 15.6098 116.348 14.507V14.2745C116.348 13.5408 116.487 12.8868 116.765 12.3126C117.048 11.7338 117.44 11.2827 117.941 10.9591C118.447 10.631 118.994 10.4669 119.582 10.4669C120.543 10.4669 121.291 10.7837 121.824 11.4171C122.357 12.0506 122.624 12.9575 122.624 14.1378V14.6642H117.613C117.631 15.3934 117.843 15.9835 118.249 16.4347C118.659 16.8813 119.178 17.1046 119.807 17.1046C120.254 17.1046 120.632 17.0135 120.942 16.8312C121.252 16.6489 121.523 16.4073 121.755 16.1066L122.528 16.7081C121.908 17.6606 120.978 18.1368 119.739 18.1368ZM119.582 11.506C119.071 11.506 118.643 11.6928 118.296 12.0665C117.95 12.4357 117.736 12.9552 117.654 13.6251H121.359V13.5294C121.322 12.8868 121.149 12.3901 120.839 12.0392C120.53 11.6837 120.11 11.506 119.582 11.506Z" fill="#767676"/>
<circle cx="77.1735" cy="13.3159" r="8.3159" fill="#F2F2F2"/>
<circle cx="77.1733" cy="13.3159" r="3.659" fill="#F1B884"/>
<path d="M167.752 8.047H169.071V15.0948C169.071 16.0473 168.784 16.7924 168.21 17.3302C167.64 17.868 166.879 18.1368 165.927 18.1368C164.938 18.1368 164.168 17.8839 163.616 17.3781C163.065 16.8722 162.789 16.1635 162.789 15.2521H164.101C164.101 15.8217 164.256 16.2661 164.566 16.5851C164.881 16.9041 165.334 17.0636 165.927 17.0636C166.469 17.0636 166.906 16.8927 167.239 16.5509C167.576 16.2091 167.747 15.7306 167.752 15.1154V8.047ZM170.773 14.2335C170.773 13.5089 170.915 12.8572 171.197 12.2784C171.484 11.6997 171.881 11.2531 172.387 10.9386C172.897 10.6241 173.478 10.4669 174.13 10.4669C175.137 10.4669 175.95 10.8156 176.57 11.5128C177.195 12.2101 177.507 13.1375 177.507 14.295V14.3839C177.507 15.104 177.368 15.7511 177.09 16.3253C176.816 16.895 176.422 17.3393 175.907 17.6583C175.397 17.9773 174.809 18.1368 174.143 18.1368C173.141 18.1368 172.327 17.7882 171.703 17.0909C171.083 16.3937 170.773 15.4708 170.773 14.3224V14.2335ZM172.045 14.3839C172.045 15.2042 172.234 15.8628 172.612 16.3595C172.995 16.8562 173.505 17.1046 174.143 17.1046C174.786 17.1046 175.296 16.854 175.675 16.3527C176.053 15.8468 176.242 15.1404 176.242 14.2335C176.242 13.4223 176.048 12.7661 175.661 12.2648C175.278 11.7589 174.768 11.506 174.13 11.506C173.505 11.506 173.002 11.7544 172.619 12.2511C172.236 12.7478 172.045 13.4588 172.045 14.3839ZM181.403 16.1476L183.126 10.6036H184.479L181.506 19.1417C181.045 20.3722 180.314 20.9874 179.311 20.9874L179.072 20.9669L178.6 20.8781V19.8527L178.942 19.88C179.371 19.88 179.703 19.7934 179.94 19.6202C180.182 19.4471 180.38 19.1303 180.535 18.67L180.815 17.9181L178.177 10.6036H179.557L181.403 16.1476Z" fill="#767676"/>
<circle cx="147.458" cy="13.3159" r="8.3159" fill="#F2F2F2"/>
<circle cx="147.458" cy="13.3159" r="3.659" fill="#B140D8"/>
<path d="M228.799 13.5636C227.673 13.24 226.853 12.8435 226.338 12.3741C225.828 11.9002 225.573 11.3169 225.573 10.6241C225.573 9.84029 225.885 9.19316 226.509 8.68274C227.138 8.16777 227.954 7.91028 228.956 7.91028C229.64 7.91028 230.248 8.04244 230.781 8.30676C231.319 8.57109 231.734 8.93567 232.026 9.40051C232.322 9.86536 232.47 10.3735 232.47 10.9249H231.151C231.151 10.3234 230.959 9.85168 230.576 9.50989C230.194 9.16353 229.654 8.99036 228.956 8.99036C228.309 8.99036 227.803 9.13391 227.439 9.42102C227.079 9.70357 226.899 10.0978 226.899 10.6036C226.899 11.0092 227.07 11.3533 227.411 11.6359C227.758 11.9139 228.343 12.1691 229.168 12.4015C229.998 12.6339 230.645 12.8914 231.11 13.174C231.579 13.4519 231.925 13.7778 232.149 14.1515C232.377 14.5252 232.49 14.965 232.49 15.4708C232.49 16.2775 232.176 16.9246 231.547 17.4122C230.918 17.8953 230.077 18.1368 229.025 18.1368C228.341 18.1368 227.703 18.007 227.111 17.7472C226.518 17.4829 226.06 17.1228 225.737 16.6671C225.418 16.2114 225.258 15.6941 225.258 15.1154H226.577C226.577 15.7169 226.798 16.1932 227.24 16.5441C227.687 16.8904 228.282 17.0636 229.025 17.0636C229.717 17.0636 230.248 16.9223 230.617 16.6398C230.987 16.3572 231.171 15.9721 231.171 15.4845C231.171 14.9969 231 14.6209 230.658 14.3566C230.317 14.0877 229.697 13.8234 228.799 13.5636ZM237.05 18.1368C236.047 18.1368 235.232 17.8087 234.603 17.1525C233.974 16.4917 233.659 15.6098 233.659 14.507V14.2745C233.659 13.5408 233.798 12.8868 234.076 12.3126C234.359 11.7338 234.751 11.2827 235.252 10.9591C235.758 10.631 236.305 10.4669 236.893 10.4669C237.854 10.4669 238.602 10.7837 239.135 11.4171C239.668 12.0506 239.935 12.9575 239.935 14.1378V14.6642H234.924C234.942 15.3934 235.154 15.9835 235.56 16.4347C235.97 16.8813 236.49 17.1046 237.118 17.1046C237.565 17.1046 237.943 17.0135 238.253 16.8312C238.563 16.6489 238.834 16.4073 239.067 16.1066L239.839 16.7081C239.219 17.6606 238.29 18.1368 237.05 18.1368ZM236.893 11.506C236.382 11.506 235.954 11.6928 235.608 12.0665C235.261 12.4357 235.047 12.9552 234.965 13.6251H238.67V13.5294C238.634 12.8868 238.461 12.3901 238.151 12.0392C237.841 11.6837 237.421 11.506 236.893 11.506ZM245.971 17.2687C245.479 17.8475 244.756 18.1368 243.804 18.1368C243.016 18.1368 242.414 17.909 241.999 17.4532C241.589 16.993 241.382 16.3139 241.377 15.4161V10.6036H242.642V15.382C242.642 16.5031 243.098 17.0636 244.009 17.0636C244.975 17.0636 245.618 16.7036 245.937 15.9835V10.6036H247.201V18.0001H245.998L245.971 17.2687ZM250.503 18.0001H249.239V7.50012H250.503V18.0001ZM252.233 14.2404C252.233 13.0874 252.499 12.1713 253.032 11.4923C253.566 10.8087 254.272 10.4669 255.152 10.4669C256.054 10.4669 256.758 10.7859 257.264 11.424L257.325 10.6036H258.481V17.8224C258.481 18.7794 258.196 19.5337 257.626 20.0851C257.061 20.6365 256.3 20.9122 255.343 20.9122C254.81 20.9122 254.288 20.7983 253.778 20.5704C253.267 20.3426 252.878 20.0304 252.609 19.6339L253.265 18.8751C253.807 19.545 254.47 19.88 255.254 19.88C255.869 19.88 256.348 19.7068 256.69 19.3605C257.036 19.0141 257.209 18.5265 257.209 17.8976V17.2618C256.703 17.8452 256.013 18.1368 255.138 18.1368C254.272 18.1368 253.57 17.7882 253.032 17.0909C252.499 16.3937 252.233 15.4435 252.233 14.2404ZM253.504 14.3839C253.504 15.2179 253.675 15.8741 254.017 16.3527C254.359 16.8266 254.837 17.0636 255.452 17.0636C256.25 17.0636 256.836 16.7013 257.209 15.9767V12.5997C256.822 11.8934 256.241 11.5402 255.466 11.5402C254.851 11.5402 254.37 11.7794 254.024 12.2579C253.677 12.7365 253.504 13.4451 253.504 14.3839ZM261.769 18.0001H260.504V10.6036H261.769V18.0001ZM260.402 8.64172C260.402 8.43665 260.463 8.26347 260.586 8.12219C260.714 7.98092 260.901 7.91028 261.147 7.91028C261.393 7.91028 261.58 7.98092 261.707 8.12219C261.835 8.26347 261.899 8.43665 261.899 8.64172C261.899 8.8468 261.835 9.0177 261.707 9.15442C261.58 9.29114 261.393 9.3595 261.147 9.3595C260.901 9.3595 260.714 9.29114 260.586 9.15442C260.463 9.0177 260.402 8.8468 260.402 8.64172Z" fill="#767676"/>
<circle cx="209.743" cy="13.3159" r="8.3159" fill="#F2F2F2"/>
<circle cx="209.742" cy="13.3159" r="3.659" fill="#4290F5"/>
<path d="M306.297 14.8624L306.489 16.1749L306.769 14.9923L308.738 8.047H309.845L311.766 14.9923L312.04 16.1954L312.252 14.8556L313.797 8.047H315.116L312.703 18.0001H311.506L309.456 10.7472L309.298 9.9884L309.141 10.7472L307.015 18.0001H305.819L303.413 8.047H304.725L306.297 14.8624ZM319.231 18.1368C318.228 18.1368 317.413 17.8087 316.784 17.1525C316.155 16.4917 315.84 15.6098 315.84 14.507V14.2745C315.84 13.5408 315.979 12.8868 316.257 12.3126C316.54 11.7338 316.932 11.2827 317.433 10.9591C317.939 10.631 318.486 10.4669 319.074 10.4669C320.035 10.4669 320.783 10.7837 321.316 11.4171C321.849 12.0506 322.116 12.9575 322.116 14.1378V14.6642H317.105C317.123 15.3934 317.335 15.9835 317.741 16.4347C318.151 16.8813 318.671 17.1046 319.299 17.1046C319.746 17.1046 320.124 17.0135 320.434 16.8312C320.744 16.6489 321.015 16.4073 321.248 16.1066L322.02 16.7081C321.4 17.6606 320.471 18.1368 319.231 18.1368ZM319.074 11.506C318.563 11.506 318.135 11.6928 317.789 12.0665C317.442 12.4357 317.228 12.9552 317.146 13.6251H320.851V13.5294C320.815 12.8868 320.642 12.3901 320.332 12.0392C320.022 11.6837 319.602 11.506 319.074 11.506ZM324.782 10.6036L324.823 11.5333C325.388 10.8224 326.126 10.4669 327.038 10.4669C328.601 10.4669 329.389 11.3488 329.403 13.1124V18.0001H328.138V13.1056C328.134 12.5724 328.011 12.1782 327.769 11.923C327.532 11.6678 327.161 11.5402 326.655 11.5402C326.245 11.5402 325.885 11.6495 325.575 11.8683C325.265 12.087 325.023 12.3741 324.85 12.7296V18.0001H323.586V10.6036H324.782ZM331.003 14.2404C331.003 13.1056 331.271 12.1941 331.809 11.506C332.347 10.8133 333.051 10.4669 333.922 10.4669C334.787 10.4669 335.473 10.7631 335.979 11.3556V7.50012H337.244V18.0001H336.082L336.02 17.2072C335.514 17.8269 334.81 18.1368 333.908 18.1368C333.051 18.1368 332.352 17.7859 331.809 17.0841C331.271 16.3823 331.003 15.4663 331.003 14.3361V14.2404ZM332.267 14.3839C332.267 15.2225 332.44 15.8787 332.787 16.3527C333.133 16.8266 333.612 17.0636 334.222 17.0636C335.024 17.0636 335.61 16.7036 335.979 15.9835V12.5861C335.601 11.8888 335.02 11.5402 334.236 11.5402C333.616 11.5402 333.133 11.7794 332.787 12.2579C332.44 12.7365 332.267 13.4451 332.267 14.3839ZM341.632 16.1476L343.355 10.6036H344.709L341.735 19.1417C341.275 20.3722 340.543 20.9874 339.541 20.9874L339.301 20.9669L338.83 20.8781V19.8527L339.172 19.88C339.6 19.88 339.933 19.7934 340.17 19.6202C340.411 19.4471 340.609 19.1303 340.764 18.67L341.045 17.9181L338.406 10.6036H339.787L341.632 16.1476Z" fill="#767676"/>
<circle cx="288.027" cy="13.3159" r="8.3159" fill="#F2F2F2"/>
<circle cx="288.027" cy="13.3159" r="3.659" fill="#47B3F5"/>
<path d="M389.086 13.9738H386.748V18.0001H385.429V8.047H388.724C389.845 8.047 390.706 8.30221 391.307 8.81262C391.914 9.32304 392.217 10.0659 392.217 11.0411C392.217 11.6609 392.048 12.201 391.711 12.6613C391.378 13.1215 390.913 13.4656 390.316 13.6935L392.654 17.9181V18.0001H391.246L389.086 13.9738ZM386.748 12.9005H388.765C389.416 12.9005 389.933 12.7319 390.316 12.3947C390.704 12.0574 390.897 11.6062 390.897 11.0411C390.897 10.4259 390.713 9.95422 390.344 9.6261C389.979 9.29797 389.45 9.13163 388.758 9.12708H386.748V12.9005ZM396.933 18.1368C395.931 18.1368 395.115 17.8087 394.486 17.1525C393.857 16.4917 393.543 15.6098 393.543 14.507V14.2745C393.543 13.5408 393.682 12.8868 393.96 12.3126C394.242 11.7338 394.634 11.2827 395.136 10.9591C395.641 10.631 396.188 10.4669 396.776 10.4669C397.738 10.4669 398.485 10.7837 399.018 11.4171C399.552 12.0506 399.818 12.9575 399.818 14.1378V14.6642H394.807C394.826 15.3934 395.038 15.9835 395.443 16.4347C395.853 16.8813 396.373 17.1046 397.002 17.1046C397.448 17.1046 397.827 17.0135 398.137 16.8312C398.446 16.6489 398.718 16.4073 398.95 16.1066L399.723 16.7081C399.103 17.6606 398.173 18.1368 396.933 18.1368ZM396.776 11.506C396.266 11.506 395.837 11.6928 395.491 12.0665C395.145 12.4357 394.931 12.9552 394.849 13.6251H398.554V13.5294C398.517 12.8868 398.344 12.3901 398.034 12.0392C397.724 11.6837 397.305 11.506 396.776 11.506ZM400.98 14.2404C400.98 13.1056 401.249 12.1941 401.787 11.506C402.325 10.8133 403.029 10.4669 403.899 10.4669C404.765 10.4669 405.451 10.7631 405.957 11.3556V7.50012H407.222V18.0001H406.059L405.998 17.2072C405.492 17.8269 404.788 18.1368 403.886 18.1368C403.029 18.1368 402.329 17.7859 401.787 17.0841C401.249 16.3823 400.98 15.4663 400.98 14.3361V14.2404ZM402.245 14.3839C402.245 15.2225 402.418 15.8787 402.765 16.3527C403.111 16.8266 403.589 17.0636 404.2 17.0636C405.002 17.0636 405.588 16.7036 405.957 15.9835V12.5861C405.579 11.8888 404.998 11.5402 404.214 11.5402C403.594 11.5402 403.111 11.7794 402.765 12.2579C402.418 12.7365 402.245 13.4451 402.245 14.3839ZM416.156 16.257L419 8.047H420.435L416.744 18.0001H415.582L411.897 8.047H413.326L416.156 16.257ZM425.829 18.0001C425.756 17.8543 425.697 17.5945 425.651 17.2208C425.063 17.8315 424.362 18.1368 423.546 18.1368C422.817 18.1368 422.217 17.9318 421.748 17.5216C421.283 17.1069 421.051 16.5828 421.051 15.9493C421.051 15.1792 421.342 14.5822 421.926 14.1583C422.514 13.7299 423.338 13.5157 424.4 13.5157H425.631V12.9347C425.631 12.4926 425.499 12.1417 425.234 11.882C424.97 11.6176 424.58 11.4855 424.065 11.4855C423.614 11.4855 423.236 11.5994 422.931 11.8273C422.625 12.0551 422.473 12.3309 422.473 12.6544H421.201C421.201 12.2853 421.331 11.9298 421.591 11.588C421.855 11.2417 422.21 10.9682 422.657 10.7677C423.108 10.5672 423.603 10.4669 424.141 10.4669C424.993 10.4669 425.66 10.6811 426.143 11.1095C426.627 11.5333 426.877 12.1189 426.895 12.8663V16.2706C426.895 16.9497 426.982 17.4897 427.155 17.8907V18.0001H425.829ZM423.73 17.0363C424.127 17.0363 424.503 16.9337 424.858 16.7286C425.214 16.5236 425.471 16.257 425.631 15.9288V14.4113H424.64C423.09 14.4113 422.315 14.8647 422.315 15.7716C422.315 16.1681 422.447 16.478 422.712 16.7013C422.976 16.9246 423.316 17.0363 423.73 17.0363ZM430.252 18.0001H428.987V7.50012H430.252V18.0001ZM434.723 16.2843L436.555 10.6036H437.847L435.194 18.0001H434.23L431.551 10.6036H432.843L434.723 16.2843ZM442.037 18.1368C441.034 18.1368 440.219 17.8087 439.59 17.1525C438.961 16.4917 438.646 15.6098 438.646 14.507V14.2745C438.646 13.5408 438.785 12.8868 439.063 12.3126C439.346 11.7338 439.738 11.2827 440.239 10.9591C440.745 10.631 441.292 10.4669 441.88 10.4669C442.841 10.4669 443.589 10.7837 444.122 11.4171C444.655 12.0506 444.922 12.9575 444.922 14.1378V14.6642H439.911C439.929 15.3934 440.141 15.9835 440.547 16.4347C440.957 16.8813 441.476 17.1046 442.105 17.1046C442.552 17.1046 442.93 17.0135 443.24 16.8312C443.55 16.6489 443.821 16.4073 444.054 16.1066L444.826 16.7081C444.206 17.6606 443.277 18.1368 442.037 18.1368ZM441.88 11.506C441.369 11.506 440.941 11.6928 440.595 12.0665C440.248 12.4357 440.034 12.9552 439.952 13.6251H443.657V13.5294C443.621 12.8868 443.447 12.3901 443.138 12.0392C442.828 11.6837 442.408 11.506 441.88 11.506ZM448.107 8.81262V10.6036H449.488V11.5812H448.107V16.1681C448.107 16.4643 448.169 16.6876 448.292 16.838C448.415 16.9838 448.625 17.0568 448.921 17.0568C449.067 17.0568 449.267 17.0294 449.522 16.9747V18.0001C449.19 18.0913 448.866 18.1368 448.552 18.1368C447.987 18.1368 447.56 17.9659 447.273 17.6241C446.986 17.2823 446.843 16.797 446.843 16.1681V11.5812H445.496V10.6036H446.843V8.81262H448.107Z" fill="#767676"/>
<circle cx="369.311" cy="13.3159" r="8.3159" fill="#F2F2F2"/>
<circle cx="369.311" cy="13.3159" r="3.659" fill="#D87171"/>
<path d="M493.755 13.0441L496.353 8.047H497.843L494.411 14.2882V18.0001H493.099V14.2882L489.667 8.047H491.171L493.755 13.0441ZM501.548 18.1368C500.545 18.1368 499.73 17.8087 499.101 17.1525C498.472 16.4917 498.157 15.6098 498.157 14.507V14.2745C498.157 13.5408 498.296 12.8868 498.574 12.3126C498.857 11.7338 499.249 11.2827 499.75 10.9591C500.256 10.631 500.803 10.4669 501.391 10.4669C502.352 10.4669 503.1 10.7837 503.633 11.4171C504.166 12.0506 504.433 12.9575 504.433 14.1378V14.6642H499.422C499.44 15.3934 499.652 15.9835 500.058 16.4347C500.468 16.8813 500.988 17.1046 501.616 17.1046C502.063 17.1046 502.441 17.0135 502.751 16.8312C503.061 16.6489 503.332 16.4073 503.565 16.1066L504.337 16.7081C503.717 17.6606 502.788 18.1368 501.548 18.1368ZM501.391 11.506C500.88 11.506 500.452 11.6928 500.106 12.0665C499.759 12.4357 499.545 12.9552 499.463 13.6251H503.168V13.5294C503.132 12.8868 502.959 12.3901 502.649 12.0392C502.339 11.6837 501.92 11.506 501.391 11.506ZM509.478 11.7384C509.286 11.7065 509.079 11.6906 508.856 11.6906C508.026 11.6906 507.463 12.0437 507.167 12.7501V18.0001H505.903V10.6036H507.133L507.154 11.4581C507.568 10.7973 508.156 10.4669 508.917 10.4669C509.163 10.4669 509.35 10.4988 509.478 10.5626V11.7384ZM512.021 18.0001H510.756V10.6036H512.021V18.0001ZM510.654 8.64172C510.654 8.43665 510.715 8.26347 510.838 8.12219C510.966 7.98092 511.153 7.91028 511.399 7.91028C511.645 7.91028 511.832 7.98092 511.959 8.12219C512.087 8.26347 512.151 8.43665 512.151 8.64172C512.151 8.8468 512.087 9.0177 511.959 9.15442C511.832 9.29114 511.645 9.3595 511.399 9.3595C511.153 9.3595 510.966 9.29114 510.838 9.15442C510.715 9.0177 510.654 8.8468 510.654 8.64172Z" fill="#767676"/>
<circle cx="474.596" cy="13.3159" r="8.3159" fill="#F2F2F2"/>
<circle cx="474.596" cy="13.3159" r="3.659" fill="#9F8CEA"/>
<path d="M21.2637 283.058C21.2637 284.433 21.0288 285.455 20.5591 286.124C20.0894 286.793 19.3551 287.127 18.3564 287.127C17.3704 287.127 16.6405 286.801 16.1665 286.149C15.6925 285.493 15.4471 284.516 15.4302 283.217V281.649C15.4302 280.291 15.665 279.281 16.1348 278.621C16.6045 277.961 17.3408 277.631 18.3438 277.631C19.3382 277.631 20.0703 277.95 20.54 278.589C21.0098 279.224 21.251 280.206 21.2637 281.535V283.058ZM20.0894 281.452C20.0894 280.458 19.9497 279.734 19.6704 279.281C19.3911 278.824 18.9489 278.596 18.3438 278.596C17.7428 278.596 17.3049 278.822 17.0298 279.275C16.7547 279.728 16.613 280.424 16.6045 281.363V283.242C16.6045 284.241 16.7484 284.979 17.0361 285.458C17.3281 285.931 17.7682 286.168 18.3564 286.168C18.9362 286.168 19.3657 285.944 19.645 285.496C19.9285 285.047 20.0767 284.34 20.0894 283.375V281.452Z" fill="#BCB9B9"/>
<path d="M42.0317 316H35.9761V315.156L39.1753 311.601C39.6493 311.064 39.9751 310.628 40.1528 310.293C40.3348 309.955 40.4258 309.606 40.4258 309.246C40.4258 308.764 40.2798 308.368 39.9878 308.059C39.6958 307.75 39.3065 307.596 38.8198 307.596C38.2358 307.596 37.7809 307.763 37.4551 308.097C37.1335 308.427 36.9727 308.889 36.9727 309.481H35.7983C35.7983 308.63 36.0713 307.943 36.6172 307.418C37.1673 306.893 37.9015 306.631 38.8198 306.631C39.6789 306.631 40.3581 306.857 40.8574 307.31C41.3568 307.759 41.6064 308.357 41.6064 309.106C41.6064 310.016 41.0267 311.1 39.8672 312.356L37.3916 315.042H42.0317V316ZM49.0713 312.058C49.0713 313.433 48.8364 314.455 48.3667 315.124C47.897 315.793 47.1628 316.127 46.1641 316.127C45.1781 316.127 44.4481 315.801 43.9741 315.149C43.5002 314.493 43.2547 313.516 43.2378 312.217V310.649C43.2378 309.291 43.4727 308.281 43.9424 307.621C44.4121 306.961 45.1484 306.631 46.1514 306.631C47.1458 306.631 47.8779 306.95 48.3477 307.589C48.8174 308.224 49.0586 309.206 49.0713 310.535V312.058ZM47.897 310.452C47.897 309.458 47.7573 308.734 47.478 308.281C47.1987 307.824 46.7565 307.596 46.1514 307.596C45.5505 307.596 45.1125 307.822 44.8374 308.275C44.5623 308.728 44.4206 309.424 44.4121 310.363V312.242C44.4121 313.241 44.556 313.979 44.8438 314.458C45.1357 314.931 45.5758 315.168 46.1641 315.168C46.7438 315.168 47.1733 314.944 47.4526 314.496C47.7362 314.047 47.8843 313.34 47.897 312.375V310.452ZM56.6313 316H50.5757V315.156L53.7749 311.601C54.2489 311.064 54.5747 310.628 54.7524 310.293C54.9344 309.955 55.0254 309.606 55.0254 309.246C55.0254 308.764 54.8794 308.368 54.5874 308.059C54.2954 307.75 53.9061 307.596 53.4194 307.596C52.8354 307.596 52.3805 307.763 52.0547 308.097C51.7331 308.427 51.5723 308.889 51.5723 309.481H50.3979C50.3979 308.63 50.6709 307.943 51.2168 307.418C51.7669 306.893 52.5011 306.631 53.4194 306.631C54.2785 306.631 54.9577 306.857 55.457 307.31C55.9564 307.759 56.2061 308.357 56.2061 309.106C56.2061 310.016 55.6263 311.1 54.4668 312.356L51.9912 315.042H56.6313V316ZM61.7349 316H60.5542V308.173L58.1865 309.043V307.977L61.5508 306.713H61.7349V316ZM67.7397 312.553H64.6421V311.595H67.7397V312.553ZM72.6274 316H71.4468V308.173L69.0791 309.043V307.977L72.4434 306.713H72.6274V316ZM81.8633 312.058C81.8633 313.433 81.6284 314.455 81.1587 315.124C80.689 315.793 79.9548 316.127 78.9561 316.127C77.9701 316.127 77.2401 315.801 76.7661 315.149C76.2922 314.493 76.0467 313.516 76.0298 312.217V310.649C76.0298 309.291 76.2646 308.281 76.7344 307.621C77.2041 306.961 77.9404 306.631 78.9434 306.631C79.9378 306.631 80.6699 306.95 81.1396 307.589C81.6094 308.224 81.8506 309.206 81.8633 310.535V312.058ZM80.689 310.452C80.689 309.458 80.5493 308.734 80.27 308.281C79.9907 307.824 79.5485 307.596 78.9434 307.596C78.3424 307.596 77.9045 307.822 77.6294 308.275C77.3543 308.728 77.2126 309.424 77.2041 310.363V312.242C77.2041 313.241 77.348 313.979 77.6357 314.458C77.9277 314.931 78.3678 315.168 78.9561 315.168C79.5358 315.168 79.9653 314.944 80.2446 314.496C80.5282 314.047 80.6763 313.34 80.689 312.375V310.452ZM85.9321 312.553H82.8345V311.595H85.9321V312.553ZM90.8198 316H89.6392V308.173L87.2715 309.043V307.977L90.6357 306.713H90.8198V316ZM98.1196 316H96.939V308.173L94.5713 309.043V307.977L97.9355 306.713H98.1196V316Z" fill="#BCB9B9"/>
<path d="M542.458 307.761H539.487V316H538.274V307.761H535.31V306.758H542.458V307.761ZM542.699 312.502C542.699 311.83 542.83 311.224 543.092 310.687C543.359 310.15 543.727 309.735 544.197 309.443C544.671 309.151 545.21 309.005 545.815 309.005C546.751 309.005 547.506 309.329 548.082 309.976C548.661 310.624 548.951 311.485 548.951 312.56V312.642C548.951 313.311 548.822 313.912 548.564 314.445C548.31 314.974 547.944 315.386 547.466 315.683C546.992 315.979 546.446 316.127 545.828 316.127C544.897 316.127 544.142 315.803 543.562 315.156C542.986 314.508 542.699 313.651 542.699 312.585V312.502ZM543.879 312.642C543.879 313.404 544.055 314.015 544.406 314.477C544.762 314.938 545.236 315.168 545.828 315.168C546.425 315.168 546.899 314.936 547.25 314.47C547.601 314 547.777 313.345 547.777 312.502C547.777 311.749 547.597 311.14 547.237 310.674C546.882 310.205 546.408 309.97 545.815 309.97C545.236 309.97 544.768 310.2 544.413 310.662C544.057 311.123 543.879 311.783 543.879 312.642ZM550.138 312.509C550.138 311.455 550.388 310.609 550.887 309.97C551.387 309.326 552.04 309.005 552.849 309.005C553.653 309.005 554.29 309.28 554.759 309.83V306.25H555.934V316H554.854L554.797 315.264C554.328 315.839 553.674 316.127 552.836 316.127C552.04 316.127 551.391 315.801 550.887 315.149C550.388 314.498 550.138 313.647 550.138 312.598V312.509ZM551.312 312.642C551.312 313.421 551.473 314.03 551.795 314.47C552.117 314.91 552.561 315.13 553.128 315.13C553.873 315.13 554.417 314.796 554.759 314.127V310.973C554.408 310.325 553.868 310.001 553.141 310.001C552.565 310.001 552.117 310.224 551.795 310.668C551.473 311.112 551.312 311.77 551.312 312.642ZM562.002 316C561.934 315.865 561.879 315.623 561.837 315.276C561.291 315.843 560.639 316.127 559.882 316.127C559.205 316.127 558.648 315.937 558.212 315.556C557.781 315.171 557.565 314.684 557.565 314.096C557.565 313.381 557.836 312.826 558.377 312.433C558.923 312.035 559.689 311.836 560.675 311.836H561.818V311.296C561.818 310.886 561.695 310.56 561.45 310.319C561.204 310.073 560.842 309.951 560.364 309.951C559.945 309.951 559.594 310.056 559.311 310.268C559.027 310.48 558.885 310.736 558.885 311.036H557.705C557.705 310.693 557.825 310.363 558.066 310.046C558.312 309.724 558.642 309.47 559.057 309.284C559.476 309.098 559.935 309.005 560.434 309.005C561.225 309.005 561.845 309.204 562.294 309.602C562.743 309.995 562.975 310.539 562.992 311.233V314.394C562.992 315.025 563.073 315.526 563.233 315.898V316H562.002ZM560.053 315.105C560.421 315.105 560.771 315.01 561.101 314.819C561.431 314.629 561.67 314.381 561.818 314.077V312.667H560.897C559.459 312.667 558.739 313.089 558.739 313.931C558.739 314.299 558.862 314.587 559.107 314.794C559.353 315.001 559.668 315.105 560.053 315.105ZM566.979 314.28L568.578 309.132H569.835L567.074 317.06C566.646 318.203 565.967 318.774 565.036 318.774L564.814 318.755L564.376 318.672V317.72L564.693 317.746C565.091 317.746 565.4 317.665 565.62 317.504C565.844 317.344 566.028 317.049 566.172 316.622L566.433 315.924L563.982 309.132H565.265L566.979 314.28Z" fill="#D393E9"/>
<path d="M9.41895 206.366L9.88867 201.758H14.624V202.843H10.8853L10.606 205.363C11.0588 205.097 11.5729 204.963 12.1484 204.963C12.9906 204.963 13.6592 205.243 14.1543 205.801C14.6494 206.356 14.897 207.107 14.897 208.055C14.897 209.007 14.6388 209.758 14.1226 210.308C13.6105 210.854 12.8932 211.127 11.9707 211.127C11.154 211.127 10.4875 210.901 9.97119 210.448C9.45492 209.995 9.16081 209.369 9.08887 208.569H10.1997C10.2716 209.098 10.46 209.498 10.7646 209.769C11.0693 210.035 11.4714 210.168 11.9707 210.168C12.5166 210.168 12.944 209.982 13.2529 209.61C13.5661 209.237 13.7227 208.723 13.7227 208.067C13.7227 207.45 13.5534 206.954 13.2148 206.582C12.8805 206.205 12.4341 206.017 11.8755 206.017C11.3634 206.017 10.9614 206.129 10.6694 206.354L10.3584 206.607L9.41895 206.366ZM18.2168 207.82L17.4805 208.588V211H16.3062V201.25H17.4805V207.147L18.1089 206.392L20.248 204.132H21.6763L19.0039 207.001L21.9873 211H20.6099L18.2168 207.82Z" fill="#BCB9B9"/>
<path d="M5.43896 135H4.2583V127.173L1.89062 128.043V126.977L5.25488 125.713H5.43896V135ZM14.6748 131.058C14.6748 132.433 14.4399 133.455 13.9702 134.124C13.5005 134.793 12.7663 135.127 11.7676 135.127C10.7816 135.127 10.0516 134.801 9.57764 134.149C9.10368 133.493 8.85824 132.516 8.84131 131.217V129.649C8.84131 128.291 9.07617 127.281 9.5459 126.621C10.0156 125.961 10.752 125.631 11.7549 125.631C12.7493 125.631 13.4814 125.95 13.9512 126.589C14.4209 127.224 14.6621 128.206 14.6748 129.535V131.058ZM13.5005 129.452C13.5005 128.458 13.3608 127.734 13.0815 127.281C12.8022 126.824 12.36 126.596 11.7549 126.596C11.154 126.596 10.716 126.822 10.4409 127.275C10.1659 127.728 10.0241 128.424 10.0156 129.363V131.242C10.0156 132.241 10.1595 132.979 10.4473 133.458C10.7393 133.931 11.1794 134.168 11.7676 134.168C12.3473 134.168 12.7769 133.944 13.0562 133.496C13.3397 133.047 13.4878 132.34 13.5005 131.375V129.452ZM18.2168 131.82L17.4805 132.588V135H16.3062V125.25H17.4805V131.147L18.1089 130.392L20.248 128.132H21.6763L19.0039 131.001L21.9873 135H20.6099L18.2168 131.82Z" fill="#BCB9B9"/>
<path d="M7.63525 61H1.57959V60.1558L4.77881 56.6011C5.25277 56.0636 5.57861 55.6278 5.75635 55.2935C5.93831 54.9549 6.0293 54.6058 6.0293 54.2461C6.0293 53.7637 5.8833 53.368 5.59131 53.0591C5.29932 52.7502 4.90999 52.5957 4.42334 52.5957C3.83936 52.5957 3.38444 52.7629 3.05859 53.0972C2.73698 53.4272 2.57617 53.8885 2.57617 54.481H1.40186C1.40186 53.6304 1.6748 52.9427 2.2207 52.418C2.77083 51.8932 3.50505 51.6309 4.42334 51.6309C5.28239 51.6309 5.96159 51.8573 6.46094 52.3101C6.96029 52.7586 7.20996 53.3574 7.20996 54.1064C7.20996 55.0163 6.63021 56.0996 5.4707 57.3564L2.99512 60.0415H7.63525V61ZM14.6748 57.0581C14.6748 58.4334 14.4399 59.4554 13.9702 60.124C13.5005 60.7926 12.7663 61.127 11.7676 61.127C10.7816 61.127 10.0516 60.8011 9.57764 60.1494C9.10368 59.4935 8.85824 58.516 8.84131 57.2168V55.6489C8.84131 54.2905 9.07617 53.2812 9.5459 52.6211C10.0156 51.9609 10.752 51.6309 11.7549 51.6309C12.7493 51.6309 13.4814 51.9504 13.9512 52.5894C14.4209 53.2241 14.6621 54.2059 14.6748 55.5347V57.0581ZM13.5005 55.4521C13.5005 54.4577 13.3608 53.734 13.0815 53.2812C12.8022 52.8242 12.36 52.5957 11.7549 52.5957C11.154 52.5957 10.716 52.8221 10.4409 53.2749C10.1659 53.7277 10.0241 54.4238 10.0156 55.3633V57.2422C10.0156 58.2409 10.1595 58.9793 10.4473 59.4575C10.7393 59.9315 11.1794 60.1685 11.7676 60.1685C12.3473 60.1685 12.7769 59.9442 13.0562 59.4956C13.3397 59.047 13.4878 58.3403 13.5005 57.3755V55.4521ZM18.2168 57.8198L17.4805 58.5879V61H16.3062V51.25H17.4805V57.147L18.1089 56.3916L20.248 54.1318H21.6763L19.0039 57.001L21.9873 61H20.6099L18.2168 57.8198Z" fill="#BCB9B9"/>
<line x1="35.5" y1="53" x2="35.5" y2="284" stroke="#D9D9DB" stroke-dasharray="5 5"/>
<line x1="391.5" y1="53" x2="391.5" y2="284" stroke="#D9D9DB" stroke-dasharray="5 5"/>
<line x1="213.5" y1="53" x2="213.5" y2="284" stroke="#D9D9DB" stroke-dasharray="5 5"/>
<line x1="569.5" y1="53" x2="569.5" y2="284" stroke="#D9D9DB" stroke-dasharray="5 5"/>
<path d="M36 97H112.124H188.475H264.373H341.401H417.299H494.102H570" stroke="#B140D8" stroke-width="3" stroke-linecap="round"/>
<path d="M36 169H111.285H188.604H265.019H341.66H417.17H494.489H570" stroke="#47B3F5" stroke-width="3" stroke-linecap="round"/>
<path d="M36 54H111.28H188.595H263.423H341.642H417.601H494.464H570" stroke="#D87171" stroke-width="3" stroke-linecap="round"/>
<path d="M36 211H112.185H188.595H264.554H341.642H417.601H494.464H570" stroke="#F4B376" stroke-width="3" stroke-linecap="round"/>
<path d="M36 254H112.185H188.595H264.554H341.642H417.601H494.464H570" stroke="#9F8CEA" stroke-width="3" stroke-linecap="round"/>
<path d="M36 143H112.415H188.604H266.149H341.66H417.622H494.489H570" stroke="#4290F5" stroke-width="3" stroke-linecap="round"/>
</svg>
