<svg width="156" height="57" viewBox="0 0 156 57" fill="none" xmlns="http://www.w3.org/2000/svg">
<path d="M118.704 15.7407C132.807 3.36288 148.778 12.3024 155 18.3194V57H1V22.4453C9.46915 27.9465 28.7926 34.3074 38.3333 15.7407C50.2593 -7.46767 63.7407 -1.79455 77.7407 22.4453C91.7407 46.6851 101.074 31.2129 118.704 15.7407Z" fill="url(#paint0_linear_410_4893)"/>
<path d="M155 18.291C148.778 12.2839 132.807 3.35901 118.704 15.7165C101.074 31.1634 91.7407 46.6102 77.7407 22.4101C63.7407 -1.78997 50.2593 -7.45379 38.3333 15.7165C28.7926 34.2527 9.46914 27.9024 1 22.4101" stroke="#D87171" stroke-width="2" stroke-linecap="round"/>
<defs>
<linearGradient id="paint0_linear_410_4893" x1="78" y1="1" x2="78" y2="57" gradientUnits="userSpaceOnUse">
<stop stop-color="#FA0000" stop-opacity="0.13"/>
<stop offset="1" stop-color="#FA0000" stop-opacity="0"/>
</linearGradient>
</defs>
</svg>
