<svg width="205" height="292" viewBox="0 0 205 292" fill="none" xmlns="http://www.w3.org/2000/svg">
<g filter="url(#filter0_d_575_1435)">
<rect x="38" y="226" width="128" height="41" rx="10" fill="white"/>
</g>
<path d="M85.77 248.62C85.77 248.213 85.6261 247.9 85.3384 247.68C85.0549 247.46 84.5407 247.238 83.7959 247.014C83.0511 246.789 82.4587 246.54 82.0186 246.265C81.1764 245.736 80.7554 245.046 80.7554 244.195C80.7554 243.451 81.0579 242.837 81.6631 242.354C82.2725 241.872 83.0617 241.631 84.0308 241.631C84.674 241.631 85.2474 241.749 85.751 241.986C86.2546 242.223 86.6502 242.562 86.938 243.002C87.2257 243.438 87.3696 243.922 87.3696 244.456H85.77C85.77 243.973 85.6177 243.597 85.313 243.326C85.0125 243.051 84.5809 242.913 84.0181 242.913C83.4933 242.913 83.085 243.025 82.793 243.25C82.5052 243.474 82.3613 243.787 82.3613 244.189C82.3613 244.528 82.5179 244.811 82.8311 245.04C83.1442 245.264 83.6605 245.484 84.3799 245.7C85.0993 245.911 85.6769 246.155 86.1128 246.43C86.5487 246.701 86.8682 247.014 87.0713 247.369C87.2744 247.72 87.376 248.133 87.376 248.607C87.376 249.377 87.0798 249.991 86.4873 250.448C85.8991 250.901 85.0993 251.127 84.0879 251.127C83.4193 251.127 82.8035 251.004 82.2407 250.759C81.6821 250.509 81.2463 250.166 80.9331 249.73C80.6242 249.295 80.4697 248.787 80.4697 248.207H82.0757C82.0757 248.732 82.2492 249.138 82.5962 249.426C82.9432 249.714 83.4404 249.857 84.0879 249.857C84.6465 249.857 85.0654 249.745 85.3447 249.521C85.6283 249.292 85.77 248.992 85.77 248.62ZM88.3472 247.502C88.3472 246.83 88.4805 246.224 88.7471 245.687C89.0137 245.145 89.3882 244.731 89.8706 244.443C90.353 244.151 90.9074 244.005 91.5337 244.005C92.4604 244.005 93.2116 244.303 93.7871 244.9C94.3669 245.497 94.68 246.288 94.7266 247.274L94.7329 247.636C94.7329 248.313 94.6017 248.918 94.3394 249.451C94.0812 249.984 93.7088 250.397 93.2222 250.689C92.7397 250.981 92.1812 251.127 91.5464 251.127C90.5773 251.127 89.8008 250.805 89.2168 250.162C88.637 249.515 88.3472 248.653 88.3472 247.579V247.502ZM89.8896 247.636C89.8896 248.342 90.0356 248.897 90.3276 249.299C90.6196 249.697 91.0259 249.896 91.5464 249.896C92.0669 249.896 92.471 249.692 92.7588 249.286C93.0508 248.88 93.1968 248.285 93.1968 247.502C93.1968 246.808 93.0465 246.258 92.7461 245.852C92.4499 245.446 92.0457 245.243 91.5337 245.243C91.0301 245.243 90.6302 245.444 90.334 245.846C90.0378 246.243 89.8896 246.84 89.8896 247.636ZM95.7485 247.502C95.7485 246.83 95.8818 246.224 96.1484 245.687C96.415 245.145 96.7896 244.731 97.272 244.443C97.7544 244.151 98.3088 244.005 98.9351 244.005C99.8618 244.005 100.613 244.303 101.188 244.9C101.768 245.497 102.081 246.288 102.128 247.274L102.134 247.636C102.134 248.313 102.003 248.918 101.741 249.451C101.483 249.984 101.11 250.397 100.624 250.689C100.141 250.981 99.5825 251.127 98.9478 251.127C97.9787 251.127 97.2021 250.805 96.6182 250.162C96.0384 249.515 95.7485 248.653 95.7485 247.579V247.502ZM97.291 247.636C97.291 248.342 97.437 248.897 97.729 249.299C98.021 249.697 98.4272 249.896 98.9478 249.896C99.4683 249.896 99.8724 249.692 100.16 249.286C100.452 248.88 100.598 248.285 100.598 247.502C100.598 246.808 100.448 246.258 100.147 245.852C99.8512 245.446 99.4471 245.243 98.9351 245.243C98.4315 245.243 98.0316 245.444 97.7354 245.846C97.4391 246.243 97.291 246.84 97.291 247.636ZM104.889 244.132L104.934 244.849C105.416 244.286 106.076 244.005 106.914 244.005C107.832 244.005 108.461 244.356 108.799 245.059C109.299 244.356 110.001 244.005 110.907 244.005C111.664 244.005 112.227 244.214 112.595 244.633C112.968 245.052 113.158 245.67 113.167 246.487V251H111.624V246.531C111.624 246.095 111.529 245.776 111.338 245.573C111.148 245.37 110.833 245.268 110.393 245.268C110.041 245.268 109.754 245.363 109.529 245.554C109.309 245.74 109.155 245.985 109.066 246.29L109.072 251H107.53V246.48C107.509 245.672 107.096 245.268 106.292 245.268C105.674 245.268 105.236 245.52 104.978 246.023V251H103.436V244.132H104.889ZM120.765 247.636C120.765 248.698 120.523 249.546 120.041 250.181C119.559 250.812 118.911 251.127 118.099 251.127C117.345 251.127 116.742 250.879 116.29 250.384V253.641H114.747V244.132H116.169L116.232 244.83C116.685 244.28 117.301 244.005 118.08 244.005C118.917 244.005 119.573 244.318 120.047 244.944C120.526 245.566 120.765 246.432 120.765 247.541V247.636ZM119.229 247.502C119.229 246.817 119.091 246.273 118.816 245.871C118.545 245.469 118.156 245.268 117.648 245.268C117.017 245.268 116.565 245.528 116.29 246.049V249.096C116.569 249.629 117.026 249.896 117.661 249.896C118.152 249.896 118.535 249.699 118.81 249.305C119.089 248.907 119.229 248.306 119.229 247.502ZM123.716 251H122.174V244.132H123.716V251ZM122.079 242.348C122.079 242.111 122.153 241.914 122.301 241.758C122.453 241.601 122.669 241.523 122.948 241.523C123.228 241.523 123.443 241.601 123.596 241.758C123.748 241.914 123.824 242.111 123.824 242.348C123.824 242.581 123.748 242.776 123.596 242.932C123.443 243.084 123.228 243.161 122.948 243.161C122.669 243.161 122.453 243.084 122.301 242.932C122.153 242.776 122.079 242.581 122.079 242.348Z" fill="black"/>
<circle cx="102.5" cy="102.5" r="90" stroke="#FAFAFB" stroke-width="25"/>
<path fill-rule="evenodd" clip-rule="evenodd" d="M105.383 12.3843C105.383 16.1671 108.388 19.2373 112.146 19.6701C143.832 23.3198 170.112 44.7324 180.774 73.6968C181.869 76.6711 184.631 78.7693 187.801 78.7693C192.458 78.7693 195.879 74.3809 194.324 69.9908C182.018 35.2326 150.535 9.54171 112.593 5.63497C108.659 5.22985 105.383 8.42891 105.383 12.3843Z" fill="url(#paint0_linear_575_1435)"/>
<path fill-rule="evenodd" clip-rule="evenodd" d="M105.025 192.653C105.025 188.86 108.052 185.785 111.821 185.366C153.485 180.732 185.883 145.399 185.883 102.499C185.883 98.4133 185.589 94.396 185.021 90.4673C184.38 86.0302 187.654 81.798 192.137 81.798C195.37 81.798 198.192 84.0498 198.695 87.244C199.477 92.2142 199.883 97.3093 199.883 102.499C199.883 153.004 161.435 194.529 112.212 199.403C108.287 199.791 105.025 196.597 105.025 192.653Z" fill="url(#paint1_linear_575_1435)"/>
<path fill-rule="evenodd" clip-rule="evenodd" d="M22.1943 144.246C25.6318 142.388 29.9008 143.727 31.9902 147.029C45.5153 168.401 68.4892 183.199 95.04 185.553C98.8764 185.893 101.994 188.991 101.994 192.842C101.994 196.724 98.8327 199.891 94.9625 199.595C63.0483 197.152 35.4386 179.326 19.5345 153.517C17.5285 150.262 18.8302 146.063 22.1943 144.246Z" fill="url(#paint2_linear_575_1435)"/>
<path fill-rule="evenodd" clip-rule="evenodd" d="M18.3138 70.1353C21.8056 71.6011 23.4733 75.5658 22.4172 79.2025C20.2701 86.596 19.1191 94.4132 19.1191 102.499C19.1191 112.712 20.9551 122.495 24.315 131.538C25.6059 135.012 24.3251 138.999 21.0743 140.779C17.5302 142.72 13.0596 141.29 11.6061 137.52C7.41614 126.652 5.11914 114.844 5.11914 102.499C5.11914 92.6433 6.58332 83.1293 9.30602 74.163C10.4546 70.3805 14.6689 68.6053 18.3138 70.1353Z" fill="url(#paint3_linear_575_1435)"/>
<path fill-rule="evenodd" clip-rule="evenodd" d="M101.908 12.3213C101.825 16.1108 98.7389 19.1169 94.9636 19.4551C66.706 21.9865 42.5087 38.615 29.4554 62.2565C27.6059 65.6063 23.5555 67.2159 20.0387 65.7082C16.4447 64.1675 14.7846 59.9695 16.6334 56.5239C31.9166 28.0407 60.9582 8.04149 94.8708 5.41354C98.8059 5.1086 101.995 8.37527 101.908 12.3213Z" fill="url(#paint4_linear_575_1435)"/>
<path fill-rule="evenodd" clip-rule="evenodd" d="M106 30.4863C106 31.2914 106.638 31.9516 107.442 32.0007C136.269 33.7629 160.134 52.6383 168.062 77.9947C168.262 78.636 168.852 79.0809 169.524 79.0809C170.525 79.0809 171.249 78.1258 170.952 77.1706C162.665 50.5357 137.629 30.8184 107.563 29.0027C106.712 28.9513 106 29.634 106 30.4863Z" fill="url(#paint5_linear_575_1435)"/>
<defs>
<filter id="filter0_d_575_1435" x="23" y="211" width="168" height="81" filterUnits="userSpaceOnUse" color-interpolation-filters="sRGB">
<feFlood flood-opacity="0" result="BackgroundImageFix"/>
<feColorMatrix in="SourceAlpha" type="matrix" values="0 0 0 0 0 0 0 0 0 0 0 0 0 0 0 0 0 0 127 0" result="hardAlpha"/>
<feOffset dx="5" dy="5"/>
<feGaussianBlur stdDeviation="10"/>
<feComposite in2="hardAlpha" operator="out"/>
<feColorMatrix type="matrix" values="0 0 0 0 0.952941 0 0 0 0 0.952941 0 0 0 0 0.952941 0 0 0 1 0"/>
<feBlend mode="normal" in2="BackgroundImageFix" result="effect1_dropShadow_575_1435"/>
<feBlend mode="normal" in="SourceGraphic" in2="effect1_dropShadow_575_1435" result="shape"/>
</filter>
<linearGradient id="paint0_linear_575_1435" x1="191.501" y1="79.0007" x2="99.0696" y2="23.315" gradientUnits="userSpaceOnUse">
<stop stop-color="#D080EC"/>
<stop offset="1" stop-color="#D393E9"/>
</linearGradient>
<linearGradient id="paint1_linear_575_1435" x1="204.4" y1="81.7979" x2="109.542" y2="81.7979" gradientUnits="userSpaceOnUse">
<stop stop-color="#A4CD9D"/>
<stop offset="1" stop-color="#84BB7B"/>
</linearGradient>
<linearGradient id="paint2_linear_575_1435" x1="97.3606" y1="171.508" x2="18.584" y2="171.508" gradientUnits="userSpaceOnUse">
<stop stop-color="#FFC375"/>
<stop offset="1" stop-color="#F7C37F"/>
</linearGradient>
<linearGradient id="paint3_linear_575_1435" x1="19.4988" y1="142.001" x2="15" y2="64.5009" gradientUnits="userSpaceOnUse">
<stop stop-color="#E68E8E"/>
<stop offset="1" stop-color="#DD6565"/>
</linearGradient>
<linearGradient id="paint4_linear_575_1435" x1="98.4958" y1="9.74253" x2="37.6677" y2="80.5752" gradientUnits="userSpaceOnUse">
<stop stop-color="#1DA1F2"/>
<stop offset="1" stop-color="#4DB5F5"/>
</linearGradient>
<linearGradient id="paint5_linear_575_1435" x1="168.439" y1="32.5772" x2="117.937" y2="86.604" gradientUnits="userSpaceOnUse">
<stop stop-color="#D393E9"/>
<stop offset="1" stop-color="#D080EC"/>
</linearGradient>
</defs>
</svg>
