<svg width="557" height="449" viewBox="0 0 557 449" fill="none" xmlns="http://www.w3.org/2000/svg">
<path d="M21.2637 409.058C21.2637 410.433 21.0288 411.455 20.5591 412.124C20.0894 412.793 19.3551 413.127 18.3564 413.127C17.3704 413.127 16.6405 412.801 16.1665 412.149C15.6925 411.493 15.4471 410.516 15.4302 409.217V407.649C15.4302 406.291 15.665 405.281 16.1348 404.621C16.6045 403.961 17.3408 403.631 18.3438 403.631C19.3382 403.631 20.0703 403.95 20.54 404.589C21.0098 405.224 21.251 406.206 21.2637 407.535V409.058ZM20.0894 407.452C20.0894 406.458 19.9497 405.734 19.6704 405.281C19.3911 404.824 18.9489 404.596 18.3438 404.596C17.7428 404.596 17.3049 404.822 17.0298 405.275C16.7547 405.728 16.613 406.424 16.6045 407.363V409.242C16.6045 410.241 16.7484 410.979 17.0361 411.458C17.3281 411.931 17.7682 412.168 18.3564 412.168C18.9362 412.168 19.3657 411.944 19.645 411.496C19.9285 411.047 20.0767 410.34 20.0894 409.375V407.452Z" fill="#BCB9B9"/>
<path d="M9.41895 276.366L9.88867 271.758H14.624V272.843H10.8853L10.606 275.363C11.0588 275.097 11.5729 274.963 12.1484 274.963C12.9906 274.963 13.6592 275.243 14.1543 275.801C14.6494 276.356 14.897 277.107 14.897 278.055C14.897 279.007 14.6388 279.758 14.1226 280.308C13.6105 280.854 12.8932 281.127 11.9707 281.127C11.154 281.127 10.4875 280.901 9.97119 280.448C9.45492 279.995 9.16081 279.369 9.08887 278.569H10.1997C10.2716 279.098 10.46 279.498 10.7646 279.769C11.0693 280.035 11.4714 280.168 11.9707 280.168C12.5166 280.168 12.944 279.982 13.2529 279.61C13.5661 279.237 13.7227 278.723 13.7227 278.067C13.7227 277.45 13.5534 276.954 13.2148 276.582C12.8805 276.205 12.4341 276.017 11.8755 276.017C11.3634 276.017 10.9614 276.129 10.6694 276.354L10.3584 276.607L9.41895 276.366ZM18.2168 277.82L17.4805 278.588V281H16.3062V271.25H17.4805V277.147L18.1089 276.392L20.248 274.132H21.6763L19.0039 277.001L21.9873 281H20.6099L18.2168 277.82Z" fill="#BCB9B9"/>
<path d="M5.43896 149H4.2583V141.173L1.89062 142.043V140.977L5.25488 139.713H5.43896V149ZM14.6748 145.058C14.6748 146.433 14.4399 147.455 13.9702 148.124C13.5005 148.793 12.7663 149.127 11.7676 149.127C10.7816 149.127 10.0516 148.801 9.57764 148.149C9.10368 147.493 8.85824 146.516 8.84131 145.217V143.649C8.84131 142.291 9.07617 141.281 9.5459 140.621C10.0156 139.961 10.752 139.631 11.7549 139.631C12.7493 139.631 13.4814 139.95 13.9512 140.589C14.4209 141.224 14.6621 142.206 14.6748 143.535V145.058ZM13.5005 143.452C13.5005 142.458 13.3608 141.734 13.0815 141.281C12.8022 140.824 12.36 140.596 11.7549 140.596C11.154 140.596 10.716 140.822 10.4409 141.275C10.1659 141.728 10.0241 142.424 10.0156 143.363V145.242C10.0156 146.241 10.1595 146.979 10.4473 147.458C10.7393 147.931 11.1794 148.168 11.7676 148.168C12.3473 148.168 12.7769 147.944 13.0562 147.496C13.3397 147.047 13.4878 146.34 13.5005 145.375V143.452ZM18.2168 145.82L17.4805 146.588V149H16.3062V139.25H17.4805V145.147L18.1089 144.392L20.248 142.132H21.6763L19.0039 145.001L21.9873 149H20.6099L18.2168 145.82Z" fill="#BCB9B9"/>
<path d="M7.63525 17H1.57959V16.1558L4.77881 12.6011C5.25277 12.0636 5.57861 11.6278 5.75635 11.2935C5.93831 10.9549 6.0293 10.6058 6.0293 10.2461C6.0293 9.76367 5.8833 9.368 5.59131 9.05908C5.29932 8.75016 4.90999 8.5957 4.42334 8.5957C3.83936 8.5957 3.38444 8.76286 3.05859 9.09717C2.73698 9.42725 2.57617 9.88851 2.57617 10.481H1.40186C1.40186 9.63037 1.6748 8.94271 2.2207 8.41797C2.77083 7.89323 3.50505 7.63086 4.42334 7.63086C5.28239 7.63086 5.96159 7.85726 6.46094 8.31006C6.96029 8.75863 7.20996 9.35742 7.20996 10.1064C7.20996 11.0163 6.63021 12.0996 5.4707 13.3564L2.99512 16.0415H7.63525V17ZM14.6748 13.0581C14.6748 14.4334 14.4399 15.4554 13.9702 16.124C13.5005 16.7926 12.7663 17.127 11.7676 17.127C10.7816 17.127 10.0516 16.8011 9.57764 16.1494C9.10368 15.4935 8.85824 14.516 8.84131 13.2168V11.6489C8.84131 10.2905 9.07617 9.28125 9.5459 8.62109C10.0156 7.96094 10.752 7.63086 11.7549 7.63086C12.7493 7.63086 13.4814 7.95036 13.9512 8.58936C14.4209 9.22412 14.6621 10.2059 14.6748 11.5347V13.0581ZM13.5005 11.4521C13.5005 10.4577 13.3608 9.73405 13.0815 9.28125C12.8022 8.82422 12.36 8.5957 11.7549 8.5957C11.154 8.5957 10.716 8.8221 10.4409 9.2749C10.1659 9.7277 10.0241 10.4238 10.0156 11.3633V13.2422C10.0156 14.2409 10.1595 14.9793 10.4473 15.4575C10.7393 15.9315 11.1794 16.1685 11.7676 16.1685C12.3473 16.1685 12.7769 15.9442 13.0562 15.4956C13.3397 15.047 13.4878 14.3403 13.5005 13.3755V11.4521ZM18.2168 13.8198L17.4805 14.5879V17H16.3062V7.25H17.4805V13.147L18.1089 12.3916L20.248 10.1318H21.6763L19.0039 13.001L21.9873 17H20.6099L18.2168 13.8198Z" fill="#BCB9B9"/>
<path d="M489.529 442H483.939V441.221L486.893 437.939C487.33 437.443 487.631 437.041 487.795 436.732C487.963 436.42 488.047 436.098 488.047 435.766C488.047 435.32 487.912 434.955 487.643 434.67C487.373 434.385 487.014 434.242 486.564 434.242C486.025 434.242 485.605 434.396 485.305 434.705C485.008 435.01 484.859 435.436 484.859 435.982H483.775C483.775 435.197 484.027 434.562 484.531 434.078C485.039 433.594 485.717 433.352 486.564 433.352C487.357 433.352 487.984 433.561 488.445 433.979C488.906 434.393 489.137 434.945 489.137 435.637C489.137 436.477 488.602 437.477 487.531 438.637L485.246 441.115H489.529V442ZM496.027 438.361C496.027 439.631 495.811 440.574 495.377 441.191C494.943 441.809 494.266 442.117 493.344 442.117C492.434 442.117 491.76 441.816 491.322 441.215C490.885 440.609 490.658 439.707 490.643 438.508V437.061C490.643 435.807 490.859 434.875 491.293 434.266C491.727 433.656 492.406 433.352 493.332 433.352C494.25 433.352 494.926 433.646 495.359 434.236C495.793 434.822 496.016 435.729 496.027 436.955V438.361ZM494.943 436.879C494.943 435.961 494.814 435.293 494.557 434.875C494.299 434.453 493.891 434.242 493.332 434.242C492.777 434.242 492.373 434.451 492.119 434.869C491.865 435.287 491.734 435.93 491.727 436.797V438.531C491.727 439.453 491.859 440.135 492.125 440.576C492.395 441.014 492.801 441.232 493.344 441.232C493.879 441.232 494.275 441.025 494.533 440.611C494.795 440.197 494.932 439.545 494.943 438.654V436.879ZM503.006 442H497.416V441.221L500.369 437.939C500.807 437.443 501.107 437.041 501.271 436.732C501.439 436.42 501.523 436.098 501.523 435.766C501.523 435.32 501.389 434.955 501.119 434.67C500.85 434.385 500.49 434.242 500.041 434.242C499.502 434.242 499.082 434.396 498.781 434.705C498.484 435.01 498.336 435.436 498.336 435.982H497.252C497.252 435.197 497.504 434.562 498.008 434.078C498.516 433.594 499.193 433.352 500.041 433.352C500.834 433.352 501.461 433.561 501.922 433.979C502.383 434.393 502.613 434.945 502.613 435.637C502.613 436.477 502.078 437.477 501.008 438.637L498.723 441.115H503.006V442ZM507.717 442H506.627V434.775L504.441 435.578V434.594L507.547 433.428H507.717V442ZM513.26 438.818H510.4V437.934H513.26V438.818ZM517.771 442H516.682V434.775L514.496 435.578V434.594L517.602 433.428H517.771V442ZM526.297 438.361C526.297 439.631 526.08 440.574 525.646 441.191C525.213 441.809 524.535 442.117 523.613 442.117C522.703 442.117 522.029 441.816 521.592 441.215C521.154 440.609 520.928 439.707 520.912 438.508V437.061C520.912 435.807 521.129 434.875 521.562 434.266C521.996 433.656 522.676 433.352 523.602 433.352C524.52 433.352 525.195 433.646 525.629 434.236C526.062 434.822 526.285 435.729 526.297 436.955V438.361ZM525.213 436.879C525.213 435.961 525.084 435.293 524.826 434.875C524.568 434.453 524.16 434.242 523.602 434.242C523.047 434.242 522.643 434.451 522.389 434.869C522.135 435.287 522.004 435.93 521.996 436.797V438.531C521.996 439.453 522.129 440.135 522.395 440.576C522.664 441.014 523.07 441.232 523.613 441.232C524.148 441.232 524.545 441.025 524.803 440.611C525.064 440.197 525.201 439.545 525.213 438.654V436.879ZM530.053 438.818H527.193V437.934H530.053V438.818ZM534.564 442H533.475V434.775L531.289 435.578V434.594L534.395 433.428H534.564V442ZM543.248 434.078L539.715 442H538.578L542.1 434.359H537.482V433.469H543.248V434.078Z" fill="#BCB9B9"/>
<path d="M416.529 442H410.939V441.221L413.893 437.939C414.33 437.443 414.631 437.041 414.795 436.732C414.963 436.42 415.047 436.098 415.047 435.766C415.047 435.32 414.912 434.955 414.643 434.67C414.373 434.385 414.014 434.242 413.564 434.242C413.025 434.242 412.605 434.396 412.305 434.705C412.008 435.01 411.859 435.436 411.859 435.982H410.775C410.775 435.197 411.027 434.562 411.531 434.078C412.039 433.594 412.717 433.352 413.564 433.352C414.357 433.352 414.984 433.561 415.445 433.979C415.906 434.393 416.137 434.945 416.137 435.637C416.137 436.477 415.602 437.477 414.531 438.637L412.246 441.115H416.529V442ZM423.027 438.361C423.027 439.631 422.811 440.574 422.377 441.191C421.943 441.809 421.266 442.117 420.344 442.117C419.434 442.117 418.76 441.816 418.322 441.215C417.885 440.609 417.658 439.707 417.643 438.508V437.061C417.643 435.807 417.859 434.875 418.293 434.266C418.727 433.656 419.406 433.352 420.332 433.352C421.25 433.352 421.926 433.646 422.359 434.236C422.793 434.822 423.016 435.729 423.027 436.955V438.361ZM421.943 436.879C421.943 435.961 421.814 435.293 421.557 434.875C421.299 434.453 420.891 434.242 420.332 434.242C419.777 434.242 419.373 434.451 419.119 434.869C418.865 435.287 418.734 435.93 418.727 436.797V438.531C418.727 439.453 418.859 440.135 419.125 440.576C419.395 441.014 419.801 441.232 420.344 441.232C420.879 441.232 421.275 441.025 421.533 440.611C421.795 440.197 421.932 439.545 421.943 438.654V436.879ZM430.006 442H424.416V441.221L427.369 437.939C427.807 437.443 428.107 437.041 428.271 436.732C428.439 436.42 428.523 436.098 428.523 435.766C428.523 435.32 428.389 434.955 428.119 434.67C427.85 434.385 427.49 434.242 427.041 434.242C426.502 434.242 426.082 434.396 425.781 434.705C425.484 435.01 425.336 435.436 425.336 435.982H424.252C424.252 435.197 424.504 434.562 425.008 434.078C425.516 433.594 426.193 433.352 427.041 433.352C427.834 433.352 428.461 433.561 428.922 433.979C429.383 434.393 429.613 434.945 429.613 435.637C429.613 436.477 429.078 437.477 428.008 438.637L425.723 441.115H430.006V442ZM434.717 442H433.627V434.775L431.441 435.578V434.594L434.547 433.428H434.717V442ZM440.26 438.818H437.4V437.934H440.26V438.818ZM444.771 442H443.682V434.775L441.496 435.578V434.594L444.602 433.428H444.771V442ZM453.297 438.361C453.297 439.631 453.08 440.574 452.646 441.191C452.213 441.809 451.535 442.117 450.613 442.117C449.703 442.117 449.029 441.816 448.592 441.215C448.154 440.609 447.928 439.707 447.912 438.508V437.061C447.912 435.807 448.129 434.875 448.562 434.266C448.996 433.656 449.676 433.352 450.602 433.352C451.52 433.352 452.195 433.646 452.629 434.236C453.062 434.822 453.285 435.729 453.297 436.955V438.361ZM452.213 436.879C452.213 435.961 452.084 435.293 451.826 434.875C451.568 434.453 451.16 434.242 450.602 434.242C450.047 434.242 449.643 434.451 449.389 434.869C449.135 435.287 449.004 435.93 448.996 436.797V438.531C448.996 439.453 449.129 440.135 449.395 440.576C449.664 441.014 450.07 441.232 450.613 441.232C451.148 441.232 451.545 441.025 451.803 440.611C452.064 440.197 452.201 439.545 452.213 438.654V436.879ZM457.053 438.818H454.193V437.934H457.053V438.818ZM461.564 442H460.475V434.775L458.289 435.578V434.594L461.395 433.428H461.564V442ZM468.994 433.463V434.383H468.795C467.951 434.398 467.279 434.648 466.779 435.133C466.279 435.617 465.99 436.299 465.912 437.178C466.361 436.662 466.975 436.404 467.752 436.404C468.494 436.404 469.086 436.666 469.527 437.189C469.973 437.713 470.195 438.389 470.195 439.217C470.195 440.096 469.955 440.799 469.475 441.326C468.998 441.854 468.357 442.117 467.553 442.117C466.736 442.117 466.074 441.805 465.566 441.18C465.059 440.551 464.805 439.742 464.805 438.754V438.338C464.805 436.768 465.139 435.568 465.807 434.74C466.479 433.908 467.477 433.482 468.801 433.463H468.994ZM467.57 437.307C467.199 437.307 466.857 437.418 466.545 437.641C466.232 437.863 466.016 438.143 465.895 438.479V438.877C465.895 439.58 466.053 440.146 466.369 440.576C466.686 441.006 467.08 441.221 467.553 441.221C468.041 441.221 468.424 441.041 468.701 440.682C468.982 440.322 469.123 439.852 469.123 439.27C469.123 438.684 468.98 438.211 468.695 437.852C468.414 437.488 468.039 437.307 467.57 437.307Z" fill="#BCB9B9"/>
<path d="M343.529 442H337.939V441.221L340.893 437.939C341.33 437.443 341.631 437.041 341.795 436.732C341.963 436.42 342.047 436.098 342.047 435.766C342.047 435.32 341.912 434.955 341.643 434.67C341.373 434.385 341.014 434.242 340.564 434.242C340.025 434.242 339.605 434.396 339.305 434.705C339.008 435.01 338.859 435.436 338.859 435.982H337.775C337.775 435.197 338.027 434.562 338.531 434.078C339.039 433.594 339.717 433.352 340.564 433.352C341.357 433.352 341.984 433.561 342.445 433.979C342.906 434.393 343.137 434.945 343.137 435.637C343.137 436.477 342.602 437.477 341.531 438.637L339.246 441.115H343.529V442ZM350.027 438.361C350.027 439.631 349.811 440.574 349.377 441.191C348.943 441.809 348.266 442.117 347.344 442.117C346.434 442.117 345.76 441.816 345.322 441.215C344.885 440.609 344.658 439.707 344.643 438.508V437.061C344.643 435.807 344.859 434.875 345.293 434.266C345.727 433.656 346.406 433.352 347.332 433.352C348.25 433.352 348.926 433.646 349.359 434.236C349.793 434.822 350.016 435.729 350.027 436.955V438.361ZM348.943 436.879C348.943 435.961 348.814 435.293 348.557 434.875C348.299 434.453 347.891 434.242 347.332 434.242C346.777 434.242 346.373 434.451 346.119 434.869C345.865 435.287 345.734 435.93 345.727 436.797V438.531C345.727 439.453 345.859 440.135 346.125 440.576C346.395 441.014 346.801 441.232 347.344 441.232C347.879 441.232 348.275 441.025 348.533 440.611C348.795 440.197 348.932 439.545 348.943 438.654V436.879ZM357.006 442H351.416V441.221L354.369 437.939C354.807 437.443 355.107 437.041 355.271 436.732C355.439 436.42 355.523 436.098 355.523 435.766C355.523 435.32 355.389 434.955 355.119 434.67C354.85 434.385 354.49 434.242 354.041 434.242C353.502 434.242 353.082 434.396 352.781 434.705C352.484 435.01 352.336 435.436 352.336 435.982H351.252C351.252 435.197 351.504 434.562 352.008 434.078C352.516 433.594 353.193 433.352 354.041 433.352C354.834 433.352 355.461 433.561 355.922 433.979C356.383 434.393 356.613 434.945 356.613 435.637C356.613 436.477 356.078 437.477 355.008 438.637L352.723 441.115H357.006V442ZM361.717 442H360.627V434.775L358.441 435.578V434.594L361.547 433.428H361.717V442ZM367.26 438.818H364.4V437.934H367.26V438.818ZM371.771 442H370.682V434.775L368.496 435.578V434.594L371.602 433.428H371.771V442ZM380.297 438.361C380.297 439.631 380.08 440.574 379.646 441.191C379.213 441.809 378.535 442.117 377.613 442.117C376.703 442.117 376.029 441.816 375.592 441.215C375.154 440.609 374.928 439.707 374.912 438.508V437.061C374.912 435.807 375.129 434.875 375.562 434.266C375.996 433.656 376.676 433.352 377.602 433.352C378.52 433.352 379.195 433.646 379.629 434.236C380.062 434.822 380.285 435.729 380.297 436.955V438.361ZM379.213 436.879C379.213 435.961 379.084 435.293 378.826 434.875C378.568 434.453 378.16 434.242 377.602 434.242C377.047 434.242 376.643 434.451 376.389 434.869C376.135 435.287 376.004 435.93 375.996 436.797V438.531C375.996 439.453 376.129 440.135 376.395 440.576C376.664 441.014 377.07 441.232 377.613 441.232C378.148 441.232 378.545 441.025 378.803 440.611C379.064 440.197 379.201 439.545 379.213 438.654V436.879ZM384.053 438.818H381.193V437.934H384.053V438.818ZM388.564 442H387.475V434.775L385.289 435.578V434.594L388.395 433.428H388.564V442ZM392.238 437.723L392.672 433.469H397.043V434.471H393.592L393.334 436.797C393.752 436.551 394.227 436.428 394.758 436.428C395.535 436.428 396.152 436.686 396.609 437.201C397.066 437.713 397.295 438.406 397.295 439.281C397.295 440.16 397.057 440.854 396.58 441.361C396.107 441.865 395.445 442.117 394.594 442.117C393.84 442.117 393.225 441.908 392.748 441.49C392.271 441.072 392 440.494 391.934 439.756H392.959C393.025 440.244 393.199 440.613 393.48 440.863C393.762 441.109 394.133 441.232 394.594 441.232C395.098 441.232 395.492 441.061 395.777 440.717C396.066 440.373 396.211 439.898 396.211 439.293C396.211 438.723 396.055 438.266 395.742 437.922C395.434 437.574 395.021 437.4 394.506 437.4C394.033 437.4 393.662 437.504 393.393 437.711L393.105 437.945L392.238 437.723Z" fill="#BCB9B9"/>
<path d="M270.529 442H264.939V441.221L267.893 437.939C268.33 437.443 268.631 437.041 268.795 436.732C268.963 436.42 269.047 436.098 269.047 435.766C269.047 435.32 268.912 434.955 268.643 434.67C268.373 434.385 268.014 434.242 267.564 434.242C267.025 434.242 266.605 434.396 266.305 434.705C266.008 435.01 265.859 435.436 265.859 435.982H264.775C264.775 435.197 265.027 434.562 265.531 434.078C266.039 433.594 266.717 433.352 267.564 433.352C268.357 433.352 268.984 433.561 269.445 433.979C269.906 434.393 270.137 434.945 270.137 435.637C270.137 436.477 269.602 437.477 268.531 438.637L266.246 441.115H270.529V442ZM277.027 438.361C277.027 439.631 276.811 440.574 276.377 441.191C275.943 441.809 275.266 442.117 274.344 442.117C273.434 442.117 272.76 441.816 272.322 441.215C271.885 440.609 271.658 439.707 271.643 438.508V437.061C271.643 435.807 271.859 434.875 272.293 434.266C272.727 433.656 273.406 433.352 274.332 433.352C275.25 433.352 275.926 433.646 276.359 434.236C276.793 434.822 277.016 435.729 277.027 436.955V438.361ZM275.943 436.879C275.943 435.961 275.814 435.293 275.557 434.875C275.299 434.453 274.891 434.242 274.332 434.242C273.777 434.242 273.373 434.451 273.119 434.869C272.865 435.287 272.734 435.93 272.727 436.797V438.531C272.727 439.453 272.859 440.135 273.125 440.576C273.395 441.014 273.801 441.232 274.344 441.232C274.879 441.232 275.275 441.025 275.533 440.611C275.795 440.197 275.932 439.545 275.943 438.654V436.879ZM284.006 442H278.416V441.221L281.369 437.939C281.807 437.443 282.107 437.041 282.271 436.732C282.439 436.42 282.523 436.098 282.523 435.766C282.523 435.32 282.389 434.955 282.119 434.67C281.85 434.385 281.49 434.242 281.041 434.242C280.502 434.242 280.082 434.396 279.781 434.705C279.484 435.01 279.336 435.436 279.336 435.982H278.252C278.252 435.197 278.504 434.562 279.008 434.078C279.516 433.594 280.193 433.352 281.041 433.352C281.834 433.352 282.461 433.561 282.922 433.979C283.383 434.393 283.613 434.945 283.613 435.637C283.613 436.477 283.078 437.477 282.008 438.637L279.723 441.115H284.006V442ZM288.717 442H287.627V434.775L285.441 435.578V434.594L288.547 433.428H288.717V442ZM294.26 438.818H291.4V437.934H294.26V438.818ZM298.771 442H297.682V434.775L295.496 435.578V434.594L298.602 433.428H298.771V442ZM307.297 438.361C307.297 439.631 307.08 440.574 306.646 441.191C306.213 441.809 305.535 442.117 304.613 442.117C303.703 442.117 303.029 441.816 302.592 441.215C302.154 440.609 301.928 439.707 301.912 438.508V437.061C301.912 435.807 302.129 434.875 302.562 434.266C302.996 433.656 303.676 433.352 304.602 433.352C305.52 433.352 306.195 433.646 306.629 434.236C307.062 434.822 307.285 435.729 307.297 436.955V438.361ZM306.213 436.879C306.213 435.961 306.084 435.293 305.826 434.875C305.568 434.453 305.16 434.242 304.602 434.242C304.047 434.242 303.643 434.451 303.389 434.869C303.135 435.287 303.004 435.93 302.996 436.797V438.531C302.996 439.453 303.129 440.135 303.395 440.576C303.664 441.014 304.07 441.232 304.613 441.232C305.148 441.232 305.545 441.025 305.803 440.611C306.064 440.197 306.201 439.545 306.213 438.654V436.879ZM311.053 438.818H308.193V437.934H311.053V438.818ZM315.564 442H314.475V434.775L312.289 435.578V434.594L315.395 433.428H315.564V442ZM323.316 439.135H324.5V440.02H323.316V442H322.227V440.02H318.342V439.381L322.162 433.469H323.316V439.135ZM319.572 439.135H322.227V434.951L322.098 435.186L319.572 439.135Z" fill="#BCB9B9"/>
<path d="M197.529 442H191.939V441.221L194.893 437.939C195.33 437.443 195.631 437.041 195.795 436.732C195.963 436.42 196.047 436.098 196.047 435.766C196.047 435.32 195.912 434.955 195.643 434.67C195.373 434.385 195.014 434.242 194.564 434.242C194.025 434.242 193.605 434.396 193.305 434.705C193.008 435.01 192.859 435.436 192.859 435.982H191.775C191.775 435.197 192.027 434.562 192.531 434.078C193.039 433.594 193.717 433.352 194.564 433.352C195.357 433.352 195.984 433.561 196.445 433.979C196.906 434.393 197.137 434.945 197.137 435.637C197.137 436.477 196.602 437.477 195.531 438.637L193.246 441.115H197.529V442ZM204.027 438.361C204.027 439.631 203.811 440.574 203.377 441.191C202.943 441.809 202.266 442.117 201.344 442.117C200.434 442.117 199.76 441.816 199.322 441.215C198.885 440.609 198.658 439.707 198.643 438.508V437.061C198.643 435.807 198.859 434.875 199.293 434.266C199.727 433.656 200.406 433.352 201.332 433.352C202.25 433.352 202.926 433.646 203.359 434.236C203.793 434.822 204.016 435.729 204.027 436.955V438.361ZM202.943 436.879C202.943 435.961 202.814 435.293 202.557 434.875C202.299 434.453 201.891 434.242 201.332 434.242C200.777 434.242 200.373 434.451 200.119 434.869C199.865 435.287 199.734 435.93 199.727 436.797V438.531C199.727 439.453 199.859 440.135 200.125 440.576C200.395 441.014 200.801 441.232 201.344 441.232C201.879 441.232 202.275 441.025 202.533 440.611C202.795 440.197 202.932 439.545 202.943 438.654V436.879ZM211.006 442H205.416V441.221L208.369 437.939C208.807 437.443 209.107 437.041 209.271 436.732C209.439 436.42 209.523 436.098 209.523 435.766C209.523 435.32 209.389 434.955 209.119 434.67C208.85 434.385 208.49 434.242 208.041 434.242C207.502 434.242 207.082 434.396 206.781 434.705C206.484 435.01 206.336 435.436 206.336 435.982H205.252C205.252 435.197 205.504 434.562 206.008 434.078C206.516 433.594 207.193 433.352 208.041 433.352C208.834 433.352 209.461 433.561 209.922 433.979C210.383 434.393 210.613 434.945 210.613 435.637C210.613 436.477 210.078 437.477 209.008 438.637L206.723 441.115H211.006V442ZM215.717 442H214.627V434.775L212.441 435.578V434.594L215.547 433.428H215.717V442ZM221.26 438.818H218.4V437.934H221.26V438.818ZM225.771 442H224.682V434.775L222.496 435.578V434.594L225.602 433.428H225.771V442ZM234.297 438.361C234.297 439.631 234.08 440.574 233.646 441.191C233.213 441.809 232.535 442.117 231.613 442.117C230.703 442.117 230.029 441.816 229.592 441.215C229.154 440.609 228.928 439.707 228.912 438.508V437.061C228.912 435.807 229.129 434.875 229.562 434.266C229.996 433.656 230.676 433.352 231.602 433.352C232.52 433.352 233.195 433.646 233.629 434.236C234.062 434.822 234.285 435.729 234.297 436.955V438.361ZM233.213 436.879C233.213 435.961 233.084 435.293 232.826 434.875C232.568 434.453 232.16 434.242 231.602 434.242C231.047 434.242 230.643 434.451 230.389 434.869C230.135 435.287 230.004 435.93 229.996 436.797V438.531C229.996 439.453 230.129 440.135 230.395 440.576C230.664 441.014 231.07 441.232 231.613 441.232C232.148 441.232 232.545 441.025 232.803 440.611C233.064 440.197 233.201 439.545 233.213 438.654V436.879ZM238.053 438.818H235.193V437.934H238.053V438.818ZM242.564 442H241.475V434.775L239.289 435.578V434.594L242.395 433.428H242.564V442ZM247.316 437.207H248.131C248.643 437.199 249.045 437.064 249.338 436.803C249.631 436.541 249.777 436.188 249.777 435.742C249.777 434.742 249.279 434.242 248.283 434.242C247.814 434.242 247.439 434.377 247.158 434.646C246.881 434.912 246.742 435.266 246.742 435.707H245.658C245.658 435.031 245.904 434.471 246.396 434.025C246.893 433.576 247.521 433.352 248.283 433.352C249.088 433.352 249.719 433.564 250.176 433.99C250.633 434.416 250.861 435.008 250.861 435.766C250.861 436.137 250.74 436.496 250.498 436.844C250.26 437.191 249.934 437.451 249.52 437.623C249.988 437.771 250.35 438.018 250.604 438.361C250.861 438.705 250.99 439.125 250.99 439.621C250.99 440.387 250.74 440.994 250.24 441.443C249.74 441.893 249.09 442.117 248.289 442.117C247.488 442.117 246.836 441.9 246.332 441.467C245.832 441.033 245.582 440.461 245.582 439.75H246.672C246.672 440.199 246.818 440.559 247.111 440.828C247.404 441.098 247.797 441.232 248.289 441.232C248.812 441.232 249.213 441.096 249.49 440.822C249.768 440.549 249.906 440.156 249.906 439.645C249.906 439.148 249.754 438.768 249.449 438.502C249.145 438.236 248.705 438.1 248.131 438.092H247.316V437.207Z" fill="#BCB9B9"/>
<path d="M124.529 442H118.939V441.221L121.893 437.939C122.33 437.443 122.631 437.041 122.795 436.732C122.963 436.42 123.047 436.098 123.047 435.766C123.047 435.32 122.912 434.955 122.643 434.67C122.373 434.385 122.014 434.242 121.564 434.242C121.025 434.242 120.605 434.396 120.305 434.705C120.008 435.01 119.859 435.436 119.859 435.982H118.775C118.775 435.197 119.027 434.562 119.531 434.078C120.039 433.594 120.717 433.352 121.564 433.352C122.357 433.352 122.984 433.561 123.445 433.979C123.906 434.393 124.137 434.945 124.137 435.637C124.137 436.477 123.602 437.477 122.531 438.637L120.246 441.115H124.529V442ZM131.027 438.361C131.027 439.631 130.811 440.574 130.377 441.191C129.943 441.809 129.266 442.117 128.344 442.117C127.434 442.117 126.76 441.816 126.322 441.215C125.885 440.609 125.658 439.707 125.643 438.508V437.061C125.643 435.807 125.859 434.875 126.293 434.266C126.727 433.656 127.406 433.352 128.332 433.352C129.25 433.352 129.926 433.646 130.359 434.236C130.793 434.822 131.016 435.729 131.027 436.955V438.361ZM129.943 436.879C129.943 435.961 129.814 435.293 129.557 434.875C129.299 434.453 128.891 434.242 128.332 434.242C127.777 434.242 127.373 434.451 127.119 434.869C126.865 435.287 126.734 435.93 126.727 436.797V438.531C126.727 439.453 126.859 440.135 127.125 440.576C127.395 441.014 127.801 441.232 128.344 441.232C128.879 441.232 129.275 441.025 129.533 440.611C129.795 440.197 129.932 439.545 129.943 438.654V436.879ZM138.006 442H132.416V441.221L135.369 437.939C135.807 437.443 136.107 437.041 136.271 436.732C136.439 436.42 136.523 436.098 136.523 435.766C136.523 435.32 136.389 434.955 136.119 434.67C135.85 434.385 135.49 434.242 135.041 434.242C134.502 434.242 134.082 434.396 133.781 434.705C133.484 435.01 133.336 435.436 133.336 435.982H132.252C132.252 435.197 132.504 434.562 133.008 434.078C133.516 433.594 134.193 433.352 135.041 433.352C135.834 433.352 136.461 433.561 136.922 433.979C137.383 434.393 137.613 434.945 137.613 435.637C137.613 436.477 137.078 437.477 136.008 438.637L133.723 441.115H138.006V442ZM142.717 442H141.627V434.775L139.441 435.578V434.594L142.547 433.428H142.717V442ZM148.26 438.818H145.4V437.934H148.26V438.818ZM152.771 442H151.682V434.775L149.496 435.578V434.594L152.602 433.428H152.771V442ZM161.297 438.361C161.297 439.631 161.08 440.574 160.646 441.191C160.213 441.809 159.535 442.117 158.613 442.117C157.703 442.117 157.029 441.816 156.592 441.215C156.154 440.609 155.928 439.707 155.912 438.508V437.061C155.912 435.807 156.129 434.875 156.562 434.266C156.996 433.656 157.676 433.352 158.602 433.352C159.52 433.352 160.195 433.646 160.629 434.236C161.062 434.822 161.285 435.729 161.297 436.955V438.361ZM160.213 436.879C160.213 435.961 160.084 435.293 159.826 434.875C159.568 434.453 159.16 434.242 158.602 434.242C158.047 434.242 157.643 434.451 157.389 434.869C157.135 435.287 157.004 435.93 156.996 436.797V438.531C156.996 439.453 157.129 440.135 157.395 440.576C157.664 441.014 158.07 441.232 158.613 441.232C159.148 441.232 159.545 441.025 159.803 440.611C160.064 440.197 160.201 439.545 160.213 438.654V436.879ZM165.053 438.818H162.193V437.934H165.053V438.818ZM169.564 442H168.475V434.775L166.289 435.578V434.594L169.395 433.428H169.564V442ZM178.33 442H172.74V441.221L175.693 437.939C176.131 437.443 176.432 437.041 176.596 436.732C176.764 436.42 176.848 436.098 176.848 435.766C176.848 435.32 176.713 434.955 176.443 434.67C176.174 434.385 175.814 434.242 175.365 434.242C174.826 434.242 174.406 434.396 174.105 434.705C173.809 435.01 173.66 435.436 173.66 435.982H172.576C172.576 435.197 172.828 434.562 173.332 434.078C173.84 433.594 174.518 433.352 175.365 433.352C176.158 433.352 176.785 433.561 177.246 433.979C177.707 434.393 177.938 434.945 177.938 435.637C177.938 436.477 177.402 437.477 176.332 438.637L174.047 441.115H178.33V442Z" fill="#BCB9B9"/>
<path d="M51.5293 442H45.9395V441.221L48.8926 437.939C49.3301 437.443 49.6309 437.041 49.7949 436.732C49.9629 436.42 50.0469 436.098 50.0469 435.766C50.0469 435.32 49.9121 434.955 49.6426 434.67C49.373 434.385 49.0137 434.242 48.5645 434.242C48.0254 434.242 47.6055 434.396 47.3047 434.705C47.0078 435.01 46.8594 435.436 46.8594 435.982H45.7754C45.7754 435.197 46.0273 434.562 46.5312 434.078C47.0391 433.594 47.7168 433.352 48.5645 433.352C49.3574 433.352 49.9844 433.561 50.4453 433.979C50.9062 434.393 51.1367 434.945 51.1367 435.637C51.1367 436.477 50.6016 437.477 49.5312 438.637L47.2461 441.115H51.5293V442ZM58.0273 438.361C58.0273 439.631 57.8105 440.574 57.377 441.191C56.9434 441.809 56.2656 442.117 55.3438 442.117C54.4336 442.117 53.7598 441.816 53.3223 441.215C52.8848 440.609 52.6582 439.707 52.6426 438.508V437.061C52.6426 435.807 52.8594 434.875 53.293 434.266C53.7266 433.656 54.4062 433.352 55.332 433.352C56.25 433.352 56.9258 433.646 57.3594 434.236C57.793 434.822 58.0156 435.729 58.0273 436.955V438.361ZM56.9434 436.879C56.9434 435.961 56.8145 435.293 56.5566 434.875C56.2988 434.453 55.8906 434.242 55.332 434.242C54.7773 434.242 54.373 434.451 54.1191 434.869C53.8652 435.287 53.7344 435.93 53.7266 436.797V438.531C53.7266 439.453 53.8594 440.135 54.125 440.576C54.3945 441.014 54.8008 441.232 55.3438 441.232C55.8789 441.232 56.2754 441.025 56.5332 440.611C56.7949 440.197 56.9316 439.545 56.9434 438.654V436.879ZM65.0059 442H59.416V441.221L62.3691 437.939C62.8066 437.443 63.1074 437.041 63.2715 436.732C63.4395 436.42 63.5234 436.098 63.5234 435.766C63.5234 435.32 63.3887 434.955 63.1191 434.67C62.8496 434.385 62.4902 434.242 62.041 434.242C61.502 434.242 61.082 434.396 60.7812 434.705C60.4844 435.01 60.3359 435.436 60.3359 435.982H59.252C59.252 435.197 59.5039 434.562 60.0078 434.078C60.5156 433.594 61.1934 433.352 62.041 433.352C62.834 433.352 63.4609 433.561 63.9219 433.979C64.3828 434.393 64.6133 434.945 64.6133 435.637C64.6133 436.477 64.0781 437.477 63.0078 438.637L60.7227 441.115H65.0059V442ZM69.7168 442H68.627V434.775L66.4414 435.578V434.594L69.5469 433.428H69.7168V442ZM75.2598 438.818H72.4004V437.934H75.2598V438.818ZM79.7715 442H78.6816V434.775L76.4961 435.578V434.594L79.6016 433.428H79.7715V442ZM88.2969 438.361C88.2969 439.631 88.0801 440.574 87.6465 441.191C87.2129 441.809 86.5352 442.117 85.6133 442.117C84.7031 442.117 84.0293 441.816 83.5918 441.215C83.1543 440.609 82.9277 439.707 82.9121 438.508V437.061C82.9121 435.807 83.1289 434.875 83.5625 434.266C83.9961 433.656 84.6758 433.352 85.6016 433.352C86.5195 433.352 87.1953 433.646 87.6289 434.236C88.0625 434.822 88.2852 435.729 88.2969 436.955V438.361ZM87.2129 436.879C87.2129 435.961 87.084 435.293 86.8262 434.875C86.5684 434.453 86.1602 434.242 85.6016 434.242C85.0469 434.242 84.6426 434.451 84.3887 434.869C84.1348 435.287 84.0039 435.93 83.9961 436.797V438.531C83.9961 439.453 84.1289 440.135 84.3945 440.576C84.6641 441.014 85.0703 441.232 85.6133 441.232C86.1484 441.232 86.5449 441.025 86.8027 440.611C87.0645 440.197 87.2012 439.545 87.2129 438.654V436.879ZM92.0527 438.818H89.1934V437.934H92.0527V438.818ZM96.5645 442H95.4746V434.775L93.2891 435.578V434.594L96.3945 433.428H96.5645V442ZM103.303 442H102.213V434.775L100.027 435.578V434.594L103.133 433.428H103.303V442Z" fill="#BCB9B9"/>
<line x1="35.5" y1="8" x2="35.5" y2="412" stroke="#D9D9DB" stroke-dasharray="5 5"/>
<line x1="108.5" y1="8" x2="108.5" y2="412" stroke="#D9D9DB" stroke-dasharray="5 5"/>
<line x1="181.5" y1="8" x2="181.5" y2="412" stroke="#D9D9DB" stroke-dasharray="5 5"/>
<line x1="254.5" y1="8" x2="254.5" y2="412" stroke="#D9D9DB" stroke-dasharray="5 5"/>
<line x1="327.5" y1="8" x2="327.5" y2="412" stroke="#D9D9DB" stroke-dasharray="5 5"/>
<line x1="400.5" y1="8" x2="400.5" y2="412" stroke="#D9D9DB" stroke-dasharray="5 5"/>
<line x1="473.5" y1="8" x2="473.5" y2="412" stroke="#D9D9DB" stroke-dasharray="5 5"/>
<line x1="548.5" y1="8" x2="548.5" y2="412" stroke="#D9D9DB" stroke-dasharray="5 5"/>
<path d="M110.863 245H36V411H549V136L479.897 185.779H406.954L334.011 249.521L260.108 210.062L184.286 285.993L110.863 245Z" fill="url(#paint0_linear_441_5369)"/>
<path d="M36 244.5H110.863L184.286 285.481L260.108 210.044L334.011 249.494L406.954 185.767H479.897L549 136" stroke="#F1991D" stroke-width="3" stroke-linecap="round"/>
<circle cx="549" cy="136" r="7.5" fill="white" stroke="#F1991D"/>
<circle cx="549" cy="136" r="3" fill="#F1991D"/>
<circle cx="311" cy="413" r="8" fill="#F1991D" fill-opacity="0.26"/>
<circle cx="311" cy="413" r="3" fill="#F1991D"/>
<line x1="310.5" y1="394" x2="310.5" y2="8" stroke="#F1991D" stroke-dasharray="2 2"/>
<g filter="url(#filter0_d_441_5369)">
<rect x="240" y="263" width="142" height="76" rx="20" fill="white"/>
</g>
<path d="M265.207 311.723L265.641 307.469H270.012V308.471H266.561L266.303 310.797C266.721 310.551 267.195 310.428 267.727 310.428C268.504 310.428 269.121 310.686 269.578 311.201C270.035 311.713 270.264 312.406 270.264 313.281C270.264 314.16 270.025 314.854 269.549 315.361C269.076 315.865 268.414 316.117 267.562 316.117C266.809 316.117 266.193 315.908 265.717 315.49C265.24 315.072 264.969 314.494 264.902 313.756H265.928C265.994 314.244 266.168 314.613 266.449 314.863C266.73 315.109 267.102 315.232 267.562 315.232C268.066 315.232 268.461 315.061 268.746 314.717C269.035 314.373 269.18 313.898 269.18 313.293C269.18 312.723 269.023 312.266 268.711 311.922C268.402 311.574 267.99 311.4 267.475 311.4C267.002 311.4 266.631 311.504 266.361 311.711L266.074 311.945L265.207 311.723ZM271.523 317.699L270.908 317.277C271.275 316.766 271.467 316.238 271.482 315.695V314.717H272.543V315.566C272.543 315.961 272.445 316.355 272.25 316.75C272.059 317.145 271.816 317.461 271.523 317.699ZM275.379 311.207H276.193C276.705 311.199 277.107 311.064 277.4 310.803C277.693 310.541 277.84 310.188 277.84 309.742C277.84 308.742 277.342 308.242 276.346 308.242C275.877 308.242 275.502 308.377 275.221 308.646C274.943 308.912 274.805 309.266 274.805 309.707H273.721C273.721 309.031 273.967 308.471 274.459 308.025C274.955 307.576 275.584 307.352 276.346 307.352C277.15 307.352 277.781 307.564 278.238 307.99C278.695 308.416 278.924 309.008 278.924 309.766C278.924 310.137 278.803 310.496 278.561 310.844C278.322 311.191 277.996 311.451 277.582 311.623C278.051 311.771 278.412 312.018 278.666 312.361C278.924 312.705 279.053 313.125 279.053 313.621C279.053 314.387 278.803 314.994 278.303 315.443C277.803 315.893 277.152 316.117 276.352 316.117C275.551 316.117 274.898 315.9 274.395 315.467C273.895 315.033 273.645 314.461 273.645 313.75H274.734C274.734 314.199 274.881 314.559 275.174 314.828C275.467 315.098 275.859 315.232 276.352 315.232C276.875 315.232 277.275 315.096 277.553 314.822C277.83 314.549 277.969 314.156 277.969 313.645C277.969 313.148 277.816 312.768 277.512 312.502C277.207 312.236 276.768 312.1 276.193 312.092H275.379V311.207ZM285.117 313.135H286.301V314.02H285.117V316H284.027V314.02H280.143V313.381L283.963 307.469H285.117V313.135ZM281.373 313.135H284.027V308.951L283.898 309.186L281.373 313.135ZM287.777 311.723L288.211 307.469H292.582V308.471H289.131L288.873 310.797C289.291 310.551 289.766 310.428 290.297 310.428C291.074 310.428 291.691 310.686 292.148 311.201C292.605 311.713 292.834 312.406 292.834 313.281C292.834 314.16 292.596 314.854 292.119 315.361C291.646 315.865 290.984 316.117 290.133 316.117C289.379 316.117 288.764 315.908 288.287 315.49C287.811 315.072 287.539 314.494 287.473 313.756H288.498C288.564 314.244 288.738 314.613 289.02 314.863C289.301 315.109 289.672 315.232 290.133 315.232C290.637 315.232 291.031 315.061 291.316 314.717C291.605 314.373 291.75 313.898 291.75 313.293C291.75 312.723 291.594 312.266 291.281 311.922C290.973 311.574 290.561 311.4 290.045 311.4C289.572 311.4 289.201 311.504 288.932 311.711L288.645 311.945L287.777 311.723ZM294.094 317.699L293.479 317.277C293.846 316.766 294.037 316.238 294.053 315.695V314.717H295.113V315.566C295.113 315.961 295.016 316.355 294.82 316.75C294.629 317.145 294.387 317.461 294.094 317.699ZM299.936 316H298.846V308.775L296.66 309.578V308.594L299.766 307.428H299.936V316ZM308.701 316H303.111V315.221L306.064 311.939C306.502 311.443 306.803 311.041 306.967 310.732C307.135 310.42 307.219 310.098 307.219 309.766C307.219 309.32 307.084 308.955 306.814 308.67C306.545 308.385 306.186 308.242 305.736 308.242C305.197 308.242 304.777 308.396 304.477 308.705C304.18 309.01 304.031 309.436 304.031 309.982H302.947C302.947 309.197 303.199 308.562 303.703 308.078C304.211 307.594 304.889 307.352 305.736 307.352C306.529 307.352 307.156 307.561 307.617 307.979C308.078 308.393 308.309 308.945 308.309 309.637C308.309 310.477 307.773 311.477 306.703 312.637L304.418 315.115H308.701V316ZM311.426 311.207H312.24C312.752 311.199 313.154 311.064 313.447 310.803C313.74 310.541 313.887 310.188 313.887 309.742C313.887 308.742 313.389 308.242 312.393 308.242C311.924 308.242 311.549 308.377 311.268 308.646C310.99 308.912 310.852 309.266 310.852 309.707H309.768C309.768 309.031 310.014 308.471 310.506 308.025C311.002 307.576 311.631 307.352 312.393 307.352C313.197 307.352 313.828 307.564 314.285 307.99C314.742 308.416 314.971 309.008 314.971 309.766C314.971 310.137 314.85 310.496 314.607 310.844C314.369 311.191 314.043 311.451 313.629 311.623C314.098 311.771 314.459 312.018 314.713 312.361C314.971 312.705 315.1 313.125 315.1 313.621C315.1 314.387 314.85 314.994 314.35 315.443C313.85 315.893 313.199 316.117 312.398 316.117C311.598 316.117 310.945 315.9 310.441 315.467C309.941 315.033 309.691 314.461 309.691 313.75H310.781C310.781 314.199 310.928 314.559 311.221 314.828C311.514 315.098 311.906 315.232 312.398 315.232C312.922 315.232 313.322 315.096 313.6 314.822C313.877 314.549 314.016 314.156 314.016 313.645C314.016 313.148 313.863 312.768 313.559 312.502C313.254 312.236 312.814 312.1 312.24 312.092H311.426V311.207Z" fill="#767676"/>
<path d="M322.354 306.646C322.158 306.451 321.842 306.451 321.646 306.646L318.464 309.828C318.269 310.024 318.269 310.34 318.464 310.536C318.66 310.731 318.976 310.731 319.172 310.536L322 307.707L324.828 310.536C325.024 310.731 325.34 310.731 325.536 310.536C325.731 310.34 325.731 310.024 325.536 309.828L322.354 306.646ZM322.5 316L322.5 307L321.5 307L321.5 316L322.5 316Z" fill="url(#paint1_linear_441_5369)"/>
<path d="M268.196 290.988L270.544 283.758H272.309L268.983 293H267.428L264.114 283.758H265.873L268.196 290.988ZM277.019 293C276.951 292.869 276.892 292.655 276.841 292.359C276.35 292.871 275.75 293.127 275.039 293.127C274.349 293.127 273.786 292.93 273.35 292.537C272.914 292.143 272.696 291.656 272.696 291.077C272.696 290.345 272.967 289.784 273.509 289.395C274.055 289.001 274.833 288.804 275.845 288.804H276.791V288.354C276.791 287.998 276.691 287.715 276.492 287.503C276.293 287.287 275.991 287.179 275.584 287.179C275.233 287.179 274.945 287.268 274.721 287.446C274.497 287.619 274.385 287.841 274.385 288.112H272.842C272.842 287.736 272.967 287.384 273.217 287.059C273.466 286.729 273.805 286.47 274.232 286.284C274.664 286.098 275.144 286.005 275.673 286.005C276.477 286.005 277.118 286.208 277.597 286.614C278.075 287.016 278.32 287.583 278.333 288.315V291.413C278.333 292.031 278.42 292.524 278.593 292.892V293H277.019ZM275.324 291.889C275.629 291.889 275.915 291.815 276.181 291.667C276.452 291.519 276.655 291.32 276.791 291.07V289.775H275.959C275.388 289.775 274.958 289.875 274.67 290.074C274.383 290.273 274.239 290.554 274.239 290.918C274.239 291.214 274.336 291.451 274.531 291.629C274.73 291.802 274.994 291.889 275.324 291.889ZM281.589 293H280.047V283.25H281.589V293ZM287.436 292.327C286.983 292.86 286.34 293.127 285.506 293.127C284.761 293.127 284.196 292.909 283.811 292.473C283.43 292.037 283.24 291.407 283.24 290.582V286.132H284.782V290.562C284.782 291.434 285.144 291.87 285.868 291.87C286.617 291.87 287.122 291.601 287.385 291.064V286.132H288.927V293H287.474L287.436 292.327ZM293.523 293.127C292.545 293.127 291.752 292.82 291.143 292.207C290.537 291.589 290.235 290.768 290.235 289.744V289.553C290.235 288.868 290.366 288.256 290.628 287.719C290.895 287.177 291.267 286.756 291.746 286.456C292.224 286.155 292.757 286.005 293.345 286.005C294.28 286.005 295.002 286.303 295.51 286.9C296.022 287.497 296.278 288.341 296.278 289.433V290.055H291.79C291.837 290.622 292.025 291.07 292.355 291.4C292.689 291.73 293.108 291.896 293.612 291.896C294.319 291.896 294.894 291.61 295.338 291.039L296.17 291.832C295.895 292.243 295.527 292.562 295.065 292.791C294.608 293.015 294.094 293.127 293.523 293.127ZM293.339 287.243C292.916 287.243 292.573 287.391 292.311 287.687C292.052 287.983 291.887 288.396 291.815 288.925H294.754V288.811C294.721 288.294 294.583 287.905 294.342 287.643C294.101 287.376 293.766 287.243 293.339 287.243Z" fill="black"/>
<defs>
<filter id="filter0_d_441_5369" x="225" y="248" width="182" height="116" filterUnits="userSpaceOnUse" color-interpolation-filters="sRGB">
<feFlood flood-opacity="0" result="BackgroundImageFix"/>
<feColorMatrix in="SourceAlpha" type="matrix" values="0 0 0 0 0 0 0 0 0 0 0 0 0 0 0 0 0 0 127 0" result="hardAlpha"/>
<feOffset dx="5" dy="5"/>
<feGaussianBlur stdDeviation="10"/>
<feComposite in2="hardAlpha" operator="out"/>
<feColorMatrix type="matrix" values="0 0 0 0 0.988235 0 0 0 0 0.901961 0 0 0 0 0.780392 0 0 0 1 0"/>
<feBlend mode="normal" in2="BackgroundImageFix" result="effect1_dropShadow_441_5369"/>
<feBlend mode="normal" in="SourceGraphic" in2="effect1_dropShadow_441_5369" result="shape"/>
</filter>
<linearGradient id="paint0_linear_441_5369" x1="292.024" y1="227.667" x2="292.022" y2="411" gradientUnits="userSpaceOnUse">
<stop stop-color="#EF941C" stop-opacity="0.24"/>
<stop offset="1" stop-color="#EF941C" stop-opacity="0"/>
</linearGradient>
<linearGradient id="paint1_linear_441_5369" x1="322" y1="306.571" x2="322" y2="315.571" gradientUnits="userSpaceOnUse">
<stop stop-color="#18AA00"/>
<stop offset="1" stop-color="#18AA00" stop-opacity="0"/>
</linearGradient>
</defs>
</svg>
