<svg width="365" height="469" viewBox="0 0 365 469" fill="none" xmlns="http://www.w3.org/2000/svg">
<path d="M3.55957 12H2.65137V5.97949L0.830078 6.64844V5.82812L3.41797 4.85645H3.55957V12ZM10.6641 8.96777C10.6641 10.0257 10.4834 10.8118 10.1221 11.3262C9.76074 11.8405 9.19596 12.0977 8.42773 12.0977C7.66927 12.0977 7.10775 11.847 6.74316 11.3457C6.37858 10.8411 6.18978 10.0892 6.17676 9.08984V7.88379C6.17676 6.83887 6.35742 6.0625 6.71875 5.55469C7.08008 5.04688 7.64648 4.79297 8.41797 4.79297C9.18294 4.79297 9.74609 5.03874 10.1074 5.53027C10.4688 6.01855 10.6543 6.77376 10.6641 7.7959V8.96777ZM9.76074 7.73242C9.76074 6.96745 9.65332 6.41081 9.43848 6.0625C9.22363 5.71094 8.88346 5.53516 8.41797 5.53516C7.95573 5.53516 7.61882 5.70931 7.40723 6.05762C7.19564 6.40592 7.08659 6.94141 7.08008 7.66406V9.10938C7.08008 9.8776 7.19076 10.4456 7.41211 10.8135C7.63672 11.1781 7.97526 11.3604 8.42773 11.3604C8.8737 11.3604 9.2041 11.1878 9.41895 10.8428C9.63704 10.4977 9.75098 9.9541 9.76074 9.21191V7.73242ZM16.2793 8.96777C16.2793 10.0257 16.0986 10.8118 15.7373 11.3262C15.376 11.8405 14.8112 12.0977 14.043 12.0977C13.2845 12.0977 12.723 11.847 12.3584 11.3457C11.9938 10.8411 11.805 10.0892 11.792 9.08984V7.88379C11.792 6.83887 11.9727 6.0625 12.334 5.55469C12.6953 5.04688 13.2617 4.79297 14.0332 4.79297C14.7982 4.79297 15.3613 5.03874 15.7227 5.53027C16.084 6.01855 16.2695 6.77376 16.2793 7.7959V8.96777ZM15.376 7.73242C15.376 6.96745 15.2686 6.41081 15.0537 6.0625C14.8389 5.71094 14.4987 5.53516 14.0332 5.53516C13.571 5.53516 13.234 5.70931 13.0225 6.05762C12.8109 6.40592 12.7018 6.94141 12.6953 7.66406V9.10938C12.6953 9.8776 12.806 10.4456 13.0273 10.8135C13.252 11.1781 13.5905 11.3604 14.043 11.3604C14.4889 11.3604 14.8193 11.1878 15.0342 10.8428C15.2523 10.4977 15.3662 9.9541 15.376 9.21191V7.73242Z" fill="#BCB9B9"/>
<path d="M5.04883 433.968C5.04883 435.026 4.86816 435.812 4.50684 436.326C4.14551 436.84 3.58073 437.098 2.8125 437.098C2.05404 437.098 1.49251 436.847 1.12793 436.346C0.763346 435.841 0.574544 435.089 0.561523 434.09V432.884C0.561523 431.839 0.742188 431.062 1.10352 430.555C1.46484 430.047 2.03125 429.793 2.80273 429.793C3.56771 429.793 4.13086 430.039 4.49219 430.53C4.85352 431.019 5.03906 431.774 5.04883 432.796V433.968ZM4.14551 432.732C4.14551 431.967 4.03809 431.411 3.82324 431.062C3.6084 430.711 3.26823 430.535 2.80273 430.535C2.34049 430.535 2.00358 430.709 1.79199 431.058C1.5804 431.406 1.47135 431.941 1.46484 432.664V434.109C1.46484 434.878 1.57552 435.446 1.79688 435.813C2.02148 436.178 2.36003 436.36 2.8125 436.36C3.25846 436.36 3.58887 436.188 3.80371 435.843C4.02181 435.498 4.13574 434.954 4.14551 434.212V432.732Z" fill="#BCB9B9"/>
<path d="M5.24902 352H0.59082V351.351L3.05176 348.616C3.41634 348.203 3.66699 347.868 3.80371 347.61C3.94368 347.35 4.01367 347.081 4.01367 346.805C4.01367 346.434 3.90137 346.129 3.67676 345.892C3.45215 345.654 3.15267 345.535 2.77832 345.535C2.3291 345.535 1.97917 345.664 1.72852 345.921C1.48112 346.175 1.35742 346.53 1.35742 346.985H0.454102C0.454102 346.331 0.664062 345.802 1.08398 345.398C1.50716 344.995 2.07194 344.793 2.77832 344.793C3.43913 344.793 3.96159 344.967 4.3457 345.315C4.72982 345.66 4.92188 346.121 4.92188 346.697C4.92188 347.397 4.47591 348.23 3.58398 349.197L1.67969 351.263H5.24902V352ZM10.6641 348.968C10.6641 350.026 10.4834 350.812 10.1221 351.326C9.76074 351.84 9.19596 352.098 8.42773 352.098C7.66927 352.098 7.10775 351.847 6.74316 351.346C6.37858 350.841 6.18978 350.089 6.17676 349.09V347.884C6.17676 346.839 6.35742 346.062 6.71875 345.555C7.08008 345.047 7.64648 344.793 8.41797 344.793C9.18294 344.793 9.74609 345.039 10.1074 345.53C10.4688 346.019 10.6543 346.774 10.6641 347.796V348.968ZM9.76074 347.732C9.76074 346.967 9.65332 346.411 9.43848 346.062C9.22363 345.711 8.88346 345.535 8.41797 345.535C7.95573 345.535 7.61882 345.709 7.40723 346.058C7.19564 346.406 7.08659 346.941 7.08008 347.664V349.109C7.08008 349.878 7.19076 350.446 7.41211 350.813C7.63672 351.178 7.97526 351.36 8.42773 351.36C8.8737 351.36 9.2041 351.188 9.41895 350.843C9.63704 350.498 9.75098 349.954 9.76074 349.212V347.732Z" fill="#BCB9B9"/>
<path d="M4.4043 264.612H5.39062V265.35H4.4043V267H3.49609V265.35H0.258789V264.817L3.44238 259.891H4.4043V264.612ZM1.28418 264.612H3.49609V261.126L3.38867 261.321L1.28418 264.612ZM10.6641 263.968C10.6641 265.026 10.4834 265.812 10.1221 266.326C9.76074 266.84 9.19596 267.098 8.42773 267.098C7.66927 267.098 7.10775 266.847 6.74316 266.346C6.37858 265.841 6.18978 265.089 6.17676 264.09V262.884C6.17676 261.839 6.35742 261.062 6.71875 260.555C7.08008 260.047 7.64648 259.793 8.41797 259.793C9.18294 259.793 9.74609 260.039 10.1074 260.53C10.4688 261.019 10.6543 261.774 10.6641 262.796V263.968ZM9.76074 262.732C9.76074 261.967 9.65332 261.411 9.43848 261.062C9.22363 260.711 8.88346 260.535 8.41797 260.535C7.95573 260.535 7.61882 260.709 7.40723 261.058C7.19564 261.406 7.08659 261.941 7.08008 262.664V264.109C7.08008 264.878 7.19076 265.446 7.41211 265.813C7.63672 266.178 7.97526 266.36 8.42773 266.36C8.8737 266.36 9.2041 266.188 9.41895 265.843C9.63704 265.498 9.75098 264.954 9.76074 264.212V262.732Z" fill="#BCB9B9"/>
<path d="M4.13574 174.886V175.652H3.96973C3.2666 175.665 2.70671 175.874 2.29004 176.277C1.87337 176.681 1.63249 177.249 1.56738 177.981C1.94173 177.552 2.4528 177.337 3.10059 177.337C3.71908 177.337 4.21224 177.555 4.58008 177.991C4.95117 178.427 5.13672 178.991 5.13672 179.681C5.13672 180.413 4.93652 180.999 4.53613 181.438C4.139 181.878 3.60514 182.098 2.93457 182.098C2.25423 182.098 1.70247 181.837 1.2793 181.316C0.85612 180.792 0.644531 180.118 0.644531 179.295V178.948C0.644531 177.64 0.922852 176.64 1.47949 175.95C2.03939 175.257 2.87109 174.902 3.97461 174.886H4.13574ZM2.94922 178.089C2.63997 178.089 2.35514 178.182 2.09473 178.367C1.83431 178.553 1.65365 178.785 1.55273 179.065V179.397C1.55273 179.983 1.68457 180.455 1.94824 180.813C2.21191 181.172 2.54069 181.351 2.93457 181.351C3.34147 181.351 3.66048 181.201 3.8916 180.901C4.12598 180.602 4.24316 180.21 4.24316 179.725C4.24316 179.236 4.12435 178.842 3.88672 178.543C3.65234 178.24 3.33984 178.089 2.94922 178.089ZM10.6641 178.968C10.6641 180.026 10.4834 180.812 10.1221 181.326C9.76074 181.84 9.19596 182.098 8.42773 182.098C7.66927 182.098 7.10775 181.847 6.74316 181.346C6.37858 180.841 6.18978 180.089 6.17676 179.09V177.884C6.17676 176.839 6.35742 176.062 6.71875 175.555C7.08008 175.047 7.64648 174.793 8.41797 174.793C9.18294 174.793 9.74609 175.039 10.1074 175.53C10.4688 176.019 10.6543 176.774 10.6641 177.796V178.968ZM9.76074 177.732C9.76074 176.967 9.65332 176.411 9.43848 176.062C9.22363 175.711 8.88346 175.535 8.41797 175.535C7.95573 175.535 7.61882 175.709 7.40723 176.058C7.19564 176.406 7.08659 176.941 7.08008 177.664V179.109C7.08008 179.878 7.19076 180.446 7.41211 180.813C7.63672 181.178 7.97526 181.36 8.42773 181.36C8.8737 181.36 9.2041 181.188 9.41895 180.843C9.63704 180.498 9.75098 179.954 9.76074 179.212V177.732Z" fill="#BCB9B9"/>
<path d="M4.90234 91.7461C4.90234 92.1009 4.80794 92.4167 4.61914 92.6934C4.43359 92.9701 4.18132 93.1865 3.8623 93.3428C4.2334 93.5023 4.52637 93.735 4.74121 94.041C4.95931 94.347 5.06836 94.6937 5.06836 95.0811C5.06836 95.6963 4.86003 96.1862 4.44336 96.5508C4.02995 96.9154 3.4847 97.0977 2.80762 97.0977C2.12402 97.0977 1.57552 96.9154 1.16211 96.5508C0.751953 96.1829 0.546875 95.693 0.546875 95.0811C0.546875 94.6969 0.651042 94.3503 0.859375 94.041C1.07096 93.7318 1.3623 93.4974 1.7334 93.3379C1.41764 93.1816 1.16862 92.9652 0.986328 92.6885C0.804036 92.4118 0.712891 92.0977 0.712891 91.7461C0.712891 91.1471 0.904948 90.6719 1.28906 90.3203C1.67318 89.9688 2.17936 89.793 2.80762 89.793C3.43262 89.793 3.93717 89.9688 4.32129 90.3203C4.70866 90.6719 4.90234 91.1471 4.90234 91.7461ZM4.16504 95.0615C4.16504 94.6644 4.03809 94.3405 3.78418 94.0898C3.53353 93.8392 3.20475 93.7139 2.79785 93.7139C2.39095 93.7139 2.0638 93.8376 1.81641 94.085C1.57227 94.3324 1.4502 94.6579 1.4502 95.0615C1.4502 95.4652 1.56901 95.7826 1.80664 96.0137C2.04753 96.2448 2.38118 96.3604 2.80762 96.3604C3.23079 96.3604 3.56283 96.2448 3.80371 96.0137C4.0446 95.7793 4.16504 95.4619 4.16504 95.0615ZM2.80762 90.5352C2.4528 90.5352 2.16471 90.6458 1.94336 90.8672C1.72526 91.0853 1.61621 91.3831 1.61621 91.7607C1.61621 92.1221 1.72363 92.415 1.93848 92.6396C2.15658 92.861 2.44629 92.9717 2.80762 92.9717C3.16895 92.9717 3.45703 92.861 3.67188 92.6396C3.88997 92.415 3.99902 92.1221 3.99902 91.7607C3.99902 91.3994 3.88672 91.1048 3.66211 90.877C3.4375 90.6491 3.15267 90.5352 2.80762 90.5352ZM10.6641 93.9678C10.6641 95.0257 10.4834 95.8118 10.1221 96.3262C9.76074 96.8405 9.19596 97.0977 8.42773 97.0977C7.66927 97.0977 7.10775 96.847 6.74316 96.3457C6.37858 95.8411 6.18978 95.0892 6.17676 94.0898V92.8838C6.17676 91.8389 6.35742 91.0625 6.71875 90.5547C7.08008 90.0469 7.64648 89.793 8.41797 89.793C9.18294 89.793 9.74609 90.0387 10.1074 90.5303C10.4688 91.0186 10.6543 91.7738 10.6641 92.7959V93.9678ZM9.76074 92.7324C9.76074 91.9674 9.65332 91.4108 9.43848 91.0625C9.22363 90.7109 8.88346 90.5352 8.41797 90.5352C7.95573 90.5352 7.61882 90.7093 7.40723 91.0576C7.19564 91.4059 7.08659 91.9414 7.08008 92.6641V94.1094C7.08008 94.8776 7.19076 95.4456 7.41211 95.8135C7.63672 96.1781 7.97526 96.3604 8.42773 96.3604C8.8737 96.3604 9.2041 96.1878 9.41895 95.8428C9.63704 95.4977 9.75098 94.9541 9.76074 94.2119V92.7324Z" fill="#BCB9B9"/>
<path d="M18 178L46.822 154L110.37 230.5L174.749 174.5L260.534 260L363 154.5" stroke="url(#paint0_linear_575_1438)" stroke-width="3" stroke-linecap="round"/>
<path d="M299.576 454.395H296.834V462H295.715V454.395H292.979V453.469H299.576V454.395ZM299.799 458.771C299.799 458.15 299.92 457.592 300.162 457.096C300.408 456.6 300.748 456.217 301.182 455.947C301.619 455.678 302.117 455.543 302.676 455.543C303.539 455.543 304.236 455.842 304.768 456.439C305.303 457.037 305.57 457.832 305.57 458.824V458.9C305.57 459.518 305.451 460.072 305.213 460.564C304.979 461.053 304.641 461.434 304.199 461.707C303.762 461.98 303.258 462.117 302.688 462.117C301.828 462.117 301.131 461.818 300.596 461.221C300.064 460.623 299.799 459.832 299.799 458.848V458.771ZM300.889 458.9C300.889 459.604 301.051 460.168 301.375 460.594C301.703 461.02 302.141 461.232 302.688 461.232C303.238 461.232 303.676 461.018 304 460.588C304.324 460.154 304.486 459.549 304.486 458.771C304.486 458.076 304.32 457.514 303.988 457.084C303.66 456.65 303.223 456.434 302.676 456.434C302.141 456.434 301.709 456.646 301.381 457.072C301.053 457.498 300.889 458.107 300.889 458.9ZM306.666 458.777C306.666 457.805 306.896 457.023 307.357 456.434C307.818 455.84 308.422 455.543 309.168 455.543C309.91 455.543 310.498 455.797 310.932 456.305V453H312.016V462H311.02L310.967 461.32C310.533 461.852 309.93 462.117 309.156 462.117C308.422 462.117 307.822 461.816 307.357 461.215C306.896 460.613 306.666 459.828 306.666 458.859V458.777ZM307.75 458.9C307.75 459.619 307.898 460.182 308.195 460.588C308.492 460.994 308.902 461.197 309.426 461.197C310.113 461.197 310.615 460.889 310.932 460.271V457.359C310.607 456.762 310.109 456.463 309.438 456.463C308.906 456.463 308.492 456.668 308.195 457.078C307.898 457.488 307.75 458.096 307.75 458.9ZM317.617 462C317.555 461.875 317.504 461.652 317.465 461.332C316.961 461.855 316.359 462.117 315.66 462.117C315.035 462.117 314.521 461.941 314.119 461.59C313.721 461.234 313.521 460.785 313.521 460.242C313.521 459.582 313.771 459.07 314.271 458.707C314.775 458.34 315.482 458.156 316.393 458.156H317.447V457.658C317.447 457.279 317.334 456.979 317.107 456.756C316.881 456.529 316.547 456.416 316.105 456.416C315.719 456.416 315.395 456.514 315.133 456.709C314.871 456.904 314.74 457.141 314.74 457.418H313.65C313.65 457.102 313.762 456.797 313.984 456.504C314.211 456.207 314.516 455.973 314.898 455.801C315.285 455.629 315.709 455.543 316.17 455.543C316.9 455.543 317.473 455.727 317.887 456.094C318.301 456.457 318.516 456.959 318.531 457.6V460.518C318.531 461.1 318.605 461.562 318.754 461.906V462H317.617ZM315.818 461.174C316.158 461.174 316.48 461.086 316.785 460.91C317.09 460.734 317.311 460.506 317.447 460.225V458.924H316.598C315.27 458.924 314.605 459.312 314.605 460.09C314.605 460.43 314.719 460.695 314.945 460.887C315.172 461.078 315.463 461.174 315.818 461.174ZM322.211 460.412L323.688 455.66H324.848L322.299 462.979C321.904 464.033 321.277 464.561 320.418 464.561L320.213 464.543L319.809 464.467V463.588L320.102 463.611C320.469 463.611 320.754 463.537 320.957 463.389C321.164 463.24 321.334 462.969 321.467 462.574L321.707 461.93L319.445 455.66H320.629L322.211 460.412Z" fill="#D28BEB"/>
<path d="M6.5293 462H0.939453V461.221L3.89258 457.939C4.33008 457.443 4.63086 457.041 4.79492 456.732C4.96289 456.42 5.04688 456.098 5.04688 455.766C5.04688 455.32 4.91211 454.955 4.64258 454.67C4.37305 454.385 4.01367 454.242 3.56445 454.242C3.02539 454.242 2.60547 454.396 2.30469 454.705C2.00781 455.01 1.85938 455.436 1.85938 455.982H0.775391C0.775391 455.197 1.02734 454.562 1.53125 454.078C2.03906 453.594 2.7168 453.352 3.56445 453.352C4.35742 453.352 4.98438 453.561 5.44531 453.979C5.90625 454.393 6.13672 454.945 6.13672 455.637C6.13672 456.477 5.60156 457.477 4.53125 458.637L2.24609 461.115H6.5293V462ZM13.0273 458.361C13.0273 459.631 12.8105 460.574 12.377 461.191C11.9434 461.809 11.2656 462.117 10.3438 462.117C9.43359 462.117 8.75977 461.816 8.32227 461.215C7.88477 460.609 7.6582 459.707 7.64258 458.508V457.061C7.64258 455.807 7.85938 454.875 8.29297 454.266C8.72656 453.656 9.40625 453.352 10.332 453.352C11.25 453.352 11.9258 453.646 12.3594 454.236C12.793 454.822 13.0156 455.729 13.0273 456.955V458.361ZM11.9434 456.879C11.9434 455.961 11.8145 455.293 11.5566 454.875C11.2988 454.453 10.8906 454.242 10.332 454.242C9.77734 454.242 9.37305 454.451 9.11914 454.869C8.86523 455.287 8.73438 455.93 8.72656 456.797V458.531C8.72656 459.453 8.85938 460.135 9.125 460.576C9.39453 461.014 9.80078 461.232 10.3438 461.232C10.8789 461.232 11.2754 461.025 11.5332 460.611C11.7949 460.197 11.9316 459.545 11.9434 458.654V456.879ZM20.0059 462H14.416V461.221L17.3691 457.939C17.8066 457.443 18.1074 457.041 18.2715 456.732C18.4395 456.42 18.5234 456.098 18.5234 455.766C18.5234 455.32 18.3887 454.955 18.1191 454.67C17.8496 454.385 17.4902 454.242 17.041 454.242C16.502 454.242 16.082 454.396 15.7812 454.705C15.4844 455.01 15.3359 455.436 15.3359 455.982H14.252C14.252 455.197 14.5039 454.562 15.0078 454.078C15.5156 453.594 16.1934 453.352 17.041 453.352C17.834 453.352 18.4609 453.561 18.9219 453.979C19.3828 454.393 19.6133 454.945 19.6133 455.637C19.6133 456.477 19.0781 457.477 18.0078 458.637L15.7227 461.115H20.0059V462ZM24.7168 462H23.627V454.775L21.4414 455.578V454.594L24.5469 453.428H24.7168V462ZM30.2598 458.818H27.4004V457.934H30.2598V458.818ZM34.7715 462H33.6816V454.775L31.4961 455.578V454.594L34.6016 453.428H34.7715V462ZM43.2969 458.361C43.2969 459.631 43.0801 460.574 42.6465 461.191C42.2129 461.809 41.5352 462.117 40.6133 462.117C39.7031 462.117 39.0293 461.816 38.5918 461.215C38.1543 460.609 37.9277 459.707 37.9121 458.508V457.061C37.9121 455.807 38.1289 454.875 38.5625 454.266C38.9961 453.656 39.6758 453.352 40.6016 453.352C41.5195 453.352 42.1953 453.646 42.6289 454.236C43.0625 454.822 43.2852 455.729 43.2969 456.955V458.361ZM42.2129 456.879C42.2129 455.961 42.084 455.293 41.8262 454.875C41.5684 454.453 41.1602 454.242 40.6016 454.242C40.0469 454.242 39.6426 454.451 39.3887 454.869C39.1348 455.287 39.0039 455.93 38.9961 456.797V458.531C38.9961 459.453 39.1289 460.135 39.3945 460.576C39.6641 461.014 40.0703 461.232 40.6133 461.232C41.1484 461.232 41.5449 461.025 41.8027 460.611C42.0645 460.197 42.2012 459.545 42.2129 458.654V456.879ZM47.0527 458.818H44.1934V457.934H47.0527V458.818ZM51.5645 462H50.4746V454.775L48.2891 455.578V454.594L51.3945 453.428H51.5645V462ZM58.3027 462H57.2129V454.775L55.0273 455.578V454.594L58.1328 453.428H58.3027V462Z" fill="#BCB9B9"/>
<circle cx="238" cy="454" r="8" fill="#D289EB" fill-opacity="0.26"/>
<circle cx="238" cy="454" r="3" fill="url(#paint1_linear_575_1438)"/>
<line x1="237.5" y1="441" x2="237.5" y2="286" stroke="url(#paint2_linear_575_1438)" stroke-dasharray="2 2"/>
<g filter="url(#filter0_d_575_1438)">
<rect x="167" y="276" width="142" height="76" rx="20" fill="white"/>
</g>
<path d="M197.299 329H191.709V328.221L194.662 324.939C195.1 324.443 195.4 324.041 195.564 323.732C195.732 323.42 195.816 323.098 195.816 322.766C195.816 322.32 195.682 321.955 195.412 321.67C195.143 321.385 194.783 321.242 194.334 321.242C193.795 321.242 193.375 321.396 193.074 321.705C192.777 322.01 192.629 322.436 192.629 322.982H191.545C191.545 322.197 191.797 321.562 192.301 321.078C192.809 320.594 193.486 320.352 194.334 320.352C195.127 320.352 195.754 320.561 196.215 320.979C196.676 321.393 196.906 321.945 196.906 322.637C196.906 323.477 196.371 324.477 195.301 325.637L193.016 328.115H197.299V329ZM203.797 325.361C203.797 326.631 203.58 327.574 203.146 328.191C202.713 328.809 202.035 329.117 201.113 329.117C200.203 329.117 199.529 328.816 199.092 328.215C198.654 327.609 198.428 326.707 198.412 325.508V324.061C198.412 322.807 198.629 321.875 199.062 321.266C199.496 320.656 200.176 320.352 201.102 320.352C202.02 320.352 202.695 320.646 203.129 321.236C203.562 321.822 203.785 322.729 203.797 323.955V325.361ZM202.713 323.879C202.713 322.961 202.584 322.293 202.326 321.875C202.068 321.453 201.66 321.242 201.102 321.242C200.547 321.242 200.143 321.451 199.889 321.869C199.635 322.287 199.504 322.93 199.496 323.797V325.531C199.496 326.453 199.629 327.135 199.895 327.576C200.164 328.014 200.57 328.232 201.113 328.232C201.648 328.232 202.045 328.025 202.303 327.611C202.564 327.197 202.701 326.545 202.713 325.654V323.879ZM210.775 329H205.186V328.221L208.139 324.939C208.576 324.443 208.877 324.041 209.041 323.732C209.209 323.42 209.293 323.098 209.293 322.766C209.293 322.32 209.158 321.955 208.889 321.67C208.619 321.385 208.26 321.242 207.811 321.242C207.271 321.242 206.852 321.396 206.551 321.705C206.254 322.01 206.105 322.436 206.105 322.982H205.021C205.021 322.197 205.273 321.562 205.777 321.078C206.285 320.594 206.963 320.352 207.811 320.352C208.604 320.352 209.23 320.561 209.691 320.979C210.152 321.393 210.383 321.945 210.383 322.637C210.383 323.477 209.848 324.477 208.777 325.637L206.492 328.115H210.775V329ZM215.486 329H214.396V321.775L212.211 322.578V321.594L215.316 320.428H215.486V329ZM221.029 325.818H218.17V324.934H221.029V325.818ZM225.541 329H224.451V321.775L222.266 322.578V321.594L225.371 320.428H225.541V329ZM234.066 325.361C234.066 326.631 233.85 327.574 233.416 328.191C232.982 328.809 232.305 329.117 231.383 329.117C230.473 329.117 229.799 328.816 229.361 328.215C228.924 327.609 228.697 326.707 228.682 325.508V324.061C228.682 322.807 228.898 321.875 229.332 321.266C229.766 320.656 230.445 320.352 231.371 320.352C232.289 320.352 232.965 320.646 233.398 321.236C233.832 321.822 234.055 322.729 234.066 323.955V325.361ZM232.982 323.879C232.982 322.961 232.854 322.293 232.596 321.875C232.338 321.453 231.93 321.242 231.371 321.242C230.816 321.242 230.412 321.451 230.158 321.869C229.904 322.287 229.773 322.93 229.766 323.797V325.531C229.766 326.453 229.898 327.135 230.164 327.576C230.434 328.014 230.84 328.232 231.383 328.232C231.918 328.232 232.314 328.025 232.572 327.611C232.834 327.197 232.971 326.545 232.982 325.654V323.879ZM237.822 325.818H234.963V324.934H237.822V325.818ZM242.334 329H241.244V321.775L239.059 322.578V321.594L242.164 320.428H242.334V329ZM246.008 324.723L246.441 320.469H250.812V321.471H247.361L247.104 323.797C247.521 323.551 247.996 323.428 248.527 323.428C249.305 323.428 249.922 323.686 250.379 324.201C250.836 324.713 251.064 325.406 251.064 326.281C251.064 327.16 250.826 327.854 250.35 328.361C249.877 328.865 249.215 329.117 248.363 329.117C247.609 329.117 246.994 328.908 246.518 328.49C246.041 328.072 245.77 327.494 245.703 326.756H246.729C246.795 327.244 246.969 327.613 247.25 327.863C247.531 328.109 247.902 328.232 248.363 328.232C248.867 328.232 249.262 328.061 249.547 327.717C249.836 327.373 249.98 326.898 249.98 326.293C249.98 325.723 249.824 325.266 249.512 324.922C249.203 324.574 248.791 324.4 248.275 324.4C247.803 324.4 247.432 324.504 247.162 324.711L246.875 324.945L246.008 324.723Z" fill="#767676"/>
<path d="M194.021 296.758L196.688 303.842L199.347 296.758H201.423V306H199.823V302.953L199.982 298.878L197.252 306H196.104L193.38 298.884L193.539 302.953V306H191.939V296.758H194.021ZM202.889 302.502C202.889 301.83 203.022 301.224 203.289 300.687C203.556 300.145 203.93 299.731 204.413 299.443C204.895 299.151 205.449 299.005 206.076 299.005C207.002 299.005 207.754 299.303 208.329 299.9C208.909 300.497 209.222 301.288 209.269 302.274L209.275 302.636C209.275 303.313 209.144 303.918 208.881 304.451C208.623 304.984 208.251 305.397 207.764 305.689C207.282 305.981 206.723 306.127 206.088 306.127C205.119 306.127 204.343 305.805 203.759 305.162C203.179 304.515 202.889 303.653 202.889 302.579V302.502ZM204.432 302.636C204.432 303.342 204.578 303.897 204.87 304.299C205.162 304.697 205.568 304.896 206.088 304.896C206.609 304.896 207.013 304.692 207.301 304.286C207.593 303.88 207.739 303.285 207.739 302.502C207.739 301.808 207.589 301.258 207.288 300.852C206.992 300.446 206.588 300.243 206.076 300.243C205.572 300.243 205.172 300.444 204.876 300.846C204.58 301.243 204.432 301.84 204.432 302.636ZM212.899 304.045L214.353 299.132H215.946L213.566 306H212.227L209.827 299.132H211.427L212.899 304.045ZM218.555 306H217.013V299.132H218.555V306ZM216.917 297.348C216.917 297.111 216.992 296.914 217.14 296.758C217.292 296.601 217.508 296.523 217.787 296.523C218.066 296.523 218.282 296.601 218.435 296.758C218.587 296.914 218.663 297.111 218.663 297.348C218.663 297.581 218.587 297.776 218.435 297.932C218.282 298.084 218.066 298.161 217.787 298.161C217.508 298.161 217.292 298.084 217.14 297.932C216.992 297.776 216.917 297.581 216.917 297.348ZM223.265 306.127C222.288 306.127 221.494 305.82 220.885 305.207C220.28 304.589 219.977 303.768 219.977 302.744V302.553C219.977 301.868 220.108 301.256 220.371 300.719C220.637 300.177 221.01 299.756 221.488 299.456C221.966 299.155 222.499 299.005 223.087 299.005C224.023 299.005 224.744 299.303 225.252 299.9C225.764 300.497 226.02 301.341 226.02 302.433V303.055H221.532C221.579 303.622 221.767 304.07 222.097 304.4C222.431 304.73 222.85 304.896 223.354 304.896C224.061 304.896 224.636 304.61 225.081 304.039L225.912 304.832C225.637 305.243 225.269 305.562 224.808 305.791C224.351 306.015 223.836 306.127 223.265 306.127ZM223.081 300.243C222.658 300.243 222.315 300.391 222.053 300.687C221.795 300.983 221.63 301.396 221.558 301.925H224.497V301.811C224.463 301.294 224.325 300.905 224.084 300.643C223.843 300.376 223.508 300.243 223.081 300.243ZM231.073 304.134C231.073 303.859 230.958 303.649 230.73 303.505C230.506 303.361 230.131 303.235 229.606 303.125C229.082 303.014 228.644 302.875 228.292 302.706C227.522 302.333 227.137 301.794 227.137 301.087C227.137 300.494 227.387 299.999 227.886 299.602C228.386 299.204 229.02 299.005 229.791 299.005C230.611 299.005 231.274 299.208 231.777 299.614C232.285 300.021 232.539 300.547 232.539 301.195H230.997C230.997 300.899 230.887 300.653 230.667 300.458C230.446 300.26 230.154 300.16 229.791 300.16C229.452 300.16 229.175 300.238 228.959 300.395C228.747 300.552 228.642 300.761 228.642 301.023C228.642 301.26 228.741 301.444 228.94 301.576C229.139 301.707 229.541 301.84 230.146 301.976C230.751 302.107 231.225 302.265 231.568 302.452C231.915 302.634 232.171 302.854 232.336 303.112C232.505 303.37 232.59 303.683 232.59 304.051C232.59 304.669 232.334 305.171 231.822 305.556C231.31 305.937 230.639 306.127 229.81 306.127C229.247 306.127 228.745 306.025 228.305 305.822C227.865 305.619 227.522 305.34 227.277 304.984C227.031 304.629 226.909 304.246 226.909 303.835H228.407C228.428 304.199 228.565 304.481 228.819 304.68C229.073 304.874 229.41 304.972 229.829 304.972C230.235 304.972 230.544 304.896 230.755 304.743C230.967 304.587 231.073 304.383 231.073 304.134Z" fill="black"/>
<defs>
<filter id="filter0_d_575_1438" x="152" y="261" width="182" height="116" filterUnits="userSpaceOnUse" color-interpolation-filters="sRGB">
<feFlood flood-opacity="0" result="BackgroundImageFix"/>
<feColorMatrix in="SourceAlpha" type="matrix" values="0 0 0 0 0 0 0 0 0 0 0 0 0 0 0 0 0 0 127 0" result="hardAlpha"/>
<feOffset dx="5" dy="5"/>
<feGaussianBlur stdDeviation="10"/>
<feComposite in2="hardAlpha" operator="out"/>
<feColorMatrix type="matrix" values="0 0 0 0 0.94902 0 0 0 0 0.866667 0 0 0 0 0.976471 0 0 0 0.56 0"/>
<feBlend mode="normal" in2="BackgroundImageFix" result="effect1_dropShadow_575_1438"/>
<feBlend mode="normal" in="SourceGraphic" in2="effect1_dropShadow_575_1438" result="shape"/>
</filter>
<linearGradient id="paint0_linear_575_1438" x1="31.6905" y1="161.571" x2="101.834" y2="349.688" gradientUnits="userSpaceOnUse">
<stop stop-color="#D393E9"/>
<stop offset="1" stop-color="#D080EC"/>
</linearGradient>
<linearGradient id="paint1_linear_575_1438" x1="240.762" y1="451.429" x2="234.81" y2="456.333" gradientUnits="userSpaceOnUse">
<stop stop-color="#D393E9"/>
<stop offset="1" stop-color="#D080EC"/>
</linearGradient>
<linearGradient id="paint2_linear_575_1438" x1="238.071" y1="292.151" x2="240.093" y2="292.167" gradientUnits="userSpaceOnUse">
<stop stop-color="#D393E9"/>
<stop offset="1" stop-color="#D080EC"/>
</linearGradient>
</defs>
</svg>
