<svg width="292" height="305" viewBox="0 0 292 305" fill="none" xmlns="http://www.w3.org/2000/svg">
<path d="M119.498 19.0205C119.498 22.0869 118.922 24.4014 117.77 25.9639C116.627 27.5166 114.884 28.293 112.54 28.293C110.235 28.293 108.497 27.5361 107.325 26.0225C106.163 24.499 105.567 22.248 105.538 19.2695V15.5781C105.538 12.5117 106.109 10.2119 107.252 8.67871C108.404 7.14551 110.157 6.37891 112.511 6.37891C114.845 6.37891 116.583 7.12598 117.726 8.62012C118.878 10.1143 119.469 12.3506 119.498 15.3291V19.0205ZM115.938 15.0361C115.938 13.0342 115.665 11.5693 115.118 10.6416C114.571 9.7041 113.702 9.23535 112.511 9.23535C111.349 9.23535 110.494 9.67969 109.947 10.5684C109.4 11.4473 109.112 12.8242 109.083 14.6992V19.5332C109.083 21.5254 109.361 23.0098 109.918 23.9863C110.475 24.9629 111.349 25.4512 112.54 25.4512C113.683 25.4512 114.527 25.002 115.074 24.1035C115.621 23.1953 115.909 21.7793 115.938 19.8555V15.0361ZM126.764 15.71H128.932C130.025 15.7002 130.89 15.417 131.524 14.8604C132.169 14.3037 132.491 13.498 132.491 12.4434C132.491 11.4277 132.223 10.6416 131.686 10.085C131.158 9.51855 130.348 9.23535 129.254 9.23535C128.297 9.23535 127.511 9.51367 126.896 10.0703C126.28 10.6172 125.973 11.335 125.973 12.2236H122.413C122.413 11.1299 122.701 10.1338 123.277 9.23535C123.863 8.33691 124.674 7.63867 125.709 7.14062C126.754 6.63281 127.921 6.37891 129.21 6.37891C131.339 6.37891 133.009 6.91602 134.22 7.99023C135.44 9.05469 136.051 10.5391 136.051 12.4434C136.051 13.4004 135.743 14.3037 135.128 15.1533C134.522 15.9932 133.736 16.6279 132.77 17.0576C133.941 17.458 134.83 18.0879 135.436 18.9473C136.051 19.8066 136.358 20.832 136.358 22.0234C136.358 23.9375 135.699 25.4609 134.381 26.5938C133.072 27.7266 131.349 28.293 129.21 28.293C127.159 28.293 125.479 27.7461 124.171 26.6523C122.862 25.5586 122.208 24.1035 122.208 22.2871H125.768C125.768 23.2246 126.08 23.9863 126.705 24.5723C127.34 25.1582 128.189 25.4512 129.254 25.4512C130.357 25.4512 131.227 25.1582 131.861 24.5723C132.496 23.9863 132.813 23.1367 132.813 22.0234C132.813 20.9004 132.481 20.0361 131.817 19.4307C131.153 18.8252 130.167 18.5225 128.858 18.5225H126.764V15.71ZM142.071 24.25C142.735 24.25 143.248 24.4404 143.609 24.8213C143.971 25.1924 144.151 25.6611 144.151 26.2275C144.151 26.7842 143.971 27.248 143.609 27.6191C143.248 27.9805 142.735 28.1611 142.071 28.1611C141.437 28.1611 140.934 27.9805 140.562 27.6191C140.191 27.2578 140.006 26.7939 140.006 26.2275C140.006 25.6611 140.187 25.1924 140.548 24.8213C140.909 24.4404 141.417 24.25 142.071 24.25ZM142.071 11.8135C142.735 11.8135 143.248 12.0039 143.609 12.3848C143.971 12.7559 144.151 13.2246 144.151 13.791C144.151 14.3477 143.971 14.8115 143.609 15.1826C143.248 15.5439 142.735 15.7246 142.071 15.7246C141.437 15.7246 140.934 15.5439 140.562 15.1826C140.191 14.8213 140.006 14.3574 140.006 13.791C140.006 13.2246 140.187 12.7559 140.548 12.3848C140.909 12.0039 141.417 11.8135 142.071 11.8135ZM162.008 28H147.667V25.5537L154.771 17.8047C155.797 16.6621 156.524 15.71 156.954 14.9482C157.394 14.1768 157.613 13.4053 157.613 12.6338C157.613 11.6182 157.325 10.7979 156.749 10.1729C156.183 9.54785 155.416 9.23535 154.449 9.23535C153.297 9.23535 152.403 9.58691 151.769 10.29C151.134 10.9932 150.816 11.9551 150.816 13.1758H147.257C147.257 11.877 147.55 10.71 148.136 9.6748C148.731 8.62988 149.576 7.81934 150.67 7.24316C151.773 6.66699 153.043 6.37891 154.479 6.37891C156.549 6.37891 158.18 6.90137 159.371 7.94629C160.572 8.98145 161.173 10.417 161.173 12.2529C161.173 13.3174 160.87 14.4355 160.265 15.6074C159.669 16.7695 158.688 18.0928 157.32 19.5771L152.105 25.1582H162.008V28ZM165.67 17.4238L166.827 6.67188H178.282V9.74805H169.786L169.2 14.8457C170.187 14.2793 171.3 13.9961 172.54 13.9961C174.571 13.9961 176.148 14.6455 177.271 15.9443C178.404 17.2432 178.971 18.9912 178.971 21.1885C178.971 23.3564 178.346 25.085 177.096 26.374C175.846 27.6533 174.132 28.293 171.954 28.293C170.001 28.293 168.38 27.7412 167.091 26.6377C165.812 25.5244 165.118 24.0596 165.011 22.2432H168.453C168.59 23.2783 168.961 24.0742 169.566 24.6309C170.172 25.1777 170.963 25.4512 171.939 25.4512C173.033 25.4512 173.883 25.0605 174.488 24.2793C175.104 23.498 175.411 22.4336 175.411 21.0859C175.411 19.7871 175.074 18.7617 174.4 18.0098C173.727 17.248 172.799 16.8672 171.617 16.8672C170.973 16.8672 170.426 16.9551 169.977 17.1309C169.527 17.2969 169.039 17.6289 168.512 18.127L165.67 17.4238Z" fill="black"/>
<path d="M197.707 11.2929C197.317 10.9024 196.683 10.9024 196.293 11.2929L189.929 17.6569C189.538 18.0474 189.538 18.6805 189.929 19.0711C190.319 19.4616 190.953 19.4616 191.343 19.0711L197 13.4142L202.657 19.0711C203.047 19.4616 203.681 19.4616 204.071 19.0711C204.462 18.6805 204.462 18.0474 204.071 17.6569L197.707 11.2929ZM198 28L198 12L196 12L196 28L198 28Z" fill="url(#paint0_linear_533_1435)"/>
<path d="M206.66 97.53L291.5 183V305H0V77H55.7952L130.735 130.891L206.66 97.53Z" fill="url(#paint1_linear_533_1435)"/>
<path d="M290 183L208.509 97.5084L132.458 130.835L57.3942 77H2" stroke="#84BB7B" stroke-width="3" stroke-linecap="round"/>
<defs>
<linearGradient id="paint0_linear_533_1435" x1="197" y1="11.2381" x2="197" y2="27.2381" gradientUnits="userSpaceOnUse">
<stop stop-color="#18AA00"/>
<stop offset="1" stop-color="#18AA00" stop-opacity="0"/>
</linearGradient>
<linearGradient id="paint1_linear_533_1435" x1="173.874" y1="35.4262" x2="173.874" y2="267.415" gradientUnits="userSpaceOnUse">
<stop offset="0.0001" stop-color="#1ABD00" stop-opacity="0.13"/>
<stop offset="1" stop-color="#1ABD00" stop-opacity="0"/>
</linearGradient>
</defs>
</svg>
