<svg width="525" height="438" viewBox="0 0 525 438" fill="none" xmlns="http://www.w3.org/2000/svg">
<line x1="0.5" y1="18.5" x2="0.500017" y2="436.5" stroke="#DEE3ED" stroke-opacity="0.7" stroke-linecap="round" stroke-dasharray="1 3"/>
<line x1="87.5" y1="18.5" x2="87.5" y2="436.5" stroke="#DEE3ED" stroke-opacity="0.7" stroke-linecap="round" stroke-dasharray="1 3"/>
<line x1="523.5" y1="18.5" x2="523.5" y2="436.5" stroke="#DEE3ED" stroke-opacity="0.7" stroke-linecap="round" stroke-dasharray="1 3"/>
<line x1="348.5" y1="18.5" x2="348.5" y2="436.5" stroke="#DEE3ED" stroke-opacity="0.7" stroke-linecap="round" stroke-dasharray="1 3"/>
<line x1="261.5" y1="18.5" x2="261.5" y2="436.5" stroke="#DEE3ED" stroke-opacity="0.7" stroke-linecap="round" stroke-dasharray="1 3"/>
<line x1="435.5" y1="18.5" x2="435.5" y2="436.5" stroke="#DEE3ED" stroke-opacity="0.7" stroke-linecap="round" stroke-dasharray="1 3"/>
<rect y="18" width="525" height="14" rx="4" fill="url(#paint0_linear_577_1434)"/>
<path d="M6.25488 4.6748C6.25488 5.36165 6.14583 5.9541 5.92773 6.45215C5.70964 6.94694 5.40365 7.33431 5.00977 7.61426L6.2793 8.61035L5.63965 9.20117L4.14062 8.00977C3.90625 8.06836 3.65885 8.09766 3.39844 8.09766C2.83854 8.09766 2.34212 7.96094 1.90918 7.6875C1.47624 7.41081 1.13932 7.01855 0.898438 6.51074C0.660807 5.99967 0.538737 5.40885 0.532227 4.73828V4.22559C0.532227 3.54199 0.651042 2.93815 0.888672 2.41406C1.1263 1.88997 1.46159 1.48958 1.89453 1.21289C2.33073 0.932943 2.82878 0.792969 3.38867 0.792969C3.96159 0.792969 4.46452 0.931315 4.89746 1.20801C5.33366 1.4847 5.66895 1.88346 5.90332 2.4043C6.1377 2.92188 6.25488 3.52734 6.25488 4.2207V4.6748ZM5.31738 4.21582C5.31738 3.37923 5.14974 2.7347 4.81445 2.28223C4.48242 1.8265 4.00716 1.59863 3.38867 1.59863C2.79948 1.59863 2.33398 1.82487 1.99219 2.27734C1.65365 2.72656 1.47949 3.35156 1.46973 4.15234V4.6748C1.46973 5.48861 1.639 6.12988 1.97754 6.59863C2.31934 7.06738 2.79297 7.30176 3.39844 7.30176C4.00391 7.30176 4.47266 7.08203 4.80469 6.64258C5.13672 6.19987 5.30762 5.56673 5.31738 4.74316V4.21582ZM10.8203 7.47754C10.4688 7.89095 9.9528 8.09766 9.27246 8.09766C8.70931 8.09766 8.27962 7.9349 7.9834 7.60938C7.69043 7.2806 7.54232 6.79557 7.53906 6.1543V2.7168H8.44238V6.12988C8.44238 6.93066 8.7679 7.33105 9.41895 7.33105C10.109 7.33105 10.568 7.07389 10.7959 6.55957V2.7168H11.6992V8H10.8398L10.8203 7.47754ZM15.2686 8.09766C14.5524 8.09766 13.9697 7.86328 13.5205 7.39453C13.0713 6.92253 12.8467 6.29264 12.8467 5.50488V5.33887C12.8467 4.81478 12.946 4.34766 13.1445 3.9375C13.3464 3.52409 13.6263 3.20182 13.9844 2.9707C14.3457 2.73633 14.7363 2.61914 15.1562 2.61914C15.8431 2.61914 16.377 2.84538 16.7578 3.29785C17.1387 3.75033 17.3291 4.39811 17.3291 5.24121V5.61719H13.75C13.763 6.13802 13.9144 6.55957 14.2041 6.88184C14.4971 7.20085 14.8682 7.36035 15.3174 7.36035C15.6364 7.36035 15.9066 7.29525 16.1279 7.16504C16.3493 7.03483 16.543 6.8623 16.709 6.64746L17.2607 7.07715C16.818 7.75749 16.154 8.09766 15.2686 8.09766ZM15.1562 3.36133C14.7917 3.36133 14.4857 3.49479 14.2383 3.76172C13.9909 4.02539 13.8379 4.39648 13.7793 4.875H16.4258V4.80664C16.3997 4.34766 16.276 3.99284 16.0547 3.74219C15.8333 3.48828 15.5339 3.36133 15.1562 3.36133ZM20.5713 8.09766C19.8551 8.09766 19.2725 7.86328 18.8232 7.39453C18.374 6.92253 18.1494 6.29264 18.1494 5.50488V5.33887C18.1494 4.81478 18.2487 4.34766 18.4473 3.9375C18.6491 3.52409 18.929 3.20182 19.2871 2.9707C19.6484 2.73633 20.0391 2.61914 20.459 2.61914C21.1458 2.61914 21.6797 2.84538 22.0605 3.29785C22.4414 3.75033 22.6318 4.39811 22.6318 5.24121V5.61719H19.0527C19.0658 6.13802 19.2171 6.55957 19.5068 6.88184C19.7998 7.20085 20.1709 7.36035 20.6201 7.36035C20.9391 7.36035 21.2093 7.29525 21.4307 7.16504C21.652 7.03483 21.8457 6.8623 22.0117 6.64746L22.5635 7.07715C22.1208 7.75749 21.4567 8.09766 20.5713 8.09766ZM20.459 3.36133C20.0944 3.36133 19.7884 3.49479 19.541 3.76172C19.2936 4.02539 19.1406 4.39648 19.082 4.875H21.7285V4.80664C21.7025 4.34766 21.5788 3.99284 21.3574 3.74219C21.1361 3.48828 20.8366 3.36133 20.459 3.36133ZM24.5361 2.7168L24.5654 3.38086C24.9691 2.87305 25.4964 2.61914 26.1475 2.61914C27.264 2.61914 27.8271 3.24902 27.8369 4.50879V8H26.9336V4.50391C26.9303 4.12305 26.8424 3.84147 26.6699 3.65918C26.5007 3.47689 26.2354 3.38574 25.874 3.38574C25.5811 3.38574 25.3239 3.46387 25.1025 3.62012C24.8812 3.77637 24.7087 3.98145 24.585 4.23535V8H23.6816V2.7168H24.5361ZM28.9795 5.31445C28.9795 4.50391 29.1715 3.85286 29.5557 3.36133C29.9398 2.86654 30.4427 2.61914 31.0645 2.61914C31.6829 2.61914 32.1729 2.83073 32.5342 3.25391V0.5H33.4375V8H32.6074L32.5635 7.43359C32.2021 7.8763 31.6992 8.09766 31.0547 8.09766C30.4427 8.09766 29.943 7.84701 29.5557 7.3457C29.1715 6.8444 28.9795 6.1901 28.9795 5.38281V5.31445ZM29.8828 5.41699C29.8828 6.01595 30.0065 6.4847 30.2539 6.82324C30.5013 7.16178 30.8431 7.33105 31.2793 7.33105C31.8522 7.33105 32.2705 7.07389 32.5342 6.55957V4.13281C32.264 3.63477 31.849 3.38574 31.2891 3.38574C30.8464 3.38574 30.5013 3.55664 30.2539 3.89844C30.0065 4.24023 29.8828 4.74642 29.8828 5.41699ZM34.6045 5.30957C34.6045 4.79199 34.7054 4.3265 34.9072 3.91309C35.1123 3.49967 35.3955 3.18066 35.7568 2.95605C36.1214 2.73145 36.5365 2.61914 37.002 2.61914C37.7214 2.61914 38.3024 2.86816 38.7451 3.36621C39.1911 3.86426 39.4141 4.52669 39.4141 5.35352V5.41699C39.4141 5.93132 39.3148 6.39355 39.1162 6.80371C38.9209 7.21061 38.6393 7.52799 38.2715 7.75586C37.9069 7.98372 37.487 8.09766 37.0117 8.09766C36.2956 8.09766 35.7145 7.84863 35.2686 7.35059C34.8258 6.85254 34.6045 6.19336 34.6045 5.37305V5.30957ZM35.5127 5.41699C35.5127 6.00293 35.6478 6.47331 35.918 6.82812C36.1914 7.18294 36.556 7.36035 37.0117 7.36035C37.4707 7.36035 37.8353 7.18132 38.1055 6.82324C38.3757 6.46191 38.5107 5.95736 38.5107 5.30957C38.5107 4.73014 38.3724 4.26139 38.0957 3.90332C37.8223 3.54199 37.4577 3.36133 37.002 3.36133C36.556 3.36133 36.1963 3.53874 35.9229 3.89355C35.6494 4.24837 35.5127 4.75618 35.5127 5.41699ZM41.3965 2.7168L41.4209 3.30273C41.8083 2.84701 42.3307 2.61914 42.9883 2.61914C43.7272 2.61914 44.2301 2.90234 44.4971 3.46875C44.6729 3.21484 44.9007 3.00977 45.1807 2.85352C45.4639 2.69727 45.7975 2.61914 46.1816 2.61914C47.3405 2.61914 47.9297 3.23275 47.9492 4.45996V8H47.0459V4.51367C47.0459 4.13607 46.9596 3.85449 46.7871 3.66895C46.6146 3.48014 46.3249 3.38574 45.918 3.38574C45.5827 3.38574 45.3044 3.48665 45.083 3.68848C44.8617 3.88704 44.7331 4.1556 44.6973 4.49414V8H43.7891V4.53809C43.7891 3.76986 43.4131 3.38574 42.6611 3.38574C42.0687 3.38574 41.6634 3.63802 41.4453 4.14258V8H40.542V2.7168H41.3965Z" fill="#767676"/>
<path d="M518.95 1.39844L516.006 8H515.059L517.993 1.63281H514.146V0.890625H518.95V1.39844ZM524.287 2.74609C524.287 3.10091 524.193 3.41667 524.004 3.69336C523.818 3.97005 523.566 4.18652 523.247 4.34277C523.618 4.50228 523.911 4.73503 524.126 5.04102C524.344 5.34701 524.453 5.69368 524.453 6.08105C524.453 6.69629 524.245 7.1862 523.828 7.55078C523.415 7.91536 522.869 8.09766 522.192 8.09766C521.509 8.09766 520.96 7.91536 520.547 7.55078C520.137 7.18294 519.932 6.69303 519.932 6.08105C519.932 5.69694 520.036 5.35026 520.244 5.04102C520.456 4.73177 520.747 4.4974 521.118 4.33789C520.802 4.18164 520.553 3.96517 520.371 3.68848C520.189 3.41178 520.098 3.09766 520.098 2.74609C520.098 2.14714 520.29 1.67188 520.674 1.32031C521.058 0.96875 521.564 0.792969 522.192 0.792969C522.817 0.792969 523.322 0.96875 523.706 1.32031C524.093 1.67188 524.287 2.14714 524.287 2.74609ZM523.55 6.06152C523.55 5.66439 523.423 5.34049 523.169 5.08984C522.918 4.83919 522.59 4.71387 522.183 4.71387C521.776 4.71387 521.449 4.83757 521.201 5.08496C520.957 5.33236 520.835 5.65788 520.835 6.06152C520.835 6.46517 520.954 6.78255 521.191 7.01367C521.432 7.24479 521.766 7.36035 522.192 7.36035C522.616 7.36035 522.948 7.24479 523.188 7.01367C523.429 6.7793 523.55 6.46191 523.55 6.06152ZM522.192 1.53516C521.838 1.53516 521.549 1.64583 521.328 1.86719C521.11 2.08529 521.001 2.38314 521.001 2.76074C521.001 3.12207 521.108 3.41504 521.323 3.63965C521.541 3.861 521.831 3.97168 522.192 3.97168C522.554 3.97168 522.842 3.861 523.057 3.63965C523.275 3.41504 523.384 3.12207 523.384 2.76074C523.384 2.39941 523.271 2.10482 523.047 1.87695C522.822 1.64909 522.537 1.53516 522.192 1.53516Z" fill="url(#paint1_linear_577_1434)"/>
<rect y="108" width="439" height="14" rx="4" fill="url(#paint2_linear_577_1434)"/>
<path d="M0.825195 98V90.8906H3.14941C3.9209 90.8906 4.50033 91.0501 4.8877 91.3691C5.27832 91.6882 5.47363 92.1602 5.47363 92.7852C5.47363 93.1172 5.37923 93.4118 5.19043 93.6689C5.00163 93.9229 4.74447 94.1198 4.41895 94.2598C4.80306 94.3672 5.10579 94.5723 5.32715 94.875C5.55176 95.1745 5.66406 95.5326 5.66406 95.9492C5.66406 96.5872 5.45736 97.0885 5.04395 97.4531C4.63053 97.8177 4.04622 98 3.29102 98H0.825195ZM1.7627 94.6748V97.2334H3.31055C3.74674 97.2334 4.09017 97.1211 4.34082 96.8965C4.59473 96.6686 4.72168 96.3561 4.72168 95.959C4.72168 95.1029 4.25618 94.6748 3.3252 94.6748H1.7627ZM1.7627 93.9229H3.17871C3.58887 93.9229 3.91602 93.8203 4.16016 93.6152C4.40755 93.4102 4.53125 93.1318 4.53125 92.7803C4.53125 92.3896 4.41732 92.1064 4.18945 91.9307C3.96159 91.7516 3.61491 91.6621 3.14941 91.6621H1.7627V93.9229ZM10.1758 98C10.1237 97.8958 10.0814 97.7103 10.0488 97.4434C9.62891 97.8796 9.1276 98.0977 8.54492 98.0977C8.02409 98.0977 7.59603 97.9512 7.26074 97.6582C6.92871 97.362 6.7627 96.9876 6.7627 96.5352C6.7627 95.985 6.97103 95.5586 7.3877 95.2559C7.80762 94.9499 8.39681 94.7969 9.15527 94.7969H10.0342V94.3818C10.0342 94.0661 9.93978 93.8154 9.75098 93.6299C9.56217 93.4411 9.28385 93.3467 8.91602 93.3467C8.59375 93.3467 8.32357 93.4281 8.10547 93.5908C7.88737 93.7536 7.77832 93.9505 7.77832 94.1816H6.87012C6.87012 93.918 6.96289 93.6641 7.14844 93.4199C7.33724 93.1725 7.59115 92.9772 7.91016 92.834C8.23242 92.6908 8.58561 92.6191 8.96973 92.6191C9.57845 92.6191 10.0553 92.7721 10.4004 93.0781C10.7454 93.3809 10.9245 93.7992 10.9375 94.333V96.7646C10.9375 97.2497 10.9993 97.6354 11.123 97.9219V98H10.1758ZM8.67676 97.3115C8.95996 97.3115 9.22852 97.2383 9.48242 97.0918C9.73633 96.9453 9.92025 96.7549 10.0342 96.5205V95.4365H9.32617C8.2194 95.4365 7.66602 95.7604 7.66602 96.4082C7.66602 96.6914 7.76042 96.9128 7.94922 97.0723C8.13802 97.2318 8.38053 97.3115 8.67676 97.3115ZM12.1338 95.3145C12.1338 94.5039 12.3258 93.8529 12.71 93.3613C13.0941 92.8665 13.597 92.6191 14.2188 92.6191C14.8372 92.6191 15.3271 92.8307 15.6885 93.2539V90.5H16.5918V98H15.7617L15.7178 97.4336C15.3564 97.8763 14.8535 98.0977 14.209 98.0977C13.597 98.0977 13.0973 97.847 12.71 97.3457C12.3258 96.8444 12.1338 96.1901 12.1338 95.3828V95.3145ZM13.0371 95.417C13.0371 96.016 13.1608 96.4847 13.4082 96.8232C13.6556 97.1618 13.9974 97.3311 14.4336 97.3311C15.0065 97.3311 15.4248 97.0739 15.6885 96.5596V94.1328C15.4183 93.6348 15.0033 93.3857 14.4434 93.3857C14.0007 93.3857 13.6556 93.5566 13.4082 93.8984C13.1608 94.2402 13.0371 94.7464 13.0371 95.417ZM20.6201 98V90.8906H22.9443C23.7158 90.8906 24.2952 91.0501 24.6826 91.3691C25.0732 91.6882 25.2686 92.1602 25.2686 92.7852C25.2686 93.1172 25.1742 93.4118 24.9854 93.6689C24.7965 93.9229 24.5394 94.1198 24.2139 94.2598C24.598 94.3672 24.9007 94.5723 25.1221 94.875C25.3467 95.1745 25.459 95.5326 25.459 95.9492C25.459 96.5872 25.2523 97.0885 24.8389 97.4531C24.4255 97.8177 23.8411 98 23.0859 98H20.6201ZM21.5576 94.6748V97.2334H23.1055C23.5417 97.2334 23.8851 97.1211 24.1357 96.8965C24.3896 96.6686 24.5166 96.3561 24.5166 95.959C24.5166 95.1029 24.0511 94.6748 23.1201 94.6748H21.5576ZM21.5576 93.9229H22.9736C23.3838 93.9229 23.7109 93.8203 23.9551 93.6152C24.2025 93.4102 24.3262 93.1318 24.3262 92.7803C24.3262 92.3896 24.2122 92.1064 23.9844 91.9307C23.7565 91.7516 23.4098 91.6621 22.9443 91.6621H21.5576V93.9229ZM26.4697 95.3096C26.4697 94.792 26.5706 94.3265 26.7725 93.9131C26.9775 93.4997 27.2607 93.1807 27.6221 92.9561C27.9867 92.7314 28.4017 92.6191 28.8672 92.6191C29.5866 92.6191 30.1676 92.8682 30.6104 93.3662C31.0563 93.8643 31.2793 94.5267 31.2793 95.3535V95.417C31.2793 95.9313 31.18 96.3936 30.9814 96.8037C30.7861 97.2106 30.5046 97.528 30.1367 97.7559C29.7721 97.9837 29.3522 98.0977 28.877 98.0977C28.1608 98.0977 27.5798 97.8486 27.1338 97.3506C26.6911 96.8525 26.4697 96.1934 26.4697 95.373V95.3096ZM27.3779 95.417C27.3779 96.0029 27.513 96.4733 27.7832 96.8281C28.0566 97.1829 28.4212 97.3604 28.877 97.3604C29.3359 97.3604 29.7005 97.1813 29.9707 96.8232C30.2409 96.4619 30.376 95.9574 30.376 95.3096C30.376 94.7301 30.2376 94.2614 29.9609 93.9033C29.6875 93.542 29.3229 93.3613 28.8672 93.3613C28.4212 93.3613 28.0615 93.5387 27.7881 93.8936C27.5146 94.2484 27.3779 94.7562 27.3779 95.417ZM34.0625 96.6768L35.293 92.7168H36.2598L34.1357 98.8154C33.807 99.6943 33.2845 100.134 32.5684 100.134L32.3975 100.119L32.0605 100.056V99.3232L32.3047 99.3428C32.6107 99.3428 32.8483 99.2809 33.0176 99.1572C33.1901 99.0335 33.3317 98.8073 33.4424 98.4785L33.6426 97.9414L31.7578 92.7168H32.7441L34.0625 96.6768Z" fill="#767676"/>
<path d="M432.181 91.3984L429.236 98H428.289L431.224 91.6328H427.376V90.8906H432.181V91.3984ZM436.175 98H435.267V91.9795L433.445 92.6484V91.8281L436.033 90.8564H436.175V98Z" fill="url(#paint3_linear_577_1434)"/>
<rect y="288" width="248" height="14" rx="4" fill="url(#paint4_linear_577_1434)"/>
<path d="M0.825195 278V270.891H3.14941C3.9209 270.891 4.50033 271.05 4.8877 271.369C5.27832 271.688 5.47363 272.16 5.47363 272.785C5.47363 273.117 5.37923 273.412 5.19043 273.669C5.00163 273.923 4.74447 274.12 4.41895 274.26C4.80306 274.367 5.10579 274.572 5.32715 274.875C5.55176 275.174 5.66406 275.533 5.66406 275.949C5.66406 276.587 5.45736 277.089 5.04395 277.453C4.63053 277.818 4.04622 278 3.29102 278H0.825195ZM1.7627 274.675V277.233H3.31055C3.74674 277.233 4.09017 277.121 4.34082 276.896C4.59473 276.669 4.72168 276.356 4.72168 275.959C4.72168 275.103 4.25618 274.675 3.3252 274.675H1.7627ZM1.7627 273.923H3.17871C3.58887 273.923 3.91602 273.82 4.16016 273.615C4.40755 273.41 4.53125 273.132 4.53125 272.78C4.53125 272.39 4.41732 272.106 4.18945 271.931C3.96159 271.752 3.61491 271.662 3.14941 271.662H1.7627V273.923ZM10.1758 278C10.1237 277.896 10.0814 277.71 10.0488 277.443C9.62891 277.88 9.1276 278.098 8.54492 278.098C8.02409 278.098 7.59603 277.951 7.26074 277.658C6.92871 277.362 6.7627 276.988 6.7627 276.535C6.7627 275.985 6.97103 275.559 7.3877 275.256C7.80762 274.95 8.39681 274.797 9.15527 274.797H10.0342V274.382C10.0342 274.066 9.93978 273.815 9.75098 273.63C9.56217 273.441 9.28385 273.347 8.91602 273.347C8.59375 273.347 8.32357 273.428 8.10547 273.591C7.88737 273.754 7.77832 273.951 7.77832 274.182H6.87012C6.87012 273.918 6.96289 273.664 7.14844 273.42C7.33724 273.173 7.59115 272.977 7.91016 272.834C8.23242 272.691 8.58561 272.619 8.96973 272.619C9.57845 272.619 10.0553 272.772 10.4004 273.078C10.7454 273.381 10.9245 273.799 10.9375 274.333V276.765C10.9375 277.25 10.9993 277.635 11.123 277.922V278H10.1758ZM8.67676 277.312C8.95996 277.312 9.22852 277.238 9.48242 277.092C9.73633 276.945 9.92025 276.755 10.0342 276.521V275.437H9.32617C8.2194 275.437 7.66602 275.76 7.66602 276.408C7.66602 276.691 7.76042 276.913 7.94922 277.072C8.13802 277.232 8.38053 277.312 8.67676 277.312ZM12.1338 275.314C12.1338 274.504 12.3258 273.853 12.71 273.361C13.0941 272.867 13.597 272.619 14.2188 272.619C14.8372 272.619 15.3271 272.831 15.6885 273.254V270.5H16.5918V278H15.7617L15.7178 277.434C15.3564 277.876 14.8535 278.098 14.209 278.098C13.597 278.098 13.0973 277.847 12.71 277.346C12.3258 276.844 12.1338 276.19 12.1338 275.383V275.314ZM13.0371 275.417C13.0371 276.016 13.1608 276.485 13.4082 276.823C13.6556 277.162 13.9974 277.331 14.4336 277.331C15.0065 277.331 15.4248 277.074 15.6885 276.56V274.133C15.4183 273.635 15.0033 273.386 14.4434 273.386C14.0007 273.386 13.6556 273.557 13.4082 273.898C13.1608 274.24 13.0371 274.746 13.0371 275.417ZM20.6201 278V270.891H22.9443C23.7158 270.891 24.2952 271.05 24.6826 271.369C25.0732 271.688 25.2686 272.16 25.2686 272.785C25.2686 273.117 25.1742 273.412 24.9854 273.669C24.7965 273.923 24.5394 274.12 24.2139 274.26C24.598 274.367 24.9007 274.572 25.1221 274.875C25.3467 275.174 25.459 275.533 25.459 275.949C25.459 276.587 25.2523 277.089 24.8389 277.453C24.4255 277.818 23.8411 278 23.0859 278H20.6201ZM21.5576 274.675V277.233H23.1055C23.5417 277.233 23.8851 277.121 24.1357 276.896C24.3896 276.669 24.5166 276.356 24.5166 275.959C24.5166 275.103 24.0511 274.675 23.1201 274.675H21.5576ZM21.5576 273.923H22.9736C23.3838 273.923 23.7109 273.82 23.9551 273.615C24.2025 273.41 24.3262 273.132 24.3262 272.78C24.3262 272.39 24.2122 272.106 23.9844 271.931C23.7565 271.752 23.4098 271.662 22.9443 271.662H21.5576V273.923ZM26.4697 275.31C26.4697 274.792 26.5706 274.326 26.7725 273.913C26.9775 273.5 27.2607 273.181 27.6221 272.956C27.9867 272.731 28.4017 272.619 28.8672 272.619C29.5866 272.619 30.1676 272.868 30.6104 273.366C31.0563 273.864 31.2793 274.527 31.2793 275.354V275.417C31.2793 275.931 31.18 276.394 30.9814 276.804C30.7861 277.211 30.5046 277.528 30.1367 277.756C29.7721 277.984 29.3522 278.098 28.877 278.098C28.1608 278.098 27.5798 277.849 27.1338 277.351C26.6911 276.853 26.4697 276.193 26.4697 275.373V275.31ZM27.3779 275.417C27.3779 276.003 27.513 276.473 27.7832 276.828C28.0566 277.183 28.4212 277.36 28.877 277.36C29.3359 277.36 29.7005 277.181 29.9707 276.823C30.2409 276.462 30.376 275.957 30.376 275.31C30.376 274.73 30.2376 274.261 29.9609 273.903C29.6875 273.542 29.3229 273.361 28.8672 273.361C28.4212 273.361 28.0615 273.539 27.7881 273.894C27.5146 274.248 27.3779 274.756 27.3779 275.417ZM34.0625 276.677L35.293 272.717H36.2598L34.1357 278.815C33.807 279.694 33.2845 280.134 32.5684 280.134L32.3975 280.119L32.0605 280.056V279.323L32.3047 279.343C32.6107 279.343 32.8483 279.281 33.0176 279.157C33.1901 279.034 33.3317 278.807 33.4424 278.479L33.6426 277.941L31.7578 272.717H32.7441L34.0625 276.677Z" fill="#767676"/>
<rect y="63" width="485" height="14" rx="4" fill="url(#paint5_linear_577_1434)"/>
<path d="M1.7627 50.2168V53H0.825195V45.8906H3.44727C4.22526 45.8906 4.83398 46.0892 5.27344 46.4863C5.71615 46.8835 5.9375 47.4092 5.9375 48.0635C5.9375 48.7536 5.72103 49.2858 5.28809 49.6602C4.8584 50.0312 4.24154 50.2168 3.4375 50.2168H1.7627ZM1.7627 49.4502H3.44727C3.94857 49.4502 4.33268 49.333 4.59961 49.0986C4.86654 48.861 5 48.5192 5 48.0732C5 47.6501 4.86654 47.3115 4.59961 47.0576C4.33268 46.8037 3.96647 46.6719 3.50098 46.6621H1.7627V49.4502ZM10.0684 51.5986C10.0684 51.3545 9.97559 51.1657 9.79004 51.0322C9.60775 50.8955 9.28711 50.7783 8.82812 50.6807C8.3724 50.583 8.00944 50.4658 7.73926 50.3291C7.47233 50.1924 7.27376 50.0296 7.14355 49.8408C7.0166 49.652 6.95312 49.4274 6.95312 49.167C6.95312 48.734 7.13542 48.3678 7.5 48.0684C7.86784 47.7689 8.33659 47.6191 8.90625 47.6191C9.50521 47.6191 9.99023 47.7738 10.3613 48.083C10.7357 48.3923 10.9229 48.7878 10.9229 49.2695H10.0146C10.0146 49.0221 9.90885 48.8089 9.69727 48.6299C9.48893 48.4508 9.22526 48.3613 8.90625 48.3613C8.57747 48.3613 8.32031 48.4329 8.13477 48.5762C7.94922 48.7194 7.85645 48.9066 7.85645 49.1377C7.85645 49.3558 7.94271 49.5202 8.11523 49.6309C8.28776 49.7415 8.59863 49.8473 9.04785 49.9482C9.50033 50.0492 9.86654 50.1696 10.1465 50.3096C10.4264 50.4495 10.6331 50.6188 10.7666 50.8174C10.9033 51.0127 10.9717 51.252 10.9717 51.5352C10.9717 52.0072 10.7829 52.3864 10.4053 52.6729C10.0277 52.9561 9.53776 53.0977 8.93555 53.0977C8.51237 53.0977 8.13802 53.0228 7.8125 52.873C7.48698 52.7233 7.23145 52.515 7.0459 52.248C6.86361 51.9779 6.77246 51.6865 6.77246 51.374H7.67578C7.69206 51.6768 7.8125 51.9176 8.03711 52.0967C8.26497 52.2725 8.56445 52.3604 8.93555 52.3604C9.27734 52.3604 9.55078 52.292 9.75586 52.1553C9.96419 52.0153 10.0684 51.8298 10.0684 51.5986ZM13.877 51.6768L15.1074 47.7168H16.0742L13.9502 53.8154C13.6214 54.6943 13.099 55.1338 12.3828 55.1338L12.2119 55.1191L11.875 55.0557V54.3232L12.1191 54.3428C12.4251 54.3428 12.6628 54.2809 12.832 54.1572C13.0046 54.0335 13.1462 53.8073 13.2568 53.4785L13.457 52.9414L11.5723 47.7168H12.5586L13.877 51.6768ZM18.9355 52.3604C19.2578 52.3604 19.5394 52.2627 19.7803 52.0674C20.0212 51.8721 20.1546 51.6279 20.1807 51.335H21.0352C21.0189 51.6377 20.9147 51.9258 20.7227 52.1992C20.5306 52.4727 20.2734 52.6908 19.9512 52.8535C19.6322 53.0163 19.2936 53.0977 18.9355 53.0977C18.2161 53.0977 17.6432 52.8584 17.2168 52.3799C16.7936 51.8981 16.582 51.2406 16.582 50.4072V50.2559C16.582 49.7415 16.6764 49.2842 16.8652 48.8838C17.054 48.4834 17.3242 48.1725 17.6758 47.9512C18.0306 47.7298 18.4489 47.6191 18.9307 47.6191C19.5231 47.6191 20.0146 47.7965 20.4053 48.1514C20.7992 48.5062 21.0091 48.9668 21.0352 49.5332H20.1807C20.1546 49.1914 20.0244 48.9115 19.79 48.6934C19.5589 48.472 19.2725 48.3613 18.9307 48.3613C18.4717 48.3613 18.1152 48.5273 17.8613 48.8594C17.6107 49.1882 17.4854 49.665 17.4854 50.29V50.4609C17.4854 51.0697 17.6107 51.5384 17.8613 51.8672C18.112 52.196 18.4701 52.3604 18.9355 52.3604ZM22.9541 48.3564C23.3545 47.8649 23.8753 47.6191 24.5166 47.6191C25.6331 47.6191 26.1963 48.249 26.2061 49.5088V53H25.3027V49.5039C25.2995 49.123 25.2116 48.8415 25.0391 48.6592C24.8698 48.4769 24.6045 48.3857 24.2432 48.3857C23.9502 48.3857 23.693 48.4639 23.4717 48.6201C23.2503 48.7764 23.0778 48.9814 22.9541 49.2354V53H22.0508V45.5H22.9541V48.3564ZM27.3193 50.3096C27.3193 49.792 27.4202 49.3265 27.6221 48.9131C27.8271 48.4997 28.1104 48.1807 28.4717 47.9561C28.8363 47.7314 29.2513 47.6191 29.7168 47.6191C30.4362 47.6191 31.0173 47.8682 31.46 48.3662C31.9059 48.8643 32.1289 49.5267 32.1289 50.3535V50.417C32.1289 50.9313 32.0296 51.3936 31.8311 51.8037C31.6357 52.2106 31.3542 52.528 30.9863 52.7559C30.6217 52.9837 30.2018 53.0977 29.7266 53.0977C29.0104 53.0977 28.4294 52.8486 27.9834 52.3506C27.5407 51.8525 27.3193 51.1934 27.3193 50.373V50.3096ZM28.2275 50.417C28.2275 51.0029 28.3626 51.4733 28.6328 51.8281C28.9062 52.1829 29.2708 52.3604 29.7266 52.3604C30.1855 52.3604 30.5501 52.1813 30.8203 51.8232C31.0905 51.4619 31.2256 50.9574 31.2256 50.3096C31.2256 49.7301 31.0872 49.2614 30.8105 48.9033C30.5371 48.542 30.1725 48.3613 29.7168 48.3613C29.2708 48.3613 28.9111 48.5387 28.6377 48.8936C28.3643 49.2484 28.2275 49.7562 28.2275 50.417Z" fill="#767676"/>
<path d="M478.95 46.3984L476.006 53H475.059L477.993 46.6328H474.146V45.8906H478.95V46.3984ZM484.565 46.3984L481.621 53H480.674L483.608 46.6328H479.761V45.8906H484.565V46.3984Z" fill="url(#paint6_linear_577_1434)"/>
<rect y="153" width="387" height="14" rx="4" fill="url(#paint7_linear_577_1434)"/>
<path d="M3.43262 140.124H1.7627V143H0.820312V135.891H3.17383C3.97461 135.891 4.58984 136.073 5.01953 136.438C5.45247 136.802 5.66895 137.333 5.66895 138.029C5.66895 138.472 5.5485 138.858 5.30762 139.187C5.06999 139.515 4.73796 139.761 4.31152 139.924L5.98145 142.941V143H4.97559L3.43262 140.124ZM1.7627 139.357H3.20312C3.66862 139.357 4.03809 139.237 4.31152 138.996C4.58822 138.755 4.72656 138.433 4.72656 138.029C4.72656 137.59 4.59473 137.253 4.33105 137.019C4.07064 136.784 3.69303 136.665 3.19824 136.662H1.7627V139.357ZM10.1074 142.478C9.75586 142.891 9.23991 143.098 8.55957 143.098C7.99642 143.098 7.56673 142.935 7.27051 142.609C6.97754 142.281 6.82943 141.796 6.82617 141.154V137.717H7.72949V141.13C7.72949 141.931 8.05501 142.331 8.70605 142.331C9.39616 142.331 9.85514 142.074 10.083 141.56V137.717H10.9863V143H10.127L10.1074 142.478ZM15.4395 141.599C15.4395 141.354 15.3467 141.166 15.1611 141.032C14.9788 140.896 14.6582 140.778 14.1992 140.681C13.7435 140.583 13.3805 140.466 13.1104 140.329C12.8434 140.192 12.6449 140.03 12.5146 139.841C12.3877 139.652 12.3242 139.427 12.3242 139.167C12.3242 138.734 12.5065 138.368 12.8711 138.068C13.2389 137.769 13.7077 137.619 14.2773 137.619C14.8763 137.619 15.3613 137.774 15.7324 138.083C16.1068 138.392 16.2939 138.788 16.2939 139.27H15.3857C15.3857 139.022 15.2799 138.809 15.0684 138.63C14.86 138.451 14.5964 138.361 14.2773 138.361C13.9486 138.361 13.6914 138.433 13.5059 138.576C13.3203 138.719 13.2275 138.907 13.2275 139.138C13.2275 139.356 13.3138 139.52 13.4863 139.631C13.6589 139.742 13.9697 139.847 14.4189 139.948C14.8714 140.049 15.2376 140.17 15.5176 140.31C15.7975 140.45 16.0042 140.619 16.1377 140.817C16.2744 141.013 16.3428 141.252 16.3428 141.535C16.3428 142.007 16.154 142.386 15.7764 142.673C15.3988 142.956 14.9089 143.098 14.3066 143.098C13.8835 143.098 13.5091 143.023 13.1836 142.873C12.8581 142.723 12.6025 142.515 12.417 142.248C12.2347 141.978 12.1436 141.687 12.1436 141.374H13.0469C13.0632 141.677 13.1836 141.918 13.4082 142.097C13.6361 142.272 13.9355 142.36 14.3066 142.36C14.6484 142.36 14.9219 142.292 15.127 142.155C15.3353 142.015 15.4395 141.83 15.4395 141.599ZM20.5957 141.599C20.5957 141.354 20.5029 141.166 20.3174 141.032C20.1351 140.896 19.8145 140.778 19.3555 140.681C18.8997 140.583 18.5368 140.466 18.2666 140.329C17.9997 140.192 17.8011 140.03 17.6709 139.841C17.5439 139.652 17.4805 139.427 17.4805 139.167C17.4805 138.734 17.6628 138.368 18.0273 138.068C18.3952 137.769 18.8639 137.619 19.4336 137.619C20.0326 137.619 20.5176 137.774 20.8887 138.083C21.263 138.392 21.4502 138.788 21.4502 139.27H20.542C20.542 139.022 20.4362 138.809 20.2246 138.63C20.0163 138.451 19.7526 138.361 19.4336 138.361C19.1048 138.361 18.8477 138.433 18.6621 138.576C18.4766 138.719 18.3838 138.907 18.3838 139.138C18.3838 139.356 18.4701 139.52 18.6426 139.631C18.8151 139.742 19.126 139.847 19.5752 139.948C20.0277 140.049 20.3939 140.17 20.6738 140.31C20.9538 140.45 21.1605 140.619 21.2939 140.817C21.4307 141.013 21.499 141.252 21.499 141.535C21.499 142.007 21.3102 142.386 20.9326 142.673C20.555 142.956 20.0651 143.098 19.4629 143.098C19.0397 143.098 18.6654 143.023 18.3398 142.873C18.0143 142.723 17.7588 142.515 17.5732 142.248C17.391 141.978 17.2998 141.687 17.2998 141.374H18.2031C18.2194 141.677 18.3398 141.918 18.5645 142.097C18.7923 142.272 19.0918 142.36 19.4629 142.36C19.8047 142.36 20.0781 142.292 20.2832 142.155C20.4915 142.015 20.5957 141.83 20.5957 141.599ZM23.6572 143H22.7539V137.717H23.6572V143ZM22.6807 136.315C22.6807 136.169 22.7246 136.045 22.8125 135.944C22.9036 135.843 23.0371 135.793 23.2129 135.793C23.3887 135.793 23.5221 135.843 23.6133 135.944C23.7044 136.045 23.75 136.169 23.75 136.315C23.75 136.462 23.7044 136.584 23.6133 136.682C23.5221 136.779 23.3887 136.828 23.2129 136.828C23.0371 136.828 22.9036 136.779 22.8125 136.682C22.7246 136.584 22.6807 136.462 22.6807 136.315ZM28.3691 143C28.3171 142.896 28.2747 142.71 28.2422 142.443C27.8223 142.88 27.321 143.098 26.7383 143.098C26.2174 143.098 25.7894 142.951 25.4541 142.658C25.1221 142.362 24.9561 141.988 24.9561 141.535C24.9561 140.985 25.1644 140.559 25.5811 140.256C26.001 139.95 26.5902 139.797 27.3486 139.797H28.2275V139.382C28.2275 139.066 28.1331 138.815 27.9443 138.63C27.7555 138.441 27.4772 138.347 27.1094 138.347C26.7871 138.347 26.5169 138.428 26.2988 138.591C26.0807 138.754 25.9717 138.951 25.9717 139.182H25.0635C25.0635 138.918 25.1562 138.664 25.3418 138.42C25.5306 138.173 25.7845 137.977 26.1035 137.834C26.4258 137.691 26.779 137.619 27.1631 137.619C27.7718 137.619 28.2487 137.772 28.5938 138.078C28.9388 138.381 29.1178 138.799 29.1309 139.333V141.765C29.1309 142.25 29.1927 142.635 29.3164 142.922V143H28.3691ZM26.8701 142.312C27.1533 142.312 27.4219 142.238 27.6758 142.092C27.9297 141.945 28.1136 141.755 28.2275 141.521V140.437H27.5195C26.4128 140.437 25.8594 140.76 25.8594 141.408C25.8594 141.691 25.9538 141.913 26.1426 142.072C26.3314 142.232 26.5739 142.312 26.8701 142.312ZM31.4014 137.717L31.4307 138.381C31.8343 137.873 32.3617 137.619 33.0127 137.619C34.1292 137.619 34.6924 138.249 34.7021 139.509V143H33.7988V139.504C33.7956 139.123 33.7077 138.841 33.5352 138.659C33.3659 138.477 33.1006 138.386 32.7393 138.386C32.4463 138.386 32.1891 138.464 31.9678 138.62C31.7464 138.776 31.5739 138.981 31.4502 139.235V143H30.5469V137.717H31.4014ZM41.2939 140.124H39.624V143H38.6816V135.891H41.0352C41.8359 135.891 42.4512 136.073 42.8809 136.438C43.3138 136.802 43.5303 137.333 43.5303 138.029C43.5303 138.472 43.4098 138.858 43.1689 139.187C42.9313 139.515 42.5993 139.761 42.1729 139.924L43.8428 142.941V143H42.8369L41.2939 140.124ZM39.624 139.357H41.0645C41.5299 139.357 41.8994 139.237 42.1729 138.996C42.4495 138.755 42.5879 138.433 42.5879 138.029C42.5879 137.59 42.4561 137.253 42.1924 137.019C41.932 136.784 41.5544 136.665 41.0596 136.662H39.624V139.357ZM44.4678 140.31C44.4678 139.792 44.5687 139.326 44.7705 138.913C44.9756 138.5 45.2588 138.181 45.6201 137.956C45.9847 137.731 46.3997 137.619 46.8652 137.619C47.5846 137.619 48.1657 137.868 48.6084 138.366C49.0544 138.864 49.2773 139.527 49.2773 140.354V140.417C49.2773 140.931 49.1781 141.394 48.9795 141.804C48.7842 142.211 48.5026 142.528 48.1348 142.756C47.7702 142.984 47.3503 143.098 46.875 143.098C46.1589 143.098 45.5778 142.849 45.1318 142.351C44.6891 141.853 44.4678 141.193 44.4678 140.373V140.31ZM45.376 140.417C45.376 141.003 45.5111 141.473 45.7812 141.828C46.0547 142.183 46.4193 142.36 46.875 142.36C47.334 142.36 47.6986 142.181 47.9688 141.823C48.2389 141.462 48.374 140.957 48.374 140.31C48.374 139.73 48.2357 139.261 47.959 138.903C47.6855 138.542 47.321 138.361 46.8652 138.361C46.4193 138.361 46.0596 138.539 45.7861 138.894C45.5127 139.248 45.376 139.756 45.376 140.417ZM53.6719 142.478C53.3203 142.891 52.8044 143.098 52.124 143.098C51.5609 143.098 51.1312 142.935 50.835 142.609C50.542 142.281 50.3939 141.796 50.3906 141.154V137.717H51.2939V141.13C51.2939 141.931 51.6195 142.331 52.2705 142.331C52.9606 142.331 53.4196 142.074 53.6475 141.56V137.717H54.5508V143H53.6914L53.6719 142.478ZM56.9092 143H56.0059V135.5H56.9092V143ZM60.5518 143.098C59.8356 143.098 59.2529 142.863 58.8037 142.395C58.3545 141.923 58.1299 141.293 58.1299 140.505V140.339C58.1299 139.815 58.2292 139.348 58.4277 138.938C58.6296 138.524 58.9095 138.202 59.2676 137.971C59.6289 137.736 60.0195 137.619 60.4395 137.619C61.1263 137.619 61.6602 137.845 62.041 138.298C62.4219 138.75 62.6123 139.398 62.6123 140.241V140.617H59.0332C59.0462 141.138 59.1976 141.56 59.4873 141.882C59.7803 142.201 60.1514 142.36 60.6006 142.36C60.9196 142.36 61.1898 142.295 61.4111 142.165C61.6325 142.035 61.8262 141.862 61.9922 141.647L62.5439 142.077C62.1012 142.757 61.4372 143.098 60.5518 143.098ZM60.4395 138.361C60.0749 138.361 59.7689 138.495 59.5215 138.762C59.2741 139.025 59.1211 139.396 59.0625 139.875H61.709V139.807C61.6829 139.348 61.5592 138.993 61.3379 138.742C61.1165 138.488 60.8171 138.361 60.4395 138.361ZM64.8877 136.438V137.717H65.874V138.415H64.8877V141.691C64.8877 141.903 64.9316 142.062 65.0195 142.17C65.1074 142.274 65.2572 142.326 65.4688 142.326C65.5729 142.326 65.7161 142.307 65.8984 142.268V143C65.6608 143.065 65.4297 143.098 65.2051 143.098C64.8014 143.098 64.4971 142.976 64.292 142.731C64.0869 142.487 63.9844 142.141 63.9844 141.691V138.415H63.0225V137.717H63.9844V136.438H64.8877ZM68.1592 136.438V137.717H69.1455V138.415H68.1592V141.691C68.1592 141.903 68.2031 142.062 68.291 142.17C68.3789 142.274 68.5286 142.326 68.7402 142.326C68.8444 142.326 68.9876 142.307 69.1699 142.268V143C68.9323 143.065 68.7012 143.098 68.4766 143.098C68.0729 143.098 67.7686 142.976 67.5635 142.731C67.3584 142.487 67.2559 142.141 67.2559 141.691V138.415H66.2939V137.717H67.2559V136.438H68.1592ZM72.3975 143.098C71.6813 143.098 71.0986 142.863 70.6494 142.395C70.2002 141.923 69.9756 141.293 69.9756 140.505V140.339C69.9756 139.815 70.0749 139.348 70.2734 138.938C70.4753 138.524 70.7552 138.202 71.1133 137.971C71.4746 137.736 71.8652 137.619 72.2852 137.619C72.972 137.619 73.5059 137.845 73.8867 138.298C74.2676 138.75 74.458 139.398 74.458 140.241V140.617H70.8789C70.8919 141.138 71.0433 141.56 71.333 141.882C71.626 142.201 71.9971 142.36 72.4463 142.36C72.7653 142.36 73.0355 142.295 73.2568 142.165C73.4782 142.035 73.6719 141.862 73.8379 141.647L74.3896 142.077C73.9469 142.757 73.2829 143.098 72.3975 143.098ZM72.2852 138.361C71.9206 138.361 71.6146 138.495 71.3672 138.762C71.1198 139.025 70.9668 139.396 70.9082 139.875H73.5547V139.807C73.5286 139.348 73.4049 138.993 73.1836 138.742C72.9622 138.488 72.6628 138.361 72.2852 138.361Z" fill="#767676"/>
<path d="M379.905 135.886V136.652H379.739C379.036 136.665 378.476 136.874 378.06 137.277C377.643 137.681 377.402 138.249 377.337 138.981C377.711 138.552 378.222 138.337 378.87 138.337C379.489 138.337 379.982 138.555 380.35 138.991C380.721 139.427 380.906 139.991 380.906 140.681C380.906 141.413 380.706 141.999 380.306 142.438C379.909 142.878 379.375 143.098 378.704 143.098C378.024 143.098 377.472 142.837 377.049 142.316C376.626 141.792 376.414 141.118 376.414 140.295V139.948C376.414 138.64 376.692 137.64 377.249 136.95C377.809 136.257 378.641 135.902 379.744 135.886H379.905ZM378.719 139.089C378.41 139.089 378.125 139.182 377.864 139.367C377.604 139.553 377.423 139.785 377.322 140.065V140.397C377.322 140.983 377.454 141.455 377.718 141.813C377.981 142.172 378.31 142.351 378.704 142.351C379.111 142.351 379.43 142.201 379.661 141.901C379.896 141.602 380.013 141.21 380.013 140.725C380.013 140.236 379.894 139.842 379.656 139.543C379.422 139.24 379.109 139.089 378.719 139.089ZM385.438 139.875C385.249 140.1 385.022 140.28 384.759 140.417C384.498 140.554 384.212 140.622 383.899 140.622C383.489 140.622 383.131 140.521 382.825 140.319C382.522 140.118 382.288 139.834 382.122 139.47C381.956 139.102 381.873 138.697 381.873 138.254C381.873 137.779 381.963 137.351 382.142 136.97C382.324 136.589 382.581 136.298 382.913 136.096C383.245 135.894 383.632 135.793 384.075 135.793C384.778 135.793 385.332 136.057 385.735 136.584C386.142 137.108 386.346 137.824 386.346 138.732V138.996C386.346 140.38 386.072 141.39 385.525 142.028C384.979 142.663 384.153 142.989 383.05 143.005H382.874V142.243H383.064C383.81 142.23 384.383 142.036 384.783 141.662C385.184 141.285 385.402 140.689 385.438 139.875ZM384.046 139.875C384.349 139.875 384.627 139.782 384.881 139.597C385.138 139.411 385.325 139.182 385.442 138.908V138.547C385.442 137.954 385.314 137.473 385.057 137.102C384.799 136.73 384.474 136.545 384.08 136.545C383.683 136.545 383.364 136.698 383.123 137.004C382.882 137.307 382.762 137.707 382.762 138.205C382.762 138.69 382.877 139.09 383.108 139.406C383.343 139.719 383.655 139.875 384.046 139.875Z" fill="url(#paint8_linear_577_1434)"/>
<rect y="333" width="211" height="14" rx="4" fill="url(#paint9_linear_577_1434)"/>
<path d="M3.43262 320.124H1.7627V323H0.820312V315.891H3.17383C3.97461 315.891 4.58984 316.073 5.01953 316.438C5.45247 316.802 5.66895 317.333 5.66895 318.029C5.66895 318.472 5.5485 318.858 5.30762 319.187C5.06999 319.515 4.73796 319.761 4.31152 319.924L5.98145 322.941V323H4.97559L3.43262 320.124ZM1.7627 319.357H3.20312C3.66862 319.357 4.03809 319.237 4.31152 318.996C4.58822 318.755 4.72656 318.433 4.72656 318.029C4.72656 317.59 4.59473 317.253 4.33105 317.019C4.07064 316.784 3.69303 316.665 3.19824 316.662H1.7627V319.357ZM10.1074 322.478C9.75586 322.891 9.23991 323.098 8.55957 323.098C7.99642 323.098 7.56673 322.935 7.27051 322.609C6.97754 322.281 6.82943 321.796 6.82617 321.154V317.717H7.72949V321.13C7.72949 321.931 8.05501 322.331 8.70605 322.331C9.39616 322.331 9.85514 322.074 10.083 321.56V317.717H10.9863V323H10.127L10.1074 322.478ZM15.4395 321.599C15.4395 321.354 15.3467 321.166 15.1611 321.032C14.9788 320.896 14.6582 320.778 14.1992 320.681C13.7435 320.583 13.3805 320.466 13.1104 320.329C12.8434 320.192 12.6449 320.03 12.5146 319.841C12.3877 319.652 12.3242 319.427 12.3242 319.167C12.3242 318.734 12.5065 318.368 12.8711 318.068C13.2389 317.769 13.7077 317.619 14.2773 317.619C14.8763 317.619 15.3613 317.774 15.7324 318.083C16.1068 318.392 16.2939 318.788 16.2939 319.27H15.3857C15.3857 319.022 15.2799 318.809 15.0684 318.63C14.86 318.451 14.5964 318.361 14.2773 318.361C13.9486 318.361 13.6914 318.433 13.5059 318.576C13.3203 318.719 13.2275 318.907 13.2275 319.138C13.2275 319.356 13.3138 319.52 13.4863 319.631C13.6589 319.742 13.9697 319.847 14.4189 319.948C14.8714 320.049 15.2376 320.17 15.5176 320.31C15.7975 320.45 16.0042 320.619 16.1377 320.817C16.2744 321.013 16.3428 321.252 16.3428 321.535C16.3428 322.007 16.154 322.386 15.7764 322.673C15.3988 322.956 14.9089 323.098 14.3066 323.098C13.8835 323.098 13.5091 323.023 13.1836 322.873C12.8581 322.723 12.6025 322.515 12.417 322.248C12.2347 321.978 12.1436 321.687 12.1436 321.374H13.0469C13.0632 321.677 13.1836 321.918 13.4082 322.097C13.6361 322.272 13.9355 322.36 14.3066 322.36C14.6484 322.36 14.9219 322.292 15.127 322.155C15.3353 322.015 15.4395 321.83 15.4395 321.599ZM20.5957 321.599C20.5957 321.354 20.5029 321.166 20.3174 321.032C20.1351 320.896 19.8145 320.778 19.3555 320.681C18.8997 320.583 18.5368 320.466 18.2666 320.329C17.9997 320.192 17.8011 320.03 17.6709 319.841C17.5439 319.652 17.4805 319.427 17.4805 319.167C17.4805 318.734 17.6628 318.368 18.0273 318.068C18.3952 317.769 18.8639 317.619 19.4336 317.619C20.0326 317.619 20.5176 317.774 20.8887 318.083C21.263 318.392 21.4502 318.788 21.4502 319.27H20.542C20.542 319.022 20.4362 318.809 20.2246 318.63C20.0163 318.451 19.7526 318.361 19.4336 318.361C19.1048 318.361 18.8477 318.433 18.6621 318.576C18.4766 318.719 18.3838 318.907 18.3838 319.138C18.3838 319.356 18.4701 319.52 18.6426 319.631C18.8151 319.742 19.126 319.847 19.5752 319.948C20.0277 320.049 20.3939 320.17 20.6738 320.31C20.9538 320.45 21.1605 320.619 21.2939 320.817C21.4307 321.013 21.499 321.252 21.499 321.535C21.499 322.007 21.3102 322.386 20.9326 322.673C20.555 322.956 20.0651 323.098 19.4629 323.098C19.0397 323.098 18.6654 323.023 18.3398 322.873C18.0143 322.723 17.7588 322.515 17.5732 322.248C17.391 321.978 17.2998 321.687 17.2998 321.374H18.2031C18.2194 321.677 18.3398 321.918 18.5645 322.097C18.7923 322.272 19.0918 322.36 19.4629 322.36C19.8047 322.36 20.0781 322.292 20.2832 322.155C20.4915 322.015 20.5957 321.83 20.5957 321.599ZM23.6572 323H22.7539V317.717H23.6572V323ZM22.6807 316.315C22.6807 316.169 22.7246 316.045 22.8125 315.944C22.9036 315.843 23.0371 315.793 23.2129 315.793C23.3887 315.793 23.5221 315.843 23.6133 315.944C23.7044 316.045 23.75 316.169 23.75 316.315C23.75 316.462 23.7044 316.584 23.6133 316.682C23.5221 316.779 23.3887 316.828 23.2129 316.828C23.0371 316.828 22.9036 316.779 22.8125 316.682C22.7246 316.584 22.6807 316.462 22.6807 316.315ZM28.3691 323C28.3171 322.896 28.2747 322.71 28.2422 322.443C27.8223 322.88 27.321 323.098 26.7383 323.098C26.2174 323.098 25.7894 322.951 25.4541 322.658C25.1221 322.362 24.9561 321.988 24.9561 321.535C24.9561 320.985 25.1644 320.559 25.5811 320.256C26.001 319.95 26.5902 319.797 27.3486 319.797H28.2275V319.382C28.2275 319.066 28.1331 318.815 27.9443 318.63C27.7555 318.441 27.4772 318.347 27.1094 318.347C26.7871 318.347 26.5169 318.428 26.2988 318.591C26.0807 318.754 25.9717 318.951 25.9717 319.182H25.0635C25.0635 318.918 25.1562 318.664 25.3418 318.42C25.5306 318.173 25.7845 317.977 26.1035 317.834C26.4258 317.691 26.779 317.619 27.1631 317.619C27.7718 317.619 28.2487 317.772 28.5938 318.078C28.9388 318.381 29.1178 318.799 29.1309 319.333V321.765C29.1309 322.25 29.1927 322.635 29.3164 322.922V323H28.3691ZM26.8701 322.312C27.1533 322.312 27.4219 322.238 27.6758 322.092C27.9297 321.945 28.1136 321.755 28.2275 321.521V320.437H27.5195C26.4128 320.437 25.8594 320.76 25.8594 321.408C25.8594 321.691 25.9538 321.913 26.1426 322.072C26.3314 322.232 26.5739 322.312 26.8701 322.312ZM31.4014 317.717L31.4307 318.381C31.8343 317.873 32.3617 317.619 33.0127 317.619C34.1292 317.619 34.6924 318.249 34.7021 319.509V323H33.7988V319.504C33.7956 319.123 33.7077 318.841 33.5352 318.659C33.3659 318.477 33.1006 318.386 32.7393 318.386C32.4463 318.386 32.1891 318.464 31.9678 318.62C31.7464 318.776 31.5739 318.981 31.4502 319.235V323H30.5469V317.717H31.4014ZM41.2939 320.124H39.624V323H38.6816V315.891H41.0352C41.8359 315.891 42.4512 316.073 42.8809 316.438C43.3138 316.802 43.5303 317.333 43.5303 318.029C43.5303 318.472 43.4098 318.858 43.1689 319.187C42.9313 319.515 42.5993 319.761 42.1729 319.924L43.8428 322.941V323H42.8369L41.2939 320.124ZM39.624 319.357H41.0645C41.5299 319.357 41.8994 319.237 42.1729 318.996C42.4495 318.755 42.5879 318.433 42.5879 318.029C42.5879 317.59 42.4561 317.253 42.1924 317.019C41.932 316.784 41.5544 316.665 41.0596 316.662H39.624V319.357ZM44.4678 320.31C44.4678 319.792 44.5687 319.326 44.7705 318.913C44.9756 318.5 45.2588 318.181 45.6201 317.956C45.9847 317.731 46.3997 317.619 46.8652 317.619C47.5846 317.619 48.1657 317.868 48.6084 318.366C49.0544 318.864 49.2773 319.527 49.2773 320.354V320.417C49.2773 320.931 49.1781 321.394 48.9795 321.804C48.7842 322.211 48.5026 322.528 48.1348 322.756C47.7702 322.984 47.3503 323.098 46.875 323.098C46.1589 323.098 45.5778 322.849 45.1318 322.351C44.6891 321.853 44.4678 321.193 44.4678 320.373V320.31ZM45.376 320.417C45.376 321.003 45.5111 321.473 45.7812 321.828C46.0547 322.183 46.4193 322.36 46.875 322.36C47.334 322.36 47.6986 322.181 47.9688 321.823C48.2389 321.462 48.374 320.957 48.374 320.31C48.374 319.73 48.2357 319.261 47.959 318.903C47.6855 318.542 47.321 318.361 46.8652 318.361C46.4193 318.361 46.0596 318.539 45.7861 318.894C45.5127 319.248 45.376 319.756 45.376 320.417ZM53.6719 322.478C53.3203 322.891 52.8044 323.098 52.124 323.098C51.5609 323.098 51.1312 322.935 50.835 322.609C50.542 322.281 50.3939 321.796 50.3906 321.154V317.717H51.2939V321.13C51.2939 321.931 51.6195 322.331 52.2705 322.331C52.9606 322.331 53.4196 322.074 53.6475 321.56V317.717H54.5508V323H53.6914L53.6719 322.478ZM56.9092 323H56.0059V315.5H56.9092V323ZM60.5518 323.098C59.8356 323.098 59.2529 322.863 58.8037 322.395C58.3545 321.923 58.1299 321.293 58.1299 320.505V320.339C58.1299 319.815 58.2292 319.348 58.4277 318.938C58.6296 318.524 58.9095 318.202 59.2676 317.971C59.6289 317.736 60.0195 317.619 60.4395 317.619C61.1263 317.619 61.6602 317.845 62.041 318.298C62.4219 318.75 62.6123 319.398 62.6123 320.241V320.617H59.0332C59.0462 321.138 59.1976 321.56 59.4873 321.882C59.7803 322.201 60.1514 322.36 60.6006 322.36C60.9196 322.36 61.1898 322.295 61.4111 322.165C61.6325 322.035 61.8262 321.862 61.9922 321.647L62.5439 322.077C62.1012 322.757 61.4372 323.098 60.5518 323.098ZM60.4395 318.361C60.0749 318.361 59.7689 318.495 59.5215 318.762C59.2741 319.025 59.1211 319.396 59.0625 319.875H61.709V319.807C61.6829 319.348 61.5592 318.993 61.3379 318.742C61.1165 318.488 60.8171 318.361 60.4395 318.361ZM64.8877 316.438V317.717H65.874V318.415H64.8877V321.691C64.8877 321.903 64.9316 322.062 65.0195 322.17C65.1074 322.274 65.2572 322.326 65.4688 322.326C65.5729 322.326 65.7161 322.307 65.8984 322.268V323C65.6608 323.065 65.4297 323.098 65.2051 323.098C64.8014 323.098 64.4971 322.976 64.292 322.731C64.0869 322.487 63.9844 322.141 63.9844 321.691V318.415H63.0225V317.717H63.9844V316.438H64.8877ZM68.1592 316.438V317.717H69.1455V318.415H68.1592V321.691C68.1592 321.903 68.2031 322.062 68.291 322.17C68.3789 322.274 68.5286 322.326 68.7402 322.326C68.8444 322.326 68.9876 322.307 69.1699 322.268V323C68.9323 323.065 68.7012 323.098 68.4766 323.098C68.0729 323.098 67.7686 322.976 67.5635 322.731C67.3584 322.487 67.2559 322.141 67.2559 321.691V318.415H66.2939V317.717H67.2559V316.438H68.1592ZM72.3975 323.098C71.6813 323.098 71.0986 322.863 70.6494 322.395C70.2002 321.923 69.9756 321.293 69.9756 320.505V320.339C69.9756 319.815 70.0749 319.348 70.2734 318.938C70.4753 318.524 70.7552 318.202 71.1133 317.971C71.4746 317.736 71.8652 317.619 72.2852 317.619C72.972 317.619 73.5059 317.845 73.8867 318.298C74.2676 318.75 74.458 319.398 74.458 320.241V320.617H70.8789C70.8919 321.138 71.0433 321.56 71.333 321.882C71.626 322.201 71.9971 322.36 72.4463 322.36C72.7653 322.36 73.0355 322.295 73.2568 322.165C73.4782 322.035 73.6719 321.862 73.8379 321.647L74.3896 322.077C73.9469 322.757 73.2829 323.098 72.3975 323.098ZM72.2852 318.361C71.9206 318.361 71.6146 318.495 71.3672 318.762C71.1198 319.025 70.9668 319.396 70.9082 319.875H73.5547V319.807C73.5286 319.348 73.4049 318.993 73.1836 318.742C72.9622 318.488 72.6628 318.361 72.2852 318.361Z" fill="#767676"/>
<rect y="198" width="342" height="14" rx="4" fill="url(#paint10_linear_577_1434)"/>
<path d="M1.7627 185.217V188H0.825195V180.891H3.44727C4.22526 180.891 4.83398 181.089 5.27344 181.486C5.71615 181.883 5.9375 182.409 5.9375 183.063C5.9375 183.754 5.72103 184.286 5.28809 184.66C4.8584 185.031 4.24154 185.217 3.4375 185.217H1.7627ZM1.7627 184.45H3.44727C3.94857 184.45 4.33268 184.333 4.59961 184.099C4.86654 183.861 5 183.519 5 183.073C5 182.65 4.86654 182.312 4.59961 182.058C4.33268 181.804 3.96647 181.672 3.50098 181.662H1.7627V184.45ZM9.11621 188.098C8.40007 188.098 7.81738 187.863 7.36816 187.395C6.91895 186.923 6.69434 186.293 6.69434 185.505V185.339C6.69434 184.815 6.79362 184.348 6.99219 183.938C7.19401 183.524 7.47396 183.202 7.83203 182.971C8.19336 182.736 8.58398 182.619 9.00391 182.619C9.69076 182.619 10.2246 182.845 10.6055 183.298C10.9863 183.75 11.1768 184.398 11.1768 185.241V185.617H7.59766C7.61068 186.138 7.76204 186.56 8.05176 186.882C8.34473 187.201 8.71582 187.36 9.16504 187.36C9.48405 187.36 9.75423 187.295 9.97559 187.165C10.1969 187.035 10.3906 186.862 10.5566 186.647L11.1084 187.077C10.6657 187.757 10.0016 188.098 9.11621 188.098ZM9.00391 183.361C8.63932 183.361 8.33333 183.495 8.08594 183.762C7.83854 184.025 7.68555 184.396 7.62695 184.875H10.2734V184.807C10.2474 184.348 10.1237 183.993 9.90234 183.742C9.68099 183.488 9.38151 183.361 9.00391 183.361ZM14.4189 188.098C13.7028 188.098 13.1201 187.863 12.6709 187.395C12.2217 186.923 11.9971 186.293 11.9971 185.505V185.339C11.9971 184.815 12.0964 184.348 12.2949 183.938C12.4967 183.524 12.7767 183.202 13.1348 182.971C13.4961 182.736 13.8867 182.619 14.3066 182.619C14.9935 182.619 15.5273 182.845 15.9082 183.298C16.2891 183.75 16.4795 184.398 16.4795 185.241V185.617H12.9004C12.9134 186.138 13.0648 186.56 13.3545 186.882C13.6475 187.201 14.0186 187.36 14.4678 187.36C14.7868 187.36 15.057 187.295 15.2783 187.165C15.4997 187.035 15.6934 186.862 15.8594 186.647L16.4111 187.077C15.9684 187.757 15.3044 188.098 14.4189 188.098ZM14.3066 183.361C13.9421 183.361 13.6361 183.495 13.3887 183.762C13.1413 184.025 12.9883 184.396 12.9297 184.875H15.5762V184.807C15.5501 184.348 15.4264 183.993 15.2051 183.742C14.9837 183.488 14.6842 183.361 14.3066 183.361ZM19.0039 185.554L18.4375 186.145V188H17.5342V180.5H18.4375V185.036L18.9209 184.455L20.5664 182.717H21.665L19.6094 184.924L21.9043 188H20.8447L19.0039 185.554ZM24.4775 185.349H22.0947V184.611H24.4775V185.349ZM29.4287 186.145H26.4502L25.7812 188H24.8145L27.5293 180.891H28.3496L31.0693 188H30.1074L29.4287 186.145ZM26.7334 185.373H29.1504L27.9395 182.048L26.7334 185.373ZM33.7646 185.349H31.3818V184.611H33.7646V185.349ZM34.79 188V180.891H37.1143C37.8857 180.891 38.4652 181.05 38.8525 181.369C39.2432 181.688 39.4385 182.16 39.4385 182.785C39.4385 183.117 39.3441 183.412 39.1553 183.669C38.9665 183.923 38.7093 184.12 38.3838 184.26C38.7679 184.367 39.0706 184.572 39.292 184.875C39.5166 185.174 39.6289 185.533 39.6289 185.949C39.6289 186.587 39.4222 187.089 39.0088 187.453C38.5954 187.818 38.0111 188 37.2559 188H34.79ZM35.7275 184.675V187.233H37.2754C37.7116 187.233 38.055 187.121 38.3057 186.896C38.5596 186.669 38.6865 186.356 38.6865 185.959C38.6865 185.103 38.221 184.675 37.29 184.675H35.7275ZM35.7275 183.923H37.1436C37.5537 183.923 37.8809 183.82 38.125 183.615C38.3724 183.41 38.4961 183.132 38.4961 182.78C38.4961 182.39 38.3822 182.106 38.1543 181.931C37.9264 181.752 37.5798 181.662 37.1143 181.662H35.7275V183.923ZM40.6396 185.31C40.6396 184.792 40.7406 184.326 40.9424 183.913C41.1475 183.5 41.4307 183.181 41.792 182.956C42.1566 182.731 42.5716 182.619 43.0371 182.619C43.7565 182.619 44.3376 182.868 44.7803 183.366C45.2262 183.864 45.4492 184.527 45.4492 185.354V185.417C45.4492 185.931 45.3499 186.394 45.1514 186.804C44.9561 187.211 44.6745 187.528 44.3066 187.756C43.9421 187.984 43.5221 188.098 43.0469 188.098C42.3307 188.098 41.7497 187.849 41.3037 187.351C40.861 186.853 40.6396 186.193 40.6396 185.373V185.31ZM41.5479 185.417C41.5479 186.003 41.6829 186.473 41.9531 186.828C42.2266 187.183 42.5911 187.36 43.0469 187.36C43.5059 187.36 43.8704 187.181 44.1406 186.823C44.4108 186.462 44.5459 185.957 44.5459 185.31C44.5459 184.73 44.4076 184.261 44.1309 183.903C43.8574 183.542 43.4928 183.361 43.0371 183.361C42.5911 183.361 42.2314 183.539 41.958 183.894C41.6846 184.248 41.5479 184.756 41.5479 185.417ZM46.3428 185.31C46.3428 184.792 46.4437 184.326 46.6455 183.913C46.8506 183.5 47.1338 183.181 47.4951 182.956C47.8597 182.731 48.2747 182.619 48.7402 182.619C49.4596 182.619 50.0407 182.868 50.4834 183.366C50.9294 183.864 51.1523 184.527 51.1523 185.354V185.417C51.1523 185.931 51.0531 186.394 50.8545 186.804C50.6592 187.211 50.3776 187.528 50.0098 187.756C49.6452 187.984 49.2253 188.098 48.75 188.098C48.0339 188.098 47.4528 187.849 47.0068 187.351C46.5641 186.853 46.3428 186.193 46.3428 185.373V185.31ZM47.251 185.417C47.251 186.003 47.3861 186.473 47.6562 186.828C47.9297 187.183 48.2943 187.36 48.75 187.36C49.209 187.36 49.5736 187.181 49.8438 186.823C50.1139 186.462 50.249 185.957 50.249 185.31C50.249 184.73 50.1107 184.261 49.834 183.903C49.5605 183.542 49.196 183.361 48.7402 183.361C48.2943 183.361 47.9346 183.539 47.6611 183.894C47.3877 184.248 47.251 184.756 47.251 185.417Z" fill="#767676"/>
<path d="M334.905 180.886V181.652H334.739C334.036 181.665 333.476 181.874 333.06 182.277C332.643 182.681 332.402 183.249 332.337 183.981C332.711 183.552 333.222 183.337 333.87 183.337C334.489 183.337 334.982 183.555 335.35 183.991C335.721 184.427 335.906 184.991 335.906 185.681C335.906 186.413 335.706 186.999 335.306 187.438C334.909 187.878 334.375 188.098 333.704 188.098C333.024 188.098 332.472 187.837 332.049 187.316C331.626 186.792 331.414 186.118 331.414 185.295V184.948C331.414 183.64 331.692 182.64 332.249 181.95C332.809 181.257 333.641 180.902 334.744 180.886H334.905ZM333.719 184.089C333.41 184.089 333.125 184.182 332.864 184.367C332.604 184.553 332.423 184.785 332.322 185.065V185.397C332.322 185.983 332.454 186.455 332.718 186.813C332.981 187.172 333.31 187.351 333.704 187.351C334.111 187.351 334.43 187.201 334.661 186.901C334.896 186.602 335.013 186.21 335.013 185.725C335.013 185.236 334.894 184.842 334.656 184.543C334.422 184.24 334.109 184.089 333.719 184.089ZM341.287 182.746C341.287 183.101 341.193 183.417 341.004 183.693C340.818 183.97 340.566 184.187 340.247 184.343C340.618 184.502 340.911 184.735 341.126 185.041C341.344 185.347 341.453 185.694 341.453 186.081C341.453 186.696 341.245 187.186 340.828 187.551C340.415 187.915 339.869 188.098 339.192 188.098C338.509 188.098 337.96 187.915 337.547 187.551C337.137 187.183 336.932 186.693 336.932 186.081C336.932 185.697 337.036 185.35 337.244 185.041C337.456 184.732 337.747 184.497 338.118 184.338C337.802 184.182 337.553 183.965 337.371 183.688C337.189 183.412 337.098 183.098 337.098 182.746C337.098 182.147 337.29 181.672 337.674 181.32C338.058 180.969 338.564 180.793 339.192 180.793C339.817 180.793 340.322 180.969 340.706 181.32C341.093 181.672 341.287 182.147 341.287 182.746ZM340.55 186.062C340.55 185.664 340.423 185.34 340.169 185.09C339.918 184.839 339.59 184.714 339.183 184.714C338.776 184.714 338.449 184.838 338.201 185.085C337.957 185.332 337.835 185.658 337.835 186.062C337.835 186.465 337.954 186.783 338.191 187.014C338.432 187.245 338.766 187.36 339.192 187.36C339.616 187.36 339.948 187.245 340.188 187.014C340.429 186.779 340.55 186.462 340.55 186.062ZM339.192 181.535C338.838 181.535 338.549 181.646 338.328 181.867C338.11 182.085 338.001 182.383 338.001 182.761C338.001 183.122 338.108 183.415 338.323 183.64C338.541 183.861 338.831 183.972 339.192 183.972C339.554 183.972 339.842 183.861 340.057 183.64C340.275 183.415 340.384 183.122 340.384 182.761C340.384 182.399 340.271 182.105 340.047 181.877C339.822 181.649 339.537 181.535 339.192 181.535Z" fill="url(#paint11_linear_577_1434)"/>
<rect y="378" width="167" height="14" rx="4" fill="url(#paint12_linear_577_1434)"/>
<path d="M1.7627 365.217V368H0.825195V360.891H3.44727C4.22526 360.891 4.83398 361.089 5.27344 361.486C5.71615 361.883 5.9375 362.409 5.9375 363.063C5.9375 363.754 5.72103 364.286 5.28809 364.66C4.8584 365.031 4.24154 365.217 3.4375 365.217H1.7627ZM1.7627 364.45H3.44727C3.94857 364.45 4.33268 364.333 4.59961 364.099C4.86654 363.861 5 363.519 5 363.073C5 362.65 4.86654 362.312 4.59961 362.058C4.33268 361.804 3.96647 361.672 3.50098 361.662H1.7627V364.45ZM9.11621 368.098C8.40007 368.098 7.81738 367.863 7.36816 367.395C6.91895 366.923 6.69434 366.293 6.69434 365.505V365.339C6.69434 364.815 6.79362 364.348 6.99219 363.938C7.19401 363.524 7.47396 363.202 7.83203 362.971C8.19336 362.736 8.58398 362.619 9.00391 362.619C9.69076 362.619 10.2246 362.845 10.6055 363.298C10.9863 363.75 11.1768 364.398 11.1768 365.241V365.617H7.59766C7.61068 366.138 7.76204 366.56 8.05176 366.882C8.34473 367.201 8.71582 367.36 9.16504 367.36C9.48405 367.36 9.75423 367.295 9.97559 367.165C10.1969 367.035 10.3906 366.862 10.5566 366.647L11.1084 367.077C10.6657 367.757 10.0016 368.098 9.11621 368.098ZM9.00391 363.361C8.63932 363.361 8.33333 363.495 8.08594 363.762C7.83854 364.025 7.68555 364.396 7.62695 364.875H10.2734V364.807C10.2474 364.348 10.1237 363.993 9.90234 363.742C9.68099 363.488 9.38151 363.361 9.00391 363.361ZM14.4189 368.098C13.7028 368.098 13.1201 367.863 12.6709 367.395C12.2217 366.923 11.9971 366.293 11.9971 365.505V365.339C11.9971 364.815 12.0964 364.348 12.2949 363.938C12.4967 363.524 12.7767 363.202 13.1348 362.971C13.4961 362.736 13.8867 362.619 14.3066 362.619C14.9935 362.619 15.5273 362.845 15.9082 363.298C16.2891 363.75 16.4795 364.398 16.4795 365.241V365.617H12.9004C12.9134 366.138 13.0648 366.56 13.3545 366.882C13.6475 367.201 14.0186 367.36 14.4678 367.36C14.7868 367.36 15.057 367.295 15.2783 367.165C15.4997 367.035 15.6934 366.862 15.8594 366.647L16.4111 367.077C15.9684 367.757 15.3044 368.098 14.4189 368.098ZM14.3066 363.361C13.9421 363.361 13.6361 363.495 13.3887 363.762C13.1413 364.025 12.9883 364.396 12.9297 364.875H15.5762V364.807C15.5501 364.348 15.4264 363.993 15.2051 363.742C14.9837 363.488 14.6842 363.361 14.3066 363.361ZM19.0039 365.554L18.4375 366.145V368H17.5342V360.5H18.4375V365.036L18.9209 364.455L20.5664 362.717H21.665L19.6094 364.924L21.9043 368H20.8447L19.0039 365.554ZM24.4775 365.349H22.0947V364.611H24.4775V365.349ZM29.4287 366.145H26.4502L25.7812 368H24.8145L27.5293 360.891H28.3496L31.0693 368H30.1074L29.4287 366.145ZM26.7334 365.373H29.1504L27.9395 362.048L26.7334 365.373ZM33.7646 365.349H31.3818V364.611H33.7646V365.349ZM34.79 368V360.891H37.1143C37.8857 360.891 38.4652 361.05 38.8525 361.369C39.2432 361.688 39.4385 362.16 39.4385 362.785C39.4385 363.117 39.3441 363.412 39.1553 363.669C38.9665 363.923 38.7093 364.12 38.3838 364.26C38.7679 364.367 39.0706 364.572 39.292 364.875C39.5166 365.174 39.6289 365.533 39.6289 365.949C39.6289 366.587 39.4222 367.089 39.0088 367.453C38.5954 367.818 38.0111 368 37.2559 368H34.79ZM35.7275 364.675V367.233H37.2754C37.7116 367.233 38.055 367.121 38.3057 366.896C38.5596 366.669 38.6865 366.356 38.6865 365.959C38.6865 365.103 38.221 364.675 37.29 364.675H35.7275ZM35.7275 363.923H37.1436C37.5537 363.923 37.8809 363.82 38.125 363.615C38.3724 363.41 38.4961 363.132 38.4961 362.78C38.4961 362.39 38.3822 362.106 38.1543 361.931C37.9264 361.752 37.5798 361.662 37.1143 361.662H35.7275V363.923ZM40.6396 365.31C40.6396 364.792 40.7406 364.326 40.9424 363.913C41.1475 363.5 41.4307 363.181 41.792 362.956C42.1566 362.731 42.5716 362.619 43.0371 362.619C43.7565 362.619 44.3376 362.868 44.7803 363.366C45.2262 363.864 45.4492 364.527 45.4492 365.354V365.417C45.4492 365.931 45.3499 366.394 45.1514 366.804C44.9561 367.211 44.6745 367.528 44.3066 367.756C43.9421 367.984 43.5221 368.098 43.0469 368.098C42.3307 368.098 41.7497 367.849 41.3037 367.351C40.861 366.853 40.6396 366.193 40.6396 365.373V365.31ZM41.5479 365.417C41.5479 366.003 41.6829 366.473 41.9531 366.828C42.2266 367.183 42.5911 367.36 43.0469 367.36C43.5059 367.36 43.8704 367.181 44.1406 366.823C44.4108 366.462 44.5459 365.957 44.5459 365.31C44.5459 364.73 44.4076 364.261 44.1309 363.903C43.8574 363.542 43.4928 363.361 43.0371 363.361C42.5911 363.361 42.2314 363.539 41.958 363.894C41.6846 364.248 41.5479 364.756 41.5479 365.417ZM46.3428 365.31C46.3428 364.792 46.4437 364.326 46.6455 363.913C46.8506 363.5 47.1338 363.181 47.4951 362.956C47.8597 362.731 48.2747 362.619 48.7402 362.619C49.4596 362.619 50.0407 362.868 50.4834 363.366C50.9294 363.864 51.1523 364.527 51.1523 365.354V365.417C51.1523 365.931 51.0531 366.394 50.8545 366.804C50.6592 367.211 50.3776 367.528 50.0098 367.756C49.6452 367.984 49.2253 368.098 48.75 368.098C48.0339 368.098 47.4528 367.849 47.0068 367.351C46.5641 366.853 46.3428 366.193 46.3428 365.373V365.31ZM47.251 365.417C47.251 366.003 47.3861 366.473 47.6562 366.828C47.9297 367.183 48.2943 367.36 48.75 367.36C49.209 367.36 49.5736 367.181 49.8438 366.823C50.1139 366.462 50.249 365.957 50.249 365.31C50.249 364.73 50.1107 364.261 49.834 363.903C49.5605 363.542 49.196 363.361 48.7402 363.361C48.2943 363.361 47.9346 363.539 47.6611 363.894C47.3877 364.248 47.251 364.756 47.251 365.417Z" fill="#767676"/>
<path d="M159.905 360.886V361.652H159.739C159.036 361.665 158.476 361.874 158.06 362.277C157.643 362.681 157.402 363.249 157.337 363.981C157.711 363.552 158.222 363.337 158.87 363.337C159.489 363.337 159.982 363.555 160.35 363.991C160.721 364.427 160.906 364.991 160.906 365.681C160.906 366.413 160.706 366.999 160.306 367.438C159.909 367.878 159.375 368.098 158.704 368.098C158.024 368.098 157.472 367.837 157.049 367.316C156.626 366.792 156.414 366.118 156.414 365.295V364.948C156.414 363.64 156.692 362.64 157.249 361.95C157.809 361.257 158.641 360.902 159.744 360.886H159.905ZM158.719 364.089C158.41 364.089 158.125 364.182 157.864 364.367C157.604 364.553 157.423 364.785 157.322 365.065V365.397C157.322 365.983 157.454 366.455 157.718 366.813C157.981 367.172 158.31 367.351 158.704 367.351C159.111 367.351 159.43 367.201 159.661 366.901C159.896 366.602 160.013 366.21 160.013 365.725C160.013 365.236 159.894 364.842 159.656 364.543C159.422 364.24 159.109 364.089 158.719 364.089ZM164.944 368H164.036V361.979L162.215 362.648V361.828L164.803 360.856H164.944V368Z" fill="url(#paint13_linear_577_1434)"/>
<rect y="243" width="291" height="14" rx="4" fill="url(#paint14_linear_577_1434)"/>
<path d="M3.43262 230.124H1.7627V233H0.820312V225.891H3.17383C3.97461 225.891 4.58984 226.073 5.01953 226.438C5.45247 226.802 5.66895 227.333 5.66895 228.029C5.66895 228.472 5.5485 228.858 5.30762 229.187C5.06999 229.515 4.73796 229.761 4.31152 229.924L5.98145 232.941V233H4.97559L3.43262 230.124ZM1.7627 229.357H3.20312C3.66862 229.357 4.03809 229.237 4.31152 228.996C4.58822 228.755 4.72656 228.433 4.72656 228.029C4.72656 227.59 4.59473 227.253 4.33105 227.019C4.07064 226.784 3.69303 226.665 3.19824 226.662H1.7627V229.357ZM9.03809 233.098C8.32194 233.098 7.73926 232.863 7.29004 232.395C6.84082 231.923 6.61621 231.293 6.61621 230.505V230.339C6.61621 229.815 6.71549 229.348 6.91406 228.938C7.11589 228.524 7.39583 228.202 7.75391 227.971C8.11523 227.736 8.50586 227.619 8.92578 227.619C9.61263 227.619 10.1465 227.845 10.5273 228.298C10.9082 228.75 11.0986 229.398 11.0986 230.241V230.617H7.51953C7.53255 231.138 7.68392 231.56 7.97363 231.882C8.2666 232.201 8.6377 232.36 9.08691 232.36C9.40592 232.36 9.67611 232.295 9.89746 232.165C10.1188 232.035 10.3125 231.862 10.4785 231.647L11.0303 232.077C10.5876 232.757 9.9235 233.098 9.03809 233.098ZM8.92578 228.361C8.5612 228.361 8.25521 228.495 8.00781 228.762C7.76042 229.025 7.60742 229.396 7.54883 229.875H10.1953V229.807C10.1693 229.348 10.0456 228.993 9.82422 228.742C9.60286 228.488 9.30339 228.361 8.92578 228.361ZM11.9287 230.314C11.9287 229.504 12.1208 228.853 12.5049 228.361C12.889 227.867 13.3919 227.619 14.0137 227.619C14.6322 227.619 15.1221 227.831 15.4834 228.254V225.5H16.3867V233H15.5566L15.5127 232.434C15.1514 232.876 14.6484 233.098 14.0039 233.098C13.3919 233.098 12.8923 232.847 12.5049 232.346C12.1208 231.844 11.9287 231.19 11.9287 230.383V230.314ZM12.832 230.417C12.832 231.016 12.9557 231.485 13.2031 231.823C13.4505 232.162 13.7923 232.331 14.2285 232.331C14.8014 232.331 15.2197 232.074 15.4834 231.56V229.133C15.2132 228.635 14.7982 228.386 14.2383 228.386C13.7956 228.386 13.4505 228.557 13.2031 228.898C12.9557 229.24 12.832 229.746 12.832 230.417ZM24.3359 229.86H21.3525V233H20.415V225.891H24.8193V226.662H21.3525V229.094H24.3359V229.86ZM26.7822 233H25.8789V225.5H26.7822V233ZM31.4941 233C31.4421 232.896 31.3997 232.71 31.3672 232.443C30.9473 232.88 30.446 233.098 29.8633 233.098C29.3424 233.098 28.9144 232.951 28.5791 232.658C28.2471 232.362 28.0811 231.988 28.0811 231.535C28.0811 230.985 28.2894 230.559 28.7061 230.256C29.126 229.95 29.7152 229.797 30.4736 229.797H31.3525V229.382C31.3525 229.066 31.2581 228.815 31.0693 228.63C30.8805 228.441 30.6022 228.347 30.2344 228.347C29.9121 228.347 29.6419 228.428 29.4238 228.591C29.2057 228.754 29.0967 228.951 29.0967 229.182H28.1885C28.1885 228.918 28.2812 228.664 28.4668 228.42C28.6556 228.173 28.9095 227.977 29.2285 227.834C29.5508 227.691 29.904 227.619 30.2881 227.619C30.8968 227.619 31.3737 227.772 31.7188 228.078C32.0638 228.381 32.2428 228.799 32.2559 229.333V231.765C32.2559 232.25 32.3177 232.635 32.4414 232.922V233H31.4941ZM29.9951 232.312C30.2783 232.312 30.5469 232.238 30.8008 232.092C31.0547 231.945 31.2386 231.755 31.3525 231.521V230.437H30.6445C29.5378 230.437 28.9844 230.76 28.9844 231.408C28.9844 231.691 29.0788 231.913 29.2676 232.072C29.4564 232.232 29.6989 232.312 29.9951 232.312ZM35.3369 231.774L36.6455 227.717H37.5684L35.6738 233H34.9854L33.0713 227.717H33.9941L35.3369 231.774ZM38.1201 230.31C38.1201 229.792 38.221 229.326 38.4229 228.913C38.6279 228.5 38.9111 228.181 39.2725 227.956C39.637 227.731 40.0521 227.619 40.5176 227.619C41.237 227.619 41.818 227.868 42.2607 228.366C42.7067 228.864 42.9297 229.527 42.9297 230.354V230.417C42.9297 230.931 42.8304 231.394 42.6318 231.804C42.4365 232.211 42.1549 232.528 41.7871 232.756C41.4225 232.984 41.0026 233.098 40.5273 233.098C39.8112 233.098 39.2301 232.849 38.7842 232.351C38.3415 231.853 38.1201 231.193 38.1201 230.373V230.31ZM39.0283 230.417C39.0283 231.003 39.1634 231.473 39.4336 231.828C39.707 232.183 40.0716 232.36 40.5273 232.36C40.9863 232.36 41.3509 232.181 41.6211 231.823C41.8913 231.462 42.0264 230.957 42.0264 230.31C42.0264 229.73 41.888 229.261 41.6113 228.903C41.3379 228.542 40.9733 228.361 40.5176 228.361C40.0716 228.361 39.7119 228.539 39.4385 228.894C39.165 229.248 39.0283 229.756 39.0283 230.417ZM46.6162 228.527C46.4795 228.505 46.3314 228.493 46.1719 228.493C45.5794 228.493 45.1774 228.745 44.9658 229.25V233H44.0625V227.717H44.9414L44.9561 228.327C45.2523 227.855 45.6722 227.619 46.2158 227.619C46.3916 227.619 46.5251 227.642 46.6162 227.688V228.527Z" fill="#767676"/>
<path d="M283.905 225.886V226.652H283.739C283.036 226.665 282.476 226.874 282.06 227.277C281.643 227.681 281.402 228.249 281.337 228.981C281.711 228.552 282.222 228.337 282.87 228.337C283.489 228.337 283.982 228.555 284.35 228.991C284.721 229.427 284.906 229.991 284.906 230.681C284.906 231.413 284.706 231.999 284.306 232.438C283.909 232.878 283.375 233.098 282.704 233.098C282.024 233.098 281.472 232.837 281.049 232.316C280.626 231.792 280.414 231.118 280.414 230.295V229.948C280.414 228.64 280.692 227.64 281.249 226.95C281.809 226.257 282.641 225.902 283.744 225.886H283.905ZM282.719 229.089C282.41 229.089 282.125 229.182 281.864 229.367C281.604 229.553 281.423 229.785 281.322 230.065V230.397C281.322 230.983 281.454 231.455 281.718 231.813C281.981 232.172 282.31 232.351 282.704 232.351C283.111 232.351 283.43 232.201 283.661 231.901C283.896 231.602 284.013 231.21 284.013 230.725C284.013 230.236 283.894 229.842 283.656 229.543C283.422 229.24 283.109 229.089 282.719 229.089ZM290.287 227.746C290.287 228.101 290.193 228.417 290.004 228.693C289.818 228.97 289.566 229.187 289.247 229.343C289.618 229.502 289.911 229.735 290.126 230.041C290.344 230.347 290.453 230.694 290.453 231.081C290.453 231.696 290.245 232.186 289.828 232.551C289.415 232.915 288.869 233.098 288.192 233.098C287.509 233.098 286.96 232.915 286.547 232.551C286.137 232.183 285.932 231.693 285.932 231.081C285.932 230.697 286.036 230.35 286.244 230.041C286.456 229.732 286.747 229.497 287.118 229.338C286.802 229.182 286.553 228.965 286.371 228.688C286.189 228.412 286.098 228.098 286.098 227.746C286.098 227.147 286.29 226.672 286.674 226.32C287.058 225.969 287.564 225.793 288.192 225.793C288.817 225.793 289.322 225.969 289.706 226.32C290.093 226.672 290.287 227.147 290.287 227.746ZM289.55 231.062C289.55 230.664 289.423 230.34 289.169 230.09C288.918 229.839 288.59 229.714 288.183 229.714C287.776 229.714 287.449 229.838 287.201 230.085C286.957 230.332 286.835 230.658 286.835 231.062C286.835 231.465 286.954 231.783 287.191 232.014C287.432 232.245 287.766 232.36 288.192 232.36C288.616 232.36 288.948 232.245 289.188 232.014C289.429 231.779 289.55 231.462 289.55 231.062ZM288.192 226.535C287.838 226.535 287.549 226.646 287.328 226.867C287.11 227.085 287.001 227.383 287.001 227.761C287.001 228.122 287.108 228.415 287.323 228.64C287.541 228.861 287.831 228.972 288.192 228.972C288.554 228.972 288.842 228.861 289.057 228.64C289.275 228.415 289.384 228.122 289.384 227.761C289.384 227.399 289.271 227.105 289.047 226.877C288.822 226.649 288.537 226.535 288.192 226.535Z" fill="url(#paint15_linear_577_1434)"/>
<rect y="423" width="143" height="14" rx="4" fill="url(#paint16_linear_577_1434)"/>
<path d="M3.43262 410.124H1.7627V413H0.820312V405.891H3.17383C3.97461 405.891 4.58984 406.073 5.01953 406.438C5.45247 406.802 5.66895 407.333 5.66895 408.029C5.66895 408.472 5.5485 408.858 5.30762 409.187C5.06999 409.515 4.73796 409.761 4.31152 409.924L5.98145 412.941V413H4.97559L3.43262 410.124ZM1.7627 409.357H3.20312C3.66862 409.357 4.03809 409.237 4.31152 408.996C4.58822 408.755 4.72656 408.433 4.72656 408.029C4.72656 407.59 4.59473 407.253 4.33105 407.019C4.07064 406.784 3.69303 406.665 3.19824 406.662H1.7627V409.357ZM9.03809 413.098C8.32194 413.098 7.73926 412.863 7.29004 412.395C6.84082 411.923 6.61621 411.293 6.61621 410.505V410.339C6.61621 409.815 6.71549 409.348 6.91406 408.938C7.11589 408.524 7.39583 408.202 7.75391 407.971C8.11523 407.736 8.50586 407.619 8.92578 407.619C9.61263 407.619 10.1465 407.845 10.5273 408.298C10.9082 408.75 11.0986 409.398 11.0986 410.241V410.617H7.51953C7.53255 411.138 7.68392 411.56 7.97363 411.882C8.2666 412.201 8.6377 412.36 9.08691 412.36C9.40592 412.36 9.67611 412.295 9.89746 412.165C10.1188 412.035 10.3125 411.862 10.4785 411.647L11.0303 412.077C10.5876 412.757 9.9235 413.098 9.03809 413.098ZM8.92578 408.361C8.5612 408.361 8.25521 408.495 8.00781 408.762C7.76042 409.025 7.60742 409.396 7.54883 409.875H10.1953V409.807C10.1693 409.348 10.0456 408.993 9.82422 408.742C9.60286 408.488 9.30339 408.361 8.92578 408.361ZM11.9287 410.314C11.9287 409.504 12.1208 408.853 12.5049 408.361C12.889 407.867 13.3919 407.619 14.0137 407.619C14.6322 407.619 15.1221 407.831 15.4834 408.254V405.5H16.3867V413H15.5566L15.5127 412.434C15.1514 412.876 14.6484 413.098 14.0039 413.098C13.3919 413.098 12.8923 412.847 12.5049 412.346C12.1208 411.844 11.9287 411.19 11.9287 410.383V410.314ZM12.832 410.417C12.832 411.016 12.9557 411.485 13.2031 411.823C13.4505 412.162 13.7923 412.331 14.2285 412.331C14.8014 412.331 15.2197 412.074 15.4834 411.56V409.133C15.2132 408.635 14.7982 408.386 14.2383 408.386C13.7956 408.386 13.4505 408.557 13.2031 408.898C12.9557 409.24 12.832 409.746 12.832 410.417ZM24.3359 409.86H21.3525V413H20.415V405.891H24.8193V406.662H21.3525V409.094H24.3359V409.86ZM26.7822 413H25.8789V405.5H26.7822V413ZM31.4941 413C31.4421 412.896 31.3997 412.71 31.3672 412.443C30.9473 412.88 30.446 413.098 29.8633 413.098C29.3424 413.098 28.9144 412.951 28.5791 412.658C28.2471 412.362 28.0811 411.988 28.0811 411.535C28.0811 410.985 28.2894 410.559 28.7061 410.256C29.126 409.95 29.7152 409.797 30.4736 409.797H31.3525V409.382C31.3525 409.066 31.2581 408.815 31.0693 408.63C30.8805 408.441 30.6022 408.347 30.2344 408.347C29.9121 408.347 29.6419 408.428 29.4238 408.591C29.2057 408.754 29.0967 408.951 29.0967 409.182H28.1885C28.1885 408.918 28.2812 408.664 28.4668 408.42C28.6556 408.173 28.9095 407.977 29.2285 407.834C29.5508 407.691 29.904 407.619 30.2881 407.619C30.8968 407.619 31.3737 407.772 31.7188 408.078C32.0638 408.381 32.2428 408.799 32.2559 409.333V411.765C32.2559 412.25 32.3177 412.635 32.4414 412.922V413H31.4941ZM29.9951 412.312C30.2783 412.312 30.5469 412.238 30.8008 412.092C31.0547 411.945 31.2386 411.755 31.3525 411.521V410.437H30.6445C29.5378 410.437 28.9844 410.76 28.9844 411.408C28.9844 411.691 29.0788 411.913 29.2676 412.072C29.4564 412.232 29.6989 412.312 29.9951 412.312ZM35.3369 411.774L36.6455 407.717H37.5684L35.6738 413H34.9854L33.0713 407.717H33.9941L35.3369 411.774ZM38.1201 410.31C38.1201 409.792 38.221 409.326 38.4229 408.913C38.6279 408.5 38.9111 408.181 39.2725 407.956C39.637 407.731 40.0521 407.619 40.5176 407.619C41.237 407.619 41.818 407.868 42.2607 408.366C42.7067 408.864 42.9297 409.527 42.9297 410.354V410.417C42.9297 410.931 42.8304 411.394 42.6318 411.804C42.4365 412.211 42.1549 412.528 41.7871 412.756C41.4225 412.984 41.0026 413.098 40.5273 413.098C39.8112 413.098 39.2301 412.849 38.7842 412.351C38.3415 411.853 38.1201 411.193 38.1201 410.373V410.31ZM39.0283 410.417C39.0283 411.003 39.1634 411.473 39.4336 411.828C39.707 412.183 40.0716 412.36 40.5273 412.36C40.9863 412.36 41.3509 412.181 41.6211 411.823C41.8913 411.462 42.0264 410.957 42.0264 410.31C42.0264 409.73 41.888 409.261 41.6113 408.903C41.3379 408.542 40.9733 408.361 40.5176 408.361C40.0716 408.361 39.7119 408.539 39.4385 408.894C39.165 409.248 39.0283 409.756 39.0283 410.417ZM46.6162 408.527C46.4795 408.505 46.3314 408.493 46.1719 408.493C45.5794 408.493 45.1774 408.745 44.9658 409.25V413H44.0625V407.717H44.9414L44.9561 408.327C45.2523 407.855 45.6722 407.619 46.2158 407.619C46.3916 407.619 46.5251 407.642 46.6162 407.688V408.527Z" fill="#767676"/>
<path d="M135.905 405.886V406.652H135.739C135.036 406.665 134.476 406.874 134.06 407.277C133.643 407.681 133.402 408.249 133.337 408.981C133.711 408.552 134.222 408.337 134.87 408.337C135.489 408.337 135.982 408.555 136.35 408.991C136.721 409.427 136.906 409.991 136.906 410.681C136.906 411.413 136.706 411.999 136.306 412.438C135.909 412.878 135.375 413.098 134.704 413.098C134.024 413.098 133.472 412.837 133.049 412.316C132.626 411.792 132.414 411.118 132.414 410.295V409.948C132.414 408.64 132.692 407.64 133.249 406.95C133.809 406.257 134.641 405.902 135.744 405.886H135.905ZM134.719 409.089C134.41 409.089 134.125 409.182 133.864 409.367C133.604 409.553 133.423 409.785 133.322 410.065V410.397C133.322 410.983 133.454 411.455 133.718 411.813C133.981 412.172 134.31 412.351 134.704 412.351C135.111 412.351 135.43 412.201 135.661 411.901C135.896 411.602 136.013 411.21 136.013 410.725C136.013 410.236 135.894 409.842 135.656 409.543C135.422 409.24 135.109 409.089 134.719 409.089ZM140.944 413H140.036V406.979L138.215 407.648V406.828L140.803 405.856H140.944V413Z" fill="url(#paint17_linear_577_1434)"/>
<circle cx="175" cy="430" r="8" fill="#D393E9" fill-opacity="0.26"/>
<circle cx="175" cy="430" r="3" fill="#D393E9"/>
<line x1="174.5" y1="417" x2="174.5" y2="18" stroke="#D393E9" stroke-dasharray="2 2"/>
<g filter="url(#filter0_d_577_1434)">
<rect x="104" y="253" width="222" height="94" rx="20" fill="white"/>
</g>
<path d="M135.506 302.01C135.506 302.834 135.375 303.545 135.113 304.143C134.852 304.736 134.484 305.201 134.012 305.537L135.535 306.732L134.768 307.441L132.969 306.012C132.688 306.082 132.391 306.117 132.078 306.117C131.406 306.117 130.811 305.953 130.291 305.625C129.771 305.293 129.367 304.822 129.078 304.213C128.793 303.6 128.646 302.891 128.639 302.086V301.471C128.639 300.65 128.781 299.926 129.066 299.297C129.352 298.668 129.754 298.188 130.273 297.855C130.797 297.52 131.395 297.352 132.066 297.352C132.754 297.352 133.357 297.518 133.877 297.85C134.4 298.182 134.803 298.66 135.084 299.285C135.365 299.906 135.506 300.633 135.506 301.465V302.01ZM134.381 301.459C134.381 300.455 134.18 299.682 133.777 299.139C133.379 298.592 132.809 298.318 132.066 298.318C131.359 298.318 130.801 298.59 130.391 299.133C129.984 299.672 129.775 300.422 129.764 301.383V302.01C129.764 302.986 129.967 303.756 130.373 304.318C130.783 304.881 131.352 305.162 132.078 305.162C132.805 305.162 133.367 304.898 133.766 304.371C134.164 303.84 134.369 303.08 134.381 302.092V301.459ZM140.984 305.373C140.562 305.869 139.943 306.117 139.127 306.117C138.451 306.117 137.936 305.922 137.58 305.531C137.229 305.137 137.051 304.555 137.047 303.785V299.66H138.131V303.756C138.131 304.717 138.521 305.197 139.303 305.197C140.131 305.197 140.682 304.889 140.955 304.271V299.66H142.039V306H141.008L140.984 305.373ZM146.322 306.117C145.463 306.117 144.764 305.836 144.225 305.273C143.686 304.707 143.416 303.951 143.416 303.006V302.807C143.416 302.178 143.535 301.617 143.773 301.125C144.016 300.629 144.352 300.242 144.781 299.965C145.215 299.684 145.684 299.543 146.188 299.543C147.012 299.543 147.652 299.814 148.109 300.357C148.566 300.9 148.795 301.678 148.795 302.689V303.141H144.5C144.516 303.766 144.697 304.271 145.045 304.658C145.396 305.041 145.842 305.232 146.381 305.232C146.764 305.232 147.088 305.154 147.354 304.998C147.619 304.842 147.852 304.635 148.051 304.377L148.713 304.893C148.182 305.709 147.385 306.117 146.322 306.117ZM146.188 300.434C145.75 300.434 145.383 300.594 145.086 300.914C144.789 301.23 144.605 301.676 144.535 302.25H147.711V302.168C147.68 301.617 147.531 301.191 147.266 300.891C147 300.586 146.641 300.434 146.188 300.434ZM152.686 306.117C151.826 306.117 151.127 305.836 150.588 305.273C150.049 304.707 149.779 303.951 149.779 303.006V302.807C149.779 302.178 149.898 301.617 150.137 301.125C150.379 300.629 150.715 300.242 151.145 299.965C151.578 299.684 152.047 299.543 152.551 299.543C153.375 299.543 154.016 299.814 154.473 300.357C154.93 300.9 155.158 301.678 155.158 302.689V303.141H150.863C150.879 303.766 151.061 304.271 151.408 304.658C151.76 305.041 152.205 305.232 152.744 305.232C153.127 305.232 153.451 305.154 153.717 304.998C153.982 304.842 154.215 304.635 154.414 304.377L155.076 304.893C154.545 305.709 153.748 306.117 152.686 306.117ZM152.551 300.434C152.113 300.434 151.746 300.594 151.449 300.914C151.152 301.23 150.969 301.676 150.898 302.25H154.074V302.168C154.043 301.617 153.895 301.191 153.629 300.891C153.363 300.586 153.004 300.434 152.551 300.434ZM157.443 299.66L157.479 300.457C157.963 299.848 158.596 299.543 159.377 299.543C160.717 299.543 161.393 300.299 161.404 301.811V306H160.32V301.805C160.316 301.348 160.211 301.01 160.004 300.791C159.801 300.572 159.482 300.463 159.049 300.463C158.697 300.463 158.389 300.557 158.123 300.744C157.857 300.932 157.65 301.178 157.502 301.482V306H156.418V299.66H157.443ZM162.775 302.777C162.775 301.805 163.006 301.023 163.467 300.434C163.928 299.84 164.531 299.543 165.277 299.543C166.02 299.543 166.607 299.797 167.041 300.305V297H168.125V306H167.129L167.076 305.32C166.643 305.852 166.039 306.117 165.266 306.117C164.531 306.117 163.932 305.816 163.467 305.215C163.006 304.613 162.775 303.828 162.775 302.859V302.777ZM163.859 302.9C163.859 303.619 164.008 304.182 164.305 304.588C164.602 304.994 165.012 305.197 165.535 305.197C166.223 305.197 166.725 304.889 167.041 304.271V301.359C166.717 300.762 166.219 300.463 165.547 300.463C165.016 300.463 164.602 300.668 164.305 301.078C164.008 301.488 163.859 302.096 163.859 302.9ZM169.525 302.771C169.525 302.15 169.646 301.592 169.889 301.096C170.135 300.6 170.475 300.217 170.908 299.947C171.346 299.678 171.844 299.543 172.402 299.543C173.266 299.543 173.963 299.842 174.494 300.439C175.029 301.037 175.297 301.832 175.297 302.824V302.9C175.297 303.518 175.178 304.072 174.939 304.564C174.705 305.053 174.367 305.434 173.926 305.707C173.488 305.98 172.984 306.117 172.414 306.117C171.555 306.117 170.857 305.818 170.322 305.221C169.791 304.623 169.525 303.832 169.525 302.848V302.771ZM170.615 302.9C170.615 303.604 170.777 304.168 171.102 304.594C171.43 305.02 171.867 305.232 172.414 305.232C172.965 305.232 173.402 305.018 173.727 304.588C174.051 304.154 174.213 303.549 174.213 302.771C174.213 302.076 174.047 301.514 173.715 301.084C173.387 300.65 172.949 300.434 172.402 300.434C171.867 300.434 171.436 300.646 171.107 301.072C170.779 301.498 170.615 302.107 170.615 302.9ZM177.676 299.66L177.705 300.363C178.17 299.816 178.797 299.543 179.586 299.543C180.473 299.543 181.076 299.883 181.396 300.562C181.607 300.258 181.881 300.012 182.217 299.824C182.557 299.637 182.957 299.543 183.418 299.543C184.809 299.543 185.516 300.279 185.539 301.752V306H184.455V301.816C184.455 301.363 184.352 301.025 184.145 300.803C183.938 300.576 183.59 300.463 183.102 300.463C182.699 300.463 182.365 300.584 182.1 300.826C181.834 301.064 181.68 301.387 181.637 301.793V306H180.547V301.846C180.547 300.924 180.096 300.463 179.193 300.463C178.482 300.463 177.996 300.766 177.734 301.371V306H176.65V299.66H177.676ZM192.412 302.818H189.553V301.934H192.412V302.818ZM202.279 298.395H199.537V306H198.418V298.395H195.682V297.469H202.279V298.395ZM204.459 300.428C204.939 299.838 205.564 299.543 206.334 299.543C207.674 299.543 208.35 300.299 208.361 301.811V306H207.277V301.805C207.273 301.348 207.168 301.01 206.961 300.791C206.758 300.572 206.439 300.463 206.006 300.463C205.654 300.463 205.346 300.557 205.08 300.744C204.814 300.932 204.607 301.178 204.459 301.482V306H203.375V297H204.459V300.428ZM212.615 306.117C211.756 306.117 211.057 305.836 210.518 305.273C209.979 304.707 209.709 303.951 209.709 303.006V302.807C209.709 302.178 209.828 301.617 210.066 301.125C210.309 300.629 210.645 300.242 211.074 299.965C211.508 299.684 211.977 299.543 212.48 299.543C213.305 299.543 213.945 299.814 214.402 300.357C214.859 300.9 215.088 301.678 215.088 302.689V303.141H210.793C210.809 303.766 210.99 304.271 211.338 304.658C211.689 305.041 212.135 305.232 212.674 305.232C213.057 305.232 213.381 305.154 213.646 304.998C213.912 304.842 214.145 304.635 214.344 304.377L215.006 304.893C214.475 305.709 213.678 306.117 212.615 306.117ZM212.48 300.434C212.043 300.434 211.676 300.594 211.379 300.914C211.082 301.23 210.898 301.676 210.828 302.25H214.004V302.168C213.973 301.617 213.824 301.191 213.559 300.891C213.293 300.586 212.934 300.434 212.48 300.434ZM219.711 301.723L220.145 297.469H224.516V298.471H221.064L220.807 300.797C221.225 300.551 221.699 300.428 222.23 300.428C223.008 300.428 223.625 300.686 224.082 301.201C224.539 301.713 224.768 302.406 224.768 303.281C224.768 304.16 224.529 304.854 224.053 305.361C223.58 305.865 222.918 306.117 222.066 306.117C221.312 306.117 220.697 305.908 220.221 305.49C219.744 305.072 219.473 304.494 219.406 303.756H220.432C220.498 304.244 220.672 304.613 220.953 304.863C221.234 305.109 221.605 305.232 222.066 305.232C222.57 305.232 222.965 305.061 223.25 304.717C223.539 304.373 223.684 303.898 223.684 303.293C223.684 302.723 223.527 302.266 223.215 301.922C222.906 301.574 222.494 301.4 221.979 301.4C221.506 301.4 221.135 301.504 220.865 301.711L220.578 301.945L219.711 301.723ZM227.533 298.125V299.66H228.717V300.498H227.533V304.43C227.533 304.684 227.586 304.875 227.691 305.004C227.797 305.129 227.977 305.191 228.23 305.191C228.355 305.191 228.527 305.168 228.746 305.121V306C228.461 306.078 228.184 306.117 227.914 306.117C227.43 306.117 227.064 305.971 226.818 305.678C226.572 305.385 226.449 304.969 226.449 304.43V300.498H225.295V299.66H226.449V298.125H227.533ZM231.072 300.428C231.553 299.838 232.178 299.543 232.947 299.543C234.287 299.543 234.963 300.299 234.975 301.811V306H233.891V301.805C233.887 301.348 233.781 301.01 233.574 300.791C233.371 300.572 233.053 300.463 232.619 300.463C232.268 300.463 231.959 300.557 231.693 300.744C231.428 300.932 231.221 301.178 231.072 301.482V306H229.988V297H231.072V300.428ZM241.197 297.469L243.986 304.43L246.775 297.469H248.234V306H247.109V302.678L247.215 299.092L244.414 306H243.553L240.758 299.109L240.869 302.678V306H239.744V297.469H241.197ZM251.229 306H250.145V299.66H251.229V306ZM250.057 297.979C250.057 297.803 250.109 297.654 250.215 297.533C250.324 297.412 250.484 297.352 250.695 297.352C250.906 297.352 251.066 297.412 251.176 297.533C251.285 297.654 251.34 297.803 251.34 297.979C251.34 298.154 251.285 298.301 251.176 298.418C251.066 298.535 250.906 298.594 250.695 298.594C250.484 298.594 250.324 298.535 250.215 298.418C250.109 298.301 250.057 298.154 250.057 297.979ZM253.994 299.66L254.029 300.457C254.514 299.848 255.146 299.543 255.928 299.543C257.268 299.543 257.943 300.299 257.955 301.811V306H256.871V301.805C256.867 301.348 256.762 301.01 256.555 300.791C256.352 300.572 256.033 300.463 255.6 300.463C255.248 300.463 254.939 300.557 254.674 300.744C254.408 300.932 254.201 301.178 254.053 301.482V306H252.969V299.66H253.994ZM260.768 306H259.684V299.66H260.768V306ZM259.596 297.979C259.596 297.803 259.648 297.654 259.754 297.533C259.863 297.412 260.023 297.352 260.234 297.352C260.445 297.352 260.605 297.412 260.715 297.533C260.824 297.654 260.879 297.803 260.879 297.979C260.879 298.154 260.824 298.301 260.715 298.418C260.605 298.535 260.445 298.594 260.234 298.594C260.023 298.594 259.863 298.535 259.754 298.418C259.648 298.301 259.596 298.154 259.596 297.979ZM270.365 303.773H266.791L265.988 306H264.828L268.086 297.469H269.07L272.334 306H271.18L270.365 303.773ZM267.131 302.848H270.031L268.578 298.857L267.131 302.848ZM274.49 306H273.406V297H274.49V306ZM281.598 302.9C281.598 303.869 281.375 304.648 280.93 305.238C280.484 305.824 279.887 306.117 279.137 306.117C278.336 306.117 277.717 305.834 277.279 305.268L277.227 306H276.23V297H277.314V300.357C277.752 299.814 278.355 299.543 279.125 299.543C279.895 299.543 280.498 299.834 280.936 300.416C281.377 300.998 281.598 301.795 281.598 302.807V302.9ZM280.514 302.777C280.514 302.039 280.371 301.469 280.086 301.066C279.801 300.664 279.391 300.463 278.855 300.463C278.141 300.463 277.627 300.795 277.314 301.459V304.201C277.646 304.865 278.164 305.197 278.867 305.197C279.387 305.197 279.791 304.996 280.08 304.594C280.369 304.191 280.514 303.586 280.514 302.777ZM286.883 305.373C286.461 305.869 285.842 306.117 285.025 306.117C284.35 306.117 283.834 305.922 283.479 305.531C283.127 305.137 282.949 304.555 282.945 303.785V299.66H284.029V303.756C284.029 304.717 284.42 305.197 285.201 305.197C286.029 305.197 286.58 304.889 286.854 304.271V299.66H287.938V306H286.906L286.883 305.373ZM290.609 299.66L290.639 300.363C291.104 299.816 291.73 299.543 292.52 299.543C293.406 299.543 294.01 299.883 294.33 300.562C294.541 300.258 294.814 300.012 295.15 299.824C295.49 299.637 295.891 299.543 296.352 299.543C297.742 299.543 298.449 300.279 298.473 301.752V306H297.389V301.816C297.389 301.363 297.285 301.025 297.078 300.803C296.871 300.576 296.523 300.463 296.035 300.463C295.633 300.463 295.299 300.584 295.033 300.826C294.768 301.064 294.613 301.387 294.57 301.793V306H293.48V301.846C293.48 300.924 293.029 300.463 292.127 300.463C291.416 300.463 290.93 300.766 290.668 301.371V306H289.584V299.66H290.609Z" fill="#767676"/>
<path d="M131.814 327.506L134.252 320.469H135.482L132.318 329H131.322L128.164 320.469H129.389L131.814 327.506ZM140.105 329C140.043 328.875 139.992 328.652 139.953 328.332C139.449 328.855 138.848 329.117 138.148 329.117C137.523 329.117 137.01 328.941 136.607 328.59C136.209 328.234 136.01 327.785 136.01 327.242C136.01 326.582 136.26 326.07 136.76 325.707C137.264 325.34 137.971 325.156 138.881 325.156H139.936V324.658C139.936 324.279 139.822 323.979 139.596 323.756C139.369 323.529 139.035 323.416 138.594 323.416C138.207 323.416 137.883 323.514 137.621 323.709C137.359 323.904 137.229 324.141 137.229 324.418H136.139C136.139 324.102 136.25 323.797 136.473 323.504C136.699 323.207 137.004 322.973 137.387 322.801C137.773 322.629 138.197 322.543 138.658 322.543C139.389 322.543 139.961 322.727 140.375 323.094C140.789 323.457 141.004 323.959 141.02 324.6V327.518C141.02 328.1 141.094 328.562 141.242 328.906V329H140.105ZM138.307 328.174C138.646 328.174 138.969 328.086 139.273 327.91C139.578 327.734 139.799 327.506 139.936 327.225V325.924H139.086C137.758 325.924 137.094 326.312 137.094 327.09C137.094 327.43 137.207 327.695 137.434 327.887C137.66 328.078 137.951 328.174 138.307 328.174ZM143.896 329H142.812V320H143.896V329ZM149.551 328.373C149.129 328.869 148.51 329.117 147.693 329.117C147.018 329.117 146.502 328.922 146.146 328.531C145.795 328.137 145.617 327.555 145.613 326.785V322.66H146.697V326.756C146.697 327.717 147.088 328.197 147.869 328.197C148.697 328.197 149.248 327.889 149.521 327.271V322.66H150.605V329H149.574L149.551 328.373ZM154.889 329.117C154.029 329.117 153.33 328.836 152.791 328.273C152.252 327.707 151.982 326.951 151.982 326.006V325.807C151.982 325.178 152.102 324.617 152.34 324.125C152.582 323.629 152.918 323.242 153.348 322.965C153.781 322.684 154.25 322.543 154.754 322.543C155.578 322.543 156.219 322.814 156.676 323.357C157.133 323.9 157.361 324.678 157.361 325.689V326.141H153.066C153.082 326.766 153.264 327.271 153.611 327.658C153.963 328.041 154.408 328.232 154.947 328.232C155.33 328.232 155.654 328.154 155.92 327.998C156.186 327.842 156.418 327.635 156.617 327.377L157.279 327.893C156.748 328.709 155.951 329.117 154.889 329.117ZM154.754 323.434C154.316 323.434 153.949 323.594 153.652 323.914C153.355 324.23 153.172 324.676 153.102 325.25H156.277V325.168C156.246 324.617 156.098 324.191 155.832 323.891C155.566 323.586 155.207 323.434 154.754 323.434ZM158.586 328.432C158.586 328.244 158.641 328.088 158.75 327.963C158.863 327.838 159.031 327.775 159.254 327.775C159.477 327.775 159.645 327.838 159.758 327.963C159.875 328.088 159.934 328.244 159.934 328.432C159.934 328.611 159.875 328.762 159.758 328.883C159.645 329.004 159.477 329.064 159.254 329.064C159.031 329.064 158.863 329.004 158.75 328.883C158.641 328.762 158.586 328.611 158.586 328.432ZM158.592 323.258C158.592 323.07 158.646 322.914 158.756 322.789C158.869 322.664 159.037 322.602 159.26 322.602C159.482 322.602 159.65 322.664 159.764 322.789C159.881 322.914 159.939 323.07 159.939 323.258C159.939 323.438 159.881 323.588 159.764 323.709C159.65 323.83 159.482 323.891 159.26 323.891C159.037 323.891 158.869 323.83 158.756 323.709C158.646 323.588 158.592 323.438 158.592 323.258ZM169.9 321.078L166.367 329H165.23L168.752 321.359H164.135V320.469H169.9V321.078ZM176.305 322.695C176.305 323.121 176.191 323.5 175.965 323.832C175.742 324.164 175.439 324.424 175.057 324.611C175.502 324.803 175.854 325.082 176.111 325.449C176.373 325.816 176.504 326.232 176.504 326.697C176.504 327.436 176.254 328.023 175.754 328.461C175.258 328.898 174.604 329.117 173.791 329.117C172.971 329.117 172.312 328.898 171.816 328.461C171.324 328.02 171.078 327.432 171.078 326.697C171.078 326.236 171.203 325.82 171.453 325.449C171.707 325.078 172.057 324.797 172.502 324.605C172.123 324.418 171.824 324.158 171.605 323.826C171.387 323.494 171.277 323.117 171.277 322.695C171.277 321.977 171.508 321.406 171.969 320.984C172.43 320.562 173.037 320.352 173.791 320.352C174.541 320.352 175.146 320.562 175.607 320.984C176.072 321.406 176.305 321.977 176.305 322.695ZM175.42 326.674C175.42 326.197 175.268 325.809 174.963 325.508C174.662 325.207 174.268 325.057 173.779 325.057C173.291 325.057 172.898 325.205 172.602 325.502C172.309 325.799 172.162 326.189 172.162 326.674C172.162 327.158 172.305 327.539 172.59 327.816C172.879 328.094 173.279 328.232 173.791 328.232C174.299 328.232 174.697 328.094 174.986 327.816C175.275 327.535 175.42 327.154 175.42 326.674ZM173.791 321.242C173.365 321.242 173.02 321.375 172.754 321.641C172.492 321.902 172.361 322.26 172.361 322.713C172.361 323.146 172.49 323.498 172.748 323.768C173.01 324.033 173.357 324.166 173.791 324.166C174.225 324.166 174.57 324.033 174.828 323.768C175.09 323.498 175.221 323.146 175.221 322.713C175.221 322.279 175.086 321.926 174.816 321.652C174.547 321.379 174.205 321.242 173.791 321.242Z" fill="#767676"/>
<path d="M134.113 280.848H130.533L129.784 283H128.114L131.605 273.758H133.046L136.544 283H134.868L134.113 280.848ZM130.983 279.553H133.662L132.323 275.719L130.983 279.553ZM139.089 283H137.547V273.25H139.089V283ZM146.802 279.636C146.802 280.702 146.563 281.551 146.084 282.181C145.611 282.812 144.957 283.127 144.123 283.127C143.319 283.127 142.693 282.837 142.244 282.257L142.168 283H140.771V273.25H142.314V276.792C142.758 276.267 143.357 276.005 144.11 276.005C144.948 276.005 145.606 276.316 146.084 276.938C146.563 277.56 146.802 278.43 146.802 279.547V279.636ZM145.259 279.502C145.259 278.758 145.128 278.199 144.866 277.827C144.603 277.454 144.222 277.268 143.723 277.268C143.055 277.268 142.585 277.56 142.314 278.144V280.975C142.589 281.572 143.063 281.87 143.736 281.87C144.218 281.87 144.591 281.69 144.853 281.331C145.115 280.971 145.251 280.427 145.259 279.699V279.502ZM152.261 282.327C151.808 282.86 151.165 283.127 150.331 283.127C149.586 283.127 149.021 282.909 148.636 282.473C148.255 282.037 148.065 281.407 148.065 280.582V276.132H149.607V280.562C149.607 281.434 149.969 281.87 150.693 281.87C151.442 281.87 151.948 281.601 152.21 281.064V276.132H153.752V283H152.299L152.261 282.327ZM156.774 276.132L156.818 276.849C157.301 276.286 157.961 276.005 158.799 276.005C159.717 276.005 160.346 276.356 160.684 277.059C161.183 276.356 161.886 276.005 162.792 276.005C163.549 276.005 164.112 276.214 164.48 276.633C164.852 277.052 165.043 277.67 165.051 278.487V283H163.509V278.531C163.509 278.095 163.414 277.776 163.223 277.573C163.033 277.37 162.717 277.268 162.277 277.268C161.926 277.268 161.638 277.363 161.414 277.554C161.194 277.74 161.04 277.985 160.951 278.29L160.957 283H159.415V278.48C159.393 277.672 158.981 277.268 158.177 277.268C157.559 277.268 157.121 277.52 156.863 278.023V283H155.32V276.132H156.774ZM167.565 281.375C167.853 281.375 168.075 281.458 168.231 281.623C168.388 281.783 168.466 281.986 168.466 282.232C168.466 282.473 168.388 282.674 168.231 282.835C168.075 282.992 167.853 283.07 167.565 283.07C167.29 283.07 167.072 282.992 166.911 282.835C166.75 282.678 166.67 282.477 166.67 282.232C166.67 281.986 166.748 281.783 166.905 281.623C167.061 281.458 167.281 281.375 167.565 281.375ZM167.565 275.986C167.853 275.986 168.075 276.068 168.231 276.233C168.388 276.394 168.466 276.597 168.466 276.843C168.466 277.084 168.388 277.285 168.231 277.446C168.075 277.602 167.853 277.681 167.565 277.681C167.29 277.681 167.072 277.602 166.911 277.446C166.75 277.289 166.67 277.088 166.67 276.843C166.67 276.597 166.748 276.394 166.905 276.233C167.061 276.068 167.281 275.986 167.565 275.986Z" fill="black"/>
<defs>
<filter id="filter0_d_577_1434" x="89" y="238" width="262" height="134" filterUnits="userSpaceOnUse" color-interpolation-filters="sRGB">
<feFlood flood-opacity="0" result="BackgroundImageFix"/>
<feColorMatrix in="SourceAlpha" type="matrix" values="0 0 0 0 0 0 0 0 0 0 0 0 0 0 0 0 0 0 127 0" result="hardAlpha"/>
<feOffset dx="5" dy="5"/>
<feGaussianBlur stdDeviation="10"/>
<feComposite in2="hardAlpha" operator="out"/>
<feColorMatrix type="matrix" values="0 0 0 0 0.827451 0 0 0 0 0.576471 0 0 0 0 0.913725 0 0 0 0.27 0"/>
<feBlend mode="normal" in2="BackgroundImageFix" result="effect1_dropShadow_577_1434"/>
<feBlend mode="normal" in="SourceGraphic" in2="effect1_dropShadow_577_1434" result="shape"/>
</filter>
<linearGradient id="paint0_linear_577_1434" x1="504.167" y1="19" x2="503.252" y2="47.2703" gradientUnits="userSpaceOnUse">
<stop stop-color="#D080EC"/>
<stop offset="1" stop-color="#D393E9"/>
</linearGradient>
<linearGradient id="paint1_linear_577_1434" x1="524.524" y1="-2.71429" x2="509.169" y2="5.72038" gradientUnits="userSpaceOnUse">
<stop stop-color="#D393E9"/>
<stop offset="1" stop-color="#D080EC"/>
</linearGradient>
<linearGradient id="paint2_linear_577_1434" x1="421.579" y1="109" x2="420.486" y2="137.258" gradientUnits="userSpaceOnUse">
<stop stop-color="#D080EC"/>
<stop offset="1" stop-color="#D393E9"/>
</linearGradient>
<linearGradient id="paint3_linear_577_1434" x1="438.524" y1="87.2857" x2="423.169" y2="95.7204" gradientUnits="userSpaceOnUse">
<stop stop-color="#D393E9"/>
<stop offset="1" stop-color="#D080EC"/>
</linearGradient>
<linearGradient id="paint4_linear_577_1434" x1="238.159" y1="289" x2="236.229" y2="317.168" gradientUnits="userSpaceOnUse">
<stop stop-color="#D080EC"/>
<stop offset="1" stop-color="#D393E9"/>
</linearGradient>
<linearGradient id="paint5_linear_577_1434" x1="465.754" y1="64" x2="464.764" y2="92.2652" gradientUnits="userSpaceOnUse">
<stop stop-color="#D080EC"/>
<stop offset="1" stop-color="#D393E9"/>
</linearGradient>
<linearGradient id="paint6_linear_577_1434" x1="484.524" y1="42.2857" x2="469.169" y2="50.7204" gradientUnits="userSpaceOnUse">
<stop stop-color="#D393E9"/>
<stop offset="1" stop-color="#D080EC"/>
</linearGradient>
<linearGradient id="paint7_linear_577_1434" x1="371.643" y1="154" x2="370.403" y2="182.245" gradientUnits="userSpaceOnUse">
<stop stop-color="#D080EC"/>
<stop offset="1" stop-color="#D393E9"/>
</linearGradient>
<linearGradient id="paint8_linear_577_1434" x1="386.524" y1="132.286" x2="371.169" y2="140.72" gradientUnits="userSpaceOnUse">
<stop stop-color="#D393E9"/>
<stop offset="1" stop-color="#D080EC"/>
</linearGradient>
<linearGradient id="paint9_linear_577_1434" x1="202.627" y1="334" x2="200.363" y2="362.118" gradientUnits="userSpaceOnUse">
<stop stop-color="#D080EC"/>
<stop offset="1" stop-color="#D393E9"/>
</linearGradient>
<linearGradient id="paint10_linear_577_1434" x1="328.429" y1="199" x2="327.026" y2="227.23" gradientUnits="userSpaceOnUse">
<stop stop-color="#D080EC"/>
<stop offset="1" stop-color="#D393E9"/>
</linearGradient>
<linearGradient id="paint11_linear_577_1434" x1="341.524" y1="177.286" x2="326.169" y2="185.72" gradientUnits="userSpaceOnUse">
<stop stop-color="#D393E9"/>
<stop offset="1" stop-color="#D080EC"/>
</linearGradient>
<linearGradient id="paint12_linear_577_1434" x1="160.373" y1="379" x2="157.523" y2="407.01" gradientUnits="userSpaceOnUse">
<stop stop-color="#D080EC"/>
<stop offset="1" stop-color="#D393E9"/>
</linearGradient>
<linearGradient id="paint13_linear_577_1434" x1="166.524" y1="357.286" x2="151.169" y2="365.72" gradientUnits="userSpaceOnUse">
<stop stop-color="#D393E9"/>
<stop offset="1" stop-color="#D080EC"/>
</linearGradient>
<linearGradient id="paint14_linear_577_1434" x1="279.452" y1="244" x2="277.806" y2="272.204" gradientUnits="userSpaceOnUse">
<stop stop-color="#D080EC"/>
<stop offset="1" stop-color="#D393E9"/>
</linearGradient>
<linearGradient id="paint15_linear_577_1434" x1="290.524" y1="222.286" x2="275.169" y2="230.72" gradientUnits="userSpaceOnUse">
<stop stop-color="#D393E9"/>
<stop offset="1" stop-color="#D080EC"/>
</linearGradient>
<linearGradient id="paint16_linear_577_1434" x1="137.325" y1="424" x2="134.01" y2="451.906" gradientUnits="userSpaceOnUse">
<stop stop-color="#D080EC"/>
<stop offset="1" stop-color="#D393E9"/>
</linearGradient>
<linearGradient id="paint17_linear_577_1434" x1="142.524" y1="402.286" x2="127.169" y2="410.72" gradientUnits="userSpaceOnUse">
<stop stop-color="#D393E9"/>
<stop offset="1" stop-color="#D080EC"/>
</linearGradient>
</defs>
</svg>
