<svg width="677" height="270" viewBox="0 0 677 270" fill="none" xmlns="http://www.w3.org/2000/svg">
<path d="M12.0068 262H10.8262V254.173L8.4585 255.043V253.977L11.8228 252.713H12.0068V262ZM17.1548 256.808H18.0371C18.5915 256.799 19.0273 256.653 19.3447 256.37C19.6621 256.086 19.8208 255.703 19.8208 255.221C19.8208 254.137 19.2812 253.596 18.2021 253.596C17.6943 253.596 17.2881 253.742 16.9834 254.034C16.6829 254.321 16.5327 254.704 16.5327 255.183H15.3584C15.3584 254.451 15.625 253.843 16.1582 253.361C16.6956 252.874 17.377 252.631 18.2021 252.631C19.0739 252.631 19.7573 252.861 20.2524 253.323C20.7476 253.784 20.9951 254.425 20.9951 255.246C20.9951 255.648 20.8639 256.037 20.6016 256.414C20.3434 256.791 19.9901 257.072 19.5415 257.258C20.0493 257.419 20.4408 257.686 20.7158 258.058C20.9951 258.431 21.1348 258.885 21.1348 259.423C21.1348 260.252 20.8639 260.91 20.3223 261.397C19.7806 261.884 19.076 262.127 18.2085 262.127C17.341 262.127 16.6343 261.892 16.0884 261.422C15.5467 260.953 15.2759 260.333 15.2759 259.562H16.4565C16.4565 260.049 16.6152 260.438 16.9326 260.73C17.25 261.022 17.6753 261.168 18.2085 261.168C18.7756 261.168 19.2093 261.02 19.5098 260.724C19.8102 260.428 19.9604 260.003 19.9604 259.448C19.9604 258.911 19.7954 258.498 19.4653 258.21C19.1353 257.923 18.6592 257.775 18.0371 257.766H17.1548V256.808ZM28.5361 258.553H25.4385V257.595H28.5361V258.553ZM36.6484 262H35.4678V254.173L33.1001 255.043V253.977L36.4644 252.713H36.6484V262ZM46.0557 253.418L42.228 262H40.9966L44.8115 253.723H39.8096V252.758H46.0557V253.418Z" fill="#BCB9B9"/>
<path d="M38.0896 228H36.908V222.292L35.1648 222.888V221.887L37.9383 220.866H38.0896V228ZM45.1406 228H40.3604V227.185L42.7285 224.602C43.0703 224.221 43.3128 223.903 43.4561 223.649C43.6025 223.392 43.6758 223.135 43.6758 222.878C43.6758 222.539 43.5798 222.266 43.3877 222.058C43.1989 221.849 42.9434 221.745 42.6211 221.745C42.237 221.745 41.9391 221.862 41.7275 222.097C41.516 222.331 41.4102 222.652 41.4102 223.059H40.2236C40.2236 222.626 40.3213 222.237 40.5166 221.892C40.7152 221.543 40.9967 221.273 41.3613 221.081C41.7292 220.889 42.1523 220.793 42.6309 220.793C43.321 220.793 43.8646 220.967 44.2617 221.315C44.6621 221.661 44.8623 222.139 44.8623 222.751C44.8623 223.106 44.7614 223.479 44.5596 223.869C44.361 224.257 44.0339 224.698 43.5781 225.192L41.8398 227.053H45.1406V228ZM45.7951 222.258C45.7951 221.828 45.9335 221.477 46.2102 221.203C46.4868 220.926 46.8498 220.788 47.299 220.788C47.7548 220.788 48.1193 220.926 48.3928 221.203C48.6695 221.477 48.8078 221.836 48.8078 222.282V222.634C48.8078 223.06 48.6695 223.41 48.3928 223.684C48.1193 223.957 47.758 224.094 47.3088 224.094C46.8693 224.094 46.5064 223.96 46.2199 223.693C45.9367 223.423 45.7951 223.06 45.7951 222.605V222.258ZM46.6252 222.634C46.6252 222.858 46.687 223.041 46.8107 223.181C46.9377 223.317 47.1037 223.386 47.3088 223.386C47.5106 223.386 47.6734 223.317 47.7971 223.181C47.9208 223.041 47.9826 222.852 47.9826 222.614V222.258C47.9826 222.033 47.9191 221.851 47.7922 221.711C47.6685 221.571 47.5041 221.501 47.299 221.501C47.0939 221.501 46.9296 221.573 46.8059 221.716C46.6854 221.856 46.6252 222.041 46.6252 222.273V222.634ZM49.2131 226.257C49.2131 225.821 49.3547 225.468 49.6379 225.197C49.9211 224.927 50.2824 224.792 50.7219 224.792C51.1646 224.792 51.5259 224.927 51.8059 225.197C52.0891 225.468 52.2307 225.832 52.2307 226.291V226.638C52.2307 227.061 52.0939 227.411 51.8205 227.688C51.5503 227.961 51.1874 228.098 50.7316 228.098C50.2759 228.098 49.9081 227.963 49.6281 227.692C49.3514 227.419 49.2131 227.059 49.2131 226.613V226.257ZM50.0432 226.638C50.0432 226.859 50.1066 227.041 50.2336 227.185C50.3638 227.325 50.5298 227.395 50.7316 227.395C50.94 227.395 51.1027 227.328 51.2199 227.194C51.3404 227.058 51.4006 226.867 51.4006 226.623V226.257C51.4006 226.029 51.3371 225.847 51.2102 225.71C51.0832 225.573 50.9204 225.505 50.7219 225.505C50.5201 225.505 50.3557 225.573 50.2287 225.71C50.105 225.847 50.0432 226.036 50.0432 226.276V226.638ZM47.5529 227.468L46.9426 227.116L50.4143 221.56L51.0246 221.911L47.5529 227.468Z" fill="#BCB9B9"/>
<rect x="38" y="207" width="207" height="11" rx="5.50001" transform="rotate(-90 38 207)" fill="#F2F2F2"/>
<rect x="38" y="207" width="35" height="11" rx="5.5" transform="rotate(-90 38 207)" fill="url(#paint0_linear_441_5561)"/>
<path d="M5.39883 228H0.618555V227.185L2.98672 224.602C3.32852 224.221 3.57103 223.903 3.71426 223.65C3.86074 223.392 3.93398 223.135 3.93398 222.878C3.93398 222.54 3.83796 222.266 3.6459 222.058C3.4571 221.849 3.20156 221.745 2.8793 221.745C2.49518 221.745 2.19733 221.862 1.98574 222.097C1.77415 222.331 1.66836 222.652 1.66836 223.059H0.481836C0.481836 222.626 0.579492 222.237 0.774805 221.892C0.973372 221.543 1.25495 221.273 1.61953 221.081C1.98737 220.889 2.41055 220.793 2.88906 220.793C3.57917 220.793 4.12279 220.967 4.51992 221.316C4.92031 221.661 5.12051 222.139 5.12051 222.751C5.12051 223.106 5.0196 223.479 4.81777 223.869C4.61921 224.257 4.29206 224.698 3.83633 225.193L2.09805 227.053H5.39883V228ZM6.05332 222.258C6.05332 221.828 6.19167 221.477 6.46836 221.203C6.74505 220.927 7.10801 220.788 7.55723 220.788C8.01296 220.788 8.37754 220.927 8.65098 221.203C8.92767 221.477 9.06602 221.836 9.06602 222.282V222.634C9.06602 223.06 8.92767 223.41 8.65098 223.684C8.37754 223.957 8.01621 224.094 7.56699 224.094C7.12754 224.094 6.76458 223.96 6.47813 223.693C6.19492 223.423 6.05332 223.06 6.05332 222.605V222.258ZM6.8834 222.634C6.8834 222.859 6.94525 223.041 7.06895 223.181C7.1959 223.318 7.36191 223.386 7.56699 223.386C7.76882 223.386 7.93158 223.318 8.05527 223.181C8.17897 223.041 8.24082 222.852 8.24082 222.614V222.258C8.24082 222.033 8.17734 221.851 8.05039 221.711C7.92669 221.571 7.7623 221.501 7.55723 221.501C7.35215 221.501 7.18776 221.573 7.06406 221.716C6.94362 221.856 6.8834 222.041 6.8834 222.273V222.634ZM9.47129 226.257C9.47129 225.821 9.61289 225.468 9.89609 225.197C10.1793 224.927 10.5406 224.792 10.9801 224.792C11.4228 224.792 11.7841 224.927 12.0641 225.197C12.3473 225.468 12.4889 225.832 12.4889 226.291V226.638C12.4889 227.061 12.3521 227.411 12.0787 227.688C11.8085 227.961 11.4456 228.098 10.9898 228.098C10.5341 228.098 10.1663 227.963 9.88633 227.693C9.60964 227.419 9.47129 227.059 9.47129 226.613V226.257ZM10.3014 226.638C10.3014 226.859 10.3648 227.041 10.4918 227.185C10.622 227.325 10.788 227.395 10.9898 227.395C11.1982 227.395 11.3609 227.328 11.4781 227.194C11.5986 227.058 11.6588 226.867 11.6588 226.623V226.257C11.6588 226.029 11.5953 225.847 11.4684 225.71C11.3414 225.573 11.1786 225.505 10.9801 225.505C10.7783 225.505 10.6139 225.573 10.4869 225.71C10.3632 225.847 10.3014 226.036 10.3014 226.276V226.638ZM7.81113 227.468L7.20078 227.116L10.6725 221.56L11.2828 221.911L7.81113 227.468Z" fill="#BCB9B9"/>
<rect x="1" y="207" width="207" height="11" rx="5.50001" transform="rotate(-90 1 207)" fill="#F2F2F2"/>
<rect x="1" y="207" width="15" height="11" rx="5.5" transform="rotate(-90 1 207)" fill="url(#paint1_linear_441_5561)"/>
<path d="M139.007 262H137.826V254.173L135.458 255.043V253.977L138.823 252.713H139.007V262ZM148.052 255.17C148.052 255.631 147.93 256.042 147.684 256.401C147.443 256.761 147.115 257.042 146.7 257.246C147.183 257.453 147.563 257.756 147.843 258.153C148.126 258.551 148.268 259.002 148.268 259.505C148.268 260.305 147.997 260.942 147.456 261.416C146.918 261.89 146.209 262.127 145.329 262.127C144.44 262.127 143.727 261.89 143.19 261.416C142.657 260.938 142.39 260.301 142.39 259.505C142.39 259.006 142.526 258.555 142.796 258.153C143.071 257.751 143.45 257.447 143.933 257.239C143.522 257.036 143.198 256.755 142.961 256.395C142.724 256.035 142.606 255.627 142.606 255.17C142.606 254.391 142.856 253.773 143.355 253.316C143.854 252.859 144.512 252.631 145.329 252.631C146.142 252.631 146.798 252.859 147.297 253.316C147.8 253.773 148.052 254.391 148.052 255.17ZM147.094 259.48C147.094 258.964 146.929 258.543 146.599 258.217C146.273 257.891 145.845 257.728 145.316 257.728C144.787 257.728 144.362 257.889 144.041 258.21C143.723 258.532 143.564 258.955 143.564 259.48C143.564 260.005 143.719 260.417 144.028 260.718C144.341 261.018 144.775 261.168 145.329 261.168C145.879 261.168 146.311 261.018 146.624 260.718C146.937 260.413 147.094 260 147.094 259.48ZM145.329 253.596C144.868 253.596 144.493 253.74 144.206 254.027C143.922 254.311 143.78 254.698 143.78 255.189C143.78 255.659 143.92 256.04 144.199 256.332C144.483 256.619 144.859 256.763 145.329 256.763C145.799 256.763 146.173 256.619 146.453 256.332C146.736 256.04 146.878 255.659 146.878 255.189C146.878 254.719 146.732 254.336 146.44 254.04C146.148 253.744 145.778 253.596 145.329 253.596ZM155.536 258.553H152.438V257.595H155.536V258.553ZM165.845 262H159.789V261.156L162.988 257.601C163.462 257.064 163.788 256.628 163.966 256.293C164.148 255.955 164.239 255.606 164.239 255.246C164.239 254.764 164.093 254.368 163.801 254.059C163.509 253.75 163.119 253.596 162.633 253.596C162.049 253.596 161.594 253.763 161.268 254.097C160.946 254.427 160.786 254.889 160.786 255.481H159.611C159.611 254.63 159.884 253.943 160.43 253.418C160.98 252.893 161.715 252.631 162.633 252.631C163.492 252.631 164.171 252.857 164.67 253.31C165.17 253.759 165.419 254.357 165.419 255.106C165.419 256.016 164.84 257.1 163.68 258.356L161.205 261.042H165.845V262ZM172.046 258.896H173.329V259.854H172.046V262H170.866V259.854H166.657V259.163L170.796 252.758H172.046V258.896ZM167.99 258.896H170.866V254.364L170.726 254.618L167.99 258.896Z" fill="#BCB9B9"/>
<path d="M166.89 225.466H167.774V226.418H166.89V228H165.704V226.418H162.633L162.598 225.695L165.665 220.891H166.89V225.466ZM163.844 225.466H165.704V222.497L165.616 222.653L163.844 225.466ZM173.141 228H168.36V227.185L170.729 224.602C171.07 224.221 171.313 223.903 171.456 223.649C171.603 223.392 171.676 223.135 171.676 222.878C171.676 222.539 171.58 222.266 171.388 222.058C171.199 221.849 170.943 221.745 170.621 221.745C170.237 221.745 169.939 221.862 169.728 222.097C169.516 222.331 169.41 222.652 169.41 223.059H168.224C168.224 222.626 168.321 222.237 168.517 221.892C168.715 221.543 168.997 221.273 169.361 221.081C169.729 220.889 170.152 220.793 170.631 220.793C171.321 220.793 171.865 220.967 172.262 221.315C172.662 221.66 172.862 222.139 172.862 222.751C172.862 223.106 172.761 223.479 172.56 223.869C172.361 224.257 172.034 224.698 171.578 225.192L169.84 227.053H173.141V228ZM173.795 222.258C173.795 221.828 173.933 221.477 174.21 221.203C174.487 220.926 174.85 220.788 175.299 220.788C175.755 220.788 176.119 220.926 176.393 221.203C176.669 221.477 176.808 221.836 176.808 222.282V222.634C176.808 223.06 176.669 223.41 176.393 223.684C176.119 223.957 175.758 224.094 175.309 224.094C174.869 224.094 174.506 223.96 174.22 223.693C173.937 223.423 173.795 223.06 173.795 222.604V222.258ZM174.625 222.634C174.625 222.858 174.687 223.041 174.811 223.181C174.938 223.317 175.104 223.386 175.309 223.386C175.511 223.386 175.673 223.317 175.797 223.181C175.921 223.041 175.983 222.852 175.983 222.614V222.258C175.983 222.033 175.919 221.851 175.792 221.711C175.668 221.571 175.504 221.501 175.299 221.501C175.094 221.501 174.93 221.573 174.806 221.716C174.685 221.856 174.625 222.041 174.625 222.272V222.634ZM177.213 226.257C177.213 225.821 177.355 225.467 177.638 225.197C177.921 224.927 178.282 224.792 178.722 224.792C179.165 224.792 179.526 224.927 179.806 225.197C180.089 225.467 180.231 225.832 180.231 226.291V226.638C180.231 227.061 180.094 227.411 179.821 227.688C179.55 227.961 179.187 228.098 178.732 228.098C178.276 228.098 177.908 227.963 177.628 227.692C177.351 227.419 177.213 227.059 177.213 226.613V226.257ZM178.043 226.638C178.043 226.859 178.107 227.041 178.234 227.185C178.364 227.325 178.53 227.395 178.732 227.395C178.94 227.395 179.103 227.328 179.22 227.194C179.34 227.058 179.401 226.867 179.401 226.623V226.257C179.401 226.029 179.337 225.847 179.21 225.71C179.083 225.573 178.92 225.505 178.722 225.505C178.52 225.505 178.356 225.573 178.229 225.71C178.105 225.847 178.043 226.035 178.043 226.276V226.638ZM175.553 227.468L174.943 227.116L178.414 221.56L179.025 221.911L175.553 227.468Z" fill="#BCB9B9"/>
<rect x="166" y="207" width="207" height="11" rx="5.50001" transform="rotate(-90 166 207)" fill="#F2F2F2"/>
<rect x="166" y="207" width="111" height="11" rx="5.5" transform="rotate(-90 166 207)" fill="url(#paint2_linear_441_5561)"/>
<path d="M129.09 228H127.908V222.292L126.165 222.888V221.887L128.938 220.866H129.09V228ZM134.573 228H133.392V222.292L131.648 222.888V221.887L134.422 220.866H134.573V228ZM136.795 222.258C136.795 221.828 136.933 221.477 137.21 221.203C137.487 220.926 137.85 220.788 138.299 220.788C138.755 220.788 139.119 220.926 139.393 221.203C139.669 221.477 139.808 221.836 139.808 222.282V222.634C139.808 223.06 139.669 223.41 139.393 223.684C139.119 223.957 138.758 224.094 138.309 224.094C137.869 224.094 137.506 223.96 137.22 223.693C136.937 223.423 136.795 223.06 136.795 222.604V222.258ZM137.625 222.634C137.625 222.858 137.687 223.041 137.811 223.181C137.938 223.317 138.104 223.386 138.309 223.386C138.511 223.386 138.673 223.317 138.797 223.181C138.921 223.041 138.983 222.852 138.983 222.614V222.258C138.983 222.033 138.919 221.851 138.792 221.711C138.668 221.571 138.504 221.501 138.299 221.501C138.094 221.501 137.93 221.573 137.806 221.716C137.685 221.856 137.625 222.041 137.625 222.272V222.634ZM140.213 226.257C140.213 225.821 140.355 225.467 140.638 225.197C140.921 224.927 141.282 224.792 141.722 224.792C142.165 224.792 142.526 224.927 142.806 225.197C143.089 225.467 143.231 225.832 143.231 226.291V226.638C143.231 227.061 143.094 227.411 142.821 227.688C142.55 227.961 142.187 228.098 141.732 228.098C141.276 228.098 140.908 227.963 140.628 227.692C140.351 227.419 140.213 227.059 140.213 226.613V226.257ZM141.043 226.638C141.043 226.859 141.107 227.041 141.234 227.185C141.364 227.325 141.53 227.395 141.732 227.395C141.94 227.395 142.103 227.328 142.22 227.194C142.34 227.058 142.401 226.867 142.401 226.623V226.257C142.401 226.029 142.337 225.847 142.21 225.71C142.083 225.573 141.92 225.505 141.722 225.505C141.52 225.505 141.356 225.573 141.229 225.71C141.105 225.847 141.043 226.035 141.043 226.276V226.638ZM138.553 227.468L137.943 227.116L141.414 221.56L142.025 221.911L138.553 227.468Z" fill="#BCB9B9"/>
<rect x="129" y="207" width="207" height="11" rx="5.50001" transform="rotate(-90 129 207)" fill="#F2F2F2"/>
<rect x="129" y="207" width="52" height="11" rx="5.5" transform="rotate(-90 129 207)" fill="url(#paint3_linear_441_5561)"/>
<path d="M266.203 262H260.147V261.156L263.347 257.601C263.821 257.064 264.146 256.628 264.324 256.293C264.506 255.955 264.597 255.606 264.597 255.246C264.597 254.764 264.451 254.368 264.159 254.059C263.867 253.75 263.478 253.596 262.991 253.596C262.407 253.596 261.952 253.763 261.626 254.097C261.305 254.427 261.144 254.889 261.144 255.481H259.97C259.97 254.63 260.243 253.943 260.789 253.418C261.339 252.893 262.073 252.631 262.991 252.631C263.85 252.631 264.529 252.857 265.029 253.31C265.528 253.759 265.778 254.357 265.778 255.106C265.778 256.016 265.198 257.1 264.039 258.356L261.563 261.042H266.203V262ZM267.987 257.366L268.457 252.758H273.192V253.843H269.453L269.174 256.363C269.627 256.097 270.141 255.963 270.716 255.963C271.558 255.963 272.227 256.243 272.722 256.801C273.217 257.356 273.465 258.107 273.465 259.055C273.465 260.007 273.207 260.758 272.69 261.308C272.178 261.854 271.461 262.127 270.539 262.127C269.722 262.127 269.055 261.901 268.539 261.448C268.023 260.995 267.729 260.369 267.657 259.569H268.768C268.84 260.098 269.028 260.498 269.333 260.769C269.637 261.035 270.039 261.168 270.539 261.168C271.084 261.168 271.512 260.982 271.821 260.61C272.134 260.237 272.291 259.723 272.291 259.067C272.291 258.45 272.121 257.954 271.783 257.582C271.448 257.205 271.002 257.017 270.443 257.017C269.931 257.017 269.529 257.129 269.237 257.354L268.926 257.607L267.987 257.366ZM280.536 258.553H277.438V257.595H280.536V258.553ZM286.497 256.808H287.379C287.933 256.799 288.369 256.653 288.687 256.37C289.004 256.086 289.163 255.703 289.163 255.221C289.163 254.137 288.623 253.596 287.544 253.596C287.036 253.596 286.63 253.742 286.325 254.034C286.025 254.321 285.875 254.704 285.875 255.183H284.7C284.7 254.451 284.967 253.843 285.5 253.361C286.037 252.874 286.719 252.631 287.544 252.631C288.416 252.631 289.099 252.861 289.594 253.323C290.089 253.784 290.337 254.425 290.337 255.246C290.337 255.648 290.206 256.037 289.943 256.414C289.685 256.791 289.332 257.072 288.883 257.258C289.391 257.419 289.783 257.686 290.058 258.058C290.337 258.431 290.477 258.885 290.477 259.423C290.477 260.252 290.206 260.91 289.664 261.397C289.122 261.884 288.418 262.127 287.55 262.127C286.683 262.127 285.976 261.892 285.43 261.422C284.889 260.953 284.618 260.333 284.618 259.562H285.798C285.798 260.049 285.957 260.438 286.274 260.73C286.592 261.022 287.017 261.168 287.55 261.168C288.117 261.168 288.551 261.02 288.852 260.724C289.152 260.428 289.302 260.003 289.302 259.448C289.302 258.911 289.137 258.498 288.807 258.21C288.477 257.923 288.001 257.775 287.379 257.766H286.497V256.808ZM297.046 258.896H298.329V259.854H297.046V262H295.866V259.854H291.657V259.163L295.796 252.758H297.046V258.896ZM292.99 258.896H295.866V254.364L295.726 254.618L292.99 258.896Z" fill="#BCB9B9"/>
<path d="M292.657 228H287.877V227.185L290.245 224.602C290.587 224.221 290.829 223.903 290.972 223.649C291.119 223.392 291.192 223.135 291.192 222.878C291.192 222.539 291.096 222.266 290.904 222.058C290.715 221.849 290.46 221.745 290.137 221.745C289.753 221.745 289.456 221.862 289.244 222.097C289.032 222.331 288.927 222.652 288.927 223.059H287.74C287.74 222.626 287.838 222.237 288.033 221.892C288.232 221.543 288.513 221.273 288.878 221.081C289.246 220.889 289.669 220.793 290.147 220.793C290.837 220.793 291.381 220.967 291.778 221.315C292.179 221.661 292.379 222.139 292.379 222.751C292.379 223.106 292.278 223.479 292.076 223.869C291.877 224.257 291.55 224.698 291.095 225.192L289.356 227.053H292.657V228ZM298.141 228H293.36V227.185L295.729 224.602C296.07 224.221 296.313 223.903 296.456 223.649C296.603 223.392 296.676 223.135 296.676 222.878C296.676 222.539 296.58 222.266 296.388 222.058C296.199 221.849 295.943 221.745 295.621 221.745C295.237 221.745 294.939 221.862 294.728 222.097C294.516 222.331 294.41 222.652 294.41 223.059H293.224C293.224 222.626 293.321 222.237 293.517 221.892C293.715 221.543 293.997 221.273 294.361 221.081C294.729 220.889 295.152 220.793 295.631 220.793C296.321 220.793 296.865 220.967 297.262 221.315C297.662 221.661 297.862 222.139 297.862 222.751C297.862 223.106 297.761 223.479 297.56 223.869C297.361 224.257 297.034 224.698 296.578 225.192L294.84 227.053H298.141V228ZM298.795 222.258C298.795 221.828 298.933 221.477 299.21 221.203C299.487 220.926 299.85 220.788 300.299 220.788C300.755 220.788 301.119 220.926 301.393 221.203C301.669 221.477 301.808 221.836 301.808 222.282V222.634C301.808 223.06 301.669 223.41 301.393 223.684C301.119 223.957 300.758 224.094 300.309 224.094C299.869 224.094 299.506 223.96 299.22 223.693C298.937 223.423 298.795 223.06 298.795 222.605V222.258ZM299.625 222.634C299.625 222.858 299.687 223.041 299.811 223.181C299.938 223.317 300.104 223.386 300.309 223.386C300.511 223.386 300.673 223.317 300.797 223.181C300.921 223.041 300.983 222.852 300.983 222.614V222.258C300.983 222.033 300.919 221.851 300.792 221.711C300.668 221.571 300.504 221.501 300.299 221.501C300.094 221.501 299.93 221.573 299.806 221.716C299.685 221.856 299.625 222.041 299.625 222.273V222.634ZM302.213 226.257C302.213 225.821 302.355 225.468 302.638 225.197C302.921 224.927 303.282 224.792 303.722 224.792C304.165 224.792 304.526 224.927 304.806 225.197C305.089 225.468 305.231 225.832 305.231 226.291V226.638C305.231 227.061 305.094 227.411 304.821 227.688C304.55 227.961 304.187 228.098 303.732 228.098C303.276 228.098 302.908 227.963 302.628 227.692C302.351 227.419 302.213 227.059 302.213 226.613V226.257ZM303.043 226.638C303.043 226.859 303.107 227.041 303.234 227.185C303.364 227.325 303.53 227.395 303.732 227.395C303.94 227.395 304.103 227.328 304.22 227.194C304.34 227.058 304.401 226.867 304.401 226.623V226.257C304.401 226.029 304.337 225.847 304.21 225.71C304.083 225.573 303.92 225.505 303.722 225.505C303.52 225.505 303.356 225.573 303.229 225.71C303.105 225.847 303.043 226.036 303.043 226.276V226.638ZM300.553 227.468L299.943 227.116L303.414 221.56L304.025 221.911L300.553 227.468Z" fill="#BCB9B9"/>
<rect x="291" y="207" width="207" height="11" rx="5.50001" transform="rotate(-90 291 207)" fill="#F2F2F2"/>
<rect x="291" y="207" width="65" height="11" rx="5.5" transform="rotate(-90 291 207)" fill="url(#paint4_linear_441_5561)"/>
<path d="M258.096 222.766C258.096 223.114 258.007 223.425 257.828 223.698C257.649 223.969 257.404 224.182 257.095 224.338C257.466 224.511 257.751 224.747 257.95 225.046C258.151 225.345 258.252 225.684 258.252 226.062C258.252 226.687 258.041 227.183 257.618 227.551C257.194 227.915 256.631 228.098 255.928 228.098C255.222 228.098 254.655 227.914 254.229 227.546C253.806 227.178 253.594 226.683 253.594 226.062C253.594 225.681 253.695 225.339 253.897 225.036C254.099 224.734 254.382 224.501 254.746 224.338C254.44 224.182 254.198 223.969 254.019 223.698C253.843 223.425 253.755 223.114 253.755 222.766C253.755 222.16 253.951 221.68 254.341 221.325C254.732 220.97 255.259 220.793 255.923 220.793C256.591 220.793 257.12 220.97 257.51 221.325C257.901 221.68 258.096 222.16 258.096 222.766ZM257.066 226.003C257.066 225.651 256.96 225.368 256.748 225.153C256.54 224.935 256.263 224.826 255.918 224.826C255.573 224.826 255.297 224.934 255.088 225.149C254.883 225.363 254.781 225.648 254.781 226.003C254.781 226.351 254.882 226.63 255.083 226.838C255.288 227.046 255.57 227.151 255.928 227.151C256.286 227.151 256.565 227.05 256.763 226.848C256.965 226.646 257.066 226.364 257.066 226.003ZM256.914 222.81C256.914 222.5 256.825 222.247 256.646 222.048C256.467 221.846 256.226 221.745 255.923 221.745C255.621 221.745 255.381 221.841 255.205 222.033C255.03 222.222 254.942 222.481 254.942 222.81C254.942 223.135 255.03 223.394 255.205 223.586C255.385 223.778 255.625 223.874 255.928 223.874C256.231 223.874 256.47 223.778 256.646 223.586C256.825 223.394 256.914 223.135 256.914 222.81ZM259.053 222.258C259.053 221.828 259.192 221.477 259.468 221.203C259.745 220.927 260.108 220.788 260.557 220.788C261.013 220.788 261.378 220.927 261.651 221.203C261.928 221.477 262.066 221.836 262.066 222.282V222.634C262.066 223.06 261.928 223.41 261.651 223.684C261.378 223.957 261.016 224.094 260.567 224.094C260.128 224.094 259.765 223.96 259.478 223.693C259.195 223.423 259.053 223.06 259.053 222.605V222.258ZM259.883 222.634C259.883 222.859 259.945 223.041 260.069 223.181C260.196 223.318 260.362 223.386 260.567 223.386C260.769 223.386 260.932 223.318 261.055 223.181C261.179 223.041 261.241 222.852 261.241 222.614V222.258C261.241 222.033 261.177 221.851 261.05 221.711C260.927 221.571 260.762 221.501 260.557 221.501C260.352 221.501 260.188 221.573 260.064 221.716C259.944 221.856 259.883 222.041 259.883 222.273V222.634ZM262.471 226.257C262.471 225.821 262.613 225.468 262.896 225.197C263.179 224.927 263.541 224.792 263.98 224.792C264.423 224.792 264.784 224.927 265.064 225.197C265.347 225.468 265.489 225.832 265.489 226.291V226.638C265.489 227.061 265.352 227.411 265.079 227.688C264.809 227.961 264.446 228.098 263.99 228.098C263.534 228.098 263.166 227.963 262.886 227.693C262.61 227.419 262.471 227.059 262.471 226.613V226.257ZM263.301 226.638C263.301 226.859 263.365 227.041 263.492 227.185C263.622 227.325 263.788 227.395 263.99 227.395C264.198 227.395 264.361 227.328 264.478 227.194C264.599 227.058 264.659 226.867 264.659 226.623V226.257C264.659 226.029 264.595 225.847 264.468 225.71C264.341 225.573 264.179 225.505 263.98 225.505C263.778 225.505 263.614 225.573 263.487 225.71C263.363 225.847 263.301 226.036 263.301 226.276V226.638ZM260.811 227.468L260.201 227.116L263.672 221.56L264.283 221.911L260.811 227.468Z" fill="#BCB9B9"/>
<rect x="254" y="207" width="207" height="11" rx="5.50001" transform="rotate(-90 254 207)" fill="#F2F2F2"/>
<rect x="254" y="207" width="26" height="11" rx="5.5" transform="rotate(-90 254 207)" fill="url(#paint5_linear_441_5561)"/>
<path d="M387.855 256.808H388.737C389.292 256.799 389.728 256.653 390.045 256.37C390.362 256.086 390.521 255.703 390.521 255.221C390.521 254.137 389.981 253.596 388.902 253.596C388.395 253.596 387.988 253.742 387.684 254.034C387.383 254.321 387.233 254.704 387.233 255.183H386.059C386.059 254.451 386.325 253.843 386.858 253.361C387.396 252.874 388.077 252.631 388.902 252.631C389.774 252.631 390.458 252.861 390.953 253.323C391.448 253.784 391.695 254.425 391.695 255.246C391.695 255.648 391.564 256.037 391.302 256.414C391.044 256.791 390.69 257.072 390.242 257.258C390.75 257.419 391.141 257.686 391.416 258.058C391.695 258.431 391.835 258.885 391.835 259.423C391.835 260.252 391.564 260.91 391.022 261.397C390.481 261.884 389.776 262.127 388.909 262.127C388.041 262.127 387.334 261.892 386.789 261.422C386.247 260.953 385.976 260.333 385.976 259.562H387.157C387.157 260.049 387.315 260.438 387.633 260.73C387.95 261.022 388.375 261.168 388.909 261.168C389.476 261.168 389.91 261.02 390.21 260.724C390.51 260.428 390.661 260.003 390.661 259.448C390.661 258.911 390.496 258.498 390.166 258.21C389.835 257.923 389.359 257.775 388.737 257.766H387.855V256.808ZM393.987 257.366L394.457 252.758H399.192V253.843H395.453L395.174 256.363C395.627 256.097 396.141 255.963 396.716 255.963C397.558 255.963 398.227 256.243 398.722 256.801C399.217 257.356 399.465 258.107 399.465 259.055C399.465 260.007 399.207 260.758 398.69 261.308C398.178 261.854 397.461 262.127 396.539 262.127C395.722 262.127 395.055 261.901 394.539 261.448C394.023 260.995 393.729 260.369 393.657 259.569H394.768C394.84 260.098 395.028 260.498 395.333 260.769C395.637 261.035 396.039 261.168 396.539 261.168C397.084 261.168 397.512 260.982 397.821 260.61C398.134 260.237 398.291 259.723 398.291 259.067C398.291 258.45 398.121 257.954 397.783 257.582C397.448 257.205 397.002 257.017 396.443 257.017C395.931 257.017 395.529 257.129 395.237 257.354L394.926 257.607L393.987 257.366ZM406.536 258.553H403.438V257.595H406.536V258.553ZM415.747 258.896H417.029V259.854H415.747V262H414.566V259.854H410.357V259.163L414.496 252.758H415.747V258.896ZM411.69 258.896H414.566V254.364L414.426 254.618L411.69 258.896ZM423.046 258.896H424.329V259.854H423.046V262H421.866V259.854H417.657V259.163L421.796 252.758H423.046V258.896ZM418.99 258.896H421.866V254.364L421.726 254.618L418.99 258.896Z" fill="#BCB9B9"/>
<path d="M420.399 228H415.619V227.185L417.987 224.602C418.329 224.221 418.571 223.903 418.714 223.649C418.861 223.392 418.934 223.135 418.934 222.878C418.934 222.539 418.838 222.266 418.646 222.058C418.457 221.849 418.202 221.745 417.879 221.745C417.495 221.745 417.197 221.862 416.986 222.097C416.774 222.331 416.668 222.652 416.668 223.059H415.482C415.482 222.626 415.579 222.237 415.775 221.892C415.973 221.543 416.255 221.273 416.62 221.081C416.987 220.889 417.411 220.793 417.889 220.793C418.579 220.793 419.123 220.967 419.52 221.315C419.92 221.661 420.121 222.139 420.121 222.751C420.121 223.106 420.02 223.479 419.818 223.869C419.619 224.257 419.292 224.698 418.836 225.192L417.098 227.053H420.399V228ZM421.053 222.258C421.053 221.828 421.192 221.477 421.468 221.203C421.745 220.926 422.108 220.788 422.557 220.788C423.013 220.788 423.378 220.926 423.651 221.203C423.928 221.477 424.066 221.836 424.066 222.282V222.634C424.066 223.06 423.928 223.41 423.651 223.684C423.378 223.957 423.016 224.094 422.567 224.094C422.128 224.094 421.765 223.96 421.478 223.693C421.195 223.423 421.053 223.06 421.053 222.605V222.258ZM421.883 222.634C421.883 222.858 421.945 223.041 422.069 223.181C422.196 223.317 422.362 223.386 422.567 223.386C422.769 223.386 422.932 223.317 423.055 223.181C423.179 223.041 423.241 222.852 423.241 222.614V222.258C423.241 222.033 423.177 221.851 423.05 221.711C422.927 221.571 422.762 221.501 422.557 221.501C422.352 221.501 422.188 221.573 422.064 221.716C421.944 221.856 421.883 222.041 421.883 222.273V222.634ZM424.471 226.257C424.471 225.821 424.613 225.468 424.896 225.197C425.179 224.927 425.541 224.792 425.98 224.792C426.423 224.792 426.784 224.927 427.064 225.197C427.347 225.468 427.489 225.832 427.489 226.291V226.638C427.489 227.061 427.352 227.411 427.079 227.688C426.809 227.961 426.446 228.098 425.99 228.098C425.534 228.098 425.166 227.963 424.886 227.692C424.61 227.419 424.471 227.059 424.471 226.613V226.257ZM425.301 226.638C425.301 226.859 425.365 227.041 425.492 227.185C425.622 227.325 425.788 227.395 425.99 227.395C426.198 227.395 426.361 227.328 426.478 227.194C426.599 227.058 426.659 226.867 426.659 226.623V226.257C426.659 226.029 426.595 225.847 426.468 225.71C426.341 225.573 426.179 225.505 425.98 225.505C425.778 225.505 425.614 225.573 425.487 225.71C425.363 225.847 425.301 226.036 425.301 226.276V226.638ZM422.811 227.468L422.201 227.116L425.672 221.56L426.283 221.911L422.811 227.468Z" fill="#BCB9B9"/>
<rect x="416" y="207" width="207" height="11" rx="5.50001" transform="rotate(-90 416 207)" fill="#F2F2F2"/>
<rect x="416" y="207" width="16" height="11" rx="5.5" transform="rotate(-90 416 207)" fill="url(#paint6_linear_441_5561)"/>
<path d="M381.831 228H380.65V222.292L378.907 222.888V221.887L381.68 220.866H381.831V228ZM384.053 222.258C384.053 221.828 384.192 221.477 384.468 221.203C384.745 220.927 385.108 220.788 385.557 220.788C386.013 220.788 386.378 220.927 386.651 221.203C386.928 221.477 387.066 221.836 387.066 222.282V222.634C387.066 223.06 386.928 223.41 386.651 223.684C386.378 223.957 386.016 224.094 385.567 224.094C385.128 224.094 384.765 223.96 384.478 223.693C384.195 223.423 384.053 223.06 384.053 222.605V222.258ZM384.883 222.634C384.883 222.859 384.945 223.041 385.069 223.181C385.196 223.318 385.362 223.386 385.567 223.386C385.769 223.386 385.932 223.318 386.055 223.181C386.179 223.041 386.241 222.852 386.241 222.614V222.258C386.241 222.033 386.177 221.851 386.05 221.711C385.927 221.571 385.762 221.501 385.557 221.501C385.352 221.501 385.188 221.573 385.064 221.716C384.944 221.856 384.883 222.041 384.883 222.273V222.634ZM387.471 226.257C387.471 225.821 387.613 225.468 387.896 225.197C388.179 224.927 388.541 224.792 388.98 224.792C389.423 224.792 389.784 224.927 390.064 225.197C390.347 225.468 390.489 225.832 390.489 226.291V226.638C390.489 227.061 390.352 227.411 390.079 227.688C389.809 227.961 389.446 228.098 388.99 228.098C388.534 228.098 388.166 227.963 387.886 227.693C387.61 227.419 387.471 227.059 387.471 226.613V226.257ZM388.301 226.638C388.301 226.859 388.365 227.041 388.492 227.185C388.622 227.325 388.788 227.395 388.99 227.395C389.198 227.395 389.361 227.328 389.478 227.194C389.599 227.058 389.659 226.867 389.659 226.623V226.257C389.659 226.029 389.595 225.847 389.468 225.71C389.341 225.573 389.179 225.505 388.98 225.505C388.778 225.505 388.614 225.573 388.487 225.71C388.363 225.847 388.301 226.036 388.301 226.276V226.638ZM385.811 227.468L385.201 227.116L388.672 221.56L389.283 221.911L385.811 227.468Z" fill="#BCB9B9"/>
<rect x="379" y="207" width="207" height="11" rx="5.50001" transform="rotate(-90 379 207)" fill="#F2F2F2"/>
<rect x="379" y="207" width="8" height="11" rx="4" transform="rotate(-90 379 207)" fill="url(#paint7_linear_441_5561)"/>
<path d="M516.105 258.896H517.387V259.854H516.105V262H514.924V259.854H510.716V259.163L514.854 252.758H516.105V258.896ZM512.049 258.896H514.924V254.364L514.785 254.618L512.049 258.896ZM518.987 257.366L519.457 252.758H524.192V253.843H520.453L520.174 256.363C520.627 256.097 521.141 255.963 521.716 255.963C522.558 255.963 523.227 256.243 523.722 256.801C524.217 257.356 524.465 258.107 524.465 259.055C524.465 260.007 524.207 260.758 523.69 261.308C523.178 261.854 522.461 262.127 521.539 262.127C520.722 262.127 520.055 261.901 519.539 261.448C519.023 260.995 518.729 260.369 518.657 259.569H519.768C519.84 260.098 520.028 260.498 520.333 260.769C520.637 261.035 521.039 261.168 521.539 261.168C522.084 261.168 522.512 260.982 522.821 260.61C523.134 260.237 523.291 259.723 523.291 259.067C523.291 258.45 523.121 257.954 522.783 257.582C522.448 257.205 522.002 257.017 521.443 257.017C520.931 257.017 520.529 257.129 520.237 257.354L519.926 257.607L518.987 257.366ZM531.536 258.553H528.438V257.595H531.536V258.553ZM540.397 252.751V253.748H540.182C539.268 253.765 538.54 254.036 537.998 254.561C537.456 255.085 537.143 255.824 537.059 256.776C537.545 256.217 538.21 255.938 539.052 255.938C539.856 255.938 540.497 256.222 540.975 256.789C541.458 257.356 541.699 258.088 541.699 258.985C541.699 259.937 541.438 260.699 540.918 261.27C540.402 261.841 539.708 262.127 538.836 262.127C537.951 262.127 537.234 261.788 536.684 261.111C536.134 260.43 535.859 259.554 535.859 258.483V258.033C535.859 256.332 536.221 255.032 536.944 254.135C537.672 253.234 538.753 252.773 540.188 252.751H540.397ZM538.855 256.916C538.453 256.916 538.083 257.036 537.744 257.277C537.406 257.519 537.171 257.821 537.04 258.185V258.617C537.04 259.378 537.211 259.992 537.554 260.458C537.896 260.923 538.324 261.156 538.836 261.156C539.365 261.156 539.78 260.961 540.08 260.572C540.385 260.182 540.537 259.673 540.537 259.042C540.537 258.407 540.383 257.895 540.074 257.506C539.769 257.112 539.363 256.916 538.855 256.916ZM548.046 258.896H549.329V259.854H548.046V262H546.866V259.854H542.657V259.163L546.796 252.758H548.046V258.896ZM543.99 258.896H546.866V254.364L546.726 254.618L543.99 258.896Z" fill="#BCB9B9"/>
<path d="M538.656 224.919L541.537 226.013V227.199L537.45 225.378V224.436L541.537 222.619V223.806L538.656 224.919ZM545.775 228H544.594V222.292L542.851 222.888V221.887L545.624 220.866H545.775V228ZM547.997 222.258C547.997 221.828 548.136 221.477 548.412 221.203C548.689 220.926 549.052 220.788 549.501 220.788C549.957 220.788 550.321 220.926 550.595 221.203C550.872 221.477 551.01 221.836 551.01 222.282V222.634C551.01 223.06 550.872 223.41 550.595 223.684C550.321 223.957 549.96 224.094 549.511 224.094C549.071 224.094 548.709 223.96 548.422 223.693C548.139 223.423 547.997 223.06 547.997 222.604V222.258ZM548.827 222.634C548.827 222.858 548.889 223.041 549.013 223.181C549.14 223.317 549.306 223.386 549.511 223.386C549.713 223.386 549.876 223.317 549.999 223.181C550.123 223.041 550.185 222.852 550.185 222.614V222.258C550.185 222.033 550.121 221.851 549.994 221.711C549.871 221.571 549.706 221.501 549.501 221.501C549.296 221.501 549.132 221.573 549.008 221.716C548.888 221.856 548.827 222.041 548.827 222.272V222.634ZM551.415 226.257C551.415 225.821 551.557 225.467 551.84 225.197C552.123 224.927 552.485 224.792 552.924 224.792C553.367 224.792 553.728 224.927 554.008 225.197C554.291 225.467 554.433 225.832 554.433 226.291V226.638C554.433 227.061 554.296 227.411 554.023 227.688C553.752 227.961 553.39 228.098 552.934 228.098C552.478 228.098 552.11 227.963 551.83 227.692C551.554 227.419 551.415 227.059 551.415 226.613V226.257ZM552.245 226.638C552.245 226.859 552.309 227.041 552.436 227.185C552.566 227.325 552.732 227.395 552.934 227.395C553.142 227.395 553.305 227.328 553.422 227.194C553.543 227.058 553.603 226.867 553.603 226.623V226.257C553.603 226.029 553.539 225.847 553.412 225.71C553.285 225.573 553.123 225.505 552.924 225.505C552.722 225.505 552.558 225.573 552.431 225.71C552.307 225.847 552.245 226.035 552.245 226.276V226.638ZM549.755 227.468L549.145 227.116L552.616 221.56L553.227 221.911L549.755 227.468Z" fill="#BCB9B9"/>
<rect x="541" y="207" width="207" height="11" rx="5.50001" transform="rotate(-90 541 207)" fill="#F2F2F2"/>
<rect x="541" y="207" width="6" height="11" rx="3" transform="rotate(-90 541 207)" fill="url(#paint8_linear_441_5561)"/>
<path d="M501.656 224.919L504.537 226.013V227.199L500.45 225.378V224.436L504.537 222.619V223.806L501.656 224.919ZM508.775 228H507.594V222.292L505.851 222.888V221.887L508.624 220.866H508.775V228ZM510.997 222.258C510.997 221.828 511.136 221.477 511.412 221.203C511.689 220.926 512.052 220.788 512.501 220.788C512.957 220.788 513.321 220.926 513.595 221.203C513.872 221.477 514.01 221.836 514.01 222.282V222.634C514.01 223.06 513.872 223.41 513.595 223.684C513.321 223.957 512.96 224.094 512.511 224.094C512.071 224.094 511.709 223.96 511.422 223.693C511.139 223.423 510.997 223.06 510.997 222.604V222.258ZM511.827 222.634C511.827 222.858 511.889 223.041 512.013 223.181C512.14 223.317 512.306 223.386 512.511 223.386C512.713 223.386 512.876 223.317 512.999 223.181C513.123 223.041 513.185 222.852 513.185 222.614V222.258C513.185 222.033 513.121 221.851 512.994 221.711C512.871 221.571 512.706 221.501 512.501 221.501C512.296 221.501 512.132 221.573 512.008 221.716C511.888 221.856 511.827 222.041 511.827 222.272V222.634ZM514.415 226.257C514.415 225.821 514.557 225.467 514.84 225.197C515.123 224.927 515.485 224.792 515.924 224.792C516.367 224.792 516.728 224.927 517.008 225.197C517.291 225.467 517.433 225.832 517.433 226.291V226.638C517.433 227.061 517.296 227.411 517.023 227.688C516.752 227.961 516.39 228.098 515.934 228.098C515.478 228.098 515.11 227.963 514.83 227.692C514.554 227.419 514.415 227.059 514.415 226.613V226.257ZM515.245 226.638C515.245 226.859 515.309 227.041 515.436 227.185C515.566 227.325 515.732 227.395 515.934 227.395C516.142 227.395 516.305 227.328 516.422 227.194C516.543 227.058 516.603 226.867 516.603 226.623V226.257C516.603 226.029 516.539 225.847 516.412 225.71C516.285 225.573 516.123 225.505 515.924 225.505C515.722 225.505 515.558 225.573 515.431 225.71C515.307 225.847 515.245 226.035 515.245 226.276V226.638ZM512.755 227.468L512.145 227.116L515.616 221.56L516.227 221.911L512.755 227.468Z" fill="#BCB9B9"/>
<rect x="504" y="207" width="207" height="11" rx="5.50001" transform="rotate(-90 504 207)" fill="#F2F2F2"/>
<rect x="504" y="207" width="6" height="11" rx="3" transform="rotate(-90 504 207)" fill="url(#paint9_linear_441_5561)"/>
<path d="M640.726 258.896H642.008V259.854H640.726V262H639.545V259.854H635.336V259.163L639.475 252.758H640.726V258.896ZM636.669 258.896H639.545V254.364L639.405 254.618L636.669 258.896ZM643.607 257.366L644.077 252.758H648.812V253.843H645.074L644.794 256.363C645.247 256.097 645.761 255.963 646.337 255.963C647.179 255.963 647.848 256.243 648.343 256.801C648.838 257.356 649.085 258.107 649.085 259.055C649.085 260.007 648.827 260.758 648.311 261.308C647.799 261.854 647.082 262.127 646.159 262.127C645.342 262.127 644.676 261.901 644.16 261.448C643.643 260.995 643.349 260.369 643.277 259.569H644.388C644.46 260.098 644.648 260.498 644.953 260.769C645.258 261.035 645.66 261.168 646.159 261.168C646.705 261.168 647.132 260.982 647.441 260.61C647.755 260.237 647.911 259.723 647.911 259.067C647.911 258.45 647.742 257.954 647.403 257.582C647.069 257.205 646.623 257.017 646.064 257.017C645.552 257.017 645.15 257.129 644.858 257.354L644.547 257.607L643.607 257.366ZM656.157 258.553H653.059V257.595H656.157V258.553Z" fill="#BCB9B9"/>
<path d="M669.252 225.007C669.252 226.029 669.06 226.801 668.676 227.321C668.295 227.839 667.714 228.098 666.933 228.098C666.165 228.098 665.585 227.845 665.195 227.341C664.807 226.833 664.609 226.083 664.599 225.09V223.859C664.599 222.837 664.789 222.071 665.17 221.56C665.554 221.049 666.139 220.793 666.923 220.793C667.701 220.793 668.281 221.042 668.662 221.54C669.046 222.038 669.243 222.784 669.252 223.776V225.007ZM668.066 223.679C668.066 223.011 667.975 222.523 667.792 222.214C667.61 221.901 667.32 221.745 666.923 221.745C666.536 221.745 666.251 221.893 666.069 222.19C665.886 222.482 665.79 222.941 665.781 223.566V225.178C665.781 225.842 665.873 226.337 666.059 226.662C666.245 226.988 666.536 227.15 666.933 227.15C667.314 227.15 667.595 227.001 667.778 226.701C667.96 226.398 668.056 225.926 668.066 225.285V223.679ZM670.053 222.258C670.053 221.828 670.192 221.477 670.468 221.203C670.745 220.926 671.108 220.788 671.557 220.788C672.013 220.788 672.378 220.926 672.651 221.203C672.928 221.477 673.066 221.836 673.066 222.282V222.634C673.066 223.06 672.928 223.41 672.651 223.684C672.378 223.957 672.016 224.094 671.567 224.094C671.128 224.094 670.765 223.96 670.478 223.693C670.195 223.423 670.053 223.06 670.053 222.605V222.258ZM670.883 222.634C670.883 222.858 670.945 223.041 671.069 223.181C671.196 223.317 671.362 223.386 671.567 223.386C671.769 223.386 671.932 223.317 672.055 223.181C672.179 223.041 672.241 222.852 672.241 222.614V222.258C672.241 222.033 672.177 221.851 672.05 221.711C671.927 221.571 671.762 221.501 671.557 221.501C671.352 221.501 671.188 221.573 671.064 221.716C670.944 221.856 670.883 222.041 670.883 222.273V222.634ZM673.471 226.257C673.471 225.821 673.613 225.468 673.896 225.197C674.179 224.927 674.541 224.792 674.98 224.792C675.423 224.792 675.784 224.927 676.064 225.197C676.347 225.468 676.489 225.832 676.489 226.291V226.638C676.489 227.061 676.352 227.411 676.079 227.688C675.809 227.961 675.446 228.098 674.99 228.098C674.534 228.098 674.166 227.963 673.886 227.692C673.61 227.419 673.471 227.059 673.471 226.613V226.257ZM674.301 226.638C674.301 226.859 674.365 227.041 674.492 227.185C674.622 227.325 674.788 227.395 674.99 227.395C675.198 227.395 675.361 227.328 675.478 227.194C675.599 227.058 675.659 226.867 675.659 226.623V226.257C675.659 226.029 675.595 225.847 675.468 225.71C675.341 225.573 675.179 225.505 674.98 225.505C674.778 225.505 674.614 225.573 674.487 225.71C674.363 225.847 674.301 226.036 674.301 226.276V226.638ZM671.811 227.468L671.201 227.116L674.672 221.56L675.283 221.911L671.811 227.468Z" fill="#BCB9B9"/>
<rect x="665" y="207" width="207" height="11" rx="5.50001" transform="rotate(-90 665 207)" fill="#F2F2F2"/>
<path d="M632.252 225.007C632.252 226.029 632.06 226.801 631.676 227.321C631.295 227.839 630.714 228.098 629.933 228.098C629.165 228.098 628.585 227.845 628.195 227.341C627.807 226.833 627.609 226.083 627.599 225.09V223.859C627.599 222.837 627.789 222.071 628.17 221.56C628.554 221.049 629.139 220.793 629.923 220.793C630.701 220.793 631.281 221.042 631.662 221.54C632.046 222.038 632.243 222.784 632.252 223.776V225.007ZM631.066 223.679C631.066 223.012 630.975 222.523 630.792 222.214C630.61 221.901 630.32 221.745 629.923 221.745C629.536 221.745 629.251 221.893 629.069 222.19C628.886 222.483 628.79 222.942 628.781 223.567V225.178C628.781 225.842 628.873 226.337 629.059 226.662C629.245 226.988 629.536 227.151 629.933 227.151C630.314 227.151 630.595 227.001 630.778 226.701C630.96 226.399 631.056 225.927 631.066 225.285V223.679ZM633.053 222.258C633.053 221.828 633.192 221.477 633.468 221.203C633.745 220.927 634.108 220.788 634.557 220.788C635.013 220.788 635.378 220.927 635.651 221.203C635.928 221.477 636.066 221.836 636.066 222.282V222.634C636.066 223.06 635.928 223.41 635.651 223.684C635.378 223.957 635.016 224.094 634.567 224.094C634.128 224.094 633.765 223.96 633.478 223.693C633.195 223.423 633.053 223.06 633.053 222.605V222.258ZM633.883 222.634C633.883 222.859 633.945 223.041 634.069 223.181C634.196 223.318 634.362 223.386 634.567 223.386C634.769 223.386 634.932 223.318 635.055 223.181C635.179 223.041 635.241 222.852 635.241 222.614V222.258C635.241 222.033 635.177 221.851 635.05 221.711C634.927 221.571 634.762 221.501 634.557 221.501C634.352 221.501 634.188 221.573 634.064 221.716C633.944 221.856 633.883 222.041 633.883 222.273V222.634ZM636.471 226.257C636.471 225.821 636.613 225.468 636.896 225.197C637.179 224.927 637.541 224.792 637.98 224.792C638.423 224.792 638.784 224.927 639.064 225.197C639.347 225.468 639.489 225.832 639.489 226.291V226.638C639.489 227.061 639.352 227.411 639.079 227.688C638.809 227.961 638.446 228.098 637.99 228.098C637.534 228.098 637.166 227.963 636.886 227.693C636.61 227.419 636.471 227.059 636.471 226.613V226.257ZM637.301 226.638C637.301 226.859 637.365 227.041 637.492 227.185C637.622 227.325 637.788 227.395 637.99 227.395C638.198 227.395 638.361 227.328 638.478 227.194C638.599 227.058 638.659 226.867 638.659 226.623V226.257C638.659 226.029 638.595 225.847 638.468 225.71C638.341 225.573 638.179 225.505 637.98 225.505C637.778 225.505 637.614 225.573 637.487 225.71C637.363 225.847 637.301 226.036 637.301 226.276V226.638ZM634.811 227.468L634.201 227.116L637.672 221.56L638.283 221.911L634.811 227.468Z" fill="#BCB9B9"/>
<rect x="628" y="207" width="207" height="11" rx="5.50001" transform="rotate(-90 628 207)" fill="#F2F2F2"/>
<defs>
<linearGradient id="paint0_linear_441_5561" x1="72.9304" y1="212.869" x2="62.548" y2="228.882" gradientUnits="userSpaceOnUse">
<stop stop-color="#D080EC"/>
<stop offset="1" stop-color="#D393E9"/>
</linearGradient>
<linearGradient id="paint1_linear_441_5561" x1="15.4048" y1="207.786" x2="4.36206" y2="220.194" gradientUnits="userSpaceOnUse">
<stop stop-color="#4DB5F5"/>
<stop offset="1" stop-color="#1DA1F2"/>
</linearGradient>
<linearGradient id="paint2_linear_441_5561" x1="276.779" y1="212.869" x2="272.316" y2="234.701" gradientUnits="userSpaceOnUse">
<stop stop-color="#D080EC"/>
<stop offset="1" stop-color="#D393E9"/>
</linearGradient>
<linearGradient id="paint3_linear_441_5561" x1="178.937" y1="207.786" x2="173.581" y2="228.646" gradientUnits="userSpaceOnUse">
<stop stop-color="#4DB5F5"/>
<stop offset="1" stop-color="#1DA1F2"/>
</linearGradient>
<linearGradient id="paint4_linear_441_5561" x1="355.871" y1="212.869" x2="348.793" y2="233.142" gradientUnits="userSpaceOnUse">
<stop stop-color="#D080EC"/>
<stop offset="1" stop-color="#D393E9"/>
</linearGradient>
<linearGradient id="paint5_linear_441_5561" x1="278.968" y1="207.786" x2="269.933" y2="225.383" gradientUnits="userSpaceOnUse">
<stop stop-color="#4DB5F5"/>
<stop offset="1" stop-color="#1DA1F2"/>
</linearGradient>
<linearGradient id="paint6_linear_441_5561" x1="431.968" y1="212.869" x2="421.257" y2="220.421" gradientUnits="userSpaceOnUse">
<stop stop-color="#D080EC"/>
<stop offset="1" stop-color="#D393E9"/>
</linearGradient>
<linearGradient id="paint7_linear_441_5561" x1="386.683" y1="207.786" x2="376.878" y2="213.661" gradientUnits="userSpaceOnUse">
<stop stop-color="#4DB5F5"/>
<stop offset="1" stop-color="#1DA1F2"/>
</linearGradient>
<linearGradient id="paint8_linear_441_5561" x1="546.988" y1="212.869" x2="541.368" y2="214.355" gradientUnits="userSpaceOnUse">
<stop stop-color="#D080EC"/>
<stop offset="1" stop-color="#D393E9"/>
</linearGradient>
<linearGradient id="paint9_linear_441_5561" x1="509.762" y1="207.786" x2="501.448" y2="211.523" gradientUnits="userSpaceOnUse">
<stop stop-color="#4DB5F5"/>
<stop offset="1" stop-color="#1DA1F2"/>
</linearGradient>
</defs>
</svg>
