<svg width="588" height="324" viewBox="0 0 588 324" fill="none" xmlns="http://www.w3.org/2000/svg">
<path d="M27.475 13.0441L30.0727 8.047H31.5629L28.1313 14.2882V18.0001H26.8188V14.2882L23.3871 8.047H24.891L27.475 13.0441ZM31.8637 14.2335C31.8637 13.5089 32.005 12.8572 32.2875 12.2784C32.5746 11.6997 32.9711 11.2531 33.477 10.9386C33.9874 10.6241 34.5684 10.4669 35.2201 10.4669C36.2273 10.4669 37.0408 10.8156 37.6606 11.5128C38.2849 12.2101 38.5971 13.1375 38.5971 14.295V14.3839C38.5971 15.104 38.4581 15.7511 38.1801 16.3253C37.9066 16.895 37.5124 17.3393 36.9975 17.6583C36.4871 17.9773 35.8992 18.1368 35.2338 18.1368C34.2312 18.1368 33.4177 17.7882 32.7934 17.0909C32.1736 16.3937 31.8637 15.4708 31.8637 14.3224V14.2335ZM33.1352 14.3839C33.1352 15.2042 33.3243 15.8628 33.7025 16.3595C34.0854 16.8562 34.5958 17.1046 35.2338 17.1046C35.8764 17.1046 36.3868 16.854 36.765 16.3527C37.1433 15.8468 37.3324 15.1404 37.3324 14.2335C37.3324 13.4223 37.1387 12.7661 36.7514 12.2648C36.3686 11.7589 35.8581 11.506 35.2201 11.506C34.5958 11.506 34.0922 11.7544 33.7094 12.2511C33.3266 12.7478 33.1352 13.4588 33.1352 14.3839ZM44.7494 17.2687C44.2572 17.8475 43.5349 18.1368 42.5824 18.1368C41.794 18.1368 41.1925 17.909 40.7777 17.4532C40.3676 16.993 40.1602 16.3139 40.1557 15.4161V10.6036H41.4203V15.382C41.4203 16.5031 41.876 17.0636 42.7875 17.0636C43.7537 17.0636 44.3962 16.7036 44.7152 15.9835V10.6036H45.9799V18.0001H44.7768L44.7494 17.2687ZM49.6234 8.81262V10.6036H51.0043V11.5812H49.6234V16.1681C49.6234 16.4643 49.685 16.6876 49.808 16.838C49.9311 16.9838 50.1407 17.0568 50.4369 17.0568C50.5828 17.0568 50.7833 17.0294 51.0385 16.9747V18.0001C50.7058 18.0913 50.3822 18.1368 50.0678 18.1368C49.5027 18.1368 49.0766 17.9659 48.7895 17.6241C48.5023 17.2823 48.3588 16.797 48.3588 16.1681V11.5812H47.0121V10.6036H48.3588V8.81262H49.6234ZM57.0541 17.2687C56.5619 17.8475 55.8396 18.1368 54.8871 18.1368C54.0987 18.1368 53.4971 17.909 53.0824 17.4532C52.6723 16.993 52.4649 16.3139 52.4604 15.4161V10.6036H53.725V15.382C53.725 16.5031 54.1807 17.0636 55.0922 17.0636C56.0583 17.0636 56.7009 16.7036 57.0199 15.9835V10.6036H58.2846V18.0001H57.0815L57.0541 17.2687ZM66.474 14.3839C66.474 15.5141 66.2143 16.4233 65.6947 17.1115C65.1752 17.795 64.4779 18.1368 63.6029 18.1368C62.6687 18.1368 61.9464 17.8064 61.4359 17.1456L61.3744 18.0001H60.2123V7.50012H61.477V11.4171C61.9874 10.7837 62.6915 10.4669 63.5893 10.4669C64.4871 10.4669 65.1912 10.8064 65.7016 11.4855C66.2165 12.1645 66.474 13.0942 66.474 14.2745V14.3839ZM65.2094 14.2404C65.2094 13.379 65.043 12.7137 64.7104 12.2443C64.3777 11.7749 63.8992 11.5402 63.2748 11.5402C62.4408 11.5402 61.8415 11.9275 61.477 12.7023V15.9015C61.8643 16.6762 62.4682 17.0636 63.2885 17.0636C63.8946 17.0636 64.3663 16.8289 64.7035 16.3595C65.0408 15.8901 65.2094 15.1837 65.2094 14.2404ZM71.143 18.1368C70.1404 18.1368 69.3246 17.8087 68.6957 17.1525C68.0668 16.4917 67.7523 15.6098 67.7523 14.507V14.2745C67.7523 13.5408 67.8913 12.8868 68.1693 12.3126C68.4519 11.7338 68.8438 11.2827 69.3451 10.9591C69.851 10.631 70.3979 10.4669 70.9857 10.4669C71.9473 10.4669 72.6947 10.7837 73.2279 11.4171C73.7611 12.0506 74.0277 12.9575 74.0277 14.1378V14.6642H69.017C69.0352 15.3934 69.2471 15.9835 69.6527 16.4347C70.0629 16.8813 70.5824 17.1046 71.2113 17.1046C71.6579 17.1046 72.0362 17.0135 72.3461 16.8312C72.656 16.6489 72.9272 16.4073 73.1596 16.1066L73.932 16.7081C73.3122 17.6606 72.3826 18.1368 71.143 18.1368ZM70.9857 11.506C70.4753 11.506 70.0469 11.6928 69.7006 12.0665C69.3542 12.4357 69.14 12.9552 69.058 13.6251H72.7631V13.5294C72.7266 12.8868 72.5535 12.3901 72.2436 12.0392C71.9337 11.6837 71.5144 11.506 70.9857 11.506Z" fill="#767676"/>
<circle cx="8.31596" cy="13.3159" r="8.3159" fill="#F2F2F2"/>
<circle cx="8.31579" cy="13.3159" r="3.659" fill="#D87171"/>
<path d="M117.133 18.0001H115.82V8.047H117.133V18.0001ZM120.537 10.6036L120.578 11.5333C121.143 10.8224 121.881 10.4669 122.793 10.4669C124.356 10.4669 125.144 11.3488 125.158 13.1124V18.0001H123.893V13.1056C123.889 12.5724 123.766 12.1782 123.524 11.923C123.287 11.6678 122.916 11.5402 122.41 11.5402C122 11.5402 121.64 11.6495 121.33 11.8683C121.02 12.087 120.778 12.3741 120.605 12.7296V18.0001H119.341V10.6036H120.537ZM131.372 16.0382C131.372 15.6964 131.242 15.4321 130.982 15.2452C130.727 15.0538 130.278 14.8898 129.635 14.7531C128.997 14.6163 128.489 14.4523 128.111 14.2609C127.737 14.0695 127.459 13.8416 127.277 13.5773C127.099 13.3129 127.01 12.9985 127.01 12.6339C127.01 12.0278 127.266 11.5151 127.776 11.0958C128.291 10.6766 128.947 10.4669 129.745 10.4669C130.583 10.4669 131.262 10.6834 131.782 11.1163C132.306 11.5493 132.568 12.103 132.568 12.7775H131.297C131.297 12.4311 131.149 12.1326 130.852 11.882C130.561 11.6313 130.191 11.506 129.745 11.506C129.285 11.506 128.925 11.6062 128.665 11.8068C128.405 12.0073 128.275 12.2693 128.275 12.5929C128.275 12.8982 128.396 13.1284 128.637 13.2833C128.879 13.4383 129.314 13.5864 129.943 13.7277C130.577 13.8689 131.089 14.0376 131.481 14.2335C131.873 14.4295 132.163 14.6665 132.349 14.9445C132.541 15.2179 132.636 15.5529 132.636 15.9493C132.636 16.6101 132.372 17.1411 131.844 17.5421C131.315 17.9386 130.629 18.1368 129.786 18.1368C129.193 18.1368 128.669 18.032 128.214 17.8224C127.758 17.6128 127.4 17.3211 127.14 16.9474C126.885 16.5691 126.758 16.1613 126.758 15.7238H128.022C128.045 16.1476 128.214 16.4848 128.528 16.7355C128.847 16.9816 129.266 17.1046 129.786 17.1046C130.264 17.1046 130.647 17.0089 130.934 16.8175C131.226 16.6215 131.372 16.3618 131.372 16.0382ZM136 8.81262V10.6036H137.381V11.5812H136V16.1681C136 16.4643 136.061 16.6876 136.184 16.838C136.307 16.9838 136.517 17.0568 136.813 17.0568C136.959 17.0568 137.16 17.0294 137.415 16.9747V18.0001C137.082 18.0913 136.759 18.1368 136.444 18.1368C135.879 18.1368 135.453 17.9659 135.166 17.6241C134.879 17.2823 134.735 16.797 134.735 16.1681V11.5812H133.388V10.6036H134.735V8.81262H136ZM143.43 18.0001C143.358 17.8543 143.298 17.5945 143.253 17.2208C142.665 17.8315 141.963 18.1368 141.147 18.1368C140.418 18.1368 139.819 17.9318 139.349 17.5216C138.885 17.1069 138.652 16.5828 138.652 15.9493C138.652 15.1792 138.944 14.5822 139.527 14.1583C140.115 13.7299 140.94 13.5157 142.002 13.5157H143.232V12.9347C143.232 12.4926 143.1 12.1417 142.836 11.882C142.571 11.6176 142.182 11.4855 141.667 11.4855C141.216 11.4855 140.837 11.5994 140.532 11.8273C140.227 12.0551 140.074 12.3309 140.074 12.6544H138.802C138.802 12.2853 138.932 11.9298 139.192 11.588C139.456 11.2417 139.812 10.9682 140.259 10.7677C140.71 10.5672 141.204 10.4669 141.742 10.4669C142.594 10.4669 143.262 10.6811 143.745 11.1095C144.228 11.5333 144.479 12.1189 144.497 12.8663V16.2706C144.497 16.9497 144.583 17.4897 144.757 17.8907V18.0001H143.43ZM141.332 17.0363C141.728 17.0363 142.104 16.9337 142.46 16.7286C142.815 16.5236 143.073 16.257 143.232 15.9288V14.4113H142.241C140.691 14.4113 139.917 14.8647 139.917 15.7716C139.917 16.1681 140.049 16.478 140.313 16.7013C140.578 16.9246 140.917 17.0363 141.332 17.0363ZM146.178 14.2404C146.178 13.0874 146.445 12.1713 146.978 11.4923C147.511 10.8087 148.218 10.4669 149.097 10.4669C150 10.4669 150.704 10.7859 151.21 11.424L151.271 10.6036H152.427V17.8224C152.427 18.7794 152.142 19.5337 151.572 20.0851C151.007 20.6365 150.246 20.9122 149.289 20.9122C148.756 20.9122 148.234 20.7983 147.723 20.5704C147.213 20.3426 146.823 20.0304 146.554 19.6339L147.211 18.8751C147.753 19.545 148.416 19.88 149.2 19.88C149.815 19.88 150.294 19.7068 150.635 19.3605C150.982 19.0141 151.155 18.5265 151.155 17.8976V17.2618C150.649 17.8452 149.959 18.1368 149.084 18.1368C148.218 18.1368 147.516 17.7882 146.978 17.0909C146.445 16.3937 146.178 15.4435 146.178 14.2404ZM147.45 14.3839C147.45 15.2179 147.621 15.8741 147.963 16.3527C148.304 16.8266 148.783 17.0636 149.398 17.0636C150.196 17.0636 150.781 16.7013 151.155 15.9767V12.5997C150.768 11.8934 150.187 11.5402 149.412 11.5402C148.797 11.5402 148.316 11.7794 147.969 12.2579C147.623 12.7365 147.45 13.4451 147.45 14.3839ZM157.916 11.7384C157.724 11.7065 157.517 11.6906 157.294 11.6906C156.464 11.6906 155.901 12.0437 155.605 12.7501V18.0001H154.341V10.6036H155.571L155.592 11.4581C156.006 10.7973 156.594 10.4669 157.355 10.4669C157.601 10.4669 157.788 10.4988 157.916 10.5626V11.7384ZM163.378 18.0001C163.305 17.8543 163.246 17.5945 163.2 17.2208C162.612 17.8315 161.91 18.1368 161.094 18.1368C160.365 18.1368 159.766 17.9318 159.297 17.5216C158.832 17.1069 158.599 16.5828 158.599 15.9493C158.599 15.1792 158.891 14.5822 159.474 14.1583C160.062 13.7299 160.887 13.5157 161.949 13.5157H163.179V12.9347C163.179 12.4926 163.047 12.1417 162.783 11.882C162.519 11.6176 162.129 11.4855 161.614 11.4855C161.163 11.4855 160.785 11.5994 160.479 11.8273C160.174 12.0551 160.021 12.3309 160.021 12.6544H158.75C158.75 12.2853 158.88 11.9298 159.139 11.588C159.404 11.2417 159.759 10.9682 160.206 10.7677C160.657 10.5672 161.151 10.4669 161.689 10.4669C162.541 10.4669 163.209 10.6811 163.692 11.1095C164.175 11.5333 164.426 12.1189 164.444 12.8663V16.2706C164.444 16.9497 164.531 17.4897 164.704 17.8907V18.0001H163.378ZM161.279 17.0363C161.676 17.0363 162.052 16.9337 162.407 16.7286C162.762 16.5236 163.02 16.257 163.179 15.9288V14.4113H162.188C160.639 14.4113 159.864 14.8647 159.864 15.7716C159.864 16.1681 159.996 16.478 160.26 16.7013C160.525 16.9246 160.864 17.0363 161.279 17.0363ZM167.616 10.6036L167.65 11.424C168.192 10.7859 168.924 10.4669 169.844 10.4669C170.879 10.4669 171.583 10.8634 171.957 11.6564C172.203 11.3009 172.522 11.0138 172.914 10.795C173.31 10.5763 173.777 10.4669 174.315 10.4669C175.938 10.4669 176.762 11.326 176.79 13.0441V18.0001H175.525V13.1193C175.525 12.5906 175.404 12.1964 175.163 11.9366C174.921 11.6723 174.516 11.5402 173.946 11.5402C173.477 11.5402 173.087 11.6814 172.777 11.964C172.467 12.242 172.287 12.618 172.237 13.0919V18.0001H170.966V13.1534C170.966 12.0779 170.439 11.5402 169.386 11.5402C168.557 11.5402 167.99 11.8934 167.684 12.5997V18.0001H166.42V10.6036H167.616Z" fill="#767676"/>
<circle cx="99.6005" cy="13.3159" r="8.3159" fill="#F2F2F2"/>
<circle cx="99.6003" cy="13.3159" r="3.659" fill="#B140D8"/>
<path d="M224.498 13.6046H220.321V18.0001H219.009V8.047H225.175V9.12708H220.321V12.5314H224.498V13.6046ZM230.883 18.0001C230.81 17.8543 230.751 17.5945 230.705 17.2208C230.117 17.8315 229.415 18.1368 228.6 18.1368C227.871 18.1368 227.271 17.9318 226.802 17.5216C226.337 17.1069 226.105 16.5828 226.105 15.9493C226.105 15.1792 226.396 14.5822 226.98 14.1583C227.567 13.7299 228.392 13.5157 229.454 13.5157H230.685V12.9347C230.685 12.4926 230.553 12.1417 230.288 11.882C230.024 11.6176 229.634 11.4855 229.119 11.4855C228.668 11.4855 228.29 11.5994 227.984 11.8273C227.679 12.0551 227.526 12.3309 227.526 12.6544H226.255C226.255 12.2853 226.385 11.9298 226.645 11.588C226.909 11.2417 227.264 10.9682 227.711 10.7677C228.162 10.5672 228.657 10.4669 229.194 10.4669C230.047 10.4669 230.714 10.6811 231.197 11.1095C231.68 11.5333 231.931 12.1189 231.949 12.8663V16.2706C231.949 16.9497 232.036 17.4897 232.209 17.8907V18.0001H230.883ZM228.784 17.0363C229.181 17.0363 229.557 16.9337 229.912 16.7286C230.268 16.5236 230.525 16.257 230.685 15.9288V14.4113H229.693C228.144 14.4113 227.369 14.8647 227.369 15.7716C227.369 16.1681 227.501 16.478 227.766 16.7013C228.03 16.9246 228.37 17.0363 228.784 17.0363ZM236.899 17.1046C237.35 17.1046 237.744 16.9679 238.081 16.6945C238.418 16.421 238.605 16.0792 238.642 15.6691H239.838C239.815 16.0929 239.669 16.4962 239.4 16.879C239.132 17.2618 238.772 17.5672 238.32 17.795C237.874 18.0229 237.4 18.1368 236.899 18.1368C235.891 18.1368 235.089 17.8019 234.492 17.132C233.9 16.4575 233.604 15.5369 233.604 14.3702V14.1583C233.604 13.4383 233.736 12.798 234 12.2374C234.264 11.6769 234.643 11.2417 235.135 10.9318C235.632 10.6219 236.217 10.4669 236.892 10.4669C237.721 10.4669 238.409 10.7153 238.956 11.212C239.508 11.7088 239.802 12.3536 239.838 13.1466H238.642C238.605 12.6681 238.423 12.2762 238.095 11.9708C237.771 11.6609 237.37 11.506 236.892 11.506C236.249 11.506 235.75 11.7384 235.395 12.2032C235.044 12.6635 234.868 13.3312 234.868 14.2062V14.4454C234.868 15.2976 235.044 15.9539 235.395 16.4142C235.746 16.8745 236.247 17.1046 236.899 17.1046ZM244.329 18.1368C243.327 18.1368 242.511 17.8087 241.882 17.1525C241.253 16.4917 240.939 15.6098 240.939 14.507V14.2745C240.939 13.5408 241.078 12.8868 241.356 12.3126C241.638 11.7338 242.03 11.2827 242.531 10.9591C243.037 10.631 243.584 10.4669 244.172 10.4669C245.134 10.4669 245.881 10.7837 246.414 11.4171C246.947 12.0506 247.214 12.9575 247.214 14.1378V14.6642H242.203C242.221 15.3934 242.433 15.9835 242.839 16.4347C243.249 16.8813 243.769 17.1046 244.398 17.1046C244.844 17.1046 245.222 17.0135 245.532 16.8312C245.842 16.6489 246.113 16.4073 246.346 16.1066L247.118 16.7081C246.498 17.6606 245.569 18.1368 244.329 18.1368ZM244.172 11.506C243.662 11.506 243.233 11.6928 242.887 12.0665C242.54 12.4357 242.326 12.9552 242.244 13.6251H245.949V13.5294C245.913 12.8868 245.74 12.3901 245.43 12.0392C245.12 11.6837 244.701 11.506 244.172 11.506ZM254.945 14.3839C254.945 15.5141 254.686 16.4233 254.166 17.1115C253.647 17.795 252.949 18.1368 252.074 18.1368C251.14 18.1368 250.418 17.8064 249.907 17.1456L249.846 18.0001H248.684V7.50012H249.948V11.4171C250.459 10.7837 251.163 10.4669 252.061 10.4669C252.958 10.4669 253.663 10.8064 254.173 11.4855C254.688 12.1645 254.945 13.0942 254.945 14.2745V14.3839ZM253.681 14.2404C253.681 13.379 253.514 12.7137 253.182 12.2443C252.849 11.7749 252.371 11.5402 251.746 11.5402C250.912 11.5402 250.313 11.9275 249.948 12.7023V15.9015C250.336 16.6762 250.94 17.0636 251.76 17.0636C252.366 17.0636 252.838 16.8289 253.175 16.3595C253.512 15.8901 253.681 15.1837 253.681 14.2404ZM256.21 14.2335C256.21 13.5089 256.351 12.8572 256.634 12.2784C256.921 11.6997 257.317 11.2531 257.823 10.9386C258.334 10.6241 258.915 10.4669 259.566 10.4669C260.574 10.4669 261.387 10.8156 262.007 11.5128C262.631 12.2101 262.943 13.1375 262.943 14.295V14.3839C262.943 15.104 262.804 15.7511 262.526 16.3253C262.253 16.895 261.859 17.3393 261.344 17.6583C260.833 17.9773 260.246 18.1368 259.58 18.1368C258.578 18.1368 257.764 17.7882 257.14 17.0909C256.52 16.3937 256.21 15.4708 256.21 14.3224V14.2335ZM257.482 14.3839C257.482 15.2042 257.671 15.8628 258.049 16.3595C258.432 16.8562 258.942 17.1046 259.58 17.1046C260.223 17.1046 260.733 16.854 261.111 16.3527C261.49 15.8468 261.679 15.1404 261.679 14.2335C261.679 13.4223 261.485 12.7661 261.098 12.2648C260.715 11.7589 260.205 11.506 259.566 11.506C258.942 11.506 258.439 11.7544 258.056 12.2511C257.673 12.7478 257.482 13.4588 257.482 14.3839ZM264.194 14.2335C264.194 13.5089 264.336 12.8572 264.618 12.2784C264.905 11.6997 265.302 11.2531 265.808 10.9386C266.318 10.6241 266.899 10.4669 267.551 10.4669C268.558 10.4669 269.372 10.8156 269.991 11.5128C270.616 12.2101 270.928 13.1375 270.928 14.295V14.3839C270.928 15.104 270.789 15.7511 270.511 16.3253C270.237 16.895 269.843 17.3393 269.328 17.6583C268.818 17.9773 268.23 18.1368 267.565 18.1368C266.562 18.1368 265.748 17.7882 265.124 17.0909C264.504 16.3937 264.194 15.4708 264.194 14.3224V14.2335ZM265.466 14.3839C265.466 15.2042 265.655 15.8628 266.033 16.3595C266.416 16.8562 266.927 17.1046 267.565 17.1046C268.207 17.1046 268.718 16.854 269.096 16.3527C269.474 15.8468 269.663 15.1404 269.663 14.2335C269.663 13.4223 269.469 12.7661 269.082 12.2648C268.699 11.7589 268.189 11.506 267.551 11.506C266.927 11.506 266.423 11.7544 266.04 12.2511C265.657 12.7478 265.466 13.4588 265.466 14.3839ZM274.578 14.5753L273.785 15.4025V18.0001H272.521V7.50012H273.785V13.8507L274.462 13.0372L276.766 10.6036H278.304L275.426 13.6935L278.639 18.0001H277.155L274.578 14.5753Z" fill="#767676"/>
<circle cx="202.885" cy="13.3159" r="8.3159" fill="#F2F2F2"/>
<circle cx="202.885" cy="13.3159" r="3.659" fill="#4290F5"/>
<path d="M326.17 9.12708H322.971V18.0001H321.665V9.12708H318.473V8.047H326.17V9.12708ZM333.601 16.257L335.023 10.6036H336.288L334.134 18.0001H333.109L331.311 12.3947L329.561 18.0001H328.536L326.389 10.6036H327.647L329.103 16.1407L330.826 10.6036H331.844L333.601 16.257ZM338.954 18.0001H337.689V10.6036H338.954V18.0001ZM337.586 8.64172C337.586 8.43665 337.648 8.26347 337.771 8.12219C337.899 7.98092 338.085 7.91028 338.331 7.91028C338.578 7.91028 338.764 7.98092 338.892 8.12219C339.02 8.26347 339.083 8.43665 339.083 8.64172C339.083 8.8468 339.02 9.0177 338.892 9.15442C338.764 9.29114 338.578 9.3595 338.331 9.3595C338.085 9.3595 337.899 9.29114 337.771 9.15442C337.648 9.0177 337.586 8.8468 337.586 8.64172ZM342.7 8.81262V10.6036H344.081V11.5812H342.7V16.1681C342.7 16.4643 342.761 16.6876 342.884 16.838C343.007 16.9838 343.217 17.0568 343.513 17.0568C343.659 17.0568 343.859 17.0294 344.115 16.9747V18.0001C343.782 18.0913 343.458 18.1368 343.144 18.1368C342.579 18.1368 342.153 17.9659 341.866 17.6241C341.579 17.2823 341.435 16.797 341.435 16.1681V11.5812H340.088V10.6036H341.435V8.81262H342.7ZM347.28 8.81262V10.6036H348.661V11.5812H347.28V16.1681C347.28 16.4643 347.341 16.6876 347.464 16.838C347.587 16.9838 347.797 17.0568 348.093 17.0568C348.239 17.0568 348.44 17.0294 348.695 16.9747V18.0001C348.362 18.0913 348.039 18.1368 347.724 18.1368C347.159 18.1368 346.733 17.9659 346.446 17.6241C346.159 17.2823 346.015 16.797 346.015 16.1681V11.5812H344.668V10.6036H346.015V8.81262H347.28ZM353.213 18.1368C352.211 18.1368 351.395 17.8087 350.766 17.1525C350.137 16.4917 349.823 15.6098 349.823 14.507V14.2745C349.823 13.5408 349.962 12.8868 350.24 12.3126C350.522 11.7338 350.914 11.2827 351.415 10.9591C351.921 10.631 352.468 10.4669 353.056 10.4669C354.018 10.4669 354.765 10.7837 355.298 11.4171C355.831 12.0506 356.098 12.9575 356.098 14.1378V14.6642H351.087C351.106 15.3934 351.317 15.9835 351.723 16.4347C352.133 16.8813 352.653 17.1046 353.282 17.1046C353.728 17.1046 354.107 17.0135 354.416 16.8312C354.726 16.6489 354.997 16.4073 355.23 16.1066L356.002 16.7081C355.383 17.6606 354.453 18.1368 353.213 18.1368ZM353.056 11.506C352.546 11.506 352.117 11.6928 351.771 12.0665C351.425 12.4357 351.21 12.9552 351.128 13.6251H354.833V13.5294C354.797 12.8868 354.624 12.3901 354.314 12.0392C354.004 11.6837 353.585 11.506 353.056 11.506ZM361.143 11.7384C360.952 11.7065 360.744 11.6906 360.521 11.6906C359.692 11.6906 359.129 12.0437 358.832 12.7501V18.0001H357.568V10.6036H358.798L358.819 11.4581C359.234 10.7973 359.821 10.4669 360.582 10.4669C360.829 10.4669 361.015 10.4988 361.143 10.5626V11.7384Z" fill="#767676"/>
<circle cx="303.169" cy="13.3159" r="8.3159" fill="#F2F2F2"/>
<circle cx="303.169" cy="13.3159" r="3.659" fill="#47B3F5"/>
<path d="M404.724 14.8624L404.916 16.1749L405.196 14.9923L407.165 8.047H408.272L410.193 14.9923L410.467 16.1954L410.679 14.8556L412.223 8.047H413.543L411.13 18.0001H409.933L407.883 10.7472L407.725 9.9884L407.568 10.7472L405.442 18.0001H404.246L401.84 8.047H403.152L404.724 14.8624ZM417.658 18.1368C416.655 18.1368 415.84 17.8087 415.211 17.1525C414.582 16.4917 414.267 15.6098 414.267 14.507V14.2745C414.267 13.5408 414.406 12.8868 414.684 12.3126C414.967 11.7338 415.359 11.2827 415.86 10.9591C416.366 10.631 416.913 10.4669 417.501 10.4669C418.462 10.4669 419.21 10.7837 419.743 11.4171C420.276 12.0506 420.543 12.9575 420.543 14.1378V14.6642H415.532C415.55 15.3934 415.762 15.9835 416.168 16.4347C416.578 16.8813 417.097 17.1046 417.726 17.1046C418.173 17.1046 418.551 17.0135 418.861 16.8312C419.171 16.6489 419.442 16.4073 419.675 16.1066L420.447 16.7081C419.827 17.6606 418.898 18.1368 417.658 18.1368ZM417.501 11.506C416.99 11.506 416.562 11.6928 416.216 12.0665C415.869 12.4357 415.655 12.9552 415.573 13.6251H419.278V13.5294C419.242 12.8868 419.069 12.3901 418.759 12.0392C418.449 11.6837 418.029 11.506 417.501 11.506ZM423.387 18.0001H422.122V10.6036H423.387V18.0001ZM422.019 8.64172C422.019 8.43665 422.081 8.26347 422.204 8.12219C422.332 7.98092 422.518 7.91028 422.764 7.91028C423.011 7.91028 423.197 7.98092 423.325 8.12219C423.453 8.26347 423.516 8.43665 423.516 8.64172C423.516 8.8468 423.453 9.0177 423.325 9.15442C423.197 9.29114 423.011 9.3595 422.764 9.3595C422.518 9.3595 422.332 9.29114 422.204 9.15442C422.081 9.0177 422.019 8.8468 422.019 8.64172ZM431.679 14.3839C431.679 15.5141 431.419 16.4233 430.899 17.1115C430.38 17.795 429.682 18.1368 428.807 18.1368C427.873 18.1368 427.151 17.8064 426.64 17.1456L426.579 18.0001H425.417V7.50012H426.681V11.4171C427.192 10.7837 427.896 10.4669 428.794 10.4669C429.692 10.4669 430.396 10.8064 430.906 11.4855C431.421 12.1645 431.679 13.0942 431.679 14.2745V14.3839ZM430.414 14.2404C430.414 13.379 430.248 12.7137 429.915 12.2443C429.582 11.7749 429.104 11.5402 428.479 11.5402C427.645 11.5402 427.046 11.9275 426.681 12.7023V15.9015C427.069 16.6762 427.673 17.0636 428.493 17.0636C429.099 17.0636 429.571 16.8289 429.908 16.3595C430.245 15.8901 430.414 15.1837 430.414 14.2404ZM432.943 14.2335C432.943 13.5089 433.084 12.8572 433.367 12.2784C433.654 11.6997 434.051 11.2531 434.556 10.9386C435.067 10.6241 435.648 10.4669 436.3 10.4669C437.307 10.4669 438.12 10.8156 438.74 11.5128C439.364 12.2101 439.677 13.1375 439.677 14.295V14.3839C439.677 15.104 439.538 15.7511 439.26 16.3253C438.986 16.895 438.592 17.3393 438.077 17.6583C437.567 17.9773 436.979 18.1368 436.313 18.1368C435.311 18.1368 434.497 17.7882 433.873 17.0909C433.253 16.3937 432.943 15.4708 432.943 14.3224V14.2335ZM434.215 14.3839C434.215 15.2042 434.404 15.8628 434.782 16.3595C435.165 16.8562 435.675 17.1046 436.313 17.1046C436.956 17.1046 437.466 16.854 437.845 16.3527C438.223 15.8468 438.412 15.1404 438.412 14.2335C438.412 13.4223 438.218 12.7661 437.831 12.2648C437.448 11.7589 436.938 11.506 436.3 11.506C435.675 11.506 435.172 11.7544 434.789 12.2511C434.406 12.7478 434.215 13.4588 434.215 14.3839Z" fill="#767676"/>
<circle cx="386.454" cy="13.3159" r="8.3159" fill="#F2F2F2"/>
<circle cx="386.454" cy="13.3159" r="3.659" fill="#F1B884"/>
<path d="M487.739 9.12708H484.54V18.0001H483.234V9.12708H480.042V8.047H487.739V9.12708ZM490.392 18.0001H489.127V10.6036H490.392V18.0001ZM489.025 8.64172C489.025 8.43665 489.086 8.26347 489.209 8.12219C489.337 7.98092 489.524 7.91028 489.77 7.91028C490.016 7.91028 490.203 7.98092 490.33 8.12219C490.458 8.26347 490.522 8.43665 490.522 8.64172C490.522 8.8468 490.458 9.0177 490.33 9.15442C490.203 9.29114 490.016 9.3595 489.77 9.3595C489.524 9.3595 489.337 9.29114 489.209 9.15442C489.086 9.0177 489.025 8.8468 489.025 8.64172ZM494.486 14.5753L493.693 15.4025V18.0001H492.429V7.50012H493.693V13.8507L494.37 13.0372L496.674 10.6036H498.212L495.334 13.6935L498.547 18.0001H497.064L494.486 14.5753ZM501.234 8.81262V10.6036H502.614V11.5812H501.234V16.1681C501.234 16.4643 501.295 16.6876 501.418 16.838C501.541 16.9838 501.751 17.0568 502.047 17.0568C502.193 17.0568 502.393 17.0294 502.649 16.9747V18.0001C502.316 18.0913 501.992 18.1368 501.678 18.1368C501.113 18.1368 500.687 17.9659 500.4 17.6241C500.112 17.2823 499.969 16.797 499.969 16.1681V11.5812H498.622V10.6036H499.969V8.81262H501.234ZM503.626 14.2335C503.626 13.5089 503.767 12.8572 504.05 12.2784C504.337 11.6997 504.734 11.2531 505.239 10.9386C505.75 10.6241 506.331 10.4669 506.983 10.4669C507.99 10.4669 508.803 10.8156 509.423 11.5128C510.047 12.2101 510.359 13.1375 510.359 14.295V14.3839C510.359 15.104 510.22 15.7511 509.943 16.3253C509.669 16.895 509.275 17.3393 508.76 17.6583C508.249 17.9773 507.662 18.1368 506.996 18.1368C505.994 18.1368 505.18 17.7882 504.556 17.0909C503.936 16.3937 503.626 15.4708 503.626 14.3224V14.2335ZM504.898 14.3839C504.898 15.2042 505.087 15.8628 505.465 16.3595C505.848 16.8562 506.358 17.1046 506.996 17.1046C507.639 17.1046 508.149 16.854 508.527 16.3527C508.906 15.8468 509.095 15.1404 509.095 14.2335C509.095 13.4223 508.901 12.7661 508.514 12.2648C508.131 11.7589 507.621 11.506 506.983 11.506C506.358 11.506 505.855 11.7544 505.472 12.2511C505.089 12.7478 504.898 13.4588 504.898 14.3839ZM514.01 14.5753L513.217 15.4025V18.0001H511.952V7.50012H513.217V13.8507L513.894 13.0372L516.197 10.6036H517.735L514.858 13.6935L518.07 18.0001H516.587L514.01 14.5753Z" fill="#767676"/>
<circle cx="464.738" cy="13.3159" r="8.3159" fill="#F2F2F2"/>
<circle cx="464.738" cy="13.3159" r="3.659" fill="#93E4E9"/>
<path d="M562.442 16.257L565.286 8.047H566.721L563.03 18.0001H561.868L558.183 8.047H559.612L562.442 16.257ZM569.237 18.0001H567.972V7.50012H569.237V18.0001ZM572.641 18.0001H571.376V10.6036H572.641V18.0001ZM571.274 8.64172C571.274 8.43665 571.335 8.26347 571.458 8.12219C571.586 7.98092 571.773 7.91028 572.019 7.91028C572.265 7.91028 572.452 7.98092 572.58 8.12219C572.707 8.26347 572.771 8.43665 572.771 8.64172C572.771 8.8468 572.707 9.0177 572.58 9.15442C572.452 9.29114 572.265 9.3595 572.019 9.3595C571.773 9.3595 571.586 9.29114 571.458 9.15442C571.335 9.0177 571.274 8.8468 571.274 8.64172ZM577.112 16.2843L578.944 10.6036H580.236L577.583 18.0001H576.62L573.94 10.6036H575.232L577.112 16.2843ZM584.426 18.1368C583.424 18.1368 582.608 17.8087 581.979 17.1525C581.35 16.4917 581.036 15.6098 581.036 14.507V14.2745C581.036 13.5408 581.175 12.8868 581.453 12.3126C581.735 11.7338 582.127 11.2827 582.628 10.9591C583.134 10.631 583.681 10.4669 584.269 10.4669C585.231 10.4669 585.978 10.7837 586.511 11.4171C587.044 12.0506 587.311 12.9575 587.311 14.1378V14.6642H582.3C582.319 15.3934 582.53 15.9835 582.936 16.4347C583.346 16.8813 583.866 17.1046 584.495 17.1046C584.941 17.1046 585.319 17.0135 585.629 16.8312C585.939 16.6489 586.21 16.4073 586.443 16.1066L587.215 16.7081C586.596 17.6606 585.666 18.1368 584.426 18.1368ZM584.269 11.506C583.759 11.506 583.33 11.6928 582.984 12.0665C582.638 12.4357 582.423 12.9552 582.341 13.6251H586.046V13.5294C586.01 12.8868 585.837 12.3901 585.527 12.0392C585.217 11.6837 584.798 11.506 584.269 11.506Z" fill="#767676"/>
<circle cx="543.023" cy="13.3159" r="8.3159" fill="#F2F2F2"/>
<circle cx="543.023" cy="13.3159" r="3.659" fill="#9F8CEA"/>
<path d="M23.2637 283.058C23.2637 284.433 23.0288 285.455 22.5591 286.124C22.0894 286.793 21.3551 287.127 20.3564 287.127C19.3704 287.127 18.6405 286.801 18.1665 286.149C17.6925 285.493 17.4471 284.516 17.4302 283.217V281.649C17.4302 280.291 17.665 279.281 18.1348 278.621C18.6045 277.961 19.3408 277.631 20.3438 277.631C21.3382 277.631 22.0703 277.95 22.54 278.589C23.0098 279.224 23.251 280.206 23.2637 281.535V283.058ZM22.0894 281.452C22.0894 280.458 21.9497 279.734 21.6704 279.281C21.3911 278.824 20.9489 278.596 20.3438 278.596C19.7428 278.596 19.3049 278.822 19.0298 279.275C18.7547 279.728 18.613 280.424 18.6045 281.363V283.242C18.6045 284.241 18.7484 284.979 19.0361 285.458C19.3281 285.931 19.7682 286.168 20.3564 286.168C20.9362 286.168 21.3657 285.944 21.645 285.496C21.9285 285.047 22.0767 284.34 22.0894 283.375V281.452Z" fill="#BCB9B9"/>
<path d="M44.0317 316H37.9761V315.156L41.1753 311.601C41.6493 311.064 41.9751 310.628 42.1528 310.293C42.3348 309.955 42.4258 309.606 42.4258 309.246C42.4258 308.764 42.2798 308.368 41.9878 308.059C41.6958 307.75 41.3065 307.596 40.8198 307.596C40.2358 307.596 39.7809 307.763 39.4551 308.097C39.1335 308.427 38.9727 308.889 38.9727 309.481H37.7983C37.7983 308.63 38.0713 307.943 38.6172 307.418C39.1673 306.893 39.9015 306.631 40.8198 306.631C41.6789 306.631 42.3581 306.857 42.8574 307.31C43.3568 307.759 43.6064 308.357 43.6064 309.106C43.6064 310.016 43.0267 311.1 41.8672 312.356L39.3916 315.042H44.0317V316ZM51.0713 312.058C51.0713 313.433 50.8364 314.455 50.3667 315.124C49.897 315.793 49.1628 316.127 48.1641 316.127C47.1781 316.127 46.4481 315.801 45.9741 315.149C45.5002 314.493 45.2547 313.516 45.2378 312.217V310.649C45.2378 309.291 45.4727 308.281 45.9424 307.621C46.4121 306.961 47.1484 306.631 48.1514 306.631C49.1458 306.631 49.8779 306.95 50.3477 307.589C50.8174 308.224 51.0586 309.206 51.0713 310.535V312.058ZM49.897 310.452C49.897 309.458 49.7573 308.734 49.478 308.281C49.1987 307.824 48.7565 307.596 48.1514 307.596C47.5505 307.596 47.1125 307.822 46.8374 308.275C46.5623 308.728 46.4206 309.424 46.4121 310.363V312.242C46.4121 313.241 46.556 313.979 46.8438 314.458C47.1357 314.931 47.5758 315.168 48.1641 315.168C48.7438 315.168 49.1733 314.944 49.4526 314.496C49.7362 314.047 49.8843 313.34 49.897 312.375V310.452ZM58.6313 316H52.5757V315.156L55.7749 311.601C56.2489 311.064 56.5747 310.628 56.7524 310.293C56.9344 309.955 57.0254 309.606 57.0254 309.246C57.0254 308.764 56.8794 308.368 56.5874 308.059C56.2954 307.75 55.9061 307.596 55.4194 307.596C54.8354 307.596 54.3805 307.763 54.0547 308.097C53.7331 308.427 53.5723 308.889 53.5723 309.481H52.3979C52.3979 308.63 52.6709 307.943 53.2168 307.418C53.7669 306.893 54.5011 306.631 55.4194 306.631C56.2785 306.631 56.9577 306.857 57.457 307.31C57.9564 307.759 58.2061 308.357 58.2061 309.106C58.2061 310.016 57.6263 311.1 56.4668 312.356L53.9912 315.042H58.6313V316ZM63.7349 316H62.5542V308.173L60.1865 309.043V307.977L63.5508 306.713H63.7349V316ZM69.7397 312.553H66.6421V311.595H69.7397V312.553ZM74.6274 316H73.4468V308.173L71.0791 309.043V307.977L74.4434 306.713H74.6274V316ZM83.8633 312.058C83.8633 313.433 83.6284 314.455 83.1587 315.124C82.689 315.793 81.9548 316.127 80.9561 316.127C79.9701 316.127 79.2401 315.801 78.7661 315.149C78.2922 314.493 78.0467 313.516 78.0298 312.217V310.649C78.0298 309.291 78.2646 308.281 78.7344 307.621C79.2041 306.961 79.9404 306.631 80.9434 306.631C81.9378 306.631 82.6699 306.95 83.1396 307.589C83.6094 308.224 83.8506 309.206 83.8633 310.535V312.058ZM82.689 310.452C82.689 309.458 82.5493 308.734 82.27 308.281C81.9907 307.824 81.5485 307.596 80.9434 307.596C80.3424 307.596 79.9045 307.822 79.6294 308.275C79.3543 308.728 79.2126 309.424 79.2041 310.363V312.242C79.2041 313.241 79.348 313.979 79.6357 314.458C79.9277 314.931 80.3678 315.168 80.9561 315.168C81.5358 315.168 81.9653 314.944 82.2446 314.496C82.5282 314.047 82.6763 313.34 82.689 312.375V310.452ZM87.9321 312.553H84.8345V311.595H87.9321V312.553ZM92.8198 316H91.6392V308.173L89.2715 309.043V307.977L92.6357 306.713H92.8198V316ZM100.12 316H98.939V308.173L96.5713 309.043V307.977L99.9355 306.713H100.12V316Z" fill="#BCB9B9"/>
<path d="M544.458 307.761H541.487V316H540.274V307.761H537.31V306.758H544.458V307.761ZM544.699 312.502C544.699 311.83 544.83 311.224 545.092 310.687C545.359 310.15 545.727 309.735 546.197 309.443C546.671 309.151 547.21 309.005 547.815 309.005C548.751 309.005 549.506 309.329 550.082 309.976C550.661 310.624 550.951 311.485 550.951 312.56V312.642C550.951 313.311 550.822 313.912 550.564 314.445C550.31 314.974 549.944 315.386 549.466 315.683C548.992 315.979 548.446 316.127 547.828 316.127C546.897 316.127 546.142 315.803 545.562 315.156C544.986 314.508 544.699 313.651 544.699 312.585V312.502ZM545.879 312.642C545.879 313.404 546.055 314.015 546.406 314.477C546.762 314.938 547.236 315.168 547.828 315.168C548.425 315.168 548.899 314.936 549.25 314.47C549.601 314 549.777 313.345 549.777 312.502C549.777 311.749 549.597 311.14 549.237 310.674C548.882 310.205 548.408 309.97 547.815 309.97C547.236 309.97 546.768 310.2 546.413 310.662C546.057 311.123 545.879 311.783 545.879 312.642ZM552.138 312.509C552.138 311.455 552.388 310.609 552.887 309.97C553.387 309.326 554.04 309.005 554.849 309.005C555.653 309.005 556.29 309.28 556.759 309.83V306.25H557.934V316H556.854L556.797 315.264C556.328 315.839 555.674 316.127 554.836 316.127C554.04 316.127 553.391 315.801 552.887 315.149C552.388 314.498 552.138 313.647 552.138 312.598V312.509ZM553.312 312.642C553.312 313.421 553.473 314.03 553.795 314.47C554.117 314.91 554.561 315.13 555.128 315.13C555.873 315.13 556.417 314.796 556.759 314.127V310.973C556.408 310.325 555.868 310.001 555.141 310.001C554.565 310.001 554.117 310.224 553.795 310.668C553.473 311.112 553.312 311.77 553.312 312.642ZM564.002 316C563.934 315.865 563.879 315.623 563.837 315.276C563.291 315.843 562.639 316.127 561.882 316.127C561.205 316.127 560.648 315.937 560.212 315.556C559.781 315.171 559.565 314.684 559.565 314.096C559.565 313.381 559.836 312.826 560.377 312.433C560.923 312.035 561.689 311.836 562.675 311.836H563.818V311.296C563.818 310.886 563.695 310.56 563.45 310.319C563.204 310.073 562.842 309.951 562.364 309.951C561.945 309.951 561.594 310.056 561.311 310.268C561.027 310.48 560.885 310.736 560.885 311.036H559.705C559.705 310.693 559.825 310.363 560.066 310.046C560.312 309.724 560.642 309.47 561.057 309.284C561.476 309.098 561.935 309.005 562.434 309.005C563.225 309.005 563.845 309.204 564.294 309.602C564.743 309.995 564.975 310.539 564.992 311.233V314.394C564.992 315.025 565.073 315.526 565.233 315.898V316H564.002ZM562.053 315.105C562.421 315.105 562.771 315.01 563.101 314.819C563.431 314.629 563.67 314.381 563.818 314.077V312.667H562.897C561.459 312.667 560.739 313.089 560.739 313.931C560.739 314.299 560.862 314.587 561.107 314.794C561.353 315.001 561.668 315.105 562.053 315.105ZM568.979 314.28L570.578 309.132H571.835L569.074 317.06C568.646 318.203 567.967 318.774 567.036 318.774L566.814 318.755L566.376 318.672V317.72L566.693 317.746C567.091 317.746 567.4 317.665 567.62 317.504C567.844 317.344 568.028 317.049 568.172 316.622L568.433 315.924L565.982 309.132H567.265L568.979 314.28Z" fill="#D393E9"/>
<path d="M11.4189 206.366L11.8887 201.758H16.624V202.843H12.8853L12.606 205.363C13.0588 205.097 13.5729 204.963 14.1484 204.963C14.9906 204.963 15.6592 205.243 16.1543 205.801C16.6494 206.356 16.897 207.107 16.897 208.055C16.897 209.007 16.6388 209.758 16.1226 210.308C15.6105 210.854 14.8932 211.127 13.9707 211.127C13.154 211.127 12.4875 210.901 11.9712 210.448C11.4549 209.995 11.1608 209.369 11.0889 208.569H12.1997C12.2716 209.098 12.46 209.498 12.7646 209.769C13.0693 210.035 13.4714 210.168 13.9707 210.168C14.5166 210.168 14.944 209.982 15.2529 209.61C15.5661 209.237 15.7227 208.723 15.7227 208.067C15.7227 207.45 15.5534 206.954 15.2148 206.582C14.8805 206.205 14.4341 206.017 13.8755 206.017C13.3634 206.017 12.9614 206.129 12.6694 206.354L12.3584 206.607L11.4189 206.366ZM20.2168 207.82L19.4805 208.588V211H18.3062V201.25H19.4805V207.147L20.1089 206.392L22.248 204.132H23.6763L21.0039 207.001L23.9873 211H22.6099L20.2168 207.82Z" fill="#BCB9B9"/>
<path d="M7.43896 135H6.2583V127.173L3.89062 128.043V126.977L7.25488 125.713H7.43896V135ZM16.6748 131.058C16.6748 132.433 16.4399 133.455 15.9702 134.124C15.5005 134.793 14.7663 135.127 13.7676 135.127C12.7816 135.127 12.0516 134.801 11.5776 134.149C11.1037 133.493 10.8582 132.516 10.8413 131.217V129.649C10.8413 128.291 11.0762 127.281 11.5459 126.621C12.0156 125.961 12.752 125.631 13.7549 125.631C14.7493 125.631 15.4814 125.95 15.9512 126.589C16.4209 127.224 16.6621 128.206 16.6748 129.535V131.058ZM15.5005 129.452C15.5005 128.458 15.3608 127.734 15.0815 127.281C14.8022 126.824 14.36 126.596 13.7549 126.596C13.154 126.596 12.716 126.822 12.4409 127.275C12.1659 127.728 12.0241 128.424 12.0156 129.363V131.242C12.0156 132.241 12.1595 132.979 12.4473 133.458C12.7393 133.931 13.1794 134.168 13.7676 134.168C14.3473 134.168 14.7769 133.944 15.0562 133.496C15.3397 133.047 15.4878 132.34 15.5005 131.375V129.452ZM20.2168 131.82L19.4805 132.588V135H18.3062V125.25H19.4805V131.147L20.1089 130.392L22.248 128.132H23.6763L21.0039 131.001L23.9873 135H22.6099L20.2168 131.82Z" fill="#BCB9B9"/>
<path d="M9.63525 61H3.57959V60.1558L6.77881 56.6011C7.25277 56.0636 7.57861 55.6278 7.75635 55.2935C7.93831 54.9549 8.0293 54.6058 8.0293 54.2461C8.0293 53.7637 7.8833 53.368 7.59131 53.0591C7.29932 52.7502 6.90999 52.5957 6.42334 52.5957C5.83936 52.5957 5.38444 52.7629 5.05859 53.0972C4.73698 53.4272 4.57617 53.8885 4.57617 54.481H3.40186C3.40186 53.6304 3.6748 52.9427 4.2207 52.418C4.77083 51.8932 5.50505 51.6309 6.42334 51.6309C7.28239 51.6309 7.96159 51.8573 8.46094 52.3101C8.96029 52.7586 9.20996 53.3574 9.20996 54.1064C9.20996 55.0163 8.63021 56.0996 7.4707 57.3564L4.99512 60.0415H9.63525V61ZM16.6748 57.0581C16.6748 58.4334 16.4399 59.4554 15.9702 60.124C15.5005 60.7926 14.7663 61.127 13.7676 61.127C12.7816 61.127 12.0516 60.8011 11.5776 60.1494C11.1037 59.4935 10.8582 58.516 10.8413 57.2168V55.6489C10.8413 54.2905 11.0762 53.2812 11.5459 52.6211C12.0156 51.9609 12.752 51.6309 13.7549 51.6309C14.7493 51.6309 15.4814 51.9504 15.9512 52.5894C16.4209 53.2241 16.6621 54.2059 16.6748 55.5347V57.0581ZM15.5005 55.4521C15.5005 54.4577 15.3608 53.734 15.0815 53.2812C14.8022 52.8242 14.36 52.5957 13.7549 52.5957C13.154 52.5957 12.716 52.8221 12.4409 53.2749C12.1659 53.7277 12.0241 54.4238 12.0156 55.3633V57.2422C12.0156 58.2409 12.1595 58.9793 12.4473 59.4575C12.7393 59.9315 13.1794 60.1685 13.7676 60.1685C14.3473 60.1685 14.7769 59.9442 15.0562 59.4956C15.3397 59.047 15.4878 58.3403 15.5005 57.3755V55.4521ZM20.2168 57.8198L19.4805 58.5879V61H18.3062V51.25H19.4805V57.147L20.1089 56.3916L22.248 54.1318H23.6763L21.0039 57.001L23.9873 61H22.6099L20.2168 57.8198Z" fill="#BCB9B9"/>
<line x1="37.5" y1="53" x2="37.5" y2="284" stroke="#D9D9DB" stroke-dasharray="5 5"/>
<line x1="393.5" y1="53" x2="393.5" y2="284" stroke="#D9D9DB" stroke-dasharray="5 5"/>
<line x1="215.5" y1="53" x2="215.5" y2="284" stroke="#D393E9" stroke-dasharray="2 2"/>
<line x1="571.5" y1="53" x2="571.5" y2="284" stroke="#D9D9DB" stroke-dasharray="5 5"/>
<path d="M38 112H114.124H190.475H266.373H343.401H419.299H496.102H572" stroke="#B140D8" stroke-width="3" stroke-linecap="round"/>
<path d="M38 270H114.185H190.595H266.554H343.642H419.601H496.464H572" stroke="#9F8CEA" stroke-width="3" stroke-linecap="round"/>
<path d="M38 207H113.285H190.604H267.019H343.66H419.17H496.489H572" stroke="#47B3F5" stroke-width="3" stroke-linecap="round"/>
<path d="M38 254H114.185H190.595H266.554H343.642H419.601H496.464H572" stroke="#93E4E9" stroke-width="3" stroke-linecap="round"/>
<path d="M38 54H113.28H190.595H265.423H343.642H419.601H496.464H572" stroke="#D87171" stroke-width="3" stroke-linecap="round"/>
<path d="M38 234H114.185H190.595H266.554H343.642H419.601H496.464H572" stroke="#F4B376" stroke-width="3" stroke-linecap="round"/>
<path d="M38 173H114.415H190.604H268.149H343.66H419.622H496.489H572" stroke="#4290F5" stroke-width="3" stroke-linecap="round"/>
<circle cx="215.5" cy="285" r="8" fill="#D393E9" fill-opacity="0.26"/>
<circle cx="215.5" cy="285" r="3" fill="#D393E9"/>
<g filter="url(#filter0_d_489_1434)">
<path d="M228.5 83C228.5 71.9543 237.454 63 248.5 63H371.5C382.546 63 391.5 71.9543 391.5 83V273C391.5 284.046 382.546 293 371.5 293H228.5V83Z" fill="white"/>
</g>
<path d="M260.092 114.752L262.318 110.469H263.596L260.654 115.818V119H259.529V115.818L256.588 110.469H257.877L260.092 114.752ZM263.854 115.771C263.854 115.15 263.975 114.592 264.217 114.096C264.463 113.6 264.803 113.217 265.236 112.947C265.674 112.678 266.172 112.543 266.73 112.543C267.594 112.543 268.291 112.842 268.822 113.439C269.357 114.037 269.625 114.832 269.625 115.824V115.9C269.625 116.518 269.506 117.072 269.268 117.564C269.033 118.053 268.695 118.434 268.254 118.707C267.816 118.98 267.312 119.117 266.742 119.117C265.883 119.117 265.186 118.818 264.65 118.221C264.119 117.623 263.854 116.832 263.854 115.848V115.771ZM264.943 115.9C264.943 116.604 265.105 117.168 265.43 117.594C265.758 118.02 266.195 118.232 266.742 118.232C267.293 118.232 267.73 118.018 268.055 117.588C268.379 117.154 268.541 116.549 268.541 115.771C268.541 115.076 268.375 114.514 268.043 114.084C267.715 113.65 267.277 113.434 266.73 113.434C266.195 113.434 265.764 113.646 265.436 114.072C265.107 114.498 264.943 115.107 264.943 115.9ZM274.898 118.373C274.477 118.869 273.857 119.117 273.041 119.117C272.365 119.117 271.85 118.922 271.494 118.531C271.143 118.137 270.965 117.555 270.961 116.785V112.66H272.045V116.756C272.045 117.717 272.436 118.197 273.217 118.197C274.045 118.197 274.596 117.889 274.869 117.271V112.66H275.953V119H274.922L274.898 118.373ZM279.076 111.125V112.66H280.26V113.498H279.076V117.43C279.076 117.684 279.129 117.875 279.234 118.004C279.34 118.129 279.52 118.191 279.773 118.191C279.898 118.191 280.07 118.168 280.289 118.121V119C280.004 119.078 279.727 119.117 279.457 119.117C278.973 119.117 278.607 118.971 278.361 118.678C278.115 118.385 277.992 117.969 277.992 117.43V113.498H276.838V112.66H277.992V111.125H279.076ZM285.445 118.373C285.023 118.869 284.404 119.117 283.588 119.117C282.912 119.117 282.396 118.922 282.041 118.531C281.689 118.137 281.512 117.555 281.508 116.785V112.66H282.592V116.756C282.592 117.717 282.982 118.197 283.764 118.197C284.592 118.197 285.143 117.889 285.416 117.271V112.66H286.5V119H285.469L285.445 118.373ZM293.52 115.9C293.52 116.869 293.297 117.648 292.852 118.238C292.406 118.824 291.809 119.117 291.059 119.117C290.258 119.117 289.639 118.834 289.201 118.268L289.148 119H288.152V110H289.236V113.357C289.674 112.814 290.277 112.543 291.047 112.543C291.816 112.543 292.42 112.834 292.857 113.416C293.299 113.998 293.52 114.795 293.52 115.807V115.9ZM292.436 115.777C292.436 115.039 292.293 114.469 292.008 114.066C291.723 113.664 291.312 113.463 290.777 113.463C290.062 113.463 289.549 113.795 289.236 114.459V117.201C289.568 117.865 290.086 118.197 290.789 118.197C291.309 118.197 291.713 117.996 292.002 117.594C292.291 117.191 292.436 116.586 292.436 115.777ZM297.521 119.117C296.662 119.117 295.963 118.836 295.424 118.273C294.885 117.707 294.615 116.951 294.615 116.006V115.807C294.615 115.178 294.734 114.617 294.973 114.125C295.215 113.629 295.551 113.242 295.98 112.965C296.414 112.684 296.883 112.543 297.387 112.543C298.211 112.543 298.852 112.814 299.309 113.357C299.766 113.9 299.994 114.678 299.994 115.689V116.141H295.699C295.715 116.766 295.896 117.271 296.244 117.658C296.596 118.041 297.041 118.232 297.58 118.232C297.963 118.232 298.287 118.154 298.553 117.998C298.818 117.842 299.051 117.635 299.25 117.377L299.912 117.893C299.381 118.709 298.584 119.117 297.521 119.117ZM297.387 113.434C296.949 113.434 296.582 113.594 296.285 113.914C295.988 114.23 295.805 114.676 295.734 115.25H298.91V115.168C298.879 114.617 298.73 114.191 298.465 113.891C298.199 113.586 297.84 113.434 297.387 113.434Z" fill="#767676"/>
<circle cx="246.5" cy="115" r="3" fill="#D87171"/>
<path d="M262.195 167.232H258.615V171H257.49V162.469H262.775V163.395H258.615V166.312H262.195V167.232ZM267.668 171C267.605 170.875 267.555 170.652 267.516 170.332C267.012 170.855 266.41 171.117 265.711 171.117C265.086 171.117 264.572 170.941 264.17 170.59C263.771 170.234 263.572 169.785 263.572 169.242C263.572 168.582 263.822 168.07 264.322 167.707C264.826 167.34 265.533 167.156 266.443 167.156H267.498V166.658C267.498 166.279 267.385 165.979 267.158 165.756C266.932 165.529 266.598 165.416 266.156 165.416C265.77 165.416 265.445 165.514 265.184 165.709C264.922 165.904 264.791 166.141 264.791 166.418H263.701C263.701 166.102 263.812 165.797 264.035 165.504C264.262 165.207 264.566 164.973 264.949 164.801C265.336 164.629 265.76 164.543 266.221 164.543C266.951 164.543 267.523 164.727 267.938 165.094C268.352 165.457 268.566 165.959 268.582 166.6V169.518C268.582 170.1 268.656 170.562 268.805 170.906V171H267.668ZM265.869 170.174C266.209 170.174 266.531 170.086 266.836 169.91C267.141 169.734 267.361 169.506 267.498 169.225V167.924H266.648C265.32 167.924 264.656 168.312 264.656 169.09C264.656 169.43 264.77 169.695 264.996 169.887C265.223 170.078 265.514 170.174 265.869 170.174ZM272.824 170.232C273.211 170.232 273.549 170.115 273.838 169.881C274.127 169.646 274.287 169.354 274.318 169.002H275.344C275.324 169.365 275.199 169.711 274.969 170.039C274.738 170.367 274.43 170.629 274.043 170.824C273.66 171.02 273.254 171.117 272.824 171.117C271.961 171.117 271.273 170.83 270.762 170.256C270.254 169.678 270 168.889 270 167.889V167.707C270 167.09 270.113 166.541 270.34 166.061C270.566 165.58 270.891 165.207 271.312 164.941C271.738 164.676 272.24 164.543 272.818 164.543C273.529 164.543 274.119 164.756 274.588 165.182C275.061 165.607 275.312 166.16 275.344 166.84H274.318C274.287 166.43 274.131 166.094 273.85 165.832C273.572 165.566 273.229 165.434 272.818 165.434C272.268 165.434 271.84 165.633 271.535 166.031C271.234 166.426 271.084 166.998 271.084 167.748V167.953C271.084 168.684 271.234 169.246 271.535 169.641C271.836 170.035 272.266 170.232 272.824 170.232ZM279.193 171.117C278.334 171.117 277.635 170.836 277.096 170.273C276.557 169.707 276.287 168.951 276.287 168.006V167.807C276.287 167.178 276.406 166.617 276.645 166.125C276.887 165.629 277.223 165.242 277.652 164.965C278.086 164.684 278.555 164.543 279.059 164.543C279.883 164.543 280.523 164.814 280.98 165.357C281.438 165.9 281.666 166.678 281.666 167.689V168.141H277.371C277.387 168.766 277.568 169.271 277.916 169.658C278.268 170.041 278.713 170.232 279.252 170.232C279.635 170.232 279.959 170.154 280.225 169.998C280.49 169.842 280.723 169.635 280.922 169.377L281.584 169.893C281.053 170.709 280.256 171.117 279.193 171.117ZM279.059 165.434C278.621 165.434 278.254 165.594 277.957 165.914C277.66 166.23 277.477 166.676 277.406 167.25H280.582V167.168C280.551 166.617 280.402 166.191 280.137 165.891C279.871 165.586 279.512 165.434 279.059 165.434ZM288.293 167.9C288.293 168.869 288.07 169.648 287.625 170.238C287.18 170.824 286.582 171.117 285.832 171.117C285.031 171.117 284.412 170.834 283.975 170.268L283.922 171H282.926V162H284.01V165.357C284.447 164.814 285.051 164.543 285.82 164.543C286.59 164.543 287.193 164.834 287.631 165.416C288.072 165.998 288.293 166.795 288.293 167.807V167.9ZM287.209 167.777C287.209 167.039 287.066 166.469 286.781 166.066C286.496 165.664 286.086 165.463 285.551 165.463C284.836 165.463 284.322 165.795 284.01 166.459V169.201C284.342 169.865 284.859 170.197 285.562 170.197C286.082 170.197 286.486 169.996 286.775 169.594C287.064 169.191 287.209 168.586 287.209 167.777ZM289.377 167.771C289.377 167.15 289.498 166.592 289.74 166.096C289.986 165.6 290.326 165.217 290.76 164.947C291.197 164.678 291.695 164.543 292.254 164.543C293.117 164.543 293.814 164.842 294.346 165.439C294.881 166.037 295.148 166.832 295.148 167.824V167.9C295.148 168.518 295.029 169.072 294.791 169.564C294.557 170.053 294.219 170.434 293.777 170.707C293.34 170.98 292.836 171.117 292.266 171.117C291.406 171.117 290.709 170.818 290.174 170.221C289.643 169.623 289.377 168.832 289.377 167.848V167.771ZM290.467 167.9C290.467 168.604 290.629 169.168 290.953 169.594C291.281 170.02 291.719 170.232 292.266 170.232C292.816 170.232 293.254 170.018 293.578 169.588C293.902 169.154 294.064 168.549 294.064 167.771C294.064 167.076 293.898 166.514 293.566 166.084C293.238 165.65 292.801 165.434 292.254 165.434C291.719 165.434 291.287 165.646 290.959 166.072C290.631 166.498 290.467 167.107 290.467 167.9ZM296.221 167.771C296.221 167.15 296.342 166.592 296.584 166.096C296.83 165.6 297.17 165.217 297.604 164.947C298.041 164.678 298.539 164.543 299.098 164.543C299.961 164.543 300.658 164.842 301.189 165.439C301.725 166.037 301.992 166.832 301.992 167.824V167.9C301.992 168.518 301.873 169.072 301.635 169.564C301.4 170.053 301.062 170.434 300.621 170.707C300.184 170.98 299.68 171.117 299.109 171.117C298.25 171.117 297.553 170.818 297.018 170.221C296.486 169.623 296.221 168.832 296.221 167.848V167.771ZM297.311 167.9C297.311 168.604 297.473 169.168 297.797 169.594C298.125 170.02 298.562 170.232 299.109 170.232C299.66 170.232 300.098 170.018 300.422 169.588C300.746 169.154 300.908 168.549 300.908 167.771C300.908 167.076 300.742 166.514 300.41 166.084C300.082 165.65 299.645 165.434 299.098 165.434C298.562 165.434 298.131 165.646 297.803 166.072C297.475 166.498 297.311 167.107 297.311 167.9ZM305.121 168.064L304.441 168.773V171H303.357V162H304.441V167.443L305.021 166.746L306.996 164.66H308.314L305.848 167.309L308.602 171H307.33L305.121 168.064Z" fill="#767676"/>
<circle cx="246.5" cy="167" r="3" fill="#4290F5"/>
<path d="M259.33 220.311L259.494 221.436L259.734 220.422L261.422 214.469H262.371L264.018 220.422L264.252 221.453L264.434 220.305L265.758 214.469H266.889L264.82 223H263.795L262.037 216.783L261.902 216.133L261.768 216.783L259.945 223H258.92L256.857 214.469H257.982L259.33 220.311ZM270.416 223.117C269.557 223.117 268.857 222.836 268.318 222.273C267.779 221.707 267.51 220.951 267.51 220.006V219.807C267.51 219.178 267.629 218.617 267.867 218.125C268.109 217.629 268.445 217.242 268.875 216.965C269.309 216.684 269.777 216.543 270.281 216.543C271.105 216.543 271.746 216.814 272.203 217.357C272.66 217.9 272.889 218.678 272.889 219.689V220.141H268.594C268.609 220.766 268.791 221.271 269.139 221.658C269.49 222.041 269.936 222.232 270.475 222.232C270.857 222.232 271.182 222.154 271.447 221.998C271.713 221.842 271.945 221.635 272.145 221.377L272.807 221.893C272.275 222.709 271.479 223.117 270.416 223.117ZM270.281 217.434C269.844 217.434 269.477 217.594 269.18 217.914C268.883 218.23 268.699 218.676 268.629 219.25H271.805V219.168C271.773 218.617 271.625 218.191 271.359 217.891C271.094 217.586 270.734 217.434 270.281 217.434ZM275.326 223H274.242V216.66H275.326V223ZM274.154 214.979C274.154 214.803 274.207 214.654 274.312 214.533C274.422 214.412 274.582 214.352 274.793 214.352C275.004 214.352 275.164 214.412 275.273 214.533C275.383 214.654 275.438 214.803 275.438 214.979C275.438 215.154 275.383 215.301 275.273 215.418C275.164 215.535 275.004 215.594 274.793 215.594C274.582 215.594 274.422 215.535 274.312 215.418C274.207 215.301 274.154 215.154 274.154 214.979ZM282.434 219.9C282.434 220.869 282.211 221.648 281.766 222.238C281.32 222.824 280.723 223.117 279.973 223.117C279.172 223.117 278.553 222.834 278.115 222.268L278.062 223H277.066V214H278.15V217.357C278.588 216.814 279.191 216.543 279.961 216.543C280.73 216.543 281.334 216.834 281.771 217.416C282.213 217.998 282.434 218.795 282.434 219.807V219.9ZM281.35 219.777C281.35 219.039 281.207 218.469 280.922 218.066C280.637 217.664 280.227 217.463 279.691 217.463C278.977 217.463 278.463 217.795 278.15 218.459V221.201C278.482 221.865 279 222.197 279.703 222.197C280.223 222.197 280.627 221.996 280.916 221.594C281.205 221.191 281.35 220.586 281.35 219.777ZM283.518 219.771C283.518 219.15 283.639 218.592 283.881 218.096C284.127 217.6 284.467 217.217 284.9 216.947C285.338 216.678 285.836 216.543 286.395 216.543C287.258 216.543 287.955 216.842 288.486 217.439C289.021 218.037 289.289 218.832 289.289 219.824V219.9C289.289 220.518 289.17 221.072 288.932 221.564C288.697 222.053 288.359 222.434 287.918 222.707C287.48 222.98 286.977 223.117 286.406 223.117C285.547 223.117 284.85 222.818 284.314 222.221C283.783 221.623 283.518 220.832 283.518 219.848V219.771ZM284.607 219.9C284.607 220.604 284.77 221.168 285.094 221.594C285.422 222.02 285.859 222.232 286.406 222.232C286.957 222.232 287.395 222.018 287.719 221.588C288.043 221.154 288.205 220.549 288.205 219.771C288.205 219.076 288.039 218.514 287.707 218.084C287.379 217.65 286.941 217.434 286.395 217.434C285.859 217.434 285.428 217.646 285.1 218.072C284.771 218.498 284.607 219.107 284.607 219.9Z" fill="#767676"/>
<circle cx="246.5" cy="219" r="3" fill="#F1B884"/>
<path d="M258.697 145H257.572V136.469H258.697V145ZM261.615 138.66L261.65 139.457C262.135 138.848 262.768 138.543 263.549 138.543C264.889 138.543 265.564 139.299 265.576 140.811V145H264.492V140.805C264.488 140.348 264.383 140.01 264.176 139.791C263.973 139.572 263.654 139.463 263.221 139.463C262.869 139.463 262.561 139.557 262.295 139.744C262.029 139.932 261.822 140.178 261.674 140.482V145H260.59V138.66H261.615ZM270.902 143.318C270.902 143.025 270.791 142.799 270.568 142.639C270.35 142.475 269.965 142.334 269.414 142.217C268.867 142.1 268.432 141.959 268.107 141.795C267.787 141.631 267.549 141.436 267.393 141.209C267.24 140.982 267.164 140.713 267.164 140.4C267.164 139.881 267.383 139.441 267.82 139.082C268.262 138.723 268.824 138.543 269.508 138.543C270.227 138.543 270.809 138.729 271.254 139.1C271.703 139.471 271.928 139.945 271.928 140.523H270.838C270.838 140.227 270.711 139.971 270.457 139.756C270.207 139.541 269.891 139.434 269.508 139.434C269.113 139.434 268.805 139.52 268.582 139.691C268.359 139.863 268.248 140.088 268.248 140.365C268.248 140.627 268.352 140.824 268.559 140.957C268.766 141.09 269.139 141.217 269.678 141.338C270.221 141.459 270.66 141.604 270.996 141.771C271.332 141.939 271.58 142.143 271.74 142.381C271.904 142.615 271.986 142.902 271.986 143.242C271.986 143.809 271.76 144.264 271.307 144.607C270.854 144.947 270.266 145.117 269.543 145.117C269.035 145.117 268.586 145.027 268.195 144.848C267.805 144.668 267.498 144.418 267.275 144.098C267.057 143.773 266.947 143.424 266.947 143.049H268.031C268.051 143.412 268.195 143.701 268.465 143.916C268.738 144.127 269.098 144.232 269.543 144.232C269.953 144.232 270.281 144.15 270.527 143.986C270.777 143.818 270.902 143.596 270.902 143.318ZM274.869 137.125V138.66H276.053V139.498H274.869V143.43C274.869 143.684 274.922 143.875 275.027 144.004C275.133 144.129 275.312 144.191 275.566 144.191C275.691 144.191 275.863 144.168 276.082 144.121V145C275.797 145.078 275.52 145.117 275.25 145.117C274.766 145.117 274.4 144.971 274.154 144.678C273.908 144.385 273.785 143.969 273.785 143.43V139.498H272.631V138.66H273.785V137.125H274.869ZM281.238 145C281.176 144.875 281.125 144.652 281.086 144.332C280.582 144.855 279.98 145.117 279.281 145.117C278.656 145.117 278.143 144.941 277.74 144.59C277.342 144.234 277.143 143.785 277.143 143.242C277.143 142.582 277.393 142.07 277.893 141.707C278.396 141.34 279.104 141.156 280.014 141.156H281.068V140.658C281.068 140.279 280.955 139.979 280.729 139.756C280.502 139.529 280.168 139.416 279.727 139.416C279.34 139.416 279.016 139.514 278.754 139.709C278.492 139.904 278.361 140.141 278.361 140.418H277.271C277.271 140.102 277.383 139.797 277.605 139.504C277.832 139.207 278.137 138.973 278.52 138.801C278.906 138.629 279.33 138.543 279.791 138.543C280.521 138.543 281.094 138.727 281.508 139.094C281.922 139.457 282.137 139.959 282.152 140.6V143.518C282.152 144.1 282.227 144.562 282.375 144.906V145H281.238ZM279.439 144.174C279.779 144.174 280.102 144.086 280.406 143.91C280.711 143.734 280.932 143.506 281.068 143.225V141.924H280.219C278.891 141.924 278.227 142.312 278.227 143.09C278.227 143.43 278.34 143.695 278.566 143.887C278.793 144.078 279.084 144.174 279.439 144.174ZM283.594 141.777C283.594 140.789 283.822 140.004 284.279 139.422C284.736 138.836 285.342 138.543 286.096 138.543C286.869 138.543 287.473 138.816 287.906 139.363L287.959 138.66H288.949V144.848C288.949 145.668 288.705 146.314 288.217 146.787C287.732 147.26 287.08 147.496 286.26 147.496C285.803 147.496 285.355 147.398 284.918 147.203C284.48 147.008 284.146 146.74 283.916 146.4L284.479 145.75C284.943 146.324 285.512 146.611 286.184 146.611C286.711 146.611 287.121 146.463 287.414 146.166C287.711 145.869 287.859 145.451 287.859 144.912V144.367C287.426 144.867 286.834 145.117 286.084 145.117C285.342 145.117 284.74 144.818 284.279 144.221C283.822 143.623 283.594 142.809 283.594 141.777ZM284.684 141.9C284.684 142.615 284.83 143.178 285.123 143.588C285.416 143.994 285.826 144.197 286.354 144.197C287.037 144.197 287.539 143.887 287.859 143.266V140.371C287.527 139.766 287.029 139.463 286.365 139.463C285.838 139.463 285.426 139.668 285.129 140.078C284.832 140.488 284.684 141.096 284.684 141.9ZM293.654 139.633C293.49 139.605 293.312 139.592 293.121 139.592C292.41 139.592 291.928 139.895 291.674 140.5V145H290.59V138.66H291.645L291.662 139.393C292.018 138.826 292.521 138.543 293.174 138.543C293.385 138.543 293.545 138.57 293.654 138.625V139.633ZM298.336 145C298.273 144.875 298.223 144.652 298.184 144.332C297.68 144.855 297.078 145.117 296.379 145.117C295.754 145.117 295.24 144.941 294.838 144.59C294.439 144.234 294.24 143.785 294.24 143.242C294.24 142.582 294.49 142.07 294.99 141.707C295.494 141.34 296.201 141.156 297.111 141.156H298.166V140.658C298.166 140.279 298.053 139.979 297.826 139.756C297.6 139.529 297.266 139.416 296.824 139.416C296.438 139.416 296.113 139.514 295.852 139.709C295.59 139.904 295.459 140.141 295.459 140.418H294.369C294.369 140.102 294.48 139.797 294.703 139.504C294.93 139.207 295.234 138.973 295.617 138.801C296.004 138.629 296.428 138.543 296.889 138.543C297.619 138.543 298.191 138.727 298.605 139.094C299.02 139.457 299.234 139.959 299.25 140.6V143.518C299.25 144.1 299.324 144.562 299.473 144.906V145H298.336ZM296.537 144.174C296.877 144.174 297.199 144.086 297.504 143.91C297.809 143.734 298.029 143.506 298.166 143.225V141.924H297.316C295.988 141.924 295.324 142.312 295.324 143.09C295.324 143.43 295.438 143.695 295.664 143.887C295.891 144.078 296.182 144.174 296.537 144.174ZM301.969 138.66L301.998 139.363C302.463 138.816 303.09 138.543 303.879 138.543C304.766 138.543 305.369 138.883 305.689 139.562C305.9 139.258 306.174 139.012 306.51 138.824C306.85 138.637 307.25 138.543 307.711 138.543C309.102 138.543 309.809 139.279 309.832 140.752V145H308.748V140.816C308.748 140.363 308.645 140.025 308.438 139.803C308.23 139.576 307.883 139.463 307.395 139.463C306.992 139.463 306.658 139.584 306.393 139.826C306.127 140.064 305.973 140.387 305.93 140.793V145H304.84V140.846C304.84 139.924 304.389 139.463 303.486 139.463C302.775 139.463 302.289 139.766 302.027 140.371V145H300.943V138.66H301.969Z" fill="#767676"/>
<circle cx="246.5" cy="141" r="3" fill="#B140D8"/>
<path d="M263.385 189.395H260.643V197H259.523V189.395H256.787V188.469H263.385V189.395ZM269.754 195.506L270.973 190.66H272.057L270.211 197H269.332L267.791 192.195L266.291 197H265.412L263.572 190.66H264.65L265.898 195.406L267.375 190.66H268.248L269.754 195.506ZM274.342 197H273.258V190.66H274.342V197ZM273.17 188.979C273.17 188.803 273.223 188.654 273.328 188.533C273.438 188.412 273.598 188.352 273.809 188.352C274.02 188.352 274.18 188.412 274.289 188.533C274.398 188.654 274.453 188.803 274.453 188.979C274.453 189.154 274.398 189.301 274.289 189.418C274.18 189.535 274.02 189.594 273.809 189.594C273.598 189.594 273.438 189.535 273.328 189.418C273.223 189.301 273.17 189.154 273.17 188.979ZM277.553 189.125V190.66H278.736V191.498H277.553V195.43C277.553 195.684 277.605 195.875 277.711 196.004C277.816 196.129 277.996 196.191 278.25 196.191C278.375 196.191 278.547 196.168 278.766 196.121V197C278.48 197.078 278.203 197.117 277.934 197.117C277.449 197.117 277.084 196.971 276.838 196.678C276.592 196.385 276.469 195.969 276.469 195.43V191.498H275.314V190.66H276.469V189.125H277.553ZM281.479 189.125V190.66H282.662V191.498H281.479V195.43C281.479 195.684 281.531 195.875 281.637 196.004C281.742 196.129 281.922 196.191 282.176 196.191C282.301 196.191 282.473 196.168 282.691 196.121V197C282.406 197.078 282.129 197.117 281.859 197.117C281.375 197.117 281.01 196.971 280.764 196.678C280.518 196.385 280.395 195.969 280.395 195.43V191.498H279.24V190.66H280.395V189.125H281.479ZM286.564 197.117C285.705 197.117 285.006 196.836 284.467 196.273C283.928 195.707 283.658 194.951 283.658 194.006V193.807C283.658 193.178 283.777 192.617 284.016 192.125C284.258 191.629 284.594 191.242 285.023 190.965C285.457 190.684 285.926 190.543 286.43 190.543C287.254 190.543 287.895 190.814 288.352 191.357C288.809 191.9 289.037 192.678 289.037 193.689V194.141H284.742C284.758 194.766 284.939 195.271 285.287 195.658C285.639 196.041 286.084 196.232 286.623 196.232C287.006 196.232 287.33 196.154 287.596 195.998C287.861 195.842 288.094 195.635 288.293 195.377L288.955 195.893C288.424 196.709 287.627 197.117 286.564 197.117ZM286.43 191.434C285.992 191.434 285.625 191.594 285.328 191.914C285.031 192.23 284.848 192.676 284.777 193.25H287.953V193.168C287.922 192.617 287.773 192.191 287.508 191.891C287.242 191.586 286.883 191.434 286.43 191.434ZM293.361 191.633C293.197 191.605 293.02 191.592 292.828 191.592C292.117 191.592 291.635 191.895 291.381 192.5V197H290.297V190.66H291.352L291.369 191.393C291.725 190.826 292.229 190.543 292.881 190.543C293.092 190.543 293.252 190.57 293.361 190.625V191.633Z" fill="#767676"/>
<circle cx="246.5" cy="193" r="3" fill="#47B3F5"/>
<path d="M263.385 241.395H260.643V249H259.523V241.395H256.787V240.469H263.385V241.395ZM265.658 249H264.574V242.66H265.658V249ZM264.486 240.979C264.486 240.803 264.539 240.654 264.645 240.533C264.754 240.412 264.914 240.352 265.125 240.352C265.336 240.352 265.496 240.412 265.605 240.533C265.715 240.654 265.77 240.803 265.77 240.979C265.77 241.154 265.715 241.301 265.605 241.418C265.496 241.535 265.336 241.594 265.125 241.594C264.914 241.594 264.754 241.535 264.645 241.418C264.539 241.301 264.486 241.154 264.486 240.979ZM269.168 246.064L268.488 246.773V249H267.404V240H268.488V245.443L269.068 244.746L271.043 242.66H272.361L269.895 245.309L272.648 249H271.377L269.168 246.064ZM274.951 241.125V242.66H276.135V243.498H274.951V247.43C274.951 247.684 275.004 247.875 275.109 248.004C275.215 248.129 275.395 248.191 275.648 248.191C275.773 248.191 275.945 248.168 276.164 248.121V249C275.879 249.078 275.602 249.117 275.332 249.117C274.848 249.117 274.482 248.971 274.236 248.678C273.99 248.385 273.867 247.969 273.867 247.43V243.498H272.713V242.66H273.867V241.125H274.951ZM277.002 245.771C277.002 245.15 277.123 244.592 277.365 244.096C277.611 243.6 277.951 243.217 278.385 242.947C278.822 242.678 279.32 242.543 279.879 242.543C280.742 242.543 281.439 242.842 281.971 243.439C282.506 244.037 282.773 244.832 282.773 245.824V245.9C282.773 246.518 282.654 247.072 282.416 247.564C282.182 248.053 281.844 248.434 281.402 248.707C280.965 248.98 280.461 249.117 279.891 249.117C279.031 249.117 278.334 248.818 277.799 248.221C277.268 247.623 277.002 246.832 277.002 245.848V245.771ZM278.092 245.9C278.092 246.604 278.254 247.168 278.578 247.594C278.906 248.02 279.344 248.232 279.891 248.232C280.441 248.232 280.879 248.018 281.203 247.588C281.527 247.154 281.689 246.549 281.689 245.771C281.689 245.076 281.523 244.514 281.191 244.084C280.863 243.65 280.426 243.434 279.879 243.434C279.344 243.434 278.912 243.646 278.584 244.072C278.256 244.498 278.092 245.107 278.092 245.9ZM285.902 246.064L285.223 246.773V249H284.139V240H285.223V245.443L285.803 244.746L287.777 242.66H289.096L286.629 245.309L289.383 249H288.111L285.902 246.064Z" fill="#767676"/>
<circle cx="246.5" cy="245" r="3" fill="#93E4E9"/>
<path d="M260.314 273.506L262.752 266.469H263.982L260.818 275H259.822L256.664 266.469H257.889L260.314 273.506ZM266.139 275H265.055V266H266.139V275ZM269.057 275H267.973V268.66H269.057V275ZM267.885 266.979C267.885 266.803 267.938 266.654 268.043 266.533C268.152 266.412 268.312 266.352 268.523 266.352C268.734 266.352 268.895 266.412 269.004 266.533C269.113 266.654 269.168 266.803 269.168 266.979C269.168 267.154 269.113 267.301 269.004 267.418C268.895 267.535 268.734 267.594 268.523 267.594C268.312 267.594 268.152 267.535 268.043 267.418C267.938 267.301 267.885 267.154 267.885 266.979ZM272.889 273.529L274.459 268.66H275.566L273.293 275H272.467L270.17 268.66H271.277L272.889 273.529ZM279.158 275.117C278.299 275.117 277.6 274.836 277.061 274.273C276.521 273.707 276.252 272.951 276.252 272.006V271.807C276.252 271.178 276.371 270.617 276.609 270.125C276.852 269.629 277.188 269.242 277.617 268.965C278.051 268.684 278.52 268.543 279.023 268.543C279.848 268.543 280.488 268.814 280.945 269.357C281.402 269.9 281.631 270.678 281.631 271.689V272.141H277.336C277.352 272.766 277.533 273.271 277.881 273.658C278.232 274.041 278.678 274.232 279.217 274.232C279.6 274.232 279.924 274.154 280.189 273.998C280.455 273.842 280.688 273.635 280.887 273.377L281.549 273.893C281.018 274.709 280.221 275.117 279.158 275.117ZM279.023 269.434C278.586 269.434 278.219 269.594 277.922 269.914C277.625 270.23 277.441 270.676 277.371 271.25H280.547V271.168C280.516 270.617 280.367 270.191 280.102 269.891C279.836 269.586 279.477 269.434 279.023 269.434Z" fill="#767676"/>
<circle cx="246.5" cy="271" r="3" fill="#9F8CEA"/>
<path d="M352.477 116.135H353.66V117.02H352.477V119H351.387V117.02H347.502V116.381L351.322 110.469H352.477V116.135ZM348.732 116.135H351.387V111.951L351.258 112.186L348.732 116.135ZM354.715 120.699L354.1 120.277C354.467 119.766 354.658 119.238 354.674 118.695V117.717H355.734V118.566C355.734 118.961 355.637 119.355 355.441 119.75C355.25 120.145 355.008 120.461 354.715 120.699ZM357.492 114.723L357.926 110.469H362.297V111.471H358.846L358.588 113.797C359.006 113.551 359.48 113.428 360.012 113.428C360.789 113.428 361.406 113.686 361.863 114.201C362.32 114.713 362.549 115.406 362.549 116.281C362.549 117.16 362.311 117.854 361.834 118.361C361.361 118.865 360.699 119.117 359.848 119.117C359.094 119.117 358.478 118.908 358.002 118.49C357.525 118.072 357.254 117.494 357.187 116.756H358.213C358.279 117.244 358.453 117.613 358.734 117.863C359.016 118.109 359.387 118.232 359.848 118.232C360.352 118.232 360.746 118.061 361.031 117.717C361.32 117.373 361.465 116.898 361.465 116.293C361.465 115.723 361.309 115.266 360.996 114.922C360.687 114.574 360.275 114.4 359.76 114.4C359.287 114.4 358.916 114.504 358.646 114.711L358.359 114.945L357.492 114.723ZM365.309 114.207H366.123C366.635 114.199 367.037 114.064 367.33 113.803C367.623 113.541 367.77 113.188 367.77 112.742C367.77 111.742 367.271 111.242 366.275 111.242C365.807 111.242 365.432 111.377 365.15 111.646C364.873 111.912 364.734 112.266 364.734 112.707H363.65C363.65 112.031 363.896 111.471 364.389 111.025C364.885 110.576 365.514 110.352 366.275 110.352C367.08 110.352 367.711 110.564 368.168 110.99C368.625 111.416 368.853 112.008 368.853 112.766C368.853 113.137 368.732 113.496 368.49 113.844C368.252 114.191 367.926 114.451 367.512 114.623C367.98 114.771 368.342 115.018 368.596 115.361C368.853 115.705 368.982 116.125 368.982 116.621C368.982 117.387 368.732 117.994 368.232 118.443C367.732 118.893 367.082 119.117 366.281 119.117C365.48 119.117 364.828 118.9 364.324 118.467C363.824 118.033 363.574 117.461 363.574 116.75H364.664C364.664 117.199 364.811 117.559 365.103 117.828C365.396 118.098 365.789 118.232 366.281 118.232C366.805 118.232 367.205 118.096 367.482 117.822C367.76 117.549 367.898 117.156 367.898 116.645C367.898 116.148 367.746 115.768 367.441 115.502C367.137 115.236 366.697 115.1 366.123 115.092H365.309V114.207ZM375.82 115.361C375.82 116.631 375.603 117.574 375.17 118.191C374.736 118.809 374.059 119.117 373.137 119.117C372.227 119.117 371.553 118.816 371.115 118.215C370.678 117.609 370.451 116.707 370.436 115.508V114.061C370.436 112.807 370.652 111.875 371.086 111.266C371.52 110.656 372.199 110.352 373.125 110.352C374.043 110.352 374.719 110.646 375.152 111.236C375.586 111.822 375.809 112.729 375.82 113.955V115.361ZM374.736 113.879C374.736 112.961 374.607 112.293 374.35 111.875C374.092 111.453 373.684 111.242 373.125 111.242C372.57 111.242 372.166 111.451 371.912 111.869C371.658 112.287 371.527 112.93 371.52 113.797V115.531C371.52 116.453 371.652 117.135 371.918 117.576C372.187 118.014 372.594 118.232 373.137 118.232C373.672 118.232 374.068 118.025 374.326 117.611C374.588 117.197 374.725 116.545 374.736 115.654V113.879Z" fill="#767676"/>
<path d="M326.098 166.207H326.912C327.424 166.199 327.826 166.064 328.119 165.803C328.412 165.541 328.559 165.188 328.559 164.742C328.559 163.742 328.061 163.242 327.064 163.242C326.596 163.242 326.221 163.377 325.939 163.646C325.662 163.912 325.523 164.266 325.523 164.707H324.439C324.439 164.031 324.686 163.471 325.178 163.025C325.674 162.576 326.303 162.352 327.064 162.352C327.869 162.352 328.5 162.564 328.957 162.99C329.414 163.416 329.643 164.008 329.643 164.766C329.643 165.137 329.521 165.496 329.279 165.844C329.041 166.191 328.715 166.451 328.301 166.623C328.77 166.771 329.131 167.018 329.385 167.361C329.643 167.705 329.771 168.125 329.771 168.621C329.771 169.387 329.521 169.994 329.021 170.443C328.521 170.893 327.871 171.117 327.07 171.117C326.27 171.117 325.617 170.9 325.113 170.467C324.613 170.033 324.363 169.461 324.363 168.75H325.453C325.453 169.199 325.6 169.559 325.893 169.828C326.186 170.098 326.578 170.232 327.07 170.232C327.594 170.232 327.994 170.096 328.271 169.822C328.549 169.549 328.688 169.156 328.688 168.645C328.688 168.148 328.535 167.768 328.23 167.502C327.926 167.236 327.486 167.1 326.912 167.092H326.098V166.207ZM331.336 172.699L330.721 172.277C331.088 171.766 331.279 171.238 331.295 170.695V169.717H332.355V170.566C332.355 170.961 332.258 171.355 332.062 171.75C331.871 172.145 331.629 172.461 331.336 172.699ZM337.178 171H336.088V163.775L333.902 164.578V163.594L337.008 162.428H337.178V171ZM340.852 166.723L341.285 162.469H345.656V163.471H342.205L341.947 165.797C342.365 165.551 342.84 165.428 343.371 165.428C344.148 165.428 344.766 165.686 345.223 166.201C345.68 166.713 345.908 167.406 345.908 168.281C345.908 169.16 345.67 169.854 345.193 170.361C344.721 170.865 344.059 171.117 343.207 171.117C342.453 171.117 341.838 170.908 341.361 170.49C340.885 170.072 340.613 169.494 340.547 168.756H341.572C341.639 169.244 341.812 169.613 342.094 169.863C342.375 170.109 342.746 170.232 343.207 170.232C343.711 170.232 344.105 170.061 344.391 169.717C344.68 169.373 344.824 168.898 344.824 168.293C344.824 167.723 344.668 167.266 344.355 166.922C344.047 166.574 343.635 166.4 343.119 166.4C342.646 166.4 342.275 166.504 342.006 166.711L341.719 166.945L340.852 166.723ZM352.441 167.361C352.441 168.631 352.225 169.574 351.791 170.191C351.357 170.809 350.68 171.117 349.758 171.117C348.848 171.117 348.174 170.816 347.736 170.215C347.299 169.609 347.072 168.707 347.057 167.508V166.061C347.057 164.807 347.273 163.875 347.707 163.266C348.141 162.656 348.82 162.352 349.746 162.352C350.664 162.352 351.34 162.646 351.773 163.236C352.207 163.822 352.43 164.729 352.441 165.955V167.361ZM351.357 165.879C351.357 164.961 351.229 164.293 350.971 163.875C350.713 163.453 350.305 163.242 349.746 163.242C349.191 163.242 348.787 163.451 348.533 163.869C348.279 164.287 348.148 164.93 348.141 165.797V167.531C348.141 168.453 348.273 169.135 348.539 169.576C348.809 170.014 349.215 170.232 349.758 170.232C350.293 170.232 350.689 170.025 350.947 169.611C351.209 169.197 351.346 168.545 351.357 167.654V165.879ZM359.004 164.695C359.004 165.121 358.891 165.5 358.664 165.832C358.441 166.164 358.139 166.424 357.756 166.611C358.201 166.803 358.553 167.082 358.811 167.449C359.072 167.816 359.203 168.232 359.203 168.697C359.203 169.436 358.953 170.023 358.453 170.461C357.957 170.898 357.303 171.117 356.49 171.117C355.67 171.117 355.012 170.898 354.516 170.461C354.023 170.02 353.777 169.432 353.777 168.697C353.777 168.236 353.902 167.82 354.152 167.449C354.406 167.078 354.756 166.797 355.201 166.605C354.822 166.418 354.523 166.158 354.305 165.826C354.086 165.494 353.977 165.117 353.977 164.695C353.977 163.977 354.207 163.406 354.668 162.984C355.129 162.562 355.736 162.352 356.49 162.352C357.24 162.352 357.846 162.562 358.307 162.984C358.771 163.406 359.004 163.977 359.004 164.695ZM358.119 168.674C358.119 168.197 357.967 167.809 357.662 167.508C357.361 167.207 356.967 167.057 356.479 167.057C355.99 167.057 355.598 167.205 355.301 167.502C355.008 167.799 354.861 168.189 354.861 168.674C354.861 169.158 355.004 169.539 355.289 169.816C355.578 170.094 355.979 170.232 356.49 170.232C356.998 170.232 357.396 170.094 357.686 169.816C357.975 169.535 358.119 169.154 358.119 168.674ZM356.49 163.242C356.064 163.242 355.719 163.375 355.453 163.641C355.191 163.902 355.061 164.26 355.061 164.713C355.061 165.146 355.189 165.498 355.447 165.768C355.709 166.033 356.057 166.166 356.49 166.166C356.924 166.166 357.27 166.033 357.527 165.768C357.789 165.498 357.92 165.146 357.92 164.713C357.92 164.279 357.785 163.926 357.516 163.652C357.246 163.379 356.904 163.242 356.49 163.242ZM360.703 170.432C360.703 170.244 360.758 170.088 360.867 169.963C360.98 169.838 361.148 169.775 361.371 169.775C361.594 169.775 361.762 169.838 361.875 169.963C361.992 170.088 362.051 170.244 362.051 170.432C362.051 170.611 361.992 170.762 361.875 170.883C361.762 171.004 361.594 171.064 361.371 171.064C361.148 171.064 360.98 171.004 360.867 170.883C360.758 170.762 360.703 170.611 360.703 170.432ZM369.24 163.078L365.707 171H364.57L368.092 163.359H363.475V162.469H369.24V163.078ZM374.725 162.463V163.383H374.525C373.682 163.398 373.01 163.648 372.51 164.133C372.01 164.617 371.721 165.299 371.643 166.178C372.092 165.662 372.705 165.404 373.482 165.404C374.225 165.404 374.816 165.666 375.258 166.189C375.703 166.713 375.926 167.389 375.926 168.217C375.926 169.096 375.686 169.799 375.205 170.326C374.729 170.854 374.088 171.117 373.283 171.117C372.467 171.117 371.805 170.805 371.297 170.18C370.789 169.551 370.535 168.742 370.535 167.754V167.338C370.535 165.768 370.869 164.568 371.537 163.74C372.209 162.908 373.207 162.482 374.531 162.463H374.725ZM373.301 166.307C372.93 166.307 372.588 166.418 372.275 166.641C371.963 166.863 371.746 167.143 371.625 167.479V167.877C371.625 168.58 371.783 169.146 372.1 169.576C372.416 170.006 372.811 170.221 373.283 170.221C373.771 170.221 374.154 170.041 374.432 169.682C374.713 169.322 374.854 168.852 374.854 168.27C374.854 167.684 374.711 167.211 374.426 166.852C374.145 166.488 373.77 166.307 373.301 166.307Z" fill="#767676"/>
<path d="M351.463 223H350.373V215.775L348.188 216.578V215.594L351.293 214.428H351.463V223ZM354.715 224.699L354.1 224.277C354.467 223.766 354.658 223.238 354.674 222.695V221.717H355.734V222.566C355.734 222.961 355.637 223.355 355.441 223.75C355.25 224.145 355.008 224.461 354.715 224.699ZM360.557 223H359.467V215.775L357.281 216.578V215.594L360.387 214.428H360.557V223ZM368.309 220.135H369.492V221.02H368.309V223H367.219V221.02H363.334V220.381L367.154 214.469H368.309V220.135ZM364.564 220.135H367.219V215.951L367.09 216.186L364.564 220.135ZM374.725 214.463V215.383H374.525C373.682 215.398 373.01 215.648 372.51 216.133C372.01 216.617 371.721 217.299 371.643 218.178C372.092 217.662 372.705 217.404 373.482 217.404C374.225 217.404 374.816 217.666 375.258 218.189C375.703 218.713 375.926 219.389 375.926 220.217C375.926 221.096 375.686 221.799 375.205 222.326C374.729 222.854 374.088 223.117 373.283 223.117C372.467 223.117 371.805 222.805 371.297 222.18C370.789 221.551 370.535 220.742 370.535 219.754V219.338C370.535 217.768 370.869 216.568 371.537 215.74C372.209 214.908 373.207 214.482 374.531 214.463H374.725ZM373.301 218.307C372.93 218.307 372.588 218.418 372.275 218.641C371.963 218.863 371.746 219.143 371.625 219.479V219.877C371.625 220.58 371.783 221.146 372.1 221.576C372.416 222.006 372.811 222.221 373.283 222.221C373.771 222.221 374.154 222.041 374.432 221.682C374.713 221.322 374.854 220.852 374.854 220.27C374.854 219.684 374.711 219.211 374.426 218.852C374.145 218.488 373.77 218.307 373.301 218.307Z" fill="#767676"/>
<path d="M344.725 145H343.635V137.775L341.449 138.578V137.594L344.555 136.428H344.725V145ZM353.25 141.361C353.25 142.631 353.033 143.574 352.6 144.191C352.166 144.809 351.488 145.117 350.566 145.117C349.656 145.117 348.982 144.816 348.545 144.215C348.107 143.609 347.881 142.707 347.865 141.508V140.061C347.865 138.807 348.082 137.875 348.516 137.266C348.949 136.656 349.629 136.352 350.555 136.352C351.473 136.352 352.148 136.646 352.582 137.236C353.016 137.822 353.238 138.729 353.25 139.955V141.361ZM352.166 139.879C352.166 138.961 352.037 138.293 351.779 137.875C351.521 137.453 351.113 137.242 350.555 137.242C350 137.242 349.596 137.451 349.342 137.869C349.088 138.287 348.957 138.93 348.949 139.797V141.531C348.949 142.453 349.082 143.135 349.348 143.576C349.617 144.014 350.023 144.232 350.566 144.232C351.102 144.232 351.498 144.025 351.756 143.611C352.018 143.197 352.154 142.545 352.166 141.654V139.879ZM354.715 146.699L354.1 146.277C354.467 145.766 354.658 145.238 354.674 144.695V143.717H355.734V144.566C355.734 144.961 355.637 145.355 355.441 145.75C355.25 146.145 355.008 146.461 354.715 146.699ZM357.492 140.723L357.926 136.469H362.297V137.471H358.846L358.588 139.797C359.006 139.551 359.48 139.428 360.012 139.428C360.789 139.428 361.406 139.686 361.863 140.201C362.32 140.713 362.549 141.406 362.549 142.281C362.549 143.16 362.311 143.854 361.834 144.361C361.361 144.865 360.699 145.117 359.848 145.117C359.094 145.117 358.478 144.908 358.002 144.49C357.525 144.072 357.254 143.494 357.187 142.756H358.213C358.279 143.244 358.453 143.613 358.734 143.863C359.016 144.109 359.387 144.232 359.848 144.232C360.352 144.232 360.746 144.061 361.031 143.717C361.32 143.373 361.465 142.898 361.465 142.293C361.465 141.723 361.309 141.266 360.996 140.922C360.687 140.574 360.275 140.4 359.76 140.4C359.287 140.4 358.916 140.504 358.646 140.711L358.359 140.945L357.492 140.723ZM369.082 141.361C369.082 142.631 368.865 143.574 368.432 144.191C367.998 144.809 367.32 145.117 366.398 145.117C365.488 145.117 364.814 144.816 364.377 144.215C363.939 143.609 363.713 142.707 363.697 141.508V140.061C363.697 138.807 363.914 137.875 364.348 137.266C364.781 136.656 365.461 136.352 366.387 136.352C367.305 136.352 367.98 136.646 368.414 137.236C368.848 137.822 369.07 138.729 369.082 139.955V141.361ZM367.998 139.879C367.998 138.961 367.869 138.293 367.611 137.875C367.353 137.453 366.945 137.242 366.387 137.242C365.832 137.242 365.428 137.451 365.174 137.869C364.92 138.287 364.789 138.93 364.781 139.797V141.531C364.781 142.453 364.914 143.135 365.18 143.576C365.449 144.014 365.855 144.232 366.398 144.232C366.934 144.232 367.33 144.025 367.588 143.611C367.85 143.197 367.986 142.545 367.998 141.654V139.879ZM375.82 141.361C375.82 142.631 375.603 143.574 375.17 144.191C374.736 144.809 374.059 145.117 373.137 145.117C372.227 145.117 371.553 144.816 371.115 144.215C370.678 143.609 370.451 142.707 370.436 141.508V140.061C370.436 138.807 370.652 137.875 371.086 137.266C371.52 136.656 372.199 136.352 373.125 136.352C374.043 136.352 374.719 136.646 375.152 137.236C375.586 137.822 375.809 138.729 375.82 139.955V141.361ZM374.736 139.879C374.736 138.961 374.607 138.293 374.35 137.875C374.092 137.453 373.684 137.242 373.125 137.242C372.57 137.242 372.166 137.451 371.912 137.869C371.658 138.287 371.527 138.93 371.52 139.797V141.531C371.52 142.453 371.652 143.135 371.918 143.576C372.187 144.014 372.594 144.232 373.137 144.232C373.672 144.232 374.068 144.025 374.326 143.611C374.588 143.197 374.725 142.545 374.736 141.654V139.879Z" fill="#767676"/>
<path d="M352.477 194.135H353.66V195.02H352.477V197H351.387V195.02H347.502V194.381L351.322 188.469H352.477V194.135ZM348.732 194.135H351.387V189.951L351.258 190.186L348.732 194.135ZM354.715 198.699L354.1 198.277C354.467 197.766 354.658 197.238 354.674 196.695V195.717H355.734V196.566C355.734 196.961 355.637 197.355 355.441 197.75C355.25 198.145 355.008 198.461 354.715 198.699ZM361.248 188.463V189.383H361.049C360.205 189.398 359.533 189.648 359.033 190.133C358.533 190.617 358.244 191.299 358.166 192.178C358.615 191.662 359.229 191.404 360.006 191.404C360.748 191.404 361.34 191.666 361.781 192.189C362.227 192.713 362.449 193.389 362.449 194.217C362.449 195.096 362.209 195.799 361.729 196.326C361.252 196.854 360.611 197.117 359.807 197.117C358.99 197.117 358.328 196.805 357.82 196.18C357.312 195.551 357.059 194.742 357.059 193.754V193.338C357.059 191.768 357.393 190.568 358.061 189.74C358.732 188.908 359.73 188.482 361.055 188.463H361.248ZM359.824 192.307C359.453 192.307 359.111 192.418 358.799 192.641C358.486 192.863 358.27 193.143 358.148 193.479V193.877C358.148 194.58 358.307 195.146 358.623 195.576C358.939 196.006 359.334 196.221 359.807 196.221C360.295 196.221 360.678 196.041 360.955 195.682C361.236 195.322 361.377 194.852 361.377 194.27C361.377 193.684 361.234 193.211 360.949 192.852C360.668 192.488 360.293 192.307 359.824 192.307ZM368.906 190.695C368.906 191.121 368.793 191.5 368.566 191.832C368.344 192.164 368.041 192.424 367.658 192.611C368.104 192.803 368.455 193.082 368.713 193.449C368.975 193.816 369.105 194.232 369.105 194.697C369.105 195.436 368.855 196.023 368.355 196.461C367.859 196.898 367.205 197.117 366.393 197.117C365.572 197.117 364.914 196.898 364.418 196.461C363.926 196.02 363.68 195.432 363.68 194.697C363.68 194.236 363.805 193.82 364.055 193.449C364.309 193.078 364.658 192.797 365.104 192.605C364.725 192.418 364.426 192.158 364.207 191.826C363.988 191.494 363.879 191.117 363.879 190.695C363.879 189.977 364.109 189.406 364.57 188.984C365.031 188.562 365.639 188.352 366.393 188.352C367.143 188.352 367.748 188.562 368.209 188.984C368.674 189.406 368.906 189.977 368.906 190.695ZM368.021 194.674C368.021 194.197 367.869 193.809 367.564 193.508C367.264 193.207 366.869 193.057 366.381 193.057C365.893 193.057 365.5 193.205 365.203 193.502C364.91 193.799 364.764 194.189 364.764 194.674C364.764 195.158 364.906 195.539 365.191 195.816C365.48 196.094 365.881 196.232 366.393 196.232C366.9 196.232 367.299 196.094 367.588 195.816C367.877 195.535 368.021 195.154 368.021 194.674ZM366.393 189.242C365.967 189.242 365.621 189.375 365.355 189.641C365.094 189.902 364.963 190.26 364.963 190.713C364.963 191.146 365.092 191.498 365.35 191.768C365.611 192.033 365.959 192.166 366.393 192.166C366.826 192.166 367.172 192.033 367.43 191.768C367.691 191.498 367.822 191.146 367.822 190.713C367.822 190.279 367.688 189.926 367.418 189.652C367.148 189.379 366.807 189.242 366.393 189.242ZM374.033 197H372.943V189.775L370.758 190.578V189.594L373.863 188.428H374.033V197Z" fill="#767676"/>
<path d="M351.463 249H350.373V241.775L348.188 242.578V241.594L351.293 240.428H351.463V249ZM354.715 250.699L354.1 250.277C354.467 249.766 354.658 249.238 354.674 248.695V247.717H355.734V248.566C355.734 248.961 355.637 249.355 355.441 249.75C355.25 250.145 355.008 250.461 354.715 250.699ZM358.57 244.207H359.385C359.896 244.199 360.299 244.064 360.592 243.803C360.885 243.541 361.031 243.188 361.031 242.742C361.031 241.742 360.533 241.242 359.537 241.242C359.068 241.242 358.693 241.377 358.412 241.646C358.135 241.912 357.996 242.266 357.996 242.707H356.912C356.912 242.031 357.158 241.471 357.65 241.025C358.146 240.576 358.775 240.352 359.537 240.352C360.342 240.352 360.973 240.564 361.43 240.99C361.887 241.416 362.115 242.008 362.115 242.766C362.115 243.137 361.994 243.496 361.752 243.844C361.514 244.191 361.188 244.451 360.773 244.623C361.242 244.771 361.604 245.018 361.857 245.361C362.115 245.705 362.244 246.125 362.244 246.621C362.244 247.387 361.994 247.994 361.494 248.443C360.994 248.893 360.344 249.117 359.543 249.117C358.742 249.117 358.09 248.9 357.586 248.467C357.086 248.033 356.836 247.461 356.836 246.75H357.926C357.926 247.199 358.072 247.559 358.365 247.828C358.658 248.098 359.051 248.232 359.543 248.232C360.066 248.232 360.467 248.096 360.744 247.822C361.021 247.549 361.16 247.156 361.16 246.645C361.16 246.148 361.008 245.768 360.703 245.502C360.398 245.236 359.959 245.1 359.385 245.092H358.57V244.207ZM369.082 245.361C369.082 246.631 368.865 247.574 368.432 248.191C367.998 248.809 367.32 249.117 366.398 249.117C365.488 249.117 364.814 248.816 364.377 248.215C363.939 247.609 363.713 246.707 363.697 245.508V244.061C363.697 242.807 363.914 241.875 364.348 241.266C364.781 240.656 365.461 240.352 366.387 240.352C367.305 240.352 367.98 240.646 368.414 241.236C368.848 241.822 369.07 242.729 369.082 243.955V245.361ZM367.998 243.879C367.998 242.961 367.869 242.293 367.611 241.875C367.354 241.453 366.945 241.242 366.387 241.242C365.832 241.242 365.428 241.451 365.174 241.869C364.92 242.287 364.789 242.93 364.781 243.797V245.531C364.781 246.453 364.914 247.135 365.18 247.576C365.449 248.014 365.855 248.232 366.398 248.232C366.934 248.232 367.33 248.025 367.588 247.611C367.85 247.197 367.986 246.545 367.998 245.654V243.879ZM375.82 245.361C375.82 246.631 375.604 247.574 375.17 248.191C374.736 248.809 374.059 249.117 373.137 249.117C372.227 249.117 371.553 248.816 371.115 248.215C370.678 247.609 370.451 246.707 370.436 245.508V244.061C370.436 242.807 370.652 241.875 371.086 241.266C371.52 240.656 372.199 240.352 373.125 240.352C374.043 240.352 374.719 240.646 375.152 241.236C375.586 241.822 375.809 242.729 375.82 243.955V245.361ZM374.736 243.879C374.736 242.961 374.607 242.293 374.35 241.875C374.092 241.453 373.684 241.242 373.125 241.242C372.57 241.242 372.166 241.451 371.912 241.869C371.658 242.287 371.527 242.93 371.52 243.797V245.531C371.52 246.453 371.652 247.135 371.918 247.576C372.188 248.014 372.594 248.232 373.137 248.232C373.672 248.232 374.068 248.025 374.326 247.611C374.588 247.197 374.725 246.545 374.736 245.654V243.879Z" fill="#767676"/>
<path d="M329.672 270.207H330.486C330.998 270.199 331.4 270.064 331.693 269.803C331.986 269.541 332.133 269.188 332.133 268.742C332.133 267.742 331.635 267.242 330.639 267.242C330.17 267.242 329.795 267.377 329.514 267.646C329.236 267.912 329.098 268.266 329.098 268.707H328.014C328.014 268.031 328.26 267.471 328.752 267.025C329.248 266.576 329.877 266.352 330.639 266.352C331.443 266.352 332.074 266.564 332.531 266.99C332.988 267.416 333.217 268.008 333.217 268.766C333.217 269.137 333.096 269.496 332.854 269.844C332.615 270.191 332.289 270.451 331.875 270.623C332.344 270.771 332.705 271.018 332.959 271.361C333.217 271.705 333.346 272.125 333.346 272.621C333.346 273.387 333.096 273.994 332.596 274.443C332.096 274.893 331.445 275.117 330.645 275.117C329.844 275.117 329.191 274.9 328.688 274.467C328.188 274.033 327.938 273.461 327.938 272.75H329.027C329.027 273.199 329.174 273.559 329.467 273.828C329.76 274.098 330.152 274.232 330.645 274.232C331.168 274.232 331.568 274.096 331.846 273.822C332.123 273.549 332.262 273.156 332.262 272.645C332.262 272.148 332.109 271.768 331.805 271.502C331.5 271.236 331.061 271.1 330.486 271.092H329.672V270.207ZM334.91 276.699L334.295 276.277C334.662 275.766 334.854 275.238 334.869 274.695V273.717H335.93V274.566C335.93 274.961 335.832 275.355 335.637 275.75C335.445 276.145 335.203 276.461 334.91 276.699ZM337.688 270.723L338.121 266.469H342.492V267.471H339.041L338.783 269.797C339.201 269.551 339.676 269.428 340.207 269.428C340.984 269.428 341.602 269.686 342.059 270.201C342.516 270.713 342.744 271.406 342.744 272.281C342.744 273.16 342.506 273.854 342.029 274.361C341.557 274.865 340.895 275.117 340.043 275.117C339.289 275.117 338.674 274.908 338.197 274.49C337.721 274.072 337.449 273.494 337.383 272.756H338.408C338.475 273.244 338.648 273.613 338.93 273.863C339.211 274.109 339.582 274.232 340.043 274.232C340.547 274.232 340.941 274.061 341.227 273.717C341.516 273.373 341.66 272.898 341.66 272.293C341.66 271.723 341.504 271.266 341.191 270.922C340.883 270.574 340.471 270.4 339.955 270.4C339.482 270.4 339.111 270.504 338.842 270.711L338.555 270.945L337.688 270.723ZM349.277 271.361C349.277 272.631 349.061 273.574 348.627 274.191C348.193 274.809 347.516 275.117 346.594 275.117C345.684 275.117 345.01 274.816 344.572 274.215C344.135 273.609 343.908 272.707 343.893 271.508V270.061C343.893 268.807 344.109 267.875 344.543 267.266C344.977 266.656 345.656 266.352 346.582 266.352C347.5 266.352 348.176 266.646 348.609 267.236C349.043 267.822 349.266 268.729 349.277 269.955V271.361ZM348.193 269.879C348.193 268.961 348.064 268.293 347.807 267.875C347.549 267.453 347.141 267.242 346.582 267.242C346.027 267.242 345.623 267.451 345.369 267.869C345.115 268.287 344.984 268.93 344.977 269.797V271.531C344.977 272.453 345.109 273.135 345.375 273.576C345.645 274.014 346.051 274.232 346.594 274.232C347.129 274.232 347.525 274.025 347.783 273.611C348.045 273.197 348.182 272.545 348.193 271.654V269.879ZM352.242 270.207H353.057C353.568 270.199 353.971 270.064 354.264 269.803C354.557 269.541 354.703 269.188 354.703 268.742C354.703 267.742 354.205 267.242 353.209 267.242C352.74 267.242 352.365 267.377 352.084 267.646C351.807 267.912 351.668 268.266 351.668 268.707H350.584C350.584 268.031 350.83 267.471 351.322 267.025C351.818 266.576 352.447 266.352 353.209 266.352C354.014 266.352 354.645 266.564 355.102 266.99C355.559 267.416 355.787 268.008 355.787 268.766C355.787 269.137 355.666 269.496 355.424 269.844C355.186 270.191 354.859 270.451 354.445 270.623C354.914 270.771 355.275 271.018 355.529 271.361C355.787 271.705 355.916 272.125 355.916 272.621C355.916 273.387 355.666 273.994 355.166 274.443C354.666 274.893 354.016 275.117 353.215 275.117C352.414 275.117 351.762 274.9 351.258 274.467C350.758 274.033 350.508 273.461 350.508 272.75H351.598C351.598 273.199 351.744 273.559 352.037 273.828C352.33 274.098 352.723 274.232 353.215 274.232C353.738 274.232 354.139 274.096 354.416 273.822C354.693 273.549 354.832 273.156 354.832 272.645C354.832 272.148 354.68 271.768 354.375 271.502C354.07 271.236 353.631 271.1 353.057 271.092H352.242V270.207ZM357.539 274.432C357.539 274.244 357.594 274.088 357.703 273.963C357.816 273.838 357.984 273.775 358.207 273.775C358.43 273.775 358.598 273.838 358.711 273.963C358.828 274.088 358.887 274.244 358.887 274.432C358.887 274.611 358.828 274.762 358.711 274.883C358.598 275.004 358.43 275.064 358.207 275.064C357.984 275.064 357.816 275.004 357.703 274.883C357.594 274.762 357.539 274.611 357.539 274.432ZM360.703 274.432C360.703 274.244 360.758 274.088 360.867 273.963C360.98 273.838 361.148 273.775 361.371 273.775C361.594 273.775 361.762 273.838 361.875 273.963C361.992 274.088 362.051 274.244 362.051 274.432C362.051 274.611 361.992 274.762 361.875 274.883C361.762 275.004 361.594 275.064 361.371 275.064C361.148 275.064 360.98 275.004 360.867 274.883C360.758 274.762 360.703 274.611 360.703 274.432ZM364.23 270.723L364.664 266.469H369.035V267.471H365.584L365.326 269.797C365.744 269.551 366.219 269.428 366.75 269.428C367.527 269.428 368.145 269.686 368.602 270.201C369.059 270.713 369.287 271.406 369.287 272.281C369.287 273.16 369.049 273.854 368.572 274.361C368.1 274.865 367.438 275.117 366.586 275.117C365.832 275.117 365.217 274.908 364.74 274.49C364.264 274.072 363.992 273.494 363.926 272.756H364.951C365.018 273.244 365.191 273.613 365.473 273.863C365.754 274.109 366.125 274.232 366.586 274.232C367.09 274.232 367.484 274.061 367.77 273.717C368.059 273.373 368.203 272.898 368.203 272.293C368.203 271.723 368.047 271.266 367.734 270.922C367.426 270.574 367.014 270.4 366.498 270.4C366.025 270.4 365.654 270.504 365.385 270.711L365.098 270.945L364.23 270.723ZM375.979 267.078L372.445 275H371.309L374.83 267.359H370.213V266.469H375.979V267.078Z" fill="#767676"/>
<path d="M250.406 92H244.192V90.9399L247.271 87.582C247.715 87.0869 248.03 86.6743 248.216 86.3442C248.407 86.0099 248.502 85.6756 248.502 85.3413C248.502 84.9012 248.377 84.5457 248.127 84.2749C247.882 84.0041 247.55 83.8687 247.131 83.8687C246.632 83.8687 246.244 84.021 245.969 84.3257C245.694 84.6304 245.557 85.0472 245.557 85.5762H244.014C244.014 85.0133 244.141 84.5076 244.395 84.0591C244.653 83.6063 245.019 83.255 245.493 83.0054C245.971 82.7557 246.521 82.6309 247.144 82.6309C248.041 82.6309 248.747 82.8573 249.264 83.3101C249.784 83.7586 250.044 84.3807 250.044 85.1763C250.044 85.6375 249.913 86.1221 249.651 86.6299C249.393 87.1335 248.967 87.7069 248.375 88.3501L246.115 90.7686H250.406V92ZM257.604 88.1089C257.604 89.4377 257.355 90.4406 256.855 91.1177C256.36 91.7905 255.605 92.127 254.589 92.127C253.591 92.127 252.837 91.799 252.33 91.1431C251.826 90.4829 251.568 89.5075 251.555 88.2168V86.6172C251.555 85.2884 251.803 84.2918 252.298 83.6274C252.797 82.9631 253.557 82.6309 254.577 82.6309C255.588 82.6309 256.341 82.9546 256.836 83.6021C257.336 84.2495 257.592 85.2186 257.604 86.5093V88.1089ZM256.062 86.3823C256.062 85.5148 255.944 84.88 255.707 84.478C255.47 84.0718 255.093 83.8687 254.577 83.8687C254.073 83.8687 253.703 84.0612 253.466 84.4463C253.229 84.8271 253.104 85.4238 253.091 86.2363V88.3311C253.091 89.1943 253.212 89.8376 253.453 90.2607C253.694 90.6839 254.073 90.8955 254.589 90.8955C255.084 90.8955 255.451 90.7008 255.688 90.3115C255.924 89.918 256.049 89.3044 256.062 88.4707V86.3823ZM265.184 92H258.969V90.9399L262.048 87.582C262.492 87.0869 262.807 86.6743 262.994 86.3442C263.184 86.0099 263.279 85.6756 263.279 85.3413C263.279 84.9012 263.154 84.5457 262.905 84.2749C262.659 84.0041 262.327 83.8687 261.908 83.8687C261.409 83.8687 261.022 84.021 260.747 84.3257C260.472 84.6304 260.334 85.0472 260.334 85.5762H258.792C258.792 85.0133 258.918 84.5076 259.172 84.0591C259.431 83.6063 259.797 83.255 260.271 83.0054C260.749 82.7557 261.299 82.6309 261.921 82.6309C262.818 82.6309 263.525 82.8573 264.041 83.3101C264.562 83.7586 264.822 84.3807 264.822 85.1763C264.822 85.6375 264.691 86.1221 264.428 86.6299C264.17 87.1335 263.745 87.7069 263.152 88.3501L260.893 90.7686H265.184V92ZM270.535 92H268.999V84.5796L266.732 85.354V84.0527L270.338 82.7261H270.535V92ZM276.838 88.6929H273.505V87.4487H276.838V88.6929ZM282.189 92H280.653V84.5796L278.387 85.354V84.0527L281.992 82.7261H282.189V92ZM291.425 88.1089C291.425 89.4377 291.175 90.4406 290.676 91.1177C290.181 91.7905 289.425 92.127 288.41 92.127C287.411 92.127 286.658 91.799 286.15 91.1431C285.646 90.4829 285.388 89.5075 285.375 88.2168V86.6172C285.375 85.2884 285.623 84.2918 286.118 83.6274C286.618 82.9631 287.377 82.6309 288.397 82.6309C289.408 82.6309 290.162 82.9546 290.657 83.6021C291.156 84.2495 291.412 85.2186 291.425 86.5093V88.1089ZM289.882 86.3823C289.882 85.5148 289.764 84.88 289.527 84.478C289.29 84.0718 288.913 83.8687 288.397 83.8687C287.893 83.8687 287.523 84.0612 287.286 84.4463C287.049 84.8271 286.924 85.4238 286.912 86.2363V88.3311C286.912 89.1943 287.032 89.8376 287.273 90.2607C287.515 90.6839 287.893 90.8955 288.41 90.8955C288.905 90.8955 289.271 90.7008 289.508 90.3115C289.745 89.918 289.87 89.3044 289.882 88.4707V86.3823ZM295.881 88.6929H292.548V87.4487H295.881V88.6929ZM301.232 92H299.696V84.5796L297.43 85.354V84.0527L301.035 82.7261H301.232V92ZM306.228 86.6743H307.167C307.641 86.6701 308.015 86.5474 308.291 86.3062C308.57 86.0649 308.709 85.7158 308.709 85.2588C308.709 84.8187 308.593 84.478 308.36 84.2368C308.132 83.9914 307.781 83.8687 307.307 83.8687C306.892 83.8687 306.551 83.9893 306.285 84.2305C306.018 84.4674 305.885 84.7785 305.885 85.1636H304.342C304.342 84.6896 304.467 84.258 304.717 83.8687C304.971 83.4793 305.322 83.1768 305.771 82.9609C306.223 82.7409 306.729 82.6309 307.288 82.6309C308.21 82.6309 308.934 82.8636 309.458 83.3291C309.987 83.7904 310.252 84.4336 310.252 85.2588C310.252 85.6735 310.119 86.0649 309.852 86.4331C309.59 86.797 309.249 87.0721 308.83 87.2583C309.338 87.4318 309.723 87.7048 309.985 88.0771C310.252 88.4495 310.385 88.8939 310.385 89.4102C310.385 90.2396 310.1 90.8997 309.528 91.3906C308.961 91.8815 308.214 92.127 307.288 92.127C306.399 92.127 305.671 91.89 305.104 91.416C304.537 90.9421 304.253 90.3115 304.253 89.5244H305.796C305.796 89.9307 305.931 90.2607 306.202 90.5146C306.477 90.7686 306.845 90.8955 307.307 90.8955C307.785 90.8955 308.161 90.7686 308.437 90.5146C308.712 90.2607 308.849 89.8926 308.849 89.4102C308.849 88.9235 308.705 88.549 308.417 88.2866C308.13 88.0243 307.702 87.8931 307.135 87.8931H306.228V86.6743Z" fill="black"/>
<defs>
<filter id="filter0_d_489_1434" x="213.5" y="48" width="203" height="270" filterUnits="userSpaceOnUse" color-interpolation-filters="sRGB">
<feFlood flood-opacity="0" result="BackgroundImageFix"/>
<feColorMatrix in="SourceAlpha" type="matrix" values="0 0 0 0 0 0 0 0 0 0 0 0 0 0 0 0 0 0 127 0" result="hardAlpha"/>
<feOffset dx="5" dy="5"/>
<feGaussianBlur stdDeviation="10"/>
<feComposite in2="hardAlpha" operator="out"/>
<feColorMatrix type="matrix" values="0 0 0 0 0.827451 0 0 0 0 0.576471 0 0 0 0 0.913725 0 0 0 0.27 0"/>
<feBlend mode="normal" in2="BackgroundImageFix" result="effect1_dropShadow_489_1434"/>
<feBlend mode="normal" in="SourceGraphic" in2="effect1_dropShadow_489_1434" result="shape"/>
</filter>
</defs>
</svg>
