<svg width="373" height="271" viewBox="0 0 373 271" fill="none" xmlns="http://www.w3.org/2000/svg">
<path d="M252.237 192.388C274.576 173.769 288.785 145.789 288.785 114.503C288.785 58.4445 243.166 13 186.892 13C130.619 13 84.9999 58.4445 84.9999 114.503C84.9999 145.789 99.2086 173.769 121.548 192.388" stroke="#FAFAFB" stroke-width="25" stroke-linecap="round"/>
<path d="M237.022 174.41C254.123 160.19 265 138.822 265 114.929C265 72.1162 230.078 37.4099 187 37.4099C143.922 37.4099 109 72.1162 109 114.929C109 138.822 119.877 160.19 136.978 174.41" stroke="#C4C4C4" stroke-linecap="round" stroke-dasharray="0.1 8"/>
<path fill-rule="evenodd" clip-rule="evenodd" d="M274.148 60.8144C270.466 62.6551 269.2 67.2645 271.108 70.9119C277.93 83.9567 281.785 98.7835 281.785 114.503C281.785 143.619 268.571 169.661 247.755 187.011C244.785 189.486 244.384 193.9 246.859 196.87C249.335 199.84 253.748 200.241 256.718 197.765C280.581 177.876 295.785 147.959 295.785 114.503C295.785 96.0601 291.168 78.6958 283.026 63.4919C281.322 60.3113 277.375 59.2008 274.148 60.8144Z" fill="url(#paint0_linear_491_1437)"/>
<path fill-rule="evenodd" clip-rule="evenodd" d="M272.028 54.938C269.175 58.6791 263.47 58.4873 260.491 54.8461C243.095 33.5848 216.594 20 186.893 20C151.357 20 120.402 39.4458 104.142 68.219C102.442 71.2269 98.9364 72.8121 95.6192 71.846C91.4727 70.6382 89.3515 66.0196 91.4406 62.2396C109.972 28.708 145.781 6 186.893 6C221.341 6 252.067 21.9445 272.025 46.8411C273.915 49.1991 273.861 52.5349 272.028 54.938Z" fill="url(#paint1_linear_491_1437)"/>
<path fill-rule="evenodd" clip-rule="evenodd" d="M83.3968 80.6715C84.444 77.4888 87.7493 75.6977 91.0354 76.3519C95.323 77.2056 97.7356 81.7779 96.4108 85.9441C93.5455 94.9554 92 104.55 92 114.503C92 143.619 105.213 169.661 126.03 187.011C129 189.486 129.401 193.9 126.926 196.87C124.45 199.84 120.036 200.24 117.067 197.765C93.2039 177.876 78 147.959 78 114.503C78 102.688 79.8945 91.3165 83.3968 80.6715Z" fill="url(#paint2_linear_491_1437)"/>
<circle cx="188" cy="114.41" r="8" fill="#F3F3F3"/>
<circle cx="188" cy="114.41" r="3" fill="#9EB8CB"/>
<path d="M188 114.41L216.5 48.4099" stroke="#9EB8CB" stroke-linecap="round"/>
<circle cx="218.5" cy="43.9099" r="1.5" fill="#F1B884"/>
<g filter="url(#filter0_d_491_1437)">
<rect x="143" y="180.41" width="89" height="25" rx="12.5" fill="#FFC375"/>
</g>
<path d="M185.491 188.123V189.399H185.3C184.437 189.412 183.747 189.649 183.231 190.11C182.715 190.571 182.408 191.225 182.311 192.072C182.806 191.551 183.438 191.291 184.208 191.291C185.025 191.291 185.668 191.579 186.138 192.154C186.612 192.73 186.849 193.472 186.849 194.382C186.849 195.322 186.572 196.083 186.018 196.667C185.467 197.247 184.744 197.537 183.847 197.537C182.924 197.537 182.175 197.196 181.6 196.515C181.028 195.834 180.743 194.941 180.743 193.836V193.309C180.743 191.689 181.136 190.419 181.923 189.501C182.715 188.582 183.851 188.123 185.332 188.123H185.491ZM183.834 192.535C183.495 192.535 183.184 192.63 182.901 192.821C182.622 193.011 182.416 193.265 182.285 193.582V194.052C182.285 194.738 182.429 195.283 182.717 195.69C183.005 196.092 183.377 196.293 183.834 196.293C184.291 196.293 184.653 196.121 184.919 195.779C185.186 195.436 185.319 194.985 185.319 194.427C185.319 193.868 185.184 193.413 184.913 193.062C184.642 192.711 184.283 192.535 183.834 192.535ZM194.231 189.025L190.537 197.41H188.918L192.606 189.406H187.827V188.168H194.231V189.025Z" fill="white"/>
<path d="M37.8203 256.547V261H36.3203V249.625H40.5156C41.7604 249.625 42.7344 249.943 43.4375 250.578C44.1458 251.214 44.5 252.055 44.5 253.102C44.5 254.206 44.1536 255.057 43.4609 255.656C42.7734 256.25 41.7865 256.547 40.5 256.547H37.8203ZM37.8203 255.32H40.5156C41.3177 255.32 41.9323 255.133 42.3594 254.758C42.7865 254.378 43 253.831 43 253.117C43 252.44 42.7865 251.898 42.3594 251.492C41.9323 251.086 41.3464 250.875 40.6016 250.859H37.8203V255.32ZM45.6953 256.695C45.6953 255.867 45.8568 255.122 46.1797 254.461C46.5078 253.799 46.9609 253.289 47.5391 252.93C48.1224 252.57 48.7865 252.391 49.5312 252.391C50.6823 252.391 51.612 252.789 52.3203 253.586C53.0339 254.383 53.3906 255.443 53.3906 256.766V256.867C53.3906 257.69 53.2318 258.43 52.9141 259.086C52.6016 259.737 52.151 260.245 51.5625 260.609C50.9792 260.974 50.3073 261.156 49.5469 261.156C48.401 261.156 47.4714 260.758 46.7578 259.961C46.0495 259.164 45.6953 258.109 45.6953 256.797V256.695ZM47.1484 256.867C47.1484 257.805 47.3646 258.557 47.7969 259.125C48.2344 259.693 48.8177 259.977 49.5469 259.977C50.2812 259.977 50.8646 259.69 51.2969 259.117C51.7292 258.539 51.9453 257.732 51.9453 256.695C51.9453 255.768 51.724 255.018 51.2812 254.445C50.8438 253.867 50.2604 253.578 49.5312 253.578C48.8177 253.578 48.2422 253.862 47.8047 254.43C47.3672 254.997 47.1484 255.81 47.1484 256.867ZM60.125 258.758C60.125 258.367 59.9766 258.065 59.6797 257.852C59.388 257.633 58.875 257.445 58.1406 257.289C57.4115 257.133 56.8307 256.945 56.3984 256.727C55.9714 256.508 55.6536 256.247 55.4453 255.945C55.2422 255.643 55.1406 255.284 55.1406 254.867C55.1406 254.174 55.4323 253.589 56.0156 253.109C56.6042 252.63 57.3542 252.391 58.2656 252.391C59.224 252.391 60 252.638 60.5938 253.133C61.1927 253.628 61.4922 254.26 61.4922 255.031H60.0391C60.0391 254.635 59.8698 254.294 59.5312 254.008C59.1979 253.721 58.776 253.578 58.2656 253.578C57.7396 253.578 57.3281 253.693 57.0312 253.922C56.7344 254.151 56.5859 254.451 56.5859 254.82C56.5859 255.169 56.724 255.432 57 255.609C57.276 255.786 57.7734 255.956 58.4922 256.117C59.2161 256.279 59.8021 256.471 60.25 256.695C60.6979 256.919 61.0286 257.19 61.2422 257.508C61.4609 257.82 61.5703 258.203 61.5703 258.656C61.5703 259.411 61.2682 260.018 60.6641 260.477C60.0599 260.93 59.276 261.156 58.3125 261.156C57.6354 261.156 57.0365 261.036 56.5156 260.797C55.9948 260.557 55.5859 260.224 55.2891 259.797C54.9974 259.365 54.8516 258.898 54.8516 258.398H56.2969C56.3229 258.883 56.5156 259.268 56.875 259.555C57.2396 259.836 57.7188 259.977 58.3125 259.977C58.8594 259.977 59.2969 259.867 59.625 259.648C59.9583 259.424 60.125 259.128 60.125 258.758ZM65.0234 261H63.5781V252.547H65.0234V261ZM63.4609 250.305C63.4609 250.07 63.5312 249.872 63.6719 249.711C63.8177 249.549 64.0312 249.469 64.3125 249.469C64.5938 249.469 64.8073 249.549 64.9531 249.711C65.099 249.872 65.1719 250.07 65.1719 250.305C65.1719 250.539 65.099 250.734 64.9531 250.891C64.8073 251.047 64.5938 251.125 64.3125 251.125C64.0312 251.125 63.8177 251.047 63.6719 250.891C63.5312 250.734 63.4609 250.539 63.4609 250.305ZM69.3047 250.5V252.547H70.8828V253.664H69.3047V258.906C69.3047 259.245 69.375 259.5 69.5156 259.672C69.6562 259.839 69.8958 259.922 70.2344 259.922C70.401 259.922 70.6302 259.891 70.9219 259.828V261C70.5417 261.104 70.1719 261.156 69.8125 261.156C69.1667 261.156 68.6797 260.961 68.3516 260.57C68.0234 260.18 67.8594 259.625 67.8594 258.906V253.664H66.3203V252.547H67.8594V250.5H69.3047ZM74.1484 261H72.7031V252.547H74.1484V261ZM72.5859 250.305C72.5859 250.07 72.6562 249.872 72.7969 249.711C72.9427 249.549 73.1562 249.469 73.4375 249.469C73.7188 249.469 73.9323 249.549 74.0781 249.711C74.224 249.872 74.2969 250.07 74.2969 250.305C74.2969 250.539 74.224 250.734 74.0781 250.891C73.9323 251.047 73.7188 251.125 73.4375 251.125C73.1562 251.125 72.9427 251.047 72.7969 250.891C72.6562 250.734 72.5859 250.539 72.5859 250.305ZM79.2578 259.039L81.3516 252.547H82.8281L79.7969 261H78.6953L75.6328 252.547H77.1094L79.2578 259.039ZM87.6172 261.156C86.4714 261.156 85.5391 260.781 84.8203 260.031C84.1016 259.276 83.7422 258.268 83.7422 257.008V256.742C83.7422 255.904 83.901 255.156 84.2188 254.5C84.5417 253.839 84.9896 253.323 85.5625 252.953C86.1406 252.578 86.7656 252.391 87.4375 252.391C88.5365 252.391 89.3906 252.753 90 253.477C90.6094 254.201 90.9141 255.237 90.9141 256.586V257.188H85.1875C85.2083 258.021 85.4505 258.695 85.9141 259.211C86.3828 259.721 86.9766 259.977 87.6953 259.977C88.2057 259.977 88.638 259.872 88.9922 259.664C89.3464 259.456 89.6562 259.18 89.9219 258.836L90.8047 259.523C90.0964 260.612 89.0339 261.156 87.6172 261.156ZM87.4375 253.578C86.8542 253.578 86.3646 253.792 85.9688 254.219C85.5729 254.641 85.3281 255.234 85.2344 256H89.4688V255.891C89.4271 255.156 89.2292 254.589 88.875 254.188C88.5208 253.781 88.0417 253.578 87.4375 253.578Z" fill="#767676"/>
<circle cx="12.5" cy="255.5" r="12.5" fill="#F2F2F2"/>
<circle cx="12.5" cy="255.5" r="5.5" fill="#88BD7F"/>
<path d="M185.062 261H183.555L177.828 252.234V261H176.32V249.625H177.828L183.57 258.43V249.625H185.062V261ZM191.008 261.156C189.862 261.156 188.93 260.781 188.211 260.031C187.492 259.276 187.133 258.268 187.133 257.008V256.742C187.133 255.904 187.292 255.156 187.609 254.5C187.932 253.839 188.38 253.323 188.953 252.953C189.531 252.578 190.156 252.391 190.828 252.391C191.927 252.391 192.781 252.753 193.391 253.477C194 254.201 194.305 255.237 194.305 256.586V257.188H188.578C188.599 258.021 188.841 258.695 189.305 259.211C189.773 259.721 190.367 259.977 191.086 259.977C191.596 259.977 192.029 259.872 192.383 259.664C192.737 259.456 193.047 259.18 193.312 258.836L194.195 259.523C193.487 260.612 192.424 261.156 191.008 261.156ZM190.828 253.578C190.245 253.578 189.755 253.792 189.359 254.219C188.964 254.641 188.719 255.234 188.625 256H192.859V255.891C192.818 255.156 192.62 254.589 192.266 254.188C191.911 253.781 191.432 253.578 190.828 253.578ZM201.203 260.164C200.641 260.826 199.815 261.156 198.727 261.156C197.826 261.156 197.138 260.896 196.664 260.375C196.195 259.849 195.958 259.073 195.953 258.047V252.547H197.398V258.008C197.398 259.289 197.919 259.93 198.961 259.93C200.065 259.93 200.799 259.518 201.164 258.695V252.547H202.609V261H201.234L201.203 260.164ZM206.773 250.5V252.547H208.352V253.664H206.773V258.906C206.773 259.245 206.844 259.5 206.984 259.672C207.125 259.839 207.365 259.922 207.703 259.922C207.87 259.922 208.099 259.891 208.391 259.828V261C208.01 261.104 207.641 261.156 207.281 261.156C206.635 261.156 206.148 260.961 205.82 260.57C205.492 260.18 205.328 259.625 205.328 258.906V253.664H203.789V252.547H205.328V250.5H206.773ZM214.133 253.844C213.914 253.807 213.677 253.789 213.422 253.789C212.474 253.789 211.831 254.193 211.492 255V261H210.047V252.547H211.453L211.477 253.523C211.951 252.768 212.622 252.391 213.492 252.391C213.773 252.391 213.987 252.427 214.133 252.5V253.844ZM220.375 261C220.292 260.833 220.224 260.536 220.172 260.109C219.5 260.807 218.698 261.156 217.766 261.156C216.932 261.156 216.247 260.922 215.711 260.453C215.18 259.979 214.914 259.38 214.914 258.656C214.914 257.776 215.247 257.094 215.914 256.609C216.586 256.12 217.529 255.875 218.742 255.875H220.148V255.211C220.148 254.706 219.997 254.305 219.695 254.008C219.393 253.706 218.948 253.555 218.359 253.555C217.844 253.555 217.411 253.685 217.062 253.945C216.714 254.206 216.539 254.521 216.539 254.891H215.086C215.086 254.469 215.234 254.062 215.531 253.672C215.833 253.276 216.24 252.964 216.75 252.734C217.266 252.505 217.831 252.391 218.445 252.391C219.419 252.391 220.182 252.635 220.734 253.125C221.286 253.609 221.573 254.279 221.594 255.133V259.023C221.594 259.799 221.693 260.417 221.891 260.875V261H220.375ZM217.977 259.898C218.43 259.898 218.859 259.781 219.266 259.547C219.672 259.312 219.966 259.008 220.148 258.633V256.898H219.016C217.245 256.898 216.359 257.417 216.359 258.453C216.359 258.906 216.51 259.26 216.812 259.516C217.115 259.771 217.503 259.898 217.977 259.898ZM225.43 261H223.984V249H225.43V261Z" fill="#767676"/>
<circle cx="152.5" cy="255.5" r="12.5" fill="#F2F2F2"/>
<circle cx="152.5" cy="255.5" r="5.5" fill="#F1B884"/>
<path d="M320.062 261H318.555L312.828 252.234V261H311.32V249.625H312.828L318.57 258.43V249.625H320.062V261ZM326.008 261.156C324.862 261.156 323.93 260.781 323.211 260.031C322.492 259.276 322.133 258.268 322.133 257.008V256.742C322.133 255.904 322.292 255.156 322.609 254.5C322.932 253.839 323.38 253.323 323.953 252.953C324.531 252.578 325.156 252.391 325.828 252.391C326.927 252.391 327.781 252.753 328.391 253.477C329 254.201 329.305 255.237 329.305 256.586V257.188H323.578C323.599 258.021 323.841 258.695 324.305 259.211C324.773 259.721 325.367 259.977 326.086 259.977C326.596 259.977 327.029 259.872 327.383 259.664C327.737 259.456 328.047 259.18 328.312 258.836L329.195 259.523C328.487 260.612 327.424 261.156 326.008 261.156ZM325.828 253.578C325.245 253.578 324.755 253.792 324.359 254.219C323.964 254.641 323.719 255.234 323.625 256H327.859V255.891C327.818 255.156 327.62 254.589 327.266 254.188C326.911 253.781 326.432 253.578 325.828 253.578ZM330.641 256.703C330.641 255.385 330.945 254.339 331.555 253.562C332.164 252.781 332.971 252.391 333.977 252.391C335.008 252.391 335.812 252.755 336.391 253.484L336.461 252.547H337.781V260.797C337.781 261.891 337.456 262.753 336.805 263.383C336.159 264.013 335.289 264.328 334.195 264.328C333.586 264.328 332.99 264.198 332.406 263.938C331.823 263.677 331.378 263.32 331.07 262.867L331.82 262C332.44 262.766 333.198 263.148 334.094 263.148C334.797 263.148 335.344 262.951 335.734 262.555C336.13 262.159 336.328 261.602 336.328 260.883V260.156C335.75 260.823 334.961 261.156 333.961 261.156C332.971 261.156 332.169 260.758 331.555 259.961C330.945 259.164 330.641 258.078 330.641 256.703ZM332.094 256.867C332.094 257.82 332.289 258.57 332.68 259.117C333.07 259.659 333.617 259.93 334.32 259.93C335.232 259.93 335.901 259.516 336.328 258.688V254.828C335.885 254.021 335.221 253.617 334.336 253.617C333.633 253.617 333.083 253.891 332.688 254.438C332.292 254.984 332.094 255.794 332.094 256.867ZM345.188 261C345.104 260.833 345.036 260.536 344.984 260.109C344.312 260.807 343.51 261.156 342.578 261.156C341.745 261.156 341.06 260.922 340.523 260.453C339.992 259.979 339.727 259.38 339.727 258.656C339.727 257.776 340.06 257.094 340.727 256.609C341.398 256.12 342.341 255.875 343.555 255.875H344.961V255.211C344.961 254.706 344.81 254.305 344.508 254.008C344.206 253.706 343.76 253.555 343.172 253.555C342.656 253.555 342.224 253.685 341.875 253.945C341.526 254.206 341.352 254.521 341.352 254.891H339.898C339.898 254.469 340.047 254.062 340.344 253.672C340.646 253.276 341.052 252.964 341.562 252.734C342.078 252.505 342.643 252.391 343.258 252.391C344.232 252.391 344.995 252.635 345.547 253.125C346.099 253.609 346.385 254.279 346.406 255.133V259.023C346.406 259.799 346.505 260.417 346.703 260.875V261H345.188ZM342.789 259.898C343.242 259.898 343.672 259.781 344.078 259.547C344.484 259.312 344.779 259.008 344.961 258.633V256.898H343.828C342.057 256.898 341.172 257.417 341.172 258.453C341.172 258.906 341.323 259.26 341.625 259.516C341.927 259.771 342.315 259.898 342.789 259.898ZM350.633 250.5V252.547H352.211V253.664H350.633V258.906C350.633 259.245 350.703 259.5 350.844 259.672C350.984 259.839 351.224 259.922 351.562 259.922C351.729 259.922 351.958 259.891 352.25 259.828V261C351.87 261.104 351.5 261.156 351.141 261.156C350.495 261.156 350.008 260.961 349.68 260.57C349.352 260.18 349.188 259.625 349.188 258.906V253.664H347.648V252.547H349.188V250.5H350.633ZM355.477 261H354.031V252.547H355.477V261ZM353.914 250.305C353.914 250.07 353.984 249.872 354.125 249.711C354.271 249.549 354.484 249.469 354.766 249.469C355.047 249.469 355.26 249.549 355.406 249.711C355.552 249.872 355.625 250.07 355.625 250.305C355.625 250.539 355.552 250.734 355.406 250.891C355.26 251.047 355.047 251.125 354.766 251.125C354.484 251.125 354.271 251.047 354.125 250.891C353.984 250.734 353.914 250.539 353.914 250.305ZM360.586 259.039L362.68 252.547H364.156L361.125 261H360.023L356.961 252.547H358.438L360.586 259.039ZM368.945 261.156C367.799 261.156 366.867 260.781 366.148 260.031C365.43 259.276 365.07 258.268 365.07 257.008V256.742C365.07 255.904 365.229 255.156 365.547 254.5C365.87 253.839 366.318 253.323 366.891 252.953C367.469 252.578 368.094 252.391 368.766 252.391C369.865 252.391 370.719 252.753 371.328 253.477C371.938 254.201 372.242 255.237 372.242 256.586V257.188H366.516C366.536 258.021 366.779 258.695 367.242 259.211C367.711 259.721 368.305 259.977 369.023 259.977C369.534 259.977 369.966 259.872 370.32 259.664C370.674 259.456 370.984 259.18 371.25 258.836L372.133 259.523C371.424 260.612 370.362 261.156 368.945 261.156ZM368.766 253.578C368.182 253.578 367.693 253.792 367.297 254.219C366.901 254.641 366.656 255.234 366.562 256H370.797V255.891C370.755 255.156 370.557 254.589 370.203 254.188C369.849 253.781 369.37 253.578 368.766 253.578Z" fill="#767676"/>
<circle cx="287.5" cy="255.5" r="12.5" fill="#F2F2F2"/>
<circle cx="287.5" cy="255.5" r="5.5" fill="#DD6363"/>
<defs>
<filter id="filter0_d_491_1437" x="128" y="165.41" width="129" height="65" filterUnits="userSpaceOnUse" color-interpolation-filters="sRGB">
<feFlood flood-opacity="0" result="BackgroundImageFix"/>
<feColorMatrix in="SourceAlpha" type="matrix" values="0 0 0 0 0 0 0 0 0 0 0 0 0 0 0 0 0 0 127 0" result="hardAlpha"/>
<feOffset dx="5" dy="5"/>
<feGaussianBlur stdDeviation="10"/>
<feComposite in2="hardAlpha" operator="out"/>
<feColorMatrix type="matrix" values="0 0 0 0 0.952941 0 0 0 0 0.952941 0 0 0 0 0.952941 0 0 0 1 0"/>
<feBlend mode="normal" in2="BackgroundImageFix" result="effect1_dropShadow_491_1437"/>
<feBlend mode="normal" in="SourceGraphic" in2="effect1_dropShadow_491_1437" result="shape"/>
</filter>
<linearGradient id="paint0_linear_491_1437" x1="296.019" y1="59.7001" x2="254.627" y2="200.552" gradientUnits="userSpaceOnUse">
<stop stop-color="#A4CD9D"/>
<stop offset="1" stop-color="#84BB7B"/>
</linearGradient>
<linearGradient id="paint1_linear_491_1437" x1="263.267" y1="39.0634" x2="90.6261" y2="39.0634" gradientUnits="userSpaceOnUse">
<stop stop-color="#FFC375"/>
<stop offset="1" stop-color="#FFD9A8"/>
</linearGradient>
<linearGradient id="paint2_linear_491_1437" x1="130.956" y1="76.2179" x2="80.4071" y2="76.2179" gradientUnits="userSpaceOnUse">
<stop stop-color="#E48686"/>
<stop offset="1" stop-color="#DB5E5E"/>
</linearGradient>
</defs>
</svg>
