<svg width="347" height="236" viewBox="0 0 347 236" fill="none" xmlns="http://www.w3.org/2000/svg">
<rect width="127" height="14" transform="translate(0 18)" fill="url(#paint0_linear_441_6035)"/>
<rect width="139" height="14" transform="translate(127 18)" fill="url(#paint1_linear_441_6035)"/>
<rect width="63" height="14" transform="translate(266 18)" fill="url(#paint2_linear_441_6035)"/>
<path d="M3.75977 4.83105C2.95573 4.59993 2.36979 4.31673 2.00195 3.98145C1.63737 3.6429 1.45508 3.22624 1.45508 2.73145C1.45508 2.17155 1.67806 1.70931 2.12402 1.34473C2.57324 0.976888 3.15592 0.792969 3.87207 0.792969C4.36035 0.792969 4.79492 0.88737 5.17578 1.07617C5.5599 1.26497 5.85612 1.52539 6.06445 1.85742C6.27604 2.18945 6.38184 2.55241 6.38184 2.94629H5.43945C5.43945 2.5166 5.30273 2.17969 5.0293 1.93555C4.75586 1.68815 4.37012 1.56445 3.87207 1.56445C3.40983 1.56445 3.0485 1.66699 2.78809 1.87207C2.53092 2.07389 2.40234 2.35547 2.40234 2.7168C2.40234 3.00651 2.52441 3.25228 2.76855 3.4541C3.01595 3.65267 3.43424 3.83496 4.02344 4.00098C4.61589 4.16699 5.07812 4.35091 5.41016 4.55273C5.74544 4.7513 5.99284 4.98405 6.15234 5.25098C6.3151 5.5179 6.39648 5.83203 6.39648 6.19336C6.39648 6.76953 6.17188 7.23177 5.72266 7.58008C5.27344 7.92513 4.67285 8.09766 3.9209 8.09766C3.43262 8.09766 2.97689 8.00488 2.55371 7.81934C2.13053 7.63053 1.80339 7.37337 1.57227 7.04785C1.3444 6.72233 1.23047 6.35286 1.23047 5.93945H2.17285C2.17285 6.36914 2.33073 6.70931 2.64648 6.95996C2.96549 7.20736 3.3903 7.33105 3.9209 7.33105C4.41569 7.33105 4.79492 7.23014 5.05859 7.02832C5.32227 6.8265 5.4541 6.55143 5.4541 6.20312C5.4541 5.85482 5.33203 5.58626 5.08789 5.39746C4.84375 5.2054 4.40104 5.0166 3.75977 4.83105ZM7.22168 5.30957C7.22168 4.79199 7.32259 4.3265 7.52441 3.91309C7.72949 3.49967 8.0127 3.18066 8.37402 2.95605C8.73861 2.73145 9.15365 2.61914 9.61914 2.61914C10.3385 2.61914 10.9196 2.86816 11.3623 3.36621C11.8083 3.86426 12.0312 4.52669 12.0312 5.35352V5.41699C12.0312 5.93132 11.932 6.39355 11.7334 6.80371C11.5381 7.21061 11.2565 7.52799 10.8887 7.75586C10.5241 7.98372 10.1042 8.09766 9.62891 8.09766C8.91276 8.09766 8.33171 7.84863 7.88574 7.35059C7.44303 6.85254 7.22168 6.19336 7.22168 5.37305V5.30957ZM8.12988 5.41699C8.12988 6.00293 8.26497 6.47331 8.53516 6.82812C8.80859 7.18294 9.17318 7.36035 9.62891 7.36035C10.0879 7.36035 10.4525 7.18132 10.7227 6.82324C10.9928 6.46191 11.1279 5.95736 11.1279 5.30957C11.1279 4.73014 10.9896 4.26139 10.7129 3.90332C10.4395 3.54199 10.0749 3.36133 9.61914 3.36133C9.17318 3.36133 8.81348 3.53874 8.54004 3.89355C8.2666 4.24837 8.12988 4.75618 8.12988 5.41699ZM12.9248 5.30957C12.9248 4.79199 13.0257 4.3265 13.2275 3.91309C13.4326 3.49967 13.7158 3.18066 14.0771 2.95605C14.4417 2.73145 14.8568 2.61914 15.3223 2.61914C16.0417 2.61914 16.6227 2.86816 17.0654 3.36621C17.5114 3.86426 17.7344 4.52669 17.7344 5.35352V5.41699C17.7344 5.93132 17.6351 6.39355 17.4365 6.80371C17.2412 7.21061 16.9596 7.52799 16.5918 7.75586C16.2272 7.98372 15.8073 8.09766 15.332 8.09766C14.6159 8.09766 14.0348 7.84863 13.5889 7.35059C13.1462 6.85254 12.9248 6.19336 12.9248 5.37305V5.30957ZM13.833 5.41699C13.833 6.00293 13.9681 6.47331 14.2383 6.82812C14.5117 7.18294 14.8763 7.36035 15.332 7.36035C15.791 7.36035 16.1556 7.18132 16.4258 6.82324C16.696 6.46191 16.8311 5.95736 16.8311 5.30957C16.8311 4.73014 16.6927 4.26139 16.416 3.90332C16.1426 3.54199 15.778 3.36133 15.3223 3.36133C14.8763 3.36133 14.5166 3.53874 14.2432 3.89355C13.9697 4.24837 13.833 4.75618 13.833 5.41699ZM19.7168 2.7168L19.7412 3.30273C20.1286 2.84701 20.651 2.61914 21.3086 2.61914C22.0475 2.61914 22.5505 2.90234 22.8174 3.46875C22.9932 3.21484 23.221 3.00977 23.501 2.85352C23.7842 2.69727 24.1178 2.61914 24.502 2.61914C25.6608 2.61914 26.25 3.23275 26.2695 4.45996V8H25.3662V4.51367C25.3662 4.13607 25.2799 3.85449 25.1074 3.66895C24.9349 3.48014 24.6452 3.38574 24.2383 3.38574C23.903 3.38574 23.6247 3.48665 23.4033 3.68848C23.182 3.88704 23.0534 4.1556 23.0176 4.49414V8H22.1094V4.53809C22.1094 3.76986 21.7334 3.38574 20.9814 3.38574C20.389 3.38574 19.9837 3.63802 19.7656 4.14258V8H18.8623V2.7168H19.7168ZM32.0996 5.41699C32.0996 6.22103 31.9157 6.86882 31.5479 7.36035C31.18 7.85189 30.682 8.09766 30.0537 8.09766C29.4124 8.09766 28.9079 7.89421 28.54 7.4873V10.0312H27.6367V2.7168H28.4619L28.5059 3.30273C28.8737 2.84701 29.3848 2.61914 30.0391 2.61914C30.6738 2.61914 31.1751 2.8584 31.543 3.33691C31.9141 3.81543 32.0996 4.48112 32.0996 5.33398V5.41699ZM31.1963 5.31445C31.1963 4.71875 31.0693 4.24837 30.8154 3.90332C30.5615 3.55827 30.2132 3.38574 29.7705 3.38574C29.2236 3.38574 28.8135 3.62826 28.54 4.11328V6.6377C28.8102 7.11947 29.2236 7.36035 29.7803 7.36035C30.2132 7.36035 30.5566 7.18945 30.8105 6.84766C31.0677 6.5026 31.1963 5.99154 31.1963 5.31445ZM34.2334 8H33.3301V2.7168H34.2334V8ZM33.2568 1.31543C33.2568 1.16895 33.3008 1.04525 33.3887 0.944336C33.4798 0.843424 33.6133 0.792969 33.7891 0.792969C33.9648 0.792969 34.0983 0.843424 34.1895 0.944336C34.2806 1.04525 34.3262 1.16895 34.3262 1.31543C34.3262 1.46191 34.2806 1.58398 34.1895 1.68164C34.0983 1.7793 33.9648 1.82812 33.7891 1.82812C33.6133 1.82812 33.4798 1.7793 33.3887 1.68164C33.3008 1.58398 33.2568 1.46191 33.2568 1.31543Z" fill="#767676"/>
<rect width="78" height="14" transform="translate(0 69)" fill="url(#paint3_linear_441_6035)"/>
<rect width="173" height="14" transform="translate(78 69)" fill="url(#paint4_linear_441_6035)"/>
<rect width="58" height="14" transform="translate(251 69)" fill="url(#paint5_linear_441_6035)"/>
<path d="M6.84961 59H5.90723L2.32812 53.5215V59H1.38574V51.8906H2.32812L5.91699 57.3936V51.8906H6.84961V59ZM12.5332 55.7139H9.45215V58.2334H13.0312V59H8.51465V51.8906H12.9824V52.6621H9.45215V54.9473H12.5332V55.7139ZM15.7314 56.7588L15.8682 57.6963L16.0684 56.8516L17.4746 51.8906H18.2656L19.6377 56.8516L19.833 57.7109L19.9844 56.7539L21.0879 51.8906H22.0303L20.3066 59H19.4521L17.9873 53.8193L17.875 53.2773L17.7627 53.8193L16.2441 59H15.3896L13.6709 51.8906H14.6084L15.7314 56.7588ZM25.1699 55.8311C24.3659 55.5999 23.7799 55.3167 23.4121 54.9814C23.0475 54.6429 22.8652 54.2262 22.8652 53.7314C22.8652 53.1715 23.0882 52.7093 23.5342 52.3447C23.9834 51.9769 24.5661 51.793 25.2822 51.793C25.7705 51.793 26.2051 51.8874 26.5859 52.0762C26.9701 52.265 27.2663 52.5254 27.4746 52.8574C27.6862 53.1895 27.792 53.5524 27.792 53.9463H26.8496C26.8496 53.5166 26.7129 53.1797 26.4395 52.9355C26.166 52.6882 25.7803 52.5645 25.2822 52.5645C24.82 52.5645 24.4587 52.667 24.1982 52.8721C23.9411 53.0739 23.8125 53.3555 23.8125 53.7168C23.8125 54.0065 23.9346 54.2523 24.1787 54.4541C24.4261 54.6527 24.8444 54.835 25.4336 55.001C26.026 55.167 26.4883 55.3509 26.8203 55.5527C27.1556 55.7513 27.403 55.984 27.5625 56.251C27.7253 56.5179 27.8066 56.832 27.8066 57.1934C27.8066 57.7695 27.582 58.2318 27.1328 58.5801C26.6836 58.9251 26.083 59.0977 25.3311 59.0977C24.8428 59.0977 24.387 59.0049 23.9639 58.8193C23.5407 58.6305 23.2135 58.3734 22.9824 58.0479C22.7546 57.7223 22.6406 57.3529 22.6406 56.9395H23.583C23.583 57.3691 23.7409 57.7093 24.0566 57.96C24.3757 58.2074 24.8005 58.3311 25.3311 58.3311C25.8258 58.3311 26.2051 58.2301 26.4688 58.0283C26.7324 57.8265 26.8643 57.5514 26.8643 57.2031C26.8643 56.8548 26.7422 56.5863 26.498 56.3975C26.2539 56.2054 25.8112 56.0166 25.1699 55.8311ZM33.0312 55.7139H29.9502V58.2334H33.5293V59H29.0127V51.8906H33.4805V52.6621H29.9502V54.9473H33.0312V55.7139ZM40.1602 59H39.2178L35.6387 53.5215V59H34.6963V51.8906H35.6387L39.2275 57.3936V51.8906H40.1602V59Z" fill="#767676"/>
<rect width="61" height="14" transform="translate(0 171)" fill="url(#paint6_linear_441_6035)"/>
<rect width="136" height="14" transform="translate(61 171)" fill="url(#paint7_linear_441_6035)"/>
<rect width="45" height="14" transform="translate(197 171)" fill="url(#paint8_linear_441_6035)"/>
<path d="M2.99316 157.46L4.84863 153.891H5.91309L3.46191 158.349V161H2.52441V158.349L0.0732422 153.891H1.14746L2.99316 157.46ZM11.8311 154.662H9.5459V161H8.61328V154.662H6.33301V153.891H11.8311V154.662ZM18.3496 161H17.4072L13.8281 155.521V161H12.8857V153.891H13.8281L17.417 159.394V153.891H18.3496V161Z" fill="#767676"/>
<rect width="72" height="14" transform="translate(0 120)" fill="url(#paint9_linear_441_6035)"/>
<rect width="148" height="14" transform="translate(72 120)" fill="url(#paint10_linear_441_6035)"/>
<rect width="57" height="14" transform="translate(220 120)" fill="url(#paint11_linear_441_6035)"/>
<path d="M2.74121 106.694L1.87207 107.598V110H0.93457V102.891H1.87207V106.406L5.03125 102.891H6.16406L3.36621 106.03L6.38379 110H5.26074L2.74121 106.694ZM6.68652 107.31C6.68652 106.792 6.78743 106.326 6.98926 105.913C7.19434 105.5 7.47754 105.181 7.83887 104.956C8.20345 104.731 8.61849 104.619 9.08398 104.619C9.80339 104.619 10.3844 104.868 10.8271 105.366C11.2731 105.864 11.4961 106.527 11.4961 107.354V107.417C11.4961 107.931 11.3968 108.394 11.1982 108.804C11.0029 109.211 10.7214 109.528 10.3535 109.756C9.98893 109.984 9.56901 110.098 9.09375 110.098C8.3776 110.098 7.79655 109.849 7.35059 109.351C6.90788 108.853 6.68652 108.193 6.68652 107.373V107.31ZM7.59473 107.417C7.59473 108.003 7.72982 108.473 8 108.828C8.27344 109.183 8.63802 109.36 9.09375 109.36C9.55273 109.36 9.91732 109.181 10.1875 108.823C10.4577 108.462 10.5928 107.957 10.5928 107.31C10.5928 106.73 10.4544 106.261 10.1777 105.903C9.9043 105.542 9.53971 105.361 9.08398 105.361C8.63802 105.361 8.27832 105.539 8.00488 105.894C7.73145 106.248 7.59473 106.756 7.59473 107.417ZM15.1826 105.527C15.0459 105.505 14.8978 105.493 14.7383 105.493C14.1458 105.493 13.7438 105.745 13.5322 106.25V110H12.6289V104.717H13.5078L13.5225 105.327C13.8187 104.855 14.2386 104.619 14.7822 104.619C14.958 104.619 15.0915 104.642 15.1826 104.688V105.527ZM18.1123 110.098C17.3962 110.098 16.8135 109.863 16.3643 109.395C15.915 108.923 15.6904 108.293 15.6904 107.505V107.339C15.6904 106.815 15.7897 106.348 15.9883 105.938C16.1901 105.524 16.4701 105.202 16.8281 104.971C17.1895 104.736 17.5801 104.619 18 104.619C18.6868 104.619 19.2207 104.845 19.6016 105.298C19.9824 105.75 20.1729 106.398 20.1729 107.241V107.617H16.5938C16.6068 108.138 16.7581 108.56 17.0479 108.882C17.3408 109.201 17.7119 109.36 18.1611 109.36C18.4801 109.36 18.7503 109.295 18.9717 109.165C19.193 109.035 19.3867 108.862 19.5527 108.647L20.1045 109.077C19.6618 109.757 18.9977 110.098 18.1123 110.098ZM18 105.361C17.6354 105.361 17.3294 105.495 17.082 105.762C16.8346 106.025 16.6816 106.396 16.623 106.875H19.2695V106.807C19.2435 106.348 19.1198 105.993 18.8984 105.742C18.6771 105.488 18.3776 105.361 18 105.361ZM24.4844 110C24.4323 109.896 24.39 109.71 24.3574 109.443C23.9375 109.88 23.4362 110.098 22.8535 110.098C22.3327 110.098 21.9046 109.951 21.5693 109.658C21.2373 109.362 21.0713 108.988 21.0713 108.535C21.0713 107.985 21.2796 107.559 21.6963 107.256C22.1162 106.95 22.7054 106.797 23.4639 106.797H24.3428V106.382C24.3428 106.066 24.2484 105.815 24.0596 105.63C23.8708 105.441 23.5924 105.347 23.2246 105.347C22.9023 105.347 22.6322 105.428 22.4141 105.591C22.196 105.754 22.0869 105.951 22.0869 106.182H21.1787C21.1787 105.918 21.2715 105.664 21.457 105.42C21.6458 105.173 21.8997 104.977 22.2188 104.834C22.541 104.691 22.8942 104.619 23.2783 104.619C23.887 104.619 24.3639 104.772 24.709 105.078C25.054 105.381 25.2331 105.799 25.2461 106.333V108.765C25.2461 109.25 25.3079 109.635 25.4316 109.922V110H24.4844ZM22.9854 109.312C23.2686 109.312 23.5371 109.238 23.791 109.092C24.0449 108.945 24.2288 108.755 24.3428 108.521V107.437H23.6348C22.528 107.437 21.9746 107.76 21.9746 108.408C21.9746 108.691 22.069 108.913 22.2578 109.072C22.4466 109.232 22.6891 109.312 22.9854 109.312ZM31.1348 107.417C31.1348 108.224 30.9492 108.874 30.5781 109.365C30.207 109.854 29.709 110.098 29.084 110.098C28.4167 110.098 27.9007 109.862 27.5361 109.39L27.4922 110H26.6621V102.5H27.5654V105.298C27.93 104.845 28.4329 104.619 29.0742 104.619C29.7155 104.619 30.2184 104.862 30.583 105.347C30.9508 105.832 31.1348 106.496 31.1348 107.339V107.417ZM30.2314 107.314C30.2314 106.699 30.1126 106.224 29.875 105.889C29.6374 105.553 29.2956 105.386 28.8496 105.386C28.2539 105.386 27.8258 105.662 27.5654 106.216V108.501C27.8421 109.054 28.2734 109.331 28.8594 109.331C29.2923 109.331 29.6292 109.163 29.8701 108.828C30.111 108.493 30.2314 107.988 30.2314 107.314ZM32.0381 107.31C32.0381 106.792 32.139 106.326 32.3408 105.913C32.5459 105.5 32.8291 105.181 33.1904 104.956C33.555 104.731 33.9701 104.619 34.4355 104.619C35.1549 104.619 35.736 104.868 36.1787 105.366C36.6247 105.864 36.8477 106.527 36.8477 107.354V107.417C36.8477 107.931 36.7484 108.394 36.5498 108.804C36.3545 109.211 36.0729 109.528 35.7051 109.756C35.3405 109.984 34.9206 110.098 34.4453 110.098C33.7292 110.098 33.1481 109.849 32.7021 109.351C32.2594 108.853 32.0381 108.193 32.0381 107.373V107.31ZM32.9463 107.417C32.9463 108.003 33.0814 108.473 33.3516 108.828C33.625 109.183 33.9896 109.36 34.4453 109.36C34.9043 109.36 35.2689 109.181 35.5391 108.823C35.8092 108.462 35.9443 107.957 35.9443 107.31C35.9443 106.73 35.806 106.261 35.5293 105.903C35.2559 105.542 34.8913 105.361 34.4355 105.361C33.9896 105.361 33.6299 105.539 33.3564 105.894C33.083 106.248 32.9463 106.756 32.9463 107.417ZM37.7412 107.31C37.7412 106.792 37.8421 106.326 38.0439 105.913C38.249 105.5 38.5322 105.181 38.8936 104.956C39.2581 104.731 39.6732 104.619 40.1387 104.619C40.8581 104.619 41.4391 104.868 41.8818 105.366C42.3278 105.864 42.5508 106.527 42.5508 107.354V107.417C42.5508 107.931 42.4515 108.394 42.2529 108.804C42.0576 109.211 41.776 109.528 41.4082 109.756C41.0436 109.984 40.6237 110.098 40.1484 110.098C39.4323 110.098 38.8512 109.849 38.4053 109.351C37.9626 108.853 37.7412 108.193 37.7412 107.373V107.31ZM38.6494 107.417C38.6494 108.003 38.7845 108.473 39.0547 108.828C39.3281 109.183 39.6927 109.36 40.1484 109.36C40.6074 109.36 40.972 109.181 41.2422 108.823C41.5124 108.462 41.6475 107.957 41.6475 107.31C41.6475 106.73 41.5091 106.261 41.2324 105.903C40.959 105.542 40.5944 105.361 40.1387 105.361C39.6927 105.361 39.333 105.539 39.0596 105.894C38.7861 106.248 38.6494 106.756 38.6494 107.417Z" fill="#767676"/>
<rect width="55" height="14" transform="translate(0 222)" fill="url(#paint12_linear_441_6035)"/>
<rect width="114" height="14" transform="translate(55 222)" fill="url(#paint13_linear_441_6035)"/>
<rect width="44" height="14" transform="translate(169 222)" fill="url(#paint14_linear_441_6035)"/>
<path d="M6.29395 208.675C6.29395 209.371 6.17676 209.98 5.94238 210.501C5.70801 211.019 5.37598 211.414 4.94629 211.688C4.5166 211.961 4.0153 212.098 3.44238 212.098C2.88249 212.098 2.38607 211.961 1.95312 211.688C1.52018 211.411 1.18327 211.019 0.942383 210.511C0.704753 210 0.582682 209.409 0.576172 208.738V208.226C0.576172 207.542 0.694987 206.938 0.932617 206.414C1.17025 205.89 1.50553 205.49 1.93848 205.213C2.37467 204.933 2.87272 204.793 3.43262 204.793C4.00228 204.793 4.50358 204.931 4.93652 205.208C5.37272 205.481 5.70801 205.88 5.94238 206.404C6.17676 206.925 6.29395 207.532 6.29395 208.226V208.675ZM5.36133 208.216C5.36133 207.373 5.19206 206.727 4.85352 206.277C4.51497 205.825 4.04134 205.599 3.43262 205.599C2.84017 205.599 2.37305 205.825 2.03125 206.277C1.69271 206.727 1.51855 207.352 1.50879 208.152V208.675C1.50879 209.492 1.67969 210.135 2.02148 210.604C2.36654 211.069 2.84017 211.302 3.44238 211.302C4.04785 211.302 4.5166 211.082 4.84863 210.643C5.18066 210.2 5.35156 209.567 5.36133 208.743V208.216ZM9.79492 208.831C8.99089 208.6 8.40495 208.317 8.03711 207.981C7.67253 207.643 7.49023 207.226 7.49023 206.731C7.49023 206.172 7.71322 205.709 8.15918 205.345C8.6084 204.977 9.19108 204.793 9.90723 204.793C10.3955 204.793 10.8301 204.887 11.2109 205.076C11.5951 205.265 11.8913 205.525 12.0996 205.857C12.3112 206.189 12.417 206.552 12.417 206.946H11.4746C11.4746 206.517 11.3379 206.18 11.0645 205.936C10.791 205.688 10.4053 205.564 9.90723 205.564C9.44499 205.564 9.08366 205.667 8.82324 205.872C8.56608 206.074 8.4375 206.355 8.4375 206.717C8.4375 207.007 8.55957 207.252 8.80371 207.454C9.05111 207.653 9.4694 207.835 10.0586 208.001C10.651 208.167 11.1133 208.351 11.4453 208.553C11.7806 208.751 12.028 208.984 12.1875 209.251C12.3503 209.518 12.4316 209.832 12.4316 210.193C12.4316 210.77 12.207 211.232 11.7578 211.58C11.3086 211.925 10.708 212.098 9.95605 212.098C9.46777 212.098 9.01204 212.005 8.58887 211.819C8.16569 211.631 7.83854 211.373 7.60742 211.048C7.37956 210.722 7.26562 210.353 7.26562 209.939H8.20801C8.20801 210.369 8.36589 210.709 8.68164 210.96C9.00065 211.207 9.42546 211.331 9.95605 211.331C10.4508 211.331 10.8301 211.23 11.0938 211.028C11.3574 210.826 11.4893 210.551 11.4893 210.203C11.4893 209.855 11.3672 209.586 11.123 209.397C10.8789 209.205 10.4362 209.017 9.79492 208.831ZM17.6562 208.714H14.5752V211.233H18.1543V212H13.6377V204.891H18.1055V205.662H14.5752V207.947H17.6562V208.714ZM24.7852 212H23.8428L20.2637 206.521V212H19.3213V204.891H20.2637L23.8525 210.394V204.891H24.7852V212Z" fill="#767676"/>
<defs>
<linearGradient id="paint0_linear_441_6035" x1="133.048" y1="-1.41717e-05" x2="6.04761" y2="-1.16474e-05" gradientUnits="userSpaceOnUse">
<stop stop-color="#DB5E5E"/>
<stop offset="1" stop-color="#DB5E5E" stop-opacity="0"/>
</linearGradient>
<linearGradient id="paint1_linear_441_6035" x1="131.278" y1="6.99981" x2="1.82445e-06" y2="6.99985" gradientUnits="userSpaceOnUse">
<stop stop-color="#FFC475"/>
<stop offset="1" stop-color="#FFD9A8"/>
</linearGradient>
<linearGradient id="paint2_linear_441_6035" x1="66" y1="-1.41717e-05" x2="3" y2="-1.35505e-05" gradientUnits="userSpaceOnUse">
<stop stop-color="#84BB7B"/>
<stop offset="1" stop-color="#A4CD9D"/>
</linearGradient>
<linearGradient id="paint3_linear_441_6035" x1="81.7143" y1="-1.41717e-05" x2="3.71428" y2="-1.32195e-05" gradientUnits="userSpaceOnUse">
<stop stop-color="#DB5E5E"/>
<stop offset="1" stop-color="#DB5E5E" stop-opacity="0"/>
</linearGradient>
<linearGradient id="paint4_linear_441_6035" x1="163.389" y1="6.99981" x2="2.27073e-06" y2="6.99986" gradientUnits="userSpaceOnUse">
<stop stop-color="#FFC475"/>
<stop offset="1" stop-color="#FFD9A8"/>
</linearGradient>
<linearGradient id="paint5_linear_441_6035" x1="60.7619" y1="-1.41717e-05" x2="2.7619" y2="-1.36452e-05" gradientUnits="userSpaceOnUse">
<stop stop-color="#84BB7B"/>
<stop offset="1" stop-color="#A4CD9D"/>
</linearGradient>
<linearGradient id="paint6_linear_441_6035" x1="63.9048" y1="-1.41717e-05" x2="2.90476" y2="-1.35893e-05" gradientUnits="userSpaceOnUse">
<stop stop-color="#DB5E5E"/>
<stop offset="1" stop-color="#DB5E5E" stop-opacity="0"/>
</linearGradient>
<linearGradient id="paint7_linear_441_6035" x1="128.444" y1="6.99981" x2="1.78508e-06" y2="6.99984" gradientUnits="userSpaceOnUse">
<stop stop-color="#FFC475"/>
<stop offset="1" stop-color="#FFD9A8"/>
</linearGradient>
<linearGradient id="paint8_linear_441_6035" x1="47.1429" y1="-1.41717e-05" x2="2.14285" y2="-1.38548e-05" gradientUnits="userSpaceOnUse">
<stop stop-color="#84BB7B"/>
<stop offset="1" stop-color="#A4CD9D"/>
</linearGradient>
<linearGradient id="paint9_linear_441_6035" x1="75.4286" y1="-1.41717e-05" x2="3.42857" y2="-1.33604e-05" gradientUnits="userSpaceOnUse">
<stop stop-color="#DB5E5E"/>
<stop offset="1" stop-color="#DB5E5E" stop-opacity="0"/>
</linearGradient>
<linearGradient id="paint10_linear_441_6035" x1="139.778" y1="6.99981" x2="1.94258e-06" y2="6.99985" gradientUnits="userSpaceOnUse">
<stop stop-color="#FFC475"/>
<stop offset="1" stop-color="#FFD9A8"/>
</linearGradient>
<linearGradient id="paint11_linear_441_6035" x1="59.7143" y1="-1.41717e-05" x2="2.71428" y2="-1.36632e-05" gradientUnits="userSpaceOnUse">
<stop stop-color="#84BB7B"/>
<stop offset="1" stop-color="#A4CD9D"/>
</linearGradient>
<linearGradient id="paint12_linear_441_6035" x1="57.619" y1="-1.41717e-05" x2="2.61904" y2="-1.36983e-05" gradientUnits="userSpaceOnUse">
<stop stop-color="#DB5E5E"/>
<stop offset="1" stop-color="#DB5E5E" stop-opacity="0"/>
</linearGradient>
<linearGradient id="paint13_linear_441_6035" x1="107.667" y1="6.99981" x2="1.49631e-06" y2="6.99983" gradientUnits="userSpaceOnUse">
<stop stop-color="#FFC475"/>
<stop offset="1" stop-color="#FFD9A8"/>
</linearGradient>
<linearGradient id="paint14_linear_441_6035" x1="46.0952" y1="-1.41717e-05" x2="2.09524" y2="-1.38687e-05" gradientUnits="userSpaceOnUse">
<stop stop-color="#84BB7B"/>
<stop offset="1" stop-color="#A4CD9D"/>
</linearGradient>
</defs>
</svg>
