<svg width="254" height="247" viewBox="0 0 254 247" fill="none" xmlns="http://www.w3.org/2000/svg">
<path d="M192.237 208.978C214.576 190.359 228.785 162.379 228.785 131.093C228.785 75.0345 183.166 29.5901 126.892 29.5901C70.6187 29.5901 24.9999 75.0345 24.9999 131.093C24.9999 162.379 39.2086 190.359 61.5483 208.978" stroke="#FAFAFB" stroke-width="25" stroke-linecap="round"/>
<path d="M177.022 191C194.123 176.78 205 155.412 205 131.519C205 88.7063 170.078 54 127 54C83.9218 54 49 88.7063 49 131.519C49 155.412 59.8769 176.78 76.9783 191" stroke="#C4C4C4" stroke-linecap="round" stroke-dasharray="0.1 8"/>
<path fill-rule="evenodd" clip-rule="evenodd" d="M214.148 77.4044C210.466 79.2452 209.2 83.8546 211.108 87.5019C217.93 100.547 221.785 115.374 221.785 131.093C221.785 160.209 208.571 186.251 187.755 203.601C184.785 206.076 184.384 210.49 186.859 213.46C189.335 216.43 193.748 216.831 196.718 214.355C220.581 194.467 235.785 164.549 235.785 131.093C235.785 112.65 231.168 95.2858 223.026 80.0819C221.322 76.9014 217.375 75.7909 214.148 77.4044Z" fill="#84BB7B"/>
<path fill-rule="evenodd" clip-rule="evenodd" d="M212.028 71.5281C209.175 75.2692 203.47 75.0774 200.491 71.4362C183.095 50.1748 156.594 36.5901 126.893 36.5901C91.3569 36.5901 60.4023 56.0359 44.1416 84.809C42.4418 87.8169 38.9364 89.4022 35.6192 88.4361C31.4727 87.2283 29.3515 82.6097 31.4406 78.8297C49.9723 45.2981 85.7814 22.5901 126.893 22.5901C161.341 22.5901 192.067 38.5346 212.025 63.4311C213.915 65.7892 213.861 69.125 212.028 71.5281Z" fill="#F1B884"/>
<path fill-rule="evenodd" clip-rule="evenodd" d="M23.3968 97.2617C24.444 94.0789 27.7493 92.2878 31.0354 92.9421C35.323 93.7957 37.7356 98.3681 36.4108 102.534C33.5455 111.546 32 121.14 32 131.093C32 160.209 45.2135 186.251 66.0301 203.601C68.9998 206.076 69.4008 210.49 66.9256 213.46C64.4504 216.43 60.0364 216.831 57.0667 214.355C33.2039 194.467 18 164.549 18 131.093C18 119.279 19.8945 107.907 23.3968 97.2617Z" fill="#D87171"/>
<circle cx="128" cy="131" r="8" fill="#F3F3F3"/>
<circle cx="128" cy="131" r="3" fill="#9EB8CB"/>
<path d="M128 131L156.5 65" stroke="#9EB8CB" stroke-linecap="round"/>
<circle cx="158.5" cy="60.5" r="1.5" fill="#F1B884"/>
<path d="M32.5342 207.877C32.5342 208.618 32.4077 209.168 32.1548 209.528C31.9019 209.888 31.5065 210.068 30.9688 210.068C30.4378 210.068 30.0448 209.893 29.7896 209.542C29.5343 209.189 29.4022 208.662 29.3931 207.963V207.119C29.3931 206.387 29.5195 205.844 29.7725 205.488C30.0254 205.133 30.4219 204.955 30.9619 204.955C31.4974 204.955 31.8916 205.127 32.1445 205.471C32.3975 205.813 32.5273 206.342 32.5342 207.057V207.877ZM31.9019 207.013C31.9019 206.477 31.8267 206.088 31.6763 205.844C31.5259 205.598 31.2878 205.475 30.9619 205.475C30.6383 205.475 30.4025 205.597 30.2544 205.84C30.1063 206.084 30.0299 206.459 30.0254 206.965V207.977C30.0254 208.514 30.1029 208.912 30.2578 209.169C30.415 209.425 30.652 209.552 30.9688 209.552C31.2809 209.552 31.5122 209.431 31.6626 209.19C31.8153 208.948 31.895 208.568 31.9019 208.048V207.013Z" fill="#767676"/>
<path d="M223.492 210H222.856V205.786L221.581 206.254V205.68L223.393 205H223.492V210ZM228.465 207.877C228.465 208.618 228.338 209.168 228.085 209.528C227.833 209.888 227.437 210.068 226.899 210.068C226.368 210.068 225.975 209.893 225.72 209.542C225.465 209.189 225.333 208.662 225.324 207.963V207.119C225.324 206.387 225.45 205.844 225.703 205.488C225.956 205.133 226.353 204.955 226.893 204.955C227.428 204.955 227.822 205.127 228.075 205.471C228.328 205.813 228.458 206.342 228.465 207.057V207.877ZM227.833 207.013C227.833 206.477 227.757 206.088 227.607 205.844C227.457 205.598 227.218 205.475 226.893 205.475C226.569 205.475 226.333 205.597 226.185 205.84C226.037 206.084 225.961 206.459 225.956 206.965V207.977C225.956 208.514 226.034 208.912 226.188 209.169C226.346 209.425 226.583 209.552 226.899 209.552C227.212 209.552 227.443 209.431 227.593 209.19C227.746 208.948 227.826 208.568 227.833 208.048V207.013ZM232.396 207.877C232.396 208.618 232.269 209.168 232.016 209.528C231.763 209.888 231.368 210.068 230.83 210.068C230.299 210.068 229.906 209.893 229.651 209.542C229.396 209.189 229.264 208.662 229.254 207.963V207.119C229.254 206.387 229.381 205.844 229.634 205.488C229.887 205.133 230.283 204.955 230.823 204.955C231.359 204.955 231.753 205.127 232.006 205.471C232.259 205.813 232.389 206.342 232.396 207.057V207.877ZM231.763 207.013C231.763 206.477 231.688 206.088 231.538 205.844C231.387 205.598 231.149 205.475 230.823 205.475C230.5 205.475 230.264 205.597 230.116 205.84C229.968 206.084 229.891 206.459 229.887 206.965V207.977C229.887 208.514 229.964 208.912 230.119 209.169C230.276 209.425 230.513 209.552 230.83 209.552C231.142 209.552 231.374 209.431 231.524 209.19C231.677 208.948 231.756 208.568 231.763 208.048V207.013Z" fill="#767676"/>
<path d="M2.4917 164H1.85596V159.786L0.581055 160.254V159.68L2.39258 159H2.4917V164ZM7.46484 161.877C7.46484 162.618 7.33838 163.168 7.08545 163.528C6.83252 163.888 6.43717 164.068 5.89941 164.068C5.36849 164.068 4.97542 163.893 4.72021 163.542C4.46501 163.189 4.33285 162.662 4.32373 161.963V161.119C4.32373 160.387 4.4502 159.844 4.70312 159.488C4.95605 159.133 5.35254 158.955 5.89258 158.955C6.42806 158.955 6.82227 159.127 7.0752 159.471C7.32812 159.813 7.45801 160.342 7.46484 161.057V161.877ZM6.83252 161.013C6.83252 160.477 6.75732 160.088 6.60693 159.844C6.45654 159.598 6.21842 159.475 5.89258 159.475C5.56901 159.475 5.33317 159.597 5.18506 159.84C5.03695 160.084 4.96061 160.459 4.95605 160.965V161.977C4.95605 162.514 5.03353 162.912 5.18848 163.169C5.3457 163.425 5.58268 163.552 5.89941 163.552C6.21159 163.552 6.44287 163.431 6.59326 163.19C6.74593 162.948 6.82568 162.568 6.83252 162.048V161.013Z" fill="#767676"/>
<path d="M248.837 161.812C248.705 161.97 248.546 162.096 248.362 162.192C248.18 162.288 247.979 162.335 247.76 162.335C247.473 162.335 247.222 162.265 247.008 162.124C246.796 161.982 246.632 161.784 246.516 161.529C246.4 161.271 246.342 160.988 246.342 160.678C246.342 160.345 246.404 160.045 246.53 159.779C246.657 159.512 246.837 159.308 247.07 159.167C247.302 159.026 247.573 158.955 247.883 158.955C248.375 158.955 248.763 159.14 249.045 159.509C249.33 159.876 249.473 160.377 249.473 161.013V161.197C249.473 162.166 249.281 162.873 248.898 163.32C248.516 163.764 247.938 163.992 247.166 164.003H247.042V163.47H247.176C247.698 163.461 248.099 163.326 248.379 163.063C248.659 162.799 248.812 162.382 248.837 161.812ZM247.863 161.812C248.075 161.812 248.27 161.748 248.447 161.618C248.627 161.488 248.758 161.327 248.84 161.136V160.883C248.84 160.468 248.75 160.131 248.57 159.871C248.39 159.611 248.162 159.481 247.887 159.481C247.609 159.481 247.385 159.589 247.217 159.803C247.048 160.015 246.964 160.295 246.964 160.644C246.964 160.983 247.045 161.263 247.207 161.484C247.371 161.703 247.589 161.812 247.863 161.812ZM253.465 161.877C253.465 162.618 253.338 163.168 253.085 163.528C252.833 163.888 252.437 164.068 251.899 164.068C251.368 164.068 250.975 163.893 250.72 163.542C250.465 163.189 250.333 162.662 250.324 161.963V161.119C250.324 160.387 250.45 159.844 250.703 159.488C250.956 159.133 251.353 158.955 251.893 158.955C252.428 158.955 252.822 159.127 253.075 159.471C253.328 159.813 253.458 160.342 253.465 161.057V161.877ZM252.833 161.013C252.833 160.477 252.757 160.088 252.607 159.844C252.457 159.598 252.218 159.475 251.893 159.475C251.569 159.475 251.333 159.597 251.185 159.84C251.037 160.084 250.961 160.459 250.956 160.965V161.977C250.956 162.514 251.034 162.912 251.188 163.169C251.346 163.425 251.583 163.552 251.899 163.552C252.212 163.552 252.443 163.431 252.593 163.19C252.746 162.948 252.826 162.568 252.833 162.048V161.013Z" fill="#767676"/>
<path d="M5.67432 98H2.41357V97.5454L4.13623 95.6313C4.39144 95.342 4.56689 95.1073 4.6626 94.9272C4.76058 94.745 4.80957 94.557 4.80957 94.3633C4.80957 94.1035 4.73096 93.8905 4.57373 93.7241C4.4165 93.5578 4.20687 93.4746 3.94482 93.4746C3.63037 93.4746 3.38542 93.5646 3.20996 93.7446C3.03678 93.9224 2.9502 94.1707 2.9502 94.4897H2.31787C2.31787 94.0317 2.46484 93.6615 2.75879 93.3789C3.05501 93.0964 3.45036 92.9551 3.94482 92.9551C4.40739 92.9551 4.77311 93.077 5.04199 93.3208C5.31087 93.5623 5.44531 93.8848 5.44531 94.2881C5.44531 94.778 5.13314 95.3613 4.50879 96.0381L3.17578 97.4839H5.67432V98ZM9.46484 95.8774C9.46484 96.618 9.33838 97.1683 9.08545 97.5283C8.83252 97.8883 8.43717 98.0684 7.89941 98.0684C7.36849 98.0684 6.97542 97.8929 6.72021 97.542C6.46501 97.1888 6.33285 96.6624 6.32373 95.9629V95.1187C6.32373 94.3872 6.4502 93.8438 6.70312 93.4883C6.95605 93.1328 7.35254 92.9551 7.89258 92.9551C8.42806 92.9551 8.82227 93.1271 9.0752 93.4712C9.32812 93.813 9.45801 94.3416 9.46484 95.0571V95.8774ZM8.83252 95.0127C8.83252 94.4772 8.75732 94.0876 8.60693 93.8438C8.45654 93.5977 8.21842 93.4746 7.89258 93.4746C7.56901 93.4746 7.33317 93.5965 7.18506 93.8403C7.03695 94.0841 6.96061 94.459 6.95605 94.9648V95.9766C6.95605 96.5143 7.03353 96.9119 7.18848 97.1694C7.3457 97.4246 7.58268 97.5522 7.89941 97.5522C8.21159 97.5522 8.44287 97.4315 8.59326 97.1899C8.74593 96.9484 8.82568 96.5679 8.83252 96.0483V95.0127Z" fill="#767676"/>
<path d="M247.432 94.3223C247.432 94.5706 247.366 94.7917 247.233 94.9854C247.104 95.179 246.927 95.3306 246.704 95.4399C246.963 95.5516 247.168 95.7145 247.319 95.9287C247.472 96.1429 247.548 96.3856 247.548 96.6567C247.548 97.0874 247.402 97.4303 247.11 97.6855C246.821 97.9408 246.439 98.0684 245.965 98.0684C245.487 98.0684 245.103 97.9408 244.813 97.6855C244.526 97.4281 244.383 97.0851 244.383 96.6567C244.383 96.3879 244.456 96.1452 244.602 95.9287C244.75 95.7122 244.954 95.5482 245.213 95.4365C244.992 95.3271 244.818 95.1756 244.69 94.9819C244.563 94.7882 244.499 94.5684 244.499 94.3223C244.499 93.903 244.633 93.5703 244.902 93.3242C245.171 93.0781 245.526 92.9551 245.965 92.9551C246.403 92.9551 246.756 93.0781 247.025 93.3242C247.296 93.5703 247.432 93.903 247.432 94.3223ZM246.916 96.6431C246.916 96.3651 246.827 96.1383 246.649 95.9629C246.473 95.7874 246.243 95.6997 245.958 95.6997C245.674 95.6997 245.445 95.7863 245.271 95.9595C245.101 96.1326 245.015 96.3605 245.015 96.6431C245.015 96.9256 245.098 97.1478 245.265 97.3096C245.433 97.4714 245.667 97.5522 245.965 97.5522C246.262 97.5522 246.494 97.4714 246.663 97.3096C246.831 97.1455 246.916 96.9233 246.916 96.6431ZM245.965 93.4746C245.717 93.4746 245.515 93.5521 245.36 93.707C245.208 93.8597 245.131 94.0682 245.131 94.3325C245.131 94.5854 245.207 94.7905 245.357 94.9478C245.51 95.1027 245.712 95.1802 245.965 95.1802C246.218 95.1802 246.42 95.1027 246.57 94.9478C246.723 94.7905 246.799 94.5854 246.799 94.3325C246.799 94.0796 246.721 93.8734 246.563 93.7139C246.406 93.5544 246.207 93.4746 245.965 93.4746ZM251.465 95.8774C251.465 96.618 251.338 97.1683 251.085 97.5283C250.833 97.8883 250.437 98.0684 249.899 98.0684C249.368 98.0684 248.975 97.8929 248.72 97.542C248.465 97.1888 248.333 96.6624 248.324 95.9629V95.1187C248.324 94.3872 248.45 93.8438 248.703 93.4883C248.956 93.1328 249.353 92.9551 249.893 92.9551C250.428 92.9551 250.822 93.1271 251.075 93.4712C251.328 93.813 251.458 94.3416 251.465 95.0571V95.8774ZM250.833 95.0127C250.833 94.4772 250.757 94.0876 250.607 93.8438C250.457 93.5977 250.218 93.4746 249.893 93.4746C249.569 93.4746 249.333 93.5965 249.185 93.8403C249.037 94.0841 248.961 94.459 248.956 94.9648V95.9766C248.956 96.5143 249.034 96.9119 249.188 97.1694C249.346 97.4246 249.583 97.5522 249.899 97.5522C250.212 97.5522 250.443 97.4315 250.593 97.1899C250.746 96.9484 250.826 96.5679 250.833 96.0483V95.0127Z" fill="#767676"/>
<path d="M29.333 45.2041H29.8081C30.1066 45.1995 30.3413 45.1209 30.5122 44.9683C30.6831 44.8156 30.7686 44.6094 30.7686 44.3496C30.7686 43.7663 30.478 43.4746 29.897 43.4746C29.6235 43.4746 29.4048 43.5532 29.2407 43.7104C29.0789 43.8654 28.998 44.0716 28.998 44.3291H28.3657C28.3657 43.9349 28.5093 43.6079 28.7964 43.3481C29.0858 43.0861 29.4526 42.9551 29.897 42.9551C30.3664 42.9551 30.7344 43.0793 31.001 43.3276C31.2676 43.576 31.4009 43.9212 31.4009 44.3633C31.4009 44.5798 31.3302 44.7894 31.189 44.9922C31.05 45.195 30.8597 45.3465 30.6182 45.4468C30.8916 45.5334 31.1024 45.6769 31.2505 45.8774C31.4009 46.078 31.4761 46.3229 31.4761 46.6123C31.4761 47.0589 31.3302 47.4132 31.0386 47.6753C30.7469 47.9373 30.3675 48.0684 29.9004 48.0684C29.4333 48.0684 29.0527 47.9419 28.7588 47.689C28.4671 47.436 28.3213 47.1022 28.3213 46.6875H28.957C28.957 46.9495 29.0425 47.1592 29.2134 47.3164C29.3843 47.4736 29.6133 47.5522 29.9004 47.5522C30.2057 47.5522 30.4393 47.4725 30.6011 47.313C30.7629 47.1535 30.8438 46.9245 30.8438 46.626C30.8438 46.3366 30.7549 46.1144 30.5771 45.9595C30.3994 45.8045 30.1431 45.7248 29.8081 45.7202H29.333V45.2041ZM35.4648 45.8774C35.4648 46.618 35.3384 47.1683 35.0854 47.5283C34.8325 47.8883 34.4372 48.0684 33.8994 48.0684C33.3685 48.0684 32.9754 47.8929 32.7202 47.542C32.465 47.1888 32.3328 46.6624 32.3237 45.9629V45.1187C32.3237 44.3872 32.4502 43.8438 32.7031 43.4883C32.9561 43.1328 33.3525 42.9551 33.8926 42.9551C34.4281 42.9551 34.8223 43.1271 35.0752 43.4712C35.3281 43.813 35.458 44.3416 35.4648 45.0571V45.8774ZM34.8325 45.0127C34.8325 44.4772 34.7573 44.0876 34.6069 43.8438C34.4565 43.5977 34.2184 43.4746 33.8926 43.4746C33.569 43.4746 33.3332 43.5965 33.1851 43.8403C33.0369 44.0841 32.9606 44.459 32.9561 44.9648V45.9766C32.9561 46.5143 33.0335 46.9119 33.1885 47.1694C33.3457 47.4246 33.5827 47.5522 33.8994 47.5522C34.2116 47.5522 34.4429 47.4315 34.5933 47.1899C34.7459 46.9484 34.8257 46.5679 34.8325 46.0483V45.0127Z" fill="#767676"/>
<path d="M221.626 43.3789L219.565 48H218.902L220.957 43.543H218.263V43.0234H221.626V43.3789ZM225.465 45.8774C225.465 46.618 225.338 47.1683 225.085 47.5283C224.833 47.8883 224.437 48.0684 223.899 48.0684C223.368 48.0684 222.975 47.8929 222.72 47.542C222.465 47.1888 222.333 46.6624 222.324 45.9629V45.1187C222.324 44.3872 222.45 43.8438 222.703 43.4883C222.956 43.1328 223.353 42.9551 223.893 42.9551C224.428 42.9551 224.822 43.1271 225.075 43.4712C225.328 43.813 225.458 44.3416 225.465 45.0571V45.8774ZM224.833 45.0127C224.833 44.4772 224.757 44.0876 224.607 43.8438C224.457 43.5977 224.218 43.4746 223.893 43.4746C223.569 43.4746 223.333 43.5965 223.185 43.8403C223.037 44.0841 222.961 44.459 222.956 44.9648V45.9766C222.956 46.5143 223.034 46.9119 223.188 47.1694C223.346 47.4246 223.583 47.5522 223.899 47.5522C224.212 47.5522 224.443 47.4315 224.593 47.1899C224.746 46.9484 224.826 46.5679 224.833 46.0483V45.0127Z" fill="#767676"/>
<path d="M67.083 18.3286H67.7734V18.8447H67.083V20H66.4473V18.8447H64.1812V18.4722L66.4097 15.0234H67.083V18.3286ZM64.8989 18.3286H66.4473V15.8882L66.3721 16.0249L64.8989 18.3286ZM71.4648 17.8774C71.4648 18.618 71.3384 19.1683 71.0854 19.5283C70.8325 19.8883 70.4372 20.0684 69.8994 20.0684C69.3685 20.0684 68.9754 19.8929 68.7202 19.542C68.465 19.1888 68.3328 18.6624 68.3237 17.9629V17.1187C68.3237 16.3872 68.4502 15.8438 68.7031 15.4883C68.9561 15.1328 69.3525 14.9551 69.8926 14.9551C70.4281 14.9551 70.8223 15.1271 71.0752 15.4712C71.3281 15.813 71.458 16.3416 71.4648 17.0571V17.8774ZM70.8325 17.0127C70.8325 16.4772 70.7573 16.0876 70.6069 15.8438C70.4565 15.5977 70.2184 15.4746 69.8926 15.4746C69.569 15.4746 69.3332 15.5965 69.1851 15.8403C69.0369 16.0841 68.9606 16.459 68.9561 16.9648V17.9766C68.9561 18.5143 69.0335 18.9119 69.1885 19.1694C69.3457 19.4246 69.5827 19.5522 69.8994 19.5522C70.2116 19.5522 70.4429 19.4315 70.5933 19.1899C70.7459 18.9484 70.8257 18.5679 70.8325 18.0483V17.0127Z" fill="#767676"/>
<path d="M182.895 17.02V17.5566H182.779C182.287 17.5658 181.895 17.7116 181.603 17.9941C181.311 18.2767 181.143 18.6743 181.097 19.187C181.359 18.8862 181.717 18.7358 182.17 18.7358C182.603 18.7358 182.949 18.8885 183.206 19.1938C183.466 19.4992 183.596 19.8934 183.596 20.3765C183.596 20.8892 183.456 21.2993 183.175 21.6069C182.897 21.9146 182.524 22.0684 182.054 22.0684C181.578 22.0684 181.192 21.8861 180.896 21.5215C180.599 21.1546 180.451 20.6829 180.451 20.1064V19.8638C180.451 18.9478 180.646 18.2482 181.036 17.7651C181.428 17.2798 182.01 17.0314 182.782 17.02H182.895ZM182.064 19.2622C181.848 19.2622 181.649 19.3271 181.466 19.457C181.284 19.5869 181.158 19.7498 181.087 19.9458V20.1782C181.087 20.5884 181.179 20.9188 181.364 21.1694C181.548 21.4201 181.778 21.5454 182.054 21.5454C182.339 21.5454 182.562 21.4406 182.724 21.231C182.888 21.0213 182.97 20.7467 182.97 20.4072C182.97 20.0654 182.887 19.7897 182.721 19.5801C182.557 19.3682 182.338 19.2622 182.064 19.2622ZM187.465 19.8774C187.465 20.618 187.338 21.1683 187.085 21.5283C186.833 21.8883 186.437 22.0684 185.899 22.0684C185.368 22.0684 184.975 21.8929 184.72 21.542C184.465 21.1888 184.333 20.6624 184.324 19.9629V19.1187C184.324 18.3872 184.45 17.8438 184.703 17.4883C184.956 17.1328 185.353 16.9551 185.893 16.9551C186.428 16.9551 186.822 17.1271 187.075 17.4712C187.328 17.813 187.458 18.3416 187.465 19.0571V19.8774ZM186.833 19.0127C186.833 18.4772 186.757 18.0876 186.607 17.8438C186.457 17.5977 186.218 17.4746 185.893 17.4746C185.569 17.4746 185.333 17.5965 185.185 17.8403C185.037 18.0841 184.961 18.459 184.956 18.9648V19.9766C184.956 20.5143 185.034 20.9119 185.188 21.1694C185.346 21.4246 185.583 21.5522 185.899 21.5522C186.212 21.5522 186.443 21.4315 186.593 21.1899C186.746 20.9484 186.826 20.5679 186.833 20.0483V19.0127Z" fill="#767676"/>
<path d="M122.704 6.50488L122.957 4.02344H125.507V4.60791H123.494L123.343 5.96484C123.587 5.82129 123.864 5.74951 124.174 5.74951C124.627 5.74951 124.987 5.8999 125.254 6.20068C125.521 6.49919 125.654 6.90365 125.654 7.41406C125.654 7.92676 125.515 8.33122 125.237 8.62744C124.961 8.92139 124.575 9.06836 124.078 9.06836C123.638 9.06836 123.279 8.94645 123.001 8.70264C122.723 8.45882 122.565 8.12158 122.526 7.69092H123.125C123.163 7.97575 123.265 8.19108 123.429 8.33691C123.593 8.48047 123.809 8.55225 124.078 8.55225C124.372 8.55225 124.602 8.45199 124.769 8.25146C124.937 8.05094 125.021 7.77409 125.021 7.4209C125.021 7.08822 124.93 6.82161 124.748 6.62109C124.568 6.41829 124.328 6.31689 124.027 6.31689C123.751 6.31689 123.535 6.37728 123.377 6.49805L123.21 6.63477L122.704 6.50488ZM129.465 6.87744C129.465 7.618 129.338 8.16829 129.085 8.52832C128.833 8.88835 128.437 9.06836 127.899 9.06836C127.368 9.06836 126.975 8.8929 126.72 8.54199C126.465 8.1888 126.333 7.66243 126.324 6.96289V6.11865C126.324 5.38721 126.45 4.84375 126.703 4.48828C126.956 4.13281 127.353 3.95508 127.893 3.95508C128.428 3.95508 128.822 4.12712 129.075 4.47119C129.328 4.81299 129.458 5.34163 129.465 6.05713V6.87744ZM128.833 6.0127C128.833 5.47721 128.757 5.08757 128.607 4.84375C128.457 4.59766 128.218 4.47461 127.893 4.47461C127.569 4.47461 127.333 4.59652 127.185 4.84033C127.037 5.08415 126.961 5.45898 126.956 5.96484V6.97656C126.956 7.51432 127.034 7.91195 127.188 8.16943C127.346 8.42464 127.583 8.55225 127.899 8.55225C128.212 8.55225 128.443 8.43148 128.593 8.18994C128.746 7.9484 128.826 7.56787 128.833 7.04834V6.0127Z" fill="#767676"/>
<g filter="url(#filter0_d_410_4840)">
<rect x="83" y="197" width="89" height="25" rx="12.5" fill="white"/>
</g>
<path d="M116.104 209.417L116.606 204.758H121.57V206.091H117.888L117.634 208.3C118.062 208.054 118.544 207.932 119.082 207.932C119.962 207.932 120.645 208.213 121.132 208.776C121.623 209.339 121.868 210.096 121.868 211.048C121.868 211.988 121.597 212.737 121.056 213.295C120.514 213.85 119.771 214.127 118.828 214.127C117.981 214.127 117.279 213.888 116.72 213.41C116.166 212.927 115.865 212.292 115.819 211.505H117.311C117.37 211.954 117.531 212.299 117.793 212.54C118.055 212.777 118.398 212.896 118.821 212.896C119.295 212.896 119.663 212.726 119.926 212.388C120.192 212.049 120.326 211.588 120.326 211.004C120.326 210.441 120.18 209.997 119.888 209.671C119.596 209.341 119.194 209.176 118.682 209.176C118.402 209.176 118.165 209.214 117.971 209.29C117.776 209.362 117.564 209.506 117.336 209.722L116.104 209.417ZM123.493 209.417L123.995 204.758H128.958V206.091H125.277L125.023 208.3C125.45 208.054 125.933 207.932 126.47 207.932C127.35 207.932 128.034 208.213 128.521 208.776C129.011 209.339 129.257 210.096 129.257 211.048C129.257 211.988 128.986 212.737 128.444 213.295C127.903 213.85 127.16 214.127 126.216 214.127C125.37 214.127 124.667 213.888 124.109 213.41C123.555 212.927 123.254 212.292 123.208 211.505H124.699C124.758 211.954 124.919 212.299 125.182 212.54C125.444 212.777 125.787 212.896 126.21 212.896C126.684 212.896 127.052 212.726 127.314 212.388C127.581 212.049 127.714 211.588 127.714 211.004C127.714 210.441 127.568 209.997 127.276 209.671C126.984 209.341 126.582 209.176 126.07 209.176C125.791 209.176 125.554 209.214 125.359 209.29C125.165 209.362 124.953 209.506 124.725 209.722L123.493 209.417ZM131.529 212.375C131.817 212.375 132.039 212.458 132.196 212.623C132.352 212.783 132.431 212.986 132.431 213.232C132.431 213.473 132.352 213.674 132.196 213.835C132.039 213.992 131.817 214.07 131.529 214.07C131.254 214.07 131.036 213.992 130.875 213.835C130.715 213.678 130.634 213.477 130.634 213.232C130.634 212.986 130.713 212.783 130.869 212.623C131.026 212.458 131.246 212.375 131.529 212.375ZM139.921 207.195C139.921 207.648 139.805 208.052 139.572 208.408C139.339 208.759 139.022 209.036 138.62 209.239C139.102 209.464 139.472 209.77 139.73 210.16C139.993 210.549 140.124 210.989 140.124 211.48C140.124 212.292 139.849 212.938 139.299 213.416C138.749 213.89 138.017 214.127 137.103 214.127C136.184 214.127 135.448 213.888 134.894 213.41C134.343 212.931 134.068 212.288 134.068 211.48C134.068 210.985 134.2 210.541 134.462 210.147C134.724 209.753 135.092 209.451 135.566 209.239C135.169 209.036 134.853 208.759 134.621 208.408C134.392 208.052 134.278 207.648 134.278 207.195C134.278 206.408 134.532 205.784 135.04 205.323C135.547 204.861 136.233 204.631 137.096 204.631C137.964 204.631 138.651 204.861 139.159 205.323C139.667 205.784 139.921 206.408 139.921 207.195ZM138.582 211.404C138.582 210.947 138.444 210.579 138.169 210.299C137.898 210.016 137.538 209.874 137.09 209.874C136.641 209.874 136.282 210.014 136.011 210.293C135.744 210.572 135.611 210.943 135.611 211.404C135.611 211.857 135.742 212.218 136.004 212.489C136.271 212.76 136.637 212.896 137.103 212.896C137.568 212.896 137.93 212.764 138.188 212.502C138.45 212.24 138.582 211.874 138.582 211.404ZM138.385 207.252C138.385 206.85 138.268 206.52 138.036 206.262C137.803 206 137.49 205.869 137.096 205.869C136.703 205.869 136.392 205.993 136.163 206.243C135.935 206.489 135.82 206.825 135.82 207.252C135.82 207.676 135.935 208.012 136.163 208.262C136.396 208.511 136.709 208.636 137.103 208.636C137.496 208.636 137.807 208.511 138.036 208.262C138.268 208.012 138.385 207.676 138.385 207.252Z" fill="black"/>
<defs>
<filter id="filter0_d_410_4840" x="68" y="182" width="129" height="65" filterUnits="userSpaceOnUse" color-interpolation-filters="sRGB">
<feFlood flood-opacity="0" result="BackgroundImageFix"/>
<feColorMatrix in="SourceAlpha" type="matrix" values="0 0 0 0 0 0 0 0 0 0 0 0 0 0 0 0 0 0 127 0" result="hardAlpha"/>
<feOffset dx="5" dy="5"/>
<feGaussianBlur stdDeviation="10"/>
<feComposite in2="hardAlpha" operator="out"/>
<feColorMatrix type="matrix" values="0 0 0 0 0.952941 0 0 0 0 0.952941 0 0 0 0 0.952941 0 0 0 1 0"/>
<feBlend mode="normal" in2="BackgroundImageFix" result="effect1_dropShadow_410_4840"/>
<feBlend mode="normal" in="SourceGraphic" in2="effect1_dropShadow_410_4840" result="shape"/>
</filter>
</defs>
</svg>
