<svg width="579" height="307" viewBox="0 0 579 307" fill="none" xmlns="http://www.w3.org/2000/svg">
<path d="M513.529 300H507.939V299.221L510.893 295.939C511.33 295.443 511.631 295.041 511.795 294.732C511.963 294.42 512.047 294.098 512.047 293.766C512.047 293.32 511.912 292.955 511.643 292.67C511.373 292.385 511.014 292.242 510.564 292.242C510.025 292.242 509.605 292.396 509.305 292.705C509.008 293.01 508.859 293.436 508.859 293.982H507.775C507.775 293.197 508.027 292.562 508.531 292.078C509.039 291.594 509.717 291.352 510.564 291.352C511.357 291.352 511.984 291.561 512.445 291.979C512.906 292.393 513.137 292.945 513.137 293.637C513.137 294.477 512.602 295.477 511.531 296.637L509.246 299.115H513.529V300ZM520.027 296.361C520.027 297.631 519.811 298.574 519.377 299.191C518.943 299.809 518.266 300.117 517.344 300.117C516.434 300.117 515.76 299.816 515.322 299.215C514.885 298.609 514.658 297.707 514.643 296.508V295.061C514.643 293.807 514.859 292.875 515.293 292.266C515.727 291.656 516.406 291.352 517.332 291.352C518.25 291.352 518.926 291.646 519.359 292.236C519.793 292.822 520.016 293.729 520.027 294.955V296.361ZM518.943 294.879C518.943 293.961 518.814 293.293 518.557 292.875C518.299 292.453 517.891 292.242 517.332 292.242C516.777 292.242 516.373 292.451 516.119 292.869C515.865 293.287 515.734 293.93 515.727 294.797V296.531C515.727 297.453 515.859 298.135 516.125 298.576C516.395 299.014 516.801 299.232 517.344 299.232C517.879 299.232 518.275 299.025 518.533 298.611C518.795 298.197 518.932 297.545 518.943 296.654V294.879ZM527.006 300H521.416V299.221L524.369 295.939C524.807 295.443 525.107 295.041 525.271 294.732C525.439 294.42 525.523 294.098 525.523 293.766C525.523 293.32 525.389 292.955 525.119 292.67C524.85 292.385 524.49 292.242 524.041 292.242C523.502 292.242 523.082 292.396 522.781 292.705C522.484 293.01 522.336 293.436 522.336 293.982H521.252C521.252 293.197 521.504 292.562 522.008 292.078C522.516 291.594 523.193 291.352 524.041 291.352C524.834 291.352 525.461 291.561 525.922 291.979C526.383 292.393 526.613 292.945 526.613 293.637C526.613 294.477 526.078 295.477 525.008 296.637L522.723 299.115H527.006V300ZM531.717 300H530.627V292.775L528.441 293.578V292.594L531.547 291.428H531.717V300ZM537.26 296.818H534.4V295.934H537.26V296.818ZM541.771 300H540.682V292.775L538.496 293.578V292.594L541.602 291.428H541.771V300ZM550.297 296.361C550.297 297.631 550.08 298.574 549.646 299.191C549.213 299.809 548.535 300.117 547.613 300.117C546.703 300.117 546.029 299.816 545.592 299.215C545.154 298.609 544.928 297.707 544.912 296.508V295.061C544.912 293.807 545.129 292.875 545.562 292.266C545.996 291.656 546.676 291.352 547.602 291.352C548.52 291.352 549.195 291.646 549.629 292.236C550.062 292.822 550.285 293.729 550.297 294.955V296.361ZM549.213 294.879C549.213 293.961 549.084 293.293 548.826 292.875C548.568 292.453 548.16 292.242 547.602 292.242C547.047 292.242 546.643 292.451 546.389 292.869C546.135 293.287 546.004 293.93 545.996 294.797V296.531C545.996 297.453 546.129 298.135 546.395 298.576C546.664 299.014 547.07 299.232 547.613 299.232C548.148 299.232 548.545 299.025 548.803 298.611C549.064 298.197 549.201 297.545 549.213 296.654V294.879ZM554.053 296.818H551.193V295.934H554.053V296.818ZM558.564 300H557.475V292.775L555.289 293.578V292.594L558.395 291.428H558.564V300ZM567.248 292.078L563.715 300H562.578L566.1 292.359H561.482V291.469H567.248V292.078Z" fill="#BCB9B9"/>
<path d="M436.529 300H430.939V299.221L433.893 295.939C434.33 295.443 434.631 295.041 434.795 294.732C434.963 294.42 435.047 294.098 435.047 293.766C435.047 293.32 434.912 292.955 434.643 292.67C434.373 292.385 434.014 292.242 433.564 292.242C433.025 292.242 432.605 292.396 432.305 292.705C432.008 293.01 431.859 293.436 431.859 293.982H430.775C430.775 293.197 431.027 292.562 431.531 292.078C432.039 291.594 432.717 291.352 433.564 291.352C434.357 291.352 434.984 291.561 435.445 291.979C435.906 292.393 436.137 292.945 436.137 293.637C436.137 294.477 435.602 295.477 434.531 296.637L432.246 299.115H436.529V300ZM443.027 296.361C443.027 297.631 442.811 298.574 442.377 299.191C441.943 299.809 441.266 300.117 440.344 300.117C439.434 300.117 438.76 299.816 438.322 299.215C437.885 298.609 437.658 297.707 437.643 296.508V295.061C437.643 293.807 437.859 292.875 438.293 292.266C438.727 291.656 439.406 291.352 440.332 291.352C441.25 291.352 441.926 291.646 442.359 292.236C442.793 292.822 443.016 293.729 443.027 294.955V296.361ZM441.943 294.879C441.943 293.961 441.814 293.293 441.557 292.875C441.299 292.453 440.891 292.242 440.332 292.242C439.777 292.242 439.373 292.451 439.119 292.869C438.865 293.287 438.734 293.93 438.727 294.797V296.531C438.727 297.453 438.859 298.135 439.125 298.576C439.395 299.014 439.801 299.232 440.344 299.232C440.879 299.232 441.275 299.025 441.533 298.611C441.795 298.197 441.932 297.545 441.943 296.654V294.879ZM450.006 300H444.416V299.221L447.369 295.939C447.807 295.443 448.107 295.041 448.271 294.732C448.439 294.42 448.523 294.098 448.523 293.766C448.523 293.32 448.389 292.955 448.119 292.67C447.85 292.385 447.49 292.242 447.041 292.242C446.502 292.242 446.082 292.396 445.781 292.705C445.484 293.01 445.336 293.436 445.336 293.982H444.252C444.252 293.197 444.504 292.562 445.008 292.078C445.516 291.594 446.193 291.352 447.041 291.352C447.834 291.352 448.461 291.561 448.922 291.979C449.383 292.393 449.613 292.945 449.613 293.637C449.613 294.477 449.078 295.477 448.008 296.637L445.723 299.115H450.006V300ZM454.717 300H453.627V292.775L451.441 293.578V292.594L454.547 291.428H454.717V300ZM460.26 296.818H457.4V295.934H460.26V296.818ZM464.771 300H463.682V292.775L461.496 293.578V292.594L464.602 291.428H464.771V300ZM473.297 296.361C473.297 297.631 473.08 298.574 472.646 299.191C472.213 299.809 471.535 300.117 470.613 300.117C469.703 300.117 469.029 299.816 468.592 299.215C468.154 298.609 467.928 297.707 467.912 296.508V295.061C467.912 293.807 468.129 292.875 468.562 292.266C468.996 291.656 469.676 291.352 470.602 291.352C471.52 291.352 472.195 291.646 472.629 292.236C473.062 292.822 473.285 293.729 473.297 294.955V296.361ZM472.213 294.879C472.213 293.961 472.084 293.293 471.826 292.875C471.568 292.453 471.16 292.242 470.602 292.242C470.047 292.242 469.643 292.451 469.389 292.869C469.135 293.287 469.004 293.93 468.996 294.797V296.531C468.996 297.453 469.129 298.135 469.395 298.576C469.664 299.014 470.07 299.232 470.613 299.232C471.148 299.232 471.545 299.025 471.803 298.611C472.064 298.197 472.201 297.545 472.213 296.654V294.879ZM477.053 296.818H474.193V295.934H477.053V296.818ZM481.564 300H480.475V292.775L478.289 293.578V292.594L481.395 291.428H481.564V300ZM488.994 291.463V292.383H488.795C487.951 292.398 487.279 292.648 486.779 293.133C486.279 293.617 485.99 294.299 485.912 295.178C486.361 294.662 486.975 294.404 487.752 294.404C488.494 294.404 489.086 294.666 489.527 295.189C489.973 295.713 490.195 296.389 490.195 297.217C490.195 298.096 489.955 298.799 489.475 299.326C488.998 299.854 488.357 300.117 487.553 300.117C486.736 300.117 486.074 299.805 485.566 299.18C485.059 298.551 484.805 297.742 484.805 296.754V296.338C484.805 294.768 485.139 293.568 485.807 292.74C486.479 291.908 487.477 291.482 488.801 291.463H488.994ZM487.57 295.307C487.199 295.307 486.857 295.418 486.545 295.641C486.232 295.863 486.016 296.143 485.895 296.479V296.877C485.895 297.58 486.053 298.146 486.369 298.576C486.686 299.006 487.08 299.221 487.553 299.221C488.041 299.221 488.424 299.041 488.701 298.682C488.982 298.322 489.123 297.852 489.123 297.27C489.123 296.684 488.98 296.211 488.695 295.852C488.414 295.488 488.039 295.307 487.57 295.307Z" fill="#BCB9B9"/>
<path d="M359.529 300H353.939V299.221L356.893 295.939C357.33 295.443 357.631 295.041 357.795 294.732C357.963 294.42 358.047 294.098 358.047 293.766C358.047 293.32 357.912 292.955 357.643 292.67C357.373 292.385 357.014 292.242 356.564 292.242C356.025 292.242 355.605 292.396 355.305 292.705C355.008 293.01 354.859 293.436 354.859 293.982H353.775C353.775 293.197 354.027 292.562 354.531 292.078C355.039 291.594 355.717 291.352 356.564 291.352C357.357 291.352 357.984 291.561 358.445 291.979C358.906 292.393 359.137 292.945 359.137 293.637C359.137 294.477 358.602 295.477 357.531 296.637L355.246 299.115H359.529V300ZM366.027 296.361C366.027 297.631 365.811 298.574 365.377 299.191C364.943 299.809 364.266 300.117 363.344 300.117C362.434 300.117 361.76 299.816 361.322 299.215C360.885 298.609 360.658 297.707 360.643 296.508V295.061C360.643 293.807 360.859 292.875 361.293 292.266C361.727 291.656 362.406 291.352 363.332 291.352C364.25 291.352 364.926 291.646 365.359 292.236C365.793 292.822 366.016 293.729 366.027 294.955V296.361ZM364.943 294.879C364.943 293.961 364.814 293.293 364.557 292.875C364.299 292.453 363.891 292.242 363.332 292.242C362.777 292.242 362.373 292.451 362.119 292.869C361.865 293.287 361.734 293.93 361.727 294.797V296.531C361.727 297.453 361.859 298.135 362.125 298.576C362.395 299.014 362.801 299.232 363.344 299.232C363.879 299.232 364.275 299.025 364.533 298.611C364.795 298.197 364.932 297.545 364.943 296.654V294.879ZM373.006 300H367.416V299.221L370.369 295.939C370.807 295.443 371.107 295.041 371.271 294.732C371.439 294.42 371.523 294.098 371.523 293.766C371.523 293.32 371.389 292.955 371.119 292.67C370.85 292.385 370.49 292.242 370.041 292.242C369.502 292.242 369.082 292.396 368.781 292.705C368.484 293.01 368.336 293.436 368.336 293.982H367.252C367.252 293.197 367.504 292.562 368.008 292.078C368.516 291.594 369.193 291.352 370.041 291.352C370.834 291.352 371.461 291.561 371.922 291.979C372.383 292.393 372.613 292.945 372.613 293.637C372.613 294.477 372.078 295.477 371.008 296.637L368.723 299.115H373.006V300ZM377.717 300H376.627V292.775L374.441 293.578V292.594L377.547 291.428H377.717V300ZM383.26 296.818H380.4V295.934H383.26V296.818ZM387.771 300H386.682V292.775L384.496 293.578V292.594L387.602 291.428H387.771V300ZM396.297 296.361C396.297 297.631 396.08 298.574 395.646 299.191C395.213 299.809 394.535 300.117 393.613 300.117C392.703 300.117 392.029 299.816 391.592 299.215C391.154 298.609 390.928 297.707 390.912 296.508V295.061C390.912 293.807 391.129 292.875 391.562 292.266C391.996 291.656 392.676 291.352 393.602 291.352C394.52 291.352 395.195 291.646 395.629 292.236C396.062 292.822 396.285 293.729 396.297 294.955V296.361ZM395.213 294.879C395.213 293.961 395.084 293.293 394.826 292.875C394.568 292.453 394.16 292.242 393.602 292.242C393.047 292.242 392.643 292.451 392.389 292.869C392.135 293.287 392.004 293.93 391.996 294.797V296.531C391.996 297.453 392.129 298.135 392.395 298.576C392.664 299.014 393.07 299.232 393.613 299.232C394.148 299.232 394.545 299.025 394.803 298.611C395.064 298.197 395.201 297.545 395.213 296.654V294.879ZM400.053 296.818H397.193V295.934H400.053V296.818ZM404.564 300H403.475V292.775L401.289 293.578V292.594L404.395 291.428H404.564V300ZM408.238 295.723L408.672 291.469H413.043V292.471H409.592L409.334 294.797C409.752 294.551 410.227 294.428 410.758 294.428C411.535 294.428 412.152 294.686 412.609 295.201C413.066 295.713 413.295 296.406 413.295 297.281C413.295 298.16 413.057 298.854 412.58 299.361C412.107 299.865 411.445 300.117 410.594 300.117C409.84 300.117 409.225 299.908 408.748 299.49C408.271 299.072 408 298.494 407.934 297.756H408.959C409.025 298.244 409.199 298.613 409.48 298.863C409.762 299.109 410.133 299.232 410.594 299.232C411.098 299.232 411.492 299.061 411.777 298.717C412.066 298.373 412.211 297.898 412.211 297.293C412.211 296.723 412.055 296.266 411.742 295.922C411.434 295.574 411.021 295.4 410.506 295.4C410.033 295.4 409.662 295.504 409.393 295.711L409.105 295.945L408.238 295.723Z" fill="#BCB9B9"/>
<path d="M282.529 300H276.939V299.221L279.893 295.939C280.33 295.443 280.631 295.041 280.795 294.732C280.963 294.42 281.047 294.098 281.047 293.766C281.047 293.32 280.912 292.955 280.643 292.67C280.373 292.385 280.014 292.242 279.564 292.242C279.025 292.242 278.605 292.396 278.305 292.705C278.008 293.01 277.859 293.436 277.859 293.982H276.775C276.775 293.197 277.027 292.562 277.531 292.078C278.039 291.594 278.717 291.352 279.564 291.352C280.357 291.352 280.984 291.561 281.445 291.979C281.906 292.393 282.137 292.945 282.137 293.637C282.137 294.477 281.602 295.477 280.531 296.637L278.246 299.115H282.529V300ZM289.027 296.361C289.027 297.631 288.811 298.574 288.377 299.191C287.943 299.809 287.266 300.117 286.344 300.117C285.434 300.117 284.76 299.816 284.322 299.215C283.885 298.609 283.658 297.707 283.643 296.508V295.061C283.643 293.807 283.859 292.875 284.293 292.266C284.727 291.656 285.406 291.352 286.332 291.352C287.25 291.352 287.926 291.646 288.359 292.236C288.793 292.822 289.016 293.729 289.027 294.955V296.361ZM287.943 294.879C287.943 293.961 287.814 293.293 287.557 292.875C287.299 292.453 286.891 292.242 286.332 292.242C285.777 292.242 285.373 292.451 285.119 292.869C284.865 293.287 284.734 293.93 284.727 294.797V296.531C284.727 297.453 284.859 298.135 285.125 298.576C285.395 299.014 285.801 299.232 286.344 299.232C286.879 299.232 287.275 299.025 287.533 298.611C287.795 298.197 287.932 297.545 287.943 296.654V294.879ZM296.006 300H290.416V299.221L293.369 295.939C293.807 295.443 294.107 295.041 294.271 294.732C294.439 294.42 294.523 294.098 294.523 293.766C294.523 293.32 294.389 292.955 294.119 292.67C293.85 292.385 293.49 292.242 293.041 292.242C292.502 292.242 292.082 292.396 291.781 292.705C291.484 293.01 291.336 293.436 291.336 293.982H290.252C290.252 293.197 290.504 292.562 291.008 292.078C291.516 291.594 292.193 291.352 293.041 291.352C293.834 291.352 294.461 291.561 294.922 291.979C295.383 292.393 295.613 292.945 295.613 293.637C295.613 294.477 295.078 295.477 294.008 296.637L291.723 299.115H296.006V300ZM300.717 300H299.627V292.775L297.441 293.578V292.594L300.547 291.428H300.717V300ZM306.26 296.818H303.4V295.934H306.26V296.818ZM310.771 300H309.682V292.775L307.496 293.578V292.594L310.602 291.428H310.771V300ZM319.297 296.361C319.297 297.631 319.08 298.574 318.646 299.191C318.213 299.809 317.535 300.117 316.613 300.117C315.703 300.117 315.029 299.816 314.592 299.215C314.154 298.609 313.928 297.707 313.912 296.508V295.061C313.912 293.807 314.129 292.875 314.562 292.266C314.996 291.656 315.676 291.352 316.602 291.352C317.52 291.352 318.195 291.646 318.629 292.236C319.062 292.822 319.285 293.729 319.297 294.955V296.361ZM318.213 294.879C318.213 293.961 318.084 293.293 317.826 292.875C317.568 292.453 317.16 292.242 316.602 292.242C316.047 292.242 315.643 292.451 315.389 292.869C315.135 293.287 315.004 293.93 314.996 294.797V296.531C314.996 297.453 315.129 298.135 315.395 298.576C315.664 299.014 316.07 299.232 316.613 299.232C317.148 299.232 317.545 299.025 317.803 298.611C318.064 298.197 318.201 297.545 318.213 296.654V294.879ZM323.053 296.818H320.193V295.934H323.053V296.818ZM327.564 300H326.475V292.775L324.289 293.578V292.594L327.395 291.428H327.564V300ZM335.316 297.135H336.5V298.02H335.316V300H334.227V298.02H330.342V297.381L334.162 291.469H335.316V297.135ZM331.572 297.135H334.227V292.951L334.098 293.186L331.572 297.135Z" fill="#BCB9B9"/>
<path d="M205.529 300H199.939V299.221L202.893 295.939C203.33 295.443 203.631 295.041 203.795 294.732C203.963 294.42 204.047 294.098 204.047 293.766C204.047 293.32 203.912 292.955 203.643 292.67C203.373 292.385 203.014 292.242 202.564 292.242C202.025 292.242 201.605 292.396 201.305 292.705C201.008 293.01 200.859 293.436 200.859 293.982H199.775C199.775 293.197 200.027 292.562 200.531 292.078C201.039 291.594 201.717 291.352 202.564 291.352C203.357 291.352 203.984 291.561 204.445 291.979C204.906 292.393 205.137 292.945 205.137 293.637C205.137 294.477 204.602 295.477 203.531 296.637L201.246 299.115H205.529V300ZM212.027 296.361C212.027 297.631 211.811 298.574 211.377 299.191C210.943 299.809 210.266 300.117 209.344 300.117C208.434 300.117 207.76 299.816 207.322 299.215C206.885 298.609 206.658 297.707 206.643 296.508V295.061C206.643 293.807 206.859 292.875 207.293 292.266C207.727 291.656 208.406 291.352 209.332 291.352C210.25 291.352 210.926 291.646 211.359 292.236C211.793 292.822 212.016 293.729 212.027 294.955V296.361ZM210.943 294.879C210.943 293.961 210.814 293.293 210.557 292.875C210.299 292.453 209.891 292.242 209.332 292.242C208.777 292.242 208.373 292.451 208.119 292.869C207.865 293.287 207.734 293.93 207.727 294.797V296.531C207.727 297.453 207.859 298.135 208.125 298.576C208.395 299.014 208.801 299.232 209.344 299.232C209.879 299.232 210.275 299.025 210.533 298.611C210.795 298.197 210.932 297.545 210.943 296.654V294.879ZM219.006 300H213.416V299.221L216.369 295.939C216.807 295.443 217.107 295.041 217.271 294.732C217.439 294.42 217.523 294.098 217.523 293.766C217.523 293.32 217.389 292.955 217.119 292.67C216.85 292.385 216.49 292.242 216.041 292.242C215.502 292.242 215.082 292.396 214.781 292.705C214.484 293.01 214.336 293.436 214.336 293.982H213.252C213.252 293.197 213.504 292.562 214.008 292.078C214.516 291.594 215.193 291.352 216.041 291.352C216.834 291.352 217.461 291.561 217.922 291.979C218.383 292.393 218.613 292.945 218.613 293.637C218.613 294.477 218.078 295.477 217.008 296.637L214.723 299.115H219.006V300ZM223.717 300H222.627V292.775L220.441 293.578V292.594L223.547 291.428H223.717V300ZM229.26 296.818H226.4V295.934H229.26V296.818ZM233.771 300H232.682V292.775L230.496 293.578V292.594L233.602 291.428H233.771V300ZM242.297 296.361C242.297 297.631 242.08 298.574 241.646 299.191C241.213 299.809 240.535 300.117 239.613 300.117C238.703 300.117 238.029 299.816 237.592 299.215C237.154 298.609 236.928 297.707 236.912 296.508V295.061C236.912 293.807 237.129 292.875 237.562 292.266C237.996 291.656 238.676 291.352 239.602 291.352C240.52 291.352 241.195 291.646 241.629 292.236C242.062 292.822 242.285 293.729 242.297 294.955V296.361ZM241.213 294.879C241.213 293.961 241.084 293.293 240.826 292.875C240.568 292.453 240.16 292.242 239.602 292.242C239.047 292.242 238.643 292.451 238.389 292.869C238.135 293.287 238.004 293.93 237.996 294.797V296.531C237.996 297.453 238.129 298.135 238.395 298.576C238.664 299.014 239.07 299.232 239.613 299.232C240.148 299.232 240.545 299.025 240.803 298.611C241.064 298.197 241.201 297.545 241.213 296.654V294.879ZM246.053 296.818H243.193V295.934H246.053V296.818ZM250.564 300H249.475V292.775L247.289 293.578V292.594L250.395 291.428H250.564V300ZM255.316 295.207H256.131C256.643 295.199 257.045 295.064 257.338 294.803C257.631 294.541 257.777 294.188 257.777 293.742C257.777 292.742 257.279 292.242 256.283 292.242C255.814 292.242 255.439 292.377 255.158 292.646C254.881 292.912 254.742 293.266 254.742 293.707H253.658C253.658 293.031 253.904 292.471 254.396 292.025C254.893 291.576 255.521 291.352 256.283 291.352C257.088 291.352 257.719 291.564 258.176 291.99C258.633 292.416 258.861 293.008 258.861 293.766C258.861 294.137 258.74 294.496 258.498 294.844C258.26 295.191 257.934 295.451 257.52 295.623C257.988 295.771 258.35 296.018 258.604 296.361C258.861 296.705 258.99 297.125 258.99 297.621C258.99 298.387 258.74 298.994 258.24 299.443C257.74 299.893 257.09 300.117 256.289 300.117C255.488 300.117 254.836 299.9 254.332 299.467C253.832 299.033 253.582 298.461 253.582 297.75H254.672C254.672 298.199 254.818 298.559 255.111 298.828C255.404 299.098 255.797 299.232 256.289 299.232C256.812 299.232 257.213 299.096 257.49 298.822C257.768 298.549 257.906 298.156 257.906 297.645C257.906 297.148 257.754 296.768 257.449 296.502C257.145 296.236 256.705 296.1 256.131 296.092H255.316V295.207Z" fill="#BCB9B9"/>
<path d="M128.529 300H122.939V299.221L125.893 295.939C126.33 295.443 126.631 295.041 126.795 294.732C126.963 294.42 127.047 294.098 127.047 293.766C127.047 293.32 126.912 292.955 126.643 292.67C126.373 292.385 126.014 292.242 125.564 292.242C125.025 292.242 124.605 292.396 124.305 292.705C124.008 293.01 123.859 293.436 123.859 293.982H122.775C122.775 293.197 123.027 292.562 123.531 292.078C124.039 291.594 124.717 291.352 125.564 291.352C126.357 291.352 126.984 291.561 127.445 291.979C127.906 292.393 128.137 292.945 128.137 293.637C128.137 294.477 127.602 295.477 126.531 296.637L124.246 299.115H128.529V300ZM135.027 296.361C135.027 297.631 134.811 298.574 134.377 299.191C133.943 299.809 133.266 300.117 132.344 300.117C131.434 300.117 130.76 299.816 130.322 299.215C129.885 298.609 129.658 297.707 129.643 296.508V295.061C129.643 293.807 129.859 292.875 130.293 292.266C130.727 291.656 131.406 291.352 132.332 291.352C133.25 291.352 133.926 291.646 134.359 292.236C134.793 292.822 135.016 293.729 135.027 294.955V296.361ZM133.943 294.879C133.943 293.961 133.814 293.293 133.557 292.875C133.299 292.453 132.891 292.242 132.332 292.242C131.777 292.242 131.373 292.451 131.119 292.869C130.865 293.287 130.734 293.93 130.727 294.797V296.531C130.727 297.453 130.859 298.135 131.125 298.576C131.395 299.014 131.801 299.232 132.344 299.232C132.879 299.232 133.275 299.025 133.533 298.611C133.795 298.197 133.932 297.545 133.943 296.654V294.879ZM142.006 300H136.416V299.221L139.369 295.939C139.807 295.443 140.107 295.041 140.271 294.732C140.439 294.42 140.523 294.098 140.523 293.766C140.523 293.32 140.389 292.955 140.119 292.67C139.85 292.385 139.49 292.242 139.041 292.242C138.502 292.242 138.082 292.396 137.781 292.705C137.484 293.01 137.336 293.436 137.336 293.982H136.252C136.252 293.197 136.504 292.562 137.008 292.078C137.516 291.594 138.193 291.352 139.041 291.352C139.834 291.352 140.461 291.561 140.922 291.979C141.383 292.393 141.613 292.945 141.613 293.637C141.613 294.477 141.078 295.477 140.008 296.637L137.723 299.115H142.006V300ZM146.717 300H145.627V292.775L143.441 293.578V292.594L146.547 291.428H146.717V300ZM152.26 296.818H149.4V295.934H152.26V296.818ZM156.771 300H155.682V292.775L153.496 293.578V292.594L156.602 291.428H156.771V300ZM165.297 296.361C165.297 297.631 165.08 298.574 164.646 299.191C164.213 299.809 163.535 300.117 162.613 300.117C161.703 300.117 161.029 299.816 160.592 299.215C160.154 298.609 159.928 297.707 159.912 296.508V295.061C159.912 293.807 160.129 292.875 160.562 292.266C160.996 291.656 161.676 291.352 162.602 291.352C163.52 291.352 164.195 291.646 164.629 292.236C165.062 292.822 165.285 293.729 165.297 294.955V296.361ZM164.213 294.879C164.213 293.961 164.084 293.293 163.826 292.875C163.568 292.453 163.16 292.242 162.602 292.242C162.047 292.242 161.643 292.451 161.389 292.869C161.135 293.287 161.004 293.93 160.996 294.797V296.531C160.996 297.453 161.129 298.135 161.395 298.576C161.664 299.014 162.07 299.232 162.613 299.232C163.148 299.232 163.545 299.025 163.803 298.611C164.064 298.197 164.201 297.545 164.213 296.654V294.879ZM169.053 296.818H166.193V295.934H169.053V296.818ZM173.564 300H172.475V292.775L170.289 293.578V292.594L173.395 291.428H173.564V300ZM182.33 300H176.74V299.221L179.693 295.939C180.131 295.443 180.432 295.041 180.596 294.732C180.764 294.42 180.848 294.098 180.848 293.766C180.848 293.32 180.713 292.955 180.443 292.67C180.174 292.385 179.814 292.242 179.365 292.242C178.826 292.242 178.406 292.396 178.105 292.705C177.809 293.01 177.66 293.436 177.66 293.982H176.576C176.576 293.197 176.828 292.562 177.332 292.078C177.84 291.594 178.518 291.352 179.365 291.352C180.158 291.352 180.785 291.561 181.246 291.979C181.707 292.393 181.938 292.945 181.938 293.637C181.938 294.477 181.402 295.477 180.332 296.637L178.047 299.115H182.33V300Z" fill="#BCB9B9"/>
<path d="M51.5293 300H45.9395V299.221L48.8926 295.939C49.3301 295.443 49.6309 295.041 49.7949 294.732C49.9629 294.42 50.0469 294.098 50.0469 293.766C50.0469 293.32 49.9121 292.955 49.6426 292.67C49.373 292.385 49.0137 292.242 48.5645 292.242C48.0254 292.242 47.6055 292.396 47.3047 292.705C47.0078 293.01 46.8594 293.436 46.8594 293.982H45.7754C45.7754 293.197 46.0273 292.562 46.5312 292.078C47.0391 291.594 47.7168 291.352 48.5645 291.352C49.3574 291.352 49.9844 291.561 50.4453 291.979C50.9062 292.393 51.1367 292.945 51.1367 293.637C51.1367 294.477 50.6016 295.477 49.5312 296.637L47.2461 299.115H51.5293V300ZM58.0273 296.361C58.0273 297.631 57.8105 298.574 57.377 299.191C56.9434 299.809 56.2656 300.117 55.3438 300.117C54.4336 300.117 53.7598 299.816 53.3223 299.215C52.8848 298.609 52.6582 297.707 52.6426 296.508V295.061C52.6426 293.807 52.8594 292.875 53.293 292.266C53.7266 291.656 54.4062 291.352 55.332 291.352C56.25 291.352 56.9258 291.646 57.3594 292.236C57.793 292.822 58.0156 293.729 58.0273 294.955V296.361ZM56.9434 294.879C56.9434 293.961 56.8145 293.293 56.5566 292.875C56.2988 292.453 55.8906 292.242 55.332 292.242C54.7773 292.242 54.373 292.451 54.1191 292.869C53.8652 293.287 53.7344 293.93 53.7266 294.797V296.531C53.7266 297.453 53.8594 298.135 54.125 298.576C54.3945 299.014 54.8008 299.232 55.3438 299.232C55.8789 299.232 56.2754 299.025 56.5332 298.611C56.7949 298.197 56.9316 297.545 56.9434 296.654V294.879ZM65.0059 300H59.416V299.221L62.3691 295.939C62.8066 295.443 63.1074 295.041 63.2715 294.732C63.4395 294.42 63.5234 294.098 63.5234 293.766C63.5234 293.32 63.3887 292.955 63.1191 292.67C62.8496 292.385 62.4902 292.242 62.041 292.242C61.502 292.242 61.082 292.396 60.7812 292.705C60.4844 293.01 60.3359 293.436 60.3359 293.982H59.252C59.252 293.197 59.5039 292.562 60.0078 292.078C60.5156 291.594 61.1934 291.352 62.041 291.352C62.834 291.352 63.4609 291.561 63.9219 291.979C64.3828 292.393 64.6133 292.945 64.6133 293.637C64.6133 294.477 64.0781 295.477 63.0078 296.637L60.7227 299.115H65.0059V300ZM69.7168 300H68.627V292.775L66.4414 293.578V292.594L69.5469 291.428H69.7168V300ZM75.2598 296.818H72.4004V295.934H75.2598V296.818ZM79.7715 300H78.6816V292.775L76.4961 293.578V292.594L79.6016 291.428H79.7715V300ZM88.2969 296.361C88.2969 297.631 88.0801 298.574 87.6465 299.191C87.2129 299.809 86.5352 300.117 85.6133 300.117C84.7031 300.117 84.0293 299.816 83.5918 299.215C83.1543 298.609 82.9277 297.707 82.9121 296.508V295.061C82.9121 293.807 83.1289 292.875 83.5625 292.266C83.9961 291.656 84.6758 291.352 85.6016 291.352C86.5195 291.352 87.1953 291.646 87.6289 292.236C88.0625 292.822 88.2852 293.729 88.2969 294.955V296.361ZM87.2129 294.879C87.2129 293.961 87.084 293.293 86.8262 292.875C86.5684 292.453 86.1602 292.242 85.6016 292.242C85.0469 292.242 84.6426 292.451 84.3887 292.869C84.1348 293.287 84.0039 293.93 83.9961 294.797V296.531C83.9961 297.453 84.1289 298.135 84.3945 298.576C84.6641 299.014 85.0703 299.232 85.6133 299.232C86.1484 299.232 86.5449 299.025 86.8027 298.611C87.0645 298.197 87.2012 297.545 87.2129 296.654V294.879ZM92.0527 296.818H89.1934V295.934H92.0527V296.818ZM96.5645 300H95.4746V292.775L93.2891 293.578V292.594L96.3945 291.428H96.5645V300ZM103.303 300H102.213V292.775L100.027 293.578V292.594L103.133 291.428H103.303V300Z" fill="#BCB9B9"/>
<path d="M21.2637 269.058C21.2637 270.433 21.0288 271.455 20.5591 272.124C20.0894 272.793 19.3551 273.127 18.3564 273.127C17.3704 273.127 16.6405 272.801 16.1665 272.149C15.6925 271.493 15.4471 270.516 15.4302 269.217V267.649C15.4302 266.291 15.665 265.281 16.1348 264.621C16.6045 263.961 17.3408 263.631 18.3438 263.631C19.3382 263.631 20.0703 263.95 20.54 264.589C21.0098 265.224 21.251 266.206 21.2637 267.535V269.058ZM20.0894 267.452C20.0894 266.458 19.9497 265.734 19.6704 265.281C19.3911 264.824 18.9489 264.596 18.3438 264.596C17.7428 264.596 17.3049 264.822 17.0298 265.275C16.7547 265.728 16.613 266.424 16.6045 267.363V269.242C16.6045 270.241 16.7484 270.979 17.0361 271.458C17.3281 271.931 17.7682 272.168 18.3564 272.168C18.9362 272.168 19.3657 271.944 19.645 271.496C19.9285 271.047 20.0767 270.34 20.0894 269.375V267.452Z" fill="#BCB9B9"/>
<path d="M9.41895 192.366L9.88867 187.758H14.624V188.843H10.8853L10.606 191.363C11.0588 191.097 11.5729 190.963 12.1484 190.963C12.9906 190.963 13.6592 191.243 14.1543 191.801C14.6494 192.356 14.897 193.107 14.897 194.055C14.897 195.007 14.6388 195.758 14.1226 196.308C13.6105 196.854 12.8932 197.127 11.9707 197.127C11.154 197.127 10.4875 196.901 9.97119 196.448C9.45492 195.995 9.16081 195.369 9.08887 194.569H10.1997C10.2716 195.098 10.46 195.498 10.7646 195.769C11.0693 196.035 11.4714 196.168 11.9707 196.168C12.5166 196.168 12.944 195.982 13.2529 195.61C13.5661 195.237 13.7227 194.723 13.7227 194.067C13.7227 193.45 13.5534 192.954 13.2148 192.582C12.8805 192.205 12.4341 192.017 11.8755 192.017C11.3634 192.017 10.9614 192.129 10.6694 192.354L10.3584 192.607L9.41895 192.366ZM18.2168 193.82L17.4805 194.588V197H16.3062V187.25H17.4805V193.147L18.1089 192.392L20.248 190.132H21.6763L19.0039 193.001L21.9873 197H20.6099L18.2168 193.82Z" fill="#BCB9B9"/>
<path d="M5.43896 121H4.2583V113.173L1.89062 114.043V112.977L5.25488 111.713H5.43896V121ZM14.6748 117.058C14.6748 118.433 14.4399 119.455 13.9702 120.124C13.5005 120.793 12.7663 121.127 11.7676 121.127C10.7816 121.127 10.0516 120.801 9.57764 120.149C9.10368 119.493 8.85824 118.516 8.84131 117.217V115.649C8.84131 114.291 9.07617 113.281 9.5459 112.621C10.0156 111.961 10.752 111.631 11.7549 111.631C12.7493 111.631 13.4814 111.95 13.9512 112.589C14.4209 113.224 14.6621 114.206 14.6748 115.535V117.058ZM13.5005 115.452C13.5005 114.458 13.3608 113.734 13.0815 113.281C12.8022 112.824 12.36 112.596 11.7549 112.596C11.154 112.596 10.716 112.822 10.4409 113.275C10.1659 113.728 10.0241 114.424 10.0156 115.363V117.242C10.0156 118.241 10.1595 118.979 10.4473 119.458C10.7393 119.931 11.1794 120.168 11.7676 120.168C12.3473 120.168 12.7769 119.944 13.0562 119.496C13.3397 119.047 13.4878 118.34 13.5005 117.375V115.452ZM18.2168 117.82L17.4805 118.588V121H16.3062V111.25H17.4805V117.147L18.1089 116.392L20.248 114.132H21.6763L19.0039 117.001L21.9873 121H20.6099L18.2168 117.82Z" fill="#BCB9B9"/>
<path d="M7.63525 47H1.57959V46.1558L4.77881 42.6011C5.25277 42.0636 5.57861 41.6278 5.75635 41.2935C5.93831 40.9549 6.0293 40.6058 6.0293 40.2461C6.0293 39.7637 5.8833 39.368 5.59131 39.0591C5.29932 38.7502 4.90999 38.5957 4.42334 38.5957C3.83936 38.5957 3.38444 38.7629 3.05859 39.0972C2.73698 39.4272 2.57617 39.8885 2.57617 40.481H1.40186C1.40186 39.6304 1.6748 38.9427 2.2207 38.418C2.77083 37.8932 3.50505 37.6309 4.42334 37.6309C5.28239 37.6309 5.96159 37.8573 6.46094 38.3101C6.96029 38.7586 7.20996 39.3574 7.20996 40.1064C7.20996 41.0163 6.63021 42.0996 5.4707 43.3564L2.99512 46.0415H7.63525V47ZM14.6748 43.0581C14.6748 44.4334 14.4399 45.4554 13.9702 46.124C13.5005 46.7926 12.7663 47.127 11.7676 47.127C10.7816 47.127 10.0516 46.8011 9.57764 46.1494C9.10368 45.4935 8.85824 44.516 8.84131 43.2168V41.6489C8.84131 40.2905 9.07617 39.2812 9.5459 38.6211C10.0156 37.9609 10.752 37.6309 11.7549 37.6309C12.7493 37.6309 13.4814 37.9504 13.9512 38.5894C14.4209 39.2241 14.6621 40.2059 14.6748 41.5347V43.0581ZM13.5005 41.4521C13.5005 40.4577 13.3608 39.734 13.0815 39.2812C12.8022 38.8242 12.36 38.5957 11.7549 38.5957C11.154 38.5957 10.716 38.8221 10.4409 39.2749C10.1659 39.7277 10.0241 40.4238 10.0156 41.3633V43.2422C10.0156 44.2409 10.1595 44.9793 10.4473 45.4575C10.7393 45.9315 11.1794 46.1685 11.7676 46.1685C12.3473 46.1685 12.7769 45.9442 13.0562 45.4956C13.3397 45.047 13.4878 44.3403 13.5005 43.3755V41.4521ZM18.2168 43.8198L17.4805 44.5879V47H16.3062V37.25H17.4805V43.147L18.1089 42.3916L20.248 40.1318H21.6763L19.0039 43.001L21.9873 47H20.6099L18.2168 43.8198Z" fill="#BCB9B9"/>
<line x1="35.5" y1="2.18557e-08" x2="35.5" y2="270" stroke="#D9D9DB" stroke-dasharray="5 5"/>
<line x1="113.5" y1="2.18557e-08" x2="113.5" y2="270" stroke="#D9D9DB" stroke-dasharray="5 5"/>
<line x1="191.5" y1="2.18557e-08" x2="191.5" y2="270" stroke="#D9D9DB" stroke-dasharray="5 5"/>
<line x1="268.5" y1="2.18557e-08" x2="268.5" y2="270" stroke="#D9D9DB" stroke-dasharray="5 5"/>
<line x1="345.5" y1="2.18557e-08" x2="345.5" y2="270" stroke="#D9D9DB" stroke-dasharray="5 5"/>
<line x1="422.5" y1="2.18557e-08" x2="422.5" y2="270" stroke="#D9D9DB" stroke-dasharray="5 5"/>
<line x1="499.5" y1="2.18557e-08" x2="499.5" y2="270" stroke="#D9D9DB" stroke-dasharray="5 5"/>
<line x1="570.5" y1="2.18557e-08" x2="570.5" y2="270" stroke="#D9D9DB" stroke-dasharray="5 5"/>
<path d="M114.073 159.5H36V269H571V42.5L498.933 83.5H422.862L346.791 136L269.719 103.5L190.645 201.5L114.073 159.5Z" fill="url(#paint0_linear_411_5573)"/>
<path d="M36 159.5H114.073L190.645 201.5L269.719 103.5L346.791 136L422.862 83.5H498.933L571 42.5" stroke="#F1991D" stroke-width="3" stroke-linecap="round"/>
<circle cx="571" cy="43" r="7.5" fill="white" stroke="#F1991D"/>
<circle cx="571" cy="43" r="3" fill="#F1991D"/>
<circle cx="311" cy="271" r="8" fill="#F1991D" fill-opacity="0.26"/>
<circle cx="311" cy="271" r="3" fill="#F1991D"/>
<line x1="310.5" y1="258" x2="310.5" y2="-2.18557e-08" stroke="#F1991D" stroke-dasharray="2 2"/>
<g filter="url(#filter0_d_411_5573)">
<rect x="240" y="121" width="142" height="76" rx="20" fill="white"/>
</g>
<path d="M268.963 165.463V166.383H268.764C267.92 166.398 267.248 166.648 266.748 167.133C266.248 167.617 265.959 168.299 265.881 169.178C266.33 168.662 266.943 168.404 267.721 168.404C268.463 168.404 269.055 168.666 269.496 169.189C269.941 169.713 270.164 170.389 270.164 171.217C270.164 172.096 269.924 172.799 269.443 173.326C268.967 173.854 268.326 174.117 267.521 174.117C266.705 174.117 266.043 173.805 265.535 173.18C265.027 172.551 264.773 171.742 264.773 170.754V170.338C264.773 168.768 265.107 167.568 265.775 166.74C266.447 165.908 267.445 165.482 268.77 165.463H268.963ZM267.539 169.307C267.168 169.307 266.826 169.418 266.514 169.641C266.201 169.863 265.984 170.143 265.863 170.479V170.877C265.863 171.58 266.021 172.146 266.338 172.576C266.654 173.006 267.049 173.221 267.521 173.221C268.01 173.221 268.393 173.041 268.67 172.682C268.951 172.322 269.092 171.852 269.092 171.27C269.092 170.684 268.949 170.211 268.664 169.852C268.383 169.488 268.008 169.307 267.539 169.307ZM276.621 167.695C276.621 168.121 276.508 168.5 276.281 168.832C276.059 169.164 275.756 169.424 275.373 169.611C275.818 169.803 276.17 170.082 276.428 170.449C276.689 170.816 276.82 171.232 276.82 171.697C276.82 172.436 276.57 173.023 276.07 173.461C275.574 173.898 274.92 174.117 274.107 174.117C273.287 174.117 272.629 173.898 272.133 173.461C271.641 173.02 271.395 172.432 271.395 171.697C271.395 171.236 271.52 170.82 271.77 170.449C272.023 170.078 272.373 169.797 272.818 169.605C272.439 169.418 272.141 169.158 271.922 168.826C271.703 168.494 271.594 168.117 271.594 167.695C271.594 166.977 271.824 166.406 272.285 165.984C272.746 165.562 273.354 165.352 274.107 165.352C274.857 165.352 275.463 165.562 275.924 165.984C276.389 166.406 276.621 166.977 276.621 167.695ZM275.736 171.674C275.736 171.197 275.584 170.809 275.279 170.508C274.979 170.207 274.584 170.057 274.096 170.057C273.607 170.057 273.215 170.205 272.918 170.502C272.625 170.799 272.479 171.189 272.479 171.674C272.479 172.158 272.621 172.539 272.906 172.816C273.195 173.094 273.596 173.232 274.107 173.232C274.615 173.232 275.014 173.094 275.303 172.816C275.592 172.535 275.736 172.154 275.736 171.674ZM274.107 166.242C273.682 166.242 273.336 166.375 273.07 166.641C272.809 166.902 272.678 167.26 272.678 167.713C272.678 168.146 272.807 168.498 273.064 168.768C273.326 169.033 273.674 169.166 274.107 169.166C274.541 169.166 274.887 169.033 275.145 168.768C275.406 168.498 275.537 168.146 275.537 167.713C275.537 167.279 275.402 166.926 275.133 166.652C274.863 166.379 274.521 166.242 274.107 166.242ZM283.693 166.078L280.16 174H279.023L282.545 166.359H277.928V165.469H283.693V166.078ZM285 175.699L284.385 175.277C284.752 174.766 284.943 174.238 284.959 173.695V172.717H286.02V173.566C286.02 173.961 285.922 174.355 285.727 174.75C285.535 175.145 285.293 175.461 285 175.699ZM292.869 174H287.279V173.221L290.232 169.939C290.67 169.443 290.971 169.041 291.135 168.732C291.303 168.42 291.387 168.098 291.387 167.766C291.387 167.32 291.252 166.955 290.982 166.67C290.713 166.385 290.354 166.242 289.904 166.242C289.365 166.242 288.945 166.396 288.645 166.705C288.348 167.01 288.199 167.436 288.199 167.982H287.115C287.115 167.197 287.367 166.562 287.871 166.078C288.379 165.594 289.057 165.352 289.904 165.352C290.697 165.352 291.324 165.561 291.785 165.979C292.246 166.393 292.477 166.945 292.477 167.637C292.477 168.477 291.941 169.477 290.871 170.637L288.586 173.115H292.869V174ZM295.594 169.207H296.408C296.92 169.199 297.322 169.064 297.615 168.803C297.908 168.541 298.055 168.188 298.055 167.742C298.055 166.742 297.557 166.242 296.561 166.242C296.092 166.242 295.717 166.377 295.436 166.646C295.158 166.912 295.02 167.266 295.02 167.707H293.936C293.936 167.031 294.182 166.471 294.674 166.025C295.17 165.576 295.799 165.352 296.561 165.352C297.365 165.352 297.996 165.564 298.453 165.99C298.91 166.416 299.139 167.008 299.139 167.766C299.139 168.137 299.018 168.496 298.775 168.844C298.537 169.191 298.211 169.451 297.797 169.623C298.266 169.771 298.627 170.018 298.881 170.361C299.139 170.705 299.268 171.125 299.268 171.621C299.268 172.387 299.018 172.994 298.518 173.443C298.018 173.893 297.367 174.117 296.566 174.117C295.766 174.117 295.113 173.9 294.609 173.467C294.109 173.033 293.859 172.461 293.859 171.75H294.949C294.949 172.199 295.096 172.559 295.389 172.828C295.682 173.098 296.074 173.232 296.566 173.232C297.09 173.232 297.49 173.096 297.768 172.822C298.045 172.549 298.184 172.156 298.184 171.645C298.184 171.148 298.031 170.768 297.727 170.502C297.422 170.236 296.982 170.1 296.408 170.092H295.594V169.207ZM304.91 170.25C304.684 170.52 304.412 170.736 304.096 170.9C303.783 171.064 303.439 171.146 303.064 171.146C302.572 171.146 302.143 171.025 301.775 170.783C301.412 170.541 301.131 170.201 300.932 169.764C300.732 169.322 300.633 168.836 300.633 168.305C300.633 167.734 300.74 167.221 300.955 166.764C301.174 166.307 301.482 165.957 301.881 165.715C302.279 165.473 302.744 165.352 303.275 165.352C304.119 165.352 304.783 165.668 305.268 166.301C305.756 166.93 306 167.789 306 168.879V169.195C306 170.855 305.672 172.068 305.016 172.834C304.359 173.596 303.369 173.986 302.045 174.006H301.834V173.092H302.062C302.957 173.076 303.645 172.844 304.125 172.395C304.605 171.941 304.867 171.227 304.91 170.25ZM303.24 170.25C303.604 170.25 303.938 170.139 304.242 169.916C304.551 169.693 304.775 169.418 304.916 169.09V168.656C304.916 167.945 304.762 167.367 304.453 166.922C304.145 166.477 303.754 166.254 303.281 166.254C302.805 166.254 302.422 166.438 302.133 166.805C301.844 167.168 301.699 167.648 301.699 168.246C301.699 168.828 301.838 169.309 302.115 169.688C302.396 170.062 302.771 170.25 303.24 170.25Z" fill="#767676"/>
<path d="M268.196 148.988L270.544 141.758H272.309L268.983 151H267.428L264.114 141.758H265.873L268.196 148.988ZM274.848 151H273.306V144.132H274.848V151ZM273.21 142.348C273.21 142.111 273.285 141.914 273.433 141.758C273.585 141.601 273.801 141.523 274.08 141.523C274.359 141.523 274.575 141.601 274.728 141.758C274.88 141.914 274.956 142.111 274.956 142.348C274.956 142.581 274.88 142.776 274.728 142.932C274.575 143.084 274.359 143.161 274.08 143.161C273.801 143.161 273.585 143.084 273.433 142.932C273.285 142.776 273.21 142.581 273.21 142.348ZM279.558 151.127C278.581 151.127 277.787 150.82 277.178 150.207C276.573 149.589 276.27 148.768 276.27 147.744V147.553C276.27 146.868 276.401 146.256 276.664 145.719C276.93 145.177 277.303 144.756 277.781 144.456C278.259 144.155 278.792 144.005 279.38 144.005C280.316 144.005 281.037 144.303 281.545 144.9C282.057 145.497 282.313 146.341 282.313 147.433V148.055H277.825C277.872 148.622 278.06 149.07 278.39 149.4C278.724 149.73 279.143 149.896 279.647 149.896C280.354 149.896 280.929 149.61 281.374 149.039L282.205 149.832C281.93 150.243 281.562 150.562 281.101 150.791C280.644 151.015 280.129 151.127 279.558 151.127ZM279.374 145.243C278.951 145.243 278.608 145.391 278.346 145.687C278.088 145.983 277.923 146.396 277.851 146.925H280.79V146.811C280.756 146.294 280.618 145.905 280.377 145.643C280.136 145.376 279.801 145.243 279.374 145.243ZM289.549 148.874L290.641 144.132H292.146L290.273 151H289.003L287.531 146.284L286.083 151H284.814L282.935 144.132H284.439L285.55 148.823L286.959 144.132H288.121L289.549 148.874ZM297.027 149.134C297.027 148.859 296.913 148.649 296.684 148.505C296.46 148.361 296.085 148.235 295.561 148.125C295.036 148.014 294.598 147.875 294.247 147.706C293.476 147.333 293.091 146.794 293.091 146.087C293.091 145.494 293.341 144.999 293.84 144.602C294.34 144.204 294.974 144.005 295.745 144.005C296.566 144.005 297.228 144.208 297.731 144.614C298.239 145.021 298.493 145.547 298.493 146.195H296.951C296.951 145.899 296.841 145.653 296.621 145.458C296.401 145.26 296.109 145.16 295.745 145.16C295.406 145.16 295.129 145.238 294.913 145.395C294.701 145.552 294.596 145.761 294.596 146.023C294.596 146.26 294.695 146.444 294.894 146.576C295.093 146.707 295.495 146.84 296.1 146.976C296.705 147.107 297.179 147.265 297.522 147.452C297.869 147.634 298.125 147.854 298.29 148.112C298.459 148.37 298.544 148.683 298.544 149.051C298.544 149.669 298.288 150.171 297.776 150.556C297.264 150.937 296.593 151.127 295.764 151.127C295.201 151.127 294.699 151.025 294.259 150.822C293.819 150.619 293.476 150.34 293.231 149.984C292.986 149.629 292.863 149.246 292.863 148.835H294.361C294.382 149.199 294.52 149.481 294.773 149.68C295.027 149.874 295.364 149.972 295.783 149.972C296.189 149.972 296.498 149.896 296.709 149.743C296.921 149.587 297.027 149.383 297.027 149.134Z" fill="black"/>
<defs>
<filter id="filter0_d_411_5573" x="225" y="106" width="182" height="116" filterUnits="userSpaceOnUse" color-interpolation-filters="sRGB">
<feFlood flood-opacity="0" result="BackgroundImageFix"/>
<feColorMatrix in="SourceAlpha" type="matrix" values="0 0 0 0 0 0 0 0 0 0 0 0 0 0 0 0 0 0 127 0" result="hardAlpha"/>
<feOffset dx="5" dy="5"/>
<feGaussianBlur stdDeviation="10"/>
<feComposite in2="hardAlpha" operator="out"/>
<feColorMatrix type="matrix" values="0 0 0 0 0.988235 0 0 0 0 0.901961 0 0 0 0 0.780392 0 0 0 1 0"/>
<feBlend mode="normal" in2="BackgroundImageFix" result="effect1_dropShadow_411_5573"/>
<feBlend mode="normal" in="SourceGraphic" in2="effect1_dropShadow_411_5573" result="shape"/>
</filter>
<linearGradient id="paint0_linear_411_5573" x1="303.004" y1="118" x2="303.002" y2="269" gradientUnits="userSpaceOnUse">
<stop stop-color="#EF941C" stop-opacity="0.24"/>
<stop offset="1" stop-color="#EF941C" stop-opacity="0"/>
</linearGradient>
</defs>
</svg>
