<svg width="203" height="270" viewBox="0 0 203 270" fill="none" xmlns="http://www.w3.org/2000/svg">
<circle cx="101.5" cy="101.5" r="89" stroke="#FAFAFB" stroke-width="25"/>
<path fill-rule="evenodd" clip-rule="evenodd" d="M114 13.8562C114 17.3552 116.566 20.2966 119.977 21.077C147.252 27.3177 169.375 47.0773 178.919 72.9295C180.016 75.9028 182.779 78 185.948 78C190.606 78 194.027 73.6114 192.469 69.2219C181.409 38.0513 154.782 14.2505 121.937 7.16832C117.762 6.26822 114 9.58583 114 13.8562Z" fill="url(#paint0_linear_501_1434)"/>
<path fill-rule="evenodd" clip-rule="evenodd" d="M190.422 82C185.97 82 182.701 86.1736 183.285 90.5872C183.756 94.1578 184 97.8005 184 101.5C184 147.063 147.063 184 101.5 184C55.9365 184 19 147.063 19 101.5C19 55.9365 55.9365 19 101.5 19C101.773 19 102.047 19.0013 102.319 19.004C106.436 19.044 110 15.8542 110 11.7372C110 8.13408 107.245 5.10179 103.643 5.02332C102.93 5.0078 102.216 5 101.5 5C48.2045 5 5 48.2045 5 101.5C5 154.795 48.2045 198 101.5 198C154.795 198 198 154.795 198 101.5C198 96.753 197.657 92.086 196.995 87.5225C196.526 84.2922 193.686 82 190.422 82Z" fill="url(#paint1_linear_501_1434)"/>
<path d="M48.2578 248.625L51.9766 257.906L55.6953 248.625H57.6406V260H56.1406V255.57L56.2812 250.789L52.5469 260H51.3984L47.6719 250.812L47.8203 255.57V260H46.3203V248.625H48.2578ZM65.2812 260C65.1979 259.833 65.1302 259.536 65.0781 259.109C64.4062 259.807 63.6042 260.156 62.6719 260.156C61.8385 260.156 61.1536 259.922 60.6172 259.453C60.0859 258.979 59.8203 258.38 59.8203 257.656C59.8203 256.776 60.1536 256.094 60.8203 255.609C61.4922 255.12 62.4349 254.875 63.6484 254.875H65.0547V254.211C65.0547 253.706 64.9036 253.305 64.6016 253.008C64.2995 252.706 63.8542 252.555 63.2656 252.555C62.75 252.555 62.3177 252.685 61.9688 252.945C61.6198 253.206 61.4453 253.521 61.4453 253.891H59.9922C59.9922 253.469 60.1406 253.062 60.4375 252.672C60.7396 252.276 61.1458 251.964 61.6562 251.734C62.1719 251.505 62.737 251.391 63.3516 251.391C64.3255 251.391 65.0885 251.635 65.6406 252.125C66.1927 252.609 66.4792 253.279 66.5 254.133V258.023C66.5 258.799 66.599 259.417 66.7969 259.875V260H65.2812ZM62.8828 258.898C63.3359 258.898 63.7656 258.781 64.1719 258.547C64.5781 258.312 64.8724 258.008 65.0547 257.633V255.898H63.9219C62.151 255.898 61.2656 256.417 61.2656 257.453C61.2656 257.906 61.4167 258.26 61.7188 258.516C62.0208 258.771 62.4089 258.898 62.8828 258.898ZM70.3359 260H68.8906V248H70.3359V260ZM76.1641 260.156C75.0182 260.156 74.0859 259.781 73.3672 259.031C72.6484 258.276 72.2891 257.268 72.2891 256.008V255.742C72.2891 254.904 72.4479 254.156 72.7656 253.5C73.0885 252.839 73.5365 252.323 74.1094 251.953C74.6875 251.578 75.3125 251.391 75.9844 251.391C77.0833 251.391 77.9375 251.753 78.5469 252.477C79.1562 253.201 79.4609 254.237 79.4609 255.586V256.188H73.7344C73.7552 257.021 73.9974 257.695 74.4609 258.211C74.9297 258.721 75.5234 258.977 76.2422 258.977C76.7526 258.977 77.1849 258.872 77.5391 258.664C77.8932 258.456 78.2031 258.18 78.4688 257.836L79.3516 258.523C78.6432 259.612 77.5807 260.156 76.1641 260.156ZM75.9844 252.578C75.401 252.578 74.9115 252.792 74.5156 253.219C74.1198 253.641 73.875 254.234 73.7812 255H78.0156V254.891C77.974 254.156 77.776 253.589 77.4219 253.188C77.0677 252.781 76.5885 252.578 75.9844 252.578Z" fill="#767676"/>
<circle cx="22.5" cy="254.5" r="12.5" fill="#F2F2F2"/>
<circle cx="22.5" cy="254.5" r="5.5" fill="#3CAEF4"/>
<path d="M147.594 254.977H142.82V260H141.32V248.625H148.367V249.859H142.82V253.75H147.594V254.977ZM153.273 260.156C152.128 260.156 151.195 259.781 150.477 259.031C149.758 258.276 149.398 257.268 149.398 256.008V255.742C149.398 254.904 149.557 254.156 149.875 253.5C150.198 252.839 150.646 252.323 151.219 251.953C151.797 251.578 152.422 251.391 153.094 251.391C154.193 251.391 155.047 251.753 155.656 252.477C156.266 253.201 156.57 254.237 156.57 255.586V256.188H150.844C150.865 257.021 151.107 257.695 151.57 258.211C152.039 258.721 152.633 258.977 153.352 258.977C153.862 258.977 154.294 258.872 154.648 258.664C155.003 258.456 155.312 258.18 155.578 257.836L156.461 258.523C155.753 259.612 154.69 260.156 153.273 260.156ZM153.094 252.578C152.51 252.578 152.021 252.792 151.625 253.219C151.229 253.641 150.984 254.234 150.891 255H155.125V254.891C155.083 254.156 154.885 253.589 154.531 253.188C154.177 252.781 153.698 252.578 153.094 252.578ZM159.609 251.547L159.648 252.484C160.268 251.755 161.104 251.391 162.156 251.391C163.339 251.391 164.143 251.844 164.57 252.75C164.852 252.344 165.216 252.016 165.664 251.766C166.117 251.516 166.651 251.391 167.266 251.391C169.12 251.391 170.062 252.372 170.094 254.336V260H168.648V254.422C168.648 253.818 168.51 253.367 168.234 253.07C167.958 252.768 167.495 252.617 166.844 252.617C166.307 252.617 165.862 252.779 165.508 253.102C165.154 253.419 164.948 253.849 164.891 254.391V260H163.438V254.461C163.438 253.232 162.836 252.617 161.633 252.617C160.685 252.617 160.036 253.021 159.688 253.828V260H158.242V251.547H159.609ZM177.5 260C177.417 259.833 177.349 259.536 177.297 259.109C176.625 259.807 175.823 260.156 174.891 260.156C174.057 260.156 173.372 259.922 172.836 259.453C172.305 258.979 172.039 258.38 172.039 257.656C172.039 256.776 172.372 256.094 173.039 255.609C173.711 255.12 174.654 254.875 175.867 254.875H177.273V254.211C177.273 253.706 177.122 253.305 176.82 253.008C176.518 252.706 176.073 252.555 175.484 252.555C174.969 252.555 174.536 252.685 174.188 252.945C173.839 253.206 173.664 253.521 173.664 253.891H172.211C172.211 253.469 172.359 253.062 172.656 252.672C172.958 252.276 173.365 251.964 173.875 251.734C174.391 251.505 174.956 251.391 175.57 251.391C176.544 251.391 177.307 251.635 177.859 252.125C178.411 252.609 178.698 253.279 178.719 254.133V258.023C178.719 258.799 178.818 259.417 179.016 259.875V260H177.5ZM175.102 258.898C175.555 258.898 175.984 258.781 176.391 258.547C176.797 258.312 177.091 258.008 177.273 257.633V255.898H176.141C174.37 255.898 173.484 256.417 173.484 257.453C173.484 257.906 173.635 258.26 173.938 258.516C174.24 258.771 174.628 258.898 175.102 258.898ZM182.555 260H181.109V248H182.555V260ZM188.383 260.156C187.237 260.156 186.305 259.781 185.586 259.031C184.867 258.276 184.508 257.268 184.508 256.008V255.742C184.508 254.904 184.667 254.156 184.984 253.5C185.307 252.839 185.755 252.323 186.328 251.953C186.906 251.578 187.531 251.391 188.203 251.391C189.302 251.391 190.156 251.753 190.766 252.477C191.375 253.201 191.68 254.237 191.68 255.586V256.188H185.953C185.974 257.021 186.216 257.695 186.68 258.211C187.148 258.721 187.742 258.977 188.461 258.977C188.971 258.977 189.404 258.872 189.758 258.664C190.112 258.456 190.422 258.18 190.688 257.836L191.57 258.523C190.862 259.612 189.799 260.156 188.383 260.156ZM188.203 252.578C187.62 252.578 187.13 252.792 186.734 253.219C186.339 253.641 186.094 254.234 186 255H190.234V254.891C190.193 254.156 189.995 253.589 189.641 253.188C189.286 252.781 188.807 252.578 188.203 252.578Z" fill="#767676"/>
<circle cx="117.5" cy="254.5" r="12.5" fill="#F2F2F2"/>
<circle cx="117.5" cy="254.5" r="5.5" fill="#D183EC"/>
<defs>
<linearGradient id="paint0_linear_501_1434" x1="189.722" y1="12.09" x2="118.261" y2="77.503" gradientUnits="userSpaceOnUse">
<stop stop-color="#4DB5F5"/>
<stop offset="1" stop-color="#1DA1F2"/>
</linearGradient>
<linearGradient id="paint1_linear_501_1434" x1="189.5" y1="83" x2="109.5" y2="12" gradientUnits="userSpaceOnUse">
<stop stop-color="#D393E9"/>
<stop offset="1" stop-color="#D080EC"/>
</linearGradient>
</defs>
</svg>
