<svg width="572" height="314" viewBox="0 0 572 314" fill="none" xmlns="http://www.w3.org/2000/svg">
<path d="M76.0488 9.52808C76.0488 10.586 75.8682 11.3722 75.5068 11.8865C75.1455 12.4008 74.5807 12.658 73.8125 12.658C73.054 12.658 72.4925 12.4073 72.1279 11.906C71.7633 11.4014 71.5745 10.6495 71.5615 9.65015V8.44409C71.5615 7.39917 71.7422 6.6228 72.1035 6.11499C72.4648 5.60718 73.0312 5.35327 73.8027 5.35327C74.5677 5.35327 75.1309 5.59904 75.4922 6.09058C75.8535 6.57886 76.0391 7.33407 76.0488 8.3562V9.52808ZM75.1455 8.29272C75.1455 7.52775 75.0381 6.97111 74.8232 6.6228C74.6084 6.27124 74.2682 6.09546 73.8027 6.09546C73.3405 6.09546 73.0036 6.26961 72.792 6.61792C72.5804 6.96623 72.4714 7.50171 72.4648 8.22437V9.66968C72.4648 10.4379 72.5755 11.0059 72.7969 11.3738C73.0215 11.7384 73.36 11.9207 73.8125 11.9207C74.2585 11.9207 74.5889 11.7481 74.8037 11.4031C75.0218 11.058 75.1357 10.5144 75.1455 9.77222V8.29272Z" fill="#BCB9B9"/>
<line x1="74.5" y1="19.0603" x2="74.5" y2="48.0603" stroke="#DEE3ED" stroke-opacity="0.7" stroke-linecap="round" stroke-dasharray="1 3"/>
<path d="M196.249 12.5603H191.591V11.9109L194.052 9.17651C194.416 8.7631 194.667 8.42782 194.804 8.17065C194.944 7.91024 195.014 7.64168 195.014 7.36499C195.014 6.9939 194.901 6.68953 194.677 6.4519C194.452 6.21427 194.153 6.09546 193.778 6.09546C193.329 6.09546 192.979 6.22404 192.729 6.4812C192.481 6.73511 192.357 7.08993 192.357 7.54565H191.454C191.454 6.89136 191.664 6.36239 192.084 5.95874C192.507 5.55509 193.072 5.35327 193.778 5.35327C194.439 5.35327 194.962 5.52743 195.346 5.87573C195.73 6.22078 195.922 6.6814 195.922 7.25757C195.922 7.95744 195.476 8.79077 194.584 9.75757L192.68 11.823H196.249V12.5603ZM197.621 8.99585L197.982 5.45093H201.625V6.28589H198.749L198.534 8.22437C198.883 8.01929 199.278 7.91675 199.721 7.91675C200.369 7.91675 200.883 8.13159 201.264 8.56128C201.645 8.98771 201.835 9.56551 201.835 10.2947C201.835 11.0271 201.636 11.6049 201.239 12.0281C200.845 12.448 200.294 12.658 199.584 12.658C198.956 12.658 198.443 12.4838 198.046 12.1355C197.649 11.7872 197.423 11.3054 197.367 10.6902H198.222C198.277 11.0971 198.422 11.4047 198.656 11.613C198.891 11.8181 199.2 11.9207 199.584 11.9207C200.004 11.9207 200.333 11.7774 200.57 11.491C200.811 11.2045 200.932 10.809 200.932 10.3044C200.932 9.82918 200.801 9.44832 200.541 9.16187C200.284 8.87215 199.94 8.72729 199.511 8.72729C199.117 8.72729 198.808 8.81356 198.583 8.98608L198.344 9.1814L197.621 8.99585Z" fill="#BCB9B9"/>
<line x1="197.5" y1="19.0603" x2="197.5" y2="48.0603" stroke="#DEE3ED" stroke-opacity="0.7" stroke-linecap="round" stroke-dasharray="1 3"/>
<path d="M316.057 8.99585L316.419 5.45093H320.061V6.28589H317.185L316.97 8.22437C317.319 8.01929 317.714 7.91675 318.157 7.91675C318.805 7.91675 319.319 8.13159 319.7 8.56128C320.081 8.98771 320.271 9.56551 320.271 10.2947C320.271 11.0271 320.072 11.6049 319.675 12.0281C319.281 12.448 318.73 12.658 318.02 12.658C317.392 12.658 316.879 12.4838 316.482 12.1355C316.085 11.7872 315.859 11.3054 315.803 10.6902H316.658C316.713 11.0971 316.858 11.4047 317.092 11.613C317.327 11.8181 317.636 11.9207 318.02 11.9207C318.44 11.9207 318.769 11.7774 319.006 11.491C319.247 11.2045 319.368 10.809 319.368 10.3044C319.368 9.82918 319.238 9.44832 318.977 9.16187C318.72 8.87215 318.377 8.72729 317.947 8.72729C317.553 8.72729 317.244 8.81356 317.019 8.98608L316.78 9.1814L316.057 8.99585ZM325.715 9.52808C325.715 10.586 325.535 11.3722 325.173 11.8865C324.812 12.4008 324.247 12.658 323.479 12.658C322.721 12.658 322.159 12.4073 321.794 11.906C321.43 11.4014 321.241 10.6495 321.228 9.65015V8.44409C321.228 7.39917 321.409 6.6228 321.77 6.11499C322.131 5.60718 322.698 5.35327 323.469 5.35327C324.234 5.35327 324.797 5.59904 325.159 6.09058C325.52 6.57886 325.706 7.33407 325.715 8.3562V9.52808ZM324.812 8.29272C324.812 7.52775 324.705 6.97111 324.49 6.6228C324.275 6.27124 323.935 6.09546 323.469 6.09546C323.007 6.09546 322.67 6.26961 322.459 6.61792C322.247 6.96623 322.138 7.50171 322.131 8.22437V9.66968C322.131 10.4379 322.242 11.0059 322.463 11.3738C322.688 11.7384 323.027 11.9207 323.479 11.9207C323.925 11.9207 324.255 11.7481 324.47 11.4031C324.688 11.058 324.802 10.5144 324.812 9.77222V8.29272Z" fill="#BCB9B9"/>
<line x1="320.5" y1="19.0603" x2="320.5" y2="48.0603" stroke="#DEE3ED" stroke-opacity="0.7" stroke-linecap="round" stroke-dasharray="1 3"/>
<path d="M442.565 5.95874L439.621 12.5603H438.674L441.608 6.19312H437.761V5.45093H442.565V5.95874ZM444.006 8.99585L444.367 5.45093H448.01V6.28589H445.134L444.919 8.22437C445.267 8.01929 445.663 7.91675 446.105 7.91675C446.753 7.91675 447.268 8.13159 447.648 8.56128C448.029 8.98771 448.22 9.56551 448.22 10.2947C448.22 11.0271 448.021 11.6049 447.624 12.0281C447.23 12.448 446.678 12.658 445.969 12.658C445.34 12.658 444.828 12.4838 444.431 12.1355C444.034 11.7872 443.807 11.3054 443.752 10.6902H444.606C444.662 11.0971 444.807 11.4047 445.041 11.613C445.275 11.8181 445.585 11.9207 445.969 11.9207C446.389 11.9207 446.717 11.7774 446.955 11.491C447.196 11.2045 447.316 10.809 447.316 10.3044C447.316 9.82918 447.186 9.44832 446.926 9.16187C446.669 8.87215 446.325 8.72729 445.896 8.72729C445.502 8.72729 445.192 8.81356 444.968 8.98608L444.729 9.1814L444.006 8.99585Z" fill="#BCB9B9"/>
<line x1="443.5" y1="19.0603" x2="443.5" y2="48.0603" stroke="#DEE3ED" stroke-opacity="0.7" stroke-linecap="round" stroke-dasharray="1 3"/>
<path d="M556.714 12.5603H555.806V6.53979L553.984 7.20874V6.38843L556.572 5.41675H556.714V12.5603ZM563.818 9.52808C563.818 10.586 563.638 11.3722 563.276 11.8865C562.915 12.4008 562.35 12.658 561.582 12.658C560.824 12.658 560.262 12.4073 559.897 11.906C559.533 11.4014 559.344 10.6495 559.331 9.65015V8.44409C559.331 7.39917 559.512 6.6228 559.873 6.11499C560.234 5.60718 560.801 5.35327 561.572 5.35327C562.337 5.35327 562.9 5.59904 563.262 6.09058C563.623 6.57886 563.809 7.33407 563.818 8.3562V9.52808ZM562.915 8.29272C562.915 7.52775 562.808 6.97111 562.593 6.6228C562.378 6.27124 562.038 6.09546 561.572 6.09546C561.11 6.09546 560.773 6.26961 560.562 6.61792C560.35 6.96623 560.241 7.50171 560.234 8.22437V9.66968C560.234 10.4379 560.345 11.0059 560.566 11.3738C560.791 11.7384 561.13 11.9207 561.582 11.9207C562.028 11.9207 562.358 11.7481 562.573 11.4031C562.791 11.058 562.905 10.5144 562.915 9.77222V8.29272ZM569.434 9.52808C569.434 10.586 569.253 11.3722 568.892 11.8865C568.53 12.4008 567.965 12.658 567.197 12.658C566.439 12.658 565.877 12.4073 565.513 11.906C565.148 11.4014 564.959 10.6495 564.946 9.65015V8.44409C564.946 7.39917 565.127 6.6228 565.488 6.11499C565.85 5.60718 566.416 5.35327 567.188 5.35327C567.952 5.35327 568.516 5.59904 568.877 6.09058C569.238 6.57886 569.424 7.33407 569.434 8.3562V9.52808ZM568.53 8.29272C568.53 7.52775 568.423 6.97111 568.208 6.6228C567.993 6.27124 567.653 6.09546 567.188 6.09546C566.725 6.09546 566.388 6.26961 566.177 6.61792C565.965 6.96623 565.856 7.50171 565.85 8.22437V9.66968C565.85 10.4379 565.96 11.0059 566.182 11.3738C566.406 11.7384 566.745 11.9207 567.197 11.9207C567.643 11.9207 567.974 11.7481 568.188 11.4031C568.407 11.058 568.521 10.5144 568.53 9.77222V8.29272Z" fill="#BCB9B9"/>
<line x1="566.5" y1="19.0603" x2="566.5" y2="48.0603" stroke="#DEE3ED" stroke-opacity="0.7" stroke-linecap="round" stroke-dasharray="1 3"/>
<path d="M19.7041 36H18.7666V28.8906H19.7041V36ZM22.1357 30.7168L22.165 31.3809C22.5687 30.873 23.096 30.6191 23.7471 30.6191C24.8636 30.6191 25.4268 31.249 25.4365 32.5088V36H24.5332V32.5039C24.5299 32.123 24.4421 31.8415 24.2695 31.6592C24.1003 31.4769 23.835 31.3857 23.4736 31.3857C23.1807 31.3857 22.9235 31.4639 22.7021 31.6201C22.4808 31.7764 22.3083 31.9814 22.1846 32.2354V36H21.2812V30.7168H22.1357ZM29.875 34.5986C29.875 34.3545 29.7822 34.1657 29.5967 34.0322C29.4144 33.8955 29.0938 33.7783 28.6348 33.6807C28.179 33.583 27.8161 33.4658 27.5459 33.3291C27.279 33.1924 27.0804 33.0296 26.9502 32.8408C26.8232 32.652 26.7598 32.4274 26.7598 32.167C26.7598 31.734 26.9421 31.3678 27.3066 31.0684C27.6745 30.7689 28.1432 30.6191 28.7129 30.6191C29.3118 30.6191 29.7969 30.7738 30.168 31.083C30.5423 31.3923 30.7295 31.7878 30.7295 32.2695H29.8213C29.8213 32.0221 29.7155 31.8089 29.5039 31.6299C29.2956 31.4508 29.0319 31.3613 28.7129 31.3613C28.3841 31.3613 28.127 31.4329 27.9414 31.5762C27.7559 31.7194 27.6631 31.9066 27.6631 32.1377C27.6631 32.3558 27.7493 32.5202 27.9219 32.6309C28.0944 32.7415 28.4053 32.8473 28.8545 32.9482C29.307 33.0492 29.6732 33.1696 29.9531 33.3096C30.2331 33.4495 30.4398 33.6188 30.5732 33.8174C30.71 34.0127 30.7783 34.252 30.7783 34.5352C30.7783 35.0072 30.5895 35.3864 30.2119 35.6729C29.8343 35.9561 29.3444 36.0977 28.7422 36.0977C28.319 36.0977 27.9447 36.0228 27.6191 35.873C27.2936 35.7233 27.0381 35.515 26.8525 35.248C26.6702 34.9779 26.5791 34.6865 26.5791 34.374H27.4824C27.4987 34.6768 27.6191 34.9176 27.8438 35.0967C28.0716 35.2725 28.3711 35.3604 28.7422 35.3604C29.084 35.3604 29.3574 35.292 29.5625 35.1553C29.7708 35.0153 29.875 34.8298 29.875 34.5986ZM33.1807 29.4375V30.7168H34.167V31.415H33.1807V34.6914C33.1807 34.903 33.2246 35.0625 33.3125 35.1699C33.4004 35.2741 33.5501 35.3262 33.7617 35.3262C33.8659 35.3262 34.0091 35.3066 34.1914 35.2676V36C33.9538 36.0651 33.7227 36.0977 33.498 36.0977C33.0944 36.0977 32.79 35.9756 32.585 35.7314C32.3799 35.4873 32.2773 35.1406 32.2773 34.6914V31.415H31.3154V30.7168H32.2773V29.4375H33.1807ZM38.4883 36C38.4362 35.8958 38.3939 35.7103 38.3613 35.4434C37.9414 35.8796 37.4401 36.0977 36.8574 36.0977C36.3366 36.0977 35.9085 35.9512 35.5732 35.6582C35.2412 35.362 35.0752 34.9876 35.0752 34.5352C35.0752 33.985 35.2835 33.5586 35.7002 33.2559C36.1201 32.9499 36.7093 32.7969 37.4678 32.7969H38.3467V32.3818C38.3467 32.0661 38.2523 31.8154 38.0635 31.6299C37.8747 31.4411 37.5964 31.3467 37.2285 31.3467C36.9062 31.3467 36.6361 31.4281 36.418 31.5908C36.1999 31.7536 36.0908 31.9505 36.0908 32.1816H35.1826C35.1826 31.918 35.2754 31.6641 35.4609 31.4199C35.6497 31.1725 35.9036 30.9772 36.2227 30.834C36.5449 30.6908 36.8981 30.6191 37.2822 30.6191C37.891 30.6191 38.3678 30.7721 38.7129 31.0781C39.0579 31.3809 39.237 31.7992 39.25 32.333V34.7646C39.25 35.2497 39.3118 35.6354 39.4355 35.9219V36H38.4883ZM36.9893 35.3115C37.2725 35.3115 37.541 35.2383 37.7949 35.0918C38.0488 34.9453 38.2327 34.7549 38.3467 34.5205V33.4365H37.6387C36.5319 33.4365 35.9785 33.7604 35.9785 34.4082C35.9785 34.6914 36.0729 34.9128 36.2617 35.0723C36.4505 35.2318 36.693 35.3115 36.9893 35.3115ZM40.4512 33.3145C40.4512 32.4909 40.6416 31.8366 41.0225 31.3516C41.4033 30.8633 41.9079 30.6191 42.5361 30.6191C43.1807 30.6191 43.6836 30.847 44.0449 31.3027L44.0889 30.7168H44.9141V35.873C44.9141 36.5566 44.7106 37.0954 44.3037 37.4893C43.9001 37.8831 43.3564 38.0801 42.6729 38.0801C42.292 38.0801 41.9193 37.9987 41.5547 37.8359C41.1901 37.6732 40.9118 37.4502 40.7197 37.167L41.1885 36.625C41.5758 37.1035 42.0495 37.3428 42.6094 37.3428C43.0488 37.3428 43.3906 37.2191 43.6348 36.9717C43.8822 36.7243 44.0059 36.376 44.0059 35.9268V35.4727C43.6445 35.8893 43.1514 36.0977 42.5264 36.0977C41.9079 36.0977 41.4066 35.8486 41.0225 35.3506C40.6416 34.8525 40.4512 34.1738 40.4512 33.3145ZM41.3594 33.417C41.3594 34.0127 41.4814 34.4814 41.7256 34.8232C41.9697 35.1618 42.3115 35.3311 42.751 35.3311C43.3206 35.3311 43.7389 35.0723 44.0059 34.5547V32.1426C43.7292 31.638 43.3141 31.3857 42.7607 31.3857C42.3213 31.3857 41.9779 31.5566 41.7305 31.8984C41.4831 32.2402 41.3594 32.7464 41.3594 33.417ZM48.835 31.5273C48.6982 31.5046 48.5501 31.4932 48.3906 31.4932C47.7982 31.4932 47.3962 31.7454 47.1846 32.25V36H46.2812V30.7168H47.1602L47.1748 31.3271C47.471 30.8551 47.891 30.6191 48.4346 30.6191C48.6104 30.6191 48.7438 30.6419 48.835 30.6875V31.5273ZM52.7363 36C52.6842 35.8958 52.6419 35.7103 52.6094 35.4434C52.1895 35.8796 51.6882 36.0977 51.1055 36.0977C50.5846 36.0977 50.1566 35.9512 49.8213 35.6582C49.4893 35.362 49.3232 34.9876 49.3232 34.5352C49.3232 33.985 49.5316 33.5586 49.9482 33.2559C50.3682 32.9499 50.9574 32.7969 51.7158 32.7969H52.5947V32.3818C52.5947 32.0661 52.5003 31.8154 52.3115 31.6299C52.1227 31.4411 51.8444 31.3467 51.4766 31.3467C51.1543 31.3467 50.8841 31.4281 50.666 31.5908C50.4479 31.7536 50.3389 31.9505 50.3389 32.1816H49.4307C49.4307 31.918 49.5234 31.6641 49.709 31.4199C49.8978 31.1725 50.1517 30.9772 50.4707 30.834C50.793 30.6908 51.1462 30.6191 51.5303 30.6191C52.139 30.6191 52.6159 30.7721 52.9609 31.0781C53.306 31.3809 53.485 31.7992 53.498 32.333V34.7646C53.498 35.2497 53.5599 35.6354 53.6836 35.9219V36H52.7363ZM51.2373 35.3115C51.5205 35.3115 51.7891 35.2383 52.043 35.0918C52.2969 34.9453 52.4808 34.7549 52.5947 34.5205V33.4365H51.8867C50.7799 33.4365 50.2266 33.7604 50.2266 34.4082C50.2266 34.6914 50.321 34.9128 50.5098 35.0723C50.6986 35.2318 50.9411 35.3115 51.2373 35.3115ZM55.7637 30.7168L55.7881 31.3027C56.1755 30.847 56.6979 30.6191 57.3555 30.6191C58.0944 30.6191 58.5973 30.9023 58.8643 31.4688C59.04 31.2148 59.2679 31.0098 59.5479 30.8535C59.8311 30.6973 60.1647 30.6191 60.5488 30.6191C61.7077 30.6191 62.2969 31.2327 62.3164 32.46V36H61.4131V32.5137C61.4131 32.1361 61.3268 31.8545 61.1543 31.6689C60.9818 31.4801 60.6921 31.3857 60.2852 31.3857C59.9499 31.3857 59.6715 31.4867 59.4502 31.6885C59.2288 31.887 59.1003 32.1556 59.0645 32.4941V36H58.1562V32.5381C58.1562 31.7699 57.7803 31.3857 57.0283 31.3857C56.4359 31.3857 56.0306 31.638 55.8125 32.1426V36H54.9092V30.7168H55.7637Z" fill="#BCB9B9"/>
<rect width="137" height="18" transform="translate(74 24)" fill="url(#paint0_linear_491_1436)"/>
<rect width="201" height="18" transform="translate(211 24)" fill="url(#paint1_linear_491_1436)"/>
<rect width="67" height="18" transform="translate(412 24)" fill="url(#paint2_linear_491_1436)"/>
<path d="M22.3184 91.8604H19.335V95H18.3975V87.8906H22.8018V88.6621H19.335V91.0938H22.3184V91.8604ZM26.8789 95C26.8268 94.8958 26.7845 94.7103 26.752 94.4434C26.332 94.8796 25.8307 95.0977 25.248 95.0977C24.7272 95.0977 24.2992 94.9512 23.9639 94.6582C23.6318 94.362 23.4658 93.9876 23.4658 93.5352C23.4658 92.985 23.6742 92.5586 24.0908 92.2559C24.5107 91.9499 25.0999 91.7969 25.8584 91.7969H26.7373V91.3818C26.7373 91.0661 26.6429 90.8154 26.4541 90.6299C26.2653 90.4411 25.987 90.3467 25.6191 90.3467C25.2969 90.3467 25.0267 90.4281 24.8086 90.5908C24.5905 90.7536 24.4814 90.9505 24.4814 91.1816H23.5732C23.5732 90.918 23.666 90.6641 23.8516 90.4199C24.0404 90.1725 24.2943 89.9772 24.6133 89.834C24.9355 89.6908 25.2887 89.6191 25.6729 89.6191C26.2816 89.6191 26.7585 89.7721 27.1035 90.0781C27.4486 90.3809 27.6276 90.7992 27.6406 91.333V93.7646C27.6406 94.2497 27.7025 94.6354 27.8262 94.9219V95H26.8789ZM25.3799 94.3115C25.6631 94.3115 25.9316 94.2383 26.1855 94.0918C26.4395 93.9453 26.6234 93.7549 26.7373 93.5205V92.4365H26.0293C24.9225 92.4365 24.3691 92.7604 24.3691 93.4082C24.3691 93.6914 24.4635 93.9128 24.6523 94.0723C24.8411 94.2318 25.0837 94.3115 25.3799 94.3115ZM31.1758 94.3604C31.498 94.3604 31.7796 94.2627 32.0205 94.0674C32.2614 93.8721 32.3949 93.6279 32.4209 93.335H33.2754C33.2591 93.6377 33.1549 93.9258 32.9629 94.1992C32.7708 94.4727 32.5137 94.6908 32.1914 94.8535C31.8724 95.0163 31.5339 95.0977 31.1758 95.0977C30.4564 95.0977 29.8835 94.8584 29.457 94.3799C29.0339 93.8981 28.8223 93.2406 28.8223 92.4072V92.2559C28.8223 91.7415 28.9167 91.2842 29.1055 90.8838C29.2943 90.4834 29.5645 90.1725 29.916 89.9512C30.2708 89.7298 30.6891 89.6191 31.1709 89.6191C31.7633 89.6191 32.2549 89.7965 32.6455 90.1514C33.0394 90.5062 33.2493 90.9668 33.2754 91.5332H32.4209C32.3949 91.1914 32.2646 90.9115 32.0303 90.6934C31.7992 90.472 31.5127 90.3613 31.1709 90.3613C30.7119 90.3613 30.3555 90.5273 30.1016 90.8594C29.8509 91.1882 29.7256 91.665 29.7256 92.29V92.4609C29.7256 93.0697 29.8509 93.5384 30.1016 93.8672C30.3522 94.196 30.7103 94.3604 31.1758 94.3604ZM36.4834 95.0977C35.7673 95.0977 35.1846 94.8633 34.7354 94.3945C34.2861 93.9225 34.0615 93.2926 34.0615 92.5049V92.3389C34.0615 91.8148 34.1608 91.3477 34.3594 90.9375C34.5612 90.5241 34.8411 90.2018 35.1992 89.9707C35.5605 89.7363 35.9512 89.6191 36.3711 89.6191C37.0579 89.6191 37.5918 89.8454 37.9727 90.2979C38.3535 90.7503 38.5439 91.3981 38.5439 92.2412V92.6172H34.9648C34.9779 93.138 35.1292 93.5596 35.4189 93.8818C35.7119 94.2008 36.083 94.3604 36.5322 94.3604C36.8512 94.3604 37.1214 94.2952 37.3428 94.165C37.5641 94.0348 37.7578 93.8623 37.9238 93.6475L38.4756 94.0771C38.0329 94.7575 37.3688 95.0977 36.4834 95.0977ZM36.3711 90.3613C36.0065 90.3613 35.7005 90.4948 35.4531 90.7617C35.2057 91.0254 35.0527 91.3965 34.9941 91.875H37.6406V91.8066C37.6146 91.3477 37.4909 90.9928 37.2695 90.7422C37.0482 90.4883 36.7487 90.3613 36.3711 90.3613ZM44.0664 92.417C44.0664 93.2243 43.8809 93.8737 43.5098 94.3652C43.1387 94.8535 42.6406 95.0977 42.0156 95.0977C41.3483 95.0977 40.8324 94.8617 40.4678 94.3896L40.4238 95H39.5938V87.5H40.4971V90.2979C40.8617 89.8454 41.3646 89.6191 42.0059 89.6191C42.6471 89.6191 43.1501 89.8617 43.5146 90.3467C43.8825 90.8317 44.0664 91.4958 44.0664 92.3389V92.417ZM43.1631 92.3145C43.1631 91.6992 43.0443 91.224 42.8066 90.8887C42.569 90.5534 42.2272 90.3857 41.7812 90.3857C41.1855 90.3857 40.7575 90.6624 40.4971 91.2158V93.501C40.7738 94.0544 41.2051 94.3311 41.791 94.3311C42.224 94.3311 42.5609 94.1634 42.8018 93.8281C43.0426 93.4928 43.1631 92.9883 43.1631 92.3145ZM44.9697 92.3096C44.9697 91.792 45.0706 91.3265 45.2725 90.9131C45.4775 90.4997 45.7607 90.1807 46.1221 89.9561C46.4867 89.7314 46.9017 89.6191 47.3672 89.6191C48.0866 89.6191 48.6676 89.8682 49.1104 90.3662C49.5563 90.8643 49.7793 91.5267 49.7793 92.3535V92.417C49.7793 92.9313 49.68 93.3936 49.4814 93.8037C49.2861 94.2106 49.0046 94.528 48.6367 94.7559C48.2721 94.9837 47.8522 95.0977 47.377 95.0977C46.6608 95.0977 46.0798 94.8486 45.6338 94.3506C45.1911 93.8525 44.9697 93.1934 44.9697 92.373V92.3096ZM45.8779 92.417C45.8779 93.0029 46.013 93.4733 46.2832 93.8281C46.5566 94.1829 46.9212 94.3604 47.377 94.3604C47.8359 94.3604 48.2005 94.1813 48.4707 93.8232C48.7409 93.4619 48.876 92.9574 48.876 92.3096C48.876 91.7301 48.7376 91.2614 48.4609 90.9033C48.1875 90.542 47.8229 90.3613 47.3672 90.3613C46.9212 90.3613 46.5615 90.5387 46.2881 90.8936C46.0146 91.2484 45.8779 91.7562 45.8779 92.417ZM50.6729 92.3096C50.6729 91.792 50.7738 91.3265 50.9756 90.9131C51.1807 90.4997 51.4639 90.1807 51.8252 89.9561C52.1898 89.7314 52.6048 89.6191 53.0703 89.6191C53.7897 89.6191 54.3708 89.8682 54.8135 90.3662C55.2594 90.8643 55.4824 91.5267 55.4824 92.3535V92.417C55.4824 92.9313 55.3831 93.3936 55.1846 93.8037C54.9893 94.2106 54.7077 94.528 54.3398 94.7559C53.9753 94.9837 53.5553 95.0977 53.0801 95.0977C52.3639 95.0977 51.7829 94.8486 51.3369 94.3506C50.8942 93.8525 50.6729 93.1934 50.6729 92.373V92.3096ZM51.5811 92.417C51.5811 93.0029 51.7161 93.4733 51.9863 93.8281C52.2598 94.1829 52.6243 94.3604 53.0801 94.3604C53.5391 94.3604 53.9036 94.1813 54.1738 93.8232C54.444 93.4619 54.5791 92.9574 54.5791 92.3096C54.5791 91.7301 54.4408 91.2614 54.1641 90.9033C53.8906 90.542 53.526 90.3613 53.0703 90.3613C52.6243 90.3613 52.2646 90.5387 51.9912 90.8936C51.7178 91.2484 51.5811 91.7562 51.5811 92.417ZM58.0898 92.5537L57.5234 93.1445V95H56.6201V87.5H57.5234V92.0361L58.0068 91.4551L59.6523 89.7168H60.751L58.6953 91.9238L60.9902 95H59.9307L58.0898 92.5537Z" fill="#BCB9B9"/>
<rect width="91" height="18" transform="translate(74 83)" fill="url(#paint3_linear_491_1436)"/>
<rect width="201" height="18" transform="translate(165 83)" fill="url(#paint4_linear_491_1436)"/>
<rect width="67" height="18" transform="translate(366 83)" fill="url(#paint5_linear_491_1436)"/>
<path d="M23.8682 147.662H21.583V154H20.6504V147.662H18.3701V146.891H23.8682V147.662ZM29.1758 152.755L30.1914 148.717H31.0947L29.5566 154H28.8242L27.54 149.996L26.29 154H25.5576L24.0244 148.717H24.9229L25.9629 152.672L27.1934 148.717H27.9209L29.1758 152.755ZM32.999 154H32.0957V148.717H32.999V154ZM32.0225 147.315C32.0225 147.169 32.0664 147.045 32.1543 146.944C32.2454 146.843 32.3789 146.793 32.5547 146.793C32.7305 146.793 32.8639 146.843 32.9551 146.944C33.0462 147.045 33.0918 147.169 33.0918 147.315C33.0918 147.462 33.0462 147.584 32.9551 147.682C32.8639 147.779 32.7305 147.828 32.5547 147.828C32.3789 147.828 32.2454 147.779 32.1543 147.682C32.0664 147.584 32.0225 147.462 32.0225 147.315ZM35.6748 147.438V148.717H36.6611V149.415H35.6748V152.691C35.6748 152.903 35.7188 153.062 35.8066 153.17C35.8945 153.274 36.0443 153.326 36.2559 153.326C36.36 153.326 36.5033 153.307 36.6855 153.268V154C36.4479 154.065 36.2168 154.098 35.9922 154.098C35.5885 154.098 35.2842 153.976 35.0791 153.731C34.874 153.487 34.7715 153.141 34.7715 152.691V149.415H33.8096V148.717H34.7715V147.438H35.6748ZM38.9463 147.438V148.717H39.9326V149.415H38.9463V152.691C38.9463 152.903 38.9902 153.062 39.0781 153.17C39.166 153.274 39.3158 153.326 39.5273 153.326C39.6315 153.326 39.7747 153.307 39.957 153.268V154C39.7194 154.065 39.4883 154.098 39.2637 154.098C38.86 154.098 38.5557 153.976 38.3506 153.731C38.1455 153.487 38.043 153.141 38.043 152.691V149.415H37.0811V148.717H38.043V147.438H38.9463ZM43.1846 154.098C42.4684 154.098 41.8857 153.863 41.4365 153.395C40.9873 152.923 40.7627 152.293 40.7627 151.505V151.339C40.7627 150.815 40.862 150.348 41.0605 149.938C41.2624 149.524 41.5423 149.202 41.9004 148.971C42.2617 148.736 42.6523 148.619 43.0723 148.619C43.7591 148.619 44.293 148.845 44.6738 149.298C45.0547 149.75 45.2451 150.398 45.2451 151.241V151.617H41.666C41.679 152.138 41.8304 152.56 42.1201 152.882C42.4131 153.201 42.7842 153.36 43.2334 153.36C43.5524 153.36 43.8226 153.295 44.0439 153.165C44.2653 153.035 44.459 152.862 44.625 152.647L45.1768 153.077C44.734 153.757 44.07 154.098 43.1846 154.098ZM43.0723 149.361C42.7077 149.361 42.4017 149.495 42.1543 149.762C41.9069 150.025 41.7539 150.396 41.6953 150.875H44.3418V150.807C44.3158 150.348 44.1921 149.993 43.9707 149.742C43.7493 149.488 43.4499 149.361 43.0723 149.361ZM48.8486 149.527C48.7119 149.505 48.5638 149.493 48.4043 149.493C47.8118 149.493 47.4098 149.745 47.1982 150.25V154H46.2949V148.717H47.1738L47.1885 149.327C47.4847 148.855 47.9046 148.619 48.4482 148.619C48.624 148.619 48.7575 148.642 48.8486 148.688V149.527Z" fill="#BCB9B9"/>
<rect width="84" height="18" transform="translate(74 142)" fill="url(#paint6_linear_491_1436)"/>
<rect width="172" height="18" transform="translate(158 142)" fill="url(#paint7_linear_491_1436)"/>
<rect width="67" height="18" transform="translate(330 142)" fill="url(#paint8_linear_491_1436)"/>
<path d="M20.585 210.759L20.7217 211.696L20.9219 210.852L22.3281 205.891H23.1191L24.4912 210.852L24.6865 211.711L24.8379 210.754L25.9414 205.891H26.8838L25.1602 213H24.3057L22.8408 207.819L22.7285 207.277L22.6162 207.819L21.0977 213H20.2432L18.5244 205.891H19.4619L20.585 210.759ZM29.8232 213.098C29.1071 213.098 28.5244 212.863 28.0752 212.395C27.626 211.923 27.4014 211.293 27.4014 210.505V210.339C27.4014 209.815 27.5007 209.348 27.6992 208.938C27.901 208.524 28.181 208.202 28.5391 207.971C28.9004 207.736 29.291 207.619 29.7109 207.619C30.3978 207.619 30.9316 207.845 31.3125 208.298C31.6934 208.75 31.8838 209.398 31.8838 210.241V210.617H28.3047C28.3177 211.138 28.4691 211.56 28.7588 211.882C29.0518 212.201 29.4229 212.36 29.8721 212.36C30.1911 212.36 30.4613 212.295 30.6826 212.165C30.904 212.035 31.0977 211.862 31.2637 211.647L31.8154 212.077C31.3727 212.757 30.7087 213.098 29.8232 213.098ZM29.7109 208.361C29.3464 208.361 29.0404 208.495 28.793 208.762C28.5456 209.025 28.3926 209.396 28.334 209.875H30.9805V209.807C30.9544 209.348 30.8307 208.993 30.6094 208.742C30.388 208.488 30.0885 208.361 29.7109 208.361ZM33.915 213H33.0117V207.717H33.915V213ZM32.9385 206.315C32.9385 206.169 32.9824 206.045 33.0703 205.944C33.1615 205.843 33.2949 205.793 33.4707 205.793C33.6465 205.793 33.7799 205.843 33.8711 205.944C33.9622 206.045 34.0078 206.169 34.0078 206.315C34.0078 206.462 33.9622 206.584 33.8711 206.682C33.7799 206.779 33.6465 206.828 33.4707 206.828C33.2949 206.828 33.1615 206.779 33.0703 206.682C32.9824 206.584 32.9385 206.462 32.9385 206.315ZM39.8379 210.417C39.8379 211.224 39.6523 211.874 39.2812 212.365C38.9102 212.854 38.4121 213.098 37.7871 213.098C37.1198 213.098 36.6038 212.862 36.2393 212.39L36.1953 213H35.3652V205.5H36.2686V208.298C36.6331 207.845 37.1361 207.619 37.7773 207.619C38.4186 207.619 38.9215 207.862 39.2861 208.347C39.654 208.832 39.8379 209.496 39.8379 210.339V210.417ZM38.9346 210.314C38.9346 209.699 38.8158 209.224 38.5781 208.889C38.3405 208.553 37.9987 208.386 37.5527 208.386C36.957 208.386 36.529 208.662 36.2686 209.216V211.501C36.5452 212.054 36.9766 212.331 37.5625 212.331C37.9954 212.331 38.3324 212.163 38.5732 211.828C38.8141 211.493 38.9346 210.988 38.9346 210.314ZM40.7412 210.31C40.7412 209.792 40.8421 209.326 41.0439 208.913C41.249 208.5 41.5322 208.181 41.8936 207.956C42.2581 207.731 42.6732 207.619 43.1387 207.619C43.8581 207.619 44.4391 207.868 44.8818 208.366C45.3278 208.864 45.5508 209.527 45.5508 210.354V210.417C45.5508 210.931 45.4515 211.394 45.2529 211.804C45.0576 212.211 44.776 212.528 44.4082 212.756C44.0436 212.984 43.6237 213.098 43.1484 213.098C42.4323 213.098 41.8512 212.849 41.4053 212.351C40.9626 211.853 40.7412 211.193 40.7412 210.373V210.31ZM41.6494 210.417C41.6494 211.003 41.7845 211.473 42.0547 211.828C42.3281 212.183 42.6927 212.36 43.1484 212.36C43.6074 212.36 43.972 212.181 44.2422 211.823C44.5124 211.462 44.6475 210.957 44.6475 210.31C44.6475 209.73 44.5091 209.261 44.2324 208.903C43.959 208.542 43.5944 208.361 43.1387 208.361C42.6927 208.361 42.333 208.539 42.0596 208.894C41.7861 209.248 41.6494 209.756 41.6494 210.417Z" fill="#BCB9B9"/>
<g opacity="0.1">
<rect width="7" height="18" transform="translate(74 201)" fill="url(#paint9_linear_491_1436)"/>
</g>
<rect width="7" height="18" transform="translate(81 201)" fill="url(#paint10_linear_491_1436)"/>
<rect width="7" height="18" transform="translate(88 201)" fill="url(#paint11_linear_491_1436)"/>
<path d="M146.82 265.547V270H145.32V258.625H149.516C150.76 258.625 151.734 258.943 152.438 259.578C153.146 260.214 153.5 261.055 153.5 262.102C153.5 263.206 153.154 264.057 152.461 264.656C151.773 265.25 150.786 265.547 149.5 265.547H146.82ZM146.82 264.32H149.516C150.318 264.32 150.932 264.133 151.359 263.758C151.786 263.378 152 262.831 152 262.117C152 261.44 151.786 260.898 151.359 260.492C150.932 260.086 150.346 259.875 149.602 259.859H146.82V264.32ZM154.695 265.695C154.695 264.867 154.857 264.122 155.18 263.461C155.508 262.799 155.961 262.289 156.539 261.93C157.122 261.57 157.786 261.391 158.531 261.391C159.682 261.391 160.612 261.789 161.32 262.586C162.034 263.383 162.391 264.443 162.391 265.766V265.867C162.391 266.69 162.232 267.43 161.914 268.086C161.602 268.737 161.151 269.245 160.562 269.609C159.979 269.974 159.307 270.156 158.547 270.156C157.401 270.156 156.471 269.758 155.758 268.961C155.049 268.164 154.695 267.109 154.695 265.797V265.695ZM156.148 265.867C156.148 266.805 156.365 267.557 156.797 268.125C157.234 268.693 157.818 268.977 158.547 268.977C159.281 268.977 159.865 268.69 160.297 268.117C160.729 267.539 160.945 266.732 160.945 265.695C160.945 264.768 160.724 264.018 160.281 263.445C159.844 262.867 159.26 262.578 158.531 262.578C157.818 262.578 157.242 262.862 156.805 263.43C156.367 263.997 156.148 264.81 156.148 265.867ZM169.125 267.758C169.125 267.367 168.977 267.065 168.68 266.852C168.388 266.633 167.875 266.445 167.141 266.289C166.411 266.133 165.831 265.945 165.398 265.727C164.971 265.508 164.654 265.247 164.445 264.945C164.242 264.643 164.141 264.284 164.141 263.867C164.141 263.174 164.432 262.589 165.016 262.109C165.604 261.63 166.354 261.391 167.266 261.391C168.224 261.391 169 261.638 169.594 262.133C170.193 262.628 170.492 263.26 170.492 264.031H169.039C169.039 263.635 168.87 263.294 168.531 263.008C168.198 262.721 167.776 262.578 167.266 262.578C166.74 262.578 166.328 262.693 166.031 262.922C165.734 263.151 165.586 263.451 165.586 263.82C165.586 264.169 165.724 264.432 166 264.609C166.276 264.786 166.773 264.956 167.492 265.117C168.216 265.279 168.802 265.471 169.25 265.695C169.698 265.919 170.029 266.19 170.242 266.508C170.461 266.82 170.57 267.203 170.57 267.656C170.57 268.411 170.268 269.018 169.664 269.477C169.06 269.93 168.276 270.156 167.312 270.156C166.635 270.156 166.036 270.036 165.516 269.797C164.995 269.557 164.586 269.224 164.289 268.797C163.997 268.365 163.852 267.898 163.852 267.398H165.297C165.323 267.883 165.516 268.268 165.875 268.555C166.24 268.836 166.719 268.977 167.312 268.977C167.859 268.977 168.297 268.867 168.625 268.648C168.958 268.424 169.125 268.128 169.125 267.758ZM174.023 270H172.578V261.547H174.023V270ZM172.461 259.305C172.461 259.07 172.531 258.872 172.672 258.711C172.818 258.549 173.031 258.469 173.312 258.469C173.594 258.469 173.807 258.549 173.953 258.711C174.099 258.872 174.172 259.07 174.172 259.305C174.172 259.539 174.099 259.734 173.953 259.891C173.807 260.047 173.594 260.125 173.312 260.125C173.031 260.125 172.818 260.047 172.672 259.891C172.531 259.734 172.461 259.539 172.461 259.305ZM178.305 259.5V261.547H179.883V262.664H178.305V267.906C178.305 268.245 178.375 268.5 178.516 268.672C178.656 268.839 178.896 268.922 179.234 268.922C179.401 268.922 179.63 268.891 179.922 268.828V270C179.542 270.104 179.172 270.156 178.812 270.156C178.167 270.156 177.68 269.961 177.352 269.57C177.023 269.18 176.859 268.625 176.859 267.906V262.664H175.32V261.547H176.859V259.5H178.305ZM183.148 270H181.703V261.547H183.148V270ZM181.586 259.305C181.586 259.07 181.656 258.872 181.797 258.711C181.943 258.549 182.156 258.469 182.438 258.469C182.719 258.469 182.932 258.549 183.078 258.711C183.224 258.872 183.297 259.07 183.297 259.305C183.297 259.539 183.224 259.734 183.078 259.891C182.932 260.047 182.719 260.125 182.438 260.125C182.156 260.125 181.943 260.047 181.797 259.891C181.656 259.734 181.586 259.539 181.586 259.305ZM188.258 268.039L190.352 261.547H191.828L188.797 270H187.695L184.633 261.547H186.109L188.258 268.039ZM196.617 270.156C195.471 270.156 194.539 269.781 193.82 269.031C193.102 268.276 192.742 267.268 192.742 266.008V265.742C192.742 264.904 192.901 264.156 193.219 263.5C193.542 262.839 193.99 262.323 194.562 261.953C195.141 261.578 195.766 261.391 196.438 261.391C197.536 261.391 198.391 261.753 199 262.477C199.609 263.201 199.914 264.237 199.914 265.586V266.188H194.188C194.208 267.021 194.451 267.695 194.914 268.211C195.383 268.721 195.977 268.977 196.695 268.977C197.206 268.977 197.638 268.872 197.992 268.664C198.346 268.456 198.656 268.18 198.922 267.836L199.805 268.523C199.096 269.612 198.034 270.156 196.617 270.156ZM196.438 262.578C195.854 262.578 195.365 262.792 194.969 263.219C194.573 263.641 194.328 264.234 194.234 265H198.469V264.891C198.427 264.156 198.229 263.589 197.875 263.188C197.521 262.781 197.042 262.578 196.438 262.578Z" fill="#767676"/>
<circle cx="121.5" cy="264.5" r="12.5" fill="#F2F2F2"/>
<circle cx="121.5" cy="264.5" r="5.5" fill="#88BD7F"/>
<path d="M294.062 270H292.555L286.828 261.234V270H285.32V258.625H286.828L292.57 267.43V258.625H294.062V270ZM300.008 270.156C298.862 270.156 297.93 269.781 297.211 269.031C296.492 268.276 296.133 267.268 296.133 266.008V265.742C296.133 264.904 296.292 264.156 296.609 263.5C296.932 262.839 297.38 262.323 297.953 261.953C298.531 261.578 299.156 261.391 299.828 261.391C300.927 261.391 301.781 261.753 302.391 262.477C303 263.201 303.305 264.237 303.305 265.586V266.188H297.578C297.599 267.021 297.841 267.695 298.305 268.211C298.773 268.721 299.367 268.977 300.086 268.977C300.596 268.977 301.029 268.872 301.383 268.664C301.737 268.456 302.047 268.18 302.312 267.836L303.195 268.523C302.487 269.612 301.424 270.156 300.008 270.156ZM299.828 262.578C299.245 262.578 298.755 262.792 298.359 263.219C297.964 263.641 297.719 264.234 297.625 265H301.859V264.891C301.818 264.156 301.62 263.589 301.266 263.188C300.911 262.781 300.432 262.578 299.828 262.578ZM310.203 269.164C309.641 269.826 308.815 270.156 307.727 270.156C306.826 270.156 306.138 269.896 305.664 269.375C305.195 268.849 304.958 268.073 304.953 267.047V261.547H306.398V267.008C306.398 268.289 306.919 268.93 307.961 268.93C309.065 268.93 309.799 268.518 310.164 267.695V261.547H311.609V270H310.234L310.203 269.164ZM315.773 259.5V261.547H317.352V262.664H315.773V267.906C315.773 268.245 315.844 268.5 315.984 268.672C316.125 268.839 316.365 268.922 316.703 268.922C316.87 268.922 317.099 268.891 317.391 268.828V270C317.01 270.104 316.641 270.156 316.281 270.156C315.635 270.156 315.148 269.961 314.82 269.57C314.492 269.18 314.328 268.625 314.328 267.906V262.664H312.789V261.547H314.328V259.5H315.773ZM323.133 262.844C322.914 262.807 322.677 262.789 322.422 262.789C321.474 262.789 320.831 263.193 320.492 264V270H319.047V261.547H320.453L320.477 262.523C320.951 261.768 321.622 261.391 322.492 261.391C322.773 261.391 322.987 261.427 323.133 261.5V262.844ZM329.375 270C329.292 269.833 329.224 269.536 329.172 269.109C328.5 269.807 327.698 270.156 326.766 270.156C325.932 270.156 325.247 269.922 324.711 269.453C324.18 268.979 323.914 268.38 323.914 267.656C323.914 266.776 324.247 266.094 324.914 265.609C325.586 265.12 326.529 264.875 327.742 264.875H329.148V264.211C329.148 263.706 328.997 263.305 328.695 263.008C328.393 262.706 327.948 262.555 327.359 262.555C326.844 262.555 326.411 262.685 326.062 262.945C325.714 263.206 325.539 263.521 325.539 263.891H324.086C324.086 263.469 324.234 263.062 324.531 262.672C324.833 262.276 325.24 261.964 325.75 261.734C326.266 261.505 326.831 261.391 327.445 261.391C328.419 261.391 329.182 261.635 329.734 262.125C330.286 262.609 330.573 263.279 330.594 264.133V268.023C330.594 268.799 330.693 269.417 330.891 269.875V270H329.375ZM326.977 268.898C327.43 268.898 327.859 268.781 328.266 268.547C328.672 268.312 328.966 268.008 329.148 267.633V265.898H328.016C326.245 265.898 325.359 266.417 325.359 267.453C325.359 267.906 325.51 268.26 325.812 268.516C326.115 268.771 326.503 268.898 326.977 268.898ZM334.43 270H332.984V258H334.43V270Z" fill="#767676"/>
<circle cx="261.5" cy="264.5" r="12.5" fill="#F2F2F2"/>
<circle cx="261.5" cy="264.5" r="5.5" fill="#F1B884"/>
<path d="M429.062 270H427.555L421.828 261.234V270H420.32V258.625H421.828L427.57 267.43V258.625H429.062V270ZM435.008 270.156C433.862 270.156 432.93 269.781 432.211 269.031C431.492 268.276 431.133 267.268 431.133 266.008V265.742C431.133 264.904 431.292 264.156 431.609 263.5C431.932 262.839 432.38 262.323 432.953 261.953C433.531 261.578 434.156 261.391 434.828 261.391C435.927 261.391 436.781 261.753 437.391 262.477C438 263.201 438.305 264.237 438.305 265.586V266.188H432.578C432.599 267.021 432.841 267.695 433.305 268.211C433.773 268.721 434.367 268.977 435.086 268.977C435.596 268.977 436.029 268.872 436.383 268.664C436.737 268.456 437.047 268.18 437.312 267.836L438.195 268.523C437.487 269.612 436.424 270.156 435.008 270.156ZM434.828 262.578C434.245 262.578 433.755 262.792 433.359 263.219C432.964 263.641 432.719 264.234 432.625 265H436.859V264.891C436.818 264.156 436.62 263.589 436.266 263.188C435.911 262.781 435.432 262.578 434.828 262.578ZM439.641 265.703C439.641 264.385 439.945 263.339 440.555 262.562C441.164 261.781 441.971 261.391 442.977 261.391C444.008 261.391 444.812 261.755 445.391 262.484L445.461 261.547H446.781V269.797C446.781 270.891 446.456 271.753 445.805 272.383C445.159 273.013 444.289 273.328 443.195 273.328C442.586 273.328 441.99 273.198 441.406 272.938C440.823 272.677 440.378 272.32 440.07 271.867L440.82 271C441.44 271.766 442.198 272.148 443.094 272.148C443.797 272.148 444.344 271.951 444.734 271.555C445.13 271.159 445.328 270.602 445.328 269.883V269.156C444.75 269.823 443.961 270.156 442.961 270.156C441.971 270.156 441.169 269.758 440.555 268.961C439.945 268.164 439.641 267.078 439.641 265.703ZM441.094 265.867C441.094 266.82 441.289 267.57 441.68 268.117C442.07 268.659 442.617 268.93 443.32 268.93C444.232 268.93 444.901 268.516 445.328 267.688V263.828C444.885 263.021 444.221 262.617 443.336 262.617C442.633 262.617 442.083 262.891 441.688 263.438C441.292 263.984 441.094 264.794 441.094 265.867ZM454.188 270C454.104 269.833 454.036 269.536 453.984 269.109C453.312 269.807 452.51 270.156 451.578 270.156C450.745 270.156 450.06 269.922 449.523 269.453C448.992 268.979 448.727 268.38 448.727 267.656C448.727 266.776 449.06 266.094 449.727 265.609C450.398 265.12 451.341 264.875 452.555 264.875H453.961V264.211C453.961 263.706 453.81 263.305 453.508 263.008C453.206 262.706 452.76 262.555 452.172 262.555C451.656 262.555 451.224 262.685 450.875 262.945C450.526 263.206 450.352 263.521 450.352 263.891H448.898C448.898 263.469 449.047 263.062 449.344 262.672C449.646 262.276 450.052 261.964 450.562 261.734C451.078 261.505 451.643 261.391 452.258 261.391C453.232 261.391 453.995 261.635 454.547 262.125C455.099 262.609 455.385 263.279 455.406 264.133V268.023C455.406 268.799 455.505 269.417 455.703 269.875V270H454.188ZM451.789 268.898C452.242 268.898 452.672 268.781 453.078 268.547C453.484 268.312 453.779 268.008 453.961 267.633V265.898H452.828C451.057 265.898 450.172 266.417 450.172 267.453C450.172 267.906 450.323 268.26 450.625 268.516C450.927 268.771 451.315 268.898 451.789 268.898ZM459.633 259.5V261.547H461.211V262.664H459.633V267.906C459.633 268.245 459.703 268.5 459.844 268.672C459.984 268.839 460.224 268.922 460.562 268.922C460.729 268.922 460.958 268.891 461.25 268.828V270C460.87 270.104 460.5 270.156 460.141 270.156C459.495 270.156 459.008 269.961 458.68 269.57C458.352 269.18 458.188 268.625 458.188 267.906V262.664H456.648V261.547H458.188V259.5H459.633ZM464.477 270H463.031V261.547H464.477V270ZM462.914 259.305C462.914 259.07 462.984 258.872 463.125 258.711C463.271 258.549 463.484 258.469 463.766 258.469C464.047 258.469 464.26 258.549 464.406 258.711C464.552 258.872 464.625 259.07 464.625 259.305C464.625 259.539 464.552 259.734 464.406 259.891C464.26 260.047 464.047 260.125 463.766 260.125C463.484 260.125 463.271 260.047 463.125 259.891C462.984 259.734 462.914 259.539 462.914 259.305ZM469.586 268.039L471.68 261.547H473.156L470.125 270H469.023L465.961 261.547H467.438L469.586 268.039ZM477.945 270.156C476.799 270.156 475.867 269.781 475.148 269.031C474.43 268.276 474.07 267.268 474.07 266.008V265.742C474.07 264.904 474.229 264.156 474.547 263.5C474.87 262.839 475.318 262.323 475.891 261.953C476.469 261.578 477.094 261.391 477.766 261.391C478.865 261.391 479.719 261.753 480.328 262.477C480.938 263.201 481.242 264.237 481.242 265.586V266.188H475.516C475.536 267.021 475.779 267.695 476.242 268.211C476.711 268.721 477.305 268.977 478.023 268.977C478.534 268.977 478.966 268.872 479.32 268.664C479.674 268.456 479.984 268.18 480.25 267.836L481.133 268.523C480.424 269.612 479.362 270.156 477.945 270.156ZM477.766 262.578C477.182 262.578 476.693 262.792 476.297 263.219C475.901 263.641 475.656 264.234 475.562 265H479.797V264.891C479.755 264.156 479.557 263.589 479.203 263.188C478.849 262.781 478.37 262.578 477.766 262.578Z" fill="#767676"/>
<circle cx="396.5" cy="264.5" r="12.5" fill="#F2F2F2"/>
<circle cx="396.5" cy="264.5" r="5.5" fill="#DD6363"/>
<defs>
<linearGradient id="paint0_linear_491_1436" x1="129.389" y1="8.99976" x2="1.7982e-06" y2="8.99978" gradientUnits="userSpaceOnUse">
<stop stop-color="#FFC375"/>
<stop offset="1" stop-color="#EF941C" stop-opacity="0"/>
</linearGradient>
<linearGradient id="paint1_linear_491_1436" x1="210.571" y1="-1.82207e-05" x2="9.57142" y2="-1.33029e-05" gradientUnits="userSpaceOnUse">
<stop stop-color="#84BB7B"/>
<stop offset="1" stop-color="#A4CD9D"/>
</linearGradient>
<linearGradient id="paint2_linear_491_1436" x1="70.1905" y1="-1.82207e-05" x2="3.19047" y2="-1.76743e-05" gradientUnits="userSpaceOnUse">
<stop stop-color="#DB5E5E"/>
<stop offset="1" stop-color="#E48686"/>
</linearGradient>
<linearGradient id="paint3_linear_491_1436" x1="85.9445" y1="8.99976" x2="1.19442e-06" y2="8.99977" gradientUnits="userSpaceOnUse">
<stop stop-color="#FFC375"/>
<stop offset="1" stop-color="#EF941C" stop-opacity="0"/>
</linearGradient>
<linearGradient id="paint4_linear_491_1436" x1="210.571" y1="-1.82207e-05" x2="9.57142" y2="-1.33029e-05" gradientUnits="userSpaceOnUse">
<stop stop-color="#84BB7B"/>
<stop offset="1" stop-color="#A4CD9D"/>
</linearGradient>
<linearGradient id="paint5_linear_491_1436" x1="70.1905" y1="-1.82207e-05" x2="3.19047" y2="-1.76743e-05" gradientUnits="userSpaceOnUse">
<stop stop-color="#DB5E5E"/>
<stop offset="1" stop-color="#E48686"/>
</linearGradient>
<linearGradient id="paint6_linear_491_1436" x1="79.3333" y1="8.99976" x2="1.10254e-06" y2="8.99977" gradientUnits="userSpaceOnUse">
<stop stop-color="#FFC375"/>
<stop offset="1" stop-color="#EF941C" stop-opacity="0"/>
</linearGradient>
<linearGradient id="paint7_linear_491_1436" x1="180.19" y1="-1.82207e-05" x2="8.19047" y2="-1.46196e-05" gradientUnits="userSpaceOnUse">
<stop stop-color="#84BB7B"/>
<stop offset="1" stop-color="#A4CD9D"/>
</linearGradient>
<linearGradient id="paint8_linear_491_1436" x1="70.1905" y1="-1.82207e-05" x2="3.19047" y2="-1.76743e-05" gradientUnits="userSpaceOnUse">
<stop stop-color="#DB5E5E"/>
<stop offset="1" stop-color="#E48686"/>
</linearGradient>
<linearGradient id="paint9_linear_491_1436" x1="6.61111" y1="8.99976" x2="9.18784e-08" y2="8.99976" gradientUnits="userSpaceOnUse">
<stop stop-color="#FFC375"/>
<stop offset="1" stop-color="#EF941C" stop-opacity="0"/>
</linearGradient>
<linearGradient id="paint10_linear_491_1436" x1="7.33333" y1="-1.82207e-05" x2="0.333333" y2="-1.82148e-05" gradientUnits="userSpaceOnUse">
<stop stop-color="#84BB7B"/>
<stop offset="1" stop-color="#A4CD9D"/>
</linearGradient>
<linearGradient id="paint11_linear_491_1436" x1="7.33333" y1="-1.82207e-05" x2="0.333333" y2="-1.82148e-05" gradientUnits="userSpaceOnUse">
<stop stop-color="#DB5E5E"/>
<stop offset="1" stop-color="#E48686"/>
</linearGradient>
</defs>
</svg>
