<svg width="418" height="469" viewBox="0 0 418 469" fill="none" xmlns="http://www.w3.org/2000/svg">
<line x1="57.5" y1="66.5" x2="57.5" y2="468.5" stroke="#DEE3ED" stroke-opacity="0.7" stroke-linecap="round" stroke-dasharray="1 3"/>
<line x1="110.5" y1="66.5" x2="110.5" y2="468.5" stroke="#DEE3ED" stroke-opacity="0.7" stroke-linecap="round" stroke-dasharray="1 3"/>
<line x1="217.5" y1="66.5" x2="217.5" y2="468.5" stroke="#DEE3ED" stroke-opacity="0.7" stroke-linecap="round" stroke-dasharray="1 3"/>
<line x1="270.5" y1="66.5" x2="270.5" y2="468.5" stroke="#DEE3ED" stroke-opacity="0.7" stroke-linecap="round" stroke-dasharray="1 3"/>
<line x1="322.5" y1="66.5" x2="322.5" y2="468.5" stroke="#DEE3ED" stroke-opacity="0.7" stroke-linecap="round" stroke-dasharray="1 3"/>
<path d="M6.04883 8.96777C6.04883 10.0257 5.86816 10.8118 5.50684 11.3262C5.14551 11.8405 4.58073 12.0977 3.8125 12.0977C3.05404 12.0977 2.49251 11.847 2.12793 11.3457C1.76335 10.8411 1.57454 10.0892 1.56152 9.08984V7.88379C1.56152 6.83887 1.74219 6.0625 2.10352 5.55469C2.46484 5.04688 3.03125 4.79297 3.80273 4.79297C4.56771 4.79297 5.13086 5.03874 5.49219 5.53027C5.85352 6.01855 6.03906 6.77376 6.04883 7.7959V8.96777ZM5.14551 7.73242C5.14551 6.96745 5.03809 6.41081 4.82324 6.0625C4.6084 5.71094 4.26823 5.53516 3.80273 5.53516C3.34049 5.53516 3.00358 5.70931 2.79199 6.05762C2.5804 6.40592 2.47135 6.94141 2.46484 7.66406V9.10938C2.46484 9.8776 2.57552 10.4456 2.79688 10.8135C3.02148 11.1781 3.36003 11.3604 3.8125 11.3604C4.25846 11.3604 4.58887 11.1878 4.80371 10.8428C5.02181 10.4977 5.13574 9.9541 5.14551 9.21191V7.73242Z" fill="#BCB9B9"/>
<line x1="4.5" y1="18.5" x2="4.5" y2="47.5" stroke="#DEE3ED" stroke-opacity="0.7" stroke-linecap="round" stroke-dasharray="1 3"/>
<path d="M55.9043 8.00586H56.583C57.0094 7.99935 57.3447 7.88704 57.5889 7.66895C57.833 7.45085 57.9551 7.15625 57.9551 6.78516C57.9551 5.95182 57.54 5.53516 56.71 5.53516C56.3193 5.53516 56.0068 5.64746 55.7725 5.87207C55.5413 6.09342 55.4258 6.38802 55.4258 6.75586H54.5225C54.5225 6.19271 54.7275 5.72559 55.1377 5.35449C55.5511 4.98014 56.0752 4.79297 56.71 4.79297C57.3805 4.79297 57.9062 4.97038 58.2871 5.3252C58.668 5.68001 58.8584 6.17318 58.8584 6.80469C58.8584 7.11393 58.7575 7.41341 58.5557 7.70312C58.3571 7.99284 58.0853 8.20931 57.7402 8.35254C58.1309 8.47624 58.432 8.68132 58.6436 8.96777C58.8584 9.25423 58.9658 9.60417 58.9658 10.0176C58.9658 10.6556 58.7575 11.1618 58.3408 11.5361C57.9242 11.9105 57.3822 12.0977 56.7148 12.0977C56.0475 12.0977 55.5039 11.917 55.084 11.5557C54.6673 11.1943 54.459 10.7174 54.459 10.125H55.3672C55.3672 10.4993 55.4893 10.7988 55.7334 11.0234C55.9775 11.248 56.3047 11.3604 56.7148 11.3604C57.151 11.3604 57.4847 11.2464 57.7158 11.0186C57.9469 10.7907 58.0625 10.4635 58.0625 10.0371C58.0625 9.6237 57.9355 9.30632 57.6816 9.08496C57.4277 8.86361 57.0615 8.74967 56.583 8.74316H55.9043V8.00586ZM62.2471 8.69434L61.3779 9.59766V12H60.4404V4.89062H61.3779V8.40625L64.5371 4.89062H65.6699L62.8721 8.03027L65.8896 12H64.7666L62.2471 8.69434Z" fill="#BCB9B9"/>
<line x1="57.5" y1="18.5" x2="57.5" y2="47.5" stroke="#DEE3ED" stroke-opacity="0.7" stroke-linecap="round" stroke-dasharray="1 3"/>
<path d="M111.136 4.88574V5.65234H110.97C110.267 5.66536 109.707 5.8737 109.29 6.27734C108.873 6.68099 108.632 7.24902 108.567 7.98145C108.942 7.55176 109.453 7.33691 110.101 7.33691C110.719 7.33691 111.212 7.55501 111.58 7.99121C111.951 8.42741 112.137 8.99056 112.137 9.68066C112.137 10.4131 111.937 10.999 111.536 11.4385C111.139 11.8779 110.605 12.0977 109.935 12.0977C109.254 12.0977 108.702 11.8372 108.279 11.3164C107.856 10.7923 107.645 10.1185 107.645 9.29492V8.94824C107.645 7.63965 107.923 6.6403 108.479 5.9502C109.039 5.25684 109.871 4.90202 110.975 4.88574H111.136ZM109.949 8.08887C109.64 8.08887 109.355 8.18164 109.095 8.36719C108.834 8.55273 108.654 8.78548 108.553 9.06543V9.39746C108.553 9.9834 108.685 10.4554 108.948 10.8135C109.212 11.1715 109.541 11.3506 109.935 11.3506C110.341 11.3506 110.66 11.2008 110.892 10.9014C111.126 10.6019 111.243 10.2096 111.243 9.72461C111.243 9.23633 111.124 8.84245 110.887 8.54297C110.652 8.24023 110.34 8.08887 109.949 8.08887ZM115.247 8.69434L114.378 9.59766V12H113.44V4.89062H114.378V8.40625L117.537 4.89062H118.67L115.872 8.03027L118.89 12H117.767L115.247 8.69434Z" fill="#BCB9B9"/>
<line x1="110.5" y1="18.5" x2="110.5" y2="47.5" stroke="#DEE3ED" stroke-opacity="0.7" stroke-linecap="round" stroke-dasharray="1 3"/>
<path d="M164.053 8.875C163.864 9.09961 163.638 9.28027 163.374 9.41699C163.114 9.55371 162.827 9.62207 162.515 9.62207C162.104 9.62207 161.746 9.52116 161.44 9.31934C161.138 9.11751 160.903 8.83431 160.737 8.46973C160.571 8.10189 160.488 7.69661 160.488 7.25391C160.488 6.77865 160.578 6.35059 160.757 5.96973C160.939 5.58887 161.196 5.29753 161.528 5.0957C161.86 4.89388 162.248 4.79297 162.69 4.79297C163.394 4.79297 163.947 5.05664 164.351 5.58398C164.757 6.10807 164.961 6.82422 164.961 7.73242V7.99609C164.961 9.37956 164.688 10.3903 164.141 11.0283C163.594 11.6631 162.769 11.9886 161.665 12.0049H161.489V11.2432H161.68C162.425 11.2301 162.998 11.0365 163.398 10.6621C163.799 10.2845 164.017 9.6888 164.053 8.875ZM162.661 8.875C162.964 8.875 163.242 8.78223 163.496 8.59668C163.753 8.41113 163.94 8.18164 164.058 7.9082V7.54688C164.058 6.95443 163.929 6.47266 163.672 6.10156C163.415 5.73047 163.089 5.54492 162.695 5.54492C162.298 5.54492 161.979 5.69792 161.738 6.00391C161.497 6.30664 161.377 6.70703 161.377 7.20508C161.377 7.6901 161.493 8.09049 161.724 8.40625C161.958 8.71875 162.271 8.875 162.661 8.875ZM168.247 8.69434L167.378 9.59766V12H166.44V4.89062H167.378V8.40625L170.537 4.89062H171.67L168.872 8.03027L171.89 12H170.767L168.247 8.69434Z" fill="#BCB9B9"/>
<line x1="163.5" y1="18.5" x2="163.5" y2="47.5" stroke="#DEE3ED" stroke-opacity="0.7" stroke-linecap="round" stroke-dasharray="1 3"/>
<path d="M269.56 12H268.651V5.97949L266.83 6.64844V5.82812L269.418 4.85645H269.56V12ZM272.621 8.43555L272.982 4.89062H276.625V5.72559H273.749L273.534 7.66406C273.882 7.45898 274.278 7.35645 274.721 7.35645C275.368 7.35645 275.883 7.57129 276.264 8.00098C276.645 8.42741 276.835 9.00521 276.835 9.73438C276.835 10.4668 276.636 11.0446 276.239 11.4678C275.845 11.8877 275.294 12.0977 274.584 12.0977C273.956 12.0977 273.443 11.9235 273.046 11.5752C272.649 11.2269 272.423 10.7451 272.367 10.1299H273.222C273.277 10.5368 273.422 10.8444 273.656 11.0527C273.891 11.2578 274.2 11.3604 274.584 11.3604C275.004 11.3604 275.333 11.2171 275.57 10.9307C275.811 10.6442 275.932 10.2487 275.932 9.74414C275.932 9.26888 275.801 8.88802 275.541 8.60156C275.284 8.31185 274.94 8.16699 274.511 8.16699C274.117 8.16699 273.808 8.25326 273.583 8.42578L273.344 8.62109L272.621 8.43555ZM279.862 8.69434L278.993 9.59766V12H278.056V4.89062H278.993V8.40625L282.152 4.89062H283.285L280.487 8.03027L283.505 12H282.382L279.862 8.69434Z" fill="#BCB9B9"/>
<line x1="269.5" y1="18.5" x2="269.5" y2="47.5" stroke="#DEE3ED" stroke-opacity="0.7" stroke-linecap="round" stroke-dasharray="1 3"/>
<path d="M216.56 12H215.651V5.97949L213.83 6.64844V5.82812L216.418 4.85645H216.56V12ZM223.864 12H219.206V11.3506L221.667 8.61621C222.032 8.2028 222.282 7.86751 222.419 7.61035C222.559 7.34993 222.629 7.08138 222.629 6.80469C222.629 6.43359 222.517 6.12923 222.292 5.8916C222.067 5.65397 221.768 5.53516 221.394 5.53516C220.944 5.53516 220.594 5.66374 220.344 5.9209C220.096 6.1748 219.973 6.52962 219.973 6.98535H219.069C219.069 6.33105 219.279 5.80208 219.699 5.39844C220.122 4.99479 220.687 4.79297 221.394 4.79297C222.054 4.79297 222.577 4.96712 222.961 5.31543C223.345 5.66048 223.537 6.12109 223.537 6.69727C223.537 7.39714 223.091 8.23047 222.199 9.19727L220.295 11.2627H223.864V12ZM228.244 6.7168L228.269 7.30273C228.656 6.84701 229.178 6.61914 229.836 6.61914C230.575 6.61914 231.078 6.90234 231.345 7.46875C231.521 7.21484 231.748 7.00977 232.028 6.85352C232.312 6.69727 232.645 6.61914 233.029 6.61914C234.188 6.61914 234.777 7.23275 234.797 8.45996V12H233.894V8.51367C233.894 8.13607 233.807 7.85449 233.635 7.66895C233.462 7.48014 233.173 7.38574 232.766 7.38574C232.43 7.38574 232.152 7.48665 231.931 7.68848C231.709 7.88704 231.581 8.1556 231.545 8.49414V12H230.637V8.53809C230.637 7.76986 230.261 7.38574 229.509 7.38574C228.916 7.38574 228.511 7.63802 228.293 8.14258V12H227.39V6.7168H228.244ZM237.146 12H236.242V6.7168H237.146V12ZM236.169 5.31543C236.169 5.16895 236.213 5.04525 236.301 4.94434C236.392 4.84342 236.525 4.79297 236.701 4.79297C236.877 4.79297 237.01 4.84342 237.102 4.94434C237.193 5.04525 237.238 5.16895 237.238 5.31543C237.238 5.46191 237.193 5.58398 237.102 5.68164C237.01 5.7793 236.877 5.82812 236.701 5.82812C236.525 5.82812 236.392 5.7793 236.301 5.68164C236.213 5.58398 236.169 5.46191 236.169 5.31543ZM239.45 6.7168L239.479 7.38086C239.883 6.87305 240.41 6.61914 241.062 6.61914C242.178 6.61914 242.741 7.24902 242.751 8.50879V12H241.848V8.50391C241.844 8.12305 241.757 7.84147 241.584 7.65918C241.415 7.47689 241.149 7.38574 240.788 7.38574C240.495 7.38574 240.238 7.46387 240.017 7.62012C239.795 7.77637 239.623 7.98145 239.499 8.23535V12H238.596V6.7168H239.45Z" fill="#BCB9B9"/>
<line x1="216.5" y1="18.5" x2="216.5" y2="47.5" stroke="#DEE3ED" stroke-opacity="0.7" stroke-linecap="round" stroke-dasharray="1 3"/>
<path d="M322.56 12H321.651V5.97949L319.83 6.64844V5.82812L322.418 4.85645H322.56V12ZM329.518 6.74609C329.518 7.10091 329.423 7.41667 329.234 7.69336C329.049 7.97005 328.797 8.18652 328.478 8.34277C328.849 8.50228 329.142 8.73503 329.356 9.04102C329.575 9.34701 329.684 9.69368 329.684 10.0811C329.684 10.6963 329.475 11.1862 329.059 11.5508C328.645 11.9154 328.1 12.0977 327.423 12.0977C326.739 12.0977 326.191 11.9154 325.777 11.5508C325.367 11.1829 325.162 10.693 325.162 10.0811C325.162 9.69694 325.266 9.35026 325.475 9.04102C325.686 8.73177 325.978 8.4974 326.349 8.33789C326.033 8.18164 325.784 7.96517 325.602 7.68848C325.419 7.41178 325.328 7.09766 325.328 6.74609C325.328 6.14714 325.52 5.67188 325.904 5.32031C326.288 4.96875 326.795 4.79297 327.423 4.79297C328.048 4.79297 328.552 4.96875 328.937 5.32031C329.324 5.67188 329.518 6.14714 329.518 6.74609ZM328.78 10.0615C328.78 9.66439 328.653 9.34049 328.399 9.08984C328.149 8.83919 327.82 8.71387 327.413 8.71387C327.006 8.71387 326.679 8.83757 326.432 9.08496C326.188 9.33236 326.065 9.65788 326.065 10.0615C326.065 10.4652 326.184 10.7826 326.422 11.0137C326.663 11.2448 326.996 11.3604 327.423 11.3604C327.846 11.3604 328.178 11.2448 328.419 11.0137C328.66 10.7793 328.78 10.4619 328.78 10.0615ZM327.423 5.53516C327.068 5.53516 326.78 5.64583 326.559 5.86719C326.34 6.08529 326.231 6.38314 326.231 6.76074C326.231 7.12207 326.339 7.41504 326.554 7.63965C326.772 7.861 327.062 7.97168 327.423 7.97168C327.784 7.97168 328.072 7.861 328.287 7.63965C328.505 7.41504 328.614 7.12207 328.614 6.76074C328.614 6.39941 328.502 6.10482 328.277 5.87695C328.053 5.64909 327.768 5.53516 327.423 5.53516ZM332.862 8.69434L331.993 9.59766V12H331.056V4.89062H331.993V8.40625L335.152 4.89062H336.285L333.487 8.03027L336.505 12H335.382L332.862 8.69434Z" fill="#BCB9B9"/>
<line x1="322.5" y1="18.5" x2="322.5" y2="47.5" stroke="#DEE3ED" stroke-opacity="0.7" stroke-linecap="round" stroke-dasharray="1 3"/>
<rect x="4" y="50" width="329" height="14" rx="4" fill="url(#paint0_linear_575_1437)"/>
<path d="M5.7627 37.2168V40H4.8252V32.8906H7.44727C8.22526 32.8906 8.83398 33.0892 9.27344 33.4863C9.71615 33.8835 9.9375 34.4092 9.9375 35.0635C9.9375 35.7536 9.72103 36.2858 9.28809 36.6602C8.8584 37.0312 8.24154 37.2168 7.4375 37.2168H5.7627ZM5.7627 36.4502H7.44727C7.94857 36.4502 8.33268 36.333 8.59961 36.0986C8.86654 35.861 9 35.5192 9 35.0732C9 34.6501 8.86654 34.3115 8.59961 34.0576C8.33268 33.8037 7.96647 33.6719 7.50098 33.6621H5.7627V36.4502ZM11.8955 35.3564C12.2959 34.8649 12.8167 34.6191 13.458 34.6191C14.5745 34.6191 15.1377 35.249 15.1475 36.5088V40H14.2441V36.5039C14.2409 36.123 14.153 35.8415 13.9805 35.6592C13.8112 35.4769 13.5459 35.3857 13.1846 35.3857C12.8916 35.3857 12.6344 35.4639 12.4131 35.6201C12.1917 35.7764 12.0192 35.9814 11.8955 36.2354V40H10.9922V32.5H11.8955V35.3564ZM17.4814 40H16.5781V34.7168H17.4814V40ZM16.5049 33.3154C16.5049 33.1689 16.5488 33.0452 16.6367 32.9443C16.7279 32.8434 16.8613 32.793 17.0371 32.793C17.2129 32.793 17.3464 32.8434 17.4375 32.9443C17.5286 33.0452 17.5742 33.1689 17.5742 33.3154C17.5742 33.4619 17.5286 33.584 17.4375 33.6816C17.3464 33.7793 17.2129 33.8281 17.0371 33.8281C16.8613 33.8281 16.7279 33.7793 16.6367 33.6816C16.5488 33.584 16.5049 33.4619 16.5049 33.3154ZM19.9131 40H19.0098V32.5H19.9131V40ZM22.3447 40H21.4414V34.7168H22.3447V40ZM21.3682 33.3154C21.3682 33.1689 21.4121 33.0452 21.5 32.9443C21.5911 32.8434 21.7246 32.793 21.9004 32.793C22.0762 32.793 22.2096 32.8434 22.3008 32.9443C22.3919 33.0452 22.4375 33.1689 22.4375 33.3154C22.4375 33.4619 22.3919 33.584 22.3008 33.6816C22.2096 33.7793 22.0762 33.8281 21.9004 33.8281C21.7246 33.8281 21.5911 33.7793 21.5 33.6816C21.4121 33.584 21.3682 33.4619 21.3682 33.3154ZM28.2578 37.417C28.2578 38.221 28.0739 38.8688 27.7061 39.3604C27.3382 39.8519 26.8402 40.0977 26.2119 40.0977C25.5706 40.0977 25.0661 39.8942 24.6982 39.4873V42.0312H23.7949V34.7168H24.6201L24.6641 35.3027C25.0319 34.847 25.543 34.6191 26.1973 34.6191C26.832 34.6191 27.3333 34.8584 27.7012 35.3369C28.0723 35.8154 28.2578 36.4811 28.2578 37.334V37.417ZM27.3545 37.3145C27.3545 36.7188 27.2275 36.2484 26.9736 35.9033C26.7197 35.5583 26.3714 35.3857 25.9287 35.3857C25.3818 35.3857 24.9717 35.6283 24.6982 36.1133V38.6377C24.9684 39.1195 25.3818 39.3604 25.9385 39.3604C26.3714 39.3604 26.7148 39.1895 26.9688 38.8477C27.2259 38.5026 27.3545 37.9915 27.3545 37.3145ZM30.3916 40H29.4883V34.7168H30.3916V40ZM29.415 33.3154C29.415 33.1689 29.459 33.0452 29.5469 32.9443C29.638 32.8434 29.7715 32.793 29.9473 32.793C30.123 32.793 30.2565 32.8434 30.3477 32.9443C30.4388 33.0452 30.4844 33.1689 30.4844 33.3154C30.4844 33.4619 30.4388 33.584 30.3477 33.6816C30.2565 33.7793 30.123 33.8281 29.9473 33.8281C29.7715 33.8281 29.638 33.7793 29.5469 33.6816C29.459 33.584 29.415 33.4619 29.415 33.3154ZM32.6963 34.7168L32.7256 35.3809C33.1292 34.873 33.6566 34.6191 34.3076 34.6191C35.4242 34.6191 35.9873 35.249 35.9971 36.5088V40H35.0938V36.5039C35.0905 36.123 35.0026 35.8415 34.8301 35.6592C34.6608 35.4769 34.3955 35.3857 34.0342 35.3857C33.7412 35.3857 33.484 35.4639 33.2627 35.6201C33.0413 35.7764 32.8688 35.9814 32.7451 36.2354V40H31.8418V34.7168H32.6963ZM39.5518 40.0977C38.8356 40.0977 38.2529 39.8633 37.8037 39.3945C37.3545 38.9225 37.1299 38.2926 37.1299 37.5049V37.3389C37.1299 36.8148 37.2292 36.3477 37.4277 35.9375C37.6296 35.5241 37.9095 35.2018 38.2676 34.9707C38.6289 34.7363 39.0195 34.6191 39.4395 34.6191C40.1263 34.6191 40.6602 34.8454 41.041 35.2979C41.4219 35.7503 41.6123 36.3981 41.6123 37.2412V37.6172H38.0332C38.0462 38.138 38.1976 38.5596 38.4873 38.8818C38.7803 39.2008 39.1514 39.3604 39.6006 39.3604C39.9196 39.3604 40.1898 39.2952 40.4111 39.165C40.6325 39.0348 40.8262 38.8623 40.9922 38.6475L41.5439 39.0771C41.1012 39.7575 40.4372 40.0977 39.5518 40.0977ZM39.4395 35.3613C39.0749 35.3613 38.7689 35.4948 38.5215 35.7617C38.2741 36.0254 38.1211 36.3965 38.0625 36.875H40.709V36.8066C40.6829 36.3477 40.5592 35.9928 40.3379 35.7422C40.1165 35.4883 39.8171 35.3613 39.4395 35.3613ZM45.7383 38.5986C45.7383 38.3545 45.6455 38.1657 45.46 38.0322C45.2777 37.8955 44.957 37.7783 44.498 37.6807C44.0423 37.583 43.6794 37.4658 43.4092 37.3291C43.1423 37.1924 42.9437 37.0296 42.8135 36.8408C42.6865 36.652 42.623 36.4274 42.623 36.167C42.623 35.734 42.8053 35.3678 43.1699 35.0684C43.5378 34.7689 44.0065 34.6191 44.5762 34.6191C45.1751 34.6191 45.6602 34.7738 46.0312 35.083C46.4056 35.3923 46.5928 35.7878 46.5928 36.2695H45.6846C45.6846 36.0221 45.5788 35.8089 45.3672 35.6299C45.1589 35.4508 44.8952 35.3613 44.5762 35.3613C44.2474 35.3613 43.9902 35.4329 43.8047 35.5762C43.6191 35.7194 43.5264 35.9066 43.5264 36.1377C43.5264 36.3558 43.6126 36.5202 43.7852 36.6309C43.9577 36.7415 44.2686 36.8473 44.7178 36.9482C45.1702 37.0492 45.5365 37.1696 45.8164 37.3096C46.0964 37.4495 46.3031 37.6188 46.4365 37.8174C46.5732 38.0127 46.6416 38.252 46.6416 38.5352C46.6416 39.0072 46.4528 39.3864 46.0752 39.6729C45.6976 39.9561 45.2077 40.0977 44.6055 40.0977C44.1823 40.0977 43.8079 40.0228 43.4824 39.873C43.1569 39.7233 42.9014 39.515 42.7158 39.248C42.5335 38.9779 42.4424 38.6865 42.4424 38.374H43.3457C43.362 38.6768 43.4824 38.9176 43.707 39.0967C43.9349 39.2725 44.2344 39.3604 44.6055 39.3604C44.9473 39.3604 45.2207 39.292 45.4258 39.1553C45.6341 39.0153 45.7383 38.8298 45.7383 38.5986Z" fill="#767676"/>
<rect x="4" y="140" width="279" height="14" rx="4" fill="url(#paint1_linear_575_1437)"/>
<path d="M6.03613 122.891L8.36035 128.691L10.6846 122.891H11.9004V130H10.9629V127.231L11.0508 124.243L8.7168 130H7.99902L5.66992 124.258L5.7627 127.231V130H4.8252V122.891H6.03613ZM16.6758 130C16.6237 129.896 16.5814 129.71 16.5488 129.443C16.1289 129.88 15.6276 130.098 15.0449 130.098C14.5241 130.098 14.096 129.951 13.7607 129.658C13.4287 129.362 13.2627 128.988 13.2627 128.535C13.2627 127.985 13.471 127.559 13.8877 127.256C14.3076 126.95 14.8968 126.797 15.6553 126.797H16.5342V126.382C16.5342 126.066 16.4398 125.815 16.251 125.63C16.0622 125.441 15.7839 125.347 15.416 125.347C15.0938 125.347 14.8236 125.428 14.6055 125.591C14.3874 125.754 14.2783 125.951 14.2783 126.182H13.3701C13.3701 125.918 13.4629 125.664 13.6484 125.42C13.8372 125.173 14.0911 124.977 14.4102 124.834C14.7324 124.691 15.0856 124.619 15.4697 124.619C16.0785 124.619 16.5553 124.772 16.9004 125.078C17.2454 125.381 17.4245 125.799 17.4375 126.333V128.765C17.4375 129.25 17.4993 129.635 17.623 129.922V130H16.6758ZM15.1768 129.312C15.46 129.312 15.7285 129.238 15.9824 129.092C16.2363 128.945 16.4202 128.755 16.5342 128.521V127.437H15.8262C14.7194 127.437 14.166 127.76 14.166 128.408C14.166 128.691 14.2604 128.913 14.4492 129.072C14.638 129.232 14.8805 129.312 15.1768 129.312ZM19.835 130H18.9316V122.5H19.835V130ZM24.5469 130C24.4948 129.896 24.4525 129.71 24.4199 129.443C24 129.88 23.4987 130.098 22.916 130.098C22.3952 130.098 21.9671 129.951 21.6318 129.658C21.2998 129.362 21.1338 128.988 21.1338 128.535C21.1338 127.985 21.3421 127.559 21.7588 127.256C22.1787 126.95 22.7679 126.797 23.5264 126.797H24.4053V126.382C24.4053 126.066 24.3109 125.815 24.1221 125.63C23.9333 125.441 23.6549 125.347 23.2871 125.347C22.9648 125.347 22.6947 125.428 22.4766 125.591C22.2585 125.754 22.1494 125.951 22.1494 126.182H21.2412C21.2412 125.918 21.334 125.664 21.5195 125.42C21.7083 125.173 21.9622 124.977 22.2812 124.834C22.6035 124.691 22.9567 124.619 23.3408 124.619C23.9495 124.619 24.4264 124.772 24.7715 125.078C25.1165 125.381 25.2956 125.799 25.3086 126.333V128.765C25.3086 129.25 25.3704 129.635 25.4941 129.922V130H24.5469ZM23.0479 129.312C23.3311 129.312 23.5996 129.238 23.8535 129.092C24.1074 128.945 24.2913 128.755 24.4053 128.521V127.437H23.6973C22.5905 127.437 22.0371 127.76 22.0371 128.408C22.0371 128.691 22.1315 128.913 22.3203 129.072C22.5091 129.232 22.7516 129.312 23.0479 129.312ZM28.375 128.677L29.6055 124.717H30.5723L28.4482 130.815C28.1195 131.694 27.597 132.134 26.8809 132.134L26.71 132.119L26.373 132.056V131.323L26.6172 131.343C26.9232 131.343 27.1608 131.281 27.3301 131.157C27.5026 131.034 27.6442 130.807 27.7549 130.479L27.9551 129.941L26.0703 124.717H27.0566L28.375 128.677ZM34.459 128.599C34.459 128.354 34.3662 128.166 34.1807 128.032C33.9984 127.896 33.6777 127.778 33.2188 127.681C32.763 127.583 32.4001 127.466 32.1299 127.329C31.863 127.192 31.6644 127.03 31.5342 126.841C31.4072 126.652 31.3438 126.427 31.3438 126.167C31.3438 125.734 31.526 125.368 31.8906 125.068C32.2585 124.769 32.7272 124.619 33.2969 124.619C33.8958 124.619 34.3809 124.774 34.752 125.083C35.1263 125.392 35.3135 125.788 35.3135 126.27H34.4053C34.4053 126.022 34.2995 125.809 34.0879 125.63C33.8796 125.451 33.6159 125.361 33.2969 125.361C32.9681 125.361 32.7109 125.433 32.5254 125.576C32.3398 125.719 32.2471 125.907 32.2471 126.138C32.2471 126.356 32.3333 126.52 32.5059 126.631C32.6784 126.742 32.9893 126.847 33.4385 126.948C33.891 127.049 34.2572 127.17 34.5371 127.31C34.8171 127.45 35.0238 127.619 35.1572 127.817C35.2939 128.013 35.3623 128.252 35.3623 128.535C35.3623 129.007 35.1735 129.386 34.7959 129.673C34.4183 129.956 33.9284 130.098 33.3262 130.098C32.903 130.098 32.5286 130.023 32.2031 129.873C31.8776 129.723 31.6221 129.515 31.4365 129.248C31.2542 128.978 31.1631 128.687 31.1631 128.374H32.0664C32.0827 128.677 32.2031 128.918 32.4277 129.097C32.6556 129.272 32.9551 129.36 33.3262 129.36C33.668 129.36 33.9414 129.292 34.1465 129.155C34.3548 129.015 34.459 128.83 34.459 128.599ZM37.5205 130H36.6172V124.717H37.5205V130ZM36.5439 123.315C36.5439 123.169 36.5879 123.045 36.6758 122.944C36.7669 122.843 36.9004 122.793 37.0762 122.793C37.252 122.793 37.3854 122.843 37.4766 122.944C37.5677 123.045 37.6133 123.169 37.6133 123.315C37.6133 123.462 37.5677 123.584 37.4766 123.682C37.3854 123.779 37.252 123.828 37.0762 123.828C36.9004 123.828 36.7669 123.779 36.6758 123.682C36.5879 123.584 36.5439 123.462 36.5439 123.315ZM42.2324 130C42.1803 129.896 42.138 129.71 42.1055 129.443C41.6855 129.88 41.1842 130.098 40.6016 130.098C40.0807 130.098 39.6527 129.951 39.3174 129.658C38.9854 129.362 38.8193 128.988 38.8193 128.535C38.8193 127.985 39.0277 127.559 39.4443 127.256C39.8643 126.95 40.4535 126.797 41.2119 126.797H42.0908V126.382C42.0908 126.066 41.9964 125.815 41.8076 125.63C41.6188 125.441 41.3405 125.347 40.9727 125.347C40.6504 125.347 40.3802 125.428 40.1621 125.591C39.944 125.754 39.835 125.951 39.835 126.182H38.9268C38.9268 125.918 39.0195 125.664 39.2051 125.42C39.3939 125.173 39.6478 124.977 39.9668 124.834C40.2891 124.691 40.6423 124.619 41.0264 124.619C41.6351 124.619 42.112 124.772 42.457 125.078C42.8021 125.381 42.9811 125.799 42.9941 126.333V128.765C42.9941 129.25 43.056 129.635 43.1797 129.922V130H42.2324ZM40.7334 129.312C41.0166 129.312 41.2852 129.238 41.5391 129.092C41.793 128.945 41.9769 128.755 42.0908 128.521V127.437H41.3828C40.276 127.437 39.7227 127.76 39.7227 128.408C39.7227 128.691 39.8171 128.913 40.0059 129.072C40.1947 129.232 40.4372 129.312 40.7334 129.312Z" fill="#767676"/>
<rect x="4" y="95" width="298" height="14" rx="4" fill="url(#paint2_linear_575_1437)"/>
<path d="M6.03613 77.8906L8.36035 83.6914L10.6846 77.8906H11.9004V85H10.9629V82.2314L11.0508 79.2432L8.7168 85H7.99902L5.66992 79.2578L5.7627 82.2314V85H4.8252V77.8906H6.03613ZM15.1426 83.6768L16.373 79.7168H17.3398L15.2158 85.8154C14.887 86.6943 14.3646 87.1338 13.6484 87.1338L13.4775 87.1191L13.1406 87.0557V86.3232L13.3848 86.3428C13.6908 86.3428 13.9284 86.2809 14.0977 86.1572C14.2702 86.0335 14.4118 85.8073 14.5225 85.4785L14.7227 84.9414L12.8379 79.7168H13.8242L15.1426 83.6768ZM21.334 85C21.2819 84.8958 21.2396 84.7103 21.207 84.4434C20.7871 84.8796 20.2858 85.0977 19.7031 85.0977C19.1823 85.0977 18.7542 84.9512 18.4189 84.6582C18.0869 84.362 17.9209 83.9876 17.9209 83.5352C17.9209 82.985 18.1292 82.5586 18.5459 82.2559C18.9658 81.9499 19.555 81.7969 20.3135 81.7969H21.1924V81.3818C21.1924 81.0661 21.098 80.8154 20.9092 80.6299C20.7204 80.4411 20.4421 80.3467 20.0742 80.3467C19.752 80.3467 19.4818 80.4281 19.2637 80.5908C19.0456 80.7536 18.9365 80.9505 18.9365 81.1816H18.0283C18.0283 80.918 18.1211 80.6641 18.3066 80.4199C18.4954 80.1725 18.7493 79.9772 19.0684 79.834C19.3906 79.6908 19.7438 79.6191 20.1279 79.6191C20.7367 79.6191 21.2135 79.7721 21.5586 80.0781C21.9036 80.3809 22.0827 80.7992 22.0957 81.333V83.7646C22.0957 84.2497 22.1576 84.6354 22.2812 84.9219V85H21.334ZM19.835 84.3115C20.1182 84.3115 20.3867 84.2383 20.6406 84.0918C20.8945 83.9453 21.0785 83.7549 21.1924 83.5205V82.4365H20.4844C19.3776 82.4365 18.8242 82.7604 18.8242 83.4082C18.8242 83.6914 18.9186 83.9128 19.1074 84.0723C19.2962 84.2318 19.5387 84.3115 19.835 84.3115ZM24.3662 79.7168L24.3955 80.3809C24.7992 79.873 25.3265 79.6191 25.9775 79.6191C27.0941 79.6191 27.6572 80.249 27.667 81.5088V85H26.7637V81.5039C26.7604 81.123 26.6725 80.8415 26.5 80.6592C26.3307 80.4769 26.0654 80.3857 25.7041 80.3857C25.4111 80.3857 25.154 80.4639 24.9326 80.6201C24.7113 80.7764 24.5387 80.9814 24.415 81.2354V85H23.5117V79.7168H24.3662ZM29.8789 79.7168L29.9033 80.3027C30.2907 79.847 30.8132 79.6191 31.4707 79.6191C32.2096 79.6191 32.7126 79.9023 32.9795 80.4688C33.1553 80.2148 33.3831 80.0098 33.6631 79.8535C33.9463 79.6973 34.2799 79.6191 34.6641 79.6191C35.8229 79.6191 36.4121 80.2327 36.4316 81.46V85H35.5283V81.5137C35.5283 81.1361 35.4421 80.8545 35.2695 80.6689C35.097 80.4801 34.8073 80.3857 34.4004 80.3857C34.0651 80.3857 33.7868 80.4867 33.5654 80.6885C33.3441 80.887 33.2155 81.1556 33.1797 81.4941V85H32.2715V81.5381C32.2715 80.7699 31.8955 80.3857 31.1436 80.3857C30.5511 80.3857 30.1458 80.638 29.9277 81.1426V85H29.0244V79.7168H29.8789ZM41.0605 85C41.0085 84.8958 40.9661 84.7103 40.9336 84.4434C40.5137 84.8796 40.0124 85.0977 39.4297 85.0977C38.9089 85.0977 38.4808 84.9512 38.1455 84.6582C37.8135 84.362 37.6475 83.9876 37.6475 83.5352C37.6475 82.985 37.8558 82.5586 38.2725 82.2559C38.6924 81.9499 39.2816 81.7969 40.04 81.7969H40.9189V81.3818C40.9189 81.0661 40.8245 80.8154 40.6357 80.6299C40.4469 80.4411 40.1686 80.3467 39.8008 80.3467C39.4785 80.3467 39.2083 80.4281 38.9902 80.5908C38.7721 80.7536 38.6631 80.9505 38.6631 81.1816H37.7549C37.7549 80.918 37.8477 80.6641 38.0332 80.4199C38.222 80.1725 38.4759 79.9772 38.7949 79.834C39.1172 79.6908 39.4704 79.6191 39.8545 79.6191C40.4632 79.6191 40.9401 79.7721 41.2852 80.0781C41.6302 80.3809 41.8092 80.7992 41.8223 81.333V83.7646C41.8223 84.2497 41.8841 84.6354 42.0078 84.9219V85H41.0605ZM39.5615 84.3115C39.8447 84.3115 40.1133 84.2383 40.3672 84.0918C40.6211 83.9453 40.805 83.7549 40.9189 83.5205V82.4365H40.2109C39.1042 82.4365 38.5508 82.7604 38.5508 83.4082C38.5508 83.6914 38.6452 83.9128 38.834 84.0723C39.0228 84.2318 39.2653 84.3115 39.5615 84.3115ZM45.792 80.5273C45.6553 80.5046 45.5072 80.4932 45.3477 80.4932C44.7552 80.4932 44.3532 80.7454 44.1416 81.25V85H43.2383V79.7168H44.1172L44.1318 80.3271C44.4281 79.8551 44.848 79.6191 45.3916 79.6191C45.5674 79.6191 45.7008 79.6419 45.792 79.6875V80.5273ZM49.0732 82.1143C49.0732 81.3786 49.1709 80.6722 49.3662 79.9951C49.5648 79.318 49.8594 78.7028 50.25 78.1494C50.6406 77.596 51.0459 77.2054 51.4658 76.9775L51.6514 77.5732C51.1761 77.9378 50.7855 78.4945 50.4795 79.2432C50.1768 79.9919 50.0107 80.8301 49.9814 81.7578L49.9766 82.1729C49.9766 83.4294 50.2061 84.5199 50.665 85.4443C50.9417 85.9977 51.2705 86.4307 51.6514 86.7432L51.4658 87.2949C51.0329 87.054 50.6195 86.6504 50.2256 86.084C49.4574 84.9772 49.0732 83.654 49.0732 82.1143ZM52.667 85V77.8906H54.9912C55.7627 77.8906 56.3421 78.0501 56.7295 78.3691C57.1201 78.6882 57.3154 79.1602 57.3154 79.7852C57.3154 80.1172 57.221 80.4118 57.0322 80.6689C56.8434 80.9229 56.5863 81.1198 56.2607 81.2598C56.6449 81.3672 56.9476 81.5723 57.1689 81.875C57.3936 82.1745 57.5059 82.5326 57.5059 82.9492C57.5059 83.5872 57.2992 84.0885 56.8857 84.4531C56.4723 84.8177 55.888 85 55.1328 85H52.667ZM53.6045 81.6748V84.2334H55.1523C55.5885 84.2334 55.932 84.1211 56.1826 83.8965C56.4365 83.6686 56.5635 83.3561 56.5635 82.959C56.5635 82.1029 56.098 81.6748 55.167 81.6748H53.6045ZM53.6045 80.9229H55.0205C55.4307 80.9229 55.7578 80.8203 56.002 80.6152C56.2493 80.4102 56.373 80.1318 56.373 79.7803C56.373 79.3896 56.2591 79.1064 56.0312 78.9307C55.8034 78.7516 55.4567 78.6621 54.9912 78.6621H53.6045V80.9229ZM62.0176 84.4775C61.666 84.891 61.1501 85.0977 60.4697 85.0977C59.9066 85.0977 59.4769 84.9349 59.1807 84.6094C58.8877 84.2806 58.7396 83.7956 58.7363 83.1543V79.7168H59.6396V83.1299C59.6396 83.9307 59.9652 84.3311 60.6162 84.3311C61.3063 84.3311 61.7653 84.0739 61.9932 83.5596V79.7168H62.8965V85H62.0371L62.0176 84.4775ZM66.8271 80.5273C66.6904 80.5046 66.5423 80.4932 66.3828 80.4932C65.7904 80.4932 65.3883 80.7454 65.1768 81.25V85H64.2734V79.7168H65.1523L65.167 80.3271C65.4632 79.8551 65.8831 79.6191 66.4268 79.6191C66.6025 79.6191 66.736 79.6419 66.8271 79.6875V80.5273ZM68.5117 79.7168L68.5361 80.3027C68.9235 79.847 69.446 79.6191 70.1035 79.6191C70.8424 79.6191 71.3454 79.9023 71.6123 80.4688C71.7881 80.2148 72.016 80.0098 72.2959 79.8535C72.5791 79.6973 72.9128 79.6191 73.2969 79.6191C74.4557 79.6191 75.0449 80.2327 75.0645 81.46V85H74.1611V81.5137C74.1611 81.1361 74.0749 80.8545 73.9023 80.6689C73.7298 80.4801 73.4401 80.3857 73.0332 80.3857C72.6979 80.3857 72.4196 80.4867 72.1982 80.6885C71.9769 80.887 71.8483 81.1556 71.8125 81.4941V85H70.9043V81.5381C70.9043 80.7699 70.5283 80.3857 69.7764 80.3857C69.1839 80.3857 68.7786 80.638 68.5605 81.1426V85H67.6572V79.7168H68.5117ZM79.6934 85C79.6413 84.8958 79.599 84.7103 79.5664 84.4434C79.1465 84.8796 78.6452 85.0977 78.0625 85.0977C77.5417 85.0977 77.1136 84.9512 76.7783 84.6582C76.4463 84.362 76.2803 83.9876 76.2803 83.5352C76.2803 82.985 76.4886 82.5586 76.9053 82.2559C77.3252 81.9499 77.9144 81.7969 78.6729 81.7969H79.5518V81.3818C79.5518 81.0661 79.4574 80.8154 79.2686 80.6299C79.0798 80.4411 78.8014 80.3467 78.4336 80.3467C78.1113 80.3467 77.8411 80.4281 77.623 80.5908C77.4049 80.7536 77.2959 80.9505 77.2959 81.1816H76.3877C76.3877 80.918 76.4805 80.6641 76.666 80.4199C76.8548 80.1725 77.1087 79.9772 77.4277 79.834C77.75 79.6908 78.1032 79.6191 78.4873 79.6191C79.096 79.6191 79.5729 79.7721 79.918 80.0781C80.263 80.3809 80.4421 80.7992 80.4551 81.333V83.7646C80.4551 84.2497 80.5169 84.6354 80.6406 84.9219V85H79.6934ZM78.1943 84.3115C78.4775 84.3115 78.7461 84.2383 79 84.0918C79.2539 83.9453 79.4378 83.7549 79.5518 83.5205V82.4365H78.8438C77.737 82.4365 77.1836 82.7604 77.1836 83.4082C77.1836 83.6914 77.278 83.9128 77.4668 84.0723C77.6556 84.2318 77.8981 84.3115 78.1943 84.3115ZM83.9561 82.1631C83.9561 82.889 83.86 83.5856 83.668 84.2529C83.4792 84.917 83.1878 85.5306 82.7939 86.0938C82.4033 86.6569 81.9932 87.0573 81.5635 87.2949L81.373 86.7432C81.8743 86.359 82.2764 85.7633 82.5791 84.9561C82.8851 84.1455 83.0413 83.2471 83.0479 82.2607V82.1045C83.0479 81.4209 82.9762 80.7861 82.833 80.2002C82.6898 79.611 82.4896 79.0837 82.2324 78.6182C81.9785 78.1527 81.6921 77.7897 81.373 77.5293L81.5635 76.9775C81.9932 77.2152 82.4017 77.6123 82.7891 78.1689C83.1797 78.7256 83.471 79.3392 83.6631 80.0098C83.8584 80.6803 83.9561 81.3981 83.9561 82.1631Z" fill="#767676"/>
<rect x="4" y="185" width="250" height="14" rx="4" fill="url(#paint3_linear_575_1437)"/>
<path d="M5.83105 175H4.89355V167.891H5.83105V175ZM8.2627 169.717L8.29199 170.381C8.69564 169.873 9.22298 169.619 9.87402 169.619C10.9906 169.619 11.5537 170.249 11.5635 171.509V175H10.6602V171.504C10.6569 171.123 10.569 170.841 10.3965 170.659C10.2272 170.477 9.96191 170.386 9.60059 170.386C9.30762 170.386 9.05046 170.464 8.8291 170.62C8.60775 170.776 8.43522 170.981 8.31152 171.235V175H7.4082V169.717H8.2627ZM12.7061 172.314C12.7061 171.504 12.8981 170.853 13.2822 170.361C13.6663 169.867 14.1693 169.619 14.791 169.619C15.4095 169.619 15.8994 169.831 16.2607 170.254V167.5H17.1641V175H16.334L16.29 174.434C15.9287 174.876 15.4258 175.098 14.7812 175.098C14.1693 175.098 13.6696 174.847 13.2822 174.346C12.8981 173.844 12.7061 173.19 12.7061 172.383V172.314ZM13.6094 172.417C13.6094 173.016 13.7331 173.485 13.9805 173.823C14.2279 174.162 14.5697 174.331 15.0059 174.331C15.5788 174.331 15.9971 174.074 16.2607 173.56V171.133C15.9906 170.635 15.5755 170.386 15.0156 170.386C14.5729 170.386 14.2279 170.557 13.9805 170.898C13.7331 171.24 13.6094 171.746 13.6094 172.417ZM18.3311 172.31C18.3311 171.792 18.432 171.326 18.6338 170.913C18.8389 170.5 19.1221 170.181 19.4834 169.956C19.848 169.731 20.263 169.619 20.7285 169.619C21.4479 169.619 22.029 169.868 22.4717 170.366C22.9176 170.864 23.1406 171.527 23.1406 172.354V172.417C23.1406 172.931 23.0413 173.394 22.8428 173.804C22.6475 174.211 22.3659 174.528 21.998 174.756C21.6335 174.984 21.2135 175.098 20.7383 175.098C20.0221 175.098 19.4411 174.849 18.9951 174.351C18.5524 173.853 18.3311 173.193 18.3311 172.373V172.31ZM19.2393 172.417C19.2393 173.003 19.3743 173.473 19.6445 173.828C19.918 174.183 20.2826 174.36 20.7383 174.36C21.1973 174.36 21.5618 174.181 21.832 173.823C22.1022 173.462 22.2373 172.957 22.2373 172.31C22.2373 171.73 22.099 171.261 21.8223 170.903C21.5488 170.542 21.1842 170.361 20.7285 170.361C20.2826 170.361 19.9229 170.539 19.6494 170.894C19.376 171.248 19.2393 171.756 19.2393 172.417ZM25.1279 169.717L25.1572 170.381C25.5609 169.873 26.0882 169.619 26.7393 169.619C27.8558 169.619 28.4189 170.249 28.4287 171.509V175H27.5254V171.504C27.5221 171.123 27.4342 170.841 27.2617 170.659C27.0924 170.477 26.8271 170.386 26.4658 170.386C26.1729 170.386 25.9157 170.464 25.6943 170.62C25.473 170.776 25.3005 170.981 25.1768 171.235V175H24.2734V169.717H25.1279ZM31.9834 175.098C31.2673 175.098 30.6846 174.863 30.2354 174.395C29.7861 173.923 29.5615 173.293 29.5615 172.505V172.339C29.5615 171.815 29.6608 171.348 29.8594 170.938C30.0612 170.524 30.3411 170.202 30.6992 169.971C31.0605 169.736 31.4512 169.619 31.8711 169.619C32.5579 169.619 33.0918 169.845 33.4727 170.298C33.8535 170.75 34.0439 171.398 34.0439 172.241V172.617H30.4648C30.4779 173.138 30.6292 173.56 30.9189 173.882C31.2119 174.201 31.583 174.36 32.0322 174.36C32.3512 174.36 32.6214 174.295 32.8428 174.165C33.0641 174.035 33.2578 173.862 33.4238 173.647L33.9756 174.077C33.5329 174.757 32.8688 175.098 31.9834 175.098ZM31.8711 170.361C31.5065 170.361 31.2005 170.495 30.9531 170.762C30.7057 171.025 30.5527 171.396 30.4941 171.875H33.1406V171.807C33.1146 171.348 32.9909 170.993 32.7695 170.742C32.5482 170.488 32.2487 170.361 31.8711 170.361ZM38.1699 173.599C38.1699 173.354 38.0771 173.166 37.8916 173.032C37.7093 172.896 37.3887 172.778 36.9297 172.681C36.474 172.583 36.111 172.466 35.8408 172.329C35.5739 172.192 35.3753 172.03 35.2451 171.841C35.1182 171.652 35.0547 171.427 35.0547 171.167C35.0547 170.734 35.237 170.368 35.6016 170.068C35.9694 169.769 36.4382 169.619 37.0078 169.619C37.6068 169.619 38.0918 169.774 38.4629 170.083C38.8372 170.392 39.0244 170.788 39.0244 171.27H38.1162C38.1162 171.022 38.0104 170.809 37.7988 170.63C37.5905 170.451 37.3268 170.361 37.0078 170.361C36.679 170.361 36.4219 170.433 36.2363 170.576C36.0508 170.719 35.958 170.907 35.958 171.138C35.958 171.356 36.0443 171.52 36.2168 171.631C36.3893 171.742 36.7002 171.847 37.1494 171.948C37.6019 172.049 37.9681 172.17 38.248 172.31C38.528 172.45 38.7347 172.619 38.8682 172.817C39.0049 173.013 39.0732 173.252 39.0732 173.535C39.0732 174.007 38.8844 174.386 38.5068 174.673C38.1292 174.956 37.6393 175.098 37.0371 175.098C36.6139 175.098 36.2396 175.023 35.9141 174.873C35.5885 174.723 35.333 174.515 35.1475 174.248C34.9652 173.978 34.874 173.687 34.874 173.374H35.7773C35.7936 173.677 35.9141 173.918 36.1387 174.097C36.3665 174.272 36.666 174.36 37.0371 174.36C37.3789 174.36 37.6523 174.292 37.8574 174.155C38.0658 174.015 38.1699 173.83 38.1699 173.599ZM41.2314 175H40.3281V169.717H41.2314V175ZM40.2549 168.315C40.2549 168.169 40.2988 168.045 40.3867 167.944C40.4779 167.843 40.6113 167.793 40.7871 167.793C40.9629 167.793 41.0964 167.843 41.1875 167.944C41.2786 168.045 41.3242 168.169 41.3242 168.315C41.3242 168.462 41.2786 168.584 41.1875 168.682C41.0964 168.779 40.9629 168.828 40.7871 168.828C40.6113 168.828 40.4779 168.779 40.3867 168.682C40.2988 168.584 40.2549 168.462 40.2549 168.315ZM45.9434 175C45.8913 174.896 45.849 174.71 45.8164 174.443C45.3965 174.88 44.8952 175.098 44.3125 175.098C43.7917 175.098 43.3636 174.951 43.0283 174.658C42.6963 174.362 42.5303 173.988 42.5303 173.535C42.5303 172.985 42.7386 172.559 43.1553 172.256C43.5752 171.95 44.1644 171.797 44.9229 171.797H45.8018V171.382C45.8018 171.066 45.7074 170.815 45.5186 170.63C45.3298 170.441 45.0514 170.347 44.6836 170.347C44.3613 170.347 44.0911 170.428 43.873 170.591C43.6549 170.754 43.5459 170.951 43.5459 171.182H42.6377C42.6377 170.918 42.7305 170.664 42.916 170.42C43.1048 170.173 43.3587 169.977 43.6777 169.834C44 169.691 44.3532 169.619 44.7373 169.619C45.346 169.619 45.8229 169.772 46.168 170.078C46.513 170.381 46.6921 170.799 46.7051 171.333V173.765C46.7051 174.25 46.7669 174.635 46.8906 174.922V175H45.9434ZM44.4443 174.312C44.7275 174.312 44.9961 174.238 45.25 174.092C45.5039 173.945 45.6878 173.755 45.8018 173.521V172.437H45.0938C43.987 172.437 43.4336 172.76 43.4336 173.408C43.4336 173.691 43.528 173.913 43.7168 174.072C43.9056 174.232 44.1481 174.312 44.4443 174.312Z" fill="#767676"/>
<rect x="4" y="230" width="243" height="14" rx="4" fill="url(#paint4_linear_575_1437)"/>
<path d="M10.0547 217.744C9.9668 218.496 9.68848 219.077 9.21973 219.487C8.75423 219.894 8.13411 220.098 7.35938 220.098C6.51953 220.098 5.8457 219.797 5.33789 219.194C4.83333 218.592 4.58105 217.786 4.58105 216.777V216.094C4.58105 215.433 4.69824 214.852 4.93262 214.351C5.17025 213.849 5.50553 213.465 5.93848 213.198C6.37142 212.928 6.87272 212.793 7.44238 212.793C8.19759 212.793 8.80306 213.005 9.25879 213.428C9.71452 213.848 9.97982 214.43 10.0547 215.176H9.1123C9.03092 214.609 8.85352 214.199 8.58008 213.945C8.3099 213.691 7.93066 213.564 7.44238 213.564C6.84342 213.564 6.37305 213.786 6.03125 214.229C5.69271 214.671 5.52344 215.301 5.52344 216.118V216.807C5.52344 217.578 5.68457 218.192 6.00684 218.647C6.3291 219.103 6.77995 219.331 7.35938 219.331C7.88021 219.331 8.27897 219.214 8.55566 218.979C8.83561 218.742 9.02116 218.33 9.1123 217.744H10.0547ZM14.459 220C14.4069 219.896 14.3646 219.71 14.332 219.443C13.9121 219.88 13.4108 220.098 12.8281 220.098C12.3073 220.098 11.8792 219.951 11.5439 219.658C11.2119 219.362 11.0459 218.988 11.0459 218.535C11.0459 217.985 11.2542 217.559 11.6709 217.256C12.0908 216.95 12.68 216.797 13.4385 216.797H14.3174V216.382C14.3174 216.066 14.223 215.815 14.0342 215.63C13.8454 215.441 13.5671 215.347 13.1992 215.347C12.877 215.347 12.6068 215.428 12.3887 215.591C12.1706 215.754 12.0615 215.951 12.0615 216.182H11.1533C11.1533 215.918 11.2461 215.664 11.4316 215.42C11.6204 215.173 11.8743 214.977 12.1934 214.834C12.5156 214.691 12.8688 214.619 13.2529 214.619C13.8617 214.619 14.3385 214.772 14.6836 215.078C15.0286 215.381 15.2077 215.799 15.2207 216.333V218.765C15.2207 219.25 15.2826 219.635 15.4062 219.922V220H14.459ZM12.96 219.312C13.2432 219.312 13.5117 219.238 13.7656 219.092C14.0195 218.945 14.2035 218.755 14.3174 218.521V217.437H13.6094C12.5026 217.437 11.9492 217.76 11.9492 218.408C11.9492 218.691 12.0436 218.913 12.2324 219.072C12.4212 219.232 12.6637 219.312 12.96 219.312ZM17.4863 214.717L17.5107 215.303C17.8981 214.847 18.4206 214.619 19.0781 214.619C19.8171 214.619 20.32 214.902 20.5869 215.469C20.7627 215.215 20.9906 215.01 21.2705 214.854C21.5537 214.697 21.8874 214.619 22.2715 214.619C23.4303 214.619 24.0195 215.233 24.0391 216.46V220H23.1357V216.514C23.1357 216.136 23.0495 215.854 22.877 215.669C22.7044 215.48 22.4147 215.386 22.0078 215.386C21.6725 215.386 21.3942 215.487 21.1729 215.688C20.9515 215.887 20.8229 216.156 20.7871 216.494V220H19.8789V216.538C19.8789 215.77 19.5029 215.386 18.751 215.386C18.1585 215.386 17.7533 215.638 17.5352 216.143V220H16.6318V214.717H17.4863ZM29.8789 217.417C29.8789 218.224 29.6934 218.874 29.3223 219.365C28.9512 219.854 28.4531 220.098 27.8281 220.098C27.1608 220.098 26.6449 219.862 26.2803 219.39L26.2363 220H25.4062V212.5H26.3096V215.298C26.6742 214.845 27.1771 214.619 27.8184 214.619C28.4596 214.619 28.9626 214.862 29.3271 215.347C29.695 215.832 29.8789 216.496 29.8789 217.339V217.417ZM28.9756 217.314C28.9756 216.699 28.8568 216.224 28.6191 215.889C28.3815 215.553 28.0397 215.386 27.5938 215.386C26.998 215.386 26.57 215.662 26.3096 216.216V218.501C26.5863 219.054 27.0176 219.331 27.6035 219.331C28.0365 219.331 28.3734 219.163 28.6143 218.828C28.8551 218.493 28.9756 217.988 28.9756 217.314ZM30.7822 217.31C30.7822 216.792 30.8831 216.326 31.085 215.913C31.29 215.5 31.5732 215.181 31.9346 214.956C32.2992 214.731 32.7142 214.619 33.1797 214.619C33.8991 214.619 34.4801 214.868 34.9229 215.366C35.3688 215.864 35.5918 216.527 35.5918 217.354V217.417C35.5918 217.931 35.4925 218.394 35.2939 218.804C35.0986 219.211 34.8171 219.528 34.4492 219.756C34.0846 219.984 33.6647 220.098 33.1895 220.098C32.4733 220.098 31.8923 219.849 31.4463 219.351C31.0036 218.853 30.7822 218.193 30.7822 217.373V217.31ZM31.6904 217.417C31.6904 218.003 31.8255 218.473 32.0957 218.828C32.3691 219.183 32.7337 219.36 33.1895 219.36C33.6484 219.36 34.013 219.181 34.2832 218.823C34.5534 218.462 34.6885 217.957 34.6885 217.31C34.6885 216.73 34.5501 216.261 34.2734 215.903C34 215.542 33.6354 215.361 33.1797 215.361C32.7337 215.361 32.374 215.539 32.1006 215.894C31.8271 216.248 31.6904 216.756 31.6904 217.417ZM36.5049 217.314C36.5049 216.504 36.6969 215.853 37.0811 215.361C37.4652 214.867 37.9681 214.619 38.5898 214.619C39.2083 214.619 39.6982 214.831 40.0596 215.254V212.5H40.9629V220H40.1328L40.0889 219.434C39.7275 219.876 39.2246 220.098 38.5801 220.098C37.9681 220.098 37.4684 219.847 37.0811 219.346C36.6969 218.844 36.5049 218.19 36.5049 217.383V217.314ZM37.4082 217.417C37.4082 218.016 37.5319 218.485 37.7793 218.823C38.0267 219.162 38.3685 219.331 38.8047 219.331C39.3776 219.331 39.7959 219.074 40.0596 218.56V216.133C39.7894 215.635 39.3743 215.386 38.8145 215.386C38.3717 215.386 38.0267 215.557 37.7793 215.898C37.5319 216.24 37.4082 216.746 37.4082 217.417ZM43.3506 220H42.4473V214.717H43.3506V220ZM42.374 213.315C42.374 213.169 42.418 213.045 42.5059 212.944C42.597 212.843 42.7305 212.793 42.9062 212.793C43.082 212.793 43.2155 212.843 43.3066 212.944C43.3978 213.045 43.4434 213.169 43.4434 213.315C43.4434 213.462 43.3978 213.584 43.3066 213.682C43.2155 213.779 43.082 213.828 42.9062 213.828C42.7305 213.828 42.597 213.779 42.5059 213.682C42.418 213.584 42.374 213.462 42.374 213.315ZM48.0625 220C48.0104 219.896 47.9681 219.71 47.9355 219.443C47.5156 219.88 47.0143 220.098 46.4316 220.098C45.9108 220.098 45.4827 219.951 45.1475 219.658C44.8154 219.362 44.6494 218.988 44.6494 218.535C44.6494 217.985 44.8577 217.559 45.2744 217.256C45.6943 216.95 46.2835 216.797 47.042 216.797H47.9209V216.382C47.9209 216.066 47.8265 215.815 47.6377 215.63C47.4489 215.441 47.1706 215.347 46.8027 215.347C46.4805 215.347 46.2103 215.428 45.9922 215.591C45.7741 215.754 45.665 215.951 45.665 216.182H44.7568C44.7568 215.918 44.8496 215.664 45.0352 215.42C45.224 215.173 45.4779 214.977 45.7969 214.834C46.1191 214.691 46.4723 214.619 46.8564 214.619C47.4652 214.619 47.9421 214.772 48.2871 215.078C48.6322 215.381 48.8112 215.799 48.8242 216.333V218.765C48.8242 219.25 48.8861 219.635 49.0098 219.922V220H48.0625ZM46.5635 219.312C46.8467 219.312 47.1152 219.238 47.3691 219.092C47.623 218.945 47.807 218.755 47.9209 218.521V217.437H47.2129C46.1061 217.437 45.5527 217.76 45.5527 218.408C45.5527 218.691 45.6471 218.913 45.8359 219.072C46.0247 219.232 46.2673 219.312 46.5635 219.312Z" fill="#767676"/>
<rect x="4" y="275" width="231" height="14" rx="4" fill="url(#paint5_linear_575_1437)"/>
<path d="M6.91992 261.831C6.11589 261.6 5.52995 261.317 5.16211 260.981C4.79753 260.643 4.61523 260.226 4.61523 259.731C4.61523 259.172 4.83822 258.709 5.28418 258.345C5.7334 257.977 6.31608 257.793 7.03223 257.793C7.52051 257.793 7.95508 257.887 8.33594 258.076C8.72005 258.265 9.01628 258.525 9.22461 258.857C9.4362 259.189 9.54199 259.552 9.54199 259.946H8.59961C8.59961 259.517 8.46289 259.18 8.18945 258.936C7.91602 258.688 7.53027 258.564 7.03223 258.564C6.56999 258.564 6.20866 258.667 5.94824 258.872C5.69108 259.074 5.5625 259.355 5.5625 259.717C5.5625 260.007 5.68457 260.252 5.92871 260.454C6.17611 260.653 6.5944 260.835 7.18359 261.001C7.77604 261.167 8.23828 261.351 8.57031 261.553C8.9056 261.751 9.15299 261.984 9.3125 262.251C9.47526 262.518 9.55664 262.832 9.55664 263.193C9.55664 263.77 9.33203 264.232 8.88281 264.58C8.43359 264.925 7.83301 265.098 7.08105 265.098C6.59277 265.098 6.13704 265.005 5.71387 264.819C5.29069 264.631 4.96354 264.373 4.73242 264.048C4.50456 263.722 4.39062 263.353 4.39062 262.939H5.33301C5.33301 263.369 5.49089 263.709 5.80664 263.96C6.12565 264.207 6.55046 264.331 7.08105 264.331C7.57585 264.331 7.95508 264.23 8.21875 264.028C8.48242 263.826 8.61426 263.551 8.61426 263.203C8.61426 262.855 8.49219 262.586 8.24805 262.397C8.00391 262.205 7.5612 262.017 6.91992 261.831ZM11.6025 265H10.6992V259.717H11.6025V265ZM10.626 258.315C10.626 258.169 10.6699 258.045 10.7578 257.944C10.849 257.843 10.9824 257.793 11.1582 257.793C11.334 257.793 11.4674 257.843 11.5586 257.944C11.6497 258.045 11.6953 258.169 11.6953 258.315C11.6953 258.462 11.6497 258.584 11.5586 258.682C11.4674 258.779 11.334 258.828 11.1582 258.828C10.9824 258.828 10.849 258.779 10.7578 258.682C10.6699 258.584 10.626 258.462 10.626 258.315ZM13.9072 259.717L13.9365 260.381C14.3402 259.873 14.8675 259.619 15.5186 259.619C16.6351 259.619 17.1982 260.249 17.208 261.509V265H16.3047V261.504C16.3014 261.123 16.2135 260.841 16.041 260.659C15.8717 260.477 15.6064 260.386 15.2451 260.386C14.9521 260.386 14.695 260.464 14.4736 260.62C14.2523 260.776 14.0798 260.981 13.9561 261.235V265H13.0527V259.717H13.9072ZM18.3555 262.314C18.3555 261.491 18.5459 260.837 18.9268 260.352C19.3076 259.863 19.8122 259.619 20.4404 259.619C21.085 259.619 21.5879 259.847 21.9492 260.303L21.9932 259.717H22.8184V264.873C22.8184 265.557 22.6149 266.095 22.208 266.489C21.8044 266.883 21.2607 267.08 20.5771 267.08C20.1963 267.08 19.8236 266.999 19.459 266.836C19.0944 266.673 18.8161 266.45 18.624 266.167L19.0928 265.625C19.4801 266.104 19.9538 266.343 20.5137 266.343C20.9531 266.343 21.2949 266.219 21.5391 265.972C21.7865 265.724 21.9102 265.376 21.9102 264.927V264.473C21.5488 264.889 21.0557 265.098 20.4307 265.098C19.8122 265.098 19.3109 264.849 18.9268 264.351C18.5459 263.853 18.3555 263.174 18.3555 262.314ZM19.2637 262.417C19.2637 263.013 19.3857 263.481 19.6299 263.823C19.874 264.162 20.2158 264.331 20.6553 264.331C21.2249 264.331 21.6432 264.072 21.9102 263.555V261.143C21.6335 260.638 21.2184 260.386 20.665 260.386C20.2256 260.386 19.8822 260.557 19.6348 260.898C19.3874 261.24 19.2637 261.746 19.2637 262.417ZM27.4473 265C27.3952 264.896 27.3529 264.71 27.3203 264.443C26.9004 264.88 26.3991 265.098 25.8164 265.098C25.2956 265.098 24.8675 264.951 24.5322 264.658C24.2002 264.362 24.0342 263.988 24.0342 263.535C24.0342 262.985 24.2425 262.559 24.6592 262.256C25.0791 261.95 25.6683 261.797 26.4268 261.797H27.3057V261.382C27.3057 261.066 27.2113 260.815 27.0225 260.63C26.8337 260.441 26.5553 260.347 26.1875 260.347C25.8652 260.347 25.5951 260.428 25.377 260.591C25.1589 260.754 25.0498 260.951 25.0498 261.182H24.1416C24.1416 260.918 24.2344 260.664 24.4199 260.42C24.6087 260.173 24.8626 259.977 25.1816 259.834C25.5039 259.691 25.8571 259.619 26.2412 259.619C26.8499 259.619 27.3268 259.772 27.6719 260.078C28.0169 260.381 28.196 260.799 28.209 261.333V263.765C28.209 264.25 28.2708 264.635 28.3945 264.922V265H27.4473ZM25.9482 264.312C26.2314 264.312 26.5 264.238 26.7539 264.092C27.0078 263.945 27.1917 263.755 27.3057 263.521V262.437H26.5977C25.4909 262.437 24.9375 262.76 24.9375 263.408C24.9375 263.691 25.0319 263.913 25.2207 264.072C25.4095 264.232 25.652 264.312 25.9482 264.312ZM34.0879 262.417C34.0879 263.221 33.904 263.869 33.5361 264.36C33.1683 264.852 32.6702 265.098 32.042 265.098C31.4007 265.098 30.8962 264.894 30.5283 264.487V267.031H29.625V259.717H30.4502L30.4941 260.303C30.862 259.847 31.373 259.619 32.0273 259.619C32.6621 259.619 33.1634 259.858 33.5312 260.337C33.9023 260.815 34.0879 261.481 34.0879 262.334V262.417ZM33.1846 262.314C33.1846 261.719 33.0576 261.248 32.8037 260.903C32.5498 260.558 32.2015 260.386 31.7588 260.386C31.2119 260.386 30.8018 260.628 30.5283 261.113V263.638C30.7985 264.119 31.2119 264.36 31.7686 264.36C32.2015 264.36 32.5449 264.189 32.7988 263.848C33.056 263.503 33.1846 262.992 33.1846 262.314ZM35.001 262.31C35.001 261.792 35.1019 261.326 35.3037 260.913C35.5088 260.5 35.792 260.181 36.1533 259.956C36.5179 259.731 36.9329 259.619 37.3984 259.619C38.1178 259.619 38.6989 259.868 39.1416 260.366C39.5876 260.864 39.8105 261.527 39.8105 262.354V262.417C39.8105 262.931 39.7113 263.394 39.5127 263.804C39.3174 264.211 39.0358 264.528 38.668 264.756C38.3034 264.984 37.8835 265.098 37.4082 265.098C36.6921 265.098 36.111 264.849 35.665 264.351C35.2223 263.853 35.001 263.193 35.001 262.373V262.31ZM35.9092 262.417C35.9092 263.003 36.0443 263.473 36.3145 263.828C36.5879 264.183 36.9525 264.36 37.4082 264.36C37.8672 264.36 38.2318 264.181 38.502 263.823C38.7721 263.462 38.9072 262.957 38.9072 262.31C38.9072 261.73 38.7689 261.261 38.4922 260.903C38.2188 260.542 37.8542 260.361 37.3984 260.361C36.9525 260.361 36.5928 260.539 36.3193 260.894C36.0459 261.248 35.9092 261.756 35.9092 262.417ZM43.4971 260.527C43.3604 260.505 43.2122 260.493 43.0527 260.493C42.4603 260.493 42.0583 260.745 41.8467 261.25V265H40.9434V259.717H41.8223L41.8369 260.327C42.1331 259.855 42.5531 259.619 43.0967 259.619C43.2725 259.619 43.4059 259.642 43.4971 259.688V260.527ZM46.4268 265.098C45.7106 265.098 45.1279 264.863 44.6787 264.395C44.2295 263.923 44.0049 263.293 44.0049 262.505V262.339C44.0049 261.815 44.1042 261.348 44.3027 260.938C44.5046 260.524 44.7845 260.202 45.1426 259.971C45.5039 259.736 45.8945 259.619 46.3145 259.619C47.0013 259.619 47.5352 259.845 47.916 260.298C48.2969 260.75 48.4873 261.398 48.4873 262.241V262.617H44.9082C44.9212 263.138 45.0726 263.56 45.3623 263.882C45.6553 264.201 46.0264 264.36 46.4756 264.36C46.7946 264.36 47.0648 264.295 47.2861 264.165C47.5075 264.035 47.7012 263.862 47.8672 263.647L48.4189 264.077C47.9762 264.757 47.3122 265.098 46.4268 265.098ZM46.3145 260.361C45.9499 260.361 45.6439 260.495 45.3965 260.762C45.1491 261.025 44.9961 261.396 44.9375 261.875H47.584V261.807C47.5579 261.348 47.4342 260.993 47.2129 260.742C46.9915 260.488 46.6921 260.361 46.3145 260.361Z" fill="#767676"/>
<rect x="4" y="320" width="220" height="14" rx="4" fill="url(#paint6_linear_575_1437)"/>
<path d="M9.7373 303.662H7.45215V310H6.51953V303.662H4.23926V302.891H9.7373V303.662ZM11.5537 305.356C11.9541 304.865 12.4749 304.619 13.1162 304.619C14.2327 304.619 14.7959 305.249 14.8057 306.509V310H13.9023V306.504C13.8991 306.123 13.8112 305.841 13.6387 305.659C13.4694 305.477 13.2041 305.386 12.8428 305.386C12.5498 305.386 12.2926 305.464 12.0713 305.62C11.8499 305.776 11.6774 305.981 11.5537 306.235V310H10.6504V302.5H11.5537V305.356ZM19.4199 310C19.3678 309.896 19.3255 309.71 19.293 309.443C18.873 309.88 18.3717 310.098 17.7891 310.098C17.2682 310.098 16.8402 309.951 16.5049 309.658C16.1729 309.362 16.0068 308.988 16.0068 308.535C16.0068 307.985 16.2152 307.559 16.6318 307.256C17.0518 306.95 17.641 306.797 18.3994 306.797H19.2783V306.382C19.2783 306.066 19.1839 305.815 18.9951 305.63C18.8063 305.441 18.528 305.347 18.1602 305.347C17.8379 305.347 17.5677 305.428 17.3496 305.591C17.1315 305.754 17.0225 305.951 17.0225 306.182H16.1143C16.1143 305.918 16.207 305.664 16.3926 305.42C16.5814 305.173 16.8353 304.977 17.1543 304.834C17.4766 304.691 17.8298 304.619 18.2139 304.619C18.8226 304.619 19.2995 304.772 19.6445 305.078C19.9896 305.381 20.1686 305.799 20.1816 306.333V308.765C20.1816 309.25 20.2435 309.635 20.3672 309.922V310H19.4199ZM17.9209 309.312C18.2041 309.312 18.4727 309.238 18.7266 309.092C18.9805 308.945 19.1644 308.755 19.2783 308.521V307.437H18.5703C17.4635 307.437 16.9102 307.76 16.9102 308.408C16.9102 308.691 17.0046 308.913 17.1934 309.072C17.3822 309.232 17.6247 309.312 17.9209 309.312ZM22.5791 310H21.6758V304.717H22.5791V310ZM21.6025 303.315C21.6025 303.169 21.6465 303.045 21.7344 302.944C21.8255 302.843 21.959 302.793 22.1348 302.793C22.3105 302.793 22.444 302.843 22.5352 302.944C22.6263 303.045 22.6719 303.169 22.6719 303.315C22.6719 303.462 22.6263 303.584 22.5352 303.682C22.444 303.779 22.3105 303.828 22.1348 303.828C21.959 303.828 21.8255 303.779 21.7344 303.682C21.6465 303.584 21.6025 303.462 21.6025 303.315ZM25.0107 310H24.1074V302.5H25.0107V310ZM29.7227 310C29.6706 309.896 29.6283 309.71 29.5957 309.443C29.1758 309.88 28.6745 310.098 28.0918 310.098C27.571 310.098 27.1429 309.951 26.8076 309.658C26.4756 309.362 26.3096 308.988 26.3096 308.535C26.3096 307.985 26.5179 307.559 26.9346 307.256C27.3545 306.95 27.9437 306.797 28.7021 306.797H29.5811V306.382C29.5811 306.066 29.4867 305.815 29.2979 305.63C29.109 305.441 28.8307 305.347 28.4629 305.347C28.1406 305.347 27.8704 305.428 27.6523 305.591C27.4342 305.754 27.3252 305.951 27.3252 306.182H26.417C26.417 305.918 26.5098 305.664 26.6953 305.42C26.8841 305.173 27.138 304.977 27.457 304.834C27.7793 304.691 28.1325 304.619 28.5166 304.619C29.1253 304.619 29.6022 304.772 29.9473 305.078C30.2923 305.381 30.4714 305.799 30.4844 306.333V308.765C30.4844 309.25 30.5462 309.635 30.6699 309.922V310H29.7227ZM28.2236 309.312C28.5068 309.312 28.7754 309.238 29.0293 309.092C29.2832 308.945 29.4671 308.755 29.5811 308.521V307.437H28.873C27.7663 307.437 27.2129 307.76 27.2129 308.408C27.2129 308.691 27.3073 308.913 27.4961 309.072C27.6849 309.232 27.9274 309.312 28.2236 309.312ZM32.7549 304.717L32.7842 305.381C33.1878 304.873 33.7152 304.619 34.3662 304.619C35.4827 304.619 36.0459 305.249 36.0557 306.509V310H35.1523V306.504C35.1491 306.123 35.0612 305.841 34.8887 305.659C34.7194 305.477 34.4541 305.386 34.0928 305.386C33.7998 305.386 33.5426 305.464 33.3213 305.62C33.0999 305.776 32.9274 305.981 32.8037 306.235V310H31.9004V304.717H32.7549ZM37.1982 307.314C37.1982 306.504 37.3903 305.853 37.7744 305.361C38.1585 304.867 38.6615 304.619 39.2832 304.619C39.9017 304.619 40.3916 304.831 40.7529 305.254V302.5H41.6562V310H40.8262L40.7822 309.434C40.4209 309.876 39.918 310.098 39.2734 310.098C38.6615 310.098 38.1618 309.847 37.7744 309.346C37.3903 308.844 37.1982 308.19 37.1982 307.383V307.314ZM38.1016 307.417C38.1016 308.016 38.2253 308.485 38.4727 308.823C38.7201 309.162 39.0618 309.331 39.498 309.331C40.071 309.331 40.4893 309.074 40.7529 308.56V306.133C40.4827 305.635 40.0677 305.386 39.5078 305.386C39.0651 305.386 38.7201 305.557 38.4727 305.898C38.2253 306.24 38.1016 306.746 38.1016 307.417Z" fill="#767676"/>
<rect x="4" y="365" width="184" height="14" rx="4" fill="url(#paint7_linear_575_1437)"/>
<path d="M6.91992 351.831C6.11589 351.6 5.52995 351.317 5.16211 350.981C4.79753 350.643 4.61523 350.226 4.61523 349.731C4.61523 349.172 4.83822 348.709 5.28418 348.345C5.7334 347.977 6.31608 347.793 7.03223 347.793C7.52051 347.793 7.95508 347.887 8.33594 348.076C8.72005 348.265 9.01628 348.525 9.22461 348.857C9.4362 349.189 9.54199 349.552 9.54199 349.946H8.59961C8.59961 349.517 8.46289 349.18 8.18945 348.936C7.91602 348.688 7.53027 348.564 7.03223 348.564C6.56999 348.564 6.20866 348.667 5.94824 348.872C5.69108 349.074 5.5625 349.355 5.5625 349.717C5.5625 350.007 5.68457 350.252 5.92871 350.454C6.17611 350.653 6.5944 350.835 7.18359 351.001C7.77604 351.167 8.23828 351.351 8.57031 351.553C8.9056 351.751 9.15299 351.984 9.3125 352.251C9.47526 352.518 9.55664 352.832 9.55664 353.193C9.55664 353.77 9.33203 354.232 8.88281 354.58C8.43359 354.925 7.83301 355.098 7.08105 355.098C6.59277 355.098 6.13704 355.005 5.71387 354.819C5.29069 354.631 4.96354 354.373 4.73242 354.048C4.50456 353.722 4.39062 353.353 4.39062 352.939H5.33301C5.33301 353.369 5.49089 353.709 5.80664 353.96C6.12565 354.207 6.55046 354.331 7.08105 354.331C7.57585 354.331 7.95508 354.23 8.21875 354.028C8.48242 353.826 8.61426 353.551 8.61426 353.203C8.61426 352.855 8.49219 352.586 8.24805 352.397C8.00391 352.205 7.5612 352.017 6.91992 351.831ZM13.1748 350.527C13.0381 350.505 12.89 350.493 12.7305 350.493C12.138 350.493 11.736 350.745 11.5244 351.25V355H10.6211V349.717H11.5L11.5146 350.327C11.8109 349.855 12.2308 349.619 12.7744 349.619C12.9502 349.619 13.0837 349.642 13.1748 349.688V350.527ZM14.9912 355H14.0879V349.717H14.9912V355ZM14.0146 348.315C14.0146 348.169 14.0586 348.045 14.1465 347.944C14.2376 347.843 14.3711 347.793 14.5469 347.793C14.7227 347.793 14.8561 347.843 14.9473 347.944C15.0384 348.045 15.084 348.169 15.084 348.315C15.084 348.462 15.0384 348.584 14.9473 348.682C14.8561 348.779 14.7227 348.828 14.5469 348.828C14.3711 348.828 14.2376 348.779 14.1465 348.682C14.0586 348.584 14.0146 348.462 14.0146 348.315ZM20.0059 354.233H23.375V355H19.0635V347.891H20.0059V354.233ZM27.5645 355C27.5124 354.896 27.4701 354.71 27.4375 354.443C27.0176 354.88 26.5163 355.098 25.9336 355.098C25.4128 355.098 24.9847 354.951 24.6494 354.658C24.3174 354.362 24.1514 353.988 24.1514 353.535C24.1514 352.985 24.3597 352.559 24.7764 352.256C25.1963 351.95 25.7855 351.797 26.5439 351.797H27.4229V351.382C27.4229 351.066 27.3285 350.815 27.1396 350.63C26.9508 350.441 26.6725 350.347 26.3047 350.347C25.9824 350.347 25.7122 350.428 25.4941 350.591C25.276 350.754 25.167 350.951 25.167 351.182H24.2588C24.2588 350.918 24.3516 350.664 24.5371 350.42C24.7259 350.173 24.9798 349.977 25.2988 349.834C25.6211 349.691 25.9743 349.619 26.3584 349.619C26.9671 349.619 27.444 349.772 27.7891 350.078C28.1341 350.381 28.3132 350.799 28.3262 351.333V353.765C28.3262 354.25 28.388 354.635 28.5117 354.922V355H27.5645ZM26.0654 354.312C26.3486 354.312 26.6172 354.238 26.8711 354.092C27.125 353.945 27.3089 353.755 27.4229 353.521V352.437H26.7148C25.6081 352.437 25.0547 352.76 25.0547 353.408C25.0547 353.691 25.1491 353.913 25.3379 354.072C25.5267 354.232 25.7692 354.312 26.0654 354.312ZM30.5967 349.717L30.626 350.381C31.0296 349.873 31.557 349.619 32.208 349.619C33.3245 349.619 33.8877 350.249 33.8975 351.509V355H32.9941V351.504C32.9909 351.123 32.903 350.841 32.7305 350.659C32.5612 350.477 32.2959 350.386 31.9346 350.386C31.6416 350.386 31.3844 350.464 31.1631 350.62C30.9417 350.776 30.7692 350.981 30.6455 351.235V355H29.7422V349.717H30.5967ZM36.7344 352.554L36.168 353.145V355H35.2646V347.5H36.168V352.036L36.6514 351.455L38.2969 349.717H39.3955L37.3398 351.924L39.6348 355H38.5752L36.7344 352.554ZM43.5898 355C43.5378 354.896 43.4954 354.71 43.4629 354.443C43.043 354.88 42.5417 355.098 41.959 355.098C41.4382 355.098 41.0101 354.951 40.6748 354.658C40.3428 354.362 40.1768 353.988 40.1768 353.535C40.1768 352.985 40.3851 352.559 40.8018 352.256C41.2217 351.95 41.8109 351.797 42.5693 351.797H43.4482V351.382C43.4482 351.066 43.3538 350.815 43.165 350.63C42.9762 350.441 42.6979 350.347 42.3301 350.347C42.0078 350.347 41.7376 350.428 41.5195 350.591C41.3014 350.754 41.1924 350.951 41.1924 351.182H40.2842C40.2842 350.918 40.377 350.664 40.5625 350.42C40.7513 350.173 41.0052 349.977 41.3242 349.834C41.6465 349.691 41.9997 349.619 42.3838 349.619C42.9925 349.619 43.4694 349.772 43.8145 350.078C44.1595 350.381 44.3385 350.799 44.3516 351.333V353.765C44.3516 354.25 44.4134 354.635 44.5371 354.922V355H43.5898ZM42.0908 354.312C42.374 354.312 42.6426 354.238 42.8965 354.092C43.1504 353.945 43.3343 353.755 43.4482 353.521V352.437H42.7402C41.6335 352.437 41.0801 352.76 41.0801 353.408C41.0801 353.691 41.1745 353.913 41.3633 354.072C41.5521 354.232 41.7946 354.312 42.0908 354.312Z" fill="#767676"/>
<rect x="4" y="410" width="175" height="14" rx="4" fill="url(#paint8_linear_575_1437)"/>
<path d="M10.2891 400H9.34668V396.714H5.7627V400H4.8252V392.891H5.7627V395.947H9.34668V392.891H10.2891V400ZM11.5732 397.31C11.5732 396.792 11.6742 396.326 11.876 395.913C12.0811 395.5 12.3643 395.181 12.7256 394.956C13.0902 394.731 13.5052 394.619 13.9707 394.619C14.6901 394.619 15.2712 394.868 15.7139 395.366C16.1598 395.864 16.3828 396.527 16.3828 397.354V397.417C16.3828 397.931 16.2835 398.394 16.085 398.804C15.8896 399.211 15.6081 399.528 15.2402 399.756C14.8757 399.984 14.4557 400.098 13.9805 400.098C13.2643 400.098 12.6833 399.849 12.2373 399.351C11.7946 398.853 11.5732 398.193 11.5732 397.373V397.31ZM12.4814 397.417C12.4814 398.003 12.6165 398.473 12.8867 398.828C13.1602 399.183 13.5247 399.36 13.9805 399.36C14.4395 399.36 14.804 399.181 15.0742 398.823C15.3444 398.462 15.4795 397.957 15.4795 397.31C15.4795 396.73 15.3411 396.261 15.0645 395.903C14.791 395.542 14.4264 395.361 13.9707 395.361C13.5247 395.361 13.165 395.539 12.8916 395.894C12.6182 396.248 12.4814 396.756 12.4814 397.417ZM18.3701 394.717L18.3994 395.381C18.8031 394.873 19.3304 394.619 19.9814 394.619C21.098 394.619 21.6611 395.249 21.6709 396.509V400H20.7676V396.504C20.7643 396.123 20.6764 395.841 20.5039 395.659C20.3346 395.477 20.0693 395.386 19.708 395.386C19.415 395.386 19.1579 395.464 18.9365 395.62C18.7152 395.776 18.5426 395.981 18.4189 396.235V400H17.5156V394.717H18.3701ZM22.8184 397.314C22.8184 396.491 23.0088 395.837 23.3896 395.352C23.7705 394.863 24.2751 394.619 24.9033 394.619C25.5479 394.619 26.0508 394.847 26.4121 395.303L26.4561 394.717H27.2812V399.873C27.2812 400.557 27.0778 401.095 26.6709 401.489C26.2673 401.883 25.7236 402.08 25.04 402.08C24.6592 402.08 24.2865 401.999 23.9219 401.836C23.5573 401.673 23.279 401.45 23.0869 401.167L23.5557 400.625C23.943 401.104 24.4167 401.343 24.9766 401.343C25.416 401.343 25.7578 401.219 26.002 400.972C26.2493 400.724 26.373 400.376 26.373 399.927V399.473C26.0117 399.889 25.5186 400.098 24.8936 400.098C24.2751 400.098 23.7738 399.849 23.3896 399.351C23.0088 398.853 22.8184 398.174 22.8184 397.314ZM23.7266 397.417C23.7266 398.013 23.8486 398.481 24.0928 398.823C24.3369 399.162 24.6787 399.331 25.1182 399.331C25.6878 399.331 26.1061 399.072 26.373 398.555V396.143C26.0964 395.638 25.6813 395.386 25.1279 395.386C24.6885 395.386 24.3451 395.557 24.0977 395.898C23.8503 396.24 23.7266 396.746 23.7266 397.417ZM33.0771 396.694L32.208 397.598V400H31.2705V392.891H32.208V396.406L35.3672 392.891H36.5L33.7021 396.03L36.7197 400H35.5967L33.0771 396.694ZM37.0225 397.31C37.0225 396.792 37.1234 396.326 37.3252 395.913C37.5303 395.5 37.8135 395.181 38.1748 394.956C38.5394 394.731 38.9544 394.619 39.4199 394.619C40.1393 394.619 40.7204 394.868 41.1631 395.366C41.609 395.864 41.832 396.527 41.832 397.354V397.417C41.832 397.931 41.7327 398.394 41.5342 398.804C41.3389 399.211 41.0573 399.528 40.6895 399.756C40.3249 399.984 39.9049 400.098 39.4297 400.098C38.7135 400.098 38.1325 399.849 37.6865 399.351C37.2438 398.853 37.0225 398.193 37.0225 397.373V397.31ZM37.9307 397.417C37.9307 398.003 38.0658 398.473 38.3359 398.828C38.6094 399.183 38.974 399.36 39.4297 399.36C39.8887 399.36 40.2533 399.181 40.5234 398.823C40.7936 398.462 40.9287 397.957 40.9287 397.31C40.9287 396.73 40.7904 396.261 40.5137 395.903C40.2402 395.542 39.8757 395.361 39.4199 395.361C38.974 395.361 38.6143 395.539 38.3408 395.894C38.0674 396.248 37.9307 396.756 37.9307 397.417ZM43.8193 394.717L43.8486 395.381C44.2523 394.873 44.7796 394.619 45.4307 394.619C46.5472 394.619 47.1104 395.249 47.1201 396.509V400H46.2168V396.504C46.2135 396.123 46.1257 395.841 45.9531 395.659C45.7839 395.477 45.5186 395.386 45.1572 395.386C44.8643 395.386 44.6071 395.464 44.3857 395.62C44.1644 395.776 43.9919 395.981 43.8682 396.235V400H42.9648V394.717H43.8193ZM48.2676 397.314C48.2676 396.491 48.458 395.837 48.8389 395.352C49.2197 394.863 49.7243 394.619 50.3525 394.619C50.9971 394.619 51.5 394.847 51.8613 395.303L51.9053 394.717H52.7305V399.873C52.7305 400.557 52.527 401.095 52.1201 401.489C51.7165 401.883 51.1729 402.08 50.4893 402.08C50.1084 402.08 49.7357 401.999 49.3711 401.836C49.0065 401.673 48.7282 401.45 48.5361 401.167L49.0049 400.625C49.3923 401.104 49.8659 401.343 50.4258 401.343C50.8652 401.343 51.207 401.219 51.4512 400.972C51.6986 400.724 51.8223 400.376 51.8223 399.927V399.473C51.4609 399.889 50.9678 400.098 50.3428 400.098C49.7243 400.098 49.223 399.849 48.8389 399.351C48.458 398.853 48.2676 398.174 48.2676 397.314ZM49.1758 397.417C49.1758 398.013 49.2979 398.481 49.542 398.823C49.7861 399.162 50.1279 399.331 50.5674 399.331C51.137 399.331 51.5553 399.072 51.8223 398.555V396.143C51.5456 395.638 51.1305 395.386 50.5771 395.386C50.1377 395.386 49.7943 395.557 49.5469 395.898C49.2995 396.24 49.1758 396.746 49.1758 397.417Z" fill="#767676"/>
<rect x="4" y="455" width="146" height="14" rx="4" fill="url(#paint9_linear_575_1437)"/>
<path d="M5.7627 442.217V445H4.8252V437.891H7.44727C8.22526 437.891 8.83398 438.089 9.27344 438.486C9.71615 438.883 9.9375 439.409 9.9375 440.063C9.9375 440.754 9.72103 441.286 9.28809 441.66C8.8584 442.031 8.24154 442.217 7.4375 442.217H5.7627ZM5.7627 441.45H7.44727C7.94857 441.45 8.33268 441.333 8.59961 441.099C8.86654 440.861 9 440.519 9 440.073C9 439.65 8.86654 439.312 8.59961 439.058C8.33268 438.804 7.96647 438.672 7.50098 438.662H5.7627V441.45ZM13.1162 445.098C12.4001 445.098 11.8174 444.863 11.3682 444.395C10.9189 443.923 10.6943 443.293 10.6943 442.505V442.339C10.6943 441.815 10.7936 441.348 10.9922 440.938C11.194 440.524 11.474 440.202 11.832 439.971C12.1934 439.736 12.584 439.619 13.0039 439.619C13.6908 439.619 14.2246 439.845 14.6055 440.298C14.9863 440.75 15.1768 441.398 15.1768 442.241V442.617H11.5977C11.6107 443.138 11.762 443.56 12.0518 443.882C12.3447 444.201 12.7158 444.36 13.165 444.36C13.484 444.36 13.7542 444.295 13.9756 444.165C14.1969 444.035 14.3906 443.862 14.5566 443.647L15.1084 444.077C14.6657 444.757 14.0016 445.098 13.1162 445.098ZM13.0039 440.361C12.6393 440.361 12.3333 440.495 12.0859 440.762C11.8385 441.025 11.6855 441.396 11.627 441.875H14.2734V441.807C14.2474 441.348 14.1237 440.993 13.9023 440.742C13.681 440.488 13.3815 440.361 13.0039 440.361ZM18.7803 440.527C18.6436 440.505 18.4954 440.493 18.3359 440.493C17.7435 440.493 17.3415 440.745 17.1299 441.25V445H16.2266V439.717H17.1055L17.1201 440.327C17.4163 439.855 17.8363 439.619 18.3799 439.619C18.5557 439.619 18.6891 439.642 18.7803 439.688V440.527ZM22.877 444.478C22.5254 444.891 22.0094 445.098 21.3291 445.098C20.766 445.098 20.3363 444.935 20.04 444.609C19.7471 444.281 19.599 443.796 19.5957 443.154V439.717H20.499V443.13C20.499 443.931 20.8245 444.331 21.4756 444.331C22.1657 444.331 22.6247 444.074 22.8525 443.56V439.717H23.7559V445H22.8965L22.877 444.478Z" fill="#767676"/>
<circle cx="164" cy="461" r="8" fill="#D393E9" fill-opacity="0.26"/>
<circle cx="164" cy="461" r="3" fill="#D393E9"/>
<line x1="163.5" y1="448" x2="163.5" y2="66" stroke="#D393E9" stroke-dasharray="2 2"/>
<g filter="url(#filter0_d_575_1437)">
<rect x="93" y="286" width="142" height="76" rx="20" fill="white"/>
</g>
<path d="M119.121 338.08H123.164V339H117.99V330.469H119.121V338.08ZM123.99 335.771C123.99 335.15 124.111 334.592 124.354 334.096C124.6 333.6 124.939 333.217 125.373 332.947C125.811 332.678 126.309 332.543 126.867 332.543C127.73 332.543 128.428 332.842 128.959 333.439C129.494 334.037 129.762 334.832 129.762 335.824V335.9C129.762 336.518 129.643 337.072 129.404 337.564C129.17 338.053 128.832 338.434 128.391 338.707C127.953 338.98 127.449 339.117 126.879 339.117C126.02 339.117 125.322 338.818 124.787 338.221C124.256 337.623 123.99 336.832 123.99 335.848V335.771ZM125.08 335.9C125.08 336.604 125.242 337.168 125.566 337.594C125.895 338.02 126.332 338.232 126.879 338.232C127.43 338.232 127.867 338.018 128.191 337.588C128.516 337.154 128.678 336.549 128.678 335.771C128.678 335.076 128.512 334.514 128.18 334.084C127.852 333.65 127.414 333.434 126.867 333.434C126.332 333.434 125.9 333.646 125.572 334.072C125.244 334.498 125.08 335.107 125.08 335.9ZM134.186 333.633C134.021 333.605 133.844 333.592 133.652 333.592C132.941 333.592 132.459 333.895 132.205 334.5V339H131.121V332.66H132.176L132.193 333.393C132.549 332.826 133.053 332.543 133.705 332.543C133.916 332.543 134.076 332.57 134.186 332.625V333.633ZM137.701 339.117C136.842 339.117 136.143 338.836 135.604 338.273C135.064 337.707 134.795 336.951 134.795 336.006V335.807C134.795 335.178 134.914 334.617 135.152 334.125C135.395 333.629 135.73 333.242 136.16 332.965C136.594 332.684 137.062 332.543 137.566 332.543C138.391 332.543 139.031 332.814 139.488 333.357C139.945 333.9 140.174 334.678 140.174 335.689V336.141H135.879C135.895 336.766 136.076 337.271 136.424 337.658C136.775 338.041 137.221 338.232 137.76 338.232C138.143 338.232 138.467 338.154 138.732 337.998C138.998 337.842 139.23 337.635 139.43 337.377L140.092 337.893C139.561 338.709 138.764 339.117 137.701 339.117ZM137.566 333.434C137.129 333.434 136.762 333.594 136.465 333.914C136.168 334.23 135.984 334.676 135.914 335.25H139.09V335.168C139.059 334.617 138.91 334.191 138.645 333.891C138.379 333.586 138.02 333.434 137.566 333.434ZM142.453 332.66L142.482 333.363C142.947 332.816 143.574 332.543 144.363 332.543C145.25 332.543 145.854 332.883 146.174 333.562C146.385 333.258 146.658 333.012 146.994 332.824C147.334 332.637 147.734 332.543 148.195 332.543C149.586 332.543 150.293 333.279 150.316 334.752V339H149.232V334.816C149.232 334.363 149.129 334.025 148.922 333.803C148.715 333.576 148.367 333.463 147.879 333.463C147.477 333.463 147.143 333.584 146.877 333.826C146.611 334.064 146.457 334.387 146.414 334.793V339H145.324V334.846C145.324 333.924 144.873 333.463 143.971 333.463C143.26 333.463 142.773 333.766 142.512 334.371V339H141.428V332.66H142.453ZM156.311 339H155.186V330.469H156.311V339ZM163.559 335.9C163.559 336.865 163.338 337.643 162.896 338.232C162.455 338.822 161.857 339.117 161.104 339.117C160.334 339.117 159.729 338.873 159.287 338.385V341.438H158.203V332.66H159.193L159.246 333.363C159.688 332.816 160.301 332.543 161.086 332.543C161.848 332.543 162.449 332.83 162.891 333.404C163.336 333.979 163.559 334.777 163.559 335.801V335.9ZM162.475 335.777C162.475 335.062 162.322 334.498 162.018 334.084C161.713 333.67 161.295 333.463 160.764 333.463C160.107 333.463 159.615 333.754 159.287 334.336V337.365C159.611 337.943 160.107 338.232 160.775 338.232C161.295 338.232 161.707 338.027 162.012 337.617C162.32 337.203 162.475 336.59 162.475 335.777ZM168.633 337.318C168.633 337.025 168.521 336.799 168.299 336.639C168.08 336.475 167.695 336.334 167.145 336.217C166.598 336.1 166.162 335.959 165.838 335.795C165.518 335.631 165.279 335.436 165.123 335.209C164.971 334.982 164.895 334.713 164.895 334.4C164.895 333.881 165.113 333.441 165.551 333.082C165.992 332.723 166.555 332.543 167.238 332.543C167.957 332.543 168.539 332.729 168.984 333.1C169.434 333.471 169.658 333.945 169.658 334.523H168.568C168.568 334.227 168.441 333.971 168.188 333.756C167.938 333.541 167.621 333.434 167.238 333.434C166.844 333.434 166.535 333.52 166.312 333.691C166.09 333.863 165.979 334.088 165.979 334.365C165.979 334.627 166.082 334.824 166.289 334.957C166.496 335.09 166.869 335.217 167.408 335.338C167.951 335.459 168.391 335.604 168.727 335.771C169.062 335.939 169.311 336.143 169.471 336.381C169.635 336.615 169.717 336.902 169.717 337.242C169.717 337.809 169.49 338.264 169.037 338.607C168.584 338.947 167.996 339.117 167.273 339.117C166.766 339.117 166.316 339.027 165.926 338.848C165.535 338.668 165.229 338.418 165.006 338.098C164.787 337.773 164.678 337.424 164.678 337.049H165.762C165.781 337.412 165.926 337.701 166.195 337.916C166.469 338.127 166.828 338.232 167.273 338.232C167.684 338.232 168.012 338.15 168.258 337.986C168.508 337.818 168.633 337.596 168.633 337.318ZM175.043 338.373C174.621 338.869 174.002 339.117 173.186 339.117C172.51 339.117 171.994 338.922 171.639 338.531C171.287 338.137 171.109 337.555 171.105 336.785V332.66H172.189V336.756C172.189 337.717 172.58 338.197 173.361 338.197C174.189 338.197 174.74 337.889 175.014 337.271V332.66H176.098V339H175.066L175.043 338.373ZM178.77 332.66L178.799 333.363C179.264 332.816 179.891 332.543 180.68 332.543C181.566 332.543 182.17 332.883 182.49 333.562C182.701 333.258 182.975 333.012 183.311 332.824C183.65 332.637 184.051 332.543 184.512 332.543C185.902 332.543 186.609 333.279 186.633 334.752V339H185.549V334.816C185.549 334.363 185.445 334.025 185.238 333.803C185.031 333.576 184.684 333.463 184.195 333.463C183.793 333.463 183.459 333.584 183.193 333.826C182.928 334.064 182.773 334.387 182.73 334.793V339H181.641V334.846C181.641 333.924 181.189 333.463 180.287 333.463C179.576 333.463 179.09 333.766 178.828 334.371V339H177.744V332.66H178.77Z" fill="#767676"/>
<path d="M119.545 314.718H123.741V316H117.939V306.758H119.545V314.718ZM124.535 312.502C124.535 311.83 124.668 311.224 124.935 310.687C125.201 310.145 125.576 309.731 126.058 309.443C126.541 309.151 127.095 309.005 127.721 309.005C128.648 309.005 129.399 309.303 129.975 309.9C130.554 310.497 130.868 311.288 130.914 312.274L130.92 312.636C130.92 313.313 130.789 313.918 130.527 314.451C130.269 314.984 129.896 315.397 129.41 315.689C128.927 315.981 128.369 316.127 127.734 316.127C126.765 316.127 125.988 315.805 125.404 315.162C124.825 314.515 124.535 313.653 124.535 312.579V312.502ZM126.077 312.636C126.077 313.342 126.223 313.897 126.515 314.299C126.807 314.697 127.213 314.896 127.734 314.896C128.254 314.896 128.659 314.692 128.946 314.286C129.238 313.88 129.384 313.285 129.384 312.502C129.384 311.808 129.234 311.258 128.934 310.852C128.637 310.446 128.233 310.243 127.721 310.243C127.218 310.243 126.818 310.444 126.521 310.846C126.225 311.243 126.077 311.84 126.077 312.636ZM135.821 310.541C135.618 310.507 135.408 310.49 135.192 310.49C134.486 310.49 134.01 310.761 133.764 311.303V316H132.222V309.132H133.694L133.732 309.9C134.105 309.303 134.621 309.005 135.281 309.005C135.501 309.005 135.683 309.035 135.827 309.094L135.821 310.541ZM139.693 316.127C138.715 316.127 137.922 315.82 137.312 315.207C136.707 314.589 136.405 313.768 136.405 312.744V312.553C136.405 311.868 136.536 311.256 136.798 310.719C137.065 310.177 137.437 309.756 137.916 309.456C138.394 309.155 138.927 309.005 139.515 309.005C140.45 309.005 141.172 309.303 141.68 309.9C142.192 310.497 142.448 311.341 142.448 312.433V313.055H137.96C138.007 313.622 138.195 314.07 138.525 314.4C138.859 314.73 139.278 314.896 139.782 314.896C140.488 314.896 141.064 314.61 141.508 314.039L142.34 314.832C142.065 315.243 141.697 315.562 141.235 315.791C140.778 316.015 140.264 316.127 139.693 316.127ZM139.509 310.243C139.086 310.243 138.743 310.391 138.48 310.687C138.222 310.983 138.057 311.396 137.985 311.925H140.924V311.811C140.89 311.294 140.753 310.905 140.512 310.643C140.271 310.376 139.936 310.243 139.509 310.243ZM145.101 309.132L145.146 309.849C145.628 309.286 146.288 309.005 147.126 309.005C148.044 309.005 148.673 309.356 149.011 310.059C149.511 309.356 150.213 309.005 151.119 309.005C151.876 309.005 152.439 309.214 152.807 309.633C153.18 310.052 153.37 310.67 153.378 311.487V316H151.836V311.531C151.836 311.095 151.741 310.776 151.55 310.573C151.36 310.37 151.045 310.268 150.604 310.268C150.253 310.268 149.965 310.363 149.741 310.554C149.521 310.74 149.367 310.985 149.278 311.29L149.284 316H147.742V311.48C147.721 310.672 147.308 310.268 146.504 310.268C145.886 310.268 145.448 310.52 145.19 311.023V316H143.647V309.132H145.101ZM160.043 316H158.444V306.758H160.043V316ZM167.883 312.636C167.883 313.698 167.642 314.546 167.159 315.181C166.677 315.812 166.029 316.127 165.217 316.127C164.464 316.127 163.861 315.879 163.408 315.384V318.641H161.865V309.132H163.287L163.351 309.83C163.803 309.28 164.419 309.005 165.198 309.005C166.036 309.005 166.692 309.318 167.166 309.944C167.644 310.566 167.883 311.432 167.883 312.541V312.636ZM166.347 312.502C166.347 311.817 166.209 311.273 165.934 310.871C165.663 310.469 165.274 310.268 164.766 310.268C164.136 310.268 163.683 310.528 163.408 311.049V314.096C163.687 314.629 164.144 314.896 164.779 314.896C165.27 314.896 165.653 314.699 165.928 314.305C166.207 313.907 166.347 313.306 166.347 312.502ZM173.043 314.134C173.043 313.859 172.929 313.649 172.701 313.505C172.476 313.361 172.102 313.235 171.577 313.125C171.052 313.014 170.614 312.875 170.263 312.706C169.493 312.333 169.108 311.794 169.108 311.087C169.108 310.494 169.358 309.999 169.857 309.602C170.356 309.204 170.991 309.005 171.761 309.005C172.582 309.005 173.244 309.208 173.748 309.614C174.256 310.021 174.51 310.547 174.51 311.195H172.967C172.967 310.899 172.857 310.653 172.637 310.458C172.417 310.26 172.125 310.16 171.761 310.16C171.423 310.16 171.146 310.238 170.93 310.395C170.718 310.552 170.612 310.761 170.612 311.023C170.612 311.26 170.712 311.444 170.911 311.576C171.11 311.707 171.512 311.84 172.117 311.976C172.722 312.107 173.196 312.265 173.539 312.452C173.886 312.634 174.142 312.854 174.307 313.112C174.476 313.37 174.561 313.683 174.561 314.051C174.561 314.669 174.305 315.171 173.792 315.556C173.28 315.937 172.61 316.127 171.78 316.127C171.217 316.127 170.716 316.025 170.276 315.822C169.836 315.619 169.493 315.34 169.248 314.984C169.002 314.629 168.879 314.246 168.879 313.835H170.377C170.399 314.199 170.536 314.481 170.79 314.68C171.044 314.874 171.38 314.972 171.799 314.972C172.206 314.972 172.514 314.896 172.726 314.743C172.938 314.587 173.043 314.383 173.043 314.134ZM180.07 315.327C179.618 315.86 178.974 316.127 178.141 316.127C177.396 316.127 176.831 315.909 176.446 315.473C176.065 315.037 175.875 314.407 175.875 313.582V309.132H177.417V313.562C177.417 314.434 177.779 314.87 178.502 314.87C179.251 314.87 179.757 314.601 180.02 314.064V309.132H181.562V316H180.108L180.07 315.327ZM184.583 309.132L184.628 309.849C185.11 309.286 185.771 309.005 186.608 309.005C187.527 309.005 188.155 309.356 188.494 310.059C188.993 309.356 189.695 309.005 190.601 309.005C191.359 309.005 191.921 309.214 192.29 309.633C192.662 310.052 192.852 310.67 192.861 311.487V316H191.318V311.531C191.318 311.095 191.223 310.776 191.033 310.573C190.842 310.37 190.527 310.268 190.087 310.268C189.736 310.268 189.448 310.363 189.224 310.554C189.004 310.74 188.849 310.985 188.76 311.29L188.767 316H187.224V311.48C187.203 310.672 186.79 310.268 185.986 310.268C185.368 310.268 184.931 310.52 184.672 311.023V316H183.13V309.132H184.583Z" fill="black"/>
<defs>
<filter id="filter0_d_575_1437" x="78" y="271" width="182" height="116" filterUnits="userSpaceOnUse" color-interpolation-filters="sRGB">
<feFlood flood-opacity="0" result="BackgroundImageFix"/>
<feColorMatrix in="SourceAlpha" type="matrix" values="0 0 0 0 0 0 0 0 0 0 0 0 0 0 0 0 0 0 127 0" result="hardAlpha"/>
<feOffset dx="5" dy="5"/>
<feGaussianBlur stdDeviation="10"/>
<feComposite in2="hardAlpha" operator="out"/>
<feColorMatrix type="matrix" values="0 0 0 0 0.827451 0 0 0 0 0.576471 0 0 0 0 0.913725 0 0 0 0.27 0"/>
<feBlend mode="normal" in2="BackgroundImageFix" result="effect1_dropShadow_575_1437"/>
<feBlend mode="normal" in="SourceGraphic" in2="effect1_dropShadow_575_1437" result="shape"/>
</filter>
<linearGradient id="paint0_linear_575_1437" x1="319.944" y1="51" x2="318.487" y2="79.2246" gradientUnits="userSpaceOnUse">
<stop stop-color="#D080EC"/>
<stop offset="1" stop-color="#D393E9"/>
</linearGradient>
<linearGradient id="paint1_linear_575_1437" x1="271.929" y1="141" x2="270.212" y2="169.195" gradientUnits="userSpaceOnUse">
<stop stop-color="#D080EC"/>
<stop offset="1" stop-color="#D393E9"/>
</linearGradient>
<linearGradient id="paint2_linear_575_1437" x1="290.175" y1="96" x2="288.566" y2="124.208" gradientUnits="userSpaceOnUse">
<stop stop-color="#D080EC"/>
<stop offset="1" stop-color="#D393E9"/>
</linearGradient>
<linearGradient id="paint3_linear_575_1437" x1="244.079" y1="186" x2="242.165" y2="214.17" gradientUnits="userSpaceOnUse">
<stop stop-color="#D080EC"/>
<stop offset="1" stop-color="#D393E9"/>
</linearGradient>
<linearGradient id="paint4_linear_575_1437" x1="237.357" y1="231" x2="235.388" y2="259.162" gradientUnits="userSpaceOnUse">
<stop stop-color="#D080EC"/>
<stop offset="1" stop-color="#D393E9"/>
</linearGradient>
<linearGradient id="paint5_linear_575_1437" x1="225.833" y1="276" x2="223.763" y2="304.148" gradientUnits="userSpaceOnUse">
<stop stop-color="#D080EC"/>
<stop offset="1" stop-color="#D393E9"/>
</linearGradient>
<linearGradient id="paint6_linear_575_1437" x1="215.27" y1="321" x2="213.097" y2="349.132" gradientUnits="userSpaceOnUse">
<stop stop-color="#D080EC"/>
<stop offset="1" stop-color="#D393E9"/>
</linearGradient>
<linearGradient id="paint7_linear_575_1437" x1="180.698" y1="366" x2="178.107" y2="394.061" gradientUnits="userSpaceOnUse">
<stop stop-color="#D080EC"/>
<stop offset="1" stop-color="#D393E9"/>
</linearGradient>
<linearGradient id="paint8_linear_575_1437" x1="172.056" y1="411" x2="169.334" y2="439.036" gradientUnits="userSpaceOnUse">
<stop stop-color="#D080EC"/>
<stop offset="1" stop-color="#D393E9"/>
</linearGradient>
<linearGradient id="paint9_linear_575_1437" x1="144.206" y1="456" x2="140.957" y2="483.922" gradientUnits="userSpaceOnUse">
<stop stop-color="#D080EC"/>
<stop offset="1" stop-color="#D393E9"/>
</linearGradient>
</defs>
</svg>
