<svg width="203" height="203" viewBox="0 0 203 203" fill="none" xmlns="http://www.w3.org/2000/svg">
<circle r="89" transform="matrix(-1 0 0 1 101.5 101.5)" stroke="#FAFAFB" stroke-width="25"/>
<path fill-rule="evenodd" clip-rule="evenodd" d="M12.5784 82C17.0304 82 20.2986 86.1736 19.7154 90.5872C19.2435 94.1578 19 97.8005 19 101.5C19 147.063 55.9365 184 101.5 184C147.063 184 184 147.063 184 101.5C184 55.9365 147.063 19 101.5 19C101.227 19 100.953 19.0013 100.681 19.004C96.5639 19.044 93 15.8542 93 11.7372C93 8.13408 95.7552 5.10179 99.3575 5.02332C100.07 5.0078 100.784 5 101.5 5C154.795 5 198 48.2045 198 101.5C198 154.795 154.795 198 101.5 198C48.2045 198 5 154.795 5 101.5C5 96.753 5.34277 92.086 6.0049 87.5225C6.47359 84.2922 9.31427 82 12.5784 82Z" fill="url(#paint0_linear_411_8248)"/>
<path d="M87.791 92.6494L79.2656 112H75.5303L84.041 93.5283H73.0107V90.6719H87.791V92.6494ZM91.5996 101.424L92.7568 90.6719H104.212V93.748H95.7158L95.1299 98.8457C96.1162 98.2793 97.2295 97.9961 98.4697 97.9961C100.501 97.9961 102.078 98.6455 103.201 99.9443C104.334 101.243 104.9 102.991 104.9 105.188C104.9 107.356 104.275 109.085 103.025 110.374C101.775 111.653 100.062 112.293 97.8838 112.293C95.9307 112.293 94.3096 111.741 93.0205 110.638C91.7412 109.524 91.0479 108.06 90.9404 106.243H94.3828C94.5195 107.278 94.8906 108.074 95.4961 108.631C96.1016 109.178 96.8926 109.451 97.8691 109.451C98.9629 109.451 99.8125 109.061 100.418 108.279C101.033 107.498 101.341 106.434 101.341 105.086C101.341 103.787 101.004 102.762 100.33 102.01C99.6562 101.248 98.7285 100.867 97.5469 100.867C96.9023 100.867 96.3555 100.955 95.9062 101.131C95.457 101.297 94.9688 101.629 94.4414 102.127L91.5996 101.424ZM107.552 94.7734C107.552 93.4844 107.967 92.4297 108.797 91.6094C109.627 90.7793 110.716 90.3643 112.063 90.3643C113.431 90.3643 114.524 90.7793 115.345 91.6094C116.175 92.4297 116.59 93.5088 116.59 94.8467V95.9014C116.59 97.1807 116.175 98.2305 115.345 99.0508C114.524 99.8711 113.44 100.281 112.093 100.281C110.774 100.281 109.686 99.8809 108.826 99.0801C107.977 98.2695 107.552 97.1807 107.552 95.8135V94.7734ZM110.042 95.9014C110.042 96.5752 110.228 97.1221 110.599 97.542C110.979 97.9521 111.478 98.1572 112.093 98.1572C112.698 98.1572 113.187 97.9521 113.558 97.542C113.929 97.1221 114.114 96.5557 114.114 95.8428V94.7734C114.114 94.0996 113.924 93.5527 113.543 93.1328C113.172 92.7129 112.679 92.5029 112.063 92.5029C111.448 92.5029 110.955 92.7178 110.584 93.1475C110.223 93.5674 110.042 94.124 110.042 94.8174V95.9014ZM117.806 106.771C117.806 105.462 118.23 104.402 119.08 103.592C119.93 102.781 121.014 102.376 122.332 102.376C123.66 102.376 124.744 102.781 125.584 103.592C126.434 104.402 126.858 105.496 126.858 106.873V107.913C126.858 109.183 126.448 110.232 125.628 111.062C124.817 111.883 123.729 112.293 122.361 112.293C120.994 112.293 119.891 111.888 119.051 111.077C118.221 110.257 117.806 109.178 117.806 107.84V106.771ZM120.296 107.913C120.296 108.577 120.486 109.124 120.867 109.554C121.258 109.974 121.756 110.184 122.361 110.184C122.986 110.184 123.475 109.983 123.826 109.583C124.188 109.173 124.368 108.602 124.368 107.869V106.771C124.368 106.087 124.178 105.54 123.797 105.13C123.416 104.72 122.928 104.515 122.332 104.515C121.727 104.515 121.233 104.72 120.853 105.13C120.481 105.54 120.296 106.106 120.296 106.829V107.913ZM112.825 110.403L110.994 109.349L121.409 92.6787L123.24 93.7334L112.825 110.403Z" fill="black"/>
<defs>
<linearGradient id="paint0_linear_411_8248" x1="12.6587" y1="18.7857" x2="204.127" y2="176.556" gradientUnits="userSpaceOnUse">
<stop stop-color="#4DB5F5"/>
<stop offset="1" stop-color="#1DA1F2"/>
</linearGradient>
</defs>
</svg>
