<svg width="14" height="14" viewBox="0 0 14 14" fill="none" xmlns="http://www.w3.org/2000/svg">
<path d="M11.2734 3.37038L10.8577 3.64816V3.64816L11.2734 3.37038ZM11.2734 9.46304L10.8577 9.18525L11.2734 9.46304ZM10.6297 10.1068L10.3519 9.69107L10.3519 9.69107L10.6297 10.1068ZM8.16666 10.4992L8.16448 9.99925C7.88919 10.0005 7.66666 10.224 7.66666 10.4992H8.16666ZM8.16666 10.5L8.61387 10.7236C8.64859 10.6542 8.66666 10.5777 8.66666 10.5H8.16666ZM5.83333 10.5H5.33333C5.33333 10.5777 5.3514 10.6542 5.38611 10.7236L5.83333 10.5ZM5.83333 10.4992H6.33333C6.33333 10.224 6.1108 10.0005 5.83551 9.99925L5.83333 10.4992ZM3.37033 10.1068L3.64812 9.69107L3.64812 9.69107L3.37033 10.1068ZM2.72657 9.46304L3.1423 9.18525H3.1423L2.72657 9.46304ZM2.72657 3.37038L2.31083 3.09259H2.31083L2.72657 3.37038ZM3.37033 2.72661L3.09255 2.31088L3.09255 2.31088L3.37033 2.72661ZM10.6297 2.72661L10.9074 2.31088V2.31088L10.6297 2.72661ZM12.1667 6.41671C12.1667 5.60784 12.1673 4.96356 12.1149 4.44918C12.0618 3.92645 11.9498 3.4827 11.6892 3.09259L10.8577 3.64816C10.9903 3.84657 11.0749 4.10672 11.1201 4.55039C11.1661 5.00241 11.1667 5.58703 11.1667 6.41671H12.1667ZM11.6892 9.74082C11.9498 9.35071 12.0618 8.90697 12.1149 8.38423C12.1673 7.86985 12.1667 7.22557 12.1667 6.41671H11.1667C11.1667 7.24638 11.1661 7.831 11.1201 8.28303C11.0749 8.72669 10.9903 8.98684 10.8577 9.18525L11.6892 9.74082ZM10.9074 10.5225C11.2168 10.3158 11.4824 10.0502 11.6892 9.74082L10.8577 9.18525C10.7239 9.38544 10.5521 9.55731 10.3519 9.69107L10.9074 10.5225ZM8.16884 10.9992C8.79579 10.9965 9.31433 10.9847 9.74583 10.9251C10.1854 10.8643 10.5667 10.7502 10.9074 10.5225L10.3519 9.69107C10.1785 9.80693 9.95767 9.88629 9.6089 9.9345C9.25209 9.98382 8.79619 9.99649 8.16448 9.99925L8.16884 10.9992ZM8.66666 10.5V10.4992H7.66666V10.5H8.66666ZM8.34163 11.2681L8.61387 10.7236L7.71945 10.2764L7.44721 10.8209L8.34163 11.2681ZM5.65835 11.2681C6.21114 12.3737 7.78885 12.3737 8.34163 11.2681L7.44721 10.8209C7.26295 11.1894 6.73704 11.1894 6.55278 10.8209L5.65835 11.2681ZM5.38611 10.7236L5.65835 11.2681L6.55278 10.8209L6.28054 10.2764L5.38611 10.7236ZM5.33333 10.4992V10.5H6.33333V10.4992H5.33333ZM3.09255 10.5225C3.43326 10.7502 3.81463 10.8643 4.25416 10.9251C4.68566 10.9847 5.2042 10.9965 5.83115 10.9992L5.83551 9.99925C5.2038 9.99649 4.7479 9.98382 4.39109 9.9345C4.04232 9.88629 3.82152 9.80693 3.64812 9.69107L3.09255 10.5225ZM2.31083 9.74082C2.51755 10.0502 2.78317 10.3158 3.09255 10.5225L3.64812 9.69107C3.44793 9.55731 3.27606 9.38543 3.1423 9.18525L2.31083 9.74082ZM1.83333 6.41671C1.83333 7.22557 1.83272 7.86985 1.88505 8.38423C1.93823 8.90697 2.05017 9.35071 2.31083 9.74082L3.1423 9.18525C3.00973 8.98684 2.92505 8.72669 2.87992 8.28303C2.83393 7.831 2.83333 7.24638 2.83333 6.41671H1.83333ZM2.31083 3.09259C2.05017 3.4827 1.93823 3.92645 1.88505 4.44918C1.83272 4.96356 1.83333 5.60784 1.83333 6.41671H2.83333C2.83333 5.58703 2.83393 5.00241 2.87992 4.55039C2.92505 4.10672 3.00973 3.84657 3.1423 3.64816L2.31083 3.09259ZM3.09255 2.31088C2.78317 2.51759 2.51755 2.78322 2.31083 3.09259L3.1423 3.64816C3.27606 3.44798 3.44793 3.2761 3.64812 3.14235L3.09255 2.31088ZM6.41666 1.83337C5.6078 1.83337 4.96351 1.83277 4.44914 1.8851C3.9264 1.93827 3.48265 2.05021 3.09255 2.31088L3.64812 3.14235C3.84653 3.00977 4.10668 2.92509 4.55034 2.87996C5.00236 2.83398 5.58699 2.83337 6.41666 2.83337V1.83337ZM7.58333 1.83337H6.41666V2.83337H7.58333V1.83337ZM10.9074 2.31088C10.5173 2.05021 10.0736 1.93827 9.55085 1.8851C9.03647 1.83277 8.39219 1.83337 7.58333 1.83337V2.83337C8.413 2.83337 8.99762 2.83398 9.44965 2.87996C9.89331 2.92509 10.1535 3.00977 10.3519 3.14235L10.9074 2.31088ZM11.6892 3.09259C11.4824 2.78322 11.2168 2.51759 10.9074 2.31088L10.3519 3.14235C10.5521 3.2761 10.7239 3.44798 10.8577 3.64816L11.6892 3.09259Z" fill="#D87171"/>
<ellipse cx="9.33333" cy="6.41671" rx="0.583333" ry="0.583333" fill="#D87171"/>
<ellipse cx="7" cy="6.41671" rx="0.583333" ry="0.583333" fill="#D87171"/>
<circle cx="4.66666" cy="6.41671" r="0.583333" fill="#D87171"/>
</svg>
