<?xml version="1.0" encoding="utf-8"?>
<!-- Generator: Adobe Illustrator 21.1.0, SVG Export Plug-In . SVG Version: 6.00 Build 0)  -->
<svg version="1.1" id="圖層_1" xmlns="http://www.w3.org/2000/svg" xmlns:xlink="http://www.w3.org/1999/xlink" x="0px" y="0px"
	 width="24px" height="24px" viewBox="0 0 24 24" style="enable-background:new 0 0 24 24;" xml:space="preserve">
<circle style="fill:#FFFFFF;stroke:#D87171;stroke-miterlimit:10;" cx="12" cy="12" r="8.012"/>
<g>
	<path style="fill:#D87171;" d="M12.547,16.32v0.565h-1.409v-0.589c-0.705-0.216-1.057-0.705-1.057-1.466v-1.965H11.5v1.977
		c0,0.196,0.097,0.294,0.29,0.294c0.187,0,0.28-0.098,0.28-0.294v-1.021c0-0.216-0.067-0.434-0.2-0.652
		c-0.133-0.218-0.559-0.755-1.276-1.608c-0.342-0.469-0.514-0.901-0.514-1.298V9.296c0-0.881,0.352-1.412,1.057-1.592V7.115h1.409
		v0.589c0.628,0.188,0.943,0.669,0.943,1.442v1.49h-1.419V9.05c0-0.172-0.076-0.258-0.229-0.258c-0.178,0-0.268,0.166-0.268,0.499
		l0.03,0.559c0,0.316,0.175,0.693,0.525,1.13c0.707,0.849,1.133,1.41,1.282,1.682c0.148,0.273,0.222,0.577,0.222,0.914v1.099
		C13.634,15.595,13.272,16.144,12.547,16.32z"/>
</g>
</svg>
