<svg width="16" height="17" viewBox="0 0 16 17" fill="none" xmlns="http://www.w3.org/2000/svg">
<path d="M5.78125 10.0532C5.78125 10.9132 6.44125 11.6066 7.26125 11.6066H8.93458C9.64792 11.6066 10.2279 10.9999 10.2279 10.2532C10.2279 9.43989 9.87458 9.15322 9.34792 8.96655L6.66125 8.03322C6.13458 7.84655 5.78125 7.55989 5.78125 6.74655C5.78125 5.99989 6.36125 5.39322 7.07458 5.39322H8.74792C9.56792 5.39322 10.2279 6.08655 10.2279 6.94655" stroke="#D87171" stroke-linecap="round" stroke-linejoin="round"/>
<path d="M8 4.5V12.5" stroke="#D87171" stroke-linecap="round" stroke-linejoin="round"/>
<path d="M7.99967 15.1667C11.6816 15.1667 14.6663 12.1819 14.6663 8.50001C14.6663 4.81811 11.6816 1.83334 7.99967 1.83334C4.31778 1.83334 1.33301 4.81811 1.33301 8.50001C1.33301 12.1819 4.31778 15.1667 7.99967 15.1667Z" stroke="#D87171" stroke-linecap="round" stroke-linejoin="round"/>
</svg>
