<svg width="10" height="23" viewBox="0 0 10 23" fill="none" xmlns="http://www.w3.org/2000/svg">
<path d="M5.69863 22.0411C5.23921 22.0875 4.77323 22.1113 4.3018 22.1113C3.83038 22.1113 3.3644 22.0875 2.90498 22.0411V10.7335H1.50815C0.736708 10.7335 0.111328 10.0968 0.111328 9.31132C0.111328 8.52585 0.736708 7.8891 1.50815 7.8891H2.90498V5.04465C2.90498 2.68824 4.78112 0.777985 7.09546 0.777985H8.49228C9.26373 0.777985 9.88911 1.41474 9.88911 2.20021C9.88911 2.98568 9.26373 3.62243 8.49228 3.62243H7.09546C6.32401 3.62243 5.69863 4.25918 5.69863 5.04465V7.8891H8.49228C9.26373 7.8891 9.88911 8.52585 9.88911 9.31132C9.88911 10.0968 9.26373 10.7335 8.49228 10.7335H5.69863V22.0411Z" fill="white"/>
</svg>
