<svg width="20" height="21" viewBox="0 0 20 21" fill="none" xmlns="http://www.w3.org/2000/svg">
<path fill-rule="evenodd" clip-rule="evenodd" d="M18 0.5H2C0.89543 0.5 0 1.39543 0 2.5V18.5C0 19.6046 0.89543 20.5 2 20.5H10V12.9706H7V10.1471H10V8.63082C10 5.76024 11.4897 4.5 13.925 4.5C15.0684 4.5 15.6836 4.58142 15.9825 4.62097L16 4.62329V7.32353H14.339C13.3053 7.32353 13 7.85812 13 8.94047V10.1471H15.9741L15.5629 12.9706H13V20.5H18C19.1046 20.5 20 19.6046 20 18.5V2.5C20 1.39543 19.1046 0.5 18 0.5Z" fill="#4893F5"/>
</svg>
