<svg width="14" height="14" viewBox="0 0 14 14" fill="none" xmlns="http://www.w3.org/2000/svg">
<path d="M2.5959 8.11304L6.65159 11.9229L6.66198 11.9326C6.85309 12.1077 7.14626 12.1077 7.33737 11.9326L7.34776 11.9229L11.4034 8.11304C12.5445 7.0411 12.6831 5.2771 11.7234 4.04013L11.5429 3.80754C10.3948 2.32776 8.09029 2.57593 7.28356 4.26622C7.16961 4.50498 6.82974 4.50498 6.71579 4.26622C5.90906 2.57593 3.60451 2.32776 2.45641 3.80753L2.27595 4.04012C1.31623 5.2771 1.4548 7.0411 2.5959 8.11304Z" stroke="#D87171"/>
<path d="M5.71387 8.57216L8.28603 6" stroke="#D87171" stroke-linecap="round" stroke-linejoin="round"/>
<path d="M8.28426 8.57275H8.28811" stroke="#D87171" stroke-linecap="round" stroke-linejoin="round"/>
<path d="M5.71199 6.21435H5.71584" stroke="#D87171" stroke-linecap="round" stroke-linejoin="round"/>
</svg>
