<svg width="34" height="34" viewBox="0 0 34 34" fill="none" xmlns="http://www.w3.org/2000/svg">
<path d="M18.6594 4.25H12.7497C10.0784 4.25 8.74274 4.25 7.91287 5.07986C7.08301 5.90973 7.08301 7.24537 7.08301 9.91667V24.0833C7.08301 26.7546 7.08301 28.0903 7.91287 28.9201C8.74274 29.75 10.0784 29.75 12.7497 29.75H21.2497C23.921 29.75 25.2566 29.75 26.0865 28.9201C26.9163 28.0903 26.9163 26.7546 26.9163 24.0833V12.5069C26.9163 11.9279 26.9163 11.6383 26.8085 11.378C26.7007 11.1177 26.4959 10.9129 26.0865 10.5035L20.6629 5.07986C20.2534 4.6704 20.0487 4.46567 19.7883 4.35784C19.528 4.25 19.2385 4.25 18.6594 4.25Z" stroke="white" stroke-width="2"/>
<path d="M12.75 18.4167L21.25 18.4167" stroke="white" stroke-width="2" stroke-linecap="round"/>
<path d="M12.75 24.0833L18.4167 24.0833" stroke="white" stroke-width="2" stroke-linecap="round"/>
<path d="M18.417 4.25V9.91667C18.417 11.2523 18.417 11.9201 18.8319 12.3351C19.2469 12.75 19.9147 12.75 21.2503 12.75H26.917" stroke="white" stroke-width="2"/>
</svg>
