<svg width="24" height="24" viewBox="0 0 24 24" fill="none" xmlns="http://www.w3.org/2000/svg">
<path d="M13.6795 11.0304L17.1574 9.02238C17.4719 8.8408 17.8741 8.94856 18.0556 9.26306L18.1356 9.40151C18.6526 10.2971 18.6719 11.3959 18.1865 12.309C17.5951 13.4215 16.244 13.8871 15.0928 13.3753L13.772 12.7879C13.0345 12.46 12.9805 11.4339 13.6795 11.0304Z" stroke="#D87171"/>
<path d="M12 13.9393V17.9552C12 18.3184 11.7056 18.6128 11.3424 18.6128H11.1826C10.1484 18.6128 9.18723 18.0801 8.63914 17.2031C7.9714 16.1347 8.24367 14.7319 9.26259 13.9908L10.4316 13.1406C11.0843 12.6659 12 13.1322 12 13.9393Z" stroke="#D87171"/>
<path d="M13.6795 12.9695L17.1574 14.9775C17.4719 15.1591 17.5797 15.5612 17.3981 15.8757L17.3182 16.0142C16.8011 16.9098 15.8591 17.4758 14.8256 17.512C13.5665 17.5561 12.4877 16.6189 12.3554 15.366L12.2037 13.9285C12.1189 13.1258 12.9805 12.566 13.6795 12.9695Z" stroke="#D87171"/>
<path d="M10.3205 12.9696L6.84261 14.9776C6.5281 15.1592 6.12595 15.0514 5.94437 14.7369L5.86444 14.5985C5.34736 13.7029 5.32813 12.6041 5.81355 11.691C6.40492 10.5785 7.75597 10.1129 8.90718 10.6247L10.228 11.2121C10.9655 11.54 11.0195 12.5661 10.3205 12.9696Z" stroke="#D87171"/>
<path d="M10.3203 11.0302L6.84236 9.02226C6.52786 8.84068 6.4201 8.43853 6.60168 8.12402L6.68161 7.98557C7.19869 7.08998 8.14066 6.52393 9.17417 6.48774C10.4333 6.44365 11.5121 7.38087 11.6443 8.63379L11.7961 10.0713C11.8809 10.8739 11.0192 11.4338 10.3203 11.0302Z" stroke="#D87171"/>
<path d="M12 10.0607V6.04476C12 5.68161 12.2944 5.38721 12.6576 5.38721H12.8174C13.8516 5.38721 14.8128 5.91995 15.3609 6.7969C16.0286 7.86528 15.7563 9.26814 14.7374 10.0092L13.5684 10.8594C12.9157 11.3341 12 10.8678 12 10.0607Z" stroke="#D87171"/>
</svg>
