<svg width="21" height="21" viewBox="0 0 21 21" fill="none" xmlns="http://www.w3.org/2000/svg">
<path fill-rule="evenodd" clip-rule="evenodd" d="M18.5 0.5H2.5C1.39543 0.5 0.5 1.39543 0.5 2.5V18.5C0.5 19.6046 1.39543 20.5 2.5 20.5H18.5C19.6046 20.5 20.5 19.6046 20.5 18.5V2.5C20.5 1.39543 19.6046 0.5 18.5 0.5ZM13.9029 11.7H10.5V9.64286H16.1657C16.2171 9.94286 16.26 10.2429 16.26 10.6371C16.26 14.0657 13.9629 16.5 10.5 16.5C7.18286 16.5 4.5 13.8171 4.5 10.5C4.5 7.18286 7.18286 4.5 10.5 4.5C12.12 4.5 13.4743 5.09143 14.52 6.06857L12.8914 7.63714C12.4457 7.20857 11.6657 6.71143 10.5 6.71143C8.45143 6.71143 6.78 8.40857 6.78 10.5C6.78 12.5914 8.45143 14.2886 10.5 14.2886C12.8743 14.2886 13.7657 12.5829 13.9029 11.7Z" fill="#DB5E5E"/>
</svg>
