<svg width="16" height="16" viewBox="0 0 16 16" fill="none" xmlns="http://www.w3.org/2000/svg">
<path d="M14.4398 6.95984L13.7865 9.74651C13.2265 12.1532 12.1198 13.1265 10.0398 12.9265C9.70646 12.8998 9.34646 12.8398 8.95979 12.7465L7.83979 12.4798C5.05979 11.8198 4.19979 10.4465 4.85313 7.65984L5.50646 4.86651C5.63979 4.29984 5.79979 3.80651 5.99979 3.39984C6.77979 1.78651 8.10646 1.35318 10.3331 1.87984L11.4465 2.13984C14.2398 2.79318 15.0931 4.17318 14.4398 6.95984Z" stroke="#D87171" stroke-linecap="round" stroke-linejoin="round"/>
<path d="M10.0402 12.9268C9.62689 13.2068 9.10689 13.4401 8.47356 13.6468L7.42023 13.9935C4.77356 14.8468 3.38023 14.1335 2.52023 11.4868L1.66689 8.85348C0.813561 6.20681 1.52023 4.80681 4.16689 3.95348L5.22023 3.60681C5.49356 3.52015 5.75356 3.44681 6.00023 3.40015C5.80023 3.80681 5.64023 4.30015 5.50689 4.86681L4.85356 7.66015C4.20023 10.4468 5.06023 11.8201 7.84023 12.4801L8.96023 12.7468C9.34689 12.8401 9.70689 12.9001 10.0402 12.9268Z" stroke="#D87171" stroke-linecap="round" stroke-linejoin="round"/>
<path d="M8.42676 5.68689L11.6601 6.50689" stroke="#D87171" stroke-linecap="round" stroke-linejoin="round"/>
<path d="M7.77344 8.26654L9.70677 8.75988" stroke="#D87171" stroke-linecap="round" stroke-linejoin="round"/>
</svg>
