<svg width="16" height="16" viewBox="0 0 16 16" fill="none" xmlns="http://www.w3.org/2000/svg">
<path d="M14.0538 5.72V10.28C14.0538 11.0266 13.6538 11.72 13.0071 12.1L9.0471 14.3867C8.40043 14.76 7.60043 14.76 6.9471 14.3867L2.9871 12.1C2.34043 11.7267 1.94043 11.0333 1.94043 10.28V5.72C1.94043 4.97334 2.34043 4.27997 2.9871 3.89997L6.9471 1.61331C7.59376 1.23998 8.39376 1.23998 9.0471 1.61331L13.0071 3.89997C13.6538 4.27997 14.0538 4.96667 14.0538 5.72Z" stroke="#D87171" stroke-linecap="round" stroke-linejoin="round"/>
<path d="M7.99962 7.33339C8.85751 7.33339 9.55296 6.63793 9.55296 5.78005C9.55296 4.92217 8.85751 4.22675 7.99962 4.22675C7.14174 4.22675 6.44629 4.92217 6.44629 5.78005C6.44629 6.63793 7.14174 7.33339 7.99962 7.33339Z" stroke="#D87171" stroke-linecap="round" stroke-linejoin="round"/>
<path d="M10.6663 11.1065C10.6663 9.90653 9.47301 8.93323 7.99967 8.93323C6.52634 8.93323 5.33301 9.90653 5.33301 11.1065" stroke="#D87171" stroke-linecap="round" stroke-linejoin="round"/>
</svg>
