<svg width="30" height="30" viewBox="0 0 30 30" fill="none" xmlns="http://www.w3.org/2000/svg">
<path fill-rule="evenodd" clip-rule="evenodd" d="M10.6455 18.7553C10.7711 18.9009 10.9042 19.0406 11.0446 19.1736C11.8512 19.9381 12.862 20.4525 13.9548 20.6545C15.0476 20.8565 16.1755 20.7376 17.2021 20.312C18.2287 19.8864 19.1099 19.1725 19.7393 18.2565C20.3686 17.3406 20.719 16.2619 20.7481 15.151C20.7772 14.0401 20.4838 12.9445 19.9033 11.9969C19.3229 11.0492 18.4802 10.2901 17.4773 9.8113C17.0292 9.59735 16.5576 9.44349 16.0747 9.35162L16.3696 10.452C16.6006 10.5216 16.827 10.6089 17.0465 10.7137C17.875 11.1092 18.5711 11.7364 19.0506 12.5192C19.5301 13.302 19.7725 14.2071 19.7485 15.1248C19.7244 16.0425 19.4349 16.9336 18.9151 17.6902C18.3952 18.4469 17.6672 19.0367 16.8191 19.3882C15.9711 19.7398 15.0393 19.8381 14.1366 19.6712C13.2399 19.5054 12.41 19.085 11.7459 18.4605L10.6455 18.7553Z" fill="#8F8F8F"/>
<path d="M10.4343 9.04985C10.9505 8.65371 11.515 8.32732 12.113 8.07791C12.5199 7.9082 12.7234 7.82334 12.927 7.92345C13.1307 8.02356 13.193 8.2562 13.3177 8.72148L14.7412 14.0341C14.8632 14.4894 14.9242 14.7171 14.8206 14.8964C14.7171 15.0758 14.4894 15.1368 14.0341 15.2588L8.72148 16.6823C8.2562 16.807 8.02357 16.8693 7.83505 16.743C7.64653 16.6167 7.61829 16.3981 7.5618 15.9608C7.4788 15.3183 7.47923 14.6662 7.56416 14.0211C7.69272 13.0446 8.01235 12.103 8.50481 11.25C8.99727 10.397 9.6529 9.64943 10.4343 9.04985Z" stroke="#8F8F8F"/>
</svg>
