<svg width="29" height="29" viewBox="0 0 29 29" fill="none" xmlns="http://www.w3.org/2000/svg">
<path fill-rule="evenodd" clip-rule="evenodd" d="M3.77832 9.70376C3.77832 6.43096 6.43145 3.77783 9.70425 3.77783H19.1857C22.4585 3.77783 25.1117 6.43096 25.1117 9.70376V19.1852C25.1117 22.458 22.4585 25.1112 19.1857 25.1112H9.70425C6.43145 25.1112 3.77832 22.458 3.77832 19.1852V9.70376ZM9.70425 6.1482C7.74057 6.1482 6.14869 7.74008 6.14869 9.70376V19.1852C6.14869 21.1489 7.74057 22.7408 9.70425 22.7408H19.1857C21.1494 22.7408 22.7413 21.1489 22.7413 19.1852V9.70376C22.7413 7.74008 21.1494 6.1482 19.1857 6.1482H9.70425Z" fill="white"/>
<path fill-rule="evenodd" clip-rule="evenodd" d="M19.7782 10.2964C20.4327 10.2964 20.9634 9.76574 20.9634 9.11118C20.9634 8.45662 20.4327 7.92599 19.7782 7.92599C19.1236 7.92599 18.593 8.45662 18.593 9.11118C18.593 9.76574 19.1236 10.2964 19.7782 10.2964ZM12.0745 14.4445C12.0745 13.1354 13.1357 12.0741 14.4448 12.0741C15.754 12.0741 16.8152 13.1354 16.8152 14.4445C16.8152 15.7536 15.754 16.8149 14.4448 16.8149C13.1357 16.8149 12.0745 15.7536 12.0745 14.4445ZM14.4448 9.70377C11.8266 9.70377 9.7041 11.8263 9.7041 14.4445C9.7041 17.0628 11.8266 19.1853 14.4448 19.1853C17.0631 19.1853 19.1856 17.0628 19.1856 14.4445C19.1856 11.8263 17.0631 9.70377 14.4448 9.70377Z" fill="white"/>
</svg>
