<?xml version="1.0" encoding="utf-8"?>
<!-- Generator: Adobe Illustrator 21.1.0, SVG Export Plug-In . SVG Version: 6.00 Build 0)  -->
<svg version="1.1" id="圖層_1" xmlns="http://www.w3.org/2000/svg" xmlns:xlink="http://www.w3.org/1999/xlink" x="0px" y="0px"
	 width="20px" height="21px" viewBox="0 0 20 21" style="enable-background:new 0 0 20 21;" xml:space="preserve">
<style type="text/css">
	.st0{display:none;fill:#4893F5;}
	.st1{fill:#3D1D1C;}
	.st2{fill:#FFE812;}
</style>
<path class="st0" d="M18,0.5H2c-1.1,0-2,0.9-2,2v16c0,1.1,0.9,2,2,2h8V13H7v-2.8h3V8.6c0-2.9,1.5-4.1,3.9-4.1c1.1,0,1.8,0.1,2.1,0.1
	l0,0v2.7h-1.7c-1,0-1.3,0.5-1.3,1.6v1.2h3L15.6,13H13v7.5h5c1.1,0,2-0.9,2-2v-16C20,1.4,19.1,0.5,18,0.5z"/>
<g id="Layer_2">
	<g>
		<g>
			<path class="st1" d="M10.2,2.4c-9.4,0-13.8,9.9-5.2,14.3c-0.2,0.5-1,3.3-1,3.6c0,0.2,0.1,0.3,0.3,0.2c0.3,0,3.6-2.3,4.2-2.7
				C22,19.4,24.7,3,10.2,2.4z"/>
			<path class="st2" d="M5.3,12.3c0,0.7-1.1,0.7-1.1,0V8.9H3.3c-0.7,0-0.7-1.1,0-1.1h2.9c0.7,0,0.7,1.1,0,1.1H5.3V12.3z"/>
			<path class="st2" d="M10.1,12.7c-0.3,0.1-0.7,0.1-0.8-0.2L9,11.8H7.2l-0.3,0.7c-0.1,0.3-0.6,0.3-0.8,0.2C6,12.7,5.8,12.5,6,11.9
				l1.4-3.6c0.3-0.7,1.2-0.7,1.5,0l1.4,3.6C10.4,12.5,10.2,12.7,10.1,12.7z"/>
			<path class="st2" d="M12.9,12.7h-1.8c-0.3,0-0.5-0.2-0.5-0.5V8.4c0-0.7,1.1-0.7,1.2,0v3.3h1.2C13.7,11.7,13.7,12.7,12.9,12.7z"/>
			<path class="st2" d="M17.4,12.3c-0.1,0.5-0.7,0.7-1,0.3L15,10.8L14.8,11v1.2c0,0.7-1.1,0.7-1.1,0V8.4c0-0.7,1.1-0.7,1.1,0v1.2
				L16.4,8c0.2-0.2,0.5-0.2,0.7,0c0.2,0.2,0.2,0.5,0,0.7L15.9,10l1.4,1.8C17.4,12,17.4,12.2,17.4,12.3z"/>
			<polygon class="st1" points="7.5,10.8 8.7,10.8 8.1,9.2 			"/>
		</g>
	</g>
</g>
</svg>
