<?xml version="1.0" encoding="UTF-8"?>
<svg xmlns="http://www.w3.org/2000/svg" xmlns:xlink="http://www.w3.org/1999/xlink" width="12px" height="12px" viewBox="0 0 12 12" version="1.1">
<g id="surface1">
<path style="fill-rule:nonzero;fill:rgb(84.705882%,44.313725%,44.313725%);fill-opacity:1;stroke-width:3.648;stroke-linecap:butt;stroke-linejoin:miter;stroke:rgb(84.705882%,44.313725%,44.313725%);stroke-opacity:1;stroke-miterlimit:4;" d="M 50.63 26.22125 C 50.48625 24.84125 50.60125 21.04625 54.22375 15.785 C 54.51125 15.3825 54.45375 14.83625 54.10875 14.49125 C 52.6425 13.025 51.7225 12.07625 51.06125 11.44375 C 50.2275 10.58125 49.85375 10.17875 49.27875 9.66125 C 48.905 9.345 48.33 9.31625 47.95625 9.66125 C 41.63125 15.1525 34.5875 26.5375 35.6225 40.48125 C 36.22625 48.64625 42.1775 54.5975 49.79625 54.5975 C 57.645 54.5975 63.99875 48.215 63.99875 40.395 C 63.99875 32.83375 58.07625 26.6525 50.63 26.22125 Z M 49.79625 52.585 C 43.27 52.585 38.12375 47.43875 37.60625 40.3375 C 37.60625 40.3375 37.60625 40.3375 37.60625 40.30875 C 36.45625 24.64 45.77125 14.4625 48.58875 11.78875 C 48.87625 12.0475 49.1925 12.36375 49.6525 12.82375 C 50.19875 13.39875 50.975 14.175 52.125 15.325 C 47.72625 22.11 48.53125 26.96875 48.905 27.65875 C 49.0775 27.975 49.4225 28.205 49.79625 28.205 C 56.52375 28.205 61.98625 33.6675 61.98625 40.395 C 61.98625 47.1225 56.52375 52.585 49.79625 52.585 Z M 49.79625 52.585 " transform="matrix(0.13587,0,0,0.13587,1.652174,1.652174)"/>
<path style="fill-rule:nonzero;fill:rgb(84.705882%,44.313725%,44.313725%);fill-opacity:1;stroke-width:3.648;stroke-linecap:butt;stroke-linejoin:miter;stroke:rgb(84.705882%,44.313725%,44.313725%);stroke-opacity:1;stroke-miterlimit:4;" d="M 15.12375 26.22125 C 14.98 24.84125 15.06625 21.04625 18.7175 15.785 C 18.97625 15.3825 18.9475 14.83625 18.6025 14.49125 C 17.1075 13.025 16.21625 12.105 15.555 11.44375 C 14.72125 10.58125 14.31875 10.17875 13.7725 9.66125 C 13.39875 9.345 12.82375 9.31625 12.45 9.66125 C 6.125 15.1525 -0.91875 26.5375 0.0875 40.48125 C 0.69125 48.64625 6.67125 54.5975 14.29 54.5975 C 22.11 54.5975 28.4925 48.215 28.4925 40.395 C 28.4925 32.83375 22.57 26.6525 15.12375 26.22125 Z M 14.29 52.585 C 7.735 52.585 2.6175 47.43875 2.1 40.30875 L 2.1 40.3375 C 0.95 24.64 10.265 14.4625 13.0825 11.78875 C 13.37 12.0475 13.68625 12.36375 14.14625 12.8525 C 14.6925 13.39875 15.44 14.175 16.59 15.325 C 12.19125 22.11 13.025 26.96875 13.39875 27.65875 C 13.57125 27.975 13.91625 28.205 14.29 28.205 C 21.0175 28.205 26.48 33.6675 26.48 40.395 C 26.48 47.1225 21.0175 52.585 14.29 52.585 Z M 14.29 52.585 " transform="matrix(0.13587,0,0,0.13587,1.652174,1.652174)"/>
</g>
</svg>
