<svg width="32" height="32" viewBox="0 0 32 32" fill="none" xmlns="http://www.w3.org/2000/svg">
<path d="M16 24.6687V11.3333M16 11.3333V7.48648C16 7.0098 16.3365 6.59938 16.8039 6.5059L21.4705 5.57257C22.0893 5.44881 22.6667 5.9221 22.6667 6.55315V9.18021C22.6667 9.65689 22.3302 10.0673 21.8628 10.1608L16 11.3333Z" stroke="white" stroke-width="2"/>
<path d="M16.3333 25.3333C16.3333 25.847 16.0435 26.4064 15.3853 26.8766C14.7289 27.3454 13.7709 27.6667 12.6667 27.6667C11.5624 27.6667 10.6044 27.3454 9.94807 26.8766C9.28981 26.4064 9 25.847 9 25.3333C9 24.8196 9.28981 24.2602 9.94807 23.79C10.6044 23.3212 11.5624 23 12.6667 23C13.7709 23 14.7289 23.3212 15.3853 23.79C16.0435 24.2602 16.3333 24.8196 16.3333 25.3333Z" stroke="white" stroke-width="2"/>
</svg>
