<?xml version="1.0" encoding="utf-8"?>
<!-- Generator: Adobe Illustrator 21.1.0, SVG Export Plug-In . SVG Version: 6.00 Build 0)  -->
<svg version="1.1" xmlns="http://www.w3.org/2000/svg" xmlns:xlink="http://www.w3.org/1999/xlink" x="0px" y="0px" width="16px"
	 height="19px" viewBox="0 0 16 19" style="enable-background:new 0 0 16 19;" xml:space="preserve">
<style type="text/css">
	.st0{display:none;}
	.st1{display:inline;fill:url(#SVGID_1_);}
	.st2{display:inline;}
	.st3{fill:url(#SVGID_2_);}
	.st4{fill:#636363;}
</style>
<g id="圖層_1" class="st0">
	<g id="圖層_1_1_">
		
			<linearGradient id="SVGID_1_" gradientUnits="userSpaceOnUse" x1="8" y1="15.8571" x2="8" y2="-2.1429" gradientTransform="matrix(1 0 0 -1 0 16)">
			<stop  offset="0" style="stop-color:#18AA00"/>
			<stop  offset="1" style="stop-color:#18AA00;stop-opacity:0"/>
		</linearGradient>
		<path class="st1" d="M8.7,0.3c-0.4-0.4-1-0.4-1.4,0L0.9,6.7c-0.4,0.4-0.4,1,0,1.4s1,0.4,1.4,0L8,2.4l5.7,5.7c0.4,0.4,1,0.4,1.4,0
			c0.4-0.4,0.4-1,0-1.4L8.7,0.3z M9,19V1H7v18H9z"/>
	</g>
	<g id="圖層_2" class="st2">
		
			<linearGradient id="SVGID_2_" gradientUnits="userSpaceOnUse" x1="7.9784" y1="19.6287" x2="7.9784" y2="6.2065" gradientTransform="matrix(1 0 0 1 0 -4)">
			<stop  offset="0" style="stop-color:#18AA00;stop-opacity:0"/>
			<stop  offset="0.1467" style="stop-color:#18AA00;stop-opacity:0.1467"/>
			<stop  offset="1" style="stop-color:#18AA00"/>
		</linearGradient>
		<path class="st3" d="M7.3,2.6L0.5,14.3c-0.3,0.6,0.1,1.3,0.7,1.3h13.5c0.7,0,1.1-0.7,0.7-1.3L8.7,2.6C8.4,2.1,7.6,2.1,7.3,2.6z"/>
	</g>
</g>
<g id="圖層_2_1_">
	<path class="st4" d="M13.2,9.8H2.8c-0.6,0-1.1-0.5-1.1-1.1v0c0-0.6,0.5-1.1,1.1-1.1h10.3c0.6,0,1.1,0.5,1.1,1.1v0
		C14.3,9.3,13.8,9.8,13.2,9.8z"/>
</g>
</svg>
