<svg width="16" height="16" viewBox="0 0 16 16" fill="none" xmlns="http://www.w3.org/2000/svg">
<path d="M6.87152 4.81327C7.29957 3.74615 7.5136 3.21259 7.86132 3.13864C7.95275 3.11919 8.04724 3.11919 8.13867 3.13864C8.48639 3.21259 8.70042 3.74615 9.12847 4.81327C9.37189 5.42013 9.4936 5.72355 9.72134 5.92993C9.78522 5.98782 9.85456 6.03937 9.92839 6.08387C10.1916 6.24252 10.5202 6.27195 11.1774 6.33081C12.2899 6.43044 12.8462 6.48026 13.016 6.79742C13.0512 6.86311 13.0751 6.93423 13.0868 7.00782C13.1431 7.36318 12.7342 7.73522 11.9163 8.4793L11.6892 8.68592C11.3068 9.03379 11.1157 9.20773 11.0051 9.4248C10.9387 9.55501 10.8943 9.69524 10.8734 9.83988C10.8387 10.081 10.8947 10.3333 11.0066 10.838L11.0466 11.0183C11.2474 11.9233 11.3478 12.3758 11.2225 12.5983C11.1099 12.7981 10.9026 12.926 10.6735 12.9369C10.4185 12.9491 10.0592 12.6563 9.34052 12.0707C8.86704 11.6849 8.63031 11.492 8.3675 11.4166C8.12734 11.3477 7.87265 11.3477 7.63249 11.4166C7.36968 11.492 7.13294 11.6849 6.65947 12.0707C5.94082 12.6563 5.5815 12.9491 5.32648 12.9369C5.09742 12.926 4.89005 12.7981 4.77747 12.5983C4.65215 12.3758 4.75254 11.9233 4.95334 11.0183L4.99335 10.838C5.10532 10.3333 5.1613 10.081 5.12656 9.83988C5.10572 9.69524 5.06124 9.55501 4.99491 9.4248C4.88432 9.20773 4.69314 9.03379 4.31078 8.68592L4.08366 8.4793C3.2658 7.73522 2.85688 7.36318 2.91319 7.00782C2.92485 6.93423 2.94877 6.86311 2.98395 6.79742C3.15382 6.48026 3.71007 6.43044 4.82258 6.33081C5.47977 6.27195 5.80837 6.24252 6.07159 6.08387C6.14543 6.03937 6.21477 5.98782 6.27865 5.92993C6.50639 5.72355 6.6281 5.42013 6.87152 4.81327Z" fill="#DDDDDC" stroke="#DDDDDC" stroke-width="2"/>
</svg>
