<?xml version="1.0" encoding="utf-8"?>
<!-- Generator: Adobe Illustrator 21.1.0, SVG Export Plug-In . SVG Version: 6.00 Build 0)  -->
<svg version="1.1" xmlns="http://www.w3.org/2000/svg" xmlns:xlink="http://www.w3.org/1999/xlink" x="0px" y="0px" width="28px"
	 height="23px" viewBox="0 0 28 23" style="enable-background:new 0 0 28 23;" xml:space="preserve">
<style type="text/css">
	.st0{display:none;}
	.st1{display:inline;fill:#FFFFFF;}
	.st2{fill:#FFFFFF;}
</style>
<g id="圖層_1" class="st0">
	<path class="st1" d="M11.8,21c-4.6,0.5-8.6-1.6-8.9-4.7c-0.3-3,3.2-5.9,7.8-6.3c4.6-0.5,8.6,1.6,8.9,4.7
		C19.9,17.7,16.4,20.6,11.8,21z M21,10.9c-0.4-0.1-0.7-0.2-0.5-0.7c0.4-1.1,0.5-2.1,0-2.8c-0.9-1.3-3.4-1.2-6.2,0
		c0,0-0.9,0.4-0.7-0.3c0.4-1.4,0.4-2.6-0.3-3.3c-1.5-1.5-5.7,0.1-9.2,3.6C1.5,10,0,12.8,0,15.2c0,4.6,5.9,7.4,11.7,7.4
		c7.6,0,12.7-4.4,12.7-7.9C24.4,12.6,22.6,11.4,21,10.9z"/>
	<path class="st1" d="M26.1,2.4c-1.8-2-4.6-2.8-7.1-2.3h0c-0.1,0-0.3,0.1-0.4,0.2c-0.1,0.1-0.2,0.2-0.3,0.3S18.2,0.9,18.2,1
		c0,0.1,0,0.3,0,0.4s0.1,0.3,0.2,0.4c0.1,0.1,0.2,0.2,0.3,0.3c0.1,0.1,0.3,0.1,0.4,0.2c0.1,0,0.3,0,0.4,0c1.8-0.4,3.7,0.2,5,1.6
		c0.6,0.7,1,1.5,1.2,2.4c0.2,0.9,0.1,1.8-0.1,2.7l0,0c0,0.1-0.1,0.3,0,0.4s0,0.3,0.1,0.4c0.1,0.1,0.2,0.2,0.3,0.3
		c0.1,0.1,0.2,0.2,0.4,0.2c0.3,0.1,0.6,0.1,0.8-0.1c0.3-0.1,0.4-0.4,0.5-0.6l0,0C28.4,7.3,27.9,4.5,26.1,2.4z"/>
	<path class="st1" d="M23.3,5c-0.9-1-2.2-1.4-3.4-1.1c-0.1,0-0.2,0.1-0.3,0.1c-0.1,0.1-0.2,0.2-0.3,0.3c-0.1,0.1-0.1,0.2-0.1,0.3
		c0,0.1,0,0.2,0,0.4c0,0.1,0.1,0.2,0.1,0.3c0.1,0.1,0.2,0.2,0.3,0.3c0.1,0.1,0.2,0.1,0.3,0.1c0.1,0,0.2,0,0.4,0v0
		c0.3-0.1,0.6,0,0.9,0c0.3,0.1,0.6,0.3,0.8,0.5c0.2,0.2,0.4,0.5,0.4,0.8c0.1,0.3,0,0.6,0,0.9h0c-0.1,0.2-0.1,0.5,0.1,0.7
		c0.1,0.2,0.3,0.4,0.5,0.5c0.2,0.1,0.5,0.1,0.7-0.1C23.8,9,23.9,8.8,24,8.5C24.4,7.3,24.2,6,23.3,5z"/>
	<path class="st1" d="M12,15.5c-0.2,0.3-0.5,0.4-0.8,0.3c-0.3-0.1-0.4-0.4-0.2-0.7c0.2-0.3,0.5-0.4,0.8-0.3
		C12.1,14.9,12.2,15.2,12,15.5z M10.5,17.4c-0.4,0.7-1.4,1-2.1,0.7c-0.7-0.3-0.9-1.2-0.5-1.9c0.4-0.7,1.4-1,2.1-0.7
		C10.7,15.9,11,16.7,10.5,17.4z M12.2,12.3c-2.2-0.6-4.7,0.5-5.7,2.5c-1,2,0,4.2,2.2,4.9c2.3,0.7,5-0.4,6-2.5
		C15.7,15.1,14.5,12.9,12.2,12.3z"/>
</g>
<g id="圖層_2">
	<g transform="translate(128 128) scale(0.72 0.72)">
		<g transform="translate(-175.05 -175.05000000000004) scale(3.89 3.89)">
			<path class="st2" d="M3.6,2.6V2.3c-0.1,0-0.2,0-0.3,0C2,2.3,1,3.3,1,4.6C1,5.3,1.4,6,2,6.4C1.6,6,1.4,5.4,1.4,4.9
				C1.4,3.6,2.4,2.6,3.6,2.6"/>
			<path class="st2" d="M3.6,5.9c0.6,0,1-0.4,1-1l0-4.9h0.9c0-0.1,0-0.2,0-0.3H4.3l0,4.9c0,0.5-0.5,1-1,1c-0.2,0-0.3,0-0.5-0.1
				C3,5.7,3.3,5.9,3.6,5.9 M7.2,1.7V1.4c-0.3,0-0.7-0.1-0.9-0.3C6.5,1.4,6.9,1.6,7.2,1.7"/>
			<path class="st2" d="M6.3,1.1C6,0.8,5.9,0.4,5.9,0H5.5C5.6,0.5,5.9,0.9,6.3,1.1 M3.3,3.5c-0.6,0-1,0.5-1,1c0,0.4,0.2,0.7,0.6,0.9
				C2.7,5.3,2.6,5.1,2.6,4.9c0-0.6,0.5-1,1-1c0.1,0,0.2,0,0.3,0V2.6c-0.1,0-0.2,0-0.3,0c0,0,0,0-0.1,0v1C3.5,3.5,3.4,3.5,3.3,3.5"/>
			<path class="st2" d="M7.2,1.7v1C6.6,2.6,6,2.4,5.5,2.1v2.5c0,1.2-1,2.3-2.3,2.3C2.8,6.8,2.3,6.7,2,6.4c0.4,0.5,1,0.7,1.6,0.7
				c1.2,0,2.3-1,2.3-2.3V2.4C6.4,2.7,7,2.9,7.6,2.9V1.7C7.5,1.7,7.3,1.7,7.2,1.7"/>
			<path class="st2" d="M5.5,4.6V2.1C6,2.4,6.6,2.6,7.2,2.6v-1C6.9,1.6,6.5,1.4,6.3,1.1C5.9,0.9,5.6,0.5,5.5,0H4.7l0,4.9
				c0,0.5-0.5,1-1,1C3.3,5.9,3,5.7,2.8,5.5C2.5,5.3,2.2,4.9,2.2,4.6c0-0.6,0.5-1,1-1c0.1,0,0.2,0,0.3,0v-1c-1.2,0-2.2,1-2.2,2.3
				C1.4,5.5,1.6,6,2,6.4c0.4,0.3,0.8,0.4,1.3,0.4C4.5,6.8,5.5,5.8,5.5,4.6"/>
		</g>
	</g>
</g>
</svg>
