<svg width="15" height="15" viewBox="0 0 15 15" fill="none" xmlns="http://www.w3.org/2000/svg">
<g clip-path="url(#clip0_410_5002)">
<path d="M4.71885 13.5938C10.3778 13.5938 13.4739 8.90422 13.4739 4.83869C13.4739 4.70686 13.471 4.57209 13.4651 4.44026C14.0674 4.00469 14.5872 3.46519 15 2.84709C14.4391 3.09666 13.8435 3.25964 13.2337 3.33049C13.8758 2.9456 14.3566 2.34095 14.5869 1.62863C13.9828 1.98663 13.3222 2.23916 12.6334 2.37541C12.1693 1.88226 11.5556 1.55573 10.8873 1.44631C10.219 1.3369 9.53324 1.45069 8.93609 1.77009C8.33893 2.08949 7.86363 2.59672 7.58365 3.21335C7.30368 3.82998 7.23464 4.52167 7.38721 5.18147C6.16406 5.12009 4.96746 4.80235 3.87499 4.24884C2.78252 3.69534 1.81856 2.91843 1.04561 1.96848C0.65275 2.64581 0.532535 3.44731 0.709394 4.21009C0.886253 4.97287 1.34691 5.63969 1.99775 6.07502C1.50914 6.05951 1.03123 5.92796 0.603516 5.69123V5.72932C0.603078 6.44012 0.848811 7.12915 1.29894 7.67926C1.74908 8.22938 2.37583 8.60663 3.07266 8.7469C2.62003 8.87074 2.14499 8.88878 1.68428 8.79963C1.88091 9.41093 2.26348 9.94559 2.77861 10.329C3.29373 10.7124 3.9157 10.9254 4.55771 10.9383C3.46777 11.7945 2.12136 12.2589 0.735352 12.2567C0.489554 12.2563 0.243999 12.2412 0 12.2115C1.40804 13.1149 3.04596 13.5946 4.71885 13.5938Z" fill="#C4C4C4"/>
</g>
<defs>
<clipPath id="clip0_410_5002">
<rect width="15" height="15" fill="white"/>
</clipPath>
</defs>
</svg>
