<svg width="14" height="14" viewBox="0 0 14 14" fill="none" xmlns="http://www.w3.org/2000/svg">
<path d="M5.24984 12.8333H8.74984C11.6665 12.8333 12.8332 11.6667 12.8332 8.74999V5.24999C12.8332 2.33332 11.6665 1.16666 8.74984 1.16666H5.24984C2.33317 1.16666 1.1665 2.33332 1.1665 5.24999V8.74999C1.1665 11.6667 2.33317 12.8333 5.24984 12.8333Z" stroke="#D87171" stroke-linecap="round" stroke-linejoin="round"/>
<path d="M5.30811 7V6.13666C5.30811 5.0225 6.09561 4.57333 7.05811 5.12749L7.80477 5.55916L8.55144 5.99083C9.51394 6.545 9.51394 7.45499 8.55144 8.00916L7.80477 8.44083L7.05811 8.8725C6.09561 9.42666 5.30811 8.97166 5.30811 7.86333V7Z" stroke="#D87171" stroke-miterlimit="10" stroke-linecap="round" stroke-linejoin="round"/>
</svg>
