<svg width="24" height="24" viewBox="0 0 24 24" fill="none" xmlns="http://www.w3.org/2000/svg">
<path d="M22 12.25V16.75C22 20.5 20.5 22 16.75 22H12.25C8.5 22 7 20.5 7 16.75V12.25C7 8.5 8.5 7 12.25 7H16.75C20.5 7 22 8.5 22 12.25Z" stroke="white" stroke-width="2.3" stroke-linecap="round" stroke-linejoin="round"/>
<path d="M2 5.85V9.15C2 11.9 3.1 13 5.85 13H7V12.25C7 8.5 8.5 7 12.25 7H13V5.85C13 3.1 11.9 2 9.15 2H5.85C3.1 2 2 3.1 2 5.85Z" stroke="white" stroke-width="2.3" stroke-linecap="round" stroke-linejoin="round"/>
</svg>
