<svg width="28" height="23" viewBox="0 0 28 23" fill="none" xmlns="http://www.w3.org/2000/svg">
<path d="M11.7623 21.0218C7.12705 21.479 3.12588 19.3844 2.82431 16.3408C2.52349 13.2979 6.03843 10.4602 10.6729 10.0019C15.3085 9.54323 19.31 11.6386 19.6108 14.6807C19.9113 17.7247 16.3978 20.5631 11.7623 21.0218ZM21.0338 10.9193C20.6395 10.8016 20.3692 10.7208 20.5755 10.203C21.0226 9.07785 21.0688 8.10762 20.584 7.41513C19.6752 6.1169 17.1882 6.18653 14.3375 7.38051C14.3375 7.37865 13.4425 7.77218 13.6711 7.06219C14.1096 5.65227 14.0434 4.47168 13.3609 3.78999C11.8148 2.24232 7.70189 3.84844 4.17466 7.37418C1.53353 10.0157 0 12.8151 0 15.2358C0 19.8662 5.9379 22.6812 11.747 22.6812C19.3618 22.6812 24.4274 18.2567 24.4274 14.7443C24.4274 12.6218 22.6399 11.4174 21.0338 10.9193Z" fill="white"/>
<path d="M26.0906 2.44605C24.2518 0.407304 21.5391 -0.369698 19.0354 0.162327H19.0346C18.897 0.191736 18.7664 0.247974 18.6505 0.327832C18.5345 0.407689 18.4355 0.509602 18.3589 0.627751C18.2823 0.7459 18.2298 0.877972 18.2043 1.01643C18.1788 1.15488 18.1808 1.297 18.2102 1.43468C18.2396 1.57236 18.2958 1.7029 18.3757 1.81885C18.4555 1.93479 18.5574 2.03387 18.6756 2.11043C18.7937 2.18699 18.9258 2.23953 19.0643 2.26505C19.2027 2.29056 19.3448 2.28856 19.4825 2.25915C21.2636 1.88089 23.1911 2.43488 24.4993 3.88241C25.1193 4.56943 25.5474 5.40756 25.7407 6.31253C25.9339 7.2175 25.8855 8.15741 25.6003 9.03772L25.6006 9.0381C25.5571 9.17208 25.5405 9.31332 25.5517 9.45374C25.5629 9.59416 25.6016 9.731 25.6658 9.8564C25.73 9.98181 25.8182 10.0933 25.9256 10.1846C26.0329 10.2758 26.1572 10.345 26.2913 10.3881C26.5616 10.4755 26.8555 10.452 27.1086 10.3229C27.3616 10.1938 27.553 9.96949 27.6409 9.69931L27.6412 9.69484C28.4261 7.25922 27.9301 4.48256 26.0906 2.44605Z" fill="white"/>
<path d="M23.2662 4.99405C22.3712 4.00111 21.0498 3.62396 19.8298 3.88346C19.7084 3.90567 19.5927 3.95201 19.4895 4.01974C19.3863 4.08747 19.2978 4.17521 19.2292 4.27777C19.1605 4.38033 19.1131 4.49562 19.0898 4.61681C19.0665 4.73801 19.0678 4.86265 19.0935 4.98335C19.1193 5.10405 19.1689 5.21836 19.2397 5.31952C19.3104 5.42067 19.4006 5.50661 19.5052 5.57225C19.6097 5.63789 19.7263 5.68189 19.8481 5.70165C19.9699 5.72141 20.0945 5.71652 20.2144 5.68728V5.68803C20.5175 5.62321 20.8323 5.63916 21.1273 5.7343C21.4224 5.82944 21.6872 6.00041 21.8953 6.2301C22.1031 6.46037 22.2465 6.74135 22.311 7.04472C22.3755 7.34808 22.3589 7.66309 22.2628 7.95798H22.2636C22.1883 8.19086 22.2085 8.44411 22.3199 8.66206C22.4312 8.88001 22.6246 9.04484 22.8574 9.12031C23.0904 9.19544 23.3436 9.17497 23.5615 9.0634C23.7794 8.95184 23.9441 8.75831 24.0193 8.52537C24.4028 7.33883 24.1631 5.98662 23.2662 4.99405Z" fill="white"/>
<path d="M12.0182 15.5103C11.8559 15.788 11.4977 15.9213 11.217 15.8055C10.9407 15.6916 10.854 15.3818 11.0111 15.1093C11.1727 14.8383 11.5174 14.7061 11.7926 14.8152C12.0725 14.9176 12.1731 15.2314 12.0182 15.5103ZM10.5412 17.4064C10.093 18.1216 9.13281 18.4351 8.40942 18.1049C7.69682 17.7806 7.48647 16.9493 7.93547 16.2519C8.37814 15.5576 9.30593 15.2478 10.0237 15.5486C10.7497 15.8584 10.982 16.6838 10.5412 17.4064ZM12.2259 12.3438C10.02 11.7697 7.52668 12.8692 6.56874 14.813C5.59292 16.7951 6.53672 18.9954 8.7646 19.7151C11.0733 20.4594 13.7941 19.319 14.7401 17.179C15.6735 15.0874 14.5085 12.9339 12.2259 12.3438Z" fill="white"/>
</svg>
