<svg width="24" height="24" viewBox="0 0 24 24" fill="none" xmlns="http://www.w3.org/2000/svg">
<path fill-rule="evenodd" clip-rule="evenodd" d="M12 6C9.45073 6 7.31021 6.0974 5.72494 6.20483C4.89327 6.2612 4.22483 6.91721 4.16689 7.80827C4.07733 9.18566 4 10.7453 4 12C4 13.2547 4.07733 14.8143 4.16689 16.1917C4.22483 17.0828 4.89327 17.7388 5.72494 17.7952C7.31021 17.9026 9.45073 18 12 18C14.5493 18 16.6898 17.9026 18.2751 17.7952C19.1067 17.7388 19.7752 17.0828 19.8331 16.1917C19.9227 14.8143 20 13.2547 20 12C20 10.7453 19.9227 9.18566 19.8331 7.80827C19.7752 6.91721 19.1067 6.2612 18.2751 6.20483C16.6898 6.0974 14.5493 6 12 6ZM5.58971 4.20941C3.72849 4.33555 2.29215 5.81694 2.1711 7.6785C2.08072 9.06851 2 10.6796 2 12C2 13.3204 2.08072 14.9315 2.1711 16.3215C2.29215 18.1831 3.72849 19.6645 5.58971 19.7906C7.21433 19.9007 9.40027 20 12 20C14.5997 20 16.7857 19.9007 18.4103 19.7906C20.2715 19.6645 21.7078 18.1831 21.8289 16.3215C21.9193 14.9315 22 13.3204 22 12C22 10.6796 21.9193 9.06851 21.8289 7.6785C21.7078 5.81694 20.2715 4.33555 18.4103 4.20941C16.7857 4.09931 14.5997 4 12 4C9.40027 4 7.21433 4.09931 5.58971 4.20941Z" fill="white"/>
<path d="M10 10.0015C10 9.20425 10.8873 8.72757 11.5521 9.16772L14.5455 11.1497C15.1547 11.5531 15.1546 12.4473 14.5454 12.8507L11.552 14.8324C10.8873 15.2725 10 14.7958 10 13.9986V10.0015Z" fill="white"/>
</svg>
